<?xml version="1.0" standalone="no"?>
<!DOCTYPE svg PUBLIC "-//W3C//DTD SVG 1.1//EN" "http://www.w3.org/Graphics/SVG/1.1/DTD/svg11.dtd" >
<svg xmlns="http://www.w3.org/2000/svg" xmlns:xlink="http://www.w3.org/1999/xlink" version="1.1">
<metadata></metadata>
<defs>
<font id="indivisa_text_sansregular" horiz-adv-x="575" >
<font-face units-per-em="1000" ascent="754" descent="-246" />
<missing-glyph horiz-adv-x="258" />
<glyph unicode="&#x2f;symbol&#x33;&#x2f;" horiz-adv-x="957" d="M505 638l68 -270h270l-203 -135l136 -270l-271 135l-270 -270l135 405l-270 203l338 -68zM814 87q18 0 30.5 -12.5t12.5 -31.5q0 -18 -12.5 -30.5t-30.5 -12.5t-30.5 12.5t-12.5 30.5q0 19 12.5 31.5t30.5 12.5zM854 43q0 17 -11.5 29t-28.5 12t-28.5 -12t-11.5 -29 t12 -28.5t28 -11.5t28 11.5t12 28.5zM796 68h18q8 0 11 -2q6 -3 6 -10q0 -5 -4 -9q-3 -3 -6 -3q7 -3 8 -10q2 -14 3 -16h-7q-1 2 -2 7.5t-1 6.5q0 9 -10 9h-9v-23h-7v50zM803 47h10q5 0 7 1q3 3 3 6q0 9 -10 9h-10v-16z" />
<glyph unicode="&#x2f;symbol&#x32;&#x2f;" horiz-adv-x="932" d="M494 570l52 -90l-137 -240h-103l137 240l-52 90h103zM357 570l52 -90l-138 -240h-103l138 240l-52 90h103zM752 120h-103l-137 240l51 90l137 -240h103zM683 0h-103l-137 240l51 90l138 -240h103zM100 120l51 90h275l51 -90h-274l-52 -90zM168 0l52 90h274l52 -90h-275 l-51 -90zM789 88q18 0 30.5 -13t12.5 -31t-12.5 -31t-30.5 -13t-30.5 13t-12.5 31t12.5 31t30.5 13zM829 44q0 16 -11.5 28t-28.5 12t-28.5 -12t-11.5 -28t11.5 -28t28.5 -12t28.5 12t11.5 28zM771 69h18q7 0 11 -2q5 -4 5 -11q0 -5 -3 -8q-1 -2 -6 -4q7 -1 8 -9q0 -8 3 -16 h-8q-1 2 -1.5 6.5t-0.5 6.5q-1 10 -11 10h-8v-23h-7v50zM778 47h10q5 0 7 1q3 3 3 7q0 8 -10 8h-10v-16z" />
<glyph unicode="&#x2f;symbol&#x35;&#x2f;" horiz-adv-x="705" d="M232 -6l-132 136l124 234l129 -136zM474 -6l-121 234l128 136l124 -234z" />
<glyph unicode="&#x2f;symbol&#x31;&#x2f;" horiz-adv-x="5534" d="M1865 412q-25 0 -40.5 14.5t-15.5 37.5q0 35 32.5 64t70.5 29q24 0 39 -13.5t15 -37.5q0 -36 -31 -65t-70 -29zM1284 412q-26 0 -41.5 14.5t-15.5 37.5q0 35 33 64t71 29q24 0 38.5 -13.5t14.5 -37.5q0 -36 -31 -65t-69 -29zM959 0q0 42 11 108q-16 -50 -51.5 -82.5 t-78.5 -32.5q-41 0 -63 29.5t-22 82.5q0 62 27 121t84 101t132 42q17 0 25 -1l16 73l6 102l136 7q0 -67 -46 -273t-46 -277h-130zM100 0l78 364q17 86 21 136l128 7l11 -15l-104 -492h-134zM3503 492l-57 -492h-131l20 175q5 50 33 215h-3q-31 -102 -81 -215l-76 -175h-149 l-2 175q-2 121 9 215h-2q-32 -130 -59 -215l-53 -175h-109l154 500l184 6l1 -137q2 -134 -15 -259h2q39 126 94 259l56 131l169 7zM5316 300q-37 -177 -37 -183q0 -34 36 -34q25 0 59 18l-9 -79q-52 -29 -114 -29q-105 0 -105 100q0 20 40 210l-47 1l9 44l54 14l53 95l81 6 l13 -15l-20 -86h99l6 -14l-17 -51zM336 0q0 79 41 260l6 102l137 7q0 -31 -7 -89h2q52 89 134 89q34 0 53 -19.5t19 -51.5q0 -27 -26 -147q-18 -85 -18 -151h-131q0 55 19 150q15 78 15 87q0 24 -17 24q-34 0 -64 -82.5t-32 -178.5h-131zM1170 0q0 72 27 193l14 67l6 102 l137 7q0 -46 -27 -177t-27 -192h-130zM1399 362l140 7q13 -129 -5 -289h2q76 151 91 284q22 5 50 5q32 0 48.5 -8.5t16.5 -33.5q0 -46 -51 -147.5t-116 -179.5h-149q-5 228 -27 362zM1752 0q0 69 26 193l15 67l6 102l137 7q0 -46 -27 -177t-27 -192h-130zM4716 0 q0 79 41 260l6 102l137 7q0 -12 -7 -89h2q52 89 134 89q34 0 53 -19.5t19 -51.5q0 -27 -26 -147q-19 -90 -19 -151h-130q0 55 19 150q15 78 15 87q0 24 -17 24q-35 0 -65 -82t-32 -179h-130zM2245 256q-52 30 -97 30q-18 0 -30 -7t-12 -19q0 -14 20 -26.5t44 -22t44 -33 t20 -56.5q0 -57 -53 -93t-128 -36q-78 0 -118 28l27 93q57 -38 111 -38q19 0 29.5 7.5t10.5 18.5q0 13 -20 26t-44 23t-44 33t-20 55q0 56 54.5 93t128.5 37q58 0 104 -18zM2525 369q88 0 146 -32l-29 -128q-31 -145 -31 -209h-130q0 37 12 112q-15 -52 -51 -85.5t-81 -33.5 q-41 0 -62.5 29.5t-21.5 83.5q0 62 26.5 120.5t85 100.5t136.5 42zM4653 51q-67 -58 -159 -58q-65 0 -103.5 35t-38.5 102q0 94 68.5 166.5t167.5 72.5q54 0 86.5 -23.5t32.5 -64.5q0 -57 -60 -96.5t-161 -43.5v-1q0 -64 63 -64q42 0 90 28zM3936 0q0 74 42 260l5 102l137 7 q0 -31 -7 -89h2q53 89 134 89q34 0 53 -19.5t19 -51.5q0 -27 -26 -147q-18 -85 -18 -151h-131q0 55 19 150q15 71 15 87q0 24 -17 24q-34 0 -64 -82.5t-32 -178.5h-131zM3768 369q87 0 145 -32l-28 -128q-31 -145 -31 -209h-130q0 45 12 112q-15 -52 -51 -85.5t-81 -33.5 q-41 0 -63 29.5t-22 83.5q0 46 16 91.5t46 84t79 63t108 24.5zM4490 177q47 10 73 34t26 59q0 31 -22 31q-28 0 -48.5 -38.5t-28.5 -85.5zM3677 101q23 0 47 43t38 101q1 8 4.5 24.5t4.5 19.5q-16 8 -27 8q-34 0 -62.5 -54.5t-28.5 -101.5q0 -40 24 -40zM913 101 q22 0 44.5 39.5t37.5 94.5q1 9 8 40l3 14q-14 8 -27 8q-33 0 -61.5 -54.5t-28.5 -101.5q0 -40 24 -40zM2435 101q23 0 47 43.5t37 100.5q3 14 9 44q-14 8 -27 8q-34 0 -62 -54.5t-28 -101.5q0 -40 24 -40z" />
<glyph unicode="&#x2f;symbol&#x34;&#x2f;" horiz-adv-x="2607" d="M1684 406q0 65 -11 128l126 14l15 -15v-533h-130v406zM1889 406q0 62 -10 128l126 14l14 -15v-533h-130v406zM427 101v-101h-320v362q0 80 -7 135l126 7l14 -14v-396zM925 21l7 109q62 -36 144 -36q50 0 50 36q0 20 -31.5 41.5t-69 40.5t-69 57t-31.5 88q0 69 55 108 t138 39q80 0 127 -18l-14 -111q-56 29 -111 29q-27 0 -42.5 -11t-15.5 -29q0 -20 20.5 -38t50 -34t59.5 -35t50.5 -51t20.5 -72q0 -66 -53.5 -103.5t-139.5 -37.5q-41 0 -83.5 8t-61.5 20zM795 0l-106 -7q-11 16 -21 49h-4q-34 -49 -104 -49q-43 0 -70 23t-27 66 q0 113 191 118v20q0 54 -58 54q-55 0 -108 -29l-8 97q72 26 150 26q154 0 154 -135q0 -25 -2 -69t-2 -70q0 -51 15 -94zM1626 0l-107 -7q-12 20 -21 49h-3q-34 -49 -105 -49q-43 0 -69.5 23t-26.5 66q0 113 191 118v20q0 54 -58 54q-54 0 -109 -29l-7 97q72 26 150 26 q153 0 153 -135q0 -25 -1.5 -69.5t-1.5 -69.5q0 -51 15 -94zM2405 213q0 -24 -1 -36l-11 -11h-191q14 -83 98 -83q44 0 84 21l7 -81q-46 -30 -127 -30q-90 0 -144 47.5t-54 134.5q0 85 52 139t132 54q72 0 113.5 -43t41.5 -112zM2199 207l78 4q2 14 2 26q0 59 -34 59 q-44 0 -46 -89zM654 74v88q-29 -3 -47 -18t-18 -39q0 -18 10 -29t27 -11q16 0 28 9zM1485 74v88q-29 -3 -47 -18t-18 -39q0 -18 10 -29t27 -11q16 0 28 9zM2464 85q18 0 30.5 -13t12.5 -31t-12.5 -31t-30.5 -13t-31 13t-13 31t13 31t31 13zM2504 41q0 17 -12 28.5t-28 11.5 t-28 -11.5t-12 -28.5t12 -28.5t28 -11.5t28 11.5t12 28.5zM2446 66h18q7 0 11 -3q5 -3 5 -10q0 -5 -3 -9q-3 -3 -6 -3q7 -1 8 -10q0 -7 3 -15h-8q-1 2 -1.5 6.5t-0.5 6.5q-1 9 -11 9h-8v-22h-7v50zM2453 44h10q5 0 7 1q3 3 3 7q0 8 -10 8h-10v-16z" />
<glyph unicode=" "  horiz-adv-x="258" />
<glyph unicode="&#x09;" horiz-adv-x="258" />
<glyph unicode="&#xa0;" horiz-adv-x="258" />
<glyph unicode="!" horiz-adv-x="280" d="M163 201h-50q-14 416 -17 485l74 10l9 -8q-5 -265 -16 -487zM188 50q0 -25 -14.5 -42.5t-38.5 -17.5q-22 0 -35 15t-13 38q0 24 16 42t39 18q21 0 33.5 -15t12.5 -38z" />
<glyph unicode="&#x22;" horiz-adv-x="278" d="M104 756l7 -11l-23 -243h-30l-20 254h66zM227 756l6 -11l-23 -243h-29l-21 254h67z" />
<glyph unicode="#" horiz-adv-x="694" d="M196 -10l-42 5l-8 8l36 145h-134l-8 8l7 41h147l37 146h-141l-8 8l7 42h154l38 153l42 -5l8 -8l-35 -140h168l38 153l42 -5l8 -8l-35 -140h129l8 -8l-6 -42h-143l-37 -146h141l8 -8l-6 -41h-155l-39 -158l-41 5l-8 8l35 145h-168zM247 197h169l36 146h-169z" />
<glyph unicode="$" horiz-adv-x="479" d="M222 -140l-8 8v122q-93 0 -155 36l7 70q66 -42 153 -42q58 0 90 30.5t32 80.5q0 24 -8.5 45t-18.5 35t-33 31t-35 24t-41 24q-27 16 -42 25.5t-37 28t-33.5 36t-20.5 43.5t-9 57q0 73 44.5 120.5t118.5 58.5v130l32 3l8 -8v-122h3q84 0 139 -31l-10 -71q-58 39 -131 39 q-58 0 -91 -30t-33 -80q0 -27 10.5 -50t29 -39.5t40 -31t46.5 -28.5q9 -5 13 -7q30 -17 50.5 -32t43 -39t34 -55t11.5 -70q0 -75 -45.5 -122t-121.5 -57v-129z" />
<glyph unicode="%" horiz-adv-x="969" d="M418 498q0 -97 -52.5 -150.5t-128.5 -53.5t-124 53t-48 144q0 97 52 151.5t129 54.5t124.5 -53.5t47.5 -145.5zM737 696l-423 -706h-46l421 706h48zM131 497q0 -73 28.5 -116.5t81.5 -43.5q51 0 81.5 41.5t30.5 115.5t-28.5 117.5t-80.5 43.5t-82.5 -40.5t-30.5 -117.5z M904 126q0 -97 -52.5 -150.5t-128.5 -53.5q-77 0 -124.5 53t-47.5 144q0 97 52 151.5t129 54.5t124.5 -53.5t47.5 -145.5zM616 125q0 -73 28.5 -117t81.5 -44q51 0 81.5 41.5t30.5 116.5q0 74 -28 117.5t-81 43.5q-51 0 -82 -40.5t-31 -117.5z" />
<glyph unicode="&#x26;" horiz-adv-x="751" d="M334 635q-46 0 -78 -27t-32 -71q0 -31 20 -70t38 -62t49 -59l147 -175q8 -11 26 -31q49 68 49 162q0 41 -6 71l75 12l13 -14q6 -160 -94 -270q55 -52 97 -52q30 0 57 18l10 -51q-33 -26 -86 -26q-66 0 -133 62q-88 -62 -192 -62q-96 0 -153.5 52t-58.5 132 q1 59 36.5 110.5t96.5 82.5q-70 88 -70 165q0 71 53 117.5t138 46.5q64 0 112 -30t71 -82l-43 -59q-51 110 -142 110zM161 189q0 -61 42.5 -103t116.5 -43q74 0 132 44q-21 22 -51 59l-144 170q-8 10 -15 17q-40 -26 -60.5 -65t-20.5 -79z" />
<glyph unicode="'" horiz-adv-x="155" d="M108 756l6 -11l-23 -243h-29l-21 254h67z" />
<glyph unicode="(" horiz-adv-x="378" d="M314 -196q-100 77 -155.5 201t-55.5 276q0 151 55.5 274.5t155.5 200.5l29 -36q-160 -174 -160 -439q0 -266 160 -440z" />
<glyph unicode=")" horiz-adv-x="378" d="M276 281q0 -152 -55.5 -275.5t-155.5 -201.5l-30 37q160 174 160 440q0 265 -160 439l30 36q100 -78 155.5 -201t55.5 -274z" />
<glyph unicode="*" horiz-adv-x="487" d="M222 366l-6 9l15 152l-131 -93l-25 43l4 9l142 63l-149 67l24 43l11 1l124 -89l-15 161h50l5 -9l-16 -155l133 97l25 -43l-5 -10l-140 -63l148 -67l-25 -43l-11 -1l-125 91l16 -163h-49z" />
<glyph unicode="+" d="M510 322h-193v-197h-52l-1 197h-204v47q48 2 204 4l-1 192h54v-192q75 1 193 1l5 -5z" />
<glyph unicode="," horiz-adv-x="231" d="M46 -170q48 92 58 160q-21 2 -34.5 17.5t-13.5 37.5q0 26 18 44.5t43 18.5t39.5 -17t14.5 -49q0 -49 -31 -116t-67 -115z" />
<glyph unicode="-" horiz-adv-x="363" d="M30 272v39h303v-39h-303z" />
<glyph unicode="." horiz-adv-x="234" d="M175 51q0 -26 -17.5 -43.5t-41.5 -17.5t-40 16t-16 41t17.5 43t42.5 18q24 0 39.5 -16t15.5 -41z" />
<glyph unicode="/" horiz-adv-x="353" d="M293 751l8 -8l-187 -747l-43 8l-8 8l187 747z" />
<glyph unicode="0" horiz-adv-x="658" d="M587 347q0 -170 -76 -263.5t-187 -93.5q-113 0 -183 93t-70 255q0 169 75.5 263.5t188.5 94.5t182.5 -94t69.5 -255zM150 345q0 -137 46 -218.5t132 -81.5q83 0 132 78t49 219q0 137 -46 218.5t-132 81.5q-82 0 -131.5 -76.5t-49.5 -220.5z" />
<glyph unicode="1" horiz-adv-x="335" d="M140 609h-1l-116 -27l-12 45l194 69l9 -9v-687h-75v464q0 104 1 145z" />
<glyph unicode="2" horiz-adv-x="578" d="M77 0l-10 64q156 135 249 248t93 200q0 55 -39 90t-107 35q-81 0 -188 -58l-8 62q102 55 212 55q93 0 150.5 -48t57.5 -123q0 -175 -345 -461h200q87 0 160 10l-10 -74h-415z" />
<glyph unicode="3" horiz-adv-x="510" d="M60 642q37 22 90.5 38t104.5 16q78 0 127.5 -39t49.5 -104q0 -60 -46 -111.5t-132 -80.5q97 -7 153.5 -50.5t56.5 -122.5q0 -88 -69.5 -143t-184.5 -55q-86 0 -164 24l8 57q75 -24 154 -24t128 37.5t49 100.5q0 66 -54 96.5t-137 30.5q-36 0 -70 -7v57q111 23 170.5 71 t59.5 107q0 44 -30.5 70.5t-86.5 26.5q-78 0 -172 -53z" />
<glyph unicode="4" horiz-adv-x="594" d="M33 242l305 442l79 11l9 -9v-439q55 0 131 9l-10 -70h-121v-186h-72v186h-310zM99 246v-2q74 2 230 2h25v209q0 115 3 163h-2z" />
<glyph unicode="5" horiz-adv-x="541" d="M73 14l7 58q72 -24 147 -24q78 0 127 42.5t49 115.5q0 72 -45.5 109t-116.5 37q-81 0 -130 -22l-14 12v344h206q87 0 160 10l-5 -73h-296v-226q49 13 104 13q92 0 154 -51t62 -148q0 -100 -70.5 -160.5t-184.5 -60.5q-80 0 -154 24z" />
<glyph unicode="6" horiz-adv-x="592" d="M308 -10q-107 0 -167.5 80.5t-60.5 226.5q0 182 90 290.5t233 108.5q59 0 84 -13l-8 -60q-28 14 -74 14q-101 0 -170.5 -79t-75.5 -231h2q32 35 79.5 53.5t95.5 18.5q87 0 140 -52.5t53 -141.5q0 -99 -63.5 -157t-157.5 -58zM318 345q-48 0 -94 -23t-63 -60 q10 -217 148 -217q63 0 102.5 41.5t39.5 111.5q0 66 -35 106.5t-98 40.5z" />
<glyph unicode="7" horiz-adv-x="529" d="M48 610l10 76h413l9 -8v-46q-113 -132 -191 -300t-88 -332h-78q10 156 95.5 329.5t186.5 291.5v2h-185q-95 0 -172 -13z" />
<glyph unicode="8" horiz-adv-x="579" d="M287 -10q-96 0 -159.5 46.5t-63.5 119.5q0 62 47 112t117 78v2q-142 74 -142 180q0 71 60.5 119.5t147.5 48.5q86 0 143 -47.5t57 -115.5q0 -56 -39.5 -104t-105.5 -77v-1q166 -73 166 -186q0 -74 -64.5 -124.5t-163.5 -50.5zM293 644q-55 0 -95 -31.5t-40 -79.5 q0 -91 141 -153q54 27 88 67.5t34 85.5q0 48 -36.5 79.5t-91.5 31.5zM278 315q-59 -26 -99.5 -67.5t-40.5 -90.5q0 -51 43 -83t107 -32q66 0 109 34t44 85q1 49 -40 84.5t-123 69.5z" />
<glyph unicode="9" horiz-adv-x="592" d="M264 267q-91 0 -146 54.5t-55 145.5q0 102 64 165.5t157 63.5q101 0 164.5 -80t63.5 -221q0 -173 -91.5 -289t-232.5 -116q-45 0 -74 8l-2 59q25 -7 68 -7q105 0 174 79t80 215h-2q-25 -38 -70.5 -57.5t-97.5 -19.5zM280 639q-60 0 -99.5 -46.5t-39.5 -120.5 q0 -68 37 -109.5t104 -41.5q47 0 88 21t62 65q-2 108 -43 170t-109 62z" />
<glyph unicode=":" horiz-adv-x="234" d="M175 376q0 -26 -17.5 -43.5t-41.5 -17.5t-40 16.5t-16 40.5q0 25 17.5 43t42.5 18q23 0 39 -16t16 -41zM175 51q0 -26 -17.5 -43.5t-41.5 -17.5t-40 16t-16 41t17.5 43t42.5 18q24 0 39.5 -16t15.5 -41z" />
<glyph unicode=";" horiz-adv-x="241" d="M182 376q0 -26 -17.5 -43.5t-41.5 -17.5q-23 0 -39.5 16.5t-16.5 40.5q0 25 17.5 43t42.5 18q24 0 39.5 -16t15.5 -41zM46 -170q48 92 58 160q-21 2 -34.5 17.5t-13.5 37.5q0 26 18 44.5t43 18.5t39.5 -17t14.5 -49q0 -49 -31 -116t-67 -115z" />
<glyph unicode="&#x3c;" d="M490 121l-426 211v32l4 7q68 35 207.5 99.5t213.5 95.5v-53l-348 -163l349 -175v-54z" />
<glyph unicode="=" d="M510 417h-450v47q170 5 450 5l5 -6zM510 229h-450v47q170 5 450 5l5 -6z" />
<glyph unicode="&#x3e;" d="M85 121v54l349 175l-348 163v53q74 -31 213.5 -95.5t207.5 -99.5l4 -7v-32z" />
<glyph unicode="?" horiz-adv-x="432" d="M206 213l-47 -1q-9 25 -9 47q0 27 18 52t43.5 46.5t51 44t43.5 54t18 67.5q0 51 -32 82.5t-85 31.5q-42 0 -84.5 -21.5t-71.5 -63.5l-35 40q33 48 87 76t117 28q83 0 132.5 -44t49.5 -118q0 -44 -19.5 -83t-48 -65.5t-56.5 -49t-47.5 -43.5t-19.5 -40t3 -32zM240 50 q0 -25 -14.5 -42.5t-38.5 -17.5q-22 0 -35 15t-13 38q0 24 16 42t39 18q21 0 33.5 -15t12.5 -38z" />
<glyph unicode="@" horiz-adv-x="1138" d="M803 -162q-132 -94 -304 -94q-191 0 -313 121t-122 313q0 157 84 291.5t219.5 210.5t285.5 76q186 0 303.5 -114.5t117.5 -284.5q0 -151 -90.5 -259t-215.5 -108q-50 0 -80.5 19t-40.5 52.5t-8 71.5t15 84h-4q-40 -91 -96 -159t-118 -68q-43 0 -70 38t-27 110 q0 90 39 173.5t113 139t164 55.5q70 0 128 -22l-52 -215q-5 -23 -7.5 -34t-7.5 -36t-5 -39.5t-0.5 -36.5t5.5 -34.5t14.5 -26t24.5 -19.5t37 -6q85 0 160.5 91t75.5 226q0 157 -106.5 260t-268.5 103q-96 0 -193 -39.5t-174.5 -107t-126.5 -169t-49 -214.5 q0 -177 110.5 -290.5t290.5 -113.5q83 0 146 21.5t131 59.5zM471 55q39 0 87 63t81 138.5t46 132.5l12 52q-35 13 -67 13q-54 0 -104 -46.5t-79.5 -116.5t-29.5 -139q0 -97 54 -97z" />
<glyph unicode="A" horiz-adv-x="612" d="M98 0h-74l205 589q25 72 33 103l76 4l11 -10l239 -686h-79l-70 199h-271zM240 404l-51 -145h229l-50 145q-51 152 -63 209h-2q-12 -53 -63 -209z" />
<glyph unicode="B" horiz-adv-x="590" d="M275 0h-172v531q0 87 -8 155h184q103 0 164 -48t61 -128q0 -56 -30.5 -95t-84.5 -58q71 -17 108 -61t37 -108q0 -87 -71 -137.5t-188 -50.5zM269 628h-89v-248h86q77 0 117.5 31.5t40.5 89.5q0 59 -40 93t-115 34zM272 324h-92v-265h95q86 0 131.5 34.5t45.5 97.5 q0 62 -44 97.5t-136 35.5z" />
<glyph unicode="C" horiz-adv-x="592" d="M534 109l9 -65q-72 -54 -188 -54q-130 0 -208.5 90.5t-78.5 252.5q0 166 82.5 264.5t213.5 98.5q105 0 173 -43l-15 -71q-66 48 -155 48q-96 0 -157 -77t-61 -214q0 -127 57.5 -205t160.5 -78q92 0 167 53z" />
<glyph unicode="D" horiz-adv-x="681" d="M613 346q0 -162 -94.5 -254t-248.5 -92h-167v531q0 87 -8 155h188q144 0 237 -92t93 -248zM276 627h-96v-567h93q127 0 193 74t66 208q0 131 -69 208t-187 77z" />
<glyph unicode="E" horiz-adv-x="521" d="M481 64v-64h-378v531q0 87 -8 155h369l8 -8l-1 -56l-291 6v-260l247 3l-1 -61l-246 3v-254z" />
<glyph unicode="F" horiz-adv-x="496" d="M180 0h-77v531q0 87 -8 155h364l8 -8l-1 -56l-286 6v-272l242 3l-1 -61l-241 3v-301z" />
<glyph unicode="G" horiz-adv-x="648" d="M563 299l8 -8l-2 -253q-40 -22 -97.5 -35t-110.5 -13q-136 0 -214.5 90t-78.5 250q0 169 85.5 267.5t230.5 98.5q97 0 167 -38l-14 -70q-63 44 -149 44q-109 0 -174 -76.5t-65 -216.5q0 -129 57.5 -207t165.5 -78q58 0 123 19v50q0 83 -9 166z" />
<glyph unicode="H" horiz-adv-x="705" d="M180 0h-77v529q0 80 -8 157l77 10l8 -8v-317h344v158q0 90 -7 157l76 10l9 -8v-688h-78v312h-344v-312z" />
<glyph unicode="I" horiz-adv-x="283" d="M180 0h-77v529q0 80 -8 157l77 10l8 -8v-688z" />
<glyph unicode="J" horiz-adv-x="273" d="M31 -193l-25 38q87 69 87 222v462q0 79 -9 155l78 12l9 -8v-621q0 -102 -33.5 -162t-106.5 -98z" />
<glyph unicode="K" horiz-adv-x="590" d="M103 529q0 88 -8 157l75 10l9 -8v-323h97q28 43 211 331l65 -12l6 -8l-219 -327l242 -349l-84 -9q-66 92 -219 315h-99v-306h-76v529z" />
<glyph unicode="L" horiz-adv-x="492" d="M470 64v-64h-367v530q0 79 -8 156l77 10l8 -8v-629z" />
<glyph unicode="M" horiz-adv-x="860" d="M704 696l10 -8l85 -688h-77l-33 264q-23 180 -34 326h-2q-27 -104 -98 -326l-86 -264h-86l-84 264q-75 229 -100 326h-1q-8 -100 -36 -326l-33 -264h-68l86 691l89 5l123 -365q46 -142 71 -258h1q28 119 72 258l120 360z" />
<glyph unicode="N" horiz-adv-x="703" d="M358 398q10 -15 40 -64t40.5 -66t30.5 -51.5t34 -61t27 -55.5h2q-6 97 -6 415q0 86 -8 171l74 10l9 -9v-687h-78q-111 181 -182 297q-128 205 -168 287h-1q6 -85 6 -237v-347h-75v531q0 78 -8 155l81 10q37 -61 102 -167.5t80 -130.5z" />
<glyph unicode="O" horiz-adv-x="699" d="M632 345q0 -167 -82 -261t-206 -94q-121 0 -198.5 91.5t-77.5 251.5q0 165 82 264t207 99q123 0 199 -95t76 -256zM149 341q0 -131 53.5 -210t146.5 -79t147.5 76.5t54.5 213.5q0 132 -51 212t-144 80q-92 0 -149.5 -78.5t-57.5 -214.5z" />
<glyph unicode="P" horiz-adv-x="557" d="M180 0h-77v531q0 87 -8 155h185q109 0 174 -58t65 -157q0 -104 -70.5 -161.5t-184.5 -57.5h-84v-252zM268 628h-88v-317h85q84 0 128.5 41t44.5 117q0 73 -42 116t-128 43z" />
<glyph unicode="Q" horiz-adv-x="715" d="M632 345q0 -149 -65.5 -239.5t-169.5 -110.5q160 -93 336 -93l-16 -75q-95 0 -200.5 46t-191.5 118q-114 7 -185.5 97.5t-71.5 244.5q0 165 82 264t207 99q123 0 199 -95t76 -256zM149 341q0 -131 53.5 -210t146.5 -79t147.5 76.5t54.5 213.5q0 132 -51 212t-144 80 q-92 0 -149.5 -78.5t-57.5 -214.5z" />
<glyph unicode="R" horiz-adv-x="587" d="M180 0h-77v531q0 87 -8 155h178q113 0 179.5 -56.5t66.5 -151.5q0 -70 -36.5 -117t-99.5 -68l167 -293l-83 -9q-76 137 -151 281h-136v-272zM268 628h-88v-298h85q84 0 128.5 37.5t44.5 108.5q0 69 -42 110.5t-128 41.5z" />
<glyph unicode="S" horiz-adv-x="513" d="M455 171q0 -84 -61 -132.5t-162 -48.5t-173 36l8 70q73 -42 168 -42q66 0 103 30.5t37 80.5q0 24 -10 45.5t-20.5 35t-36.5 30.5t-38.5 24t-46.5 24q-38 20 -59 33.5t-48 36.5t-39.5 53t-12.5 67q0 84 62 133t162 49q92 0 154 -31l-11 -71q-65 39 -145 39 q-67 0 -104.5 -30t-37.5 -80q0 -12 3 -23.5t6 -20.5t11 -19t12.5 -16t17.5 -15.5t18 -13.5t21.5 -13t21 -11.5t23.5 -12t22 -11.5q34 -17 56.5 -32t47.5 -39t38 -55.5t13 -69.5z" />
<glyph unicode="T" horiz-adv-x="537" d="M308 0h-78v626q-104 -2 -209 -6l5 66h485l5 -66q-105 5 -208 6v-626z" />
<glyph unicode="U" horiz-adv-x="653" d="M89 531q0 83 -10 157l83 8l5 -5v-464q0 -82 45 -128t116 -46q72 0 116.5 45t44.5 129v314q0 80 -10 147l85 8v-471q0 -113 -68.5 -174t-173.5 -61q-102 0 -167.5 61.5t-65.5 173.5v306z" />
<glyph unicode="V" horiz-adv-x="608" d="M270 -4l-247 693l82 7l143 -412q47 -129 62 -201q13 59 69 219l137 394l63 -6l6 -8l-245 -686h-70z" />
<glyph unicode="W" horiz-adv-x="980" d="M242 -4l-211 692l79 8l122 -408q41 -135 52 -203q12 66 59 220l115 386l74 5l122 -408q41 -130 53 -203q12 66 58 219l117 392l61 -6l6 -8l-210 -686h-70l-133 425q-28 99 -45 168h-1q-16 -69 -46 -169l-132 -424h-70z" />
<glyph unicode="X" horiz-adv-x="565" d="M31 0l-4 9l207 333l-207 343l82 11l180 -303h2l174 303l69 -6l4 -9l-206 -337l206 -344h-88l-173 293h-2l-173 -293h-71z" />
<glyph unicode="Y" horiz-adv-x="560" d="M241 246l-218 443l83 7l117 -243q43 -89 62 -141h2q33 76 65 142l115 242l64 -6l6 -8l-218 -439v-243h-78v246z" />
<glyph unicode="Z" horiz-adv-x="520" d="M43 0l-13 49l364 573l-352 -4l5 68h417l19 -48l-362 -574l366 5l-5 -69h-439z" />
<glyph unicode="[" horiz-adv-x="335" d="M90 756h213v-60h-139v-831h139v-61h-213v952z" />
<glyph unicode="\" horiz-adv-x="361" d="M247 -4l-187 747l8 8l43 8l187 -747l-8 -8z" />
<glyph unicode="]" horiz-adv-x="335" d="M245 756v-952h-214v61h140v831h-140v60h214z" />
<glyph unicode="^" horiz-adv-x="525" d="M145 210h-57l144 336h58l148 -336h-57l-121 276z" />
<glyph unicode="_" horiz-adv-x="373" d="M0 -197v38h373v-38h-373z" />
<glyph unicode="`" horiz-adv-x="325" d="M209 577q-101 67 -160 155l5 14l69 14q32 -72 111 -171z" />
<glyph unicode="a" horiz-adv-x="504" d="M405 144q0 -78 24 -144l-67 -10q-16 32 -24 70h-1q-22 -29 -63.5 -49.5t-89.5 -20.5q-60 0 -94.5 32.5t-34.5 85.5q0 80 78 122.5t198 49.5v66q0 101 -103 101q-76 0 -152 -47l-4 64q86 42 172 42q80 0 121.5 -38.5t41.5 -106.5q0 -37 -1 -116.5t-1 -100.5zM131 119 q0 -32 20.5 -54.5t58.5 -22.5q32 0 65.5 16t55.5 40v144q-87 -6 -143.5 -37.5t-56.5 -85.5z" />
<glyph unicode="b" horiz-adv-x="562" d="M497 250q0 -125 -58.5 -192.5t-156.5 -67.5q-61 0 -116 19l-71 -19v599q0 79 -9 155l75 12l9 -8v-292q55 50 132 50q89 0 142 -68.5t53 -187.5zM280 452q-64 0 -110 -43v-351q47 -18 104 -18q68 0 106.5 53t38.5 152q0 97 -36 152t-103 55z" />
<glyph unicode="c" horiz-adv-x="479" d="M432 473l-19 -63q-52 37 -116 37q-70 0 -111.5 -50.5t-41.5 -144.5t41 -149t115 -55q61 0 123 38l6 -55q-59 -41 -143 -41q-100 0 -160.5 67t-60.5 187q0 123 64 192.5t168 69.5q78 0 135 -33z" />
<glyph unicode="d" horiz-adv-x="565" d="M384 744l75 12l9 -8v-609q0 -76 24 -139l-68 -10q-12 24 -24 69h-1q-48 -69 -138 -69q-87 0 -141.5 67t-54.5 181q0 127 67 197.5t171 70.5q47 0 90 -16v99q0 89 -9 155zM144 246q0 -95 38 -149.5t103 -54.5q64 0 108 54v345q-45 16 -87 16q-72 0 -117 -53.5t-45 -157.5z " />
<glyph unicode="e" horiz-adv-x="511" d="M452 257l-15 -15h-293q3 -96 46 -145t114 -49q66 0 131 43l6 -55q-64 -46 -154 -46q-101 0 -161.5 66.5t-60.5 185.5q0 123 62.5 193.5t153.5 70.5q79 0 125.5 -52t46.5 -138q0 -40 -1 -59zM277 454q-53 0 -90.5 -45.5t-42.5 -129.5l233 7q0 5 0.5 17t0.5 19q0 60 -27 96 t-74 36z" />
<glyph unicode="f" horiz-adv-x="321" d="M179 0h-75v445l-75 3v33l75 10q0 13 -1.5 47t-1.5 44q0 83 42.5 128.5t121.5 45.5q67 0 115 -28l-18 -62q-48 31 -98 31q-89 0 -89 -113q0 -39 2 -93h133l7 -8l-3 -41l-135 3v-445z" />
<glyph unicode="g" horiz-adv-x="490" d="M115 76q1 46 41 81q-47 19 -74.5 61t-27.5 100q0 80 48.5 134t132.5 54q63 0 103 -31q18 19 49 30.5t62 11.5l11 -4l-2 -62h-96q48 -48 48 -124q0 -79 -48 -131.5t-130 -52.5q-18 0 -38 3q-16 -21 -16 -47q0 -23 13.5 -34.5t44.5 -14.5l85 -6q63 -4 104 -34t41 -89 q0 -74 -64 -125.5t-173 -51.5q-94 0 -150 37.5t-56 94.5q0 34 18.5 58.5t42.5 36.5l32 -15q-25 -29 -25 -60q0 -43 39 -74.5t107 -31.5q69 0 111 32t42 81q0 37 -25.5 58t-70.5 25l-76 6q-101 9 -103 84zM336 323q0 64 -26.5 100t-76.5 36q-52 0 -78.5 -35t-26.5 -99 q0 -63 27 -99t79 -36q50 0 76 34.5t26 98.5z" />
<glyph unicode="h" horiz-adv-x="565" d="M170 0h-75v589q0 88 -9 155l75 12l9 -8v-313q77 71 164 71q64 0 99 -37.5t35 -108.5v-360h-75v344q0 105 -90 105q-64 0 -133 -58v-391z" />
<glyph unicode="i" horiz-adv-x="269" d="M184 670q0 -26 -15.5 -44.5t-40.5 -18.5q-23 0 -36.5 15.5t-13.5 39.5q0 25 17 43.5t41 18.5q22 0 35 -15t13 -39zM96 0v339q0 97 -9 155l76 12l8 -8v-498h-75z" />
<glyph unicode="j" horiz-adv-x="270" d="M184 670q0 -26 -15.5 -44.5t-40.5 -18.5q-23 0 -37 15.5t-14 39.5q0 25 17 43.5t41 18.5q22 0 35.5 -15t13.5 -39zM42 -256l-26 33q81 67 81 189v373q0 77 -9 155l75 12l9 -8v-524q0 -87 -32 -141.5t-98 -88.5z" />
<glyph unicode="k" horiz-adv-x="510" d="M95 589q0 89 -9 155l75 12l9 -8v-468h78q60 85 151 226l57 -12l6 -9l-151 -209q56 -90 180 -276l-83 -10q-62 91 -156 243h-82v-233h-75v589z" />
<glyph unicode="l" horiz-adv-x="269" d="M171 0h-75v589q0 89 -9 155l76 12l8 -8v-748z" />
<glyph unicode="m" horiz-adv-x="850" d="M175 0h-75v341q0 79 -20 148l70 17q13 -33 22 -74q76 74 161 74q96 0 122 -80q77 80 166 80q63 0 97 -36t34 -103v-367h-75v352q0 97 -86 97q-62 0 -129 -59q2 -14 2 -23v-367h-75v352q0 97 -87 97q-62 0 -127 -59v-390z" />
<glyph unicode="n" horiz-adv-x="570" d="M175 0h-75v341q0 79 -20 148l69 17q14 -31 23 -74q77 74 167 74q64 0 99 -37.5t35 -108.5v-360h-75v344q0 105 -90 105q-65 0 -133 -59v-390z" />
<glyph unicode="o" horiz-adv-x="559" d="M494 252q0 -125 -63.5 -193.5t-156.5 -68.5t-151 67.5t-58 185.5q0 124 63 193.5t157 69.5t151.5 -68.5t57.5 -185.5zM144 250q0 -95 34.5 -151.5t99.5 -56.5q63 0 100.5 53.5t37.5 150.5q0 95 -34.5 151.5t-99.5 56.5q-63 0 -100.5 -52.5t-37.5 -151.5z" />
<glyph unicode="p" horiz-adv-x="568" d="M100 -248v589q0 79 -20 148l70 17q14 -35 18 -57q57 57 140 57q84 0 139.5 -67.5t55.5 -184.5q0 -118 -57 -191t-157 -73q-61 0 -114 24v-107q0 -73 9 -151l-75 -12zM283 452q-65 0 -108 -48v-338q50 -26 102 -26q71 0 109 55t38 154q0 100 -38 151.5t-103 51.5z" />
<glyph unicode="q" horiz-adv-x="565" d="M393 -248v291q-55 -53 -132 -53q-88 0 -142 68.5t-54 185.5q0 125 68 193.5t177 68.5q48 0 96 -15l62 15v-595q0 -86 8 -155l-75 -12zM144 250q0 -95 36.5 -151.5t102.5 -56.5q65 0 110 45v360q-42 10 -73 10q-83 0 -129.5 -54t-46.5 -153z" />
<glyph unicode="r" horiz-adv-x="384" d="M175 0h-75v341q0 79 -20 148l70 17q17 -40 24 -88q73 88 145 88q30 0 47 -13l-14 -69q-24 8 -45 8q-66 0 -132 -60v-372z" />
<glyph unicode="s" horiz-adv-x="439" d="M370 476l-9 -64q-63 39 -123 39q-47 0 -74.5 -21t-27.5 -55q0 -31 25.5 -54t62 -39t73 -34t62 -48.5t25.5 -72.5q0 -61 -49.5 -99t-130.5 -38q-84 0 -149 34l9 63q67 -41 144 -41q48 0 75 20.5t27 53.5q0 30 -25.5 52.5t-62 38t-73.5 33.5t-62.5 48.5t-25.5 73.5 q0 63 49 101.5t130 38.5q67 0 130 -30z" />
<glyph unicode="t" horiz-adv-x="361" d="M314 449l-139 1v-289q0 -60 19 -86.5t57 -26.5q42 0 80 25l10 -52q-49 -31 -111 -31q-130 0 -130 163v298l-73 1v34l74 10l18 117l50 5l9 -9l-3 -113h136l6 -8z" />
<glyph unicode="u" horiz-adv-x="560" d="M96 339q0 84 -7 155l74 12l8 -8v-351q0 -97 86 -97q60 0 127 59v387l75 10v-365q0 -76 19 -139l-64 -12q-14 29 -24 75h-2q-75 -75 -160 -75q-63 0 -97.5 35.5t-34.5 99.5v214z" />
<glyph unicode="v" horiz-adv-x="470" d="M446 491l-177 -495h-67l-178 504l77 6l79 -240q50 -136 60 -200h1q11 57 62 200l79 240l58 -6z" />
<glyph unicode="w" horiz-adv-x="759" d="M183 -4l-159 504l76 6l70 -235q33 -104 54 -197h1q16 76 53 191l70 239h75l68 -230q49 -160 55 -199h1q10 51 54 195l70 236l58 -6l6 -9l-157 -495h-73l-76 245q-41 133 -49 184h-1q-9 -55 -48 -183l-76 -246h-72z" />
<glyph unicode="x" horiz-adv-x="471" d="M359 0l-131 210l-128 -210h-65l-4 9l156 239l-156 247l76 11l135 -222l131 222l64 -6l3 -9l-156 -243l156 -248h-81z" />
<glyph unicode="y" horiz-adv-x="462" d="M446 491l-172 -481q-86 -248 -245 -266l-12 72q131 17 199 198h-21l-171 486l77 6l79 -240q50 -136 60 -200h1q11 54 62 200l79 240l58 -6z" />
<glyph unicode="z" horiz-adv-x="434" d="M34 432l5 64h349l8 -47l-282 -390l138 2q101 2 151 6l-5 -67h-359l-8 48l285 389z" />
<glyph unicode="{" horiz-adv-x="334" d="M160 127q0 115 -102 129v48q102 14 102 131q0 40 -15.5 104t-15.5 97q0 66 41 93t134 27l3 -47q-105 0 -105 -83q0 -28 16 -100t16 -107q0 -56 -28 -92t-73 -47q43 -10 72 -46.5t29 -90.5q0 -31 -16 -105.5t-16 -103.5q0 -83 105 -83l-3 -47q-94 0 -134.5 27t-40.5 93 q0 34 15.5 101t15.5 102z" />
<glyph unicode="|" horiz-adv-x="321" d="M142 -256l-7 7v1002l44 3l7 -7v-1002z" />
<glyph unicode="}" horiz-adv-x="334" d="M277 256l-102 -129q0 -35 15.5 -102t15.5 -101q0 -66 -41 -93t-134 -27l-3 47q105 0 105 83q0 29 -16.5 103.5t-16.5 105.5q0 54 29 90.5t72 46.5q-45 11 -73 47t-28 92q0 35 16.5 107t16.5 100q0 83 -105 83l3 47q93 0 134 -27t41 -93q0 -33 -15.5 -97t-15.5 -104 q0 -60 24 -92t78 -39v-48z" />
<glyph unicode="~" d="M416 223q-26 0 -136.5 35t-122.5 35q-16 0 -67 -72q-5 -6 -7 -9l-32 22q61 113 109 113q25 0 135.5 -35t122.5 -35q4 0 8 2t9 7t9.5 9t11.5 13t11.5 14.5t13 17.5t13.5 18l30 -22q-61 -113 -108 -113z" />
<glyph unicode="&#xa1;" horiz-adv-x="280" d="M92 446q0 24 15 42t39 18q21 0 34.5 -15t13.5 -37q0 -24 -16 -42t-40 -18q-21 0 -33.5 14.5t-12.5 37.5zM117 296h51q11 -373 17 -486l-74 -10l-9 9q3 197 15 487z" />
<glyph unicode="&#xa2;" horiz-adv-x="491" d="M273 -140l-8 8v125q-91 10 -145.5 81t-54.5 188q0 119 56.5 195t148.5 87v133l32 3l8 -8v-126q81 -3 129 -37l-15 -63q-50 40 -118 40q-74 0 -118.5 -58.5t-44.5 -157.5q0 -101 45 -160t123 -59q66 0 124 40l6 -56q-50 -40 -136 -43v-129z" />
<glyph unicode="&#xa3;" horiz-adv-x="529" d="M486 -140q-23 -11 -61 -9q-53 0 -107 22t-131.5 71t-94.5 58q-24 -13 -49 -13q-53 0 -53 36q0 17 13 26.5t33 9.5q19 0 49 -10q29 40 53 196l6 46l-111 3l7 35l110 10q10 69 19 115t25.5 95.5t38 78t55.5 47.5t79 19q74 0 118 -33l-28 -68q-43 41 -92 41q-60 0 -87.5 -62 t-53.5 -233h181l5 -8l-12 -40h-182l-7 -41q-28 -158 -80 -220q16 -8 66.5 -33.5t80 -39t74.5 -26.5t82 -13q45 0 79 13z" />
<glyph unicode="&#xa4;" horiz-adv-x="581" d="M481 44l-82 84q-48 -40 -118 -40q-62 0 -108 32l-75 -74l-33 33l74 74q-38 47 -38 112q0 69 42 122l-75 77l31 31q21 -20 77 -76q48 33 110 33q68 0 115 -38l80 81l33 -33l-81 -82q32 -46 32 -106q0 -64 -34 -111q76 -76 85 -87v-5zM283 406q-60 0 -94.5 -40t-34.5 -95 t35 -95.5t98 -40.5q62 0 94 39t32 96q0 59 -36 97.5t-94 38.5z" />
<glyph unicode="&#xa5;" horiz-adv-x="553" d="M72 124v39h167v93h-167v40h167l-216 393l80 7l115 -212q34 -67 63 -134h2q23 52 65 133l114 213l61 -6l7 -8l-214 -386h165v-40h-167v-93h167v-39h-167v-124h-75v124h-167z" />
<glyph unicode="&#xa6;" horiz-adv-x="321" d="M186 370l-36 -3l-15 7v379l44 3l7 -7v-379zM186 -253l-36 -3l-15 7v378l44 3l7 -7v-378z" />
<glyph unicode="&#xa7;" horiz-adv-x="552" d="M345 612q-47 0 -73 -25t-26 -68q0 -40 25.5 -83.5t62 -85t72.5 -85.5t61.5 -99.5t25.5 -112.5q0 -103 -76.5 -163t-197.5 -60q-82 0 -131 23l13 91q42 -30 97 -30q51 0 79.5 26.5t28.5 71.5q0 39 -25.5 82.5t-62 84t-72.5 83.5t-61.5 98t-25.5 112q0 101 73.5 162.5 t192.5 61.5q80 0 129 -23l-12 -91q-42 30 -97 30zM237 -123q55 2 96 19t63 43t32.5 55t10.5 60q0 49 -25.5 99t-62 92t-73 83t-62 88t-25.5 91q0 51 30 91t95 45l-2 6q-55 -2 -96 -18.5t-63 -43t-32 -55t-10 -59.5q0 -50 25.5 -100t62 -91.5t73 -82.5t62 -88t25.5 -91 q0 -51 -30.5 -91.5t-94.5 -45.5z" />
<glyph unicode="&#xa8;" horiz-adv-x="400" d="M149 668q0 -25 -14.5 -43.5t-38.5 -18.5q-21 0 -34 15t-13 37q0 24 16 42.5t38 18.5q21 0 33.5 -14t12.5 -37zM350 668q0 -25 -14.5 -43.5t-38.5 -18.5q-21 0 -34 15t-13 37q0 25 15.5 43t38.5 18q21 0 33.5 -14t12.5 -37z" />
<glyph unicode="&#xa9;" horiz-adv-x="689" d="M345 -40q-123 0 -206.5 83.5t-83.5 206.5q0 119 85.5 204.5t204.5 85.5q123 0 206 -85t83 -205q0 -119 -85 -204.5t-204 -85.5zM345 0q103 0 176.5 73.5t73.5 176.5q0 104 -73.5 177t-176.5 73t-176.5 -73.5t-73.5 -176.5q0 -106 71.5 -178t178.5 -72zM452 392l-14 -48 q-35 23 -73 23q-44 0 -71.5 -30t-27.5 -78q0 -55 26.5 -86.5t73.5 -31.5q40 0 78 23l6 -42q-38 -25 -94 -25q-67 0 -107.5 41t-40.5 115q0 70 44 114t113 44q51 0 87 -19z" />
<glyph unicode="&#xaa;" horiz-adv-x="421" d="M337 402q0 -64 19 -112l-55 -8q-12 23 -20 55h-1q-17 -23 -51.5 -39t-74.5 -16q-49 0 -77 25.5t-28 66.5q0 63 64 96t163 39v49q0 78 -85 78q-64 0 -125 -36l-3 52q68 33 142 33q65 0 99.5 -30.5t34.5 -84.5q0 -29 -1 -90t-1 -78zM112 384q0 -25 17 -42t48 -18 q58 2 99 43v111q-72 -5 -118 -29t-46 -65z" />
<glyph unicode="&#xab;" horiz-adv-x="455" d="M54 283v21q74 65 169 193l20 -11q-43 -102 -114 -193q71 -91 114 -193l-20 -11q-95 127 -169 194zM226 283v21q69 60 169 193l20 -11q-46 -106 -114 -193q68 -87 114 -193l-20 -11q-100 132 -169 194z" />
<glyph unicode="&#xac;" d="M499 314l-1 -220h-52v175h-389v48q163 5 434 5z" />
<glyph unicode="&#xae;" horiz-adv-x="689" d="M342 -40q-121 0 -204 83.5t-83 205.5q0 121 85.5 206t205.5 85q121 0 204.5 -84.5t83.5 -204.5t-85.5 -205.5t-206.5 -85.5zM343 0q105 0 178.5 73.5t73.5 176.5q0 104 -73.5 177t-176.5 73t-176.5 -73t-73.5 -178t71.5 -177t176.5 -72zM295 92h-49v224q0 67 -7 105h97 q61 0 96 -28.5t35 -79.5q0 -38 -21 -63t-51 -35l69 -123l-52 -5q-4 6 -59 117h-58v-112zM343 377h-48v-129h48q34 0 52.5 16.5t18.5 45.5q0 30 -19 48.5t-52 18.5z" />
<glyph unicode="&#xaf;" horiz-adv-x="346" d="M49 639v50h272v-50h-272z" />
<glyph unicode="&#xb0;" horiz-adv-x="335" d="M164 306q-50 0 -82.5 32t-32.5 84q0 53 36 88.5t87 35.5q49 0 81.5 -31.5t32.5 -82.5q0 -52 -36 -89t-86 -37zM168 508q-34 0 -55.5 -24.5t-21.5 -59.5q0 -34 21.5 -56.5t54.5 -22.5q34 0 55.5 24.5t21.5 60.5q0 34 -21 56t-55 22z" />
<glyph unicode="&#xb1;" d="M493 415h-177v-160h-52l-1 160h-183v48q46 1 183 3l-1 159h54v-158q38 0 98.5 0.5t78.5 0.5l5 -6zM510 92h-450v48q170 5 450 5l5 -6z" />
<glyph unicode="&#xb2;" horiz-adv-x="367" d="M44 352l-8 46q41 31 63 47.5t55.5 46.5t51 51t31 48t13.5 51q0 36 -24.5 58t-63.5 22q-59 0 -119 -44l-6 47q55 41 139 41q60 0 99 -31t39 -82q0 -34 -19 -69t-54.5 -69t-67.5 -59t-76 -56h119q54 0 105 6l-7 -54h-270z" />
<glyph unicode="&#xb3;" horiz-adv-x="357" d="M48 733q54 33 125 33q53 0 88.5 -24.5t35.5 -64.5q0 -35 -29.5 -65.5t-82.5 -45.5q61 -5 96.5 -31t35.5 -72q0 -53 -46.5 -86t-122.5 -33q-59 0 -108 14l6 42q49 -14 100 -14q47 0 77 20.5t30 54.5q0 36 -33.5 52.5t-84.5 16.5q-27 0 -47 -4v42q68 12 106 38t38 60 q0 25 -20 40.5t-55 15.5q-55 0 -105 -31z" />
<glyph unicode="&#xb4;" horiz-adv-x="247" d="M191 744l4 -14q-59 -89 -160 -156l-25 13q79 99 111 171z" />
<glyph unicode="&#xb6;" horiz-adv-x="602" d="M239 -118q172 0 172 219v545h-73v-421h-29q-102 0 -169 63t-67 170q0 108 69 168t176 60h152v-596q0 -124 -59 -192.5t-165 -68.5q-71 0 -145 26l5 54q74 -27 133 -27z" />
<glyph unicode="&#xb7;" horiz-adv-x="296" d="M205 283q0 -26 -17 -43.5t-41 -17.5t-40.5 16.5t-16.5 40.5q0 25 18 43t43 18q23 0 38.5 -16t15.5 -41z" />
<glyph unicode="&#xb8;" horiz-adv-x="301" d="M231 -128q0 -42 -43.5 -66t-107.5 -30l-4 31q93 18 93 58q0 35 -66 39l-10 16l29 92l45 -1l-23 -70q38 -5 62.5 -22t24.5 -47z" />
<glyph unicode="&#xb9;" horiz-adv-x="247" d="M102 703h-1l-72 -14l-10 36l137 41l7 -6v-408h-62v266q0 61 1 85z" />
<glyph unicode="&#xba;" horiz-adv-x="473" d="M413 486q0 -97 -52.5 -150.5t-128.5 -53.5q-77 0 -124.5 53t-47.5 144q0 97 52 151.5t129 54.5t124.5 -53.5t47.5 -145.5zM125 485q0 -73 28.5 -116.5t81.5 -43.5q51 0 81.5 41.5t30.5 115.5t-28 117.5t-81 43.5q-51 0 -82 -40.5t-31 -117.5z" />
<glyph unicode="&#xbb;" horiz-adv-x="455" d="M401 283q-74 -67 -169 -194l-20 11q42 100 113 193q-72 93 -113 194l20 10q95 -128 169 -193v-21zM229 283q-69 -62 -169 -194l-20 11q42 102 114 193q-72 91 -114 194l20 10q100 -133 169 -193v-21z" />
<glyph unicode="&#xbc;" horiz-adv-x="843" d="M132 643h-1l-72 -14l-10 36l137 41l7 -6v-408h-62v266q0 61 1 85zM620 700l-425 -710h-46l424 710h47zM449 137l181 261l67 6l6 -6v-257q22 1 64 5l-7 -50h-57v-106h-59v106h-187zM502 140v-1q39 1 131 1h11l1 110q0 72 2 102h-1z" />
<glyph unicode="&#xbd;" horiz-adv-x="874" d="M132 643h-1l-72 -14l-10 36l137 41l7 -6v-408h-62v266q0 61 1 85zM620 700l-425 -710h-46l424 710h47zM521 -10l-8 46q41 31 63 47.5t55.5 46.5t51 51t31 48t13.5 51q0 36 -24.5 58t-63.5 22q-59 0 -119 -44l-6 47q55 41 139 41q60 0 99 -31t39 -82q0 -34 -19 -69 t-54.5 -69t-67.5 -59t-76 -56h119q54 0 105 6l-7 -54h-270z" />
<glyph unicode="&#xbe;" horiz-adv-x="929" d="M78 673q54 33 125 33q54 0 89 -24.5t35 -65.5q0 -35 -29.5 -65t-82.5 -45q60 -5 96 -31.5t36 -71.5q0 -53 -46.5 -86t-122.5 -33q-59 0 -108 14l6 41q49 -14 100 -14q47 0 77 20.5t30 54.5q0 69 -118 69q-27 0 -47 -4v42q68 12 106 38.5t38 59.5q0 26 -19.5 41t-55.5 15 q-54 0 -105 -30zM705 700l-425 -710h-45l424 710h46zM535 137l180 261l67 6l7 -6v-257q25 1 63 5l-7 -50h-56v-106h-59v106h-187zM588 140v-1q39 1 130 1h12v110q0 72 2 102h-1z" />
<glyph unicode="&#xbf;" horiz-adv-x="432" d="M192 446q0 24 15 42t39 18q21 0 34.5 -15t13.5 -37q0 -24 -16 -42t-40 -18q-21 0 -33.5 14.5t-12.5 37.5zM227 283l46 1q9 -21 9 -46q0 -27 -18 -52t-43 -46.5t-50.5 -44t-43.5 -54.5t-18 -68q0 -50 32 -82t85 -32q41 0 83.5 21.5t72.5 63.5l34 -40q-33 -48 -86.5 -76 t-117.5 -28q-82 0 -132 44.5t-50 117.5q0 44 20 83t48 65.5t56 49t48 44t20 40.5q0 7 -3 31z" />
<glyph unicode="&#xc0;" horiz-adv-x="612" d="M425 777q-141 16 -242 74l-3 14l49 46q76 -57 204 -111zM98 0h-74l205 589q25 72 33 103l76 4l11 -10l239 -686h-79l-70 199h-271zM240 404l-51 -145h229l-50 145q-51 152 -63 209h-2q-12 -53 -63 -209z" />
<glyph unicode="&#xc1;" horiz-adv-x="612" d="M433 865l-3 -14q-103 -58 -242 -74l-8 23q130 55 204 111zM98 0h-74l205 589q25 72 33 103l76 4l11 -10l239 -686h-79l-70 199h-271zM240 404l-51 -145h229l-50 145q-51 152 -63 209h-2q-12 -53 -63 -209z" />
<glyph unicode="&#xc2;" horiz-adv-x="612" d="M177 771l-22 19q55 48 116 119l61 6q53 -62 124 -125l-21 -19q-61 34 -134 87q-70 -55 -124 -87zM98 0h-74l205 589q25 72 33 103l76 4l11 -10l239 -686h-79l-70 199h-271zM240 404l-51 -145h229l-50 145q-51 152 -63 209h-2q-12 -53 -63 -209z" />
<glyph unicode="&#xc3;" horiz-adv-x="612" d="M237 903q31 0 76.5 -28t68.5 -28q39 0 66 54l23 -4q-4 -44 -28.5 -75.5t-65.5 -31.5q-30 0 -77.5 28t-69.5 28q-38 0 -66 -53l-23 4q4 41 28.5 73.5t67.5 32.5zM98 0h-74l205 589q25 72 33 103l76 4l11 -10l239 -686h-79l-70 199h-271zM240 404l-51 -145h229l-50 145 q-51 152 -63 209h-2q-12 -53 -63 -209z" />
<glyph unicode="&#xc4;" horiz-adv-x="612" d="M459 846q0 -24 -15 -41t-39 -17q-22 0 -35 14t-13 34q0 23 16 40t39 17q21 0 34 -13.5t13 -33.5zM256 846q0 -24 -15 -41t-39 -17q-21 0 -34.5 14t-13.5 34q0 23 16 40t39 17q21 0 34 -13t13 -34zM98 0h-74l205 589q25 72 33 103l76 4l11 -10l239 -686h-79l-70 199h-271z M240 404l-51 -145h229l-50 145q-51 152 -63 209h-2q-12 -53 -63 -209z" />
<glyph unicode="&#xc5;" horiz-adv-x="612" d="M397 847q0 -37 -28 -63t-67 -26q-36 0 -61 22t-25 55q0 37 28.5 63t68.5 26q37 0 60.5 -22t23.5 -55zM259 839q0 -20 13 -33.5t33 -13.5q21 0 34.5 15t13.5 36t-11.5 34t-32.5 13t-35.5 -15t-14.5 -36zM98 0h-74l205 589q25 72 33 103l76 4l11 -10l239 -686h-79l-70 199 h-271zM240 404l-51 -145h229l-50 145q-51 152 -63 209h-2q-12 -53 -63 -209z" />
<glyph unicode="&#xc6;" horiz-adv-x="852" d="M98 0h-74l279 589q29 59 47 97h355l9 -8l-1 -56l-266 5l37 -258l224 2l-1 -61l-215 3l36 -254l284 5v-64h-354l-28 199h-238zM288 404l-68 -145h202l-20 145q-17 139 -20 209h-2q-12 -31 -92 -209z" />
<glyph unicode="&#xc7;" horiz-adv-x="592" d="M448 -130q0 -42 -43.5 -66t-107.5 -30l-3 32q92 16 92 57q0 35 -66 39l-10 16l23 73q-121 8 -193 98t-72 244q0 166 82.5 264.5t213.5 98.5q105 0 173 -43l-15 -71q-66 48 -155 48q-96 0 -157 -77t-61 -214q0 -127 57.5 -205t160.5 -78q92 0 167 53l9 -65 q-65 -48 -164 -53l-17 -52q38 -5 62 -22t24 -47z" />
<glyph unicode="&#xc8;" horiz-adv-x="521" d="M405 777q-141 16 -242 74l-3 14l49 46q76 -57 204 -111zM481 64v-64h-378v531q0 87 -8 155h369l8 -8l-1 -56l-291 6v-260l247 3l-1 -61l-246 3v-254z" />
<glyph unicode="&#xc9;" horiz-adv-x="521" d="M413 865l-3 -14q-103 -58 -242 -74l-8 23q130 55 204 111zM481 64v-64h-378v531q0 87 -8 155h369l8 -8l-1 -56l-291 6v-260l247 3l-1 -61l-246 3v-254z" />
<glyph unicode="&#xca;" horiz-adv-x="521" d="M157 771l-22 19q55 48 116 119l61 6q53 -62 124 -125l-21 -19q-61 34 -134 87q-70 -55 -124 -87zM481 64v-64h-378v531q0 87 -8 155h369l8 -8l-1 -56l-291 6v-260l247 3l-1 -61l-246 3v-254z" />
<glyph unicode="&#xcb;" horiz-adv-x="521" d="M439 846q0 -24 -15 -41t-39 -17q-22 0 -35 14t-13 34q0 23 16 40t39 17q21 0 34 -13.5t13 -33.5zM236 846q0 -24 -15 -41t-39 -17q-21 0 -34.5 14t-13.5 34q0 23 16 40t39 17q21 0 34 -13t13 -34zM481 64v-64h-378v531q0 87 -8 155h369l8 -8l-1 -56l-291 6v-260l247 3 l-1 -61l-246 3v-254z" />
<glyph unicode="&#xcc;" horiz-adv-x="283" d="M256 777q-141 16 -242 74l-3 14l49 46q76 -57 204 -111zM180 0h-77v529q0 80 -8 157l77 10l8 -8v-688z" />
<glyph unicode="&#xcd;" horiz-adv-x="283" d="M264 865l-3 -14q-103 -58 -242 -74l-8 23q130 55 204 111zM180 0h-77v529q0 80 -8 157l77 10l8 -8v-688z" />
<glyph unicode="&#xce;" horiz-adv-x="283" d="M8 771l-22 19q55 48 116 119l61 6q53 -62 124 -125l-21 -19q-61 34 -134 87q-70 -55 -124 -87zM180 0h-77v529q0 80 -8 157l77 10l8 -8v-688z" />
<glyph unicode="&#xcf;" horiz-adv-x="283" d="M290 846q0 -24 -15 -41t-39 -17q-22 0 -35 14t-13 34q0 23 16 40t39 17q21 0 34 -13.5t13 -33.5zM87 846q0 -24 -15 -41t-39 -17q-21 0 -34.5 14t-13.5 34q0 23 16 40t39 17q21 0 34 -13t13 -34zM180 0h-77v529q0 80 -8 157l77 10l8 -8v-688z" />
<glyph unicode="&#xd0;" horiz-adv-x="681" d="M613 346q0 -162 -94.5 -254t-248.5 -92h-167v321h-89v45h89v165q0 87 -8 155h188q144 0 237 -92t93 -248zM381 321h-201v-261h93q127 0 193 74t66 208q0 131 -69 208t-187 77h-96v-261h201v-45z" />
<glyph unicode="&#xd1;" horiz-adv-x="703" d="M276 903q31 0 76.5 -28t68.5 -28q39 0 66 54l23 -4q-4 -44 -28.5 -75.5t-65.5 -31.5q-30 0 -77.5 28t-69.5 28q-38 0 -66 -53l-23 4q4 41 28.5 73.5t67.5 32.5zM358 398q10 -15 40 -64t40.5 -66t30.5 -51.5t34 -61t27 -55.5h2q-6 97 -6 415q0 86 -8 171l74 10l9 -9v-687 h-78q-111 181 -182 297q-128 205 -168 287h-1q6 -85 6 -237v-347h-75v531q0 78 -8 155l81 10q37 -61 102 -167.5t80 -130.5z" />
<glyph unicode="&#xd2;" horiz-adv-x="699" d="M474 775q-139 16 -242 74l-3 13l49 46q76 -57 204 -110zM632 345q0 -167 -82 -261t-206 -94q-121 0 -198.5 91.5t-77.5 251.5q0 165 82 264t207 99q123 0 199 -95t76 -256zM149 341q0 -131 53.5 -210t146.5 -79t147.5 76.5t54.5 213.5q0 132 -51 212t-144 80 q-92 0 -149.5 -78.5t-57.5 -214.5z" />
<glyph unicode="&#xd3;" horiz-adv-x="699" d="M482 862l-3 -13q-101 -58 -242 -74l-8 23q126 51 204 110zM632 345q0 -167 -82 -261t-206 -94q-121 0 -198.5 91.5t-77.5 251.5q0 165 82 264t207 99q123 0 199 -95t76 -256zM149 341q0 -131 53.5 -210t146.5 -79t147.5 76.5t54.5 213.5q0 132 -51 212t-144 80 q-92 0 -149.5 -78.5t-57.5 -214.5z" />
<glyph unicode="&#xd4;" horiz-adv-x="699" d="M226 768l-21 20q61 54 115 119l61 6q55 -64 125 -125l-22 -20q-77 45 -133 87q-60 -48 -125 -87zM632 345q0 -167 -82 -261t-206 -94q-121 0 -198.5 91.5t-77.5 251.5q0 165 82 264t207 99q123 0 199 -95t76 -256zM149 341q0 -131 53.5 -210t146.5 -79t147.5 76.5 t54.5 213.5q0 132 -51 212t-144 80q-92 0 -149.5 -78.5t-57.5 -214.5z" />
<glyph unicode="&#xd5;" horiz-adv-x="699" d="M286 901q31 0 76.5 -28t68.5 -28q38 0 67 53l23 -4q-5 -43 -29.5 -75t-65.5 -32q-30 0 -77 28.5t-69 28.5q-38 0 -67 -54l-23 4q5 42 29.5 74.5t66.5 32.5zM632 345q0 -167 -82 -261t-206 -94q-121 0 -198.5 91.5t-77.5 251.5q0 165 82 264t207 99q123 0 199 -95t76 -256 zM149 341q0 -131 53.5 -210t146.5 -79t147.5 76.5t54.5 213.5q0 132 -51 212t-144 80q-92 0 -149.5 -78.5t-57.5 -214.5z" />
<glyph unicode="&#xd6;" horiz-adv-x="699" d="M508 844q0 -24 -15 -41t-39 -17q-21 0 -34.5 13.5t-13.5 34.5q0 22 16 39t39 17q21 0 34 -13t13 -33zM305 844q0 -24 -14.5 -41t-39.5 -17q-21 0 -34.5 13.5t-13.5 34.5q0 22 16.5 39t39.5 17q21 0 33.5 -13t12.5 -33zM632 345q0 -167 -82 -261t-206 -94 q-121 0 -198.5 91.5t-77.5 251.5q0 165 82 264t207 99q123 0 199 -95t76 -256zM149 341q0 -131 53.5 -210t146.5 -79t147.5 76.5t54.5 213.5q0 132 -51 212t-144 80q-92 0 -149.5 -78.5t-57.5 -214.5z" />
<glyph unicode="&#xd7;" d="M452 148l-163 163l-164 -164l-34 35l163 164l-163 164l34 34l163 -163l163 163l35 -35l-163 -163q19 -19 52.5 -53t60 -60.5t49.5 -48.5l-1 -8z" />
<glyph unicode="&#xd8;" horiz-adv-x="699" d="M632 345q0 -167 -82 -261t-206 -94q-122 0 -197 89l-71 -83l-35 31l78 91q-51 88 -51 215q0 165 82 264t207 99q117 0 191 -85l70 80l36 -30l-78 -89q56 -93 56 -227zM149 341q0 -93 27 -159l323 372q-52 80 -143 80q-92 0 -149.5 -78.5t-57.5 -214.5zM551 342 q0 98 -29 168l-324 -373q55 -85 151 -85q93 0 147.5 76.5t54.5 213.5z" />
<glyph unicode="&#xd9;" horiz-adv-x="653" d="M445 775q-139 16 -242 74l-3 13l49 46q76 -57 204 -110zM89 531q0 83 -10 157l83 8l5 -5v-464q0 -82 45 -128t116 -46q72 0 116.5 45t44.5 129v314q0 80 -10 147l85 8v-471q0 -113 -68.5 -174t-173.5 -61q-102 0 -167.5 61.5t-65.5 173.5v306z" />
<glyph unicode="&#xda;" horiz-adv-x="653" d="M453 862l-3 -13q-101 -58 -242 -74l-8 23q126 51 204 110zM89 531q0 83 -10 157l83 8l5 -5v-464q0 -82 45 -128t116 -46q72 0 116.5 45t44.5 129v314q0 80 -10 147l85 8v-471q0 -113 -68.5 -174t-173.5 -61q-102 0 -167.5 61.5t-65.5 173.5v306z" />
<glyph unicode="&#xdb;" horiz-adv-x="653" d="M197 768l-21 20q61 54 115 119l61 6q55 -64 125 -125l-22 -20q-77 45 -133 87q-60 -48 -125 -87zM89 531q0 83 -10 157l83 8l5 -5v-464q0 -82 45 -128t116 -46q72 0 116.5 45t44.5 129v314q0 80 -10 147l85 8v-471q0 -113 -68.5 -174t-173.5 -61q-102 0 -167.5 61.5 t-65.5 173.5v306z" />
<glyph unicode="&#xdc;" horiz-adv-x="653" d="M479 844q0 -24 -15 -41t-39 -17q-21 0 -34.5 13.5t-13.5 34.5q0 22 16 39t39 17q22 0 34.5 -13t12.5 -33zM276 844q0 -24 -14.5 -41t-39.5 -17q-21 0 -34.5 13.5t-13.5 34.5q0 22 16.5 39t39.5 17q21 0 33.5 -13t12.5 -33zM89 531q0 83 -10 157l83 8l5 -5v-464 q0 -82 45 -128t116 -46q72 0 116.5 45t44.5 129v314q0 80 -10 147l85 8v-471q0 -113 -68.5 -174t-173.5 -61q-102 0 -167.5 61.5t-65.5 173.5v306z" />
<glyph unicode="&#xdd;" horiz-adv-x="560" d="M413 862l-4 -13q-101 -58 -242 -74l-8 23q126 51 204 110zM241 246l-218 443l83 7l117 -243q43 -89 62 -141h2q33 76 65 142l115 242l64 -6l6 -8l-218 -439v-243h-78v246z" />
<glyph unicode="&#xde;" horiz-adv-x="557" d="M180 0h-77v531q0 87 -8 155h85v-115h100q109 0 174 -58t65 -157q0 -104 -70.5 -161.5t-184.5 -57.5h-84v-137zM268 512h-88v-317h85q84 0 128.5 41.5t44.5 117.5q0 73 -42 115.5t-128 42.5z" />
<glyph unicode="&#xdf;" horiz-adv-x="601" d="M104 450l-75 3v33l75 10v25q0 123 58 179t143 56q77 0 125 -41.5t48 -106.5q-1 -59 -36 -104.5t-92 -67.5q83 -31 134.5 -97t51.5 -152q0 -88 -55 -142.5t-142 -54.5q-53 0 -97 17v55q44 -17 88 -17q62 0 96.5 39t34.5 102q0 76 -51.5 136t-136.5 88v46q131 43 131 143 q0 46 -28 75.5t-75 29.5q-51 0 -86.5 -39t-35.5 -134v-531h-75v450z" />
<glyph unicode="&#xe0;" horiz-adv-x="504" d="M307 577q-102 66 -161 155l5 14l69 14q36 -78 112 -171zM405 144q0 -78 24 -144l-67 -10q-16 32 -24 70h-1q-22 -29 -63.5 -49.5t-89.5 -20.5q-60 0 -94.5 32.5t-34.5 85.5q0 80 78 122.5t198 49.5v66q0 101 -103 101q-76 0 -152 -47l-4 64q86 42 172 42 q80 0 121.5 -38.5t41.5 -106.5q0 -37 -1 -116.5t-1 -100.5zM131 119q0 -32 20.5 -54.5t58.5 -22.5q32 0 65.5 16t55.5 40v144q-87 -6 -143.5 -37.5t-56.5 -85.5z" />
<glyph unicode="&#xe1;" horiz-adv-x="504" d="M327 744l5 -14q-58 -88 -161 -156l-25 13q78 98 112 171zM405 144q0 -78 24 -144l-67 -10q-16 32 -24 70h-1q-22 -29 -63.5 -49.5t-89.5 -20.5q-60 0 -94.5 32.5t-34.5 85.5q0 80 78 122.5t198 49.5v66q0 101 -103 101q-76 0 -152 -47l-4 64q86 42 172 42 q80 0 121.5 -38.5t41.5 -106.5q0 -37 -1 -116.5t-1 -100.5zM131 119q0 -32 20.5 -54.5t58.5 -22.5q32 0 65.5 16t55.5 40v144q-87 -6 -143.5 -37.5t-56.5 -85.5z" />
<glyph unicode="&#xe2;" horiz-adv-x="504" d="M125 572l-24 19q63 84 104 156l61 6q55 -88 113 -162l-24 -19q-55 47 -119 118q-65 -75 -111 -118zM405 144q0 -78 24 -144l-67 -10q-16 32 -24 70h-1q-22 -29 -63.5 -49.5t-89.5 -20.5q-60 0 -94.5 32.5t-34.5 85.5q0 80 78 122.5t198 49.5v66q0 101 -103 101 q-76 0 -152 -47l-4 64q86 42 172 42q80 0 121.5 -38.5t41.5 -106.5q0 -37 -1 -116.5t-1 -100.5zM131 119q0 -32 20.5 -54.5t58.5 -22.5q32 0 65.5 16t55.5 40v144q-87 -6 -143.5 -37.5t-56.5 -85.5z" />
<glyph unicode="&#xe3;" horiz-adv-x="504" d="M170 723q29 0 73 -28t64 -28q33 0 60 53l25 -4q-5 -44 -28.5 -77.5t-61.5 -33.5q-28 0 -73.5 28t-64.5 28q-34 0 -60 -54l-24 4q6 44 29 78t61 34zM405 144q0 -78 24 -144l-67 -10q-16 32 -24 70h-1q-22 -29 -63.5 -49.5t-89.5 -20.5q-60 0 -94.5 32.5t-34.5 85.5 q0 80 78 122.5t198 49.5v66q0 101 -103 101q-76 0 -152 -47l-4 64q86 42 172 42q80 0 121.5 -38.5t41.5 -106.5q0 -37 -1 -116.5t-1 -100.5zM131 119q0 -32 20.5 -54.5t58.5 -22.5q32 0 65.5 16t55.5 40v144q-87 -6 -143.5 -37.5t-56.5 -85.5z" />
<glyph unicode="&#xe4;" horiz-adv-x="504" d="M188 669q0 -25 -14 -43.5t-38 -18.5q-21 0 -34.5 15t-13.5 37q0 25 16 43.5t39 18.5q21 0 33 -14.5t12 -37.5zM389 669q0 -25 -14.5 -43.5t-38.5 -18.5q-21 0 -34 15t-13 37q0 25 16 43.5t39 18.5q20 0 32.5 -14.5t12.5 -37.5zM405 144q0 -78 24 -144l-67 -10 q-16 32 -24 70h-1q-22 -29 -63.5 -49.5t-89.5 -20.5q-60 0 -94.5 32.5t-34.5 85.5q0 80 78 122.5t198 49.5v66q0 101 -103 101q-76 0 -152 -47l-4 64q86 42 172 42q80 0 121.5 -38.5t41.5 -106.5q0 -37 -1 -116.5t-1 -100.5zM131 119q0 -32 20.5 -54.5t58.5 -22.5 q32 0 65.5 16t55.5 40v144q-87 -6 -143.5 -37.5t-56.5 -85.5z" />
<glyph unicode="&#xe5;" horiz-adv-x="504" d="M333 661q0 -36 -28 -62.5t-67 -26.5q-35 0 -60 22.5t-25 54.5q0 37 28.5 63t68.5 26q36 0 59.5 -22t23.5 -55zM196 653q0 -20 13 -33t33 -13q21 0 34.5 14.5t13.5 35.5t-11.5 34t-32.5 13t-35.5 -15t-14.5 -36zM405 144q0 -78 24 -144l-67 -10q-16 32 -24 70h-1 q-22 -29 -63.5 -49.5t-89.5 -20.5q-60 0 -94.5 32.5t-34.5 85.5q0 80 78 122.5t198 49.5v66q0 101 -103 101q-76 0 -152 -47l-4 64q86 42 172 42q80 0 121.5 -38.5t41.5 -106.5q0 -37 -1 -116.5t-1 -100.5zM131 119q0 -32 20.5 -54.5t58.5 -22.5q32 0 65.5 16t55.5 40v144 q-87 -6 -143.5 -37.5t-56.5 -85.5z" />
<glyph unicode="&#xe6;" horiz-adv-x="777" d="M718 257l-15 -15h-293q3 -96 46 -145t114 -49q66 0 131 43l6 -55q-64 -46 -154 -46q-130 0 -188 103q-28 -42 -78 -72.5t-106 -30.5q-58 0 -92 33t-34 86q0 79 78 121.5t198 49.5v66q0 101 -104 101q-77 0 -151 -47l-4 64q86 42 173 42q110 0 146 -73q61 73 156 73 q79 0 125.5 -52t46.5 -138q0 -40 -1 -59zM543 454q-53 0 -90.5 -45.5t-42.5 -129.5l233 7q0 5 0.5 17t0.5 18q0 61 -26.5 97t-74.5 36zM131 119q0 -32 20.5 -54.5t58.5 -22.5q41 0 80 23.5t61 58.5q-20 51 -20 118q-87 -6 -143.5 -37.5t-56.5 -85.5z" />
<glyph unicode="&#xe7;" horiz-adv-x="479" d="M372 -130q0 -42 -43.5 -66t-107.5 -30l-3 32q92 16 92 57q0 35 -66 39l-10 16l23 74q-88 9 -140 74.5t-52 177.5q0 123 64 192.5t168 69.5q78 0 135 -33l-19 -63q-52 37 -116 37q-70 0 -111.5 -50.5t-41.5 -144.5t41 -149t115 -55q61 0 123 38l6 -55q-53 -37 -127 -41 l-16 -51q38 -5 62 -22t24 -47z" />
<glyph unicode="&#xe8;" horiz-adv-x="511" d="M337 577q-102 66 -161 155l5 14l69 14q36 -78 112 -171zM452 257l-15 -15h-293q3 -96 46 -145t114 -49q66 0 131 43l6 -55q-64 -46 -154 -46q-101 0 -161.5 66.5t-60.5 185.5q0 123 62.5 193.5t153.5 70.5q79 0 125.5 -52t46.5 -138q0 -40 -1 -59zM277 454 q-53 0 -90.5 -45.5t-42.5 -129.5l233 7q0 5 0.5 17t0.5 19q0 60 -27 96t-74 36z" />
<glyph unicode="&#xe9;" horiz-adv-x="511" d="M357 744l5 -14q-58 -88 -161 -156l-25 13q78 98 112 171zM452 257l-15 -15h-293q3 -96 46 -145t114 -49q66 0 131 43l6 -55q-64 -46 -154 -46q-101 0 -161.5 66.5t-60.5 185.5q0 123 62.5 193.5t153.5 70.5q79 0 125.5 -52t46.5 -138q0 -40 -1 -59zM277 454 q-53 0 -90.5 -45.5t-42.5 -129.5l233 7q0 5 0.5 17t0.5 19q0 60 -27 96t-74 36z" />
<glyph unicode="&#xea;" horiz-adv-x="511" d="M155 572l-24 19q63 84 104 156l61 6q55 -88 113 -162l-24 -19q-55 47 -119 118q-65 -75 -111 -118zM452 257l-15 -15h-293q3 -96 46 -145t114 -49q66 0 131 43l6 -55q-64 -46 -154 -46q-101 0 -161.5 66.5t-60.5 185.5q0 123 62.5 193.5t153.5 70.5q79 0 125.5 -52 t46.5 -138q0 -40 -1 -59zM277 454q-53 0 -90.5 -45.5t-42.5 -129.5l233 7q0 5 0.5 17t0.5 19q0 60 -27 96t-74 36z" />
<glyph unicode="&#xeb;" horiz-adv-x="511" d="M218 669q0 -25 -14 -43.5t-38 -18.5q-21 0 -34.5 15t-13.5 37q0 25 16 43.5t39 18.5q21 0 33 -14.5t12 -37.5zM419 669q0 -25 -14.5 -43.5t-38.5 -18.5q-21 0 -34 15t-13 37q0 25 16 43.5t39 18.5q20 0 32.5 -14.5t12.5 -37.5zM452 257l-15 -15h-293q3 -96 46 -145 t114 -49q66 0 131 43l6 -55q-64 -46 -154 -46q-101 0 -161.5 66.5t-60.5 185.5q0 123 62.5 193.5t153.5 70.5q79 0 125.5 -52t46.5 -138q0 -40 -1 -59zM277 454q-53 0 -90.5 -45.5t-42.5 -129.5l233 7q0 5 0.5 17t0.5 19q0 60 -27 96t-74 36z" />
<glyph unicode="&#xec;" horiz-adv-x="269" d="M199 577q-102 66 -161 155l5 14l69 14q36 -78 112 -171zM96 0v339q0 97 -9 155l76 12l8 -8v-498h-75z" />
<glyph unicode="&#xed;" horiz-adv-x="269" d="M219 744l5 -14q-58 -88 -161 -156l-25 13q78 98 112 171zM96 0v339q0 97 -9 155l76 12l8 -8v-498h-75z" />
<glyph unicode="&#xee;" horiz-adv-x="269" d="M46 580l-24 13q38 82 67 160l74 6q36 -86 76 -166l-24 -13q-39 42 -89 116q-45 -74 -80 -116zM96 0v339q0 97 -9 155l76 12l8 -8v-498h-75z" />
<glyph unicode="&#xef;" horiz-adv-x="269" d="M103 672q0 -25 -13.5 -43.5t-36.5 -18.5q-20 0 -32.5 15t-12.5 37q0 24 15.5 42.5t36.5 18.5q19 0 31 -14t12 -37zM254 672q0 -25 -14 -43.5t-37 -18.5q-20 0 -32 15t-12 37q0 24 15 42.5t36 18.5q20 0 32 -14t12 -37zM96 0v339q0 97 -9 155l76 12l8 -8v-498h-75z" />
<glyph unicode="&#xf0;" horiz-adv-x="574" d="M290 -10q-93 0 -151.5 68t-58.5 186q0 119 58.5 186t147.5 67q80 0 129 -54q-32 94 -103 168l-126 -74l-25 39l116 69q-41 35 -95 67l28 44q68 -31 124 -78l120 72l24 -39l-109 -65q142 -148 142 -378q0 -136 -62.5 -207t-158.5 -71zM298 443q-62 0 -100.5 -51 t-38.5 -147q0 -90 35 -144t99 -54q63 0 101.5 51.5t38.5 145.5q0 91 -35.5 145t-99.5 54z" />
<glyph unicode="&#xf1;" horiz-adv-x="570" d="M209 723q29 0 73 -28t64 -28q33 0 60 53l25 -4q-5 -44 -28.5 -77.5t-61.5 -33.5q-28 0 -73.5 28t-64.5 28q-34 0 -60 -54l-24 4q6 44 29 78t61 34zM175 0h-75v341q0 79 -20 148l69 17q14 -31 23 -74q77 74 167 74q64 0 99 -37.5t35 -108.5v-360h-75v344q0 105 -90 105 q-65 0 -133 -59v-390z" />
<glyph unicode="&#xf2;" horiz-adv-x="559" d="M347 577q-101 67 -160 155l5 14l69 14q32 -72 111 -171zM494 252q0 -125 -63.5 -193.5t-156.5 -68.5t-151 67.5t-58 185.5q0 124 63 193.5t157 69.5t151.5 -68.5t57.5 -185.5zM144 250q0 -95 34.5 -151.5t99.5 -56.5q63 0 100.5 53.5t37.5 150.5q0 95 -34.5 151.5 t-99.5 56.5q-63 0 -100.5 -52.5t-37.5 -151.5z" />
<glyph unicode="&#xf3;" horiz-adv-x="559" d="M368 744l4 -14q-59 -89 -160 -156l-25 13q79 99 111 171zM494 252q0 -125 -63.5 -193.5t-156.5 -68.5t-151 67.5t-58 185.5q0 124 63 193.5t157 69.5t151.5 -68.5t57.5 -185.5zM144 250q0 -95 34.5 -151.5t99.5 -56.5q63 0 100.5 53.5t37.5 150.5q0 95 -34.5 151.5 t-99.5 56.5q-63 0 -100.5 -52.5t-37.5 -151.5z" />
<glyph unicode="&#xf4;" horiz-adv-x="559" d="M166 572l-24 19q63 84 104 156l61 6q48 -80 113 -162l-24 -19q-52 44 -120 118q-60 -70 -110 -118zM494 252q0 -125 -63.5 -193.5t-156.5 -68.5t-151 67.5t-58 185.5q0 124 63 193.5t157 69.5t151.5 -68.5t57.5 -185.5zM144 250q0 -95 34.5 -151.5t99.5 -56.5 q63 0 100.5 53.5t37.5 150.5q0 95 -34.5 151.5t-99.5 56.5q-63 0 -100.5 -52.5t-37.5 -151.5z" />
<glyph unicode="&#xf5;" horiz-adv-x="559" d="M211 723q28 0 72.5 -28t64.5 -28q33 0 60 53l24 -4q-5 -44 -28 -77.5t-61 -33.5q-28 0 -73.5 28t-64.5 28q-34 0 -60 -54l-24 4q6 45 28.5 78.5t61.5 33.5zM494 252q0 -125 -63.5 -193.5t-156.5 -68.5t-151 67.5t-58 185.5q0 124 63 193.5t157 69.5t151.5 -68.5 t57.5 -185.5zM144 250q0 -95 34.5 -151.5t99.5 -56.5q63 0 100.5 53.5t37.5 150.5q0 95 -34.5 151.5t-99.5 56.5q-63 0 -100.5 -52.5t-37.5 -151.5z" />
<glyph unicode="&#xf6;" horiz-adv-x="559" d="M229 669q0 -25 -14.5 -43.5t-38.5 -18.5q-21 0 -34 15t-13 37q0 25 16 43.5t39 18.5q20 0 32.5 -14.5t12.5 -37.5zM430 669q0 -25 -14.5 -43.5t-38.5 -18.5q-21 0 -34 15t-13 37q0 25 16 43.5t38 18.5q21 0 33.5 -14.5t12.5 -37.5zM494 252q0 -125 -63.5 -193.5 t-156.5 -68.5t-151 67.5t-58 185.5q0 124 63 193.5t157 69.5t151.5 -68.5t57.5 -185.5zM144 250q0 -95 34.5 -151.5t99.5 -56.5q63 0 100.5 53.5t37.5 150.5q0 95 -34.5 151.5t-99.5 56.5q-63 0 -100.5 -52.5t-37.5 -151.5z" />
<glyph unicode="&#xf7;" d="M340 540q0 -25 -15.5 -41.5t-40.5 -16.5q-20 0 -32.5 13.5t-12.5 32.5q0 24 16.5 41.5t40.5 17.5q19 0 31.5 -13t12.5 -34zM510 322h-450v47q170 5 450 5l5 -5zM341 168q0 -25 -15.5 -41.5t-40.5 -16.5q-20 0 -32.5 13.5t-12.5 32.5q0 24 16.5 41.5t40.5 17.5 q19 0 31.5 -13t12.5 -34z" />
<glyph unicode="&#xf8;" horiz-adv-x="559" d="M494 252q0 -125 -63.5 -193.5t-156.5 -68.5q-90 0 -147 63l-55 -59l-32 31l61 65q-36 63 -36 153q0 124 63 193.5t157 69.5q89 0 146 -62l55 59l33 -30l-62 -66q37 -63 37 -155zM144 250q-1 -52 12 -100l228 243q-36 61 -102 61q-63 0 -100.5 -52.5t-37.5 -151.5z M416 246q0 55 -13 102l-228 -243q35 -63 103 -63q63 0 100.5 53.5t37.5 150.5z" />
<glyph unicode="&#xf9;" horiz-adv-x="560" d="M347 577q-100 65 -160 155l4 14l70 14q32 -72 111 -171zM96 339q0 84 -7 155l74 12l8 -8v-351q0 -97 86 -97q60 0 127 59v387l75 10v-365q0 -76 19 -139l-64 -12q-14 29 -24 75h-2q-75 -75 -160 -75q-63 0 -97.5 35.5t-34.5 99.5v214z" />
<glyph unicode="&#xfa;" horiz-adv-x="560" d="M367 744l5 -14q-58 -87 -160 -156l-25 13q79 99 111 171zM96 339q0 84 -7 155l74 12l8 -8v-351q0 -97 86 -97q60 0 127 59v387l75 10v-365q0 -76 19 -139l-64 -12q-14 29 -24 75h-2q-75 -75 -160 -75q-63 0 -97.5 35.5t-34.5 99.5v214z" />
<glyph unicode="&#xfb;" horiz-adv-x="560" d="M166 572l-24 19q59 79 103 156l62 6q48 -80 113 -162l-25 -19q-60 53 -119 118q-60 -70 -110 -118zM96 339q0 84 -7 155l74 12l8 -8v-351q0 -97 86 -97q60 0 127 59v387l75 10v-365q0 -76 19 -139l-64 -12q-14 29 -24 75h-2q-75 -75 -160 -75q-63 0 -97.5 35.5 t-34.5 99.5v214z" />
<glyph unicode="&#xfc;" horiz-adv-x="560" d="M229 669q0 -25 -14.5 -43.5t-38.5 -18.5q-21 0 -34 15t-13 37q0 25 16 43.5t38 18.5q21 0 33.5 -14.5t12.5 -37.5zM430 669q0 -25 -14.5 -43.5t-38.5 -18.5q-21 0 -34 15t-13 37q0 25 15.5 43.5t38.5 18.5q21 0 33.5 -14.5t12.5 -37.5zM96 339q0 84 -7 155l74 12l8 -8 v-351q0 -97 86 -97q60 0 127 59v387l75 10v-365q0 -76 19 -139l-64 -12q-14 29 -24 75h-2q-75 -75 -160 -75q-63 0 -97.5 35.5t-34.5 99.5v214z" />
<glyph unicode="&#xfd;" horiz-adv-x="462" d="M326 744l5 -14q-58 -88 -161 -156l-25 13q78 98 112 171zM446 491l-172 -481q-86 -248 -245 -266l-12 72q131 17 199 198h-21l-171 486l77 6l79 -240q50 -136 60 -200h1q11 54 62 200l79 240l58 -6z" />
<glyph unicode="&#xfe;" horiz-adv-x="563" d="M95 589q0 79 -9 155l75 12l9 -8v-293q54 51 133 51q84 0 139.5 -67.5t55.5 -184.5q0 -118 -57 -191t-157 -73q-61 0 -114 24v-105q0 -73 9 -151l-75 -12l-9 9v834zM278 452q-64 0 -108 -48v-338q50 -26 102 -26q71 0 109 55t38 154q0 100 -38 151.5t-103 51.5z" />
<glyph unicode="&#xff;" horiz-adv-x="462" d="M187 669q0 -25 -14 -43.5t-38 -18.5q-21 0 -34.5 15t-13.5 37q0 25 16 43.5t39 18.5q21 0 33 -14.5t12 -37.5zM388 669q0 -25 -14.5 -43.5t-38.5 -18.5q-21 0 -34 15t-13 37q0 25 16 43.5t39 18.5q20 0 32.5 -14.5t12.5 -37.5zM446 491l-172 -481q-86 -248 -245 -266 l-12 72q131 17 199 198h-21l-171 486l77 6l79 -240q50 -136 60 -200h1q11 54 62 200l79 240l58 -6z" />
<glyph unicode="&#x100;" horiz-adv-x="612" d="M174 815v53h265v-53h-265zM98 0h-74l205 589q25 72 33 103l76 4l11 -10l239 -686h-79l-70 199h-271zM240 404l-51 -145h229l-50 145q-51 152 -63 209h-2q-12 -53 -63 -209z" />
<glyph unicode="&#x101;" horiz-adv-x="504" d="M103 639v50h272v-50h-272zM405 144q0 -78 24 -144l-67 -10q-16 32 -24 70h-1q-22 -29 -63.5 -49.5t-89.5 -20.5q-60 0 -94.5 32.5t-34.5 85.5q0 80 78 122.5t198 49.5v66q0 101 -103 101q-76 0 -152 -47l-4 64q86 42 172 42q80 0 121.5 -38.5t41.5 -106.5 q0 -37 -1 -116.5t-1 -100.5zM131 119q0 -32 20.5 -54.5t58.5 -22.5q32 0 65.5 16t55.5 40v144q-87 -6 -143.5 -37.5t-56.5 -85.5z" />
<glyph unicode="&#x102;" horiz-adv-x="612" d="M400 901h35q-10 -54 -45 -86t-87 -32q-50 0 -84 30.5t-41 82.5l34 5q21 -59 96 -59q33 0 57.5 16t34.5 43zM98 0h-74l205 589q25 72 33 103l76 4l11 -10l239 -686h-79l-70 199h-271zM240 404l-51 -145h229l-50 145q-51 152 -63 209h-2q-12 -53 -63 -209z" />
<glyph unicode="&#x103;" horiz-adv-x="504" d="M332 737h35q-10 -65 -45 -103t-87 -38q-50 0 -84 36.5t-41 99.5l34 5q21 -81 96 -81q33 0 57.5 22t34.5 59zM405 144q0 -78 24 -144l-67 -10q-16 32 -24 70h-1q-22 -29 -63.5 -49.5t-89.5 -20.5q-60 0 -94.5 32.5t-34.5 85.5q0 80 78 122.5t198 49.5v66q0 101 -103 101 q-76 0 -152 -47l-4 64q86 42 172 42q80 0 121.5 -38.5t41.5 -106.5q0 -37 -1 -116.5t-1 -100.5zM131 119q0 -32 20.5 -54.5t58.5 -22.5q32 0 65.5 16t55.5 40v144q-87 -6 -143.5 -37.5t-56.5 -85.5z" />
<glyph unicode="&#x104;" horiz-adv-x="612" d="M98 0h-74l205 589q25 72 33 103l76 4l11 -10l239 -686q-112 -62 -112 -126q0 -49 53 -49q24 0 55 12l13 -31q-39 -32 -91 -32q-45 0 -71 22t-26 61q0 80 119 143h-19l-70 199h-271zM240 404l-51 -145h229l-50 145q-51 152 -63 209h-2q-12 -53 -63 -209z" />
<glyph unicode="&#x105;" horiz-adv-x="504" d="M429 0q-112 -62 -112 -126q0 -49 53 -49q24 0 55 12l13 -31q-39 -32 -91 -32q-45 0 -71 22t-26 61q0 78 110 138q-14 29 -22 65h-1q-22 -29 -63.5 -49.5t-89.5 -20.5q-60 0 -94.5 32.5t-34.5 85.5q0 80 78 122.5t198 49.5v66q0 101 -103 101q-76 0 -152 -47l-4 64 q86 42 172 42q80 0 121.5 -38.5t41.5 -106.5q0 -37 -1 -116.5t-1 -100.5q0 -78 24 -144zM131 119q0 -32 20.5 -54.5t58.5 -22.5q32 0 65.5 16t55.5 40v144q-87 -6 -143.5 -37.5t-56.5 -85.5z" />
<glyph unicode="&#x106;" horiz-adv-x="592" d="M471 865l-3 -14q-101 -58 -242 -74l-8 23q128 54 204 111zM534 109l9 -65q-72 -54 -188 -54q-130 0 -208.5 90.5t-78.5 252.5q0 166 82.5 264.5t213.5 98.5q105 0 173 -43l-15 -71q-66 48 -155 48q-96 0 -157 -77t-61 -214q0 -127 57.5 -205t160.5 -78q92 0 167 53z" />
<glyph unicode="&#x107;" horiz-adv-x="479" d="M368 744l5 -14q-58 -88 -161 -156l-25 13q78 98 112 171zM432 473l-19 -63q-52 37 -116 37q-70 0 -111.5 -50.5t-41.5 -144.5t41 -149t115 -55q61 0 123 38l6 -55q-59 -41 -143 -41q-100 0 -160.5 67t-60.5 187q0 123 64 192.5t168 69.5q78 0 135 -33z" />
<glyph unicode="&#x108;" horiz-adv-x="592" d="M215 771l-21 19q55 49 115 119l61 6q55 -64 125 -125l-22 -19q-68 38 -133 87q-67 -53 -125 -87zM534 109l9 -65q-72 -54 -188 -54q-130 0 -208.5 90.5t-78.5 252.5q0 166 82.5 264.5t213.5 98.5q105 0 173 -43l-15 -71q-66 48 -155 48q-96 0 -157 -77t-61 -214 q0 -127 57.5 -205t160.5 -78q92 0 167 53z" />
<glyph unicode="&#x109;" horiz-adv-x="479" d="M166 572l-24 19q63 84 104 156l61 6q55 -88 113 -162l-24 -19q-55 47 -119 118q-65 -75 -111 -118zM432 473l-19 -63q-52 37 -116 37q-70 0 -111.5 -50.5t-41.5 -144.5t41 -149t115 -55q61 0 123 38l6 -55q-59 -41 -143 -41q-100 0 -160.5 67t-60.5 187q0 123 64 192.5 t168 69.5q78 0 135 -33z" />
<glyph unicode="&#x10a;" horiz-adv-x="592" d="M400 852q0 -24 -15.5 -41t-42.5 -17q-24 0 -38.5 14t-14.5 36q0 23 17.5 40t43.5 17q23 0 36.5 -13.5t13.5 -35.5zM534 109l9 -65q-72 -54 -188 -54q-130 0 -208.5 90.5t-78.5 252.5q0 166 82.5 264.5t213.5 98.5q105 0 173 -43l-15 -71q-66 48 -155 48q-96 0 -157 -77 t-61 -214q0 -127 57.5 -205t160.5 -78q92 0 167 53z" />
<glyph unicode="&#x10b;" horiz-adv-x="479" d="M333 670q0 -26 -15.5 -44.5t-40.5 -18.5q-23 0 -36.5 15.5t-13.5 39.5q0 25 17 43.5t41 18.5q22 0 35 -15t13 -39zM432 473l-19 -63q-52 37 -116 37q-70 0 -111.5 -50.5t-41.5 -144.5t41 -149t115 -55q61 0 123 38l6 -55q-59 -41 -143 -41q-100 0 -160.5 67t-60.5 187 q0 123 64 192.5t168 69.5q78 0 135 -33z" />
<glyph unicode="&#x10c;" horiz-adv-x="592" d="M473 916l22 -19q-55 -48 -116 -119l-61 -6q-53 62 -124 125l21 19q68 -38 133 -87q67 53 125 87zM534 109l9 -65q-72 -54 -188 -54q-130 0 -208.5 90.5t-78.5 252.5q0 166 82.5 264.5t213.5 98.5q105 0 173 -43l-15 -71q-66 48 -155 48q-96 0 -157 -77t-61 -214 q0 -127 57.5 -205t160.5 -78q92 0 167 53z" />
<glyph unicode="&#x10d;" horiz-adv-x="479" d="M396 759l24 -19q-63 -84 -104 -156l-61 -6q-48 80 -113 162l24 19q48 -41 119 -118q65 75 111 118zM432 473l-19 -63q-52 37 -116 37q-70 0 -111.5 -50.5t-41.5 -144.5t41 -149t115 -55q61 0 123 38l6 -55q-59 -41 -143 -41q-100 0 -160.5 67t-60.5 187q0 123 64 192.5 t168 69.5q78 0 135 -33z" />
<glyph unicode="&#x10e;" horiz-adv-x="681" d="M456 916l22 -19q-55 -48 -116 -119l-61 -6q-53 62 -124 125l21 19q68 -38 133 -87q67 53 125 87zM613 346q0 -162 -94.5 -254t-248.5 -92h-167v531q0 87 -8 155h188q144 0 237 -92t93 -248zM276 627h-96v-567h93q127 0 193 74t66 208q0 131 -69 208t-187 77z" />
<glyph unicode="&#x10f;" horiz-adv-x="565" d="M384 744l75 12l9 -8v-609q0 -76 24 -139l-68 -10q-12 24 -24 69h-1q-48 -69 -138 -69q-87 0 -141.5 67t-54.5 181q0 127 67 197.5t171 70.5q47 0 90 -16v99q0 89 -9 155zM650 756l7 -12q-16 -103 -76 -211l-26 4q28 126 29 215zM144 246q0 -95 38 -149.5t103 -54.5 q64 0 108 54v345q-45 16 -87 16q-72 0 -117 -53.5t-45 -157.5z" />
<glyph unicode="&#x110;" horiz-adv-x="681" d="M613 346q0 -162 -94.5 -254t-248.5 -92h-167v321h-89v45h89v165q0 87 -8 155h188q144 0 237 -92t93 -248zM381 321h-201v-261h93q127 0 193 74t66 208q0 131 -69 208t-187 77h-96v-261h201v-45z" />
<glyph unicode="&#x111;" horiz-adv-x="565" d="M566 589h-98v-450q0 -76 24 -139l-68 -10q-12 24 -24 69h-1q-48 -69 -138 -69q-87 0 -141.5 67t-54.5 181q0 127 67 197.5t171 70.5q47 0 90 -16v99h-194v45h193q-2 61 -8 110l75 12l9 -8v-114h98v-45zM144 246q0 -95 38 -149.5t103 -54.5q64 0 108 54v345q-45 16 -87 16 q-72 0 -117 -53.5t-45 -157.5z" />
<glyph unicode="&#x112;" horiz-adv-x="521" d="M154 815v53h265v-53h-265zM481 64v-64h-378v531q0 87 -8 155h369l8 -8l-1 -56l-291 6v-260l247 3l-1 -61l-246 3v-254z" />
<glyph unicode="&#x113;" horiz-adv-x="511" d="M133 639v50h272v-50h-272zM452 257l-15 -15h-293q3 -96 46 -145t114 -49q66 0 131 43l6 -55q-64 -46 -154 -46q-101 0 -161.5 66.5t-60.5 185.5q0 123 62.5 193.5t153.5 70.5q79 0 125.5 -52t46.5 -138q0 -40 -1 -59zM277 454q-53 0 -90.5 -45.5t-42.5 -129.5l233 7 q0 5 0.5 17t0.5 19q0 60 -27 96t-74 36z" />
<glyph unicode="&#x114;" horiz-adv-x="521" d="M380 901h35q-10 -54 -45 -86t-87 -32q-50 0 -84 30.5t-41 82.5l34 5q21 -59 96 -59q33 0 57.5 16t34.5 43zM481 64v-64h-378v531q0 87 -8 155h369l8 -8l-1 -56l-291 6v-260l247 3l-1 -61l-246 3v-254z" />
<glyph unicode="&#x115;" horiz-adv-x="511" d="M362 737h35q-10 -65 -45 -103t-87 -38q-50 0 -84 36.5t-41 99.5l34 5q21 -81 96 -81q33 0 57.5 22t34.5 59zM452 257l-15 -15h-293q3 -96 46 -145t114 -49q66 0 131 43l6 -55q-64 -46 -154 -46q-101 0 -161.5 66.5t-60.5 185.5q0 123 62.5 193.5t153.5 70.5 q79 0 125.5 -52t46.5 -138q0 -40 -1 -59zM277 454q-53 0 -90.5 -45.5t-42.5 -129.5l233 7q0 5 0.5 17t0.5 19q0 60 -27 96t-74 36z" />
<glyph unicode="&#x116;" horiz-adv-x="521" d="M342 852q0 -24 -16 -41t-43 -17q-23 0 -37.5 14t-14.5 36q0 23 17.5 40t42.5 17q23 0 37 -13.5t14 -35.5zM481 64v-64h-378v531q0 87 -8 155h369l8 -8l-1 -56l-291 6v-260l247 3l-1 -61l-246 3v-254z" />
<glyph unicode="&#x117;" horiz-adv-x="511" d="M322 670q0 -26 -15.5 -44.5t-40.5 -18.5q-23 0 -36.5 15.5t-13.5 39.5q0 25 17 43.5t41 18.5q22 0 35 -15t13 -39zM452 257l-15 -15h-293q3 -96 46 -145t114 -49q66 0 131 43l6 -55q-64 -46 -154 -46q-101 0 -161.5 66.5t-60.5 185.5q0 123 62.5 193.5t153.5 70.5 q79 0 125.5 -52t46.5 -138q0 -40 -1 -59zM277 454q-53 0 -90.5 -45.5t-42.5 -129.5l233 7q0 5 0.5 17t0.5 19q0 60 -27 96t-74 36z" />
<glyph unicode="&#x118;" horiz-adv-x="521" d="M481 0q-112 -62 -112 -126q0 -49 53 -49q24 0 56 12l13 -31q-40 -32 -92 -32q-45 0 -71 22t-26 61q0 80 119 143h-318v531q0 87 -8 155h369l8 -8l-1 -56l-291 6v-260l247 3l-1 -61l-246 3v-254l301 5v-64z" />
<glyph unicode="&#x119;" horiz-adv-x="514" d="M452 257l-15 -15h-293q3 -96 46 -145t114 -49q66 0 131 43l5 -56l-2 -2q-127 -88 -127 -156q0 -50 53 -50q23 0 55 12l13 -31q-38 -32 -93 -32q-44 0 -70 22t-26 59q0 69 89 137q-19 -4 -45 -4q-101 0 -161.5 66.5t-60.5 185.5q0 123 62.5 193.5t153.5 70.5 q79 0 125.5 -52t46.5 -138q0 -40 -1 -59zM277 454q-53 0 -90.5 -45.5t-42.5 -129.5l233 7q0 5 0.5 17t0.5 19q0 60 -27 96t-74 36z" />
<glyph unicode="&#x11a;" horiz-adv-x="521" d="M415 916l21 -19q-55 -49 -115 -119l-61 -6q-55 64 -125 125l22 19q61 -34 133 -87q67 53 125 87zM481 64v-64h-378v531q0 87 -8 155h369l8 -8l-1 -56l-291 6v-260l247 3l-1 -61l-246 3v-254z" />
<glyph unicode="&#x11b;" horiz-adv-x="511" d="M385 759l24 -19q-63 -84 -104 -156l-61 -6q-48 80 -113 162l24 19q48 -41 119 -118q65 75 111 118zM452 257l-15 -15h-293q3 -96 46 -145t114 -49q66 0 131 43l6 -55q-64 -46 -154 -46q-101 0 -161.5 66.5t-60.5 185.5q0 123 62.5 193.5t153.5 70.5q79 0 125.5 -52 t46.5 -138q0 -40 -1 -59zM277 454q-53 0 -90.5 -45.5t-42.5 -129.5l233 7q0 5 0.5 17t0.5 19q0 60 -27 96t-74 36z" />
<glyph unicode="&#x11c;" horiz-adv-x="648" d="M218 771l-22 19q62 55 115 119l62 6q53 -62 124 -125l-22 -19q-61 34 -133 87q-66 -53 -124 -87zM563 299l8 -8l-2 -253q-40 -22 -97.5 -35t-110.5 -13q-136 0 -214.5 90t-78.5 250q0 169 85.5 267.5t230.5 98.5q97 0 167 -38l-14 -70q-63 44 -149 44q-109 0 -174 -76.5 t-65 -216.5q0 -129 57.5 -207t165.5 -78q58 0 123 19v50q0 83 -9 166z" />
<glyph unicode="&#x11d;" horiz-adv-x="490" d="M121 572l-24 19q58 76 104 156l62 6q51 -85 112 -162l-24 -19q-55 47 -119 118q-61 -72 -111 -118zM115 76q1 46 41 81q-47 19 -74.5 61t-27.5 100q0 80 48.5 134t132.5 54q63 0 103 -31q18 19 49 30.5t62 11.5l11 -4l-2 -62h-96q48 -48 48 -124q0 -79 -48 -131.5 t-130 -52.5q-18 0 -38 3q-16 -21 -16 -47q0 -23 13.5 -34.5t44.5 -14.5l85 -6q63 -4 104 -34t41 -89q0 -74 -64 -125.5t-173 -51.5q-94 0 -150 37.5t-56 94.5q0 34 18.5 58.5t42.5 36.5l32 -15q-25 -29 -25 -60q0 -43 39 -74.5t107 -31.5q69 0 111 32t42 81q0 37 -25.5 58 t-70.5 25l-76 6q-101 9 -103 84zM336 323q0 64 -26.5 100t-76.5 36q-52 0 -78.5 -35t-26.5 -99q0 -63 27 -99t79 -36q50 0 76 34.5t26 98.5z" />
<glyph unicode="&#x11e;" horiz-adv-x="648" d="M441 901h35q-10 -55 -45 -86.5t-88 -31.5q-50 0 -84 30.5t-41 82.5l34 5q21 -59 97 -59q33 0 57.5 16t34.5 43zM563 299l8 -8l-2 -253q-40 -22 -97.5 -35t-110.5 -13q-136 0 -214.5 90t-78.5 250q0 169 85.5 267.5t230.5 98.5q97 0 167 -38l-14 -70q-63 44 -149 44 q-109 0 -174 -76.5t-65 -216.5q0 -129 57.5 -207t165.5 -78q58 0 123 19v50q0 83 -9 166z" />
<glyph unicode="&#x11f;" horiz-adv-x="490" d="M329 737h34q-9 -65 -44.5 -103t-87.5 -38q-50 0 -84 36.5t-41 99.5l34 5q10 -38 35.5 -59.5t60.5 -21.5q33 0 57.5 22t35.5 59zM115 76q1 46 41 81q-47 19 -74.5 61t-27.5 100q0 80 48.5 134t132.5 54q63 0 103 -31q18 19 49 30.5t62 11.5l11 -4l-2 -62h-96 q48 -48 48 -124q0 -79 -48 -131.5t-130 -52.5q-18 0 -38 3q-16 -21 -16 -47q0 -23 13.5 -34.5t44.5 -14.5l85 -6q63 -4 104 -34t41 -89q0 -74 -64 -125.5t-173 -51.5q-94 0 -150 37.5t-56 94.5q0 34 18.5 58.5t42.5 36.5l32 -15q-25 -29 -25 -60q0 -43 39 -74.5t107 -31.5 q69 0 111 32t42 81q0 37 -25.5 58t-70.5 25l-76 6q-101 9 -103 84zM336 323q0 64 -26.5 100t-76.5 36q-52 0 -78.5 -35t-26.5 -99q0 -63 27 -99t79 -36q50 0 76 34.5t26 98.5z" />
<glyph unicode="&#x120;" horiz-adv-x="648" d="M403 852q0 -24 -16 -41t-43 -17q-24 0 -38.5 14.5t-14.5 35.5q0 23 18 40t43 17q23 0 37 -13.5t14 -35.5zM563 299l8 -8l-2 -253q-40 -22 -97.5 -35t-110.5 -13q-136 0 -214.5 90t-78.5 250q0 169 85.5 267.5t230.5 98.5q97 0 167 -38l-14 -70q-63 44 -149 44 q-109 0 -174 -76.5t-65 -216.5q0 -129 57.5 -207t165.5 -78q58 0 123 19v50q0 83 -9 166z" />
<glyph unicode="&#x121;" horiz-adv-x="490" d="M288 670q0 -26 -15.5 -44.5t-40.5 -18.5q-23 0 -36.5 15.5t-13.5 39.5q0 25 17 43.5t41 18.5q22 0 35 -15t13 -39zM115 76q1 46 41 81q-47 19 -74.5 61t-27.5 100q0 80 48.5 134t132.5 54q63 0 103 -31q18 19 49 30.5t62 11.5l11 -4l-2 -62h-96q48 -48 48 -124 q0 -79 -48 -131.5t-130 -52.5q-18 0 -38 3q-16 -21 -16 -47q0 -23 13.5 -34.5t44.5 -14.5l85 -6q63 -4 104 -34t41 -89q0 -74 -64 -125.5t-173 -51.5q-94 0 -150 37.5t-56 94.5q0 34 18.5 58.5t42.5 36.5l32 -15q-25 -29 -25 -60q0 -43 39 -74.5t107 -31.5q69 0 111 32 t42 81q0 37 -25.5 58t-70.5 25l-76 6q-101 9 -103 84zM336 323q0 64 -26.5 100t-76.5 36q-52 0 -78.5 -35t-26.5 -99q0 -63 27 -99t79 -36q50 0 76 34.5t26 98.5z" />
<glyph unicode="&#x122;" horiz-adv-x="648" d="M563 299l8 -8l-2 -253q-40 -22 -97.5 -35t-110.5 -13q-136 0 -214.5 90t-78.5 250q0 169 85.5 267.5t230.5 98.5q97 0 167 -38l-14 -70q-63 44 -149 44q-109 0 -174 -76.5t-65 -216.5q0 -129 57.5 -207t165.5 -78q58 0 123 19v50q0 83 -9 166zM321 -311q30 52 41 94 q-19 1 -31.5 16t-12.5 36q0 23 14.5 40t38.5 17q23 0 36.5 -16t13.5 -44q0 -68 -72 -162z" />
<glyph unicode="&#x123;" horiz-adv-x="490" d="M281 776q-30 -50 -41 -94q19 -1 31.5 -15.5t12.5 -35.5q0 -23 -14.5 -40.5t-38.5 -17.5q-23 0 -37 16t-14 45q0 70 73 162zM115 76q1 46 41 81q-47 19 -74.5 61t-27.5 100q0 80 48.5 134t132.5 54q63 0 103 -31q18 19 49 30.5t62 11.5l11 -4l-2 -62h-96q48 -48 48 -124 q0 -79 -48 -131.5t-130 -52.5q-18 0 -38 3q-16 -21 -16 -47q0 -23 13.5 -34.5t44.5 -14.5l85 -6q63 -4 104 -34t41 -89q0 -74 -64 -125.5t-173 -51.5q-94 0 -150 37.5t-56 94.5q0 34 18.5 58.5t42.5 36.5l32 -15q-25 -29 -25 -60q0 -43 39 -74.5t107 -31.5q69 0 111 32 t42 81q0 37 -25.5 58t-70.5 25l-76 6q-101 9 -103 84zM336 323q0 64 -26.5 100t-76.5 36q-52 0 -78.5 -35t-26.5 -99q0 -63 27 -99t79 -36q50 0 76 34.5t26 98.5z" />
<glyph unicode="&#x124;" horiz-adv-x="705" d="M223 771l-21 19q62 55 115 119l62 6q52 -62 124 -125l-22 -19q-61 34 -133 87q-67 -53 -125 -87zM180 0h-77v529q0 80 -8 157l77 10l8 -8v-317h344v158q0 90 -7 157l76 10l9 -8v-688h-78v312h-344v-312z" />
<glyph unicode="&#x125;" horiz-adv-x="565" d="M2 804l-22 19q55 48 116 119l61 6q55 -64 125 -125l-22 -19q-68 38 -133 87q-67 -53 -125 -87zM170 0h-75v589q0 88 -9 155l75 12l9 -8v-313q77 71 164 71q64 0 99 -37.5t35 -108.5v-360h-75v344q0 105 -90 105q-64 0 -133 -58v-391z" />
<glyph unicode="&#x126;" horiz-adv-x="705" d="M180 0h-77v496h-73v45h72q0 82 -7 145l77 10l8 -8v-147h344q0 82 -7 145l76 10l9 -8v-147h73v-45h-73v-496h-78v312h-344v-312zM180 371h344v125h-344v-125z" />
<glyph unicode="&#x127;" horiz-adv-x="565" d="M170 0h-75v584h-93v45h93q-2 66 -9 115l75 12l9 -8v-119h199v-45h-199v-149q77 71 164 71q64 0 99 -37.5t35 -108.5v-360h-75v344q0 105 -90 105q-64 0 -133 -58v-391z" />
<glyph unicode="&#x128;" horiz-adv-x="283" d="M68 903q31 0 76.5 -28t68.5 -28q39 0 66 54l23 -4q-4 -44 -28.5 -75.5t-65.5 -31.5q-30 0 -77.5 28t-69.5 28q-38 0 -66 -53l-23 4q4 41 28.5 73.5t67.5 32.5zM180 0h-77v529q0 80 -8 157l77 10l8 -8v-688z" />
<glyph unicode="&#x129;" horiz-adv-x="269" d="M81 726q23 0 56.5 -28t47.5 -28q29 0 46 54l23 -4q-2 -42 -21.5 -77t-52.5 -35q-23 0 -57 28t-46 28q-29 0 -47 -53l-23 4q3 42 22.5 76.5t51.5 34.5zM96 0v339q0 97 -9 155l76 12l8 -8v-498h-75z" />
<glyph unicode="&#x12a;" horiz-adv-x="283" d="M5 815v53h265v-53h-265zM180 0h-77v529q0 80 -8 157l77 10l8 -8v-688z" />
<glyph unicode="&#x12b;" horiz-adv-x="269" d="M23 639v50h216v-50h-216zM96 0v339q0 97 -9 155l76 12l8 -8v-498h-75z" />
<glyph unicode="&#x12c;" horiz-adv-x="283" d="M231 901h35q-10 -54 -45 -86t-87 -32q-50 0 -84 30.5t-41 82.5l34 5q21 -59 96 -59q33 0 57.5 16t34.5 43zM180 0h-77v529q0 80 -8 157l77 10l8 -8v-688z" />
<glyph unicode="&#x12d;" horiz-adv-x="269" d="M209 736h35q-8 -65 -39.5 -103t-77.5 -38q-43 0 -73 36.5t-36 99.5l34 5q8 -38 29 -59.5t51 -21.5q28 0 48.5 22t28.5 59zM96 0v339q0 97 -9 155l76 12l8 -8v-498h-75z" />
<glyph unicode="&#x12e;" horiz-adv-x="260" d="M169 0q-64 -66 -64 -125q0 -50 53 -50q24 0 55 12l13 -31q-39 -32 -93 -32q-44 0 -69.5 23t-25.5 64q0 73 80 139h-15v529q0 80 -8 157l77 10l8 -8v-688h-11z" />
<glyph unicode="&#x12f;" horiz-adv-x="269" d="M184 670q0 -26 -15.5 -44.5t-40.5 -18.5q-23 0 -36.5 15.5t-13.5 39.5q0 25 17 43.5t41 18.5q22 0 35 -15t13 -39zM96 0v339q0 97 -9 155l76 12l8 -8v-498q-67 -59 -67 -117q0 -26 15 -41t43 -15q23 0 50 12l13 -31q-38 -32 -92 -32q-44 0 -70 25t-26 66q0 68 83 133h-24 z" />
<glyph unicode="&#x130;" horiz-adv-x="283" d="M193 852q0 -24 -16 -41t-43 -17q-24 0 -38 14t-14 36q0 23 17.5 40t42.5 17q23 0 37 -13.5t14 -35.5zM180 0h-77v529q0 80 -8 157l77 10l8 -8v-688z" />
<glyph unicode="&#x131;" horiz-adv-x="269" d="M96 0v339q0 97 -9 155l76 12l8 -8v-498h-75z" />
<glyph unicode="&#x132;" horiz-adv-x="556" d="M180 0h-77v529q0 80 -8 157l77 10l8 -8v-688zM314 -193l-25 38q87 69 87 222v462q0 79 -9 155l78 12l8 -8v-621q0 -102 -33 -162t-106 -98z" />
<glyph unicode="&#x133;" horiz-adv-x="538" d="M184 670q0 -26 -15.5 -44.5t-40.5 -18.5q-23 0 -36.5 15.5t-13.5 39.5q0 25 17 43.5t41 18.5q22 0 35 -15t13 -39zM453 670q0 -26 -15.5 -44.5t-41.5 -18.5q-23 0 -36.5 15.5t-13.5 39.5q0 25 17 43.5t41 18.5q22 0 35.5 -15t13.5 -39zM96 0v339q0 97 -9 155l76 12l8 -8 v-498h-75zM311 -256l-26 33q81 68 81 189v373q0 77 -9 155l75 12l9 -8v-524q0 -87 -32 -141.5t-98 -88.5z" />
<glyph unicode="&#x134;" horiz-adv-x="273" d="M2 771l-22 19q62 55 115 119l62 6q53 -62 124 -125l-21 -19q-61 34 -134 87q-66 -53 -124 -87zM31 -193l-25 38q87 69 87 222v462q0 79 -9 155l78 12l9 -8v-621q0 -102 -33.5 -162t-106.5 -98z" />
<glyph unicode="&#x135;" horiz-adv-x="270" d="M45 580l-23 13q45 99 67 160l74 6q26 -66 75 -166l-23 -13q-39 42 -89 116q-45 -74 -81 -116zM42 -256l-26 33q81 67 81 189v373q0 77 -9 155l75 12l9 -8v-524q0 -87 -32 -141.5t-98 -88.5z" />
<glyph unicode="&#x136;" horiz-adv-x="590" d="M103 529q0 88 -8 157l75 10l9 -8v-323h97q28 43 211 331l65 -12l6 -8l-219 -327l242 -349l-84 -9q-66 92 -219 315h-99v-306h-76v529zM257 -311q30 52 41 94q-19 2 -31.5 16.5t-12.5 35.5q0 23 14.5 40t38.5 17q23 0 37 -16t14 -44q0 -70 -73 -162z" />
<glyph unicode="&#x137;" horiz-adv-x="510" d="M95 589q0 89 -9 155l75 12l9 -8v-468h78q60 85 151 226l57 -12l6 -9l-151 -209q56 -90 180 -276l-83 -10q-62 91 -156 243h-82v-233h-75v589zM218 -311q30 52 41 94q-19 1 -31.5 16t-12.5 36q0 23 14.5 40t38.5 17q23 0 36.5 -16t13.5 -44q0 -68 -72 -162z" />
<glyph unicode="&#x138;" horiz-adv-x="510" d="M95 339q0 89 -9 155l75 12l9 -8v-218h78q60 85 151 226l57 -12l6 -9l-151 -209q56 -90 180 -276l-83 -10q-62 91 -156 243h-82v-233h-75v339z" />
<glyph unicode="&#x139;" horiz-adv-x="492" d="M370 865l-3 -14q-101 -58 -242 -74l-8 23q128 54 204 111zM470 64v-64h-367v530q0 79 -8 156l77 10l8 -8v-629z" />
<glyph unicode="&#x13a;" horiz-adv-x="269" d="M265 916l-3 -13q-103 -58 -242 -74l-8 23q128 53 204 110zM171 0h-75v589q0 89 -9 155l76 12l8 -8v-748z" />
<glyph unicode="&#x13b;" horiz-adv-x="492" d="M470 64v-64h-367v530q0 79 -8 156l77 10l8 -8v-629zM242 -311q30 52 41 94q-19 2 -31.5 16.5t-12.5 35.5q0 22 14.5 39.5t38.5 17.5q23 0 37 -16t14 -44q0 -70 -73 -162z" />
<glyph unicode="&#x13c;" horiz-adv-x="269" d="M171 0h-75v589q0 89 -9 155l76 12l8 -8v-748zM86 -311q30 52 41 94q-19 1 -31.5 16t-12.5 36q0 23 14.5 40t38.5 17q23 0 36.5 -16t13.5 -44q0 -68 -72 -162z" />
<glyph unicode="&#x13d;" horiz-adv-x="492" d="M386 742l7 -12q-14 -101 -75 -212l-27 5q29 129 30 214zM470 64v-64h-367v530q0 79 -8 156l77 10l8 -8v-629z" />
<glyph unicode="&#x13e;" horiz-adv-x="269" d="M331 763l7 -12q-14 -96 -75 -212l-27 5q29 130 29 214zM171 0h-75v589q0 89 -9 155l76 12l8 -8v-748z" />
<glyph unicode="&#x13f;" horiz-adv-x="492" d="M422 355q0 -25 -17.5 -43t-41.5 -18q-23 0 -39.5 16t-16.5 41q0 26 17.5 44t42.5 18q24 0 39.5 -16.5t15.5 -41.5zM470 64v-64h-367v530q0 79 -8 156l77 10l8 -8v-629z" />
<glyph unicode="&#x140;" horiz-adv-x="518" d="M171 0h-75v589q0 89 -9 155l76 12l8 -8v-748zM453 319q0 -26 -17.5 -43.5t-41.5 -17.5t-40 16t-16 41t17.5 43t42.5 18q24 0 39.5 -16t15.5 -41z" />
<glyph unicode="&#x141;" horiz-adv-x="492" d="M470 64v-64h-367v287l-92 -50l-22 40l114 63v190q0 79 -8 156l77 10l8 -8v-305l135 75l23 -41l-158 -87v-271z" />
<glyph unicode="&#x142;" horiz-adv-x="269" d="M171 0h-75v369l-111 -62l-22 41l133 73v168q0 89 -9 155l76 12l8 -8v-285l118 65l23 -40l-141 -78v-410z" />
<glyph unicode="&#x143;" horiz-adv-x="703" d="M472 865l-3 -14q-103 -58 -242 -74l-8 23q130 55 204 111zM358 398q10 -15 40 -64t40.5 -66t30.5 -51.5t34 -61t27 -55.5h2q-6 97 -6 415q0 86 -8 171l74 10l9 -9v-687h-78q-111 181 -182 297q-128 205 -168 287h-1q6 -85 6 -237v-347h-75v531q0 78 -8 155l81 10 q37 -61 102 -167.5t80 -130.5z" />
<glyph unicode="&#x144;" horiz-adv-x="570" d="M366 744l5 -14q-58 -88 -161 -156l-25 13q78 98 112 171zM175 0h-75v341q0 79 -20 148l69 17q14 -31 23 -74q77 74 167 74q64 0 99 -37.5t35 -108.5v-360h-75v344q0 105 -90 105q-65 0 -133 -59v-390z" />
<glyph unicode="&#x145;" horiz-adv-x="703" d="M358 398q10 -15 40 -64t40.5 -66t30.5 -51.5t34 -61t27 -55.5h2q-6 97 -6 415q0 86 -8 171l74 10l9 -9v-687h-78q-111 181 -182 297q-128 205 -168 287h-1q6 -85 6 -237v-347h-75v531q0 78 -8 155l81 10q37 -61 102 -167.5t80 -130.5zM308 -311q30 52 41 94 q-19 1 -31.5 16t-12.5 36q0 23 14.5 40t38.5 17q23 0 36.5 -16t13.5 -44q0 -68 -72 -162z" />
<glyph unicode="&#x146;" horiz-adv-x="570" d="M175 0h-75v341q0 79 -20 148l69 17q14 -31 23 -74q77 74 167 74q64 0 99 -37.5t35 -108.5v-360h-75v344q0 105 -90 105q-65 0 -133 -59v-390zM237 -311q30 52 41 94q-19 2 -31.5 16.5t-12.5 35.5q0 22 14.5 39.5t38.5 17.5q23 0 37 -16t14 -44q0 -70 -73 -162z" />
<glyph unicode="&#x147;" horiz-adv-x="703" d="M474 916l21 -19q-55 -49 -115 -119l-61 -6q-55 64 -125 125l22 19q61 -34 133 -87q67 53 125 87zM358 398q10 -15 40 -64t40.5 -66t30.5 -51.5t34 -61t27 -55.5h2q-6 97 -6 415q0 86 -8 171l74 10l9 -9v-687h-78q-111 181 -182 297q-128 205 -168 287h-1q6 -85 6 -237 v-347h-75v531q0 78 -8 155l81 10q37 -61 102 -167.5t80 -130.5z" />
<glyph unicode="&#x148;" horiz-adv-x="570" d="M394 759l24 -19q-63 -84 -104 -156l-61 -6q-48 80 -113 162l24 19q48 -41 119 -118q65 75 111 118zM175 0h-75v341q0 79 -20 148l69 17q14 -31 23 -74q77 74 167 74q64 0 99 -37.5t35 -108.5v-360h-75v344q0 105 -90 105q-65 0 -133 -59v-390z" />
<glyph unicode="&#x149;" horiz-adv-x="670" d="M46 480q48 92 58 160q-21 1 -34.5 16.5t-13.5 38.5q0 26 18 44.5t43 18.5t39.5 -17t14.5 -49q0 -49 -31 -116t-67 -115zM275 0h-75v341q0 79 -20 148l70 17q13 -33 22 -74q77 74 168 74q63 0 98 -37.5t35 -108.5v-360h-75v344q0 105 -89 105q-66 0 -134 -59v-390z" />
<glyph unicode="&#x14a;" horiz-adv-x="703" d="M460 -187l-24 35q78 56 86 154q-26 42 -88 143.5t-93 151.5q-128 205 -168 287h-1q6 -85 6 -237v-347h-75v531q0 78 -8 155l81 10q37 -61 102 -167.5t80 -130.5q10 -15 40 -64t40.5 -66t30.5 -51.5t34 -61t27 -55.5h2q-6 97 -6 415q0 86 -8 171l74 10l9 -9v-620 q0 -101 -33.5 -159.5t-107.5 -94.5z" />
<glyph unicode="&#x14b;" horiz-adv-x="570" d="M175 0h-75v341q0 79 -20 148l69 17q14 -31 23 -74q77 74 167 74q64 0 99 -37.5t35 -108.5v-345q0 -77 -22.5 -131t-71.5 -99l-31 31q50 90 50 199v329q0 105 -90 105q-65 0 -133 -59v-390z" />
<glyph unicode="&#x14c;" horiz-adv-x="699" d="M223 813v53h265v-53h-265zM632 345q0 -167 -82 -261t-206 -94q-121 0 -198.5 91.5t-77.5 251.5q0 165 82 264t207 99q123 0 199 -95t76 -256zM149 341q0 -131 53.5 -210t146.5 -79t147.5 76.5t54.5 213.5q0 132 -51 212t-144 80q-92 0 -149.5 -78.5t-57.5 -214.5z" />
<glyph unicode="&#x14d;" horiz-adv-x="559" d="M143 639v50h273v-50h-273zM494 252q0 -125 -63.5 -193.5t-156.5 -68.5t-151 67.5t-58 185.5q0 124 63 193.5t157 69.5t151.5 -68.5t57.5 -185.5zM144 250q0 -95 34.5 -151.5t99.5 -56.5q63 0 100.5 53.5t37.5 150.5q0 95 -34.5 151.5t-99.5 56.5q-63 0 -100.5 -52.5 t-37.5 -151.5z" />
<glyph unicode="&#x14e;" horiz-adv-x="699" d="M450 898h34q-9 -54 -44.5 -86t-87.5 -32q-50 0 -84 30.5t-41 83.5l34 5q21 -59 96 -59q33 0 57.5 15.5t35.5 42.5zM632 345q0 -167 -82 -261t-206 -94q-121 0 -198.5 91.5t-77.5 251.5q0 165 82 264t207 99q123 0 199 -95t76 -256zM149 341q0 -131 53.5 -210t146.5 -79 t147.5 76.5t54.5 213.5q0 132 -51 212t-144 80q-92 0 -149.5 -78.5t-57.5 -214.5z" />
<glyph unicode="&#x14f;" horiz-adv-x="559" d="M373 737h35q-10 -65 -45 -103t-88 -38q-50 0 -84 36.5t-41 99.5l34 5q10 -38 35.5 -59.5t61.5 -21.5q33 0 57.5 22t34.5 59zM494 252q0 -125 -63.5 -193.5t-156.5 -68.5t-151 67.5t-58 185.5q0 124 63 193.5t157 69.5t151.5 -68.5t57.5 -185.5zM144 250 q0 -95 34.5 -151.5t99.5 -56.5q63 0 100.5 53.5t37.5 150.5q0 95 -34.5 151.5t-99.5 56.5q-63 0 -100.5 -52.5t-37.5 -151.5z" />
<glyph unicode="&#x150;" horiz-adv-x="699" d="M356 863l-3 -13q-78 -59 -190 -75l-8 23q98 52 158 110zM556 863l-3 -13q-78 -59 -190 -75l-8 23q98 52 158 110zM632 345q0 -167 -82 -261t-206 -94q-121 0 -198.5 91.5t-77.5 251.5q0 165 82 264t207 99q123 0 199 -95t76 -256zM149 341q0 -131 53.5 -210t146.5 -79 t147.5 76.5t54.5 213.5q0 132 -51 212t-144 80q-92 0 -149.5 -78.5t-57.5 -214.5z" />
<glyph unicode="&#x151;" horiz-adv-x="559" d="M293 748l5 -13q-57 -90 -148 -158l-25 12q74 88 111 171zM427 748l4 -13q-56 -90 -148 -158l-25 12q73 87 112 171zM494 252q0 -125 -63.5 -193.5t-156.5 -68.5t-151 67.5t-58 185.5q0 124 63 193.5t157 69.5t151.5 -68.5t57.5 -185.5zM144 250q0 -95 34.5 -151.5 t99.5 -56.5q63 0 100.5 53.5t37.5 150.5q0 95 -34.5 151.5t-99.5 56.5q-63 0 -100.5 -52.5t-37.5 -151.5z" />
<glyph unicode="&#x152;" horiz-adv-x="931" d="M891 64v-64h-472q-34 -10 -75 -10q-121 0 -198.5 91.5t-77.5 251.5q0 165 82 264t207 99q40 0 73 -10h443l9 -8l-1 -56l-348 4q92 -89 98 -257l206 2l-1 -61l-205 3q-9 -164 -104 -253zM149 341q0 -131 53.5 -210t146.5 -79t147.5 76.5t54.5 213.5q0 132 -51 212t-144 80 q-92 0 -149.5 -78.5t-57.5 -214.5z" />
<glyph unicode="&#x153;" horiz-adv-x="861" d="M802 257l-15 -15h-293q3 -96 46 -145t114 -49q68 0 132 43l5 -55q-23 -18 -64.5 -32t-87.5 -14q-129 0 -186 111q-29 -53 -76.5 -82t-104.5 -29q-91 0 -149 68t-58 185q0 124 63 193.5t156 69.5q119 0 173 -113q28 54 75 83.5t102 29.5q77 0 123 -52t46 -138 q0 -40 -1 -59zM144 250q0 -95 34.5 -151.5t99.5 -56.5q63 0 100.5 53.5t37.5 151.5q0 95 -34.5 151t-99.5 56q-63 0 -100.5 -52.5t-37.5 -151.5zM627 454q-53 0 -90.5 -46t-41.5 -129l232 7q1 11 1 35q0 61 -26.5 97t-74.5 36z" />
<glyph unicode="&#x154;" horiz-adv-x="587" d="M424 862l-4 -13q-101 -58 -242 -74l-8 23q126 51 204 110zM180 0h-77v531q0 87 -8 155h178q113 0 179.5 -56.5t66.5 -151.5q0 -70 -36.5 -117t-99.5 -68l167 -293l-83 -9q-76 137 -151 281h-136v-272zM268 628h-88v-298h85q84 0 128.5 37.5t44.5 108.5q0 69 -42 110.5 t-128 41.5z" />
<glyph unicode="&#x155;" horiz-adv-x="384" d="M298 744l4 -14q-59 -89 -160 -156l-25 13q79 99 111 171zM175 0h-75v341q0 79 -20 148l70 17q17 -40 24 -88q73 88 145 88q30 0 47 -13l-14 -69q-24 8 -45 8q-66 0 -132 -60v-372z" />
<glyph unicode="&#x156;" horiz-adv-x="587" d="M180 0h-77v531q0 87 -8 155h178q113 0 179.5 -56.5t66.5 -151.5q0 -70 -36.5 -117t-99.5 -68l167 -293l-83 -9q-76 137 -151 281h-136v-272zM268 628h-88v-298h85q84 0 128.5 37.5t44.5 108.5q0 69 -42 110.5t-128 41.5zM252 -311q30 52 41 94q-19 1 -31.5 16t-12.5 36 q0 23 14.5 40t38.5 17q23 0 36.5 -16t13.5 -44q0 -68 -72 -162z" />
<glyph unicode="&#x157;" horiz-adv-x="384" d="M175 0h-75v341q0 79 -20 148l70 17q17 -40 24 -88q73 88 145 88q30 0 47 -13l-14 -69q-24 8 -45 8q-66 0 -132 -60v-372zM86 -311q30 52 41 94q-19 2 -31.5 16.5t-12.5 35.5q0 22 14.5 39.5t38.5 17.5q23 0 37 -16t14 -44q0 -70 -73 -162z" />
<glyph unicode="&#x158;" horiz-adv-x="587" d="M425 914l22 -20q-66 -59 -115 -119l-62 -6q-53 62 -124 125l21 20q69 -39 134 -87q64 50 124 87zM180 0h-77v531q0 87 -8 155h178q113 0 179.5 -56.5t66.5 -151.5q0 -70 -36.5 -117t-99.5 -68l167 -293l-83 -9q-76 137 -151 281h-136v-272zM268 628h-88v-298h85 q84 0 128.5 37.5t44.5 108.5q0 69 -42 110.5t-128 41.5z" />
<glyph unicode="&#x159;" horiz-adv-x="384" d="M326 759l24 -19q-63 -84 -104 -156l-61 -6q-55 88 -113 162l24 19q48 -41 119 -118q61 72 111 118zM175 0h-75v341q0 79 -20 148l70 17q17 -40 24 -88q73 88 145 88q30 0 47 -13l-14 -69q-24 8 -45 8q-66 0 -132 -60v-372z" />
<glyph unicode="&#x15a;" horiz-adv-x="513" d="M394 862l-3 -13q-101 -58 -242 -74l-8 23q126 51 204 110zM455 171q0 -84 -61 -132.5t-162 -48.5t-173 36l8 70q73 -42 168 -42q66 0 103 30.5t37 80.5q0 24 -10 45.5t-20.5 35t-36.5 30.5t-38.5 24t-46.5 24q-38 20 -59 33.5t-48 36.5t-39.5 53t-12.5 67q0 84 62 133 t162 49q92 0 154 -31l-11 -71q-65 39 -145 39q-67 0 -104.5 -30t-37.5 -80q0 -12 3 -23.5t6 -20.5t11 -19t12.5 -16t17.5 -15.5t18 -13.5t21.5 -13t21 -11.5t23.5 -12t22 -11.5q34 -17 56.5 -32t47.5 -39t38 -55.5t13 -69.5z" />
<glyph unicode="&#x15b;" horiz-adv-x="439" d="M304 744l5 -14q-58 -87 -160 -156l-25 13q79 99 111 171zM370 476l-9 -64q-63 39 -123 39q-47 0 -74.5 -21t-27.5 -55q0 -31 25.5 -54t62 -39t73 -34t62 -48.5t25.5 -72.5q0 -61 -49.5 -99t-130.5 -38q-84 0 -149 34l9 63q67 -41 144 -41q48 0 75 20.5t27 53.5 q0 30 -25.5 52.5t-62 38t-73.5 33.5t-62.5 48.5t-25.5 73.5q0 63 49 101.5t130 38.5q67 0 130 -30z" />
<glyph unicode="&#x15c;" horiz-adv-x="513" d="M138 768l-21 20q61 54 115 119l61 6q55 -64 125 -125l-22 -20q-76 45 -133 87q-60 -48 -125 -87zM455 171q0 -84 -61 -132.5t-162 -48.5t-173 36l8 70q73 -42 168 -42q66 0 103 30.5t37 80.5q0 24 -10 45.5t-20.5 35t-36.5 30.5t-38.5 24t-46.5 24q-38 20 -59 33.5 t-48 36.5t-39.5 53t-12.5 67q0 84 62 133t162 49q92 0 154 -31l-11 -71q-65 39 -145 39q-67 0 -104.5 -30t-37.5 -80q0 -12 3 -23.5t6 -20.5t11 -19t12.5 -16t17.5 -15.5t18 -13.5t21.5 -13t21 -11.5t23.5 -12t22 -11.5q34 -17 56.5 -32t47.5 -39t38 -55.5t13 -69.5z" />
<glyph unicode="&#x15d;" horiz-adv-x="439" d="M103 572l-24 19q59 79 103 156l62 6q48 -80 113 -162l-24 -19q-60 51 -120 118q-60 -70 -110 -118zM370 476l-9 -64q-63 39 -123 39q-47 0 -74.5 -21t-27.5 -55q0 -31 25.5 -54t62 -39t73 -34t62 -48.5t25.5 -72.5q0 -61 -49.5 -99t-130.5 -38q-84 0 -149 34l9 63 q67 -41 144 -41q48 0 75 20.5t27 53.5q0 30 -25.5 52.5t-62 38t-73.5 33.5t-62.5 48.5t-25.5 73.5q0 63 49 101.5t130 38.5q67 0 130 -30z" />
<glyph unicode="&#x15e;" horiz-adv-x="513" d="M358 -130q0 -42 -44 -66t-108 -30l-3 32q92 16 92 57q0 35 -65 39l-10 16l22 72h-10q-101 0 -173 36l8 70q73 -42 168 -42q66 0 103 30.5t37 80.5q0 24 -10 45.5t-20.5 35t-36.5 30.5t-38.5 24t-46.5 24q-38 20 -59 33.5t-48 36.5t-39.5 53t-12.5 67q0 84 62 133t162 49 q92 0 154 -31l-11 -71q-65 39 -145 39q-67 0 -104.5 -30t-37.5 -80q0 -12 3 -23.5t6 -20.5t11 -19t12.5 -16t17.5 -15.5t18 -13.5t21.5 -13t21 -11.5t23.5 -12t22 -11.5q34 -17 56.5 -32t47.5 -39t38 -55.5t13 -69.5q0 -71 -44.5 -117t-121.5 -59l-18 -56q38 -5 62.5 -22 t24.5 -47z" />
<glyph unicode="&#x15f;" horiz-adv-x="439" d="M318 -130q0 -42 -43.5 -66t-107.5 -30l-3 32q92 16 92 57q0 35 -66 39l-10 16l23 72q-84 0 -148 34l9 63q67 -41 144 -41q48 0 75 20.5t27 53.5q0 30 -25.5 52.5t-62 38t-73.5 33.5t-62.5 48.5t-25.5 73.5q0 63 49 101.5t130 38.5q67 0 130 -30l-9 -64q-63 39 -123 39 q-47 0 -74.5 -21t-27.5 -55q0 -31 25.5 -54t62 -39t73 -34t62 -48.5t25.5 -72.5q0 -52 -36.5 -87.5t-98.5 -45.5l-17 -55q38 -5 62 -22t24 -47z" />
<glyph unicode="&#x160;" horiz-adv-x="513" d="M396 914l22 -20q-61 -53 -116 -119l-61 -6q-53 62 -124 125l21 20q77 -45 133 -87q60 48 125 87zM455 171q0 -84 -61 -132.5t-162 -48.5t-173 36l8 70q73 -42 168 -42q66 0 103 30.5t37 80.5q0 24 -10 45.5t-20.5 35t-36.5 30.5t-38.5 24t-46.5 24q-38 20 -59 33.5 t-48 36.5t-39.5 53t-12.5 67q0 84 62 133t162 49q92 0 154 -31l-11 -71q-65 39 -145 39q-67 0 -104.5 -30t-37.5 -80q0 -12 3 -23.5t6 -20.5t11 -19t12.5 -16t17.5 -15.5t18 -13.5t21.5 -13t21 -11.5t23.5 -12t22 -11.5q34 -17 56.5 -32t47.5 -39t38 -55.5t13 -69.5z" />
<glyph unicode="&#x161;" horiz-adv-x="439" d="M333 759l24 -19q-58 -76 -104 -156l-62 -6q-51 85 -112 162l24 19q52 -46 119 -118q61 72 111 118zM370 476l-9 -64q-63 39 -123 39q-47 0 -74.5 -21t-27.5 -55q0 -31 25.5 -54t62 -39t73 -34t62 -48.5t25.5 -72.5q0 -61 -49.5 -99t-130.5 -38q-84 0 -149 34l9 63 q67 -41 144 -41q48 0 75 20.5t27 53.5q0 30 -25.5 52.5t-62 38t-73.5 33.5t-62.5 48.5t-25.5 73.5q0 63 49 101.5t130 38.5q67 0 130 -30z" />
<glyph unicode="&#x162;" horiz-adv-x="537" d="M308 0h-14l-20 -61q38 -5 62 -22t24 -47q0 -42 -43.5 -66t-107.5 -30l-3 32q92 16 92 57q0 35 -66 39l-10 16l26 82h-18v626q-104 -2 -209 -6l5 66h485l5 -66q-105 5 -208 6v-626z" />
<glyph unicode="&#x163;" horiz-adv-x="361" d="M302 -130q0 -42 -44 -66t-107 -30l-4 32q93 16 93 57q0 35 -66 39l-10 16l24 77q-88 23 -88 158v298l-73 1v34l74 10l18 117l50 5l9 -9l-3 -113h136l6 -8l-3 -39l-139 1v-289q0 -60 19 -86.5t57 -26.5q42 0 80 25l10 -52q-49 -31 -109 -31l-17 -51q38 -5 62.5 -22 t24.5 -47z" />
<glyph unicode="&#x164;" horiz-adv-x="537" d="M398 914l21 -20q-66 -59 -115 -119l-62 -6q-52 62 -124 125l22 20q70 -41 133 -87q60 48 125 87zM308 0h-78v626q-104 -2 -209 -6l5 66h485l5 -66q-105 5 -208 6v-626z" />
<glyph unicode="&#x165;" horiz-adv-x="361" d="M322 764l7 -12q-15 -103 -75 -212l-27 5q29 129 30 214zM314 449l-139 1v-289q0 -60 19 -86.5t57 -26.5q42 0 80 25l10 -52q-49 -31 -111 -31q-130 0 -130 163v298l-73 1v34l74 10l18 117l50 5l9 -9l-3 -113h136l6 -8z" />
<glyph unicode="&#x166;" horiz-adv-x="537" d="M308 0h-78v321h-144v45h144v260q-104 -2 -209 -6l5 66h485l5 -66q-105 5 -208 6v-260h144v-45h-144v-321z" />
<glyph unicode="&#x167;" horiz-adv-x="361" d="M313 282h-138v-121q0 -60 19 -86.5t57 -26.5q42 0 80 25l10 -52q-49 -31 -111 -31q-130 0 -130 163v129h-72v45h72v124l-73 1v34l74 10l18 117l50 5l9 -9l-3 -113h136l6 -8l-3 -39l-139 1v-123h138v-45z" />
<glyph unicode="&#x168;" horiz-adv-x="653" d="M257 901q31 0 76.5 -28t68.5 -28q38 0 67 53l23 -4q-5 -43 -29.5 -75t-65.5 -32q-31 0 -78 28.5t-68 28.5q-38 0 -67 -54l-23 4q5 42 29.5 74.5t66.5 32.5zM89 531q0 83 -10 157l83 8l5 -5v-464q0 -82 45 -128t116 -46q72 0 116.5 45t44.5 129v314q0 80 -10 147l85 8 v-471q0 -113 -68.5 -174t-173.5 -61q-102 0 -167.5 61.5t-65.5 173.5v306z" />
<glyph unicode="&#x169;" horiz-adv-x="560" d="M211 723q28 0 72 -28t65 -28q33 0 60 53l24 -4q-5 -44 -28 -77.5t-61 -33.5q-29 0 -74 28t-65 28q-33 0 -59 -54l-24 4q5 44 28 78t62 34zM96 339q0 84 -7 155l74 12l8 -8v-351q0 -97 86 -97q60 0 127 59v387l75 10v-365q0 -76 19 -139l-64 -12q-14 29 -24 75h-2 q-75 -75 -160 -75q-63 0 -97.5 35.5t-34.5 99.5v214z" />
<glyph unicode="&#x16a;" horiz-adv-x="653" d="M194 813v53h265v-53h-265zM89 531q0 83 -10 157l83 8l5 -5v-464q0 -82 45 -128t116 -46q72 0 116.5 45t44.5 129v314q0 80 -10 147l85 8v-471q0 -113 -68.5 -174t-173.5 -61q-102 0 -167.5 61.5t-65.5 173.5v306z" />
<glyph unicode="&#x16b;" horiz-adv-x="560" d="M143 639v50h273v-50h-273zM96 339q0 84 -7 155l74 12l8 -8v-351q0 -97 86 -97q60 0 127 59v387l75 10v-365q0 -76 19 -139l-64 -12q-14 29 -24 75h-2q-75 -75 -160 -75q-63 0 -97.5 35.5t-34.5 99.5v214z" />
<glyph unicode="&#x16c;" horiz-adv-x="653" d="M421 898h34q-9 -54 -44.5 -86t-87.5 -32q-50 0 -84 30.5t-41 83.5l34 5q21 -59 96 -59q33 0 57.5 15.5t35.5 42.5zM89 531q0 83 -10 157l83 8l5 -5v-464q0 -82 45 -128t116 -46q72 0 116.5 45t44.5 129v314q0 80 -10 147l85 8v-471q0 -113 -68.5 -174t-173.5 -61 q-102 0 -167.5 61.5t-65.5 173.5v306z" />
<glyph unicode="&#x16d;" horiz-adv-x="560" d="M373 737h34q-9 -65 -44.5 -103t-87.5 -38q-50 0 -84 36.5t-41 99.5l34 5q10 -38 35.5 -59.5t60.5 -21.5q33 0 57.5 22t35.5 59zM96 339q0 84 -7 155l74 12l8 -8v-351q0 -97 86 -97q60 0 127 59v387l75 10v-365q0 -76 19 -139l-64 -12q-14 29 -24 75h-2q-75 -75 -160 -75 q-63 0 -97.5 35.5t-34.5 99.5v214z" />
<glyph unicode="&#x16e;" horiz-adv-x="653" d="M421 851q0 -36 -28 -62.5t-67 -26.5q-35 0 -60 22.5t-25 54.5q0 37 28.5 63t68.5 26q36 0 59.5 -22t23.5 -55zM284 843q0 -20 12.5 -33t33.5 -13q20 0 34 15t14 35q0 21 -11.5 34t-32.5 13t-35.5 -15t-14.5 -36zM89 531q0 83 -10 157l83 8l5 -5v-464q0 -82 45 -128 t116 -46q72 0 116.5 45t44.5 129v314q0 80 -10 147l85 8v-471q0 -113 -68.5 -174t-173.5 -61q-102 0 -167.5 61.5t-65.5 173.5v306z" />
<glyph unicode="&#x16f;" horiz-adv-x="560" d="M374 661q0 -36 -28 -62.5t-67 -26.5q-35 0 -60.5 22.5t-25.5 54.5q0 37 29 63t68 26q37 0 60.5 -22t23.5 -55zM237 653q0 -20 12.5 -33t32.5 -13q21 0 35 14.5t14 35.5t-11.5 34t-32.5 13t-35.5 -15t-14.5 -36zM96 339q0 84 -7 155l74 12l8 -8v-351q0 -97 86 -97 q60 0 127 59v387l75 10v-365q0 -76 19 -139l-64 -12q-14 29 -24 75h-2q-75 -75 -160 -75q-63 0 -97.5 35.5t-34.5 99.5v214z" />
<glyph unicode="&#x170;" horiz-adv-x="653" d="M327 863l-3 -13q-78 -59 -190 -75l-8 23q98 52 158 110zM527 863l-3 -13q-78 -59 -190 -75l-8 23q98 52 158 110zM89 531q0 83 -10 157l83 8l5 -5v-464q0 -82 45 -128t116 -46q72 0 116.5 45t44.5 129v314q0 80 -10 147l85 8v-471q0 -113 -68.5 -174t-173.5 -61 q-102 0 -167.5 61.5t-65.5 173.5v306z" />
<glyph unicode="&#x171;" horiz-adv-x="560" d="M293 748l4 -13q-56 -90 -148 -158l-25 12q73 87 112 171zM426 748l5 -13q-57 -90 -148 -158l-25 12q73 87 112 171zM96 339q0 84 -7 155l74 12l8 -8v-351q0 -97 86 -97q60 0 127 59v387l75 10v-365q0 -76 19 -139l-64 -12q-14 29 -24 75h-2q-75 -75 -160 -75 q-63 0 -97.5 35.5t-34.5 99.5v214z" />
<glyph unicode="&#x172;" horiz-adv-x="653" d="M460 25q-110 -78 -110 -146q0 -54 52 -54q24 0 56 12l13 -31q-40 -32 -92 -32q-45 0 -71 22.5t-26 63.5q0 68 81 133q-19 -3 -41 -3q-102 0 -167.5 61.5t-65.5 173.5v306q0 83 -10 157l83 8l5 -5v-464q0 -82 45 -128t116 -46q72 0 116.5 45t44.5 129v314q0 80 -10 147 l85 8v-471q0 -139 -104 -200z" />
<glyph unicode="&#x173;" horiz-adv-x="560" d="M96 339q0 84 -7 155l74 12l8 -8v-351q0 -97 86 -97q60 0 127 59v387l75 10v-365q0 -76 19 -139l-9 -1l2 -1q-112 -62 -112 -126q0 -49 53 -49q24 0 55 12l13 -31q-39 -32 -92 -32q-44 0 -70 22t-26 61q0 80 117 142q-12 31 -19 66h-2q-75 -75 -160 -75q-63 0 -97.5 35.5 t-34.5 99.5v214z" />
<glyph unicode="&#x174;" horiz-adv-x="980" d="M360 768l-21 20q66 59 115 119l62 6q52 -62 124 -125l-22 -20q-70 41 -133 87q-60 -48 -125 -87zM242 -4l-211 692l79 8l122 -408q41 -135 52 -203q12 66 59 220l115 386l74 5l122 -408q41 -130 53 -203q12 66 58 219l117 392l61 -6l6 -8l-210 -686h-70l-133 425 q-28 99 -45 168h-1q-16 -69 -46 -169l-132 -424h-70z" />
<glyph unicode="&#x175;" horiz-adv-x="759" d="M268 572l-24 19q63 84 104 156l61 6q48 -80 113 -162l-24 -19q-52 44 -120 118q-60 -70 -110 -118zM183 -4l-159 504l76 6l70 -235q33 -104 54 -197h1q16 76 53 191l70 239h75l68 -230q49 -160 55 -199h1q10 51 54 195l70 236l58 -6l6 -9l-157 -495h-73l-76 245 q-41 133 -49 184h-1q-9 -55 -48 -183l-76 -246h-72z" />
<glyph unicode="&#x176;" horiz-adv-x="560" d="M156 768l-21 20q66 59 115 119l62 6q52 -62 124 -125l-22 -20q-70 41 -133 87q-60 -48 -125 -87zM241 246l-218 443l83 7l117 -243q43 -89 62 -141h2q33 76 65 142l115 242l64 -6l6 -8l-218 -439v-243h-78v246z" />
<glyph unicode="&#x177;" horiz-adv-x="462" d="M124 572l-24 19q63 84 104 156l61 6q55 -88 113 -162l-24 -19q-55 47 -119 118q-65 -75 -111 -118zM446 491l-172 -481q-86 -248 -245 -266l-12 72q131 17 199 198h-21l-171 486l77 6l79 -240q50 -136 60 -200h1q11 54 62 200l79 240l58 -6z" />
<glyph unicode="&#x178;" horiz-adv-x="560" d="M438 844q0 -24 -14.5 -41t-39.5 -17q-21 0 -34.5 13.5t-13.5 34.5q0 22 16.5 39t39.5 17q21 0 33.5 -13t12.5 -33zM236 844q0 -24 -15 -41t-40 -17q-21 0 -34.5 13.5t-13.5 34.5q0 22 16.5 39t39.5 17q21 0 34 -13t13 -33zM241 246l-218 443l83 7l117 -243 q43 -89 62 -141h2q33 76 65 142l115 242l64 -6l6 -8l-218 -439v-243h-78v246z" />
<glyph unicode="&#x179;" horiz-adv-x="520" d="M387 862l-4 -13q-101 -58 -242 -74l-8 23q126 51 204 110zM43 0l-13 49l364 573l-352 -4l5 68h417l19 -48l-362 -574l366 5l-5 -69h-439z" />
<glyph unicode="&#x17a;" horiz-adv-x="434" d="M307 744l5 -14q-58 -88 -161 -156l-25 13q78 98 112 171zM34 432l5 64h349l8 -47l-282 -390l138 2q101 2 151 6l-5 -67h-359l-8 48l285 389z" />
<glyph unicode="&#x17b;" horiz-adv-x="520" d="M316 850q0 -24 -16 -41.5t-43 -17.5q-24 0 -38.5 14.5t-14.5 35.5q0 23 17.5 40.5t43.5 17.5q23 0 37 -13.5t14 -35.5zM43 0l-13 49l364 573l-352 -4l5 68h417l19 -48l-362 -574l366 5l-5 -69h-439z" />
<glyph unicode="&#x17c;" horiz-adv-x="434" d="M272 670q0 -26 -15.5 -44.5t-40.5 -18.5q-23 0 -36.5 15.5t-13.5 39.5q0 25 17 43.5t41 18.5q22 0 35 -15t13 -39zM34 432l5 64h349l8 -47l-282 -390l138 2q101 2 151 6l-5 -67h-359l-8 48l285 389z" />
<glyph unicode="&#x17d;" horiz-adv-x="520" d="M388 914l22 -20q-66 -59 -115 -119l-62 -6q-53 62 -124 125l21 20q69 -39 134 -87q64 50 124 87zM43 0l-13 49l364 573l-352 -4l5 68h417l19 -48l-362 -574l366 5l-5 -69h-439z" />
<glyph unicode="&#x17e;" horiz-adv-x="434" d="M335 759l24 -19q-63 -84 -104 -156l-61 -6q-48 80 -113 162l24 19q48 -41 119 -118q65 75 111 118zM34 432l5 64h349l8 -47l-282 -390l138 2q101 2 151 6l-5 -67h-359l-8 48l285 389z" />
<glyph unicode="&#x18f;" horiz-adv-x="648" d="M74 371l18 19h404q-12 123 -71 183.5t-153 60.5q-85 0 -167 -51l-4 62q27 20 77.5 35.5t110.5 15.5q135 0 213 -90t78 -261q0 -172 -76.5 -263.5t-196.5 -91.5q-106 0 -172.5 71.5t-66.5 201.5q0 44 6 108zM148 263q0 -103 45 -158t121 -55q89 0 137 74.5t48 207.5v11 l-348 -11q-3 -31 -3 -69z" />
<glyph unicode="&#x192;" horiz-adv-x="531" d="M194 297l-113 3l7 35l111 10h2l11 86q15 127 61.5 196t141.5 69q67 0 112 -28l-28 -64q-42 33 -84 33q-57 0 -85 -48.5t-43 -165.5l-10 -78h177l5 -8l-11 -40h-178l-41 -326q-4 -33 -8 -53.5t-17 -57.5t-31 -59t-51.5 -39.5t-77.5 -17.5q-54 0 -100 23l20 64 q43 -28 84 -28q23 0 40.5 9.5t28 23t18 35.5t11 40.5t6.5 43.5l43 342h-1z" />
<glyph unicode="&#x19d;" horiz-adv-x="694" d="M30 -187l-24 35q87 67 87 219v464q0 91 -8 155l81 10q37 -61 102 -167.5t80 -130.5q11 -18 40 -64.5t40 -65t31 -52t34 -60.5t28 -56h1q-6 97 -6 415q0 100 -8 171l74 10l9 -9v-687h-77q-43 69 -183 297q-128 205 -168 287h-1q6 -85 6 -237v-280q0 -100 -33 -159 t-105 -95z" />
<glyph unicode="&#x1cd;" horiz-adv-x="612" d="M435 916l21 -19q-55 -49 -115 -119l-61 -6q-55 64 -125 125l22 19q61 -34 133 -87q67 53 125 87zM98 0h-74l205 589q25 72 33 103l76 4l11 -10l239 -686h-79l-70 199h-271zM240 404l-51 -145h229l-50 145q-51 152 -63 209h-2q-12 -53 -63 -209z" />
<glyph unicode="&#x1ce;" horiz-adv-x="504" d="M355 759l24 -19q-63 -84 -104 -156l-61 -6q-48 80 -113 162l24 19q48 -41 119 -118q65 75 111 118zM405 144q0 -78 24 -144l-67 -10q-16 32 -24 70h-1q-22 -29 -63.5 -49.5t-89.5 -20.5q-60 0 -94.5 32.5t-34.5 85.5q0 80 78 122.5t198 49.5v66q0 101 -103 101 q-76 0 -152 -47l-4 64q86 42 172 42q80 0 121.5 -38.5t41.5 -106.5q0 -37 -1 -116.5t-1 -100.5zM131 119q0 -32 20.5 -54.5t58.5 -22.5q32 0 65.5 16t55.5 40v144q-87 -6 -143.5 -37.5t-56.5 -85.5z" />
<glyph unicode="&#x1cf;" horiz-adv-x="283" d="M266 916l21 -19q-55 -49 -115 -119l-61 -6q-55 64 -125 125l22 19q61 -34 133 -87q67 53 125 87zM180 0h-77v529q0 80 -8 157l77 10l8 -8v-688z" />
<glyph unicode="&#x1d0;" horiz-adv-x="269" d="M215 760l24 -13q-38 -82 -67 -160l-74 -6q-36 86 -76 166l24 13q45 -51 88 -116q42 69 81 116zM96 0v339q0 97 -9 155l76 12l8 -8v-498h-75z" />
<glyph unicode="&#x1d1;" horiz-adv-x="699" d="M484 914l22 -20q-61 -53 -116 -119l-61 -6q-53 62 -124 125l21 20q77 -45 133 -87q60 48 125 87zM632 345q0 -167 -82 -261t-206 -94q-121 0 -198.5 91.5t-77.5 251.5q0 165 82 264t207 99q123 0 199 -95t76 -256zM149 341q0 -131 53.5 -210t146.5 -79t147.5 76.5 t54.5 213.5q0 132 -51 212t-144 80q-92 0 -149.5 -78.5t-57.5 -214.5z" />
<glyph unicode="&#x1d2;" horiz-adv-x="559" d="M396 759l24 -19q-63 -84 -104 -156l-61 -6q-55 88 -113 162l24 19q48 -41 119 -118q61 72 111 118zM494 252q0 -125 -63.5 -193.5t-156.5 -68.5t-151 67.5t-58 185.5q0 124 63 193.5t157 69.5t151.5 -68.5t57.5 -185.5zM144 250q0 -95 34.5 -151.5t99.5 -56.5 q63 0 100.5 53.5t37.5 150.5q0 95 -34.5 151.5t-99.5 56.5q-63 0 -100.5 -52.5t-37.5 -151.5z" />
<glyph unicode="&#x1d3;" horiz-adv-x="653" d="M455 914l22 -20q-61 -53 -116 -119l-61 -6q-53 62 -124 125l21 20q76 -45 133 -87q60 48 125 87zM89 531q0 83 -10 157l83 8l5 -5v-464q0 -82 45 -128t116 -46q72 0 116.5 45t44.5 129v314q0 80 -10 147l85 8v-471q0 -113 -68.5 -174t-173.5 -61q-102 0 -167.5 61.5 t-65.5 173.5v306z" />
<glyph unicode="&#x1d4;" horiz-adv-x="560" d="M396 759l24 -19q-58 -76 -104 -156l-62 -6q-51 85 -112 162l24 19q52 -46 119 -118q61 72 111 118zM96 339q0 84 -7 155l74 12l8 -8v-351q0 -97 86 -97q60 0 127 59v387l75 10v-365q0 -76 19 -139l-64 -12q-14 29 -24 75h-2q-75 -75 -160 -75q-63 0 -97.5 35.5 t-34.5 99.5v214z" />
<glyph unicode="&#x1d5;" horiz-adv-x="653" d="M194 1016v54h265v-54h-265zM479 844q0 -24 -15 -41t-39 -17q-21 0 -34.5 13.5t-13.5 34.5q0 22 16 39t39 17q22 0 34.5 -13t12.5 -33zM276 844q0 -24 -14.5 -41t-39.5 -17q-21 0 -34.5 13.5t-13.5 34.5q0 22 16.5 39t39.5 17q21 0 33.5 -13t12.5 -33zM89 531 q0 83 -10 157l83 8l5 -5v-464q0 -82 45 -128t116 -46q72 0 116.5 45t44.5 129v314q0 80 -10 147l85 8v-471q0 -113 -68.5 -174t-173.5 -61q-102 0 -167.5 61.5t-65.5 173.5v306z" />
<glyph unicode="&#x1d6;" horiz-adv-x="560" d="M143 864v49h273v-49h-273zM229 669q0 -25 -14.5 -43.5t-38.5 -18.5q-21 0 -34 15t-13 37q0 25 16 43.5t38 18.5q21 0 33.5 -14.5t12.5 -37.5zM430 669q0 -25 -14.5 -43.5t-38.5 -18.5q-21 0 -34 15t-13 37q0 25 15.5 43.5t38.5 18.5q21 0 33.5 -14.5t12.5 -37.5zM96 339 q0 84 -7 155l74 12l8 -8v-351q0 -97 86 -97q60 0 127 59v387l75 10v-365q0 -76 19 -139l-64 -12q-14 29 -24 75h-2q-75 -75 -160 -75q-63 0 -97.5 35.5t-34.5 99.5v214z" />
<glyph unicode="&#x1d7;" horiz-adv-x="653" d="M453 1066l-3 -13q-103 -59 -242 -75l-8 23q128 54 204 111zM479 844q0 -24 -15 -41t-39 -17q-21 0 -34.5 13.5t-13.5 34.5q0 22 16 39t39 17q22 0 34.5 -13t12.5 -33zM276 844q0 -24 -14.5 -41t-39.5 -17q-21 0 -34.5 13.5t-13.5 34.5q0 22 16.5 39t39.5 17 q21 0 33.5 -13t12.5 -33zM89 531q0 83 -10 157l83 8l5 -5v-464q0 -82 45 -128t116 -46q72 0 116.5 45t44.5 129v314q0 80 -10 147l85 8v-471q0 -113 -68.5 -174t-173.5 -61q-102 0 -167.5 61.5t-65.5 173.5v306z" />
<glyph unicode="&#x1d8;" horiz-adv-x="560" d="M367 968l5 -13q-60 -90 -160 -156l-25 12q81 103 111 171zM229 669q0 -25 -14.5 -43.5t-38.5 -18.5q-21 0 -34 15t-13 37q0 25 16 43.5t38 18.5q21 0 33.5 -14.5t12.5 -37.5zM430 669q0 -25 -14.5 -43.5t-38.5 -18.5q-21 0 -34 15t-13 37q0 25 15.5 43.5t38.5 18.5 q21 0 33.5 -14.5t12.5 -37.5zM96 339q0 84 -7 155l74 12l8 -8v-351q0 -97 86 -97q60 0 127 59v387l75 10v-365q0 -76 19 -139l-64 -12q-14 29 -24 75h-2q-75 -75 -160 -75q-63 0 -97.5 35.5t-34.5 99.5v214z" />
<glyph unicode="&#x1d9;" horiz-adv-x="653" d="M455 1118l22 -20q-55 -48 -116 -119l-61 -6q-53 62 -124 125l21 20q70 -41 133 -88q66 52 125 88zM479 844q0 -24 -15 -41t-39 -17q-21 0 -34.5 13.5t-13.5 34.5q0 22 16 39t39 17q22 0 34.5 -13t12.5 -33zM276 844q0 -24 -14.5 -41t-39.5 -17q-21 0 -34.5 13.5 t-13.5 34.5q0 22 16.5 39t39.5 17q21 0 33.5 -13t12.5 -33zM89 531q0 83 -10 157l83 8l5 -5v-464q0 -82 45 -128t116 -46q72 0 116.5 45t44.5 129v314q0 80 -10 147l85 8v-471q0 -113 -68.5 -174t-173.5 -61q-102 0 -167.5 61.5t-65.5 173.5v306z" />
<glyph unicode="&#x1da;" horiz-adv-x="560" d="M396 983l24 -18q-59 -77 -104 -157l-62 -6q-46 78 -112 163l24 18q57 -50 119 -117q57 67 111 117zM229 669q0 -25 -14.5 -43.5t-38.5 -18.5q-21 0 -34 15t-13 37q0 25 16 43.5t38 18.5q21 0 33.5 -14.5t12.5 -37.5zM430 669q0 -25 -14.5 -43.5t-38.5 -18.5q-21 0 -34 15 t-13 37q0 25 15.5 43.5t38.5 18.5q21 0 33.5 -14.5t12.5 -37.5zM96 339q0 84 -7 155l74 12l8 -8v-351q0 -97 86 -97q60 0 127 59v387l75 10v-365q0 -76 19 -139l-64 -12q-14 29 -24 75h-2q-75 -75 -160 -75q-63 0 -97.5 35.5t-34.5 99.5v214z" />
<glyph unicode="&#x1db;" horiz-adv-x="653" d="M445 978q-137 15 -242 75l-3 13l49 46q74 -56 204 -111zM479 844q0 -24 -15 -41t-39 -17q-21 0 -34.5 13.5t-13.5 34.5q0 22 16 39t39 17q22 0 34.5 -13t12.5 -33zM276 844q0 -24 -14.5 -41t-39.5 -17q-21 0 -34.5 13.5t-13.5 34.5q0 22 16.5 39t39.5 17q21 0 33.5 -13 t12.5 -33zM89 531q0 83 -10 157l83 8l5 -5v-464q0 -82 45 -128t116 -46q72 0 116.5 45t44.5 129v314q0 80 -10 147l85 8v-471q0 -113 -68.5 -174t-173.5 -61q-102 0 -167.5 61.5t-65.5 173.5v306z" />
<glyph unicode="&#x1dc;" horiz-adv-x="560" d="M347 801q-101 67 -160 156l4 13l70 14q32 -70 111 -171zM229 669q0 -25 -14.5 -43.5t-38.5 -18.5q-21 0 -34 15t-13 37q0 25 16 43.5t38 18.5q21 0 33.5 -14.5t12.5 -37.5zM430 669q0 -25 -14.5 -43.5t-38.5 -18.5q-21 0 -34 15t-13 37q0 25 15.5 43.5t38.5 18.5 q21 0 33.5 -14.5t12.5 -37.5zM96 339q0 84 -7 155l74 12l8 -8v-351q0 -97 86 -97q60 0 127 59v387l75 10v-365q0 -76 19 -139l-64 -12q-14 29 -24 75h-2q-75 -75 -160 -75q-63 0 -97.5 35.5t-34.5 99.5v214z" />
<glyph unicode="&#x1e6;" horiz-adv-x="648" d="M476 916l21 -19q-62 -55 -115 -119l-62 -6q-52 62 -124 125l22 19q61 -34 133 -87q67 53 125 87zM563 299l8 -8l-2 -253q-40 -22 -97.5 -35t-110.5 -13q-136 0 -214.5 90t-78.5 250q0 169 85.5 267.5t230.5 98.5q97 0 167 -38l-14 -70q-63 44 -149 44q-109 0 -174 -76.5 t-65 -216.5q0 -129 57.5 -207t165.5 -78q58 0 123 19v50q0 83 -9 166z" />
<glyph unicode="&#x1e7;" horiz-adv-x="490" d="M351 759l24 -19q-59 -79 -103 -156l-62 -6q-48 80 -113 162l24 19q43 -36 120 -118q60 70 110 118zM115 76q1 46 41 81q-47 19 -74.5 61t-27.5 100q0 80 48.5 134t132.5 54q63 0 103 -31q18 19 49 30.5t62 11.5l11 -4l-2 -62h-96q48 -48 48 -124q0 -79 -48 -131.5 t-130 -52.5q-18 0 -38 3q-16 -21 -16 -47q0 -23 13.5 -34.5t44.5 -14.5l85 -6q63 -4 104 -34t41 -89q0 -74 -64 -125.5t-173 -51.5q-94 0 -150 37.5t-56 94.5q0 34 18.5 58.5t42.5 36.5l32 -15q-25 -29 -25 -60q0 -43 39 -74.5t107 -31.5q69 0 111 32t42 81q0 37 -25.5 58 t-70.5 25l-76 6q-101 9 -103 84zM336 323q0 64 -26.5 100t-76.5 36q-52 0 -78.5 -35t-26.5 -99q0 -63 27 -99t79 -36q50 0 76 34.5t26 98.5z" />
<glyph unicode="&#x1ea;" horiz-adv-x="699" d="M632 345q0 -113 -39 -193.5t-106 -121.5q-59 -46 -85 -80.5t-26 -70.5q0 -54 54 -54q24 0 55 12l13 -31q-40 -32 -94 -32q-43 0 -69 23.5t-26 65.5q0 69 84 131q-21 -4 -49 -4q-121 0 -198.5 91.5t-77.5 251.5q0 165 82 264t207 99q123 0 199 -95t76 -256zM149 341 q0 -131 53.5 -210t146.5 -79t147.5 76.5t54.5 213.5q0 132 -51 212t-144 80q-92 0 -149.5 -78.5t-57.5 -214.5z" />
<glyph unicode="&#x1eb;" horiz-adv-x="559" d="M494 252q0 -156 -99 -225q-98 -78 -98 -146q0 -54 53 -54q24 0 55 12l13 -31q-37 -32 -93 -32q-43 0 -69 22.5t-26 61.5q0 68 77 132q-22 -2 -33 -2q-93 0 -151 67.5t-58 185.5q0 124 63 193.5t157 69.5t151.5 -68.5t57.5 -185.5zM144 250q0 -95 34.5 -151.5t99.5 -56.5 q63 0 100.5 53.5t37.5 150.5q0 95 -34.5 151.5t-99.5 56.5q-63 0 -100.5 -52.5t-37.5 -151.5z" />
<glyph unicode="&#x1f4;" horiz-adv-x="648" d="M474 865l-3 -14q-102 -58 -242 -74l-9 23q127 53 205 111zM563 299l8 -8l-2 -253q-40 -22 -97.5 -35t-110.5 -13q-136 0 -214.5 90t-78.5 250q0 169 85.5 267.5t230.5 98.5q97 0 167 -38l-14 -70q-63 44 -149 44q-109 0 -174 -76.5t-65 -216.5q0 -129 57.5 -207 t165.5 -78q58 0 123 19v50q0 83 -9 166z" />
<glyph unicode="&#x1f5;" horiz-adv-x="490" d="M323 744l5 -14q-58 -88 -161 -156l-25 13q76 93 112 171zM115 76q1 46 41 81q-47 19 -74.5 61t-27.5 100q0 80 48.5 134t132.5 54q63 0 103 -31q18 19 49 30.5t62 11.5l11 -4l-2 -62h-96q48 -48 48 -124q0 -79 -48 -131.5t-130 -52.5q-18 0 -38 3q-16 -21 -16 -47 q0 -23 13.5 -34.5t44.5 -14.5l85 -6q63 -4 104 -34t41 -89q0 -74 -64 -125.5t-173 -51.5q-94 0 -150 37.5t-56 94.5q0 34 18.5 58.5t42.5 36.5l32 -15q-25 -29 -25 -60q0 -43 39 -74.5t107 -31.5q69 0 111 32t42 81q0 37 -25.5 58t-70.5 25l-76 6q-101 9 -103 84zM336 323 q0 64 -26.5 100t-76.5 36q-52 0 -78.5 -35t-26.5 -99q0 -63 27 -99t79 -36q50 0 76 34.5t26 98.5z" />
<glyph unicode="&#x1fa;" horiz-adv-x="612" d="M433 1100l-3 -14q-103 -58 -242 -74l-8 23q130 55 204 111zM397 847q0 -37 -28 -63t-67 -26q-36 0 -61 22t-25 55q0 37 28.5 63t68.5 26q37 0 60.5 -22t23.5 -55zM259 839q0 -20 13 -33.5t33 -13.5q21 0 34.5 15t13.5 36t-11.5 34t-32.5 13t-35.5 -15t-14.5 -36zM98 0 h-74l205 589q25 72 33 103l76 4l11 -10l239 -686h-79l-70 199h-271zM240 404l-51 -145h229l-50 145q-51 152 -63 209h-2q-12 -53 -63 -209z" />
<glyph unicode="&#x1fb;" horiz-adv-x="504" d="M331 985l5 -13q-58 -88 -161 -156l-25 12q76 95 112 171zM333 661q0 -36 -28 -62.5t-67 -26.5q-35 0 -60 22.5t-25 54.5q0 37 28.5 63t68.5 26q36 0 59.5 -22t23.5 -55zM196 653q0 -20 13 -33t33 -13q21 0 34.5 14.5t13.5 35.5t-11.5 34t-32.5 13t-35.5 -15t-14.5 -36z M405 144q0 -78 24 -144l-67 -10q-16 32 -24 70h-1q-22 -29 -63.5 -49.5t-89.5 -20.5q-60 0 -94.5 32.5t-34.5 85.5q0 80 78 122.5t198 49.5v66q0 101 -103 101q-76 0 -152 -47l-4 64q86 42 172 42q80 0 121.5 -38.5t41.5 -106.5q0 -37 -1 -116.5t-1 -100.5zM131 119 q0 -32 20.5 -54.5t58.5 -22.5q32 0 65.5 16t55.5 40v144q-87 -6 -143.5 -37.5t-56.5 -85.5z" />
<glyph unicode="&#x1fc;" horiz-adv-x="852" d="M587 862l-3 -13q-102 -58 -242 -74l-9 23q125 51 205 110zM98 0h-74l279 589q29 59 47 97h355l9 -8l-1 -56l-266 5l37 -258l224 2l-1 -61l-215 3l36 -254l284 5v-64h-354l-28 199h-238zM288 404l-68 -145h202l-20 145q-17 139 -20 209h-2q-12 -31 -92 -209z" />
<glyph unicode="&#x1fd;" horiz-adv-x="777" d="M479 744l5 -14q-58 -88 -161 -156l-25 13q76 93 112 171zM718 257l-15 -15h-293q3 -96 46 -145t114 -49q66 0 131 43l6 -55q-64 -46 -154 -46q-130 0 -188 103q-28 -42 -78 -72.5t-106 -30.5q-58 0 -92 33t-34 86q0 79 78 121.5t198 49.5v66q0 101 -104 101 q-77 0 -151 -47l-4 64q86 42 173 42q110 0 146 -73q61 73 156 73q79 0 125.5 -52t46.5 -138q0 -40 -1 -59zM543 454q-53 0 -90.5 -45.5t-42.5 -129.5l233 7q0 5 0.5 17t0.5 18q0 61 -26.5 97t-74.5 36zM131 119q0 -32 20.5 -54.5t58.5 -22.5q41 0 80 23.5t61 58.5 q-20 51 -20 118q-87 -6 -143.5 -37.5t-56.5 -85.5z" />
<glyph unicode="&#x1fe;" horiz-adv-x="699" d="M482 862l-3 -13q-101 -58 -242 -74l-8 23q126 51 204 110zM632 345q0 -167 -82 -261t-206 -94q-122 0 -197 89l-71 -83l-35 31l78 91q-51 88 -51 215q0 165 82 264t207 99q117 0 191 -85l70 80l36 -30l-78 -89q56 -93 56 -227zM149 341q0 -93 27 -159l323 372 q-52 80 -143 80q-92 0 -149.5 -78.5t-57.5 -214.5zM551 342q0 98 -29 168l-324 -373q55 -85 151 -85q93 0 147.5 76.5t54.5 213.5z" />
<glyph unicode="&#x1ff;" horiz-adv-x="559" d="M368 744l4 -14q-59 -89 -160 -156l-25 13q79 99 111 171zM494 252q0 -125 -63.5 -193.5t-156.5 -68.5q-90 0 -147 63l-55 -59l-32 31l61 65q-36 63 -36 153q0 124 63 193.5t157 69.5q89 0 146 -62l55 59l33 -30l-62 -66q37 -63 37 -155zM144 250q-1 -52 12 -100l228 243 q-36 61 -102 61q-63 0 -100.5 -52.5t-37.5 -151.5zM416 246q0 55 -13 102l-228 -243q35 -63 103 -63q63 0 100.5 53.5t37.5 150.5z" />
<glyph unicode="&#x218;" horiz-adv-x="513" d="M455 171q0 -84 -61 -132.5t-162 -48.5t-173 36l8 70q73 -42 168 -42q66 0 103 30.5t37 80.5q0 24 -10 45.5t-20.5 35t-36.5 30.5t-38.5 24t-46.5 24q-38 20 -59 33.5t-48 36.5t-39.5 53t-12.5 67q0 84 62 133t162 49q92 0 154 -31l-11 -71q-65 39 -145 39 q-67 0 -104.5 -30t-37.5 -80q0 -12 3 -23.5t6 -20.5t11 -19t12.5 -16t17.5 -15.5t18 -13.5t21.5 -13t21 -11.5t23.5 -12t22 -11.5q34 -17 56.5 -32t47.5 -39t38 -55.5t13 -69.5zM216 -311q32 58 41 94q-19 1 -32 16t-13 36q0 22 15 39.5t39 17.5q22 0 36 -16t14 -44 q0 -70 -73 -162z" />
<glyph unicode="&#x219;" horiz-adv-x="439" d="M370 476l-9 -64q-63 39 -123 39q-47 0 -74.5 -21t-27.5 -55q0 -31 25.5 -54t62 -39t73 -34t62 -48.5t25.5 -72.5q0 -61 -49.5 -99t-130.5 -38q-84 0 -149 34l9 63q67 -41 144 -41q48 0 75 20.5t27 53.5q0 30 -25.5 52.5t-62 38t-73.5 33.5t-62.5 48.5t-25.5 73.5 q0 63 49 101.5t130 38.5q67 0 130 -30zM176 -311q30 52 41 94q-19 2 -31.5 16.5t-12.5 35.5q0 23 14.5 40t38.5 17q23 0 37 -16t14 -44q0 -70 -73 -162z" />
<glyph unicode="&#x21a;" horiz-adv-x="537" d="M308 0h-78v626q-104 -2 -209 -6l5 66h485l5 -66q-105 5 -208 6v-626zM218 -311q30 52 41 94q-19 2 -31.5 16.5t-12.5 35.5q0 23 14.5 40t38.5 17q23 0 37 -16t14 -44q0 -70 -73 -162z" />
<glyph unicode="&#x21b;" horiz-adv-x="361" d="M314 449l-139 1v-289q0 -60 19 -86.5t57 -26.5q42 0 80 25l10 -52q-49 -31 -111 -31q-130 0 -130 163v298l-73 1v34l74 10l18 117l50 5l9 -9l-3 -113h136l6 -8zM160 -311q30 52 41 94q-19 1 -31.5 16t-12.5 36q0 23 14.5 40t38.5 17q23 0 36.5 -16t13.5 -44 q0 -68 -72 -162z" />
<glyph unicode="&#x232;" horiz-adv-x="560" d="M153 813v53h265v-53h-265zM241 246l-218 443l83 7l117 -243q43 -89 62 -141h2q33 76 65 142l115 242l64 -6l6 -8l-218 -439v-243h-78v246z" />
<glyph unicode="&#x233;" horiz-adv-x="462" d="M102 639v50h272v-50h-272zM446 491l-172 -481q-86 -248 -245 -266l-12 72q131 17 199 198h-21l-171 486l77 6l79 -240q50 -136 60 -200h1q11 54 62 200l79 240l58 -6z" />
<glyph unicode="&#x237;" horiz-adv-x="270" d="M42 -256l-26 33q81 67 81 189v373q0 77 -9 155l75 12l9 -8v-524q0 -87 -32 -141.5t-98 -88.5z" />
<glyph unicode="&#x259;" horiz-adv-x="511" d="M59 239l15 15h293v1q0 95 -32.5 143.5t-105.5 48.5q-76 0 -153 -45l-6 58q25 17 74 31.5t100 14.5q102 0 152 -62.5t50 -176.5q0 -135 -61.5 -206t-154.5 -71q-78 0 -125 52t-47 139q0 39 1 58zM133 176q0 -62 27 -98t75 -36q52 0 88 43.5t43 132.5l-232 -7 q-1 -11 -1 -35z" />
<glyph unicode="&#x272;" horiz-adv-x="567" d="M42 -256l-26 33q81 67 81 189v375q0 79 -20 148l69 17q14 -31 23 -74q77 74 167 74q64 0 99 -37.5t35 -108.5v-360h-75v344q0 105 -90 105q-65 0 -133 -59v-416q0 -87 -32 -141.5t-98 -88.5z" />
<glyph unicode="&#x2c6;" horiz-adv-x="376" d="M73 573l-24 18q63 84 104 156l61 7q47 -80 113 -163l-24 -18q-42 35 -120 117q-61 -72 -110 -117z" />
<glyph unicode="&#x2c7;" horiz-adv-x="376" d="M303 766l24 -18q-63 -84 -104 -156l-61 -7q-53 87 -113 163l24 18q47 -39 119 -117q57 67 111 117z" />
<glyph unicode="&#x2d8;" horiz-adv-x="355" d="M272 739h34q-9 -65 -44.5 -103t-87.5 -38q-50 0 -84 36.5t-41 99.5l34 5q10 -38 35.5 -59.5t60.5 -21.5q33 0 57.5 22t35.5 59z" />
<glyph unicode="&#x2d9;" horiz-adv-x="204" d="M155 668q0 -25 -15.5 -44t-40.5 -19q-23 0 -36.5 16t-13.5 39q0 25 17 44t41 19q22 0 35 -15.5t13 -39.5z" />
<glyph unicode="&#x2da;" horiz-adv-x="278" d="M229 670q0 -37 -27.5 -63t-67.5 -26q-35 0 -60 22t-25 55q0 37 28.5 63t68.5 26q36 0 59.5 -22t23.5 -55zM92 662q0 -20 13 -33.5t33 -13.5q21 0 34.5 15t13.5 36t-11.5 34t-32.5 13t-35.5 -15t-14.5 -36z" />
<glyph unicode="&#x2db;" horiz-adv-x="365" d="M278 0q-112 -62 -112 -126q0 -49 53 -49q24 0 55 12l13 -31q-39 -32 -91 -32q-45 0 -71 22t-26 61q0 90 144 155z" />
<glyph unicode="&#x2dc;" horiz-adv-x="408" d="M139 723q28 0 72 -28t64 -28q34 0 61 53l24 -4q-5 -44 -28.5 -77.5t-61.5 -33.5q-28 0 -73 28t-65 28q-32 0 -60 -54l-24 4q6 44 29 78t62 34z" />
<glyph unicode="&#x2dd;" horiz-adv-x="384" d="M217 748l5 -13q-57 -90 -148 -158l-25 12q74 88 111 171zM351 748l4 -13q-56 -90 -148 -158l-25 12q73 87 112 171z" />
<glyph unicode="&#x394;" horiz-adv-x="598" d="M260 690h78l236 -670l-2 -20h-546l-2 20zM107 58h371l-185 530z" />
<glyph unicode="&#x3a9;" horiz-adv-x="740" d="M305 0h-255l-10 58l9 9l208 -27q-73 48 -120 141t-47 196q0 135 81 227t201 92q121 0 199.5 -91.5t78.5 -226.5q0 -104 -47.5 -197t-120.5 -141l209 27l9 -9l-10 -58h-255l-7 37q64 56 102.5 144t38.5 185q0 113 -55.5 190.5t-142.5 77.5t-143.5 -76.5t-56.5 -192.5 q0 -95 39 -183t102 -145z" />
<glyph unicode="&#x3bc;" horiz-adv-x="560" d="M96 341q0 82 -7 153l74 12l8 -8v-351q0 -97 83 -97q63 0 130 59v387l75 10v-365q0 -76 19 -139l-64 -12q-14 29 -24 75h-2q-73 -73 -157 -75q-48 0 -77 25q9 -45 16 -140.5t10 -116.5l-75 -12l-9 9v586z" />
<glyph unicode="&#x3c0;" horiz-adv-x="616" d="M122 0v447l-111 -1l13 55l566 5l6 -8l-13 -47l-91 -1v-347q0 -48 34 -48q16 0 41 7l-3 -62q-33 -10 -62 -10q-39 0 -62 23.5t-23 70.5v366l-220 -2v-448h-75z" />
<glyph unicode="&#x1e0c;" horiz-adv-x="681" d="M613 346q0 -162 -94.5 -254t-248.5 -92h-167v531q0 87 -8 155h188q144 0 237 -92t93 -248zM276 627h-96v-567h93q127 0 193 74t66 208q0 131 -69 208t-187 77zM396 -158q0 -26 -15.5 -44.5t-41.5 -18.5q-23 0 -36.5 15.5t-13.5 39.5q0 25 17 43.5t41 18.5q22 0 35.5 -15 t13.5 -39z" />
<glyph unicode="&#x1e0d;" horiz-adv-x="565" d="M384 744l75 12l9 -8v-609q0 -76 24 -139l-68 -10q-12 24 -24 69h-1q-48 -69 -138 -69q-87 0 -141.5 67t-54.5 181q0 127 67 197.5t171 70.5q47 0 90 -16v99q0 89 -9 155zM144 246q0 -95 38 -149.5t103 -54.5q64 0 108 54v345q-45 16 -87 16q-72 0 -117 -53.5t-45 -157.5z M335 -158q0 -26 -15.5 -44.5t-41.5 -18.5q-23 0 -36.5 15.5t-13.5 39.5q0 25 17 43.5t41 18.5q22 0 35.5 -15t13.5 -39z" />
<glyph unicode="&#x1e24;" horiz-adv-x="705" d="M180 0h-77v529q0 80 -8 157l77 10l8 -8v-317h344v158q0 90 -7 157l76 10l9 -8v-688h-78v312h-344v-312zM406 -158q0 -26 -15.5 -44.5t-40.5 -18.5q-23 0 -36.5 15.5t-13.5 39.5q0 25 17 43.5t41 18.5q22 0 35 -15t13 -39z" />
<glyph unicode="&#x1e25;" horiz-adv-x="565" d="M170 0h-75v589q0 88 -9 155l75 12l9 -8v-313q77 71 164 71q64 0 99 -37.5t35 -108.5v-360h-75v344q0 105 -90 105q-64 0 -133 -58v-391zM341 -158q0 -26 -15.5 -44.5t-40.5 -18.5q-23 0 -36.5 15.5t-13.5 39.5q0 25 17 43.5t41 18.5q22 0 35 -15t13 -39z" />
<glyph unicode="&#x1e44;" horiz-adv-x="703" d="M401 852q0 -24 -16 -41t-43 -17q-24 0 -38 14t-14 36q0 23 17.5 40t42.5 17q23 0 37 -13.5t14 -35.5zM358 398q10 -15 40 -64t40.5 -66t30.5 -51.5t34 -61t27 -55.5h2q-6 97 -6 415q0 86 -8 171l74 10l9 -9v-687h-78q-111 181 -182 297q-128 205 -168 287h-1 q6 -85 6 -237v-347h-75v531q0 78 -8 155l81 10q37 -61 102 -167.5t80 -130.5z" />
<glyph unicode="&#x1e45;" horiz-adv-x="570" d="M331 670q0 -26 -15.5 -44.5t-40.5 -18.5q-23 0 -36.5 15.5t-13.5 39.5q0 25 17 43.5t41 18.5q22 0 35 -15t13 -39zM175 0h-75v341q0 79 -20 148l69 17q14 -31 23 -74q77 74 167 74q64 0 99 -37.5t35 -108.5v-360h-75v344q0 105 -90 105q-65 0 -133 -59v-390z" />
<glyph unicode="&#x1e5a;" horiz-adv-x="587" d="M180 0h-77v531q0 87 -8 155h178q113 0 179.5 -56.5t66.5 -151.5q0 -70 -36.5 -117t-99.5 -68l167 -293l-83 -9q-76 137 -151 281h-136v-272zM268 628h-88v-298h85q84 0 128.5 37.5t44.5 108.5q0 69 -42 110.5t-128 41.5zM358 -158q0 -26 -15.5 -44.5t-41.5 -18.5 q-23 0 -36.5 15.5t-13.5 39.5q0 25 17 43.5t41 18.5q22 0 35.5 -15t13.5 -39z" />
<glyph unicode="&#x1e5b;" horiz-adv-x="384" d="M175 0h-75v341q0 79 -20 148l70 17q17 -40 24 -88q73 88 145 88q30 0 47 -13l-14 -69q-24 8 -45 8q-66 0 -132 -60v-372zM192 -158q0 -26 -15.5 -44.5t-40.5 -18.5q-23 0 -36.5 15.5t-13.5 39.5q0 25 17 43.5t41 18.5q22 0 35 -15t13 -39z" />
<glyph unicode="&#x1e62;" horiz-adv-x="513" d="M455 171q0 -84 -61 -132.5t-162 -48.5t-173 36l8 70q73 -42 168 -42q66 0 103 30.5t37 80.5q0 24 -10 45.5t-20.5 35t-36.5 30.5t-38.5 24t-46.5 24q-38 20 -59 33.5t-48 36.5t-39.5 53t-12.5 67q0 84 62 133t162 49q92 0 154 -31l-11 -71q-65 39 -145 39 q-67 0 -104.5 -30t-37.5 -80q0 -12 3 -23.5t6 -20.5t11 -19t12.5 -16t17.5 -15.5t18 -13.5t21.5 -13t21 -11.5t23.5 -12t22 -11.5q34 -17 56.5 -32t47.5 -39t38 -55.5t13 -69.5zM321 -158q0 -26 -15.5 -44.5t-40.5 -18.5q-23 0 -36.5 15.5t-13.5 39.5q0 25 17 43.5t41 18.5 q22 0 35 -15t13 -39z" />
<glyph unicode="&#x1e63;" horiz-adv-x="439" d="M370 476l-9 -64q-63 39 -123 39q-47 0 -74.5 -21t-27.5 -55q0 -31 25.5 -54t62 -39t73 -34t62 -48.5t25.5 -72.5q0 -61 -49.5 -99t-130.5 -38q-84 0 -149 34l9 63q67 -41 144 -41q48 0 75 20.5t27 53.5q0 30 -25.5 52.5t-62 38t-73.5 33.5t-62.5 48.5t-25.5 73.5 q0 63 49 101.5t130 38.5q67 0 130 -30zM282 -158q0 -26 -15.5 -44.5t-40.5 -18.5q-23 0 -37 15.5t-14 39.5q0 25 17 43.5t41 18.5q22 0 35.5 -15t13.5 -39z" />
<glyph unicode="&#x1e6c;" horiz-adv-x="537" d="M308 0h-78v626q-104 -2 -209 -6l5 66h485l5 -66q-105 5 -208 6v-626zM324 -158q0 -26 -15.5 -44.5t-40.5 -18.5q-23 0 -37 15.5t-14 39.5q0 25 17 43.5t41 18.5q22 0 35.5 -15t13.5 -39z" />
<glyph unicode="&#x1e6d;" horiz-adv-x="361" d="M314 449l-139 1v-289q0 -60 19 -86.5t57 -26.5q42 0 80 25l10 -52q-49 -31 -111 -31q-130 0 -130 163v298l-73 1v34l74 10l18 117l50 5l9 -9l-3 -113h136l6 -8zM266 -158q0 -26 -15.5 -44.5t-41.5 -18.5q-23 0 -36.5 15.5t-13.5 39.5q0 25 17 43.5t41 18.5q22 0 35.5 -15 t13.5 -39z" />
<glyph unicode="&#x1e80;" horiz-adv-x="980" d="M608 775q-140 16 -242 74l-3 13l49 46q80 -59 205 -110zM242 -4l-211 692l79 8l122 -408q41 -135 52 -203q12 66 59 220l115 386l74 5l122 -408q41 -130 53 -203q12 66 58 219l117 392l61 -6l6 -8l-210 -686h-70l-133 425q-28 99 -45 168h-1q-16 -69 -46 -169l-132 -424 h-70z" />
<glyph unicode="&#x1e81;" horiz-adv-x="759" d="M449 577q-101 67 -160 155l5 14l69 14q32 -72 111 -171zM183 -4l-159 504l76 6l70 -235q33 -104 54 -197h1q16 76 53 191l70 239h75l68 -230q49 -160 55 -199h1q10 51 54 195l70 236l58 -6l6 -9l-157 -495h-73l-76 245q-41 133 -49 184h-1q-9 -55 -48 -183l-76 -246h-72z " />
<glyph unicode="&#x1e82;" horiz-adv-x="980" d="M617 862l-4 -13q-101 -58 -242 -74l-8 23q126 51 204 110zM242 -4l-211 692l79 8l122 -408q41 -135 52 -203q12 66 59 220l115 386l74 5l122 -408q41 -130 53 -203q12 66 58 219l117 392l61 -6l6 -8l-210 -686h-70l-133 425q-28 99 -45 168h-1q-16 -69 -46 -169 l-132 -424h-70z" />
<glyph unicode="&#x1e83;" horiz-adv-x="759" d="M470 744l4 -14q-59 -89 -160 -156l-25 13q79 99 111 171zM183 -4l-159 504l76 6l70 -235q33 -104 54 -197h1q16 76 53 191l70 239h75l68 -230q49 -160 55 -199h1q10 51 54 195l70 236l58 -6l6 -9l-157 -495h-73l-76 245q-41 133 -49 184h-1q-9 -55 -48 -183l-76 -246h-72 z" />
<glyph unicode="&#x1e84;" horiz-adv-x="980" d="M642 844q0 -24 -14.5 -41t-39.5 -17q-21 0 -34.5 13.5t-13.5 34.5q0 22 16.5 39t39.5 17q21 0 33.5 -13t12.5 -33zM440 844q0 -24 -15 -41t-40 -17q-21 0 -34.5 13.5t-13.5 34.5q0 22 16.5 39t39.5 17q21 0 34 -13t13 -33zM242 -4l-211 692l79 8l122 -408 q41 -135 52 -203q12 66 59 220l115 386l74 5l122 -408q41 -130 53 -203q12 66 58 219l117 392l61 -6l6 -8l-210 -686h-70l-133 425q-28 99 -45 168h-1q-16 -69 -46 -169l-132 -424h-70z" />
<glyph unicode="&#x1e85;" horiz-adv-x="759" d="M331 669q0 -25 -14.5 -43.5t-38.5 -18.5q-21 0 -34 15t-13 37q0 25 16 43.5t39 18.5q20 0 32.5 -14.5t12.5 -37.5zM532 669q0 -25 -14.5 -43.5t-38.5 -18.5q-21 0 -34 15t-13 37q0 25 16 43.5t38 18.5q21 0 33.5 -14.5t12.5 -37.5zM183 -4l-159 504l76 6l70 -235 q33 -104 54 -197h1q16 76 53 191l70 239h75l68 -230q49 -160 55 -199h1q10 51 54 195l70 236l58 -6l6 -9l-157 -495h-73l-76 245q-41 133 -49 184h-1q-9 -55 -48 -183l-76 -246h-72z" />
<glyph unicode="&#x1e92;" horiz-adv-x="520" d="M43 0l-13 49l364 573l-352 -4l5 68h417l19 -48l-362 -574l366 5l-5 -69h-439zM322 -158q0 -26 -15.5 -44.5t-40.5 -18.5q-23 0 -36.5 15.5t-13.5 39.5q0 25 17 43.5t41 18.5q22 0 35 -15t13 -39z" />
<glyph unicode="&#x1e93;" horiz-adv-x="434" d="M34 432l5 64h349l8 -47l-282 -390l138 2q101 2 151 6l-5 -67h-359l-8 48l285 389zM271 -158q0 -26 -15.5 -44.5t-41.5 -18.5q-23 0 -36.5 15.5t-13.5 39.5q0 25 17 43.5t41 18.5q22 0 35.5 -15t13.5 -39z" />
<glyph unicode="&#x1e9e;" horiz-adv-x="630" d="M93 105v356q0 113 65.5 174t170.5 61q70 0 124 -29t79 -84l-167 -196q46 -18 79.5 -37t64 -45t46.5 -60.5t16 -76.5q0 -81 -54 -129.5t-140 -48.5q-69 0 -124 26v70q54 -32 117 -32q57 0 89 30.5t32 82.5q0 63 -49.5 103.5t-156.5 80.5v27l159 197q-37 58 -112 58 q-74 0 -117.5 -47t-43.5 -126v-372q0 -64 -20 -98l-72 10q14 44 14 105z" />
<glyph unicode="&#x1ea0;" horiz-adv-x="612" d="M98 0h-74l205 589q25 72 33 103l76 4l11 -10l239 -686h-79l-70 199h-271zM240 404l-51 -145h229l-50 145q-51 152 -63 209h-2q-12 -53 -63 -209zM360 -158q0 -26 -15.5 -44.5t-41.5 -18.5q-23 0 -36.5 15.5t-13.5 39.5q0 25 17 43.5t41 18.5q22 0 35.5 -15t13.5 -39z" />
<glyph unicode="&#x1ea1;" horiz-adv-x="504" d="M405 144q0 -78 24 -144l-67 -10q-16 32 -24 70h-1q-22 -29 -63.5 -49.5t-89.5 -20.5q-60 0 -94.5 32.5t-34.5 85.5q0 80 78 122.5t198 49.5v66q0 101 -103 101q-76 0 -152 -47l-4 64q86 42 172 42q80 0 121.5 -38.5t41.5 -106.5q0 -37 -1 -116.5t-1 -100.5zM131 119 q0 -32 20.5 -54.5t58.5 -22.5q32 0 65.5 16t55.5 40v144q-87 -6 -143.5 -37.5t-56.5 -85.5zM303 -158q0 -26 -15.5 -44.5t-41.5 -18.5q-23 0 -36.5 15.5t-13.5 39.5q0 25 17 43.5t41 18.5q22 0 35.5 -15t13.5 -39z" />
<glyph unicode="&#x1eb8;" horiz-adv-x="521" d="M481 64v-64h-378v531q0 87 -8 155h369l8 -8l-1 -56l-291 6v-260l247 3l-1 -61l-246 3v-254zM359 -158q0 -26 -15.5 -44.5t-40.5 -18.5q-23 0 -36.5 15.5t-13.5 39.5q0 25 17 43.5t41 18.5q22 0 35 -15t13 -39z" />
<glyph unicode="&#x1eb9;" horiz-adv-x="511" d="M452 257l-15 -15h-293q3 -96 46 -145t114 -49q66 0 131 43l6 -55q-64 -46 -154 -46q-101 0 -161.5 66.5t-60.5 185.5q0 123 62.5 193.5t153.5 70.5q79 0 125.5 -52t46.5 -138q0 -40 -1 -59zM277 454q-53 0 -90.5 -45.5t-42.5 -129.5l233 7q0 5 0.5 17t0.5 19q0 60 -27 96 t-74 36zM332 -158q0 -26 -15.5 -44.5t-40.5 -18.5q-23 0 -36.5 15.5t-13.5 39.5q0 25 17 43.5t41 18.5q22 0 35 -15t13 -39z" />
<glyph unicode="&#x1ebc;" horiz-adv-x="521" d="M217 903q31 0 76.5 -28t68.5 -28q39 0 66 54l23 -4q-4 -44 -28.5 -75.5t-65.5 -31.5q-30 0 -77.5 28t-69.5 28q-38 0 -66 -53l-23 4q4 41 28.5 73.5t67.5 32.5zM481 64v-64h-378v531q0 87 -8 155h369l8 -8l-1 -56l-291 6v-260l247 3l-1 -61l-246 3v-254z" />
<glyph unicode="&#x1ebd;" horiz-adv-x="511" d="M200 723q29 0 73 -28t64 -28q33 0 60 53l25 -4q-5 -44 -28.5 -77.5t-61.5 -33.5q-28 0 -73.5 28t-64.5 28q-34 0 -60 -54l-24 4q6 44 29 78t61 34zM452 257l-15 -15h-293q3 -96 46 -145t114 -49q66 0 131 43l6 -55q-64 -46 -154 -46q-101 0 -161.5 66.5t-60.5 185.5 q0 123 62.5 193.5t153.5 70.5q79 0 125.5 -52t46.5 -138q0 -40 -1 -59zM277 454q-53 0 -90.5 -45.5t-42.5 -129.5l233 7q0 5 0.5 17t0.5 19q0 60 -27 96t-74 36z" />
<glyph unicode="&#x1eca;" horiz-adv-x="283" d="M180 0h-77v529q0 80 -8 157l77 10l8 -8v-688zM195 -158q0 -26 -15.5 -44.5t-40.5 -18.5q-23 0 -36.5 15.5t-13.5 39.5q0 25 17 43.5t41 18.5q22 0 35 -15t13 -39z" />
<glyph unicode="&#x1ecb;" horiz-adv-x="269" d="M184 670q0 -26 -15.5 -44.5t-40.5 -18.5q-23 0 -36.5 15.5t-13.5 39.5q0 25 17 43.5t41 18.5q22 0 35 -15t13 -39zM96 0v339q0 97 -9 155l76 12l8 -8v-498h-75zM190 -158q0 -26 -15.5 -44.5t-41.5 -18.5q-23 0 -36.5 15.5t-13.5 39.5q0 25 17 43.5t41 18.5q22 0 35.5 -15 t13.5 -39z" />
<glyph unicode="&#x1ecc;" horiz-adv-x="699" d="M632 345q0 -167 -82 -261t-206 -94q-121 0 -198.5 91.5t-77.5 251.5q0 165 82 264t207 99q123 0 199 -95t76 -256zM149 341q0 -131 53.5 -210t146.5 -79t147.5 76.5t54.5 213.5q0 132 -51 212t-144 80q-92 0 -149.5 -78.5t-57.5 -214.5zM411 -158q0 -26 -15.5 -44.5 t-40.5 -18.5q-23 0 -37 15.5t-14 39.5q0 25 17 43.5t41 18.5q22 0 35.5 -15t13.5 -39z" />
<glyph unicode="&#x1ecd;" horiz-adv-x="559" d="M494 252q0 -125 -63.5 -193.5t-156.5 -68.5t-151 67.5t-58 185.5q0 124 63 193.5t157 69.5t151.5 -68.5t57.5 -185.5zM144 250q0 -95 34.5 -151.5t99.5 -56.5q63 0 100.5 53.5t37.5 150.5q0 95 -34.5 151.5t-99.5 56.5q-63 0 -100.5 -52.5t-37.5 -151.5zM333 -158 q0 -26 -15.5 -44.5t-40.5 -18.5q-23 0 -37 15.5t-14 39.5q0 25 17 43.5t41 18.5q22 0 35.5 -15t13.5 -39z" />
<glyph unicode="&#x1ee4;" horiz-adv-x="653" d="M89 531q0 83 -10 157l83 8l5 -5v-464q0 -82 45 -128t116 -46q72 0 116.5 45t44.5 129v314q0 80 -10 147l85 8v-471q0 -113 -68.5 -174t-173.5 -61q-102 0 -167.5 61.5t-65.5 173.5v306zM380 -158q0 -26 -15.5 -44.5t-40.5 -18.5q-23 0 -37 15.5t-14 39.5q0 25 17 43.5 t41 18.5q22 0 35.5 -15t13.5 -39z" />
<glyph unicode="&#x1ee5;" horiz-adv-x="560" d="M96 339q0 84 -7 155l74 12l8 -8v-351q0 -97 86 -97q60 0 127 59v387l75 10v-365q0 -76 19 -139l-64 -12q-14 29 -24 75h-2q-75 -75 -160 -75q-63 0 -97.5 35.5t-34.5 99.5v214zM333 -158q0 -26 -15.5 -44.5t-41.5 -18.5q-23 0 -36.5 15.5t-13.5 39.5q0 25 17 43.5 t41 18.5q22 0 35.5 -15t13.5 -39z" />
<glyph unicode="&#x1ef2;" horiz-adv-x="560" d="M404 775q-140 16 -242 74l-3 13l49 46q80 -59 205 -110zM241 246l-218 443l83 7l117 -243q43 -89 62 -141h2q33 76 65 142l115 242l64 -6l6 -8l-218 -439v-243h-78v246z" />
<glyph unicode="&#x1ef3;" horiz-adv-x="462" d="M306 577q-102 66 -161 155l5 14l69 14q36 -78 112 -171zM446 491l-172 -481q-86 -248 -245 -266l-12 72q131 17 199 198h-21l-171 486l77 6l79 -240q50 -136 60 -200h1q11 54 62 200l79 240l58 -6z" />
<glyph unicode="&#x1ef8;" horiz-adv-x="560" d="M216 901q31 0 76.5 -28t68.5 -28q38 0 67 53l23 -4q-4 -43 -29 -75t-66 -32q-30 0 -77 28.5t-69 28.5q-39 0 -66 -54l-23 4q4 42 28.5 74.5t66.5 32.5zM241 246l-218 443l83 7l117 -243q43 -89 62 -141h2q33 76 65 142l115 242l64 -6l6 -8l-218 -439v-243h-78v246z" />
<glyph unicode="&#x1ef9;" horiz-adv-x="462" d="M169 723q29 0 73 -28t64 -28q33 0 60 53l25 -4q-5 -44 -28.5 -77.5t-61.5 -33.5q-28 0 -73.5 28t-64.5 28q-34 0 -60 -54l-24 4q6 44 29 78t61 34zM446 491l-172 -481q-86 -248 -245 -266l-12 72q131 17 199 198h-21l-171 486l77 6l79 -240q50 -136 60 -200h1 q11 54 62 200l79 240l58 -6z" />
<glyph unicode="&#x2007;" />
<glyph unicode="&#x2013;" horiz-adv-x="516" d="M30 272v39h456v-39h-456z" />
<glyph unicode="&#x2014;" horiz-adv-x="797" d="M30 272v39h737v-39h-737z" />
<glyph unicode="&#x2018;" horiz-adv-x="231" d="M184 741q-46 -88 -58 -160q21 -2 34.5 -17.5t13.5 -37.5q0 -26 -17.5 -44.5t-42.5 -18.5t-40 17.5t-15 48.5q0 49 31 116t68 115z" />
<glyph unicode="&#x2019;" horiz-adv-x="231" d="M46 480q48 92 58 160q-21 1 -34.5 16.5t-13.5 38.5q0 26 18 44.5t43 18.5t39.5 -17t14.5 -49q0 -49 -31 -116t-67 -115z" />
<glyph unicode="&#x201a;" horiz-adv-x="231" d="M46 -170q48 92 58 160q-21 2 -34.5 17.5t-13.5 37.5q0 26 18 44.5t43 18.5t39.5 -17t14.5 -49q0 -49 -31 -116t-67 -115z" />
<glyph unicode="&#x201c;" horiz-adv-x="416" d="M184 741q-46 -88 -58 -160q21 -2 34.5 -17.5t13.5 -37.5q0 -26 -17.5 -44.5t-42.5 -18.5t-40 17.5t-15 48.5q0 49 31 116t68 115zM369 741q-46 -88 -58 -160q21 -2 35 -17.5t14 -37.5q0 -26 -18 -44.5t-43 -18.5t-39.5 17t-14.5 49q0 49 31 116t67 115z" />
<glyph unicode="&#x201d;" horiz-adv-x="416" d="M232 481q46 88 58 160q-21 1 -34.5 16.5t-13.5 37.5q0 26 17.5 45t42.5 19t40 -17.5t15 -49.5q0 -48 -31 -115t-68 -116zM46 481q48 92 58 160q-21 1 -34.5 16.5t-13.5 37.5q0 26 18 45t43 19t39.5 -17.5t14.5 -49.5q0 -48 -30.5 -115t-67.5 -116z" />
<glyph unicode="&#x201e;" horiz-adv-x="414" d="M46 -170q48 92 58 160q-21 2 -34.5 17.5t-13.5 37.5q0 26 18 44.5t43 18.5t39.5 -17t14.5 -49q0 -49 -31 -116t-67 -115zM230 -170q48 92 58 160q-21 2 -34.5 17.5t-13.5 37.5q0 26 17.5 44.5t43.5 18.5q25 0 39.5 -17t14.5 -49q0 -49 -31 -116.5t-68 -114.5z" />
<glyph unicode="&#x2020;" horiz-adv-x="505" d="M272 0l-37 -2l-7 9l-17 159l20 297l-166 -9l-3 3q-4 28 -4 50l9 7l163 -9l-15 184l3 3q27 4 64 4l7 -7l-16 -184l166 9l4 -3q4 -28 4 -50l-9 -7l-165 9l20 -297l-17 -160z" />
<glyph unicode="&#x2021;" horiz-adv-x="505" d="M219 -5l-7 8l19 187l-164 -15l-9 7q0 30 4 58l3 3l166 -16q-12 98 -12 123q0 12 13 116l-167 -15l-3 3q-4 28 -4 58l9 7l165 -16l-20 186l3 3q31 4 70 4l7 -7l-20 -187l167 17l4 -3q4 -28 4 -58l-9 -7l-165 15q12 -96 12 -116q0 -25 -12 -123l165 16l9 -7q0 -30 -4 -58 l-4 -3l-167 15l20 -187l-3 -4q-19 -2 -70 -4z" />
<glyph unicode="&#x2022;" horiz-adv-x="427" d="M210 142q-48 0 -78.5 31.5t-31.5 77.5q-1 52 34.5 91t88.5 39q46 0 74.5 -30.5t29.5 -78.5q1 -52 -31 -91t-86 -39z" />
<glyph unicode="&#x2026;" horiz-adv-x="628" d="M175 51q0 -26 -17.5 -43.5t-41.5 -17.5t-40 16t-16 41t17.5 43t42.5 18q24 0 39.5 -16t15.5 -41zM371 51q0 -26 -17 -43.5t-41 -17.5t-40.5 16.5t-16.5 40.5q0 25 18 43t43 18q23 0 38.5 -16t15.5 -41zM568 51q0 -26 -17.5 -43.5t-41.5 -17.5q-23 0 -39.5 16t-16.5 41 t18 43t43 18q23 0 38.5 -16t15.5 -41z" />
<glyph unicode="&#x2030;" horiz-adv-x="1435" d="M418 498q0 -97 -52.5 -150.5t-128.5 -53.5t-124 53t-48 144q0 97 52 151.5t129 54.5t124.5 -53.5t47.5 -145.5zM737 696l-423 -706h-46l421 706h48zM131 497q0 -73 28.5 -116.5t81.5 -43.5q51 0 81.5 41.5t30.5 115.5t-28.5 117.5t-80.5 43.5t-82.5 -40.5t-30.5 -117.5z M904 126q0 -97 -52.5 -150.5t-128.5 -53.5q-77 0 -124.5 53t-47.5 144q0 97 52 151.5t129 54.5t124.5 -53.5t47.5 -145.5zM1370 126q0 -97 -52.5 -150.5t-128.5 -53.5q-77 0 -124.5 53t-47.5 144q0 97 52 151.5t129 54.5t124.5 -53.5t47.5 -145.5zM616 125q0 -73 28.5 -117 t81.5 -44q51 0 81.5 41.5t30.5 116.5q0 74 -28 117.5t-81 43.5q-51 0 -82 -40.5t-31 -117.5zM1082 125q0 -73 28.5 -117t81.5 -44q51 0 81.5 41.5t30.5 116.5q0 74 -28 117.5t-81 43.5q-51 0 -82 -40.5t-31 -117.5z" />
<glyph unicode="&#x2039;" horiz-adv-x="283" d="M54 282v21q70 62 169 193l20 -10q-41 -99 -114 -194q73 -93 114 -193l-20 -11q-98 131 -169 194z" />
<glyph unicode="&#x203a;" horiz-adv-x="283" d="M229 282q-66 -58 -169 -194l-20 11q41 100 114 193q-73 95 -114 194l20 10q104 -136 169 -193v-21z" />
<glyph unicode="&#x2044;" horiz-adv-x="581" d="M526 700l-425 -710h-46l424 710h47z" />
<glyph unicode="&#x2070;" horiz-adv-x="466" d="M405 556q0 -101 -50.5 -156.5t-125.5 -55.5t-121.5 55t-46.5 152q0 101 50.5 158t125.5 57t121.5 -57t46.5 -153zM126 556q0 -80 27 -126.5t79 -46.5q51 0 79.5 44.5t28.5 126.5q0 80 -27 126.5t-79 46.5q-50 0 -79 -44t-29 -127z" />
<glyph unicode="&#x2074;" horiz-adv-x="403" d="M39 499l180 261l67 6l7 -6v-257q25 1 63 5l-7 -50h-56v-106h-59v106h-187zM92 502v-1q39 1 130 1h12v110q0 72 2 102h-1z" />
<glyph unicode="&#x2075;" horiz-adv-x="378" d="M56 358l7 44q43 -15 95 -15q48 0 77.5 23.5t29.5 63.5t-27.5 60.5t-70.5 20.5q-48 0 -85 -14l-10 7v210h140q64 0 104 6l-4 -54h-188v-120q31 7 65 7q60 0 100 -31t40 -88q0 -62 -47 -98t-123 -36q-54 0 -103 14z" />
<glyph unicode="&#x2076;" horiz-adv-x="409" d="M214 344q-70 0 -111.5 47.5t-41.5 133.5q0 109 60 175t157 66q37 0 55 -8l-6 -45q-20 9 -48 9q-61 0 -104.5 -43.5t-48.5 -126.5h2q38 37 106 37q57 0 92 -31.5t35 -84.5q0 -59 -42.5 -94t-104.5 -35zM217 551q-27 0 -53.5 -11.5t-37.5 -30.5q6 -124 87 -124q38 0 61 23 t23 61q0 37 -21 59.5t-59 22.5z" />
<glyph unicode="&#x2077;" horiz-adv-x="351" d="M38 702l7 56h270l7 -7v-34q-74 -78 -123 -173.5t-54 -191.5h-64q6 92 60 191.5t121 165.5v1h-107q-70 0 -117 -8z" />
<glyph unicode="&#x2078;" horiz-adv-x="399" d="M197 344q-65 0 -107 28.5t-42 72.5q0 39 30 68t75 44v1q-90 46 -90 106q0 43 40.5 72.5t99.5 29.5t96 -29t37 -70q0 -32 -25 -60t-66 -45v-2q107 -42 107 -108q0 -45 -43.5 -76.5t-111.5 -31.5zM202 728q-33 0 -56.5 -16.5t-23.5 -44.5q0 -51 85 -85q71 36 71 85 q0 27 -22 44t-54 17zM191 534q-35 -14 -59 -37.5t-24 -50.5q0 -28 25.5 -46.5t64.5 -18.5q40 0 65.5 18.5t27.5 47.5q1 28 -24.5 48t-75.5 39z" />
<glyph unicode="&#x2079;" horiz-adv-x="409" d="M48 629q0 61 42.5 99t104.5 38q68 0 110.5 -47t42.5 -131q0 -104 -60.5 -174t-156.5 -70q-27 0 -49 5v43q24 -4 45 -4q64 0 105.5 42.5t50.5 117.5q-37 -38 -102 -38q-60 0 -96.5 32t-36.5 87zM113 633q0 -38 21.5 -61t61.5 -23q62 0 87 43q-3 61 -26 96.5t-64 35.5 q-35 0 -57.5 -25.5t-22.5 -65.5z" />
<glyph unicode="&#x207f;" horiz-adv-x="475" d="M148 290h-62v265q0 57 -16 116l57 14q11 -24 18 -59q64 59 138 59q52 0 80.5 -29.5t28.5 -84.5v-281h-62v267q0 81 -73 81q-53 0 -109 -45v-303z" />
<glyph unicode="&#x2080;" horiz-adv-x="466" d="M405 132q0 -101 -50.5 -156.5t-125.5 -55.5t-121.5 55t-46.5 152q0 101 50.5 158t125.5 57t121.5 -57t46.5 -153zM126 132q0 -80 27 -126.5t79 -46.5q51 0 79.5 44.5t28.5 126.5q0 80 -27 126.5t-79 46.5q-50 0 -79 -44t-29 -127z" />
<glyph unicode="&#x2081;" horiz-adv-x="247" d="M102 281h-1l-72 -14l-10 36l137 41l7 -6v-408h-62v266q0 61 1 85z" />
<glyph unicode="&#x2082;" horiz-adv-x="367" d="M44 -70l-8 45q53 40 79 61.5t64 57t54.5 66t16.5 60.5q0 36 -24.5 58t-63.5 22q-59 0 -119 -44l-6 47q55 41 139 41q60 0 99 -31t39 -82q0 -34 -19 -69t-54.5 -69.5t-67 -59.5t-76.5 -56h119q54 0 105 6l-7 -53h-270z" />
<glyph unicode="&#x2083;" horiz-adv-x="357" d="M48 309q54 33 125 33q53 0 88.5 -24.5t35.5 -64.5q0 -35 -29.5 -65.5t-82.5 -45.5q61 -5 96.5 -31t35.5 -72q0 -53 -46.5 -86t-122.5 -33q-59 0 -108 14l6 42q49 -14 100 -14q47 0 77 20t30 55q0 36 -33.5 52.5t-84.5 16.5q-27 0 -47 -4v42q68 12 106 38t38 60 q0 25 -20 40.5t-55 15.5q-55 0 -105 -31z" />
<glyph unicode="&#x2084;" horiz-adv-x="403" d="M39 77l180 261l67 6l7 -6v-257q25 1 63 5l-7 -50h-56v-106h-59v106h-187zM92 80v-1q39 1 130 1h12v110q0 72 2 102h-1z" />
<glyph unicode="&#x2085;" horiz-adv-x="378" d="M56 -66l7 43q45 -14 95 -14q48 0 77.5 23.5t29.5 63.5t-27.5 60.5t-70.5 20.5q-48 0 -85 -14l-10 7v210h140q64 0 104 6l-4 -54h-188v-120q31 7 65 7q60 0 100 -31t40 -88q0 -62 -47 -98t-123 -36q-54 0 -103 14z" />
<glyph unicode="&#x2086;" horiz-adv-x="409" d="M214 -80q-70 0 -111.5 47.5t-41.5 133.5q0 109 60 175t157 66q37 0 55 -8l-6 -45q-20 9 -48 9q-61 0 -104.5 -43.5t-48.5 -126.5h2q38 37 106 37q57 0 92 -31.5t35 -84.5q0 -59 -42.5 -94t-104.5 -35zM217 127q-27 0 -53.5 -11.5t-37.5 -30.5q6 -124 87 -124q38 0 61 23 t23 61q0 37 -21 59.5t-59 22.5z" />
<glyph unicode="&#x2087;" horiz-adv-x="351" d="M38 280l7 56h270l7 -7v-34q-74 -78 -123 -173.5t-54 -191.5h-64q6 92 60 191.5t121 165.5v1h-107q-70 0 -117 -8z" />
<glyph unicode="&#x2088;" horiz-adv-x="399" d="M197 -80q-66 0 -107.5 28t-41.5 73q0 39 30 68t75 44v1q-90 46 -90 106q0 43 40.5 72.5t99.5 29.5t96 -29t37 -70q0 -32 -25 -60t-66 -45v-2q107 -42 107 -108q0 -46 -43 -77t-112 -31zM202 304q-33 0 -56.5 -16.5t-23.5 -44.5q0 -51 85 -85q71 36 71 85q0 27 -22 44 t-54 17zM191 110q-35 -14 -59 -37.5t-24 -50.5q0 -29 25.5 -47t64.5 -18q40 0 65.5 18.5t27.5 47.5q1 28 -24.5 48t-75.5 39z" />
<glyph unicode="&#x2089;" horiz-adv-x="409" d="M48 205q0 61 42.5 99t104.5 38q68 0 110.5 -47t42.5 -131q0 -104 -60.5 -174t-156.5 -70q-27 0 -49 5v43q24 -4 45 -4q64 0 105.5 42.5t50.5 117.5q-37 -38 -102 -38q-60 0 -96.5 32t-36.5 87zM113 209q0 -38 21.5 -61t61.5 -23q62 0 87 43q-3 61 -26 96.5t-64 35.5 q-35 0 -57.5 -25.5t-22.5 -65.5z" />
<glyph unicode="&#x20ac;" horiz-adv-x="593" d="M48 249l4 38h61q-2 28 -2 45q0 19 2 53h-51l5 38h51q20 127 91 200t176 73q92 0 153 -43l-15 -71q-61 48 -135 48q-73 0 -124 -54t-66 -153h245l-3 -38h-246q-2 -28 -2 -44q0 -29 3 -54h233l-3 -38h-225q17 -91 65 -142t121 -51q83 0 148 53l10 -65q-67 -54 -169 -54 q-104 0 -172.5 68t-85.5 191h-69z" />
<glyph unicode="&#x2122;" horiz-adv-x="590" d="M491 689l5 -4l26 -225h-39l-9 85q-7 53 -10 100h-1q-9 -44 -27 -101l-25 -84h-45l-25 84q-19 60 -28 102h-1q-6 -72 -9 -102l-11 -84h-33l27 227l51 2l32 -96q17 -64 22 -95h1q15 77 22 95l31 94zM167 460h-41v196q-24 0 -68 -2l2 32h173l3 -32q-44 2 -69 2v-196z" />
<glyph unicode="&#x2202;" horiz-adv-x="628" d="M284 756q129 0 199 -110t70 -279q0 -74 -14.5 -138.5t-44.5 -119.5t-84 -87t-126 -32q-102 0 -159 60.5t-57 156.5q0 108 70 174t187 66q77 0 146 -33q-9 129 -63.5 205.5t-136.5 76.5q-37 0 -75 -14.5t-64 -36.5l-29 53q77 58 181 58zM147 212q0 -74 37.5 -117.5 t102.5 -43.5q85 0 135.5 75t50.5 216v6q-64 38 -140 38q-92 0 -139 -46.5t-47 -127.5z" />
<glyph unicode="&#x220f;" horiz-adv-x="742" d="M683 678l-4 -55h-115v-763h-75v763h-239v-763h-75v763h-115l-1 60l616 3z" />
<glyph unicode="&#x2211;" horiz-adv-x="568" d="M58 -70l252 354l-252 354l15 48h455l9 -8l-4 -55l-393 6l242 -334v-22l-242 -334l394 5l-1 -63h-460z" />
<glyph unicode="&#x2212;" d="M510 322h-450v47q170 5 450 5l5 -5z" />
<glyph unicode="&#x221a;" horiz-adv-x="602" d="M577 742l-224 -742h-85l-165 438h-87v58h141l155 -436l198 696l61 -6z" />
<glyph unicode="&#x221e;" horiz-adv-x="843" d="M765 272q0 -76 -46.5 -124.5t-119.5 -48.5q-60 0 -101 32t-78 89q-76 -121 -181 -121q-72 0 -116.5 47t-44.5 122q0 77 46.5 125t118.5 48q57 0 99 -31.5t80 -88.5q74 120 182 120q71 0 116 -47t45 -122zM595 392q-86 0 -147 -114q19 -33 30 -49t30.5 -38.5t41.5 -32 t49 -9.5q50 0 81 33.5t31 86.5q0 54 -33 88.5t-83 34.5zM132 274q0 -55 33 -89.5t83 -34.5q84 0 147 110l-1 2q-26 43 -42.5 66t-46 43.5t-62.5 20.5q-49 0 -80 -33t-31 -85z" />
<glyph unicode="&#x222b;" horiz-adv-x="478" d="M181 -201q83 0 83 91q0 49 -61 359q-58 280 -58 349q0 77 42 117.5t116 40.5q61 0 123 -30l-9 -64q-60 39 -116 39q-83 0 -83 -91q0 -47 59 -347q60 -288 60 -359q0 -79 -42 -119.5t-116 -40.5q-61 0 -123 30l8 64q60 -39 117 -39z" />
<glyph unicode="&#x2248;" d="M416 321q-26 0 -136.5 35t-122.5 35q-3 0 -6 -1.5t-6.5 -4t-7 -6t-8 -8.5t-8 -9.5t-9 -12t-9.5 -12.5t-10 -13.5t-10 -13.5l-32 22q61 113 109 113q25 0 135.5 -35t122.5 -35q4 0 8 2t9 6.5t9.5 9.5t11.5 13t11.5 14.5t13 17t13.5 17.5l30 -21q-61 -113 -108 -113z M416 120q-26 0 -136.5 34.5t-122.5 34.5q-16 0 -67 -72q-2 -2 -2.5 -3t-2 -3t-2.5 -3l-32 22q61 113 109 113q25 0 135.5 -34.5t122.5 -34.5q3 0 6 1t7 4t7 6t8 8.5t8.5 9.5t9 11.5t9 12l10.5 13.5t11 14l30 -21q-61 -113 -108 -113z" />
<glyph unicode="&#x2260;" d="M144 121l53 112h-137v47q59 3 162 3l65 138h-227v47q112 4 252 4l61 128l8 2l38 -20l-52 -109q31 0 79 0.5t64 0.5l5 -6l-5 -47h-168l-66 -137q178 2 234 2l5 -6l-5 -47h-258l-62 -129l-8 -2z" />
<glyph unicode="&#x2264;" d="M137 437l372 -139v-52l-452 173v32l5 8q194 74 446 158v-53zM509 96h-450v48q170 5 449 5l6 -6z" />
<glyph unicode="&#x2265;" d="M66 246v52l372 139l-371 127v53q252 -84 446 -158l5 -8v-32zM511 96h-450v48q170 5 450 5l6 -6z" />
<glyph unicode="&#x25ca;" horiz-adv-x="611" d="M73 327v31l214 332l60 10l222 -343v-31l-218 -326l-59 -10zM316 649l-190 -307l191 -299h6l194 299l-194 307h-7z" />
<glyph unicode="&#x25fc;" horiz-adv-x="505" d="M0 505h505v-505h-505v505z" />
<glyph unicode="&#xfb00;" horiz-adv-x="585" d="M179 0h-75v445l-75 3v33l75 10q0 13 -1 32t-1.5 33t-0.5 20q0 75 45 117.5t121 42.5q72 0 134 -32q43 52 128 52q67 0 115 -28l-18 -62q-48 31 -99 31q-88 0 -88 -113q0 -39 2 -93h133l7 -8l-3 -41l-135 3v-445h-75v445h-189v-445zM175 573q0 -32 2 -82h191q-3 53 -3 91 q0 40 8 67q-48 32 -104 32q-94 0 -94 -108z" />
<glyph unicode="&#xfb01;" horiz-adv-x="542" d="M179 0h-75v445l-75 3v33l75 10q0 15 -1.5 48t-1.5 43q0 82 45.5 128t129.5 46q95 0 160 -52l-37 -52q-58 45 -124 45q-100 0 -100 -116q0 -36 2 -90h182l75 15l9 -8v-498h-75v339q0 60 -4 103l-185 3v-445z" />
<glyph unicode="&#xfb02;" horiz-adv-x="540" d="M179 0h-75v445l-75 3v33l75 10q0 14 -1.5 47.5t-1.5 44.5q0 82 48.5 127.5t139.5 45.5q43 0 82 -11l70 11l9 -8v-748h-75v442l-196 3v-445zM175 584q0 -39 2 -93h195l3 -3v101q0 48 -3 90q-41 18 -87 18q-110 0 -110 -113z" />
<glyph unicode="&#xfb03;" horiz-adv-x="806" d="M179 0h-75v445l-75 3v33l75 10q0 16 -1.5 46.5t-1.5 38.5q0 74 48 117t126 43q73 0 129 -33q45 53 136 53q94 0 160 -52l-37 -52q-58 45 -124 45q-53 0 -76.5 -29t-23.5 -87q0 -36 2 -90h181l76 15l8 -8v-498h-75v339q0 55 -3 103l-185 3v-445h-75v445h-189v-445z M175 573q0 -32 2 -82h191q-3 54 -3 91q0 35 8 65q-42 30 -97 30q-101 0 -101 -104z" />
<glyph unicode="&#xfb04;" horiz-adv-x="804" d="M179 0h-75v445l-75 3v33l75 10q0 16 -1.5 46.5t-1.5 38.5q0 74 48 117t126 43q73 0 130 -34q48 54 148 54q43 0 82 -11l70 11l9 -8v-748h-75v442l-196 3v-445h-75v445h-189v-445zM439 584q0 -39 2 -93h195l3 -3v101q0 48 -3 90q-43 18 -88 18q-109 0 -109 -113zM175 573 q0 -32 2 -82h191q-3 54 -3 92q0 35 9 64q-44 30 -98 30q-101 0 -101 -104z" />
<glyph unicode="&#xfb06;" horiz-adv-x="781" d="M370 476l-9 -64q-63 39 -123 39q-47 0 -74.5 -21t-27.5 -55q0 -31 25.5 -54t62 -39t73 -34t62 -48.5t25.5 -72.5q0 -61 -49.5 -99t-130.5 -38q-84 0 -149 34l9 63q67 -41 144 -41q48 0 75 20.5t27 53.5q0 30 -25.5 52.5t-62 38t-73.5 33.5t-62.5 48.5t-25.5 73.5 q0 63 49 101.5t130 38.5q38 0 71 -9q-22 43 -22 93q0 69 46.5 112.5t117.5 43.5q69 0 113.5 -41t44.5 -114q0 -40 -15 -95h135l7 -8l-4 -39l-138 1v-289q0 -113 77 -113q39 0 79 25l9 -52q-49 -31 -110 -31q-40 0 -67.5 15.5t-40 42.5t-17.5 52t-5 53v298l-71 1v34l72 10 q13 35 13 83q0 114 -92 114q-45 0 -73 -29t-28 -83q0 -53 28 -105z" />
<glyph horiz-adv-x="273" d="M258 865l-3 -14q-102 -58 -242 -74l-9 23q127 53 205 111zM31 -193l-25 38q87 69 87 222v462q0 79 -9 155l78 12l9 -8v-621q0 -102 -33.5 -162t-106.5 -98z" />
<glyph horiz-adv-x="421" d="M337 42q0 -64 19 -112l-55 -8q-10 20 -20 54h-1q-17 -22 -51.5 -38t-74.5 -16q-49 0 -77 25.5t-28 66.5q0 63 64 96t163 39v49q0 78 -85 78q-64 0 -125 -36l-3 52q68 33 142 33q65 0 99.5 -30.5t34.5 -84.5q0 -29 -1 -90t-1 -78zM112 24q0 -25 17 -42.5t48 -17.5 q56 0 99 43v111q-72 -5 -118 -29t-46 -65z" />
<glyph horiz-adv-x="473" d="M412 125q0 -97 -48 -150t-128 -53q-50 0 -98 16l-56 -16v466q0 58 -8 122l63 10l7 -7v-228q43 40 108 40q73 0 116.5 -53.5t43.5 -146.5zM234 281q-53 0 -90 -34v-270q38 -15 85 -15q56 0 87 41t31 118q0 75 -29 117.5t-84 42.5z" />
<glyph horiz-adv-x="405" d="M362 299l-16 -53q-42 30 -95 30q-58 0 -92 -38.5t-34 -110.5t33.5 -114.5t94.5 -42.5q51 0 101 30l6 -46q-51 -32 -119 -32q-81 0 -131 52.5t-50 145.5q0 96 52.5 150.5t138.5 54.5q62 0 111 -26z" />
<glyph horiz-adv-x="475" d="M322 510l62 10l7 -7v-475q0 -57 20 -108l-56 -8q-9 16 -20 54h-1q-39 -54 -113 -54q-72 0 -116.5 52t-44.5 141q0 100 55.5 155t139.5 55q40 0 73 -12v75q0 74 -6 122zM125 122q0 -73 31.5 -115.5t84.5 -42.5q52 0 87 41v268q-38 12 -70 12q-59 0 -96 -41.5t-37 -121.5z " />
<glyph horiz-adv-x="430" d="M378 130l-12 -12h-240q3 -73 38 -110.5t93 -37.5q54 0 107 33l5 -45q-52 -36 -126 -36q-83 0 -133 52t-50 145q0 96 51.5 151t126.5 55q64 0 102.5 -41t38.5 -109q0 -30 -1 -45zM234 283q-43 0 -73.5 -35.5t-34.5 -99.5l189 5q1 9 1 28q0 46 -22 74t-60 28z" />
<glyph horiz-adv-x="278" d="M151 -70h-62v345l-61 3v27l61 8q-2 54 -2 70q0 65 35 101t100 36q55 0 94 -22l-14 -52q-40 25 -82 25q-72 0 -72 -87q0 -8 1 -34t1 -37h109l5 -7l-2 -33l-111 2v-345z" />
<glyph horiz-adv-x="411" d="M99 -12q0 36 33 64q-38 15 -60.5 47.5t-22.5 77.5q0 63 39.5 105.5t108.5 42.5q52 0 84 -25q33 35 92 35l8 -4l-1 -50h-79q40 -38 40 -95q0 -62 -39.5 -103.5t-106.5 -41.5q-22 0 -32 2q-12 -15 -12 -34q0 -18 10.5 -27.5t36.5 -11.5l69 -5q53 -2 86.5 -25.5t33.5 -69.5 q0 -57 -52.5 -97.5t-143.5 -40.5q-76 0 -122 28.5t-46 72.5q0 26 15 45.5t34 28.5l27 -12q-20 -24 -20 -45q0 -33 32 -56.5t88 -23.5t90.5 24t34.5 61q0 56 -79 63l-63 5q-83 6 -83 65zM279 182q0 50 -21.5 77t-62.5 27q-85 0 -85 -103q0 -49 22 -76.5t64 -27.5q83 0 83 103 z" />
<glyph horiz-adv-x="471" d="M144 -70h-62v458q0 67 -8 122l63 10l7 -7v-244q62 56 135 56q52 0 80.5 -29.5t28.5 -84.5v-281h-62v267q0 81 -73 81q-54 0 -109 -44v-304z" />
<glyph horiz-adv-x="229" d="M155 479q0 -21 -13 -36.5t-33 -15.5q-18 0 -29.5 12.5t-11.5 31.5q0 20 14 35.5t33 15.5t29.5 -11.5t10.5 -31.5zM83 -70v263q0 67 -8 122l63 10l7 -7v-388h-62z" />
<glyph horiz-adv-x="229" d="M154 479q0 -21 -12.5 -36.5t-32.5 -15.5q-19 0 -30 12.5t-11 31.5q0 21 13.5 36t33.5 15q39 0 39 -43zM69 -269l-27 26q41 66 41 157v279q0 65 -7 122l62 10l8 -7v-404q0 -61 -18.5 -103.5t-58.5 -79.5z" />
<glyph horiz-adv-x="426" d="M82 388q0 58 -8 122l63 10l7 -7v-364h63q27 35 124 176l47 -9l5 -7l-123 -163q50 -76 147 -216l-69 -8q-54 75 -127 188h-67v-180h-62v458z" />
<glyph horiz-adv-x="223" d="M139 -70h-62v458q0 58 -8 122l63 10l7 -7v-583z" />
<glyph horiz-adv-x="705" d="M148 -70h-62v265q0 57 -16 116l57 14q11 -25 18 -58q63 58 132 58q78 0 100 -63q65 63 137 63q52 0 80 -28.5t28 -80.5v-286h-63v273q0 75 -70 75q-51 0 -106 -46q1 -5 1 -16v-286h-62v273q0 75 -70 75q-52 0 -104 -45v-303z" />
<glyph horiz-adv-x="475" d="M148 -70h-62v265q0 57 -16 116l57 14q11 -24 18 -59q64 59 138 59q52 0 80.5 -29.5t28.5 -84.5v-281h-62v267q0 81 -73 81q-53 0 -109 -45v-303z" />
<glyph horiz-adv-x="473" d="M413 126q0 -97 -52.5 -150.5t-128.5 -53.5q-77 0 -124.5 53t-47.5 144q0 97 52 151.5t129 54.5t124.5 -53.5t47.5 -145.5zM125 125q0 -73 28.5 -117t81.5 -44q51 0 81.5 41.5t30.5 116.5q0 74 -28 117.5t-81 43.5q-51 0 -82 -40.5t-31 -117.5z" />
<glyph horiz-adv-x="477" d="M86 -260v455q0 54 -16 116l57 14q11 -26 15 -45q45 45 115 45q69 0 114 -52.5t45 -144.5q0 -93 -46.5 -149.5t-128.5 -56.5q-50 0 -93 19v-80q0 -62 7 -119l-62 -10zM236 281q-53 0 -88 -37v-261q42 -21 83 -21q58 0 89.5 43t31.5 119q0 77 -31.5 117t-84.5 40z" />
<glyph horiz-adv-x="475" d="M328 -260v223q-44 -41 -107 -41q-72 0 -116.5 53t-44.5 145q0 98 55.5 151.5t145.5 53.5q38 0 79 -12l51 12v-461q0 -65 7 -122l-62 -10zM125 125q0 -73 30 -117t84 -44q52 0 89 35v279q-35 7 -58 7q-69 0 -107 -41.5t-38 -118.5z" />
<glyph horiz-adv-x="323" d="M148 -70h-62v265q0 57 -16 116l57 14q15 -38 20 -70q62 70 119 70q23 0 39 -10l-12 -59q-23 7 -37 7q-53 0 -108 -45v-288z" />
<glyph horiz-adv-x="369" d="M307 302l-7 -53q-49 30 -101 30q-38 0 -60.5 -16t-22.5 -42q0 -24 21 -41.5t51 -30t60 -26.5t51 -37.5t21 -56.5q0 -48 -41 -77.5t-108 -29.5q-70 0 -122 26l7 53q57 -33 119 -33q39 0 61 15.5t22 40.5q0 23 -21 40.5t-51 30t-60 26.5t-51 38t-21 57q0 48 40.5 78.5 t107.5 30.5q54 0 105 -23z" />
<glyph horiz-adv-x="304" d="M262 279l-114 1v-223q0 -47 15.5 -67t47.5 -20q33 0 65 20l8 -43q-39 -25 -91 -25q-107 0 -107 130v228l-60 1v28l61 8l15 92l41 4l8 -8l-3 -88h111l6 -7z" />
<glyph horiz-adv-x="468" d="M83 193q0 42 -6 122l61 10l7 -7v-271q0 -75 70 -75q50 0 103 45v300l62 8v-285q0 -56 16 -109l-53 -9q-15 31 -19 58h-3q-61 -58 -130 -58q-52 0 -80 28t-28 78v165z" />
<glyph horiz-adv-x="394" d="M370 313l-145 -386h-56l-145 393l64 5l65 -189q40 -104 48 -153h1q11 50 50 153l65 189l48 -5z" />
<glyph horiz-adv-x="631" d="M153 -73l-129 393l63 5l57 -184q28 -82 44 -151h1q12 55 43 147l57 186h63l55 -180q39 -116 45 -152h1q9 45 44 149l57 185l48 -5l5 -7l-128 -386h-61l-62 190q-33 100 -40 142h-2q-5 -40 -38 -142l-62 -190h-61z" />
<glyph horiz-adv-x="395" d="M298 -70l-107 163l-105 -163h-53l-3 7l126 186l-126 193l62 9l111 -173l107 173l53 -5l2 -7l-127 -189l127 -194h-67z" />
<glyph horiz-adv-x="388" d="M370 313l-141 -372q-70 -196 -201 -209l-11 60q109 12 164 147l-18 1l-139 380l64 5l65 -189q40 -104 48 -153h1q11 50 50 153l65 189l48 -5z" />
<glyph horiz-adv-x="364" d="M32 264l4 53h286l7 -39l-230 -298l112 1q73 0 124 5l-5 -56h-294l-6 40l232 298z" />
<glyph horiz-adv-x="421" d="M337 402q0 -64 19 -112l-55 -8q-12 23 -20 55h-1q-17 -23 -51.5 -39t-74.5 -16q-49 0 -77 25.5t-28 66.5q0 63 64 96t163 39v49q0 78 -85 78q-64 0 -125 -36l-3 52q68 33 142 33q65 0 99.5 -30.5t34.5 -84.5q0 -29 -1 -90t-1 -78zM112 384q0 -25 17 -42t48 -18 q58 2 99 43v111q-72 -5 -118 -29t-46 -65z" />
<glyph horiz-adv-x="473" d="M412 485q0 -97 -48 -150t-128 -53q-50 0 -98 16l-56 -16v466q0 58 -8 122l63 10l7 -7v-228q43 40 108 40q73 0 116.5 -53.5t43.5 -146.5zM234 641q-53 0 -90 -34v-270q36 -14 85 -14q56 0 87 40.5t31 117.5q0 75 -29 117.5t-84 42.5z" />
<glyph horiz-adv-x="405" d="M362 659l-16 -53q-42 30 -95 30q-58 0 -92 -38.5t-34 -110.5t33.5 -114t94.5 -42q53 0 101 29l6 -46q-51 -32 -119 -32q-81 0 -131 52.5t-50 145.5q0 96 52.5 150.5t138.5 54.5q62 0 111 -26z" />
<glyph horiz-adv-x="475" d="M322 870l62 10l7 -7v-475q0 -57 20 -108l-56 -8q-8 14 -20 54h-1q-39 -54 -113 -54q-71 0 -116 52.5t-45 140.5q0 100 55.5 155t139.5 55q40 0 73 -12v75q0 74 -6 122zM125 482q0 -73 31.5 -115t84.5 -42t87 40v268q-38 12 -70 12q-59 0 -96 -41.5t-37 -121.5z" />
<glyph horiz-adv-x="430" d="M378 490l-12 -12h-240q3 -73 38 -110t93 -37q55 0 107 32l5 -45q-52 -36 -126 -36q-83 0 -133 52.5t-50 144.5q0 96 51.5 151t126.5 55q64 0 102.5 -41t38.5 -109q0 -30 -1 -45zM234 643q-43 0 -73.5 -35.5t-34.5 -99.5l189 5q1 9 1 28q0 46 -22 74t-60 28z" />
<glyph horiz-adv-x="278" d="M151 290h-62v345l-61 3v27l61 8q-2 54 -2 70q0 65 35 101t100 36q55 0 94 -22l-14 -52q-40 25 -82 25q-72 0 -72 -87q0 -8 1 -34t1 -37h109l5 -7l-2 -33l-111 2v-345z" />
<glyph horiz-adv-x="411" d="M99 347q0 37 33 65q-38 15 -60.5 47.5t-22.5 77.5q0 63 39.5 105.5t108.5 42.5q52 0 84 -25q33 35 92 35l8 -4l-1 -50h-79q40 -38 40 -95q0 -62 -39.5 -103.5t-106.5 -42.5q-31 3 -32 3q-12 -15 -12 -34q0 -18 10.5 -27.5t36.5 -10.5l69 -5q53 -3 86.5 -26t33.5 -69 q0 -57 -52 -98t-144 -41q-76 0 -122 29t-46 73q0 25 15 44.5t34 28.5l27 -12q-20 -22 -20 -45q0 -33 32 -56.5t88 -23.5q55 0 90 24t35 61q0 56 -79 63l-63 5q-83 7 -83 64zM279 542q0 50 -21.5 77t-62.5 27q-85 0 -85 -103q0 -49 22 -76.5t64 -27.5q83 0 83 103z" />
<glyph horiz-adv-x="471" d="M144 290h-62v458q0 67 -8 122l63 10l7 -7v-244q62 56 135 56q52 0 80.5 -29.5t28.5 -84.5v-281h-62v267q0 81 -73 81q-54 0 -109 -44v-304z" />
<glyph horiz-adv-x="229" d="M155 839q0 -21 -13 -36.5t-33 -15.5q-18 0 -29.5 12.5t-11.5 31.5q0 20 14 35.5t33 15.5t29.5 -11.5t10.5 -31.5zM83 290v263q0 67 -8 122l63 10l7 -7v-388h-62z" />
<glyph horiz-adv-x="229" d="M154 839q0 -21 -12.5 -36.5t-32.5 -15.5q-19 0 -30 12.5t-11 31.5q0 21 13.5 36t33.5 15q39 0 39 -43zM69 92l-27 25q41 66 41 158v278q0 65 -7 122l62 10l8 -7v-403q0 -62 -18.5 -104.5t-58.5 -78.5z" />
<glyph horiz-adv-x="426" d="M82 748q0 58 -8 122l63 10l7 -7v-364h63q27 35 124 176l47 -9l5 -7l-123 -163q50 -76 147 -216l-69 -8q-54 75 -127 188h-67v-180h-62v458z" />
<glyph horiz-adv-x="223" d="M139 290h-62v458q0 58 -8 122l63 10l7 -7v-583z" />
<glyph horiz-adv-x="705" d="M148 290h-62v265q0 57 -16 116l57 14q11 -25 18 -58q63 58 132 58q78 0 100 -63q65 63 137 63q52 0 80 -28.5t28 -80.5v-286h-63v273q0 75 -70 75q-51 0 -106 -46q1 -5 1 -16v-286h-62v273q0 75 -70 75q-52 0 -104 -45v-303z" />
<glyph horiz-adv-x="473" d="M413 486q0 -97 -52.5 -150.5t-128.5 -53.5q-77 0 -124.5 53t-47.5 144q0 97 52 151.5t129 54.5t124.5 -53.5t47.5 -145.5zM125 485q0 -73 28.5 -116.5t81.5 -43.5q51 0 81.5 41.5t30.5 115.5t-28 117.5t-81 43.5q-51 0 -82 -40.5t-31 -117.5z" />
<glyph horiz-adv-x="477" d="M86 100v455q0 54 -16 116l57 14q11 -26 15 -45q45 45 115 45q69 0 114 -52.5t45 -144.5q0 -93 -46.5 -149.5t-128.5 -56.5q-50 0 -93 19v-80q0 -62 7 -119l-62 -10zM236 641q-53 0 -88 -37v-261q40 -20 83 -20q58 0 89.5 42.5t31.5 118.5q0 77 -31.5 117t-84.5 40z" />
<glyph horiz-adv-x="475" d="M328 100v223q-44 -41 -107 -41q-72 0 -116.5 53t-44.5 145q0 98 55.5 151.5t145.5 53.5q38 0 79 -12l51 12v-461q0 -65 7 -122l-62 -10zM125 485q0 -73 30 -116.5t84 -43.5q53 0 89 34v279q-35 7 -58 7q-69 0 -107 -41.5t-38 -118.5z" />
<glyph horiz-adv-x="323" d="M148 290h-62v265q0 57 -16 116l57 14q15 -38 20 -70q62 70 119 70q23 0 39 -10l-12 -59q-23 7 -37 7q-53 0 -108 -45v-288z" />
<glyph horiz-adv-x="369" d="M307 662l-7 -53q-49 30 -101 30q-38 0 -60.5 -16t-22.5 -42q0 -24 21 -41.5t51 -30t60 -26.5t51 -37.5t21 -56.5q0 -48 -41 -77.5t-108 -29.5q-71 0 -122 27l7 52q57 -33 119 -33q39 0 61 15.5t22 40.5q0 23 -21 40.5t-51 30t-60 26.5t-51 38t-21 57q0 48 40.5 78.5 t107.5 30.5q54 0 105 -23z" />
<glyph horiz-adv-x="304" d="M262 639l-114 1v-223q0 -86 63 -86q35 0 65 19l8 -43q-42 -25 -91 -25q-107 0 -107 130v228l-60 1v28l61 8l15 92l41 4l8 -8l-3 -88h111l6 -7z" />
<glyph horiz-adv-x="468" d="M83 553q0 42 -6 122l61 10l7 -7v-271q0 -75 70 -75q50 0 103 45v300l62 8v-285q0 -57 16 -108l-53 -10q-15 32 -19 59h-3q-61 -59 -130 -59q-52 0 -80 28t-28 78v165z" />
<glyph horiz-adv-x="394" d="M370 673l-145 -386h-56l-145 393l64 5l65 -189q40 -104 48 -152h1q11 50 50 152l65 189l48 -5z" />
<glyph horiz-adv-x="631" d="M153 287l-129 393l63 5l57 -184q28 -82 44 -151h1q12 55 43 147l57 186h63l55 -180q39 -116 45 -152h1q9 45 44 149l57 185l48 -5l5 -7l-128 -386h-61l-62 190q-33 100 -40 142h-2q-5 -40 -38 -142l-62 -190h-61z" />
<glyph horiz-adv-x="395" d="M298 290l-107 163l-105 -163h-53l-3 7l126 186l-126 193l62 9l111 -173l107 173l53 -5l2 -7l-127 -189l127 -194h-67z" />
<glyph horiz-adv-x="388" d="M370 673l-141 -372q-70 -195 -201 -209l-11 60q109 12 164 148h-18l-139 380l64 5l65 -189q40 -104 48 -152h1q11 50 50 152l65 189l48 -5z" />
<glyph horiz-adv-x="364" d="M32 624l4 53h286l7 -39l-230 -298l112 2q83 0 124 4l-5 -56h-294l-6 40l232 298z" />
<glyph horiz-adv-x="270" d="M219 744l4 -14q-59 -89 -160 -156l-25 13q79 99 111 171zM42 -256l-26 33q81 67 81 189v373q0 77 -9 155l75 12l9 -8v-524q0 -87 -32 -141.5t-98 -88.5z" />
<glyph horiz-adv-x="1044" d="M649 0h-75v589q0 69 -3 101q-19 3 -39 3q-69 0 -110 -29t-41 -79q0 -64 51 -112l-19 -63q-52 37 -116 37q-70 0 -111.5 -50.5t-41.5 -144.5t41 -149t115 -55q61 0 123 38l6 -55q-59 -41 -143 -41q-100 0 -160.5 67t-60.5 187q0 123 64 192.5t168 69.5q27 0 59 -5 q-35 44 -35 98q0 69 64.5 113t172.5 44q41 0 91 -8v-313q77 71 165 71q63 0 98 -37.5t35 -108.5v-360h-75v344q0 105 -90 105q-64 0 -133 -58v-391z" />
<glyph horiz-adv-x="830" d="M571 496q13 35 13 83q0 54 -23.5 84t-67.5 30q-46 0 -74 -29t-28 -80q0 -58 41 -111l-19 -63q-52 37 -116 37q-71 0 -112 -50.5t-41 -145.5q0 -93 41 -148t114 -55q62 0 124 38l6 -55q-59 -41 -142 -41q-101 0 -161.5 66.5t-60.5 186.5q0 124 64 193.5t169 69.5 q32 0 62 -6q-22 41 -22 91q0 69 46.5 112t118.5 43q69 0 113 -41t44 -115q0 -44 -16 -94h136l7 -8l-4 -39l-139 1v-289q0 -113 78 -113q39 0 79 25l9 -52q-49 -31 -110 -31q-40 0 -68 15.5t-40.5 42.5t-17.5 52t-5 53v298l-70 1v34z" />
<glyph horiz-adv-x="994" d="M599 0h-75v589q0 53 -3 101q-21 3 -39 3q-69 0 -110.5 -29t-41.5 -81q0 -61 40 -107l-9 -64q-63 39 -123 39q-47 0 -74.5 -21t-27.5 -55q0 -31 25.5 -54t62 -39t73 -34t62 -48.5t25.5 -72.5q0 -61 -49.5 -99t-130.5 -38q-84 0 -149 34l9 63q67 -41 144 -41q48 0 75 20.5 t27 53.5q0 30 -25.5 52.5t-62 38t-73.5 33.5t-62.5 48.5t-25.5 73.5q0 63 49 101.5t130 38.5q36 0 64 -7q-34 46 -34 98q0 71 64.5 115t172.5 44q42 0 92 -8v-313q76 71 164 71q63 0 98 -37.5t35 -108.5v-360h-75v344q0 105 -89 105q-64 0 -133 -58v-391z" />
<glyph horiz-adv-x="526" d="M92 0h-72l171 462q5 14 14.5 41.5t13.5 39.5l77 4l11 -10l199 -537h-76l-56 148h-227zM207 305l-39 -102h185l-38 102q-40 112 -53 168h-2q-13 -55 -53 -168z" />
<glyph horiz-adv-x="526" d="M352 784l4 -13q-59 -89 -160 -156l-25 12q79 101 111 171zM92 0h-72l171 462q5 14 14.5 41.5t13.5 39.5l77 4l11 -10l199 -537h-76l-56 148h-227zM207 305l-39 -102h185l-38 102q-40 112 -53 168h-2q-13 -55 -53 -168z" />
<glyph horiz-adv-x="526" d="M357 777h35q-10 -65 -45 -102.5t-88 -37.5q-50 0 -84 36.5t-41 99.5l34 5q10 -38 35.5 -60t61.5 -22q33 0 57.5 22t34.5 59zM92 0h-72l171 462q5 14 14.5 41.5t13.5 39.5l77 4l11 -10l199 -537h-76l-56 148h-227zM207 305l-39 -102h185l-38 102q-40 112 -53 168h-2 q-13 -55 -53 -168z" />
<glyph horiz-adv-x="526" d="M380 799l24 -18q-63 -84 -104 -156l-61 -7q-53 87 -113 163l24 18q47 -39 119 -117q57 67 111 117zM92 0h-72l171 462q5 14 14.5 41.5t13.5 39.5l77 4l11 -10l199 -537h-76l-56 148h-227zM207 305l-39 -102h185l-38 102q-40 112 -53 168h-2q-13 -55 -53 -168z" />
<glyph horiz-adv-x="526" d="M150 613l-24 18q64 85 104 157l61 6q47 -78 113 -163l-24 -18q-48 41 -120 117q-56 -65 -110 -117zM92 0h-72l171 462q5 14 14.5 41.5t13.5 39.5l77 4l11 -10l199 -537h-76l-56 148h-227zM207 305l-39 -102h185l-38 102q-40 112 -53 168h-2q-13 -55 -53 -168z" />
<glyph horiz-adv-x="526" d="M213 710q0 -25 -14.5 -43.5t-38.5 -18.5q-21 0 -34 15t-13 37q0 25 16 43.5t39 18.5q20 0 32.5 -14.5t12.5 -37.5zM414 710q0 -25 -14.5 -43.5t-38.5 -18.5q-21 0 -34 15t-13 37q0 25 16 43.5t38 18.5q21 0 33.5 -14.5t12.5 -37.5zM92 0h-72l171 462q5 14 14.5 41.5 t13.5 39.5l77 4l11 -10l199 -537h-76l-56 148h-227zM207 305l-39 -102h185l-38 102q-40 112 -53 168h-2q-13 -55 -53 -168z" />
<glyph horiz-adv-x="526" d="M92 0h-72l171 462q5 14 14.5 41.5t13.5 39.5l77 4l11 -10l199 -537h-76l-56 148h-227zM207 305l-39 -102h185l-38 102q-40 112 -53 168h-2q-13 -55 -53 -168zM317 -159q0 -26 -15.5 -44.5t-40.5 -18.5q-23 0 -37 15.5t-14 39.5q0 25 17 43.5t41 18.5q22 0 35.5 -15 t13.5 -39z" />
<glyph horiz-adv-x="526" d="M331 617q-102 69 -160 156l5 14l69 14q32 -72 111 -171zM92 0h-72l171 462q5 14 14.5 41.5t13.5 39.5l77 4l11 -10l199 -537h-76l-56 148h-227zM207 305l-39 -102h185l-38 102q-40 112 -53 168h-2q-13 -55 -53 -168z" />
<glyph horiz-adv-x="526" d="M127 680v49h273v-49h-273zM92 0h-72l171 462q5 14 14.5 41.5t13.5 39.5l77 4l11 -10l199 -537h-76l-56 148h-227zM207 305l-39 -102h185l-38 102q-40 112 -53 168h-2q-13 -55 -53 -168z" />
<glyph horiz-adv-x="526" d="M92 0h-72l171 462q5 14 14.5 41.5t13.5 39.5l77 4l11 -10l199 -537q-112 -62 -112 -126q0 -49 53 -49q24 0 55 12l13 -31q-39 -32 -92 -32q-44 0 -70 22t-26 61q0 81 119 143h-16l-56 148h-227zM207 305l-39 -102h185l-38 102q-40 112 -53 168h-2q-13 -55 -53 -168z" />
<glyph horiz-adv-x="526" d="M358 702q0 -37 -27.5 -63t-67.5 -26q-35 0 -60 22t-25 55q0 37 28.5 63t68.5 26q36 0 59.5 -22t23.5 -55zM221 694q0 -21 12.5 -34t33.5 -13q20 0 34 15t14 36t-11.5 34t-32.5 13t-35.5 -15t-14.5 -36zM92 0h-72l171 462q5 14 14.5 41.5t13.5 39.5l77 4l11 -10l199 -537 h-76l-56 148h-227zM207 305l-39 -102h185l-38 102q-40 112 -53 168h-2q-13 -55 -53 -168z" />
<glyph horiz-adv-x="526" d="M356 1026l5 -13q-60 -90 -161 -156l-25 12q80 102 112 171zM358 702q0 -37 -27.5 -63t-67.5 -26q-35 0 -60 22t-25 55q0 37 28.5 63t68.5 26q36 0 59.5 -22t23.5 -55zM221 694q0 -21 12.5 -34t33.5 -13q20 0 34 15t14 36t-11.5 34t-32.5 13t-35.5 -15t-14.5 -36zM92 0 h-72l171 462q5 14 14.5 41.5t13.5 39.5l77 4l11 -10l199 -537h-76l-56 148h-227zM207 305l-39 -102h185l-38 102q-40 112 -53 168h-2q-13 -55 -53 -168z" />
<glyph horiz-adv-x="526" d="M195 764q28 0 72.5 -28t64.5 -28q33 0 60 53l24 -4q-5 -44 -28.5 -78t-60.5 -34q-28 0 -73.5 28.5t-64.5 28.5q-33 0 -60 -54l-24 4q6 45 28.5 78.5t61.5 33.5zM92 0h-72l171 462q5 14 14.5 41.5t13.5 39.5l77 4l11 -10l199 -537h-76l-56 148h-227zM207 305l-39 -102h185 l-38 102q-40 112 -53 168h-2q-13 -55 -53 -168z" />
<glyph horiz-adv-x="680" d="M92 0h-72l202 461q20 47 29 78h337l9 -8l-2 -52l-231 5l26 -191l191 3l-2 -56l-182 2l25 -187l222 5v-60h-290q-15 121 -18 148h-178q-7 -16 -66 -148zM294 472q-26 -76 -111 -269h146q-22 189 -28 270z" />
<glyph horiz-adv-x="680" d="M440 784l5 -13q-58 -88 -161 -156l-25 12q76 95 112 171zM92 0h-72l202 461q20 47 29 78h337l9 -8l-2 -52l-231 5l26 -191l191 3l-2 -56l-182 2l25 -187l222 5v-60h-290q-15 121 -18 148h-178q-7 -16 -66 -148zM294 472q-26 -76 -111 -269h146q-22 189 -28 270z" />
<glyph horiz-adv-x="497" d="M231 0h-155v415q0 67 -7 124h166q88 0 140 -38t52 -101q0 -86 -97 -119q59 -13 90.5 -48t31.5 -85q0 -68 -60 -108t-161 -40zM225 485h-74v-183h72q62 0 95 23.5t33 65.5q0 43 -32.5 68.5t-93.5 25.5zM228 249h-77v-194h80q69 0 106 25.5t37 71.5q0 97 -146 97z" />
<glyph horiz-adv-x="508" d="M460 94l9 -61q-64 -41 -161 -41q-113 0 -180.5 72t-67.5 198q0 129 71.5 207t184.5 78q89 0 148 -34l-15 -65q-56 37 -130 37q-80 0 -130.5 -58t-50.5 -161q0 -95 48 -153t134 -58q79 0 140 39z" />
<glyph horiz-adv-x="508" d="M377 784l5 -13q-58 -87 -160 -156l-25 12q79 101 111 171zM460 94l9 -61q-64 -41 -161 -41q-113 0 -180.5 72t-67.5 198q0 129 71.5 207t184.5 78q89 0 148 -34l-15 -65q-56 37 -130 37q-80 0 -130.5 -58t-50.5 -161q0 -95 48 -153t134 -58q79 0 140 39z" />
<glyph horiz-adv-x="508" d="M406 799l24 -18q-58 -76 -104 -156l-62 -7q-50 85 -112 163l24 18q51 -44 119 -117q57 67 111 117zM460 94l9 -61q-64 -41 -161 -41q-113 0 -180.5 72t-67.5 198q0 129 71.5 207t184.5 78q89 0 148 -34l-15 -65q-56 37 -130 37q-80 0 -130.5 -58t-50.5 -161 q0 -95 48 -153t134 -58q79 0 140 39z" />
<glyph horiz-adv-x="508" d="M400 -131q0 -42 -44 -66t-107 -30l-4 32q93 16 93 57q0 35 -66 39l-10 16l24 76q-104 7 -165 77.5t-61 191.5q0 129 71.5 207t184.5 78q89 0 148 -34l-15 -65q-56 37 -130 37q-80 0 -130.5 -58t-50.5 -161q0 -95 48 -153t134 -58q79 0 140 39l9 -61q-54 -35 -138 -40 l-18 -55q38 -5 62.5 -22t24.5 -47z" />
<glyph horiz-adv-x="508" d="M176 613l-24 18q60 80 103 157l62 6q47 -78 113 -163l-25 -18q-57 50 -119 117q-56 -65 -110 -117zM460 94l9 -61q-64 -41 -161 -41q-113 0 -180.5 72t-67.5 198q0 129 71.5 207t184.5 78q89 0 148 -34l-15 -65q-56 37 -130 37q-80 0 -130.5 -58t-50.5 -161 q0 -95 48 -153t134 -58q79 0 140 39z" />
<glyph horiz-adv-x="508" d="M343 711q0 -26 -15.5 -44.5t-41.5 -18.5q-23 0 -36.5 15.5t-13.5 38.5q0 25 17 44t41 19q22 0 35.5 -15t13.5 -39zM460 94l9 -61q-64 -41 -161 -41q-113 0 -180.5 72t-67.5 198q0 129 71.5 207t184.5 78q89 0 148 -34l-15 -65q-56 37 -130 37q-80 0 -130.5 -58 t-50.5 -161q0 -95 48 -153t134 -58q79 0 140 39z" />
<glyph horiz-adv-x="573" d="M513 272q0 -126 -82.5 -199t-206.5 -73h-148v415q0 67 -7 124h162q124 0 203 -72t79 -195zM224 484h-73v-428h76q97 0 152 57t55 156q0 98 -56 156.5t-154 58.5z" />
<glyph horiz-adv-x="573" d="M513 272q0 -126 -82.5 -199t-206.5 -73h-148v243h-80v45h80v127q0 67 -7 124h162q124 0 203 -72t79 -195zM308 243h-157v-187h76q97 0 152 57t55 156q0 98 -56 156.5t-154 58.5h-73v-196h157v-45z" />
<glyph horiz-adv-x="573" d="M392 799l24 -18q-63 -84 -104 -156l-61 -7q-53 87 -113 163l24 18q47 -39 119 -117q57 67 111 117zM513 272q0 -126 -82.5 -199t-206.5 -73h-148v415q0 67 -7 124h162q124 0 203 -72t79 -195zM224 484h-73v-428h76q97 0 152 57t55 156q0 98 -56 156.5t-154 58.5z" />
<glyph horiz-adv-x="573" d="M513 272q0 -126 -82.5 -199t-206.5 -73h-148v243h-80v45h80v127q0 67 -7 124h162q124 0 203 -72t79 -195zM308 243h-157v-187h76q97 0 152 57t55 156q0 98 -56 156.5t-154 58.5h-73v-196h157v-45z" />
<glyph horiz-adv-x="573" d="M513 272q0 -126 -82.5 -199t-206.5 -73h-148v415q0 67 -7 124h162q124 0 203 -72t79 -195zM224 484h-73v-428h76q97 0 152 57t55 156q0 98 -56 156.5t-154 58.5zM333 -159q0 -26 -15.5 -44.5t-41.5 -18.5q-23 0 -36.5 15.5t-13.5 39.5q0 25 17 43.5t41 18.5 q22 0 35.5 -15t13.5 -39z" />
<glyph horiz-adv-x="441" d="M405 60v-60h-329v415q0 67 -7 124h320l9 -8l-2 -52l-245 6v-192l207 3l-1 -56l-206 3v-188z" />
<glyph horiz-adv-x="441" d="M321 784l5 -13q-58 -87 -160 -156l-25 12q79 101 111 171zM405 60v-60h-329v415q0 67 -7 124h320l9 -8l-2 -52l-245 6v-192l207 3l-1 -56l-206 3v-188z" />
<glyph horiz-adv-x="441" d="M327 777h34q-9 -65 -44.5 -102.5t-87.5 -37.5q-50 0 -84 36.5t-41 99.5l34 5q10 -38 35.5 -60t60.5 -22q33 0 57.5 22t35.5 59zM405 60v-60h-329v415q0 67 -7 124h320l9 -8l-2 -52l-245 6v-192l207 3l-1 -56l-206 3v-188z" />
<glyph horiz-adv-x="441" d="M350 799l24 -18q-58 -76 -104 -156l-62 -7q-50 85 -112 163l24 18q51 -44 119 -117q57 67 111 117zM405 60v-60h-329v415q0 67 -7 124h320l9 -8l-2 -52l-245 6v-192l207 3l-1 -56l-206 3v-188z" />
<glyph horiz-adv-x="441" d="M120 613l-24 18q60 80 103 157l62 6q46 -78 113 -163l-24 -18q-57 49 -120 117q-56 -65 -110 -117zM405 60v-60h-329v415q0 67 -7 124h320l9 -8l-2 -52l-245 6v-192l207 3l-1 -56l-206 3v-188z" />
<glyph horiz-adv-x="441" d="M183 710q0 -25 -14.5 -43.5t-38.5 -18.5q-21 0 -34 15t-13 37q0 25 16 43.5t38 18.5q21 0 33.5 -14.5t12.5 -37.5zM384 710q0 -25 -14.5 -43.5t-38.5 -18.5q-21 0 -34 15t-13 37q0 25 15.5 43.5t38.5 18.5q21 0 33.5 -14.5t12.5 -37.5zM405 60v-60h-329v415q0 67 -7 124 h320l9 -8l-2 -52l-245 6v-192l207 3l-1 -56l-206 3v-188z" />
<glyph horiz-adv-x="441" d="M287 711q0 -26 -15.5 -44.5t-41.5 -18.5q-23 0 -36.5 15.5t-13.5 38.5q0 25 17 44t41 19q22 0 35.5 -15t13.5 -39zM405 60v-60h-329v415q0 67 -7 124h320l9 -8l-2 -52l-245 6v-192l207 3l-1 -56l-206 3v-188z" />
<glyph horiz-adv-x="441" d="M405 60v-60h-329v415q0 67 -7 124h320l9 -8l-2 -52l-245 6v-192l207 3l-1 -56l-206 3v-188zM300 -159q0 -26 -15.5 -44.5t-40.5 -18.5q-23 0 -37 15.5t-14 39.5q0 25 17 43.5t41 18.5q22 0 35.5 -15t13.5 -39z" />
<glyph horiz-adv-x="441" d="M301 617q-101 67 -160 156l4 14l70 14q32 -72 111 -171zM405 60v-60h-329v415q0 67 -7 124h320l9 -8l-2 -52l-245 6v-192l207 3l-1 -56l-206 3v-188z" />
<glyph horiz-adv-x="441" d="M97 680v49h273v-49h-273zM405 60v-60h-329v415q0 67 -7 124h320l9 -8l-2 -52l-245 6v-192l207 3l-1 -56l-206 3v-188z" />
<glyph horiz-adv-x="441" d="M405 0q-112 -61 -112 -126q0 -49 52 -49q24 0 56 12l13 -31q-40 -32 -92 -32q-45 0 -71 22t-26 61q0 81 120 143h-269v415q0 67 -7 124h320l9 -8l-2 -52l-245 6v-192l207 3l-1 -56l-206 3v-188l254 5v-60z" />
<glyph horiz-adv-x="441" d="M165 764q28 0 72 -28t65 -28q33 0 60 53l24 -4q-5 -44 -28.5 -78t-60.5 -34q-29 0 -74 28.5t-65 28.5q-32 0 -59 -54l-24 4q5 44 28 78t62 34zM405 60v-60h-329v415q0 67 -7 124h320l9 -8l-2 -52l-245 6v-192l207 3l-1 -56l-206 3v-188z" />
<glyph horiz-adv-x="563" d="M64 239l15 15h345v8q0 112 -53.5 169.5t-144.5 57.5q-78 0 -148 -42l-5 55q69 46 169 46q119 0 190 -72t71 -201q0 -128 -71 -206.5t-182 -78.5q-89 0 -139.5 52.5t-50.5 153.5q0 24 4 43zM136 186q0 -70 31 -107t88 -37q65 0 111 46t56 130l-285 -8q-1 -7 -1 -24z" />
<glyph horiz-adv-x="415" d="M151 0h-75v415q0 67 -7 124h314l9 -8l-1 -52l-240 6v-202l202 2l-1 -57l-201 4v-232z" />
<glyph horiz-adv-x="555" d="M486 239l8 -8l-2 -202q-76 -37 -177 -37q-119 0 -187 70.5t-68 196.5q0 132 74 210t200 78q83 0 143 -30l-13 -66q-58 36 -127 36q-91 0 -145 -57.5t-54 -163.5q0 -97 48 -155.5t138 -58.5q49 0 97 13v28q0 64 -8 138z" />
<glyph horiz-adv-x="555" d="M370 784l4 -13q-59 -89 -160 -156l-25 12q79 101 111 171zM486 239l8 -8l-2 -202q-76 -37 -177 -37q-119 0 -187 70.5t-68 196.5q0 132 74 210t200 78q83 0 143 -30l-13 -66q-58 36 -127 36q-91 0 -145 -57.5t-54 -163.5q0 -97 48 -155.5t138 -58.5q49 0 97 13v28 q0 64 -8 138z" />
<glyph horiz-adv-x="555" d="M375 777h35q-10 -65 -45 -102.5t-88 -37.5q-50 0 -84 36.5t-41 99.5l34 5q10 -38 35.5 -60t61.5 -22q33 0 57.5 22t34.5 59zM486 239l8 -8l-2 -202q-76 -37 -177 -37q-119 0 -187 70.5t-68 196.5q0 132 74 210t200 78q83 0 143 -30l-13 -66q-58 36 -127 36 q-91 0 -145 -57.5t-54 -163.5q0 -97 48 -155.5t138 -58.5q49 0 97 13v28q0 64 -8 138z" />
<glyph horiz-adv-x="555" d="M398 799l24 -18q-63 -84 -104 -156l-61 -7q-53 87 -113 163l24 18q47 -39 119 -117q57 67 111 117zM486 239l8 -8l-2 -202q-76 -37 -177 -37q-119 0 -187 70.5t-68 196.5q0 132 74 210t200 78q83 0 143 -30l-13 -66q-58 36 -127 36q-91 0 -145 -57.5t-54 -163.5 q0 -97 48 -155.5t138 -58.5q49 0 97 13v28q0 64 -8 138z" />
<glyph horiz-adv-x="555" d="M168 613l-24 18q64 85 104 157l61 6q47 -78 113 -163l-24 -18q-48 41 -120 117q-56 -65 -110 -117zM486 239l8 -8l-2 -202q-76 -37 -177 -37q-119 0 -187 70.5t-68 196.5q0 132 74 210t200 78q83 0 143 -30l-13 -66q-58 36 -127 36q-91 0 -145 -57.5t-54 -163.5 q0 -97 48 -155.5t138 -58.5q49 0 97 13v28q0 64 -8 138z" />
<glyph horiz-adv-x="555" d="M486 239l8 -8l-2 -202q-76 -37 -177 -37q-119 0 -187 70.5t-68 196.5q0 132 74 210t200 78q83 0 143 -30l-13 -66q-58 36 -127 36q-91 0 -145 -57.5t-54 -163.5q0 -97 48 -155.5t138 -58.5q49 0 97 13v28q0 64 -8 138zM273 -312q30 52 41 94q-19 2 -31.5 16.5t-12.5 35.5 q0 23 14.5 40t38.5 17q23 0 37 -16t14 -44q0 -70 -73 -162z" />
<glyph horiz-adv-x="555" d="M335 711q0 -26 -15.5 -44.5t-40.5 -18.5q-23 0 -37 15.5t-14 38.5q0 25 17 44t41 19q22 0 35.5 -15t13.5 -39zM486 239l8 -8l-2 -202q-76 -37 -177 -37q-119 0 -187 70.5t-68 196.5q0 132 74 210t200 78q83 0 143 -30l-13 -66q-58 36 -127 36q-91 0 -145 -57.5 t-54 -163.5q0 -97 48 -155.5t138 -58.5q49 0 97 13v28q0 64 -8 138z" />
<glyph horiz-adv-x="583" d="M151 0h-75v412q0 60 -7 127l73 8l9 -8v-243h281v116q0 70 -6 127l73 8l8 -8v-539h-75v240h-281v-240z" />
<glyph horiz-adv-x="583" d="M151 0h-75v397h-75v45h74q-1 52 -6 97l73 8l9 -8v-97h281q-1 52 -6 97l73 8l8 -8v-97h75v-45h-75v-397h-75v240h-281v-240zM151 296h281v101h-281v-101z" />
<glyph horiz-adv-x="583" d="M178 613l-24 18q64 85 104 157l61 6q47 -78 113 -163l-24 -18q-48 41 -120 117q-56 -65 -110 -117zM151 0h-75v412q0 60 -7 127l73 8l9 -8v-243h281v116q0 70 -6 127l73 8l8 -8v-539h-75v240h-281v-240z" />
<glyph horiz-adv-x="583" d="M151 0h-75v412q0 60 -7 127l73 8l9 -8v-243h281v116q0 70 -6 127l73 8l8 -8v-539h-75v240h-281v-240zM345 -159q0 -26 -15.5 -44.5t-40.5 -18.5q-23 0 -37 15.5t-14 39.5q0 25 17 43.5t41 18.5q22 0 35.5 -15t13.5 -39z" />
<glyph horiz-adv-x="226" d="M151 0h-75v412q0 60 -7 127l73 8l9 -8v-539z" />
<glyph horiz-adv-x="226" d="M151 0h-75v412q0 60 -7 127l73 8l9 -8v-539z" />
<glyph horiz-adv-x="226" d="M199 784l5 -13q-58 -88 -161 -156l-25 12q79 101 112 171zM151 0h-75v412q0 60 -7 127l73 8l9 -8v-539z" />
<glyph horiz-adv-x="226" d="M189 777h35q-8 -65 -39.5 -103t-77.5 -38q-43 0 -73 36.5t-36 99.5l34 5q7 -38 28.5 -59.5t51.5 -21.5q28 0 48.5 22t28.5 59zM151 0h-75v412q0 60 -7 127l73 8l9 -8v-539z" />
<glyph horiz-adv-x="226" d="M195 801l24 -13q-38 -82 -67 -160l-74 -6q-36 86 -76 166l23 13q45 -49 89 -116q42 69 81 116zM151 0h-75v412q0 60 -7 127l73 8l9 -8v-539z" />
<glyph horiz-adv-x="226" d="M26 621l-24 13q38 82 67 160l74 6q36 -86 76 -166l-24 -13q-36 40 -89 115q-50 -79 -80 -115zM151 0h-75v412q0 60 -7 127l73 8l9 -8v-539z" />
<glyph horiz-adv-x="226" d="M83 713q0 -26 -13.5 -44.5t-36.5 -18.5q-20 0 -32.5 15.5t-12.5 37.5q0 24 15.5 42.5t36.5 18.5q19 0 31 -14t12 -37zM234 713q0 -25 -14 -44t-37 -19q-20 0 -32 15.5t-12 37.5q0 24 15 42.5t36 18.5q20 0 32 -14t12 -37zM151 0h-75v412q0 60 -7 127l73 8l9 -8v-539z" />
<glyph horiz-adv-x="226" d="M164 711q0 -26 -15.5 -44.5t-40.5 -18.5q-23 0 -36.5 15.5t-13.5 38.5q0 25 17 44t41 19q22 0 35 -15t13 -39zM151 0h-75v412q0 60 -7 127l73 8l9 -8v-539z" />
<glyph horiz-adv-x="226" d="M151 0h-75v412q0 60 -7 127l73 8l9 -8v-539zM164 -159q0 -26 -15.5 -44.5t-40.5 -18.5q-23 0 -36.5 15.5t-13.5 39.5q0 25 17 43.5t41 18.5q22 0 35 -15t13 -39z" />
<glyph horiz-adv-x="226" d="M179 617q-103 68 -161 156l5 14l69 14q36 -78 112 -171zM151 0h-75v412q0 60 -7 127l73 8l9 -8v-539z" />
<glyph horiz-adv-x="453" d="M151 0h-75v412q0 60 -7 127l73 8l9 -8v-539zM252 -149l-22 31q73 60 73 180v350q0 62 -9 125l75 10l9 -8v-477q0 -83 -29 -131t-97 -80z" />
<glyph horiz-adv-x="226" d="M11 680v49h201v-49h-201zM151 0h-75v412q0 60 -7 127l73 8l9 -8v-539z" />
<glyph horiz-adv-x="226" d="M151 0q-66 -63 -66 -118t53 -55q24 0 55 12l13 -31q-37 -32 -91 -32q-45 0 -71 23.5t-27 64.5q0 73 83 136h-24v412q0 60 -7 127l73 8l9 -8v-539z" />
<glyph horiz-adv-x="226" d="M61 767q23 0 56.5 -28t47.5 -28q28 0 46 53l23 -4q-2 -42 -21.5 -76.5t-52.5 -34.5q-23 0 -57 28t-46 28q-30 0 -47 -54l-23 4q3 42 22.5 77t51.5 35zM151 0h-75v412q0 60 -7 127l73 8l9 -8v-539z" />
<glyph horiz-adv-x="227" d="M27 -149l-23 31q73 60 73 180v350q0 71 -9 125l76 10l8 -8v-477q0 -83 -29 -131t-96 -80z" />
<glyph horiz-adv-x="227" d="M27 -149l-23 31q73 60 73 180v350q0 71 -9 125l76 10l8 -8v-477q0 -83 -29 -131t-96 -80z" />
<glyph horiz-adv-x="227" d="M25 621l-23 13q45 100 66 160l74 6q28 -68 76 -166l-23 -13q-43 48 -89 115q-47 -75 -81 -115zM27 -149l-23 31q73 60 73 180v350q0 71 -9 125l76 10l8 -8v-477q0 -83 -29 -131t-96 -80z" />
<glyph horiz-adv-x="499" d="M76 412q0 68 -7 127l72 8l8 -8v-250h79q64 93 174 258l64 -9l6 -8l-182 -253l201 -277l-82 -7q-84 111 -179 241h-81v-234h-73v412z" />
<glyph horiz-adv-x="499" d="M76 412q0 68 -7 127l72 8l8 -8v-250h79q64 93 174 258l64 -9l6 -8l-182 -253l201 -277l-82 -7q-84 111 -179 241h-81v-234h-73v412zM214 -312q30 52 41 94q-19 1 -31.5 16t-12.5 36q0 23 14.5 40t38.5 17q23 0 36.5 -16t13.5 -44q0 -68 -72 -162z" />
<glyph horiz-adv-x="499" d="M76 412q0 68 -7 127l72 8l8 -8v-250h79q64 93 174 258l64 -9l6 -8l-182 -253l201 -277l-82 -7q-84 111 -179 241h-81v-234h-73v412z" />
<glyph horiz-adv-x="414" d="M395 60v-60h-319v413q0 59 -7 126l73 8l9 -8v-484z" />
<glyph horiz-adv-x="414" d="M249 784l5 -13q-58 -87 -160 -156l-25 12q79 101 111 171zM395 60v-60h-319v413q0 59 -7 126l73 8l9 -8v-484z" />
<glyph horiz-adv-x="414" d="M355 585l7 -12q-16 -103 -76 -211l-26 4q28 126 29 215zM395 60v-60h-319v413q0 59 -7 126l73 8l9 -8v-484z" />
<glyph horiz-adv-x="414" d="M395 60v-60h-319v413q0 59 -7 126l73 8l9 -8v-484zM185 -312q30 52 41 94q-19 2 -31.5 16.5t-12.5 35.5q0 22 14.5 39.5t38.5 17.5q23 0 37 -16t14 -44q0 -70 -73 -162z" />
<glyph horiz-adv-x="414" d="M317 274q0 -26 -15.5 -44.5t-40.5 -18.5q-23 0 -36.5 15.5t-13.5 39.5q0 25 17 43.5t41 18.5q22 0 35 -15t13 -39zM395 60v-60h-319v413q0 59 -7 126l73 8l9 -8v-484z" />
<glyph horiz-adv-x="414" d="M395 60v-60h-319v213l-99 -55l-22 41l121 66v148q0 59 -7 126l73 8l9 -8v-232l130 72l23 -40l-153 -85v-199z" />
<glyph horiz-adv-x="735" d="M606 547l9 -8l70 -539h-74l-27 204q-17 123 -27 251h-2q-22 -83 -80 -251l-69 -204h-84l-69 204q-54 152 -80 251h-2q-4 -53 -29 -251l-27 -204h-65l72 542l89 5l98 -265q39 -120 59 -213h1q23 95 59 213l96 260z" />
<glyph horiz-adv-x="582" d="M297 318q106 -152 141 -221h2q-6 68 -6 299q0 66 -7 143l71 8l8 -9v-538h-74q-119 179 -152 227q-91 131 -137 214h-1q6 -67 6 -181v-260h-72v415q0 57 -7 124l77 8q29 -44 79.5 -120.5t71.5 -108.5z" />
<glyph horiz-adv-x="582" d="M381 784l5 -13q-58 -88 -161 -156l-25 12q76 95 112 171zM297 318q106 -152 141 -221h2q-6 68 -6 299q0 66 -7 143l71 8l8 -9v-538h-74q-119 179 -152 227q-91 131 -137 214h-1q6 -67 6 -181v-260h-72v415q0 57 -7 124l77 8q29 -44 79.5 -120.5t71.5 -108.5z" />
<glyph horiz-adv-x="582" d="M409 799l24 -18q-59 -79 -103 -156l-62 -7q-47 80 -113 163l24 18q42 -35 120 -117q56 65 110 117zM297 318q106 -152 141 -221h2q-6 68 -6 299q0 66 -7 143l71 8l8 -9v-538h-74q-119 179 -152 227q-91 131 -137 214h-1q6 -67 6 -181v-260h-72v415q0 57 -7 124l77 8 q29 -44 79.5 -120.5t71.5 -108.5z" />
<glyph horiz-adv-x="582" d="M297 318q106 -152 141 -221h2q-6 68 -6 299q0 66 -7 143l71 8l8 -9v-538h-74q-119 179 -152 227q-91 131 -137 214h-1q6 -67 6 -181v-260h-72v415q0 57 -7 124l77 8q29 -44 79.5 -120.5t71.5 -108.5zM253 -312q30 52 41 94q-19 2 -31.5 16.5t-12.5 35.5q0 22 14.5 39.5 t38.5 17.5q23 0 37 -16t14 -44q0 -70 -73 -162z" />
<glyph horiz-adv-x="582" d="M346 711q0 -26 -15.5 -44.5t-40.5 -18.5q-23 0 -36.5 15.5t-13.5 38.5q0 25 17 44t41 19q22 0 35 -15t13 -39zM297 318q106 -152 141 -221h2q-6 68 -6 299q0 66 -7 143l71 8l8 -9v-538h-74q-119 179 -152 227q-91 131 -137 214h-1q6 -67 6 -181v-260h-72v415q0 57 -7 124 l77 8q29 -44 79.5 -120.5t71.5 -108.5z" />
<glyph horiz-adv-x="582" d="M148 0h-72v415q0 57 -7 124l77 8q29 -44 79.5 -120.5t71.5 -108.5q106 -152 141 -221h2q-6 76 -6 299q0 66 -7 143l71 8l8 -9v-476q0 -83 -29 -131t-96 -80l-23 31q59 44 70 123q-101 154 -148 222q-91 131 -137 214h-1q6 -67 6 -181v-260z" />
<glyph horiz-adv-x="583" d="M27 -149l-23 31q73 60 73 180v353q0 71 -7 124l77 8q29 -44 79.5 -120t72.5 -109q108 -157 141 -221h1q-6 76 -6 299q0 81 -7 143l71 8l8 -9v-538h-74q-119 179 -152 227q-98 142 -136 214h-2q6 -67 6 -181v-198q0 -83 -28 -131t-94 -80z" />
<glyph horiz-adv-x="582" d="M225 764q28 0 72 -28t64 -28q34 0 61 53l24 -4q-5 -44 -28.5 -78t-61.5 -34q-28 0 -73 28.5t-65 28.5q-31 0 -60 -54l-24 4q6 44 29 78t62 34zM297 318q106 -152 141 -221h2q-6 68 -6 299q0 66 -7 143l71 8l8 -9v-538h-74q-119 179 -152 227q-91 131 -137 214h-1 q6 -67 6 -181v-260h-72v415q0 57 -7 124l77 8q29 -44 79.5 -120.5t71.5 -108.5z" />
<glyph horiz-adv-x="602" d="M542 271q0 -132 -70 -205.5t-176 -73.5q-104 0 -170 71.5t-66 197.5q0 130 70 208t178 78q104 0 169 -74.5t65 -201.5zM138 269q0 -98 43.5 -158.5t119.5 -60.5q75 0 118.5 58.5t43.5 160.5q0 100 -41 160t-116 60t-121.5 -59.5t-46.5 -160.5z" />
<glyph horiz-adv-x="602" d="M389 784l5 -13q-58 -88 -161 -156l-25 12q76 95 112 171zM542 271q0 -132 -70 -205.5t-176 -73.5q-104 0 -170 71.5t-66 197.5q0 130 70 208t178 78q104 0 169 -74.5t65 -201.5zM138 269q0 -98 43.5 -158.5t119.5 -60.5q75 0 118.5 58.5t43.5 160.5q0 100 -41 160 t-116 60t-121.5 -59.5t-46.5 -160.5z" />
<glyph horiz-adv-x="602" d="M395 777h34q-9 -65 -44.5 -102.5t-87.5 -37.5q-50 0 -84 36.5t-41 99.5l34 5q10 -38 35.5 -60t60.5 -22q32 0 57 22t36 59zM542 271q0 -132 -70 -205.5t-176 -73.5q-104 0 -170 71.5t-66 197.5q0 130 70 208t178 78q104 0 169 -74.5t65 -201.5zM138 269 q0 -98 43.5 -158.5t119.5 -60.5q75 0 118.5 58.5t43.5 160.5q0 100 -41 160t-116 60t-121.5 -59.5t-46.5 -160.5z" />
<glyph horiz-adv-x="602" d="M417 799l24 -18q-59 -79 -103 -156l-62 -7q-47 80 -113 163l24 18q42 -35 120 -117q56 65 110 117zM542 271q0 -132 -70 -205.5t-176 -73.5q-104 0 -170 71.5t-66 197.5q0 130 70 208t178 78q104 0 169 -74.5t65 -201.5zM138 269q0 -98 43.5 -158.5t119.5 -60.5 q75 0 118.5 58.5t43.5 160.5q0 100 -41 160t-116 60t-121.5 -59.5t-46.5 -160.5z" />
<glyph horiz-adv-x="602" d="M187 613l-24 18q59 77 104 157l62 6q50 -83 112 -163l-24 -18q-52 45 -119 117q-57 -67 -111 -117zM542 271q0 -132 -70 -205.5t-176 -73.5q-104 0 -170 71.5t-66 197.5q0 130 70 208t178 78q104 0 169 -74.5t65 -201.5zM138 269q0 -98 43.5 -158.5t119.5 -60.5 q75 0 118.5 58.5t43.5 160.5q0 100 -41 160t-116 60t-121.5 -59.5t-46.5 -160.5z" />
<glyph horiz-adv-x="602" d="M251 710q0 -25 -14.5 -43.5t-38.5 -18.5q-21 0 -34 15t-13 37q0 25 15.5 43.5t38.5 18.5q21 0 33.5 -14.5t12.5 -37.5zM451 710q0 -25 -14 -43.5t-38 -18.5q-21 0 -34.5 15t-13.5 37q0 25 16 43.5t39 18.5q21 0 33 -14.5t12 -37.5zM542 271q0 -132 -70 -205.5t-176 -73.5 q-104 0 -170 71.5t-66 197.5q0 130 70 208t178 78q104 0 169 -74.5t65 -201.5zM138 269q0 -98 43.5 -158.5t119.5 -60.5q75 0 118.5 58.5t43.5 160.5q0 100 -41 160t-116 60t-121.5 -59.5t-46.5 -160.5z" />
<glyph horiz-adv-x="602" d="M542 271q0 -132 -70 -205.5t-176 -73.5q-104 0 -170 71.5t-66 197.5q0 130 70 208t178 78q104 0 169 -74.5t65 -201.5zM138 269q0 -98 43.5 -158.5t119.5 -60.5q75 0 118.5 58.5t43.5 160.5q0 100 -41 160t-116 60t-121.5 -59.5t-46.5 -160.5zM354 -159 q0 -26 -15.5 -44.5t-40.5 -18.5q-23 0 -36.5 15.5t-13.5 39.5q0 25 17 43.5t41 18.5q22 0 35 -15t13 -39z" />
<glyph horiz-adv-x="602" d="M369 617q-103 68 -161 156l5 14l69 14q34 -73 112 -171zM542 271q0 -132 -70 -205.5t-176 -73.5q-104 0 -170 71.5t-66 197.5q0 130 70 208t178 78q104 0 169 -74.5t65 -201.5zM138 269q0 -98 43.5 -158.5t119.5 -60.5q75 0 118.5 58.5t43.5 160.5q0 100 -41 160t-116 60 t-121.5 -59.5t-46.5 -160.5z" />
<glyph horiz-adv-x="602" d="M314 789l5 -14q-57 -90 -148 -158l-25 13q73 87 112 171zM448 789l5 -14q-57 -90 -148 -158l-25 13q74 88 111 171zM542 271q0 -132 -70 -205.5t-176 -73.5q-104 0 -170 71.5t-66 197.5q0 130 70 208t178 78q104 0 169 -74.5t65 -201.5zM138 269q0 -98 43.5 -158.5 t119.5 -60.5q75 0 118.5 58.5t43.5 160.5q0 100 -41 160t-116 60t-121.5 -59.5t-46.5 -160.5z" />
<glyph horiz-adv-x="602" d="M165 680v49h272v-49h-272zM542 271q0 -132 -70 -205.5t-176 -73.5q-104 0 -170 71.5t-66 197.5q0 130 70 208t178 78q104 0 169 -74.5t65 -201.5zM138 269q0 -98 43.5 -158.5t119.5 -60.5q75 0 118.5 58.5t43.5 160.5q0 100 -41 160t-116 60t-121.5 -59.5t-46.5 -160.5z " />
<glyph horiz-adv-x="602" d="M542 271q0 -173 -120 -246q-115 -73 -115 -145q0 -53 53 -53q23 0 55 12l13 -31q-38 -32 -93 -32q-44 0 -70 22.5t-26 63.5q0 70 87 132q-20 -2 -30 -2q-104 0 -170 71.5t-66 197.5q0 130 70 208t178 78q104 0 169 -74.5t65 -201.5zM138 269q0 -98 43.5 -158.5 t119.5 -60.5q75 0 118.5 58.5t43.5 160.5q0 100 -41 160t-116 60t-121.5 -59.5t-46.5 -160.5z" />
<glyph horiz-adv-x="602" d="M542 271q0 -132 -70 -205.5t-176 -73.5q-101 0 -165 66l-65 -69l-32 30l69 75q-43 68 -43 167q0 130 70 208t178 78q97 0 160 -65l67 70l33 -30l-72 -76q46 -71 46 -175zM138 269q0 -66 20 -117l263 279q-42 58 -115 58q-75 0 -121.5 -59.5t-46.5 -160.5zM463 269 q0 69 -20 121l-262 -279q45 -61 120 -61t118.5 58.5t43.5 160.5z" />
<glyph horiz-adv-x="602" d="M389 784l5 -13q-58 -88 -161 -156l-25 12q76 95 112 171zM542 271q0 -132 -70 -205.5t-176 -73.5q-101 0 -165 66l-65 -69l-32 30l69 75q-43 68 -43 167q0 130 70 208t178 78q97 0 160 -65l67 70l33 -30l-72 -76q46 -71 46 -175zM138 269q0 -66 20 -117l263 279 q-42 58 -115 58q-75 0 -121.5 -59.5t-46.5 -160.5zM463 269q0 69 -20 121l-262 -279q45 -61 120 -61t118.5 58.5t43.5 160.5z" />
<glyph horiz-adv-x="602" d="M233 764q28 0 72 -28t64 -28q34 0 61 53l24 -4q-5 -44 -28.5 -78t-61.5 -34q-28 0 -73 28.5t-65 28.5q-31 0 -60 -54l-24 4q6 44 29 78t62 34zM542 271q0 -132 -70 -205.5t-176 -73.5q-104 0 -170 71.5t-66 197.5q0 130 70 208t178 78q104 0 169 -74.5t65 -201.5z M138 269q0 -98 43.5 -158.5t119.5 -60.5q75 0 118.5 58.5t43.5 160.5q0 100 -41 160t-116 60t-121.5 -59.5t-46.5 -160.5z" />
<glyph horiz-adv-x="780" d="M744 60v-60h-379v1q-33 -9 -69 -9q-104 0 -170 71.5t-66 197.5q0 130 70 208t178 78q35 0 62 -8h358l9 -8l-2 -52l-268 4q68 -70 74 -190l156 3l-1 -56l-155 2q-9 -119 -79 -186zM138 269q0 -98 43.5 -158.5t119.5 -60.5q75 0 118.5 58.5t43.5 160.5q0 100 -41 160 t-116 60t-121.5 -59.5t-46.5 -160.5z" />
<glyph horiz-adv-x="459" d="M151 0h-75v415q0 67 -7 124h154q95 0 150.5 -46t55.5 -125q0 -83 -61 -129.5t-159 -46.5h-58v-192zM211 485h-60v-237h58q69 0 105 30t36 87q0 55 -34 87.5t-105 32.5z" />
<glyph horiz-adv-x="466" d="M151 0h-75v415q0 67 -7 124h82v-89h79q95 0 150.5 -46.5t55.5 -125.5q0 -83 -61 -129t-158 -46h-66v-103zM218 395h-67v-237h65q69 0 105.5 30.5t36.5 87.5q0 55 -34.5 87t-105.5 32z" />
<glyph horiz-adv-x="612" d="M542 271q0 -115 -54 -186t-141 -88q130 -56 284 -56l-12 -72q-171 0 -338 123q-99 6 -160 77t-61 192q0 130 70 208t178 78q104 0 169 -74.5t65 -201.5zM138 269q0 -98 43.5 -158.5t119.5 -60.5q75 0 118.5 58.5t43.5 160.5q0 100 -41 160t-116 60t-121.5 -59.5 t-46.5 -160.5z" />
<glyph horiz-adv-x="490" d="M151 0h-75v415q0 67 -7 124h146q100 0 157 -44.5t57 -120.5q0 -56 -32 -93.5t-86 -54.5l153 -226l-82 -7q-103 158 -138 215h-93v-208zM211 485h-60v-223h58q69 0 105 28t36 81q0 52 -34 83t-105 31z" />
<glyph horiz-adv-x="490" d="M330 784l5 -13q-58 -88 -161 -156l-25 12q79 101 112 171zM151 0h-75v415q0 67 -7 124h146q100 0 157 -44.5t57 -120.5q0 -56 -32 -93.5t-86 -54.5l153 -226l-82 -7q-103 158 -138 215h-93v-208zM211 485h-60v-223h58q69 0 105 28t36 81q0 52 -34 83t-105 31z" />
<glyph horiz-adv-x="490" d="M358 799l24 -18q-63 -84 -104 -156l-61 -7q-47 80 -113 163l24 18q47 -39 119 -117q60 69 111 117zM151 0h-75v415q0 67 -7 124h146q100 0 157 -44.5t57 -120.5q0 -56 -32 -93.5t-86 -54.5l153 -226l-82 -7q-103 158 -138 215h-93v-208zM211 485h-60v-223h58q69 0 105 28 t36 81q0 52 -34 83t-105 31z" />
<glyph horiz-adv-x="490" d="M151 0h-75v415q0 67 -7 124h146q100 0 157 -44.5t57 -120.5q0 -56 -32 -93.5t-86 -54.5l153 -226l-82 -7q-103 158 -138 215h-93v-208zM211 485h-60v-223h58q69 0 105 28t36 81q0 52 -34 83t-105 31zM208 -312q32 58 41 94q-19 1 -32 16t-13 36q0 22 15 39.5t39 17.5 q22 0 36 -16t14 -44q0 -70 -73 -162z" />
<glyph horiz-adv-x="490" d="M151 0h-75v415q0 67 -7 124h146q100 0 157 -44.5t57 -120.5q0 -56 -32 -93.5t-86 -54.5l153 -226l-82 -7q-103 158 -138 215h-93v-208zM211 485h-60v-223h58q69 0 105 28t36 81q0 52 -34 83t-105 31zM313 -159q0 -26 -15.5 -44.5t-40.5 -18.5q-23 0 -36.5 15.5 t-13.5 39.5q0 25 17 43.5t41 18.5q22 0 35 -15t13 -39z" />
<glyph horiz-adv-x="439" d="M391 136q0 -66 -53.5 -105t-140.5 -39t-149 29l8 65q64 -34 146 -34q53 0 82.5 21.5t29.5 59.5q0 32 -27 56t-65 42t-76.5 37.5t-65.5 53.5t-27 79q0 67 54 106.5t138 39.5q79 0 135 -24l-11 -65q-56 30 -126 30q-52 0 -82.5 -22t-30.5 -61q0 -32 27 -57t65 -42.5 t76.5 -37.5t65.5 -53.5t27 -78.5z" />
<glyph horiz-adv-x="439" d="M310 784l5 -13q-58 -88 -161 -156l-25 12q76 95 112 171zM391 136q0 -66 -53.5 -105t-140.5 -39t-149 29l8 65q64 -34 146 -34q53 0 82.5 21.5t29.5 59.5q0 32 -27 56t-65 42t-76.5 37.5t-65.5 53.5t-27 79q0 67 54 106.5t138 39.5q79 0 135 -24l-11 -65q-56 30 -126 30 q-52 0 -82.5 -22t-30.5 -61q0 -32 27 -57t65 -42.5t76.5 -37.5t65.5 -53.5t27 -78.5z" />
<glyph horiz-adv-x="439" d="M338 799l24 -18q-59 -79 -103 -156l-62 -7q-47 80 -113 163l24 18q42 -35 120 -117q56 65 110 117zM391 136q0 -66 -53.5 -105t-140.5 -39t-149 29l8 65q64 -34 146 -34q53 0 82.5 21.5t29.5 59.5q0 32 -27 56t-65 42t-76.5 37.5t-65.5 53.5t-27 79q0 67 54 106.5 t138 39.5q79 0 135 -24l-11 -65q-56 30 -126 30q-52 0 -82.5 -22t-30.5 -61q0 -32 27 -57t65 -42.5t76.5 -37.5t65.5 -53.5t27 -78.5z" />
<glyph horiz-adv-x="439" d="M314 -131q0 -42 -43.5 -66t-107.5 -30l-3 32q92 16 92 57q0 35 -66 39l-10 16l24 75h-3q-87 0 -149 29l8 65q64 -34 146 -34q53 0 82.5 21.5t29.5 59.5q0 32 -27 56t-65 42t-76.5 37.5t-65.5 53.5t-27 79q0 67 54 106.5t138 39.5q79 0 135 -24l-11 -65q-56 30 -126 30 q-52 0 -82.5 -22t-30.5 -61q0 -32 27 -57t65 -42.5t76.5 -37.5t65.5 -53.5t27 -78.5q0 -55 -39 -92t-105 -48l-19 -58q38 -5 62 -22t24 -47z" />
<glyph horiz-adv-x="439" d="M108 613l-24 18q59 77 104 157l62 6q50 -83 112 -163l-24 -18q-52 45 -119 117q-57 -67 -111 -117zM391 136q0 -66 -53.5 -105t-140.5 -39t-149 29l8 65q64 -34 146 -34q53 0 82.5 21.5t29.5 59.5q0 32 -27 56t-65 42t-76.5 37.5t-65.5 53.5t-27 79q0 67 54 106.5 t138 39.5q79 0 135 -24l-11 -65q-56 30 -126 30q-52 0 -82.5 -22t-30.5 -61q0 -32 27 -57t65 -42.5t76.5 -37.5t65.5 -53.5t27 -78.5z" />
<glyph horiz-adv-x="439" d="M391 136q0 -66 -53.5 -105t-140.5 -39t-149 29l8 65q64 -34 146 -34q53 0 82.5 21.5t29.5 59.5q0 32 -27 56t-65 42t-76.5 37.5t-65.5 53.5t-27 79q0 67 54 106.5t138 39.5q79 0 135 -24l-11 -65q-56 30 -126 30q-52 0 -82.5 -22t-30.5 -61q0 -32 27 -57t65 -42.5 t76.5 -37.5t65.5 -53.5t27 -78.5zM172 -312q30 52 41 94q-19 2 -31.5 16.5t-12.5 35.5q0 23 14.5 40t38.5 17q23 0 37 -16t14 -44q0 -70 -73 -162z" />
<glyph horiz-adv-x="439" d="M391 136q0 -66 -53.5 -105t-140.5 -39t-149 29l8 65q64 -34 146 -34q53 0 82.5 21.5t29.5 59.5q0 32 -27 56t-65 42t-76.5 37.5t-65.5 53.5t-27 79q0 67 54 106.5t138 39.5q79 0 135 -24l-11 -65q-56 30 -126 30q-52 0 -82.5 -22t-30.5 -61q0 -32 27 -57t65 -42.5 t76.5 -37.5t65.5 -53.5t27 -78.5zM278 -159q0 -26 -15.5 -44.5t-40.5 -18.5q-23 0 -37 15.5t-14 39.5q0 25 17 43.5t41 18.5q22 0 35.5 -15t13.5 -39z" />
<glyph horiz-adv-x="588" d="M135 -10l-71 10q24 56 24 136v225q0 89 59.5 137.5t156.5 48.5q107 0 178 -58v-22l-138 -150q91 -37 143.5 -79.5t52.5 -106.5q0 -59 -47.5 -99t-135.5 -40q-77 0 -111 18v62q43 -20 104 -20q50 0 81.5 20t31.5 58q0 48 -49 83.5t-143 70.5v22l125 143q-40 38 -101 38 q-62 0 -98 -33.5t-36 -95.5v-226q0 -88 -26 -142z" />
<glyph horiz-adv-x="461" d="M268 0h-75v483q-58 -1 -176 -5l5 61h417l4 -61q-115 4 -175 5v-483z" />
<glyph horiz-adv-x="461" d="M268 0h-75v249h-145v45h145v189q-58 -1 -176 -5l5 61h417l4 -61q-115 4 -175 5v-189h146v-45h-146v-249z" />
<glyph horiz-adv-x="461" d="M347 799l24 -18q-63 -84 -104 -156l-61 -7q-47 80 -113 163l24 18q47 -39 119 -117q60 69 111 117zM268 0h-75v483q-58 -1 -176 -5l5 61h417l4 -61q-115 4 -175 5v-483z" />
<glyph horiz-adv-x="461" d="M268 0h-12l-20 -62q38 -5 62.5 -22t24.5 -47q0 -42 -44 -66t-108 -30l-3 32q92 16 92 57q0 35 -65 39l-10 16l25 83h-17v483q-58 -1 -176 -5l5 61h417l4 -61q-115 4 -175 5v-483z" />
<glyph horiz-adv-x="461" d="M268 0h-75v483q-58 -1 -176 -5l5 61h417l4 -61q-115 4 -175 5v-483zM180 -312q30 52 41 94q-19 2 -31.5 16.5t-12.5 35.5q0 22 14.5 39.5t38.5 17.5q23 0 37 -16t14 -44q0 -70 -73 -162z" />
<glyph horiz-adv-x="461" d="M268 0h-75v483q-58 -1 -176 -5l5 61h417l4 -61q-115 4 -175 5v-483zM286 -159q0 -26 -15.5 -44.5t-40.5 -18.5q-23 0 -36.5 15.5t-13.5 39.5q0 25 17 43.5t41 18.5q22 0 35 -15t13 -39z" />
<glyph horiz-adv-x="557" d="M73 414q0 62 -9 127l78 6l6 -6v-359q0 -62 36.5 -95.5t95.5 -33.5q60 0 96 33t36 96v243q0 67 -8 116l81 6v-369q0 -89 -59 -137.5t-151 -48.5q-89 0 -145.5 48.5t-56.5 137.5v236z" />
<glyph horiz-adv-x="557" d="M368 784l5 -13q-58 -88 -161 -156l-25 12q76 95 112 171zM73 414q0 62 -9 127l78 6l6 -6v-359q0 -62 36.5 -95.5t95.5 -33.5q60 0 96 33t36 96v243q0 67 -8 116l81 6v-369q0 -89 -59 -137.5t-151 -48.5q-89 0 -145.5 48.5t-56.5 137.5v236z" />
<glyph horiz-adv-x="557" d="M374 777h34q-9 -65 -44.5 -102.5t-87.5 -37.5q-50 0 -84 36.5t-41 99.5l34 5q10 -38 35.5 -60t60.5 -22q32 0 57 22t36 59zM73 414q0 62 -9 127l78 6l6 -6v-359q0 -62 36.5 -95.5t95.5 -33.5q60 0 96 33t36 96v243q0 67 -8 116l81 6v-369q0 -89 -59 -137.5t-151 -48.5 q-89 0 -145.5 48.5t-56.5 137.5v236z" />
<glyph horiz-adv-x="557" d="M396 799l24 -18q-59 -79 -103 -156l-62 -7q-47 80 -113 163l24 18q42 -35 120 -117q56 65 110 117zM73 414q0 62 -9 127l78 6l6 -6v-359q0 -62 36.5 -95.5t95.5 -33.5q60 0 96 33t36 96v243q0 67 -8 116l81 6v-369q0 -89 -59 -137.5t-151 -48.5q-89 0 -145.5 48.5 t-56.5 137.5v236z" />
<glyph horiz-adv-x="557" d="M166 613l-24 18q59 77 104 157l62 6q50 -83 112 -163l-24 -18q-52 45 -119 117q-57 -67 -111 -117zM73 414q0 62 -9 127l78 6l6 -6v-359q0 -62 36.5 -95.5t95.5 -33.5q60 0 96 33t36 96v243q0 67 -8 116l81 6v-369q0 -89 -59 -137.5t-151 -48.5q-89 0 -145.5 48.5 t-56.5 137.5v236z" />
<glyph horiz-adv-x="557" d="M230 710q0 -25 -14.5 -43.5t-38.5 -18.5q-21 0 -34 15t-13 37q0 25 15.5 43.5t38.5 18.5q21 0 33.5 -14.5t12.5 -37.5zM430 710q0 -25 -14 -43.5t-38 -18.5q-21 0 -34.5 15t-13.5 37q0 25 16 43.5t39 18.5q21 0 33 -14.5t12 -37.5zM73 414q0 62 -9 127l78 6l6 -6v-359 q0 -62 36.5 -95.5t95.5 -33.5q60 0 96 33t36 96v243q0 67 -8 116l81 6v-369q0 -89 -59 -137.5t-151 -48.5q-89 0 -145.5 48.5t-56.5 137.5v236z" />
<glyph horiz-adv-x="557" d="M368 1009l5 -14q-59 -89 -161 -155l-25 12q76 93 112 171zM230 710q0 -25 -14.5 -43.5t-38.5 -18.5q-21 0 -34 15t-13 37q0 25 15.5 43.5t38.5 18.5q21 0 33.5 -14.5t12.5 -37.5zM430 710q0 -25 -14 -43.5t-38 -18.5q-21 0 -34.5 15t-13.5 37q0 25 16 43.5t39 18.5 q21 0 33 -14.5t12 -37.5zM73 414q0 62 -9 127l78 6l6 -6v-359q0 -62 36.5 -95.5t95.5 -33.5q60 0 96 33t36 96v243q0 67 -8 116l81 6v-369q0 -89 -59 -137.5t-151 -48.5q-89 0 -145.5 48.5t-56.5 137.5v236z" />
<glyph horiz-adv-x="557" d="M396 1024l24 -18q-60 -80 -103 -157l-62 -6q-47 78 -113 163l24 18q52 -44 120 -118q60 70 110 118zM230 710q0 -25 -14.5 -43.5t-38.5 -18.5q-21 0 -34 15t-13 37q0 25 15.5 43.5t38.5 18.5q21 0 33.5 -14.5t12.5 -37.5zM430 710q0 -25 -14 -43.5t-38 -18.5 q-21 0 -34.5 15t-13.5 37q0 25 16 43.5t39 18.5q21 0 33 -14.5t12 -37.5zM73 414q0 62 -9 127l78 6l6 -6v-359q0 -62 36.5 -95.5t95.5 -33.5q60 0 96 33t36 96v243q0 67 -8 116l81 6v-369q0 -89 -59 -137.5t-151 -48.5q-89 0 -145.5 48.5t-56.5 137.5v236z" />
<glyph horiz-adv-x="557" d="M348 842q-101 66 -161 156l5 13l69 14q32 -69 112 -171zM230 710q0 -25 -14.5 -43.5t-38.5 -18.5q-21 0 -34 15t-13 37q0 25 15.5 43.5t38.5 18.5q21 0 33.5 -14.5t12.5 -37.5zM430 710q0 -25 -14 -43.5t-38 -18.5q-21 0 -34.5 15t-13.5 37q0 25 16 43.5t39 18.5 q21 0 33 -14.5t12 -37.5zM73 414q0 62 -9 127l78 6l6 -6v-359q0 -62 36.5 -95.5t95.5 -33.5q60 0 96 33t36 96v243q0 67 -8 116l81 6v-369q0 -89 -59 -137.5t-151 -48.5q-89 0 -145.5 48.5t-56.5 137.5v236z" />
<glyph horiz-adv-x="557" d="M144 904v50h272v-50h-272zM230 710q0 -25 -14.5 -43.5t-38.5 -18.5q-21 0 -34 15t-13 37q0 25 15.5 43.5t38.5 18.5q21 0 33.5 -14.5t12.5 -37.5zM430 710q0 -25 -14 -43.5t-38 -18.5q-21 0 -34.5 15t-13.5 37q0 25 16 43.5t39 18.5q21 0 33 -14.5t12 -37.5zM73 414 q0 62 -9 127l78 6l6 -6v-359q0 -62 36.5 -95.5t95.5 -33.5q60 0 96 33t36 96v243q0 67 -8 116l81 6v-369q0 -89 -59 -137.5t-151 -48.5q-89 0 -145.5 48.5t-56.5 137.5v236z" />
<glyph horiz-adv-x="557" d="M73 414q0 62 -9 127l78 6l6 -6v-359q0 -62 36.5 -95.5t95.5 -33.5q60 0 96 33t36 96v243q0 67 -8 116l81 6v-369q0 -89 -59 -137.5t-151 -48.5q-89 0 -145.5 48.5t-56.5 137.5v236zM333 -159q0 -26 -15.5 -44.5t-40.5 -18.5q-23 0 -36.5 15.5t-13.5 39.5q0 25 17 43.5 t41 18.5q22 0 35 -15t13 -39z" />
<glyph horiz-adv-x="557" d="M348 617q-103 68 -161 156l5 14l69 14q34 -73 112 -171zM73 414q0 62 -9 127l78 6l6 -6v-359q0 -62 36.5 -95.5t95.5 -33.5q60 0 96 33t36 96v243q0 67 -8 116l81 6v-369q0 -89 -59 -137.5t-151 -48.5q-89 0 -145.5 48.5t-56.5 137.5v236z" />
<glyph horiz-adv-x="557" d="M293 789l5 -14q-57 -90 -148 -158l-25 13q73 87 112 171zM427 789l5 -14q-57 -90 -148 -158l-25 13q74 88 111 171zM73 414q0 62 -9 127l78 6l6 -6v-359q0 -62 36.5 -95.5t95.5 -33.5q60 0 96 33t36 96v243q0 67 -8 116l81 6v-369q0 -89 -59 -137.5t-151 -48.5 q-89 0 -145.5 48.5t-56.5 137.5v236z" />
<glyph horiz-adv-x="557" d="M144 680v49h272v-49h-272zM73 414q0 62 -9 127l78 6l6 -6v-359q0 -62 36.5 -95.5t95.5 -33.5q60 0 96 33t36 96v243q0 67 -8 116l81 6v-369q0 -89 -59 -137.5t-151 -48.5q-89 0 -145.5 48.5t-56.5 137.5v236z" />
<glyph horiz-adv-x="557" d="M400 23q-110 -67 -110 -144q0 -52 53 -52q24 0 55 12l13 -31q-37 -32 -94 -32q-43 0 -68.5 22.5t-25.5 60.5q0 73 86 135q-22 -2 -34 -2q-89 0 -145.5 48.5t-56.5 137.5v236q0 62 -9 127l78 6l6 -6v-359q0 -62 36.5 -95.5t95.5 -33.5q60 0 96 33t36 96v243q0 67 -8 116 l81 6v-369q0 -105 -85 -155z" />
<glyph horiz-adv-x="557" d="M375 702q0 -37 -28 -63t-67 -26q-36 0 -61 22t-25 55q0 37 28.5 63t68.5 26q37 0 60.5 -22t23.5 -55zM237 694q0 -20 13 -33.5t33 -13.5q21 0 34.5 15t13.5 36t-11.5 34t-32.5 13t-35.5 -15t-14.5 -36zM73 414q0 62 -9 127l78 6l6 -6v-359q0 -62 36.5 -95.5t95.5 -33.5 q60 0 96 33t36 96v243q0 67 -8 116l81 6v-369q0 -89 -59 -137.5t-151 -48.5q-89 0 -145.5 48.5t-56.5 137.5v236z" />
<glyph horiz-adv-x="557" d="M212 764q28 0 72 -28t64 -28q34 0 61 53l24 -4q-5 -44 -28.5 -78t-61.5 -34q-28 0 -73 28.5t-65 28.5q-31 0 -60 -54l-24 4q6 44 29 78t62 34zM73 414q0 62 -9 127l78 6l6 -6v-359q0 -62 36.5 -95.5t95.5 -33.5q60 0 96 33t36 96v243q0 67 -8 116l81 6v-369 q0 -89 -59 -137.5t-151 -48.5q-89 0 -145.5 48.5t-56.5 137.5v236z" />
<glyph horiz-adv-x="521" d="M226 -3l-207 543l79 7l118 -318q37 -94 50 -151q14 57 57 163l113 306l61 -5l5 -8l-205 -537h-71z" />
<glyph horiz-adv-x="832" d="M201 -3l-176 542l77 8l100 -313q31 -97 41 -155q9 47 49 166l94 297l71 5l100 -313q33 -95 44 -155q11 56 47 166l95 302l59 -5l6 -8l-176 -537h-70l-106 309q-14 46 -38 138h-1q-19 -73 -40 -139l-105 -308h-71z" />
<glyph horiz-adv-x="832" d="M508 784l5 -13q-58 -88 -161 -156l-25 12q76 95 112 171zM201 -3l-176 542l77 8l100 -313q31 -97 41 -155q9 47 49 166l94 297l71 5l100 -313q33 -95 44 -155q11 56 47 166l95 302l59 -5l6 -8l-176 -537h-70l-106 309q-14 46 -38 138h-1q-19 -73 -40 -139l-105 -308h-71z " />
<glyph horiz-adv-x="832" d="M306 613l-24 18q59 77 104 157l62 6q50 -83 112 -163l-24 -18q-52 45 -119 117q-57 -67 -111 -117zM201 -3l-176 542l77 8l100 -313q31 -97 41 -155q9 47 49 166l94 297l71 5l100 -313q33 -95 44 -155q11 56 47 166l95 302l59 -5l6 -8l-176 -537h-70l-106 309 q-14 46 -38 138h-1q-19 -73 -40 -139l-105 -308h-71z" />
<glyph horiz-adv-x="832" d="M370 710q0 -25 -14.5 -43.5t-38.5 -18.5q-21 0 -34 15t-13 37q0 25 15.5 43.5t38.5 18.5q21 0 33.5 -14.5t12.5 -37.5zM570 710q0 -25 -14 -43.5t-38 -18.5q-21 0 -34.5 15t-13.5 37q0 25 16 43.5t39 18.5q21 0 33 -14.5t12 -37.5zM201 -3l-176 542l77 8l100 -313 q31 -97 41 -155q9 47 49 166l94 297l71 5l100 -313q33 -95 44 -155q11 56 47 166l95 302l59 -5l6 -8l-176 -537h-70l-106 309q-14 46 -38 138h-1q-19 -73 -40 -139l-105 -308h-71z" />
<glyph horiz-adv-x="832" d="M488 617q-103 68 -161 156l5 14l69 14q34 -73 112 -171zM201 -3l-176 542l77 8l100 -313q31 -97 41 -155q9 47 49 166l94 297l71 5l100 -313q33 -95 44 -155q11 56 47 166l95 302l59 -5l6 -8l-176 -537h-70l-106 309q-14 46 -38 138h-1q-19 -73 -40 -139l-105 -308h-71z " />
<glyph horiz-adv-x="484" d="M25 0l-4 9l174 257l-174 272l78 9l149 -233h2l144 233l65 -5l3 -9l-172 -264l172 -269h-83l-143 222h-1l-143 -222h-67z" />
<glyph horiz-adv-x="468" d="M197 190l-178 350l78 7l91 -185q51 -114 52 -118h1q8 25 54 119l89 184l60 -5l6 -8l-178 -346v-188h-75v190z" />
<glyph horiz-adv-x="468" d="M323 784l4 -13q-59 -89 -160 -156l-25 12q79 101 111 171zM197 190l-178 350l78 7l91 -185q51 -114 52 -118h1q8 25 54 119l89 184l60 -5l6 -8l-178 -346v-188h-75v190z" />
<glyph horiz-adv-x="468" d="M121 613l-24 18q64 85 104 157l61 6q47 -78 113 -163l-24 -18q-48 41 -120 117q-56 -65 -110 -117zM197 190l-178 350l78 7l91 -185q51 -114 52 -118h1q8 25 54 119l89 184l60 -5l6 -8l-178 -346v-188h-75v190z" />
<glyph horiz-adv-x="468" d="M184 710q0 -25 -14.5 -43.5t-38.5 -18.5q-21 0 -34 15t-13 37q0 25 16 43.5t39 18.5q20 0 32.5 -14.5t12.5 -37.5zM385 710q0 -25 -14.5 -43.5t-38.5 -18.5q-21 0 -34 15t-13 37q0 25 16 43.5t38 18.5q21 0 33.5 -14.5t12.5 -37.5zM197 190l-178 350l78 7l91 -185 q51 -114 52 -118h1q8 25 54 119l89 184l60 -5l6 -8l-178 -346v-188h-75v190z" />
<glyph horiz-adv-x="468" d="M302 617q-102 69 -160 156l5 14l69 14q32 -72 111 -171zM197 190l-178 350l78 7l91 -185q51 -114 52 -118h1q8 25 54 119l89 184l60 -5l6 -8l-178 -346v-188h-75v190z" />
<glyph horiz-adv-x="468" d="M98 680v49h273v-49h-273zM197 190l-178 350l78 7l91 -185q51 -114 52 -118h1q8 25 54 119l89 184l60 -5l6 -8l-178 -346v-188h-75v190z" />
<glyph horiz-adv-x="468" d="M166 764q28 0 72.5 -28t64.5 -28q33 0 60 53l24 -4q-5 -44 -28.5 -78t-60.5 -34q-28 0 -73.5 28.5t-64.5 28.5q-33 0 -60 -54l-24 4q6 45 28.5 78.5t61.5 33.5zM197 190l-178 350l78 7l91 -185q51 -114 52 -118h1q8 25 54 119l89 184l60 -5l6 -8l-178 -346v-188h-75v190z " />
<glyph horiz-adv-x="453" d="M38 0l-12 47l310 431l-300 -4l5 65h362l19 -46l-308 -431l310 4l-5 -66h-381z" />
<glyph horiz-adv-x="453" d="M323 784l5 -13q-58 -87 -160 -156l-25 12q79 101 111 171zM38 0l-12 47l310 431l-300 -4l5 65h362l19 -46l-308 -431l310 4l-5 -66h-381z" />
<glyph horiz-adv-x="453" d="M352 799l24 -18q-58 -76 -104 -156l-62 -7q-50 85 -112 163l24 18q51 -44 119 -117q57 67 111 117zM38 0l-12 47l310 431l-300 -4l5 65h362l19 -46l-308 -431l310 4l-5 -66h-381z" />
<glyph horiz-adv-x="453" d="M289 711q0 -26 -15.5 -44.5t-41.5 -18.5q-23 0 -36.5 15.5t-13.5 38.5q0 25 17 44t41 19q22 0 35.5 -15t13.5 -39zM38 0l-12 47l310 431l-300 -4l5 65h362l19 -46l-308 -431l310 4l-5 -66h-381z" />
<glyph horiz-adv-x="453" d="M38 0l-12 47l310 431l-300 -4l5 65h362l19 -46l-308 -431l310 4l-5 -66h-381zM307 -159q0 -26 -15.5 -44.5t-40.5 -18.5q-23 0 -36.5 15.5t-13.5 39.5q0 25 17 43.5t41 18.5q22 0 35 -15t13 -39z" />
<glyph horiz-adv-x="227" d="M198 784l5 -13q-58 -87 -160 -156l-25 12q79 101 111 171zM27 -149l-23 31q73 60 73 180v350q0 71 -9 125l76 10l8 -8v-477q0 -83 -29 -131t-96 -80z" />
<glyph horiz-adv-x="466" d="M405 194q0 -101 -50.5 -156.5t-125.5 -55.5t-121.5 55t-46.5 152q0 101 50.5 158t125.5 57t121.5 -57t46.5 -153zM126 194q0 -80 27 -126.5t79 -46.5q51 0 79.5 44.5t28.5 126.5q0 80 -27 126.5t-79 46.5q-50 0 -79 -44t-29 -127z" />
<glyph horiz-adv-x="247" d="M102 341h-1l-72 -14l-10 36l137 41l7 -6v-408h-62v266q0 61 1 85z" />
<glyph horiz-adv-x="367" d="M44 -10l-8 46q41 31 63 47.5t55.5 46.5t51 51t31 48t13.5 51q0 36 -24.5 58t-63.5 22q-59 0 -119 -44l-6 47q55 41 139 41q60 0 99 -31t39 -82q0 -34 -19 -69t-54.5 -69t-67.5 -59t-76 -56h119q54 0 105 6l-7 -54h-270z" />
<glyph horiz-adv-x="357" d="M48 371q54 33 125 33q53 0 88.5 -24.5t35.5 -64.5q0 -35 -29.5 -65.5t-82.5 -45.5q61 -5 96.5 -31t35.5 -72q0 -53 -46.5 -86t-122.5 -33q-59 0 -108 14l6 42q49 -14 100 -14q47 0 77 20.5t30 54.5q0 36 -33.5 52.5t-84.5 16.5q-27 0 -47 -4v42q68 12 106 38t38 60 q0 25 -20 40.5t-55 15.5q-55 0 -105 -31z" />
<glyph horiz-adv-x="403" d="M39 137l180 261l67 6l7 -6v-257q25 1 63 5l-7 -50h-56v-106h-59v106h-187zM92 140v-1q39 1 130 1h12v110q0 72 2 102h-1z" />
<glyph horiz-adv-x="378" d="M56 -4l7 44q43 -15 95 -15q48 0 77.5 23.5t29.5 63.5t-27.5 60.5t-70.5 20.5q-48 0 -85 -14l-10 7v210h140q64 0 104 6l-4 -54h-188v-120q31 7 65 7q60 0 100 -31t40 -88q0 -62 -47 -98t-123 -36q-54 0 -103 14z" />
<glyph horiz-adv-x="409" d="M214 -18q-70 0 -111.5 47.5t-41.5 133.5q0 109 60 175t157 66q37 0 55 -8l-6 -45q-20 9 -48 9q-61 0 -104.5 -43.5t-48.5 -126.5h2q38 37 106 37q57 0 92 -31.5t35 -84.5q0 -59 -42.5 -94t-104.5 -35zM217 189q-27 0 -53.5 -11.5t-37.5 -30.5q6 -124 87 -124q38 0 61 23 t23 61q0 37 -21 59.5t-59 22.5z" />
<glyph horiz-adv-x="351" d="M38 340l7 56h270l7 -7v-34q-74 -78 -123 -173.5t-54 -191.5h-64q6 92 60 191.5t121 165.5v1h-107q-70 0 -117 -8z" />
<glyph horiz-adv-x="399" d="M197 -18q-65 0 -107 28.5t-42 72.5q0 39 30 68t75 44v1q-90 46 -90 106q0 43 40.5 72.5t99.5 29.5t96 -29t37 -70q0 -32 -25 -60t-66 -45v-2q107 -42 107 -108q0 -45 -43.5 -76.5t-111.5 -31.5zM202 366q-33 0 -56.5 -16.5t-23.5 -44.5q0 -51 85 -85q71 36 71 85 q0 27 -22 44t-54 17zM191 172q-35 -14 -59 -37.5t-24 -50.5q0 -28 25.5 -46.5t64.5 -18.5q40 0 65.5 18.5t27.5 47.5q1 28 -24.5 48t-75.5 39z" />
<glyph horiz-adv-x="409" d="M48 267q0 61 42.5 99t104.5 38q68 0 110.5 -47t42.5 -131q0 -104 -60.5 -174t-156.5 -70q-27 0 -49 5v43q24 -4 45 -4q64 0 105.5 42.5t50.5 117.5q-37 -38 -102 -38q-60 0 -96.5 32t-36.5 87zM113 271q0 -38 21.5 -61t61.5 -23q62 0 87 43q-3 61 -26 96.5t-64 35.5 q-35 0 -57.5 -25.5t-22.5 -65.5z" />
<glyph horiz-adv-x="651" d="M583 347q0 -170 -76 -263.5t-187 -93.5q-113 0 -182.5 93t-69.5 255q0 169 75 263.5t188 94.5t182.5 -94t69.5 -255zM146 345q0 -137 46 -218.5t132 -81.5q83 0 132 78t49 219q0 137 -46 218.5t-132 81.5q-82 0 -131.5 -76.5t-49.5 -220.5z" />
<glyph horiz-adv-x="335" d="M140 609h-1l-116 -27l-12 45l194 69l9 -9v-687h-75v464q0 104 1 145z" />
<glyph horiz-adv-x="578" d="M77 0l-10 64q156 135 249 248t93 200q0 55 -39 90t-107 35q-81 0 -188 -58l-8 62q102 55 212 55q93 0 150.5 -48t57.5 -123q0 -175 -345 -461h200q87 0 160 10l-10 -74h-415z" />
<glyph horiz-adv-x="510" d="M60 642q37 22 90.5 38t104.5 16q78 0 127.5 -39t49.5 -104q0 -60 -46 -111.5t-132 -80.5q97 -7 153.5 -50.5t56.5 -122.5q0 -88 -69.5 -143t-184.5 -55q-86 0 -164 24l8 57q75 -24 154 -24t128 37.5t49 100.5q0 66 -54 96.5t-137 30.5q-36 0 -70 -7v57q111 23 170.5 71 t59.5 107q0 44 -30.5 70.5t-86.5 26.5q-78 0 -172 -53z" />
<glyph horiz-adv-x="594" d="M33 242l305 442l79 11l9 -9v-439q55 0 131 9l-10 -70h-121v-186h-72v186h-310zM99 246v-2q74 2 230 2h25v209q0 115 3 163h-2z" />
<glyph horiz-adv-x="541" d="M73 14l7 58q72 -24 147 -24q78 0 127 42.5t49 115.5q0 72 -45.5 109t-116.5 37q-81 0 -130 -22l-14 12v344h206q87 0 160 10l-5 -73h-296v-226q49 13 104 13q92 0 154 -51t62 -148q0 -100 -70.5 -160.5t-184.5 -60.5q-80 0 -154 24z" />
<glyph horiz-adv-x="592" d="M308 -10q-107 0 -167.5 80.5t-60.5 226.5q0 182 90 290.5t233 108.5q59 0 84 -13l-8 -60q-28 14 -74 14q-101 0 -170.5 -79t-75.5 -231h2q32 35 79.5 53.5t95.5 18.5q87 0 140 -52.5t53 -141.5q0 -99 -63.5 -157t-157.5 -58zM318 345q-48 0 -94 -23t-63 -60 q10 -217 148 -217q63 0 102.5 41.5t39.5 111.5q0 66 -35 106.5t-98 40.5z" />
<glyph horiz-adv-x="529" d="M48 610l10 76h413l9 -8v-46q-113 -132 -191 -300t-88 -332h-78q10 156 95.5 329.5t186.5 291.5v2h-185q-95 0 -172 -13z" />
<glyph horiz-adv-x="579" d="M287 -10q-96 0 -159.5 46.5t-63.5 119.5q0 62 47 112t117 78v2q-142 74 -142 180q0 71 60.5 119.5t147.5 48.5q86 0 143 -47.5t57 -115.5q0 -56 -39.5 -104t-105.5 -77v-1q166 -73 166 -186q0 -74 -64.5 -124.5t-163.5 -50.5zM293 644q-55 0 -95 -31.5t-40 -79.5 q0 -91 141 -153q54 27 88 67.5t34 85.5q0 48 -36.5 79.5t-91.5 31.5zM278 315q-59 -26 -99.5 -67.5t-40.5 -90.5q0 -51 43 -83t107 -32q66 0 109 34t44 85q1 49 -40 84.5t-123 69.5z" />
<glyph horiz-adv-x="592" d="M63 467q0 102 64 165.5t157 63.5q101 0 164.5 -80t63.5 -221q0 -173 -91.5 -289t-232.5 -116q-45 0 -74 8l-2 59q25 -7 68 -7q105 0 174 79t80 215h-2q-25 -38 -70.5 -57.5t-97.5 -19.5q-91 0 -146 54.5t-55 145.5zM141 472q0 -68 37 -109.5t104 -41.5q47 0 88 21t62 65 q-2 108 -43 170t-109 62q-60 0 -99.5 -46.5t-39.5 -120.5z" />
<glyph horiz-adv-x="466" d="M405 496q0 -101 -50.5 -156.5t-125.5 -55.5t-121.5 55t-46.5 152q0 100 50.5 157.5t125.5 57.5t121.5 -57t46.5 -153zM126 495q0 -79 27 -125.5t79 -46.5q51 0 79.5 44.5t28.5 125.5q0 80 -27 126.5t-79 46.5q-50 0 -79 -44t-29 -127z" />
<glyph horiz-adv-x="247" d="M102 643h-1l-72 -14l-10 36l137 41l7 -6v-408h-62v266q0 61 1 85z" />
<glyph horiz-adv-x="367" d="M44 292l-8 46q41 31 63 47.5t55.5 46.5t51 51t31 48t13.5 51q0 36 -24.5 58t-63.5 22q-59 0 -119 -44l-6 47q55 41 139 41q60 0 99 -31t39 -82q0 -34 -19 -69t-54.5 -69t-67.5 -59t-76 -56h119q54 0 105 6l-7 -54h-270z" />
<glyph horiz-adv-x="357" d="M48 673q54 33 125 33q54 0 89 -24.5t35 -65.5q0 -35 -29.5 -65t-82.5 -45q60 -5 96 -31.5t36 -71.5q0 -53 -46.5 -86t-122.5 -33q-59 0 -108 14l6 41q49 -14 100 -14q47 0 77 20.5t30 54.5q0 69 -118 69q-27 0 -47 -4v42q68 12 106 38.5t38 59.5q0 26 -19.5 41t-55.5 15 q-54 0 -105 -30z" />
<glyph horiz-adv-x="403" d="M39 439l180 261l67 6l7 -6v-257q25 1 63 5l-7 -50h-56v-106h-59v106h-187zM92 442v-1q39 1 130 1h12v110q0 72 2 102h-1z" />
<glyph horiz-adv-x="378" d="M56 298l7 43q43 -15 95 -15q48 0 77.5 23.5t29.5 63.5t-27.5 60.5t-70.5 20.5q-48 0 -85 -14l-10 7v211h140q64 0 104 6l-4 -54h-188v-121q25 7 65 7q60 0 100 -30.5t40 -87.5q0 -62 -47 -98t-123 -36q-54 0 -103 14z" />
</font>
</defs>
</svg>
