<?xml version="1.0" standalone="no"?>
<!DOCTYPE svg PUBLIC "-//W3C//DTD SVG 1.1//EN" "http://www.w3.org/Graphics/SVG/1.1/DTD/svg11.dtd" >
<svg xmlns="http://www.w3.org/2000/svg" xmlns:xlink="http://www.w3.org/1999/xlink" version="1.1">
<metadata></metadata>
<defs>
<font id="indivisa_display_serifitalic" horiz-adv-x="561" >
<font-face units-per-em="1000" ascent="800" descent="-200" />
<missing-glyph horiz-adv-x="225" />
<glyph unicode="&#xfb00;" horiz-adv-x="606" d="M202 34q-23 -111 -84 -170t-140 -59q-47 0 -77 19.5t-30 48.5q0 36 49 45q7 -15 10.5 -21.5t12 -18.5t17.5 -17.5t20 -5.5q36 0 58 37.5t41 128.5l90 427h-76l1 8l82 22l3 14q18 85 84.5 144t150.5 59q48 0 80 -18.5t46 -45.5q64 64 147 64q45 0 73.5 -19t28.5 -49 q0 -33 -45 -47q-43 66 -85 66q-46 0 -63 -82q-1 -7 -3.5 -31t-4.5 -34l-5 -23h120l-6 -28h-120l-87 -414q-22 -111 -79 -170t-128 -59q-45 0 -73.5 19.5t-28.5 48.5q0 36 49 45q21 -63 50 -63q31 0 50.5 38.5t36.5 127.5l90 427h-168zM299 494l-4 -18h168l5 21q7 36 26 72 q-45 77 -105 77t-80 -86q-4 -42 -10 -66z" />
<glyph unicode="&#xfb03;" horiz-adv-x="841" d="M202 34q-23 -111 -84 -170t-140 -59q-47 0 -77 19.5t-30 48.5q0 36 49 45q7 -15 10.5 -21.5t12 -18.5t17.5 -17.5t20 -5.5q36 0 58 37.5t41 128.5l90 427h-76l1 8l82 22l3 14q18 85 84.5 144t150.5 59q50 0 82.5 -20t44.5 -48q71 68 172 68q58 0 98 -22.5t40 -55.5 q0 -45 -86 -45q-11 31 -36 52.5t-55 21.5q-46 0 -66 -61q-4 -17 -10 -43.5t-10 -42.5l-5 -23h152q55 0 80 -20.5t25 -66.5q0 -16 -7 -48.5t-23.5 -99t-24.5 -98.5q-12 -53 -12 -68q0 -14 9 -14q19 0 89 96l7 -5q-25 -65 -68 -113.5t-92 -48.5q-63 0 -63 78q0 27 10 75 q11 49 27 113.5t24.5 99t8.5 48.5q0 44 -43 44h-105l-87 -414q-22 -111 -79 -170t-128 -59q-45 0 -73.5 19.5t-28.5 48.5q0 36 49 45q21 -63 50 -63q31 0 50.5 38.5t36.5 127.5l90 427h-168zM299 494l-4 -18h168l5 21q8 36 26 70q-43 79 -105 79q-60 0 -80 -86 q-4 -42 -10 -66z" />
<glyph unicode="&#xfb04;" horiz-adv-x="843" d="M202 34q-23 -111 -84 -170t-140 -59q-47 0 -77 19.5t-30 48.5q0 36 49 45q7 -15 10.5 -21.5t12 -18.5t17.5 -17.5t20 -5.5q36 0 58 37.5t41 128.5l90 427h-76l1 8l82 22l3 14q18 85 84.5 144t150.5 59q49 0 81.5 -19.5t45.5 -47.5q69 67 159 67q69 0 101 -32q31 7 93 16 l6 -7l-112 -529q-12 -53 -12 -68q0 -14 9 -14q19 0 89 96l7 -5q-25 -65 -68 -113.5t-92 -48.5q-63 0 -63 78q0 27 10 75l95 447q-38 56 -91 56q-45 0 -64 -61q-5 -14 -11 -45.5t-9 -40.5l-5 -23h109l-6 -28h-109l-87 -414q-23 -111 -84 -170t-140 -59q-47 0 -77 19.5 t-30 48.5q0 36 50 45q28 -63 60 -63q36 0 57.5 38t40.5 128l90 427h-168zM299 494l-4 -18h168l5 21q7 35 26 71q-44 78 -105 78q-60 0 -80 -86q-4 -42 -10 -66z" />
<glyph unicode="fi" horiz-adv-x="553" d="M202 34q-23 -111 -84 -170t-140 -59q-47 0 -77 19.5t-30 48.5q0 36 49 45q7 -15 10.5 -21.5t12 -18.5t17.5 -17.5t20 -5.5q36 0 58 37.5t41 128.5l90 427h-76l1 8l82 22l4 19q18 84 85 141t160 57q58 0 98 -22.5t40 -55.5q0 -45 -86 -45q-11 31 -36 52.5t-55 21.5 q-46 0 -66 -61q-4 -17 -10 -43.5t-10 -42.5l-5 -23h152q55 0 80 -20.5t25 -66.5q0 -16 -7 -48.5t-23.5 -99t-24.5 -98.5q-12 -53 -12 -68q0 -14 9 -14q19 0 89 96l7 -5q-25 -65 -68 -113.5t-92 -48.5q-63 0 -63 78q0 27 10 75q11 49 27 113.5t24.5 99t8.5 48.5q0 44 -43 44 h-105z" />
<glyph unicode="fl" horiz-adv-x="556" d="M202 34q-23 -111 -84 -170t-140 -59q-47 0 -77 19.5t-30 48.5q0 36 49 45q7 -15 10.5 -21.5t12 -18.5t17.5 -17.5t20 -5.5q36 0 58 37.5t41 128.5l90 427h-76l1 8l82 22l4 19q17 82 83 140t149 58q69 0 101 -32q31 7 93 16l6 -7l-112 -529q-12 -53 -12 -68q0 -14 9 -14 q19 0 89 96l7 -5q-25 -65 -68 -113.5t-92 -48.5q-63 0 -63 78q0 27 10 75l95 447q-38 56 -91 56q-45 0 -64 -61q-5 -14 -11 -45.5t-9 -40.5l-5 -23h109l-6 -28h-109z" />
<glyph unicode="&#x2f;symbol&#x33;&#x2f;" horiz-adv-x="957" d="M505 638l68 -270h270l-203 -135l136 -270l-271 135l-270 -270l135 405l-270 203l338 -68zM814 87q18 0 30.5 -12.5t12.5 -31.5q0 -18 -12.5 -30.5t-30.5 -12.5t-30.5 12.5t-12.5 30.5q0 19 12.5 31.5t30.5 12.5zM854 43q0 17 -11.5 29t-28.5 12t-28.5 -12t-11.5 -29 t12 -28.5t28 -11.5t28 11.5t12 28.5zM796 68h18q8 0 11 -2q6 -3 6 -10q0 -5 -4 -9q-3 -3 -6 -3q7 -3 8 -10q2 -14 3 -16h-7q-1 2 -2 7.5t-1 6.5q0 9 -10 9h-9v-23h-7v50zM803 47h10q5 0 7 1q3 3 3 6q0 9 -10 9h-10v-16z" />
<glyph unicode="&#x2f;symbol&#x32;&#x2f;" horiz-adv-x="932" d="M494 570l52 -90l-137 -240h-103l137 240l-52 90h103zM357 570l52 -90l-138 -240h-103l138 240l-52 90h103zM752 120h-103l-137 240l51 90l137 -240h103zM683 0h-103l-137 240l51 90l138 -240h103zM100 120l51 90h275l51 -90h-274l-52 -90zM168 0l52 90h274l52 -90h-275 l-51 -90zM789 88q18 0 30.5 -13t12.5 -31t-12.5 -31t-30.5 -13t-30.5 13t-12.5 31t12.5 31t30.5 13zM829 44q0 16 -11.5 28t-28.5 12t-28.5 -12t-11.5 -28t11.5 -28t28.5 -12t28.5 12t11.5 28zM771 69h18q7 0 11 -2q5 -4 5 -11q0 -5 -3 -8q-1 -2 -6 -4q7 -1 8 -9q0 -8 3 -16 h-8q-1 2 -1.5 6.5t-0.5 6.5q-1 10 -11 10h-8v-23h-7v50zM778 47h10q5 0 7 1q3 3 3 7q0 8 -10 8h-10v-16z" />
<glyph unicode="&#x2f;symbol&#x31;&#x2f;" horiz-adv-x="5534" d="M1865 412q-25 0 -40.5 14.5t-15.5 37.5q0 35 32.5 64t70.5 29q24 0 39 -13.5t15 -37.5q0 -36 -31 -65t-70 -29zM1284 412q-26 0 -41.5 14.5t-15.5 37.5q0 35 33 64t71 29q24 0 38.5 -13.5t14.5 -37.5q0 -36 -31 -65t-69 -29zM959 0q0 42 11 108q-16 -50 -51.5 -82.5 t-78.5 -32.5q-41 0 -63 29.5t-22 82.5q0 62 27 121t84 101t132 42q17 0 25 -1l16 73l6 102l136 7q0 -67 -46 -273t-46 -277h-130zM100 0l78 364q17 86 21 136l128 7l11 -15l-104 -492h-134zM3503 492l-57 -492h-131l20 175q5 50 33 215h-3q-31 -102 -81 -215l-76 -175h-149 l-2 175q-2 121 9 215h-2q-32 -130 -59 -215l-53 -175h-109l154 500l184 6l1 -137q2 -134 -15 -259h2q39 126 94 259l56 131l169 7zM5316 300q-37 -177 -37 -183q0 -34 36 -34q25 0 59 18l-9 -79q-52 -29 -114 -29q-105 0 -105 100q0 20 40 210l-47 1l9 44l54 14l53 95l81 6 l13 -15l-20 -86h99l6 -14l-17 -51zM3936 0q0 74 42 260l5 102l137 7q0 -31 -7 -89h2q53 89 134 89q34 0 53 -19.5t19 -51.5q0 -27 -26 -147q-18 -85 -18 -151h-131q0 55 19 150q15 71 15 87q0 24 -17 24q-34 0 -64 -82.5t-32 -178.5h-131zM3768 369q87 0 145 -32l-28 -128 q-31 -145 -31 -209h-130q0 45 12 112q-15 -52 -51 -85.5t-81 -33.5q-41 0 -63 29.5t-22 83.5q0 46 16 91.5t46 84t79 63t108 24.5zM4653 51q-67 -58 -159 -58q-65 0 -103.5 35t-38.5 102q0 94 68.5 166.5t167.5 72.5q54 0 86.5 -23.5t32.5 -64.5q0 -57 -60 -96.5t-161 -43.5 v-1q0 -64 63 -64q42 0 90 28zM2525 369q88 0 146 -32l-29 -128q-31 -145 -31 -209h-130q0 37 12 112q-15 -52 -51 -85.5t-81 -33.5q-41 0 -62.5 29.5t-21.5 83.5q0 62 26.5 120.5t85 100.5t136.5 42zM2245 256q-52 30 -97 30q-18 0 -30 -7t-12 -19q0 -14 20 -26.5t44 -22 t44 -33t20 -56.5q0 -57 -53 -93t-128 -36q-78 0 -118 28l27 93q57 -38 111 -38q19 0 29.5 7.5t10.5 18.5q0 13 -20 26t-44 23t-44 33t-20 55q0 56 54.5 93t128.5 37q58 0 104 -18zM4716 0q0 79 41 260l6 102l137 7q0 -12 -7 -89h2q52 89 134 89q34 0 53 -19.5t19 -51.5 q0 -27 -26 -147q-19 -90 -19 -151h-130q0 55 19 150q15 78 15 87q0 24 -17 24q-35 0 -65 -82t-32 -179h-130zM1752 0q0 69 26 193l15 67l6 102l137 7q0 -46 -27 -177t-27 -192h-130zM1399 362l140 7q13 -129 -5 -289h2q76 151 91 284q22 5 50 5q32 0 48.5 -8.5t16.5 -33.5 q0 -46 -51 -147.5t-116 -179.5h-149q-5 228 -27 362zM1170 0q0 72 27 193l14 67l6 102l137 7q0 -46 -27 -177t-27 -192h-130zM336 0q0 79 41 260l6 102l137 7q0 -31 -7 -89h2q52 89 134 89q34 0 53 -19.5t19 -51.5q0 -27 -26 -147q-18 -85 -18 -151h-131q0 55 19 150 q15 78 15 87q0 24 -17 24q-34 0 -64 -82.5t-32 -178.5h-131zM4490 177q47 10 73 34t26 59q0 31 -22 31q-28 0 -48.5 -38.5t-28.5 -85.5zM2435 101q23 0 47 43.5t37 100.5q3 14 9 44q-14 8 -27 8q-34 0 -62 -54.5t-28 -101.5q0 -40 24 -40zM913 101q22 0 44.5 39.5t37.5 94.5 q1 9 8 40l3 14q-14 8 -27 8q-33 0 -61.5 -54.5t-28.5 -101.5q0 -40 24 -40zM3677 101q23 0 47 43t38 101q1 8 4.5 24.5t4.5 19.5q-16 8 -27 8q-34 0 -62.5 -54.5t-28.5 -101.5q0 -40 24 -40z" />
<glyph unicode="&#x2f;symbol&#x35;&#x2f;" horiz-adv-x="705" d="M232 -6l-132 136l124 234l129 -136zM474 -6l-121 234l128 136l124 -234z" />
<glyph unicode="&#x2f;symbol&#x34;&#x2f;" horiz-adv-x="2607" d="M1684 406q0 65 -11 128l126 14l15 -15v-533h-130v406zM1889 406q0 62 -10 128l126 14l14 -15v-533h-130v406zM427 101v-101h-320v362q0 80 -7 135l126 7l14 -14v-396zM925 21l7 109q62 -36 144 -36q50 0 50 36q0 20 -31.5 41.5t-69 40.5t-69 57t-31.5 88q0 69 55 108 t138 39q80 0 127 -18l-14 -111q-56 29 -111 29q-27 0 -42.5 -11t-15.5 -29q0 -20 20.5 -38t50 -34t59.5 -35t50.5 -51t20.5 -72q0 -66 -53.5 -103.5t-139.5 -37.5q-41 0 -83.5 8t-61.5 20zM2405 213q0 -24 -1 -36l-11 -11h-191q14 -83 98 -83q44 0 84 21l7 -81 q-46 -30 -127 -30q-90 0 -144 47.5t-54 134.5q0 85 52 139t132 54q72 0 113.5 -43t41.5 -112zM795 0l-106 -7q-11 16 -21 49h-4q-34 -49 -104 -49q-43 0 -70 23t-27 66q0 113 191 118v20q0 54 -58 54q-55 0 -108 -29l-8 97q72 26 150 26q154 0 154 -135q0 -25 -2 -69t-2 -70 q0 -51 15 -94zM1626 0l-107 -7q-12 20 -21 49h-3q-34 -49 -105 -49q-43 0 -69.5 23t-26.5 66q0 113 191 118v20q0 54 -58 54q-54 0 -109 -29l-7 97q72 26 150 26q153 0 153 -135q0 -25 -1.5 -69.5t-1.5 -69.5q0 -51 15 -94zM2199 207l78 4q2 14 2 26q0 59 -34 59 q-44 0 -46 -89zM654 74v88q-29 -3 -47 -18t-18 -39q0 -18 10 -29t27 -11q16 0 28 9zM1485 74v88q-29 -3 -47 -18t-18 -39q0 -18 10 -29t27 -11q16 0 28 9zM2464 85q18 0 30.5 -13t12.5 -31t-12.5 -31t-30.5 -13t-31 13t-13 31t13 31t31 13zM2504 41q0 17 -12 28.5t-28 11.5 t-28 -11.5t-12 -28.5t12 -28.5t28 -11.5t28 11.5t12 28.5zM2446 66h18q7 0 11 -3q5 -3 5 -10q0 -5 -3 -9q-3 -3 -6 -3q7 -1 8 -10q0 -7 3 -15h-8q-1 2 -1.5 6.5t-0.5 6.5q-1 9 -11 9h-8v-22h-7v50zM2453 44h10q5 0 7 1q3 3 3 7q0 8 -10 8h-10v-16z" />
<glyph unicode=" "  horiz-adv-x="225" />
<glyph unicode="&#x09;" horiz-adv-x="225" />
<glyph unicode="&#xa0;" horiz-adv-x="225" />
<glyph unicode="!" horiz-adv-x="308" d="M221 681l5 7q58 7 116 7q32 0 30 -23q-2 -25 -28 -97l-127 -381h-44zM241 69q0 -33 -26.5 -56t-62.5 -23q-28 0 -44.5 14t-16.5 37q0 33 27 55.5t62 22.5q28 0 44.5 -13.5t16.5 -36.5z" />
<glyph unicode="&#x22;" horiz-adv-x="367" d="M199 691l4 4q53 0 83 -13l7 -11l-95 -234l-23 3l12 114zM363 691l4 4q54 0 83 -13l7 -11l-94 -234l-23 3l11 114z" />
<glyph unicode="#" horiz-adv-x="675" d="M643 179h-143l-59 -189l-56 10l-6 7l54 172h-145l-60 -189l-56 10l-6 7l54 172h-119l-6 6l12 51h132l56 179h-131l-6 6l12 51h143l60 188l56 -10l6 -6l-55 -172h146l59 188l56 -10l6 -6l-54 -172h119l6 -6l-12 -51h-131l-57 -179h131l6 -6zM306 236h145l56 179h-145z" />
<glyph unicode="$" horiz-adv-x="519" d="M252 -120l-34 -3l-6 6l23 107q-113 3 -154 37q-15 12 -15 30q0 27 21.5 75t42.5 77l9 -1l24 -168q35 -19 88 -19q58 0 95.5 32.5t37.5 85.5q0 32 -16.5 61t-41.5 50t-54.5 45t-54.5 46.5t-41.5 55.5t-16.5 71q0 86 68 137.5t169 54.5l24 110l33 3l6 -6l-23 -108 q91 -5 134 -37q11 -9 11 -22q0 -25 -24 -75t-45 -75l-9 1l-19 167q-26 11 -69 11q-56 0 -95.5 -32.5t-39.5 -85.5q0 -38 23 -70.5t56 -58.5t66 -53.5t56 -66.5t23 -86q1 -81 -63.5 -131t-165.5 -55z" />
<glyph unicode="%" horiz-adv-x="954" d="M485 521q0 -94 -56.5 -163t-141.5 -69q-62 -1 -97.5 37.5t-35.5 101.5q0 95 56 164t139 69q63 0 99.5 -38t36.5 -102zM788 660h69l-541 -670h-70zM244 385q0 -74 45 -74q43 0 72.5 81t29.5 173q0 74 -45 74q-42 0 -72 -81t-30 -173zM940 228q0 -94 -56.5 -163t-141.5 -70 q-62 0 -97.5 38.5t-35.5 101.5q0 95 56 164t139 69q63 0 99.5 -38t36.5 -102zM699 92q0 -74 45 -74q43 0 72.5 81t29.5 173q0 74 -45 74q-42 0 -72 -81t-30 -173z" />
<glyph unicode="&#x26;" horiz-adv-x="799" d="M470 660q66 0 106.5 -29t40.5 -74q0 -71 -95 -109q150 0 282 41l8 -2q18 -20 18 -44q0 -49 -73 -50q-40 0 -85 6q-11 -97 -48 -176q52 -24 76 -35q67 -36 67 -100q0 -42 -21 -70t-53 -28q-29 0 -47 15l-2 11q30 37 43 92q2 5 8 41q-32 -3 -70 1q-6 1 -18 3.5t-18 3.5 q-107 -167 -289 -167q-92 0 -147.5 42t-56.5 113q1 68 50.5 117t132.5 72q-40 58 -40 126q0 87 67 143.5t164 56.5zM363 492q0 -47 18.5 -86.5t54 -70.5t70.5 -52t85 -45q39 74 48 165q-74 10 -146 25l-10 17q51 53 51 114q0 32 -17 50.5t-48 18.5q-45 0 -75.5 -39 t-30.5 -97zM222 179q0 -52 35 -83t92 -31q117 0 198 103q-172 48 -252 145q-73 -54 -73 -134z" />
<glyph unicode="'" horiz-adv-x="202" d="M199 691l4 4q53 0 83 -13l7 -11l-95 -234l-23 3l12 114z" />
<glyph unicode="(" horiz-adv-x="361" d="M308 -97l-13 -13q-78 48 -124 125.5t-46 179.5q0 157 91.5 290t247.5 210l10 -15q-109 -98 -169.5 -230.5t-60.5 -282.5q0 -129 64 -264z" />
<glyph unicode=")" horiz-adv-x="361" d="M178 682l13 13q77 -48 123 -125.5t46 -178.5q0 -158 -91.5 -291t-247.5 -210l-9 15q109 98 169 230.5t60 282.5q0 128 -63 264z" />
<glyph unicode="*" horiz-adv-x="423" d="M333 465q-2 -35 -29 -35q-21 0 -21 20q0 9 5 21.5t14 33t15 40.5q-16 -11 -34.5 -24t-28 -19.5t-19 -11.5t-16.5 -5q-20 0 -20 23q0 17 21 25q8 3 38 12.5t51 17.5q-13 6 -28.5 12t-25.5 10t-15 7q-16 8 -16 22q0 12 8 19.5t19 7.5q9 0 19 -7.5t27.5 -26t27.5 -27.5 q3 23 3.5 50t1.5 33q2 32 28 32q21 0 21 -19q0 -9 -5 -21.5t-13.5 -33.5t-14.5 -41q22 14 44.5 31t33.5 23.5t19 6.5q21 0 21 -23q0 -17 -18 -24q-9 -4 -39.5 -14t-53.5 -19q15 -6 39 -15t32 -13q15 -7 15 -20q0 -11 -8 -20t-19 -9q-9 0 -17.5 6.5t-27 25.5t-29.5 29 q-1 -7 -5 -80z" />
<glyph unicode="+" horiz-adv-x="529" d="M525 284h-157l-34 -163h-88l34 163h-162l16 78q76 2 163 2l35 166h89l-35 -165q62 1 158 1l4 -6z" />
<glyph unicode="," horiz-adv-x="220" d="M186 57q0 -51 -47.5 -113t-118.5 -103l-8 8q63 70 89 142q-38 8 -38 48q0 29 22 50.5t50 21.5q23 0 37 -14.5t14 -39.5z" />
<glyph unicode="-" horiz-adv-x="373" d="M90 250l7 35h300l-7 -35h-300z" />
<glyph unicode="." horiz-adv-x="208" d="M105 -10q-24 0 -37.5 13.5t-13.5 35.5q0 30 22 51t51 21q22 0 35.5 -12.5t13.5 -33.5q0 -30 -21 -52.5t-50 -22.5z" />
<glyph unicode="/" horiz-adv-x="374" d="M127 -10l-51 24l312 679l5 2l51 -24l-312 -679z" />
<glyph unicode="0" horiz-adv-x="584" d="M622 424q0 -111 -42 -211t-116.5 -161.5t-161.5 -61.5q-96 0 -149 62.5t-53 167.5q0 175 96 307.5t229 132.5q95 0 146 -63t51 -173zM226 160q0 -66 19.5 -102.5t57.5 -36.5q49 0 95.5 83.5t72 192.5t25.5 197q0 135 -72 135q-51 0 -98 -79.5t-73.5 -187.5t-26.5 -202z " />
<glyph unicode="1" horiz-adv-x="369" d="M335 0h-290v13l68 12q22 5 28 31l117 540l-96 -5l1 10l223 59l7 -7l-130 -597l-5 -22l80 -21z" />
<glyph unicode="2" horiz-adv-x="488" d="M163 15q-61 0 -111 -25l-15 60q190 139 272.5 234.5t82.5 182.5q0 47 -26 73.5t-72 26.5q-98 0 -161 -112l-8 5q30 92 93 146t148 54q74 0 119.5 -44t45.5 -116q0 -47 -24.5 -93.5t-73 -93t-95.5 -82.5t-118 -84q-50 -34 -76 -50q35 9 76 9q36 0 105 -8.5t88 -8.5 q18 0 31.5 18t29.5 57l8 -3q-14 -73 -27 -112q-20 -59 -57 -59q-27 0 -109 12.5t-126 12.5z" />
<glyph unicode="3" horiz-adv-x="448" d="M453 206q0 -94 -113.5 -152.5t-309.5 -63.5l-2 17q138 23 214.5 75t76.5 128q0 47 -32 71.5t-85 24.5q-21 0 -42 -3l-4 29q101 16 157 60t56 103q0 36 -22 56.5t-61 20.5q-45 0 -84 -26t-66 -73l-8 5q27 82 91 132t140 50q66 0 104.5 -34.5t38.5 -90.5 q0 -74 -64.5 -126.5t-168.5 -71.5q81 -3 132.5 -38.5t51.5 -92.5z" />
<glyph unicode="4" horiz-adv-x="537" d="M65 210l417 450l71 -12l-90 -420l93 2l-16 -72l-91 1l-34 -159h-120l34 160l-262 4zM411 545l-288 -325l220 5z" />
<glyph unicode="5" horiz-adv-x="464" d="M470 233q0 -104 -112.5 -172.5t-302.5 -70.5l-1 17q128 18 205.5 72t77.5 130q0 45 -32 69.5t-90 24.5q-41 0 -74 -10l-13 13l78 348q194 -7 264 -7q24 0 37.5 11.5t28.5 42.5l9 -3q-10 -46 -15.5 -67t-16.5 -44t-26 -31.5t-38 -8.5q-72 0 -228 15l-43 -194q44 10 100 10 q90 0 141 -38.5t51 -106.5z" />
<glyph unicode="6" horiz-adv-x="547" d="M100 200q0 186 142.5 316t356.5 144l1 -19q-132 -36 -230.5 -132.5t-134.5 -228.5q28 58 77.5 91t108.5 33q65 0 104 -41.5t39 -115.5q0 -106 -76.5 -181.5t-182.5 -75.5q-96 0 -150.5 56.5t-54.5 153.5zM438 238q1 57 -17.5 89t-53.5 32q-51 0 -95.5 -69.5t-45.5 -160.5 q0 -51 20 -80t59 -29q54 0 92.5 65.5t40.5 152.5z" />
<glyph unicode="7" horiz-adv-x="438" d="M254 22q-18 -32 -57 -32q-25 0 -46 15.5t-32 38.5q10 14 60 83t63 88t52 74t58 83.5t46.5 71t50.5 80.5q-159 34 -240 34q-33 0 -50 -16t-33 -57l-9 2q15 87 39.5 130t74.5 43q106 0 233 -111l-2 -4q33 54 64 115q21 -3 21 -24q0 -26 -116.5 -270t-176.5 -344z" />
<glyph unicode="8" horiz-adv-x="527" d="M521 178q0 -84 -70 -136t-174 -52q-89 0 -147 38.5t-58 102.5q-1 65 53 111t148 69q-49 43 -76.5 83t-27.5 92q0 77 64 125.5t155 48.5q83 0 133.5 -38t50.5 -96q0 -114 -170 -171q29 -24 44.5 -38.5t36 -38t29.5 -48.5t9 -52zM281 527q0 -44 25.5 -78.5t74.5 -76.5 q91 73 91 160q0 44 -23 71t-64 27q-44 0 -74 -29.5t-30 -73.5zM187 125q0 -49 29.5 -77t72.5 -28q51 0 84 32.5t32 84.5q0 22 -7.5 42t-28.5 43t-32.5 33.5t-43.5 38.5q-106 -77 -106 -169z" />
<glyph unicode="9" horiz-adv-x="547" d="M585 451q0 -186 -142 -316.5t-356 -144.5l-1 19q131 36 230 132.5t134 228.5q-28 -58 -77.5 -90.5t-108.5 -32.5q-65 0 -103.5 41.5t-38.5 115.5q0 106 76.5 181t181.5 75q97 0 151 -56t54 -153zM248 412q-1 -57 17.5 -89t53.5 -32q51 0 95.5 70t44.5 160q1 51 -19.5 80 t-58.5 29q-55 0 -93 -65t-40 -153z" />
<glyph unicode=":" horiz-adv-x="209" d="M180 338q-24 0 -38 13.5t-14 35.5q0 30 22 51t51 21q23 0 36.5 -12.5t13.5 -33.5q0 -30 -21.5 -52.5t-49.5 -22.5zM106 -10q-24 0 -37.5 13.5t-13.5 35.5q0 30 22 51t51 21q22 0 35.5 -12.5t13.5 -33.5q0 -30 -21 -52.5t-50 -22.5z" />
<glyph unicode=";" horiz-adv-x="220" d="M188 338q-24 0 -37.5 13.5t-13.5 35.5q0 30 22 51t51 21q22 0 35.5 -12.5t13.5 -33.5q0 -30 -21 -52.5t-50 -22.5zM186 57q0 -51 -47.5 -113t-118.5 -103l-8 8q63 70 89 142q-38 8 -38 48q0 29 22 50.5t50 21.5q23 0 37 -14.5t14 -39.5z" />
<glyph unicode="&#x3c;" horiz-adv-x="537" d="M582 542l-22 -98l-325 -122l274 -120l-20 -91q-63 27 -182 85.5t-182 92.5l-1 6l13 65z" />
<glyph unicode="=" horiz-adv-x="540" d="M552 388h-407l17 78q124 4 409 4l5 -6zM508 180h-407l17 78q124 4 409 4l5 -6z" />
<glyph unicode="&#x3e;" horiz-adv-x="537" d="M94 109l21 99l325 121l-273 121l20 91q183 -80 364 -179l1 -5l-13 -66z" />
<glyph unicode="?" horiz-adv-x="496" d="M391 695q90 0 146 -40t56 -110q0 -48 -27.5 -90t-66.5 -70t-77.5 -52.5t-66 -48.5t-27.5 -47q0 -25 25 -37l-3 -8q-16 -2 -22 -2q-34 2 -54 18t-20 43q0 29 22 59t53 57.5t62.5 56.5t53.5 68t22 82q0 41 -24.5 65.5t-65.5 24.5q-59 0 -96.5 -51.5t-37.5 -119.5 q0 -22 2 -33q-23 -10 -50 -10q-68 0 -68 57q0 73 78.5 130.5t185.5 57.5zM342 69q0 -33 -26 -56t-62 -23q-28 0 -45 14t-17 37q0 33 27 55.5t62 22.5q28 0 44.5 -13.5t16.5 -36.5z" />
<glyph unicode="@" horiz-adv-x="1008" d="M632 648q-89 0 -177.5 -35.5t-160 -97.5t-116.5 -155t-45 -198q0 -152 95 -239.5t247 -87.5t294 87l12 -20q-124 -97 -312 -97q-164 0 -268 95t-104 254q0 114 47.5 214.5t124 167t173.5 104.5t196 38q168 0 273.5 -98.5t105.5 -247.5q0 -143 -80.5 -242.5t-190.5 -99.5 q-81 0 -114.5 52.5t-18.5 139.5l11 67h-2q-45 -108 -100.5 -183.5t-109.5 -75.5q-45 0 -71 38t-26 100q0 98 40 184.5t115.5 142t169.5 55.5q89 0 162 -32l-18 -54l-47 -204q-42 -178 62 -178q65 0 123.5 83.5t58.5 208.5q0 137 -97 225.5t-252 88.5zM465 59q36 0 99 120.5 t99 245.5l13 43q-22 12 -50 12q-46 0 -91.5 -57t-73 -139t-27.5 -154q0 -71 31 -71z" />
<glyph unicode="A" horiz-adv-x="691" d="M450 652h64l94 -581q4 -22 11.5 -31.5t25.5 -15.5l35 -11l-3 -13h-279l1 13l81 22l-23 161l-233 -1l-92 -162l76 -20l-3 -13h-189l1 13l43 11q22 6 32.5 15.5t25.5 34.5zM243 228l210 -2l-42 296z" />
<glyph unicode="B" horiz-adv-x="624" d="M312 0h-272l-1 13l59 13q21 5 24 30l115 539l5 22l-70 20l3 13h259q105 0 162 -35.5t57 -101.5q0 -64 -46.5 -111t-124.5 -65q66 -13 107 -51.5t41 -91.5q0 -91 -81.5 -142.5t-236.5 -51.5zM419 619h-52l-5 -24l-52 -246h57q70 0 117 48t47 118q0 50 -28.5 77t-83.5 27z M361 318h-58l-56 -262l-5 -24h62q88 0 141 46.5t53 126.5q1 52 -34 82.5t-103 30.5z" />
<glyph unicode="C" horiz-adv-x="602" d="M509 660q105 0 158 -33q-4 -41 -21 -98.5t-36 -95.5h-9l-34 186q-23 9 -53 9q-114 0 -195 -110.5t-80 -259.5q0 -110 47.5 -173t124.5 -63q27 0 53 8l113 189h9q1 -32 -5 -91q-5 -62 -22 -109q-64 -29 -169 -29q-129 0 -207 71t-78 198q0 170 114.5 285.5t289.5 115.5z " />
<glyph unicode="D" horiz-adv-x="680" d="M303 0h-263l-1 13l59 13q21 5 24 30l115 539l5 22l-70 20l3 13h254q137 0 212 -62.5t75 -180.5q0 -170 -112.5 -288.5t-300.5 -118.5zM417 619h-50l-5 -24l-115 -539l-5 -25h62q89 0 157 62t100 149t32 179q0 198 -176 198z" />
<glyph unicode="E" horiz-adv-x="555" d="M513 0h-473v13l59 13q19 5 24 30l114 539l5 22l-70 20l3 13h466q-1 -42 -16.5 -99t-34.5 -95h-8l-39 162q-28 1 -86 1h-90l-5 -24l-54 -252l189 8l-10 -48l-185 9l-54 -256l-5 -24l96 -1q59 0 89 1l108 166h9q1 -24 -2 -60q-6 -69 -30 -138z" />
<glyph unicode="F" horiz-adv-x="527" d="M247 55h-7l-2 -23l99 -20l-2 -12h-296l-1 12l53 11q23 6 24 32h7l115 540l5 22l-70 20l3 13h463q-5 -106 -53 -203h-9l-35 168q-28 1 -84 1h-90l-5 -21l-57 -270l193 8l-10 -47l-190 8z" />
<glyph unicode="G" horiz-adv-x="661" d="M572 19q-78 -29 -180 -29q-131 0 -209 70t-78 199q0 172 116.5 286.5t289.5 114.5q108 0 174 -33q-5 -40 -24.5 -97t-40.5 -97h-9l-34 187q-29 8 -61 8q-115 0 -196 -110.5t-81 -260.5q0 -108 48.5 -171.5t124.5 -63.5q23 0 46 5l51 226l5 21l-70 21l5 12h250l-1 -12 l-46 -11q-23 -7 -28 -31z" />
<glyph unicode="H" horiz-adv-x="732" d="M309 0h-270v13l56 12q13 3 19 10t8 21l115 539l5 22l-70 20l3 13h270v-13l-56 -11q-21 -6 -27 -31l-53 -251h260l54 251l5 22l-71 20l4 13h270v-13l-56 -11q-23 -6 -27 -31l-115 -539l-5 -22l71 -21l-4 -13h-270v13l56 12q13 3 19 10t8 21l54 254h-261l-54 -254l-5 -22 l71 -21z" />
<glyph unicode="I" horiz-adv-x="347" d="M310 0h-270v13l56 12q21 5 27 31l114 539l5 22l-70 20l3 13h270v-13l-56 -11q-21 -6 -27 -31l-114 -539l-5 -22l70 -21z" />
<glyph unicode="J" horiz-adv-x="344" d="M260 116q-40 -190 -255 -244l-6 11q59 50 90 107t52 158l95 447l5 22l-70 20l3 13h270v-13l-56 -11q-21 -6 -27 -31z" />
<glyph unicode="K" horiz-adv-x="701" d="M310 0h-270v13l56 12q21 5 27 31l114 539l5 22l-71 20l4 13h270v-13l-56 -11q-23 -6 -27 -31l-55 -260h95l232 283l-74 19l3 13h238v-12l-61 -19q-33 -13 -77 -41.5t-66 -51.5l-109 -125l8 7l122 -332q9 -24 20.5 -35.5t29.5 -17.5l33 -11l-4 -12l-126 -2 q-40 0 -59.5 16.5t-32.5 54.5l-83 234h-96l-52 -247l-5 -22l70 -21z" />
<glyph unicode="L" horiz-adv-x="537" d="M503 0h-463l-1 13l59 13q21 5 24 30l115 539l5 22l-70 20l3 13h270v-13l-56 -11q-21 -6 -27 -31l-115 -539l-5 -24h180l105 188h9q1 -28 -7 -89q-3 -65 -26 -131z" />
<glyph unicode="M" horiz-adv-x="887" d="M211 650h207l60 -482l270 482h195v-13l-82 -20l-62 -581l75 -23l-4 -13h-278l1 13l39 9q25 5 33.5 13.5t10.5 30.5l53 480l-277 -494l-27 -54h-55l-5 54l-66 498l-159 -517l82 -20l-4 -13h-200v13l49 12q25 6 34 15t17 34l167 542l-77 21z" />
<glyph unicode="N" horiz-adv-x="686" d="M238 1h-202v13l64 13q14 4 19.5 10t7.5 19l120 562l-78 20l3 12h168l223 -516l99 461l5 22l-84 20l4 13h201v-13l-63 -13q-14 -4 -19.5 -9.5t-8.5 -19.5l-126 -595h-86l-224 520l-98 -464l-5 -22l83 -20z" />
<glyph unicode="O" horiz-adv-x="643" d="M680 414q0 -170 -102 -297t-248 -127q-108 0 -168.5 66t-60.5 177q0 172 104 299.5t250 127.5q107 0 166 -66t59 -180zM235 177q0 -75 25.5 -115t70.5 -40q56 0 107 75t79.5 180.5t28.5 202.5q0 70 -24 109.5t-70 39.5q-57 0 -108.5 -73.5t-80 -178t-28.5 -200.5z" />
<glyph unicode="P" horiz-adv-x="584" d="M247 55h-7l-2 -23l99 -20l-2 -12h-296l-1 12l53 11q23 6 24 32h7l115 540l5 22l-70 20l3 13h256q110 0 173.5 -42t63.5 -125q0 -105 -89 -170t-228 -65h-63zM415 619h-48l-5 -24l-67 -316h47q89 0 144 65t55 155q0 60 -33.5 90t-92.5 30z" />
<glyph unicode="Q" horiz-adv-x="643" d="M680 414q0 -163 -93.5 -287t-231.5 -136q59 -39 160.5 -64t208.5 -25q75 0 133 14q9 -13 9 -36q0 -39 -37.5 -59.5t-103.5 -20.5q-114 0 -232 54.5t-197 137.5q-93 10 -144 75t-51 166q0 172 104 299.5t250 127.5q107 0 166 -66t59 -180zM235 177q0 -75 25.5 -115 t70.5 -40q56 0 107 75t79.5 180.5t28.5 202.5q0 70 -24 109.5t-70 39.5q-57 0 -108.5 -73.5t-80 -178t-28.5 -200.5z" />
<glyph unicode="R" horiz-adv-x="673" d="M310 0h-270v13l56 12q21 5 27 31l114 539l5 22l-70 20l3 13h259q111 0 171.5 -40.5t60.5 -117.5q0 -66 -44 -115.5t-113 -76.5l53 -146q21 -68 34.5 -93.5t37.5 -35.5l38 -12l-3 -13l-128 -3q-37 0 -55.5 13.5t-27.5 44.5l-69 218h-95l-46 -217l-5 -22l70 -21zM418 619 h-51l-5 -24l-62 -291h58q82 0 132 58t50 137q0 58 -32.5 89t-89.5 31z" />
<glyph unicode="S" horiz-adv-x="506" d="M152 468q0 89 74.5 140.5t182.5 51.5q113 0 162 -38q11 -9 11 -22q0 -25 -24 -75t-45 -75l-9 1l-19 167q-26 11 -69 11q-59 0 -100.5 -32.5t-41.5 -85.5q0 -38 23.5 -70.5t57 -58.5t67.5 -53.5t57.5 -66.5t23.5 -86q0 -87 -72.5 -136.5t-184.5 -49.5q-128 0 -174 37 q-15 12 -15 30q0 27 21.5 75t42.5 77l9 -1l24 -168q35 -19 88 -19q61 0 100.5 33t39.5 85q0 33 -17 62t-42.5 49t-55.5 44.5t-55.5 46.5t-42.5 55.5t-17 71.5z" />
<glyph unicode="T" horiz-adv-x="587" d="M430 0h-270v13l56 12q21 5 27 31l119 563h-61q-43 0 -64 -1l-107 -183h-8q0 33 2 52q6 83 34 163h547q-3 -47 -19.5 -111t-36.5 -104h-9l-29 183q-21 1 -63 1h-61l-119 -563l-5 -22l70 -21z" />
<glyph unicode="U" horiz-adv-x="670" d="M616 231q-51 -241 -261 -241q-97 0 -152.5 50t-55.5 139q0 24 7 61l76 355l5 22l-71 20l4 13h270v-13l-56 -11q-23 -6 -27 -31l-77 -362q-8 -37 -8 -64q0 -65 33.5 -99.5t91.5 -34.5q67 0 116 50t70 147l77 364l5 21l-79 20l3 13h198v-13l-87 -20l-5 -21z" />
<glyph unicode="V" horiz-adv-x="675" d="M377 -2h-68l-94 581q-4 23 -11 32.5t-24 14.5l-37 11l2 13h276v-13l-78 -22l68 -492l267 493l-73 21l4 13h195v-13q-16 -4 -44 -14q-31 -17 -54.5 -47.5t-58.5 -94.5z" />
<glyph unicode="W" horiz-adv-x="1009" d="M1015 533l-297 -535h-64l-52 441l-238 -441h-64l-82 581q-6 38 -34 47l-41 11l3 13h270v-13l-75 -21l59 -483l195 367l-9 79q-4 37 -33 47l-40 11l3 13h275l-1 -13l-80 -21l48 -481l254 481l-78 21l4 13h200v-13q-28 -7 -54 -20q-20 -10 -34 -28t-35 -56z" />
<glyph unicode="X" horiz-adv-x="667" d="M168 99l178 201l-118 280q-10 24 -18 33.5t-25 14.5l-35 9l3 13h266v-13l-73 -19l100 -237l177 237l-68 19l4 13h214l-1 -13q-15 -3 -43 -10q-43 -15 -98 -76l-174 -196l121 -286q10 -23 19 -32.5t24 -14.5l35 -9l-3 -13h-269v13l75 19l-102 244l-182 -244l68 -19l-3 -13 h-214v13q28 7 43 11q44 14 99 75z" />
<glyph unicode="Y" horiz-adv-x="594" d="M434 0h-270v13l56 12q13 3 19 10t8 21l24 114q12 75 10 168.5t-23 172.5t-50 79q-32 0 -93 -96l-10 4q22 63 66 112.5t95 49.5q47 0 79.5 -55t45.5 -142.5t7 -192.5q67 173 136 281.5t117 108.5q19 0 31.5 -12.5t19 -37t9.5 -47t5 -54.5l-10 -5q-9 32 -14 47t-15 28 t-23 13q-32 0 -89.5 -79t-107.5 -186t-67 -185l-18 -86l-5 -22l71 -21z" />
<glyph unicode="Z" horiz-adv-x="582" d="M563 143q-5 -75 -30 -143h-466l-5 51l456 568h-236l-116 -188h-9q0 34 7 79q6 75 30 140h459l5 -48l-454 -571h240l117 189h9q0 -34 -7 -77z" />
<glyph unicode="[" horiz-adv-x="383" d="M318 -107h-228l170 802h229l-7 -31h-109l-157 -740h109z" />
<glyph unicode="\" horiz-adv-x="450" d="M375 -3l-57 -7l-100 693l3 5l57 7l100 -692z" />
<glyph unicode="]" horiz-adv-x="383" d="M190 695h229l-171 -802h-228l7 31h108l157 740h-109z" />
<glyph unicode="^" horiz-adv-x="563" d="M227 205h-97l223 343h87l80 -343h-97l-49 242z" />
<glyph unicode="_" horiz-adv-x="540" d="M-3 -185l7 35h468l-7 -35h-468z" />
<glyph unicode="`" horiz-adv-x="366" d="M278 574l-9 -10q-78 23 -127.5 57t-49.5 67q0 47 67 47q16 0 21 -1q35 -73 98 -160z" />
<glyph unicode="a" horiz-adv-x="526" d="M70 117q0 93 39 182t115 150t169 61q91 0 157 -32l-24 -81l-56 -254q-11 -49 -11 -68q0 -14 9 -14q20 0 88 96l8 -5q-26 -65 -69 -113.5t-91 -48.5q-64 0 -64 78q0 27 10 75l30 131q-49 -132 -108 -208t-111 -76q-44 0 -67.5 35.5t-23.5 91.5zM412 418l12 49 q-23 14 -50 14q-44 0 -89 -62.5t-71.5 -146.5t-26.5 -151q0 -61 28 -61q33 0 94 111t103 247z" />
<glyph unicode="b" horiz-adv-x="500" d="M88 108l98 457l16 74l-78 22v9q90 18 203 25l6 -7l-27 -123q-42 -192 -86 -347q49 137 107.5 214.5t114.5 77.5q45 0 68.5 -37t23.5 -95q0 -91 -34.5 -178.5t-104.5 -148.5t-158 -61q-102 0 -173 38zM388 441q-32 0 -84.5 -88t-89.5 -216l-23 -102q27 -15 60 -15 q44 0 83.5 62.5t61 144t21.5 147.5q0 67 -29 67z" />
<glyph unicode="c" horiz-adv-x="430" d="M443 155q-26 -68 -84.5 -116.5t-125.5 -48.5q-66 0 -109 46.5t-43 131.5q0 132 81 237t187 105q58 0 91 -31t33 -80q0 -39 -21.5 -67.5t-55.5 -28.5q-24 0 -45 8q24 72 24 113q0 56 -36 56q-47 0 -89.5 -94t-42.5 -186q0 -65 22.5 -100t63.5 -35q69 0 143 95z" />
<glyph unicode="d" horiz-adv-x="526" d="M350 143l26 119q-50 -127 -107 -199.5t-108 -72.5q-44 0 -67.5 36t-23.5 91q0 92 39 181.5t115 150.5t169 61q13 0 37 -2l13 57l15 74l-77 22v9q91 18 202 25l6 -7l-26 -123l-93 -422q-12 -53 -12 -68q0 -14 9 -14q19 0 89 96l7 -5q-25 -65 -68 -113.5t-92 -48.5 q-63 0 -63 78q0 27 10 75zM215 60q33 0 93.5 111t102.5 248l11 48q-22 14 -48 14q-44 0 -89 -62.5t-71.5 -146.5t-26.5 -151q0 -61 28 -61z" />
<glyph unicode="e" horiz-adv-x="425" d="M443 155q-27 -70 -85 -117.5t-124 -47.5q-70 0 -111.5 48t-41.5 130q0 132 79.5 237t187.5 105q55 0 89 -28t34 -76q0 -83 -72.5 -136t-191.5 -58v-17q0 -63 22 -96.5t63 -33.5q68 0 144 95zM339 480q-42 0 -81.5 -76.5t-48.5 -166.5q72 10 118 68t46 133q0 42 -34 42z " />
<glyph unicode="f" horiz-adv-x="318" d="M202 34q-23 -111 -84 -170t-140 -59q-47 0 -77 19.5t-30 48.5q0 36 49 45q7 -15 10.5 -21.5t12 -18.5t17.5 -17.5t20 -5.5q36 0 58 37.5t41 128.5l90 427h-76l1 8l82 22l4 19q17 82 79 140t140 58q45 0 73.5 -19t28.5 -49q0 -33 -45 -47q-43 66 -85 66q-11 0 -19.5 -4 t-15 -13t-10.5 -18t-8 -24.5t-6.5 -27t-6 -30.5t-5.5 -30l-5 -23h125l-6 -28h-125z" />
<glyph unicode="g" horiz-adv-x="437" d="M432 -61q0 -56 -70.5 -95t-173.5 -39q-90 0 -150 29t-60 74q0 31 30.5 57.5t84.5 41.5l7 -5q-30 -28 -30 -50q2 -53 34.5 -86t92.5 -33q43 0 74.5 20t31.5 50q0 20 -25.5 39t-56 32t-56 33.5t-25.5 42.5q0 48 127 103q-3 0 -9 -0.5t-8 -0.5q-73 0 -118 37.5t-45 101.5 q0 90 66.5 154.5t166.5 64.5q170 0 225 11q4 -10 4 -24q0 -50 -39 -50q-24 0 -109 20q27 -17 44 -46.5t17 -64.5q0 -48 -21.5 -88.5t-52.5 -66.5t-62 -46t-52.5 -35.5t-21.5 -26.5q0 -12 28 -27.5t62 -29t62 -39.5t28 -58zM204 277q0 -94 51 -94q35 0 62.5 68t27.5 148 q0 84 -45 84q-39 0 -67.5 -65t-28.5 -141z" />
<glyph unicode="h" horiz-adv-x="541" d="M191 -2q-77 -7 -109 -7q-13 0 -10 12l30 140l90 422l16 74l-78 22v9q90 18 203 25l6 -7l-27 -123q-39 -178 -78 -326q53 127 114.5 199t120.5 72q36 0 56.5 -21.5t20.5 -58.5q0 -28 -9 -73t-29 -124t-23 -90q-11 -49 -11 -68q0 -14 9 -14q20 0 88 96l8 -5 q-26 -65 -69 -113.5t-91 -48.5q-64 0 -64 78q0 27 10 75q7 34 23 94t26 104.5t10 66.5q0 27 -21 27q-35 0 -88 -84.5t-93 -207.5z" />
<glyph unicode="i" horiz-adv-x="290" d="M349 665q0 -33 -26 -56t-62 -23q-29 0 -45.5 13.5t-16.5 37.5q0 32 27 55t62 23q28 0 44.5 -13.5t16.5 -36.5zM114 143q8 37 27 112.5t25 102.5q12 51 12 67q0 15 -9 15q-19 0 -89 -96l-7 4q24 65 67.5 113.5t92.5 48.5q63 0 63 -77q0 -28 -10 -75l-52 -215 q-11 -49 -11 -68q0 -14 9 -14q20 0 88 96l8 -5q-26 -65 -69 -113.5t-91 -48.5q-64 0 -64 78q0 27 10 75z" />
<glyph unicode="j" horiz-adv-x="270" d="M354 665q0 -33 -26 -56t-62 -23q-29 0 -45.5 13.5t-16.5 37.5q0 32 27 55t62 23q28 0 44.5 -13.5t16.5 -36.5zM222 34q-23 -111 -84 -170t-140 -59q-47 0 -77 19.5t-30 48.5q0 36 49 45q9 -19 14.5 -28.5t18.5 -22t28 -12.5q36 0 57.5 38t40.5 128l71 337q12 51 12 67 q0 15 -9 15q-19 0 -89 -96l-7 4q24 65 67.5 113.5t92.5 48.5q63 0 63 -77q0 -28 -10 -75z" />
<glyph unicode="k" horiz-adv-x="534" d="M192 -2q-77 -7 -109 -7q-13 0 -10 12l29 140l90 422l16 74l-78 22v9q90 18 203 25l6 -7l-27 -123q-40 -186 -85 -347q54 140 120.5 216t136.5 76q40 0 63 -25t23 -63q0 -61 -49.5 -110t-122.5 -80q30 -87 51.5 -127t41.5 -40q27 0 96 92l7 -5q-28 -65 -73 -113.5 t-94 -48.5q-18 0 -32 5.5t-27 21t-21 28.5t-20 44.5t-18 49.5t-20 63l1 4q70 35 114.5 86t44.5 103q0 41 -33 41q-41 0 -98.5 -85.5t-96.5 -212.5z" />
<glyph unicode="l" horiz-adv-x="275" d="M99 143l93 422l16 74l-78 22v9q90 18 203 25l6 -7l-27 -123l-93 -422q-11 -49 -11 -68q0 -14 9 -14q20 0 88 96l8 -5q-26 -65 -69 -113.5t-91 -48.5q-64 0 -64 78q0 27 10 75z" />
<glyph unicode="m" horiz-adv-x="808" d="M207 -2q-77 -7 -109 -7q-13 0 -10 12l29 140l14 64l22 104q20 94 20 112q0 17 -9 17q-23 0 -87 -96l-8 4q22 64 64.5 113t91.5 49q28 0 45 -16.5t17 -49.5q-1 -50 -42 -215q53 132 115 206.5t122 74.5q32 0 50 -19.5t18 -52.5q0 -36 -38 -202q52 129 112 201.5t116 72.5 q35 0 54 -21.5t19 -58.5q0 -28 -9 -73t-29 -124t-23 -90q-12 -53 -12 -68q0 -14 9 -14q19 0 89 96l7 -5q-25 -65 -68 -113.5t-92 -48.5q-63 0 -63 78q0 27 10 75q7 34 23 94.5t26 105t10 67.5q0 25 -17 25q-32 0 -83.5 -85t-88.5 -207l-31 -145q-77 -7 -109 -7q-13 0 -10 12 l30 140q8 39 23.5 106.5t22.5 103.5t7 55q0 27 -18 27q-35 0 -87.5 -84t-92.5 -208z" />
<glyph unicode="n" horiz-adv-x="556" d="M207 -2q-77 -7 -109 -7q-13 0 -10 12l29 140l14 64l22 104q20 94 20 112q0 17 -9 17q-23 0 -87 -96l-8 4q22 64 64.5 113t91.5 49q28 0 45 -16.5t17 -49.5q0 -50 -43 -218q53 134 116 209t123 75q37 0 57 -21.5t20 -58.5q0 -28 -9.5 -75.5t-27.5 -119.5l-23 -92 q-12 -53 -12 -68q0 -14 9 -14q19 0 89 96l7 -5q-25 -65 -68 -113.5t-92 -48.5q-63 0 -63 78q0 27 10 75q7 35 22.5 94.5t25.5 104t10 66.5q0 27 -20 27q-35 0 -88 -84.5t-93 -207.5z" />
<glyph unicode="o" horiz-adv-x="502" d="M524 319q0 -136 -79 -233t-186 -97q-81 0 -128 52.5t-47 140.5q0 133 80.5 230.5t188.5 97.5q81 0 126 -52.5t45 -138.5zM209 150q0 -128 55 -128q36 0 68 58.5t49 136t17 143.5q0 118 -53 118q-36 0 -68.5 -55t-50 -130.5t-17.5 -142.5z" />
<glyph unicode="p" horiz-adv-x="520" d="M165 -188q-77 -7 -109 -7q-13 0 -10 11l29 140l54 251l22 104q20 94 20 112q0 17 -9 17q-23 0 -87 -96l-8 4q22 64 64.5 113t91.5 49q28 0 45 -17t17 -50q0 -46 -44 -222q49 136 107 212.5t114 76.5q45 0 68.5 -37t23.5 -95q0 -68 -21 -136t-58.5 -124.5t-97.5 -92 t-131 -35.5q-15 0 -43 2l-8 -36zM408 441q-32 0 -84.5 -87.5t-89.5 -214.5l-23 -110q18 -9 50 -9q46 0 88 60t65 142t23 153q0 66 -29 66z" />
<glyph unicode="q" horiz-adv-x="502" d="M400 -188q-77 -7 -109 -7q-13 0 -10 11l30 140q42 195 71 320q-50 -133 -109.5 -209.5t-111.5 -76.5q-44 0 -67.5 36t-23.5 91q0 92 39 181.5t115 150.5t169 61t155 -32l-24 -81l-93 -441zM187 121q0 -61 27 -62q33 0 91 104.5t101 238.5l15 66q-21 13 -47 13 q-44 0 -89 -62.5t-71.5 -146.5t-26.5 -151z" />
<glyph unicode="r" horiz-adv-x="431" d="M207 -2q-77 -7 -109 -7q-13 0 -10 12l29 140l14 64l22 104q20 94 20 112q0 17 -9 17q-23 0 -87 -96l-8 4q22 64 64.5 113t91.5 49q28 0 45 -16.5t17 -49.5q0 -44 -42 -214q49 130 104 205t107 75q23 0 35.5 -15t12.5 -38q0 -48 -38 -93q-35 25 -69 25q-43 0 -84.5 -66.5 t-75.5 -179.5z" />
<glyph unicode="s" horiz-adv-x="418" d="M419 131q0 -63 -52 -102t-147 -39q-70 0 -118 27t-48 71q0 29 26 50.5t73 30.5l7 -4q-8 -45 -4 -75q4 -32 23.5 -50.5t49.5 -18.5q31 0 51.5 20t20.5 52q0 27 -19 54t-46.5 51t-55 48.5t-46.5 57t-19 66.5q0 62 50.5 101t134.5 39q70 0 115 -27t45 -70q0 -29 -24 -50 t-64 -29l-8 3q4 50 1 73q-4 32 -21 50.5t-44 18.5q-30 0 -48.5 -19.5t-18.5 -50.5q0 -33 29 -68t64 -62t64 -67t29 -81z" />
<glyph unicode="t" horiz-adv-x="332" d="M359 152q-29 -66 -76.5 -114t-104.5 -48q-38 0 -59.5 22.5t-21.5 63.5q0 29 10 74l63 298h-77l1 8l85 29l138 131l8 -2l-29 -138h116l-6 -28h-116l-63 -298q-11 -53 -11 -66q0 -23 21 -23q35 0 114 96z" />
<glyph unicode="u" d="M459 502q77 7 109 7q13 0 10 -12l-29 -139l-14 -65l-22 -103q-20 -96 -20 -113q0 -16 9 -16q23 0 87 96l8 -5q-22 -64 -64.5 -113t-91.5 -49q-28 0 -45 17t-17 50q0 49 43 217q-54 -134 -116.5 -209t-122.5 -75q-37 0 -57 21.5t-20 58.5q0 29 9.5 76t28 119.5t22.5 92.5 q12 51 12 67q0 15 -9 15q-19 0 -89 -96l-7 4q24 65 67.5 113.5t92.5 48.5q63 0 63 -77q0 -28 -10 -75q-7 -35 -22.5 -94.5t-25.5 -104t-10 -67.5q0 -26 20 -26q35 0 88 84t93 208z" />
<glyph unicode="v" horiz-adv-x="467" d="M147 -1q13 199 13 286q0 64 -2.5 97.5t-8 45.5t-15.5 12q-29 0 -86 -96l-8 4q22 65 65.5 113.5t96.5 48.5q80 0 80 -133q0 -123 -35 -325q71 95 113.5 201t42.5 187q0 29 -6 59q24 11 53 11q35 0 54.5 -19.5t19.5 -57.5q0 -89 -82 -205.5t-223 -232.5z" />
<glyph unicode="w" horiz-adv-x="718" d="M452 510q79 0 79 -105q0 -137 -33 -354q72 96 114.5 202t42.5 187q0 33 -7 59q24 11 53 11q35 0 55 -19.5t20 -57.5q0 -89 -82 -206.5t-224 -231.5l-72 4q9 179 11 274q-54 -134 -190 -278l-72 4q13 199 13 286q0 95 -5.5 125t-20.5 30q-25 0 -86 -96l-8 4q22 66 65 114 t97 48q80 0 80 -133q0 -123 -33 -317q72 96 115.5 198t43.5 192q0 25 -6 49q20 11 50 11z" />
<glyph unicode="x" horiz-adv-x="486" d="M173 -4q-25 -9 -52 -9q-29 0 -46.5 15t-17.5 42q0 89 180 200l-29 98q-16 57 -24.5 75t-20.5 18q-22 0 -81 -91l-8 5q27 69 67 114t83 45q39 0 56.5 -26.5t44.5 -109.5q1 -3 1.5 -5t1.5 -5l2 -6l23 -79q72 115 72 191q0 20 -3 36q21 9 50 9t47.5 -15t18.5 -40 q0 -90 -178 -203l30 -99q16 -57 24.5 -75t20.5 -18q22 0 81 91l8 -5q-27 -69 -67 -114t-83 -45q-39 0 -56.5 26.5t-44.5 109.5q-1 3 -1.5 5t-1.5 5l-2 6l-25 81q-72 -113 -72 -190q0 -26 2 -37z" />
<glyph unicode="y" horiz-adv-x="481" d="M298 348q0 -70 -18 -160t-51 -170q91 87 138 200.5t47 217.5q0 31 -6 63q24 11 54 11q73 0 73 -82q0 -114 -85 -238.5t-235 -202.5q-85 -182 -206 -182q-41 0 -67 17.5t-26 42.5q0 18 15 32t37 18q21 -66 52 -66q41 0 77.5 86.5t55.5 199.5t19 207q0 98 -26 98 q-24 0 -82 -96l-8 4q21 66 62 114t92 48q88 0 88 -162z" />
<glyph unicode="z" horiz-adv-x="413" d="M141 25q-56 0 -104 -35l-14 16q182 204 290 346q-85 40 -139 40q-26 0 -43 -18.5t-39 -64.5l-9 4q21 106 46 150.5t74 44.5q54 0 160 -89q6 9 65 91q23 -1 36.5 -12t13.5 -28q0 -27 -42 -60q-134 -144 -293 -312q34 17 66 17q27 0 77.5 -10t64.5 -10q18 0 36.5 21.5 t44.5 68.5l9 -5q-9 -32 -14.5 -50t-14 -43.5t-16.5 -40t-18.5 -29t-23 -21t-27.5 -6.5q-23 0 -87 17.5t-99 17.5z" />
<glyph unicode="{" horiz-adv-x="404" d="M136 301q60 7 85.5 36t25.5 88q0 17 -5 53.5t-5 55.5q0 89 67.5 125t191.5 36l-2 -24q-130 -5 -130 -129q0 -18 4 -53t4 -53q0 -124 -166 -148q117 -18 117 -88q0 -33 -39 -109.5t-39 -111.5q0 -68 86 -72l-6 -24q-204 0 -204 107q0 36 41.5 112.5t41.5 107.5 q0 60 -72 68z" />
<glyph unicode="|" horiz-adv-x="326" d="M153 -191l-56 -4l-4 6l187 880l56 4l4 -6z" />
<glyph unicode="}" horiz-adv-x="374" d="M391 278q-60 -7 -85.5 -36t-25.5 -88q0 -18 5 -54.5t5 -55.5q0 -89 -67.5 -125t-191.5 -36l2 24q130 5 130 129q0 18 -4 53.5t-4 52.5q0 124 166 148q-117 18 -117 88q0 33 39 109.5t39 111.5q0 68 -86 72l6 24q204 0 204 -107q0 -36 -41.5 -112t-41.5 -107q0 -61 72 -68 z" />
<glyph unicode="~" horiz-adv-x="577" d="M214 248q-15 0 -65 -57l-40 21q22 35 37 56t40.5 43t47.5 22q25 0 120 -26.5t115 -26.5q15 0 66 58l39 -21q-16 -26 -27 -41.5t-29 -37t-35 -32t-33 -10.5q-29 0 -125 26t-111 26z" />
<glyph unicode="&#xa1;" horiz-adv-x="296" d="M174 431q0 33 26 56t62 23q29 0 45.5 -13.5t16.5 -37.5q0 -32 -27 -55t-62 -23q-28 0 -44.5 13.5t-16.5 36.5zM193 -181l-5 -7q-58 -7 -115 -7q-31 0 -31 23q2 25 28 97l128 381h44z" />
<glyph unicode="&#xa2;" horiz-adv-x="466" d="M250 -120l-34 -3l-5 6l23 108q-59 6 -96 52t-38 125q0 127 76 230t177 111l24 111l34 3l5 -6l-23 -109q47 -6 73.5 -35.5t26.5 -73.5q0 -39 -21.5 -67.5t-55.5 -28.5q-24 0 -45 8q24 72 24 113q0 56 -36 56q-47 0 -89.5 -94t-42.5 -186q0 -65 22.5 -100t63.5 -35 q69 0 143 95l7 -5q-25 -62 -76.5 -109t-112.5 -55z" />
<glyph unicode="&#xa3;" horiz-adv-x="523" d="M527 -36q-1 -36 -23 -63t-63 -27q-37 0 -75.5 19t-66.5 42t-65 48.5t-67 35.5q-41 -29 -83 -29q-41 0 -41 32q1 19 19 33t48 14q21 0 47 -8q32 34 40 66q10 30 30 168h-117l9 34h113q13 91 21 124q24 104 83.5 163t145.5 59q58 0 95.5 -27t37.5 -67q0 -25 -20.5 -42.5 t-50.5 -19.5q-13 123 -66 123q-34 0 -58 -39.5t-47 -127.5l-38 -146h158l-9 -34h-157l-9 -34q-38 -138 -118 -215q6 -2 42.5 -18t54 -22t51.5 -16.5t67 -15t68 -4.5q25 0 44 4v-10z" />
<glyph unicode="&#xa4;" horiz-adv-x="522" d="M461 119l-52 66q-50 -37 -112 -37q-65 0 -104 36l-79 -66l-25 32l79 66q-18 33 -18 76q0 85 65 147l-50 65l34 29q40 -50 52 -66q51 31 107 31q58 0 98 -38l88 73l26 -32l-90 -74q17 -32 17 -71q0 -78 -53 -139q12 -15 31.5 -38.5t21.5 -25.5l-2 -9zM347 442 q-59 0 -97.5 -43.5t-38.5 -98.5q0 -42 23.5 -69t67.5 -27q58 0 96 43t38 98q0 45 -23 71t-66 26z" />
<glyph unicode="&#xa5;" horiz-adv-x="640" d="M451 0h-270v13l56 12q13 3 19 10t8 21l14 67h-152l6 34h153l3 13q3 16 7 48h-150l7 34h146q6 115 -15.5 226.5t-57.5 111.5q-32 0 -93 -96l-10 4q22 63 66 112.5t95 49.5q47 0 79.5 -55t45.5 -142.5t7 -192.5q67 173 136 281.5t117 108.5q19 0 31.5 -12.5t19 -37t9.5 -47 t5 -54.5l-10 -5q-9 32 -14 47t-15.5 28t-23.5 13q-38 0 -109 -108.5t-119 -231.5h130l-6 -34h-137q-11 -29 -19 -61h143l-7 -34h-143l-14 -67l-5 -22l71 -21z" />
<glyph unicode="&#xa6;" horiz-adv-x="326" d="M263 325l-56 -4l-5 7l78 363l56 4l4 -6zM153 -191l-56 -4l-4 6l77 365l56 4l5 -6z" />
<glyph unicode="&#xa7;" horiz-adv-x="558" d="M525 115q0 -113 -92 -194t-221 -81q-74 0 -121 23.5t-47 60.5q0 46 60 77h8q34 -85 125 -127q29 11 50 48t21 76q0 36 -17.5 75t-42 74t-49 71.5t-42 80.5t-17.5 87q0 114 94 194t225 80q69 0 115 -24.5t46 -61.5q0 -50 -61 -80h-8q-42 93 -129 133q-28 -18 -47.5 -55 t-19.5 -79q0 -36 17.5 -74.5t42.5 -73t50 -69.5t42.5 -77t17.5 -84zM325 -101l4 -4q56 27 89.5 81t33.5 117q0 40 -17 80t-41.5 74t-49.5 68t-42 73.5t-17 78.5q0 78 53 130l-4 4q-56 -27 -88.5 -77t-32.5 -113q0 -48 26 -100t57 -90t57 -89.5t26 -98.5q0 -82 -54 -134z" />
<glyph unicode="&#xa8;" horiz-adv-x="513" d="M215 664q0 -31 -24 -53t-56 -22q-25 0 -39 13t-14 35q0 30 24.5 52t55.5 22q24 0 38.5 -12.5t14.5 -34.5zM432 664q0 -31 -24 -53t-56 -22q-25 0 -39 13t-14 35q0 30 24.5 52t55.5 22q24 0 38.5 -12.5t14.5 -34.5z" />
<glyph unicode="&#xa9;" horiz-adv-x="630" d="M320 -10q-99 0 -159 57t-60 150q0 126 95 219.5t220 93.5q98 0 159 -59.5t61 -148.5q0 -123 -95 -217.5t-221 -94.5zM327 22q109 0 191 84t82 188q0 83 -50.5 133.5t-138.5 50.5q-108 0 -191 -83t-83 -192q0 -83 51 -132t139 -49zM473 168q-20 -28 -53.5 -48.5 t-72.5 -20.5q-47 0 -76 30.5t-29 84.5q0 76 50.5 131.5t120.5 55.5q37 0 60.5 -20t23.5 -52q0 -21 -12 -34.5t-29 -13.5q-13 0 -25 7q6 21 6 43q0 42 -35 42t-62 -43t-27 -99q0 -38 18 -59.5t51 -21.5q41 0 82 29z" />
<glyph unicode="&#xaa;" horiz-adv-x="422" d="M123 380q0 67 30 130.5t88.5 106.5t130.5 43q74 0 123 -23l-19 -58l-42 -180q-9 -40 -9 -48q0 -10 7 -10q16 0 67 67l6 -2q-20 -48 -53 -83t-71 -35q-50 0 -50 58q0 21 8 53l22 89q-38 -94 -82.5 -147t-84.5 -53q-35 0 -53 25.5t-18 66.5zM386 595l9 34q-18 10 -37 10 q-50 0 -96.5 -90.5t-46.5 -165.5q0 -43 21 -43q25 0 71.5 79.5t78.5 175.5z" />
<glyph unicode="&#xab;" horiz-adv-x="506" d="M455 61l-13 -8q-76 119 -139 189l-2 5l7 33q126 90 220 172l10 -8q-48 -72 -144 -191q38 -94 61 -192zM269 61l-13 -8q-76 119 -139 189l-2 5l7 33q126 90 220 172l10 -8q-48 -72 -144 -191q38 -94 61 -192z" />
<glyph unicode="&#xac;" horiz-adv-x="534" d="M546 375l-48 -228h-87l33 152h-327l16 79q155 5 407 5z" />
<glyph unicode="&#xae;" horiz-adv-x="630" d="M320 -10q-99 0 -159 57t-60 150q0 126 95 219.5t220 93.5q99 0 159.5 -59.5t60.5 -148.5q0 -123 -95 -217.5t-221 -94.5zM327 22q109 0 191 84t82 188q0 83 -50.5 133.5t-138.5 50.5q-108 0 -191 -83t-83 -192q0 -83 51 -132t139 -49zM318 133l35 -12l-3 -12h-135l1 12 l22 6q10 3 14 8t7 17l6 29l31 146l4 21q4 17 -9 22l-20 7l4 15h137q48 0 74.5 -18t26.5 -51q0 -32 -21.5 -56t-54.5 -36l11 -23q3 -7 9.5 -22.5t9.5 -22t8 -15.5t9.5 -14t9.5 -8l9 -5l-3 -12q-22 -2 -50 -2q-19 -1 -27 6.5t-15 25.5l-34 82q-6 -1 -13 -1h-24l-8 -39z M394 365h-27l-7 -38l-17 -78h32q34 0 54.5 20t20.5 51q0 45 -56 45z" />
<glyph unicode="&#xaf;" horiz-adv-x="490" d="M94 615l14 65h288l-14 -65h-288z" />
<glyph unicode="&#xb0;" horiz-adv-x="343" d="M268 428q-45 0 -71.5 25.5t-26.5 69.5q0 57 41 97t97 40q44 0 70.5 -25t26.5 -68q0 -54 -39.5 -96.5t-97.5 -42.5zM300 620q-36 0 -60.5 -27.5t-24.5 -62.5q0 -29 17.5 -45.5t45.5 -16.5q34 0 57.5 28t23.5 62q0 28 -16 45t-43 17z" />
<glyph unicode="&#xb1;" horiz-adv-x="545" d="M547 363h-156l-31 -146h-88l31 146h-163l16 77q57 3 163 3l31 147h89l-31 -146q62 1 158 1l4 -6zM488 65h-407l17 78q124 4 409 4l5 -6z" />
<glyph unicode="&#xb2;" horiz-adv-x="346" d="M202 382q-39 0 -71 -16l-10 37q110 75 156.5 124t46.5 97q0 27 -16.5 42.5t-44.5 15.5q-56 0 -92 -61l-6 3q19 53 58.5 83.5t95.5 30.5q47 0 77 -25.5t30 -66.5q0 -51 -47 -97t-137 -94q-5 -3 -13 -7.5t-15 -8.5l-14 -8q22 6 45 6q20 0 60 -6t52 -6t19.5 9.5t19.5 32.5 l5 -1q-6 -33 -18 -66q-14 -34 -37 -34q-19 0 -68 8t-76 8z" />
<glyph unicode="&#xb3;" horiz-adv-x="322" d="M383 483q0 -52 -71.5 -83.5t-197.5 -34.5l-2 13q82 11 126.5 38.5t44.5 67.5q0 26 -19 40t-50 14q-6 0 -26 -2l-3 18q59 9 91 32t32 56q0 19 -13.5 31t-36.5 12q-54 0 -87 -54l-5 3q16 47 55.5 76t89.5 29q44 0 70 -20.5t26 -54.5q0 -39 -35.5 -66.5t-93.5 -39.5 q47 -2 76 -22.5t29 -52.5z" />
<glyph unicode="&#xb4;" horiz-adv-x="406" d="M313 688q0 -35 -70 -72t-154 -48l-6 11q99 85 154 154q35 0 55.5 -12t20.5 -33z" />
<glyph unicode="&#xb6;" horiz-adv-x="598" d="M363 190q-129 0 -193 60t-41 170q24 110 112.5 170t217.5 60h211l-1 -12l-43 -11q-23 -7 -28 -31l-115 -542q-22 -104 -85.5 -159t-153.5 -55q-81 0 -122 32.5t-29 87.5q7 34 38 60.5t71 39.5l6 -5q-16 -17 -26 -45q-19 -58 2.5 -97t79.5 -39q56 0 97.5 45t58.5 125 l117 552l4 20h-80l-90 -426h-8z" />
<glyph unicode="&#xb7;" horiz-adv-x="300" d="M202 227q-24 0 -38 13.5t-14 35.5q0 30 22 51t51 21q23 0 36.5 -12.5t13.5 -33.5q0 -30 -21.5 -52.5t-49.5 -22.5z" />
<glyph unicode="&#xb8;" horiz-adv-x="356" d="M131 -89l-2 6l29 83h35l-15 -43q95 -8 95 -63q0 -44 -57 -67.5t-130 -24.5l-2 15q41 9 68.5 26t27.5 38q0 27 -49 30z" />
<glyph unicode="&#xb9;" horiz-adv-x="271" d="M309 371h-185v8l37 6q15 4 18 19l66 295l-56 -2l1 7l151 35l5 -4l-76 -331l-3 -14l44 -11z" />
<glyph unicode="&#xba;" horiz-adv-x="405" d="M474 522q0 -97 -61.5 -165.5t-144.5 -68.5q-63 0 -99.5 37t-36.5 101q0 95 62.5 164.5t146.5 69.5q63 0 98 -38t35 -100zM231 402q0 -91 42 -91q40 0 70.5 83.5t30.5 159.5q0 83 -40 83t-71.5 -79.5t-31.5 -155.5z" />
<glyph unicode="&#xbb;" horiz-adv-x="506" d="M306 228q-112 -79 -220 -171l-10 7q42 64 144 191q-36 84 -61 192l13 8q80 -125 139 -188l2 -5zM492 228q-112 -79 -220 -171l-10 7q42 64 144 191q-36 84 -61 192l13 8q80 -125 139 -188l2 -5z" />
<glyph unicode="&#xbc;" horiz-adv-x="960" d="M753 660h70l-541 -670h-70zM333 288h-185v8l36 6q15 4 19 19l65 295l-55 -2v7l152 35l4 -4l-75 -331l-4 -14l45 -11zM546 118l252 250l53 -8l-49 -231l56 1l-11 -43h-54l-18 -87h-90l18 88l-158 2zM744 287l-158 -163l125 3z" />
<glyph unicode="&#xbd;" horiz-adv-x="960" d="M753 660h70l-541 -670h-70zM333 288h-185v8l36 6q15 4 19 19l65 295l-55 -2v7l152 35l4 -4l-75 -331l-4 -14l45 -11zM657 11q-40 0 -71 -17l-10 38q110 75 156.5 124t46.5 97q0 27 -16.5 42.5t-44.5 15.5q-56 0 -92 -61l-6 3q19 53 58.5 83.5t95.5 30.5q47 0 77 -25.5 t30 -66.5q0 -51 -47 -96.5t-137 -93.5q-24 -15 -42 -25q23 6 45 6q20 0 60 -6t52 -6t19.5 9.5t19.5 32.5l5 -1q-6 -33 -18 -66q-14 -35 -37 -35q-19 0 -68 8.5t-76 8.5z" />
<glyph unicode="&#xbe;" horiz-adv-x="960" d="M753 660h70l-541 -670h-70zM391 400q0 -52 -71.5 -83.5t-197.5 -34.5l-2 13q82 11 126.5 38.5t44.5 67.5q0 26 -19 40t-50 14q-6 0 -26 -2l-3 18q59 9 91 32t32 56q0 19 -13.5 31t-36.5 12q-54 0 -87 -54l-5 3q16 47 55.5 76t89.5 29q44 0 70 -20.5t26 -54.5 q0 -39 -35.5 -66.5t-93.5 -39.5q47 -2 76 -22.5t29 -52.5zM546 118l252 250l53 -8l-49 -231l56 1l-11 -43h-54l-18 -87h-90l18 88l-158 2zM744 287l-158 -163l125 3z" />
<glyph unicode="&#xbf;" horiz-adv-x="508" d="M273 431q0 33 26 56t62 23q29 0 45.5 -13.5t16.5 -37.5q0 -32 -27 -55t-62 -23q-28 0 -44.5 13.5t-16.5 36.5zM224 -195q-90 0 -146 40t-56 110q0 49 27.5 90.5t66 70t77.5 52.5t66.5 48t27.5 47q0 25 -25 38l3 8q8 1 22 1q34 -2 54 -18t20 -42q0 -29 -22 -59.5 t-53.5 -57.5t-62.5 -56.5t-53 -68.5t-22 -82q0 -41 24.5 -65.5t65.5 -24.5q59 0 96.5 51.5t37.5 120.5q0 21 -2 32q20 10 50 10q68 0 68 -57q0 -73 -78.5 -130.5t-185.5 -57.5z" />
<glyph unicode="&#xc0;" horiz-adv-x="691" d="M606 724l-9 -9q-77 23 -127 57.5t-50 66.5q0 23 18.5 35t48.5 12q5 0 12 -0.5t10 -0.5q31 -70 97 -161zM450 652h64l94 -581q4 -22 11.5 -31.5t25.5 -15.5l35 -11l-3 -13h-279l1 13l81 22l-23 161l-233 -1l-92 -162l76 -20l-3 -13h-189l1 13l43 11q22 6 32.5 15.5 t25.5 34.5zM243 228l210 -2l-42 296z" />
<glyph unicode="&#xc1;" horiz-adv-x="691" d="M628 838q0 -35 -70 -71.5t-153 -47.5l-7 10q97 84 155 154q75 0 75 -45zM450 652h64l94 -581q4 -22 11.5 -31.5t25.5 -15.5l35 -11l-3 -13h-279l1 13l81 22l-23 161l-233 -1l-92 -162l76 -20l-3 -13h-189l1 13l43 11q22 6 32.5 15.5t25.5 34.5zM243 228l210 -2l-42 296z " />
<glyph unicode="&#xc2;" horiz-adv-x="691" d="M638 727l-10 -6q-59 43 -116 79q-104 -58 -145 -79l-6 8q84 92 122 145l9 5h80q18 -37 66 -152zM450 652h64l94 -581q4 -22 11.5 -31.5t25.5 -15.5l35 -11l-3 -13h-279l1 13l81 22l-23 161l-233 -1l-92 -162l76 -20l-3 -13h-189l1 13l43 11q22 6 32.5 15.5t25.5 34.5z M243 228l210 -2l-42 296z" />
<glyph unicode="&#xc3;" horiz-adv-x="691" d="M609 809q26 20 65 56l8 -4q-13 -54 -42 -88t-69 -34q-24 0 -55 10t-64 24t-43 17q-26 -20 -65 -56l-8 4q12 56 41.5 89t69.5 33q31 0 93 -24.5t69 -26.5zM450 652h64l94 -581q4 -22 11.5 -31.5t25.5 -15.5l35 -11l-3 -13h-279l1 13l81 22l-23 161l-233 -1l-92 -162 l76 -20l-3 -13h-189l1 13l43 11q22 6 32.5 15.5t25.5 34.5zM243 228l210 -2l-42 296z" />
<glyph unicode="&#xc4;" horiz-adv-x="691" d="M471 814q0 -31 -23.5 -53t-55.5 -22q-25 0 -39.5 13t-14.5 35q0 29 24.5 51.5t55.5 22.5q25 0 39 -12.5t14 -34.5zM688 814q0 -31 -23.5 -53t-55.5 -22q-25 0 -39.5 13t-14.5 35q0 29 24.5 51.5t55.5 22.5q25 0 39 -12.5t14 -34.5zM450 652h64l94 -581q4 -22 11.5 -31.5 t25.5 -15.5l35 -11l-3 -13h-279l1 13l81 22l-23 161l-233 -1l-92 -162l76 -20l-3 -13h-189l1 13l43 11q22 6 32.5 15.5t25.5 34.5zM243 228l210 -2l-42 296z" />
<glyph unicode="&#xc5;" horiz-adv-x="691" d="M605 813q0 -39 -32 -66.5t-77 -27.5q-34 0 -54 17.5t-20 48.5q0 40 32 67t77 27q34 0 54 -17.5t20 -48.5zM473 786q0 -34 31 -34q21 0 35.5 17.5t14.5 42.5q-2 34 -31 34q-21 0 -35.5 -17.5t-14.5 -42.5zM450 652h64l94 -581q4 -22 11.5 -31.5t25.5 -15.5l35 -11l-3 -13 h-279l1 13l81 22l-23 161l-233 -1l-92 -162l76 -20l-3 -13h-189l1 13l43 11q22 6 32.5 15.5t25.5 34.5zM243 228l210 -2l-42 296z" />
<glyph unicode="&#xc6;" horiz-adv-x="866" d="M207 8l-104 -8l-87 5l27 13q34 7 45 28q4 1 25 32.5t48.5 77.5t52.5 89t46 79.5t22 37.5l153 255l-78 20l4 13h592q-1 -42 -16.5 -99t-34.5 -95h-9l-38 162q-29 1 -86 1h-91l-60 -282l188 8l-10 -47l-184 8l-53 -250l-5 -24l96 -1q59 0 89 1l108 166h9q1 -24 -2 -60 q-6 -69 -30 -138h-473v13l59 13q19 5 24 30l53 250l-198 -1l-168 -284l44 8zM462 619l-154 -281l185 -2l61 283h-92z" />
<glyph unicode="&#xc7;" horiz-adv-x="602" d="M340 -89l-2 6l25 74q-118 8 -188 78t-70 190q0 170 114.5 285.5t289.5 115.5q105 0 158 -33q-4 -41 -21 -98.5t-36 -95.5h-9l-34 186q-23 9 -53 9q-114 0 -195 -110.5t-80 -259.5q0 -110 47.5 -173t124.5 -63q27 0 53 8l113 189h9q1 -32 -5 -91q-5 -62 -22 -109 q-61 -27 -160 -29l-12 -33q95 -8 95 -63q0 -44 -57 -67.5t-130 -24.5l-2 15q41 9 68.5 26t27.5 38q0 27 -49 30z" />
<glyph unicode="&#xc8;" horiz-adv-x="555" d="M567 724l-9 -9q-78 23 -127.5 57t-49.5 67q0 47 67 47q5 0 12 -0.5t9 -0.5q34 -73 98 -161zM513 0h-473v13l59 13q19 5 24 30l114 539l5 22l-70 20l3 13h466q-1 -42 -16.5 -99t-34.5 -95h-8l-39 162q-28 1 -86 1h-90l-5 -24l-54 -252l189 8l-10 -48l-185 9l-54 -256 l-5 -24l96 -1q59 0 89 1l108 166h9q1 -24 -2 -60q-6 -69 -30 -138z" />
<glyph unicode="&#xc9;" horiz-adv-x="555" d="M589 838q0 -35 -70 -71.5t-154 -47.5l-6 10q103 91 154 154q76 0 76 -45zM513 0h-473v13l59 13q19 5 24 30l114 539l5 22l-70 21l3 13h466q-1 -42 -16.5 -99.5t-34.5 -95.5h-8l-39 162q-28 1 -86 1h-90l-5 -24l-54 -252l189 8l-10 -48l-185 9l-54 -256l-5 -24h185 l108 166h9q1 -24 -2 -60q-6 -69 -30 -138z" />
<glyph unicode="&#xca;" horiz-adv-x="555" d="M598 727l-10 -6q-65 48 -115 79q-104 -58 -145 -79l-7 8q81 89 123 145l9 5h79q18 -37 66 -152zM513 0h-473v13l59 13q19 5 24 30l114 539l5 22l-70 20l3 13h466q-1 -42 -16.5 -99t-34.5 -95h-8l-39 162q-28 1 -86 1h-90l-5 -24l-54 -252l189 8l-10 -48l-185 9l-54 -256 l-5 -24l96 -1q59 0 89 1l108 166h9q1 -24 -2 -60q-6 -69 -30 -138z" />
<glyph unicode="&#xcb;" horiz-adv-x="555" d="M432 814q0 -31 -24 -53t-56 -22q-25 0 -39 13t-14 35q0 30 24.5 52t55.5 22q24 0 38.5 -12.5t14.5 -34.5zM649 814q0 -31 -24 -53t-56 -22q-25 0 -39 13t-14 35q0 30 24.5 52t55.5 22q24 0 38.5 -12.5t14.5 -34.5zM513 0h-473v13l59 13q19 5 24 30l114 539l5 22l-70 20 l3 13h466q-1 -42 -16.5 -99t-34.5 -95h-8l-39 162q-28 1 -86 1h-90l-5 -24l-54 -252l189 8l-10 -48l-185 9l-54 -256l-5 -24l96 -1q59 0 89 1l108 166h9q1 -24 -2 -60q-6 -69 -30 -138z" />
<glyph unicode="&#xcc;" horiz-adv-x="346" d="M437 724l-9 -9q-78 23 -127.5 57t-49.5 67q0 47 67 47q5 0 12 -0.5t9 -0.5q34 -73 98 -161zM310 0h-270v13l56 12q21 5 27 31l114 539l5 22l-70 20l3 13h270v-13l-56 -11q-21 -6 -27 -31l-114 -539l-5 -22l70 -21z" />
<glyph unicode="&#xcd;" horiz-adv-x="346" d="M459 838q0 -35 -70 -71.5t-154 -47.5l-6 10q103 91 154 154q76 0 76 -45zM310 0h-270v13l56 12q21 5 27 31l114 539l5 22l-70 20l3 13h270v-13l-56 -11q-21 -6 -27 -31l-114 -539l-5 -22l70 -21z" />
<glyph unicode="&#xce;" horiz-adv-x="346" d="M468 727l-10 -6q-65 48 -115 79q-104 -58 -145 -79l-7 8q81 89 123 145l9 5h79q18 -37 66 -152zM310 0h-270v13l56 12q21 5 27 31l114 539l5 22l-70 20l3 13h270v-13l-56 -11q-21 -6 -27 -31l-114 -539l-5 -22l70 -21z" />
<glyph unicode="&#xcf;" horiz-adv-x="346" d="M302 814q0 -31 -24 -53t-56 -22q-25 0 -39 13t-14 35q0 30 24.5 52t55.5 22q24 0 38.5 -12.5t14.5 -34.5zM519 814q0 -31 -24 -53t-56 -22q-25 0 -39 13t-14 35q0 30 24.5 52t55.5 22q24 0 38.5 -12.5t14.5 -34.5zM310 0h-270v13l56 12q21 5 27 31l114 539l5 22l-70 20 l3 13h270v-13l-56 -11q-21 -6 -27 -31l-114 -539l-5 -22l70 -21z" />
<glyph unicode="&#xd0;" horiz-adv-x="680" d="M303 0h-263l-1 13l59 13q21 5 24 30l55 256h-74l6 29h74l54 254l5 22l-70 20l3 13h254q137 0 212 -62.5t75 -180.5q0 -170 -112.5 -288.5t-300.5 -118.5zM442 312h-140l-55 -256l-5 -25h62q89 0 157 62t100 149t32 179q0 198 -176 198h-50l-5 -24l-54 -254h140z" />
<glyph unicode="&#xd1;" horiz-adv-x="686" d="M608 809q26 20 65 56l8 -4q-13 -54 -42 -88t-69 -34q-24 0 -55 10t-64 24t-43 17q-26 -20 -65 -56l-8 4q12 56 41.5 89t69.5 33q31 0 93 -24.5t69 -26.5zM238 1h-202v13l64 13q14 4 19.5 10t7.5 19l120 562l-78 20l3 12h168l223 -516l99 461l5 22l-84 20l4 13h201v-13 l-63 -13q-14 -4 -19.5 -9.5t-8.5 -19.5l-126 -595h-86l-224 520l-98 -464l-5 -22l83 -20z" />
<glyph unicode="&#xd2;" horiz-adv-x="643" d="M585 724l-9 -9q-77 23 -127 57.5t-50 66.5q0 23 18.5 35t48.5 12q5 0 12 -0.5t10 -0.5q31 -70 97 -161zM680 414q0 -170 -102 -297t-248 -127q-108 0 -168.5 66t-60.5 177q0 172 104 299.5t250 127.5q107 0 166 -66t59 -180zM235 177q0 -75 25.5 -115t70.5 -40 q56 0 107 75t79.5 180.5t28.5 202.5q0 70 -24 109.5t-70 39.5q-57 0 -108.5 -73.5t-80 -178t-28.5 -200.5z" />
<glyph unicode="&#xd3;" horiz-adv-x="643" d="M606 838q0 -35 -70 -71.5t-153 -47.5l-7 10q97 84 155 154q75 0 75 -45zM680 414q0 -170 -102 -297t-248 -127q-108 0 -168.5 66t-60.5 177q0 172 104 299.5t250 127.5q107 0 166 -66t59 -180zM235 177q0 -75 25.5 -115t70.5 -40q56 0 107 75t79.5 180.5t28.5 202.5 q0 70 -24 109.5t-70 39.5q-57 0 -108.5 -73.5t-80 -178t-28.5 -200.5z" />
<glyph unicode="&#xd4;" horiz-adv-x="643" d="M616 727l-10 -6q-59 43 -116 79q-104 -58 -145 -79l-6 8q84 92 122 145l9 5h80q18 -37 66 -152zM680 414q0 -170 -102 -297t-248 -127q-108 0 -168.5 66t-60.5 177q0 172 104 299.5t250 127.5q107 0 166 -66t59 -180zM235 177q0 -75 25.5 -115t70.5 -40q56 0 107 75 t79.5 180.5t28.5 202.5q0 70 -24 109.5t-70 39.5q-57 0 -108.5 -73.5t-80 -178t-28.5 -200.5z" />
<glyph unicode="&#xd5;" horiz-adv-x="643" d="M587 809q26 20 65 56l8 -4q-13 -54 -42 -88t-69 -34q-24 0 -55 10t-64 24t-43 17q-26 -20 -65 -56l-8 4q12 56 41.5 89t69.5 33q31 0 93 -24.5t69 -26.5zM680 414q0 -170 -102 -297t-248 -127q-108 0 -168.5 66t-60.5 177q0 172 104 299.5t250 127.5q107 0 166 -66 t59 -180zM235 177q0 -75 25.5 -115t70.5 -40q56 0 107 75t79.5 180.5t28.5 202.5q0 70 -24 109.5t-70 39.5q-57 0 -108.5 -73.5t-80 -178t-28.5 -200.5z" />
<glyph unicode="&#xd6;" horiz-adv-x="643" d="M449 814q0 -31 -23.5 -53t-55.5 -22q-25 0 -39.5 13t-14.5 35q0 29 24.5 51.5t55.5 22.5q25 0 39 -12.5t14 -34.5zM666 814q0 -31 -23.5 -53t-55.5 -22q-25 0 -39.5 13t-14.5 35q0 29 24.5 51.5t55.5 22.5q25 0 39 -12.5t14 -34.5zM680 414q0 -170 -102 -297t-248 -127 q-108 0 -168.5 66t-60.5 177q0 172 104 299.5t250 127.5q107 0 166 -66t59 -180zM235 177q0 -75 25.5 -115t70.5 -40q56 0 107 75t79.5 180.5t28.5 202.5q0 70 -24 109.5t-70 39.5q-57 0 -108.5 -73.5t-80 -178t-28.5 -200.5z" />
<glyph unicode="&#xd7;" horiz-adv-x="499" d="M416 128l-108 138l-166 -139l-46 59l166 140l-110 143l68 55q32 -38 111 -139l165 139l48 -59l-166 -140q56 -72 108 -138l-2 -9z" />
<glyph unicode="&#xd8;" horiz-adv-x="643" d="M680 414q0 -170 -102 -297t-248 -127q-108 0 -169 66l-62 -66l-26 26l66 70q-38 59 -38 147q0 172 104 299.5t250 127.5q104 0 163 -64l60 64l27 -25l-64 -69q39 -62 39 -152zM452 628q-55 0 -106 -70.5t-80 -171.5t-31 -197l309 328q-6 54 -29.5 83t-62.5 28zM331 21 q54 0 104 72t78.5 173.5t31.5 198.5l-308 -328q12 -114 94 -116z" />
<glyph unicode="&#xd9;" horiz-adv-x="670" d="M617 724l-9 -9q-78 23 -127.5 57t-49.5 67q0 47 67 47q5 0 12 -0.5t9 -0.5q34 -73 98 -161zM616 231q-51 -241 -261 -241q-97 0 -152.5 50t-55.5 139q0 24 7 61l76 355l5 22l-71 20l4 13h270v-13l-56 -11q-23 -6 -27 -31l-77 -362q-8 -37 -8 -64q0 -65 33.5 -99.5 t91.5 -34.5q67 0 116 50t70 147l77 364l5 21l-79 20l3 13h198v-13l-87 -20l-5 -21z" />
<glyph unicode="&#xda;" horiz-adv-x="670" d="M644 838q0 -35 -70 -71.5t-154 -47.5l-6 10q103 91 154 154q76 0 76 -45zM616 231q-51 -241 -261 -241q-97 0 -152.5 50t-55.5 139q0 24 7 61l76 355l5 22l-71 20l4 13h270v-13l-56 -11q-23 -6 -27 -31l-77 -362q-8 -37 -8 -64q0 -65 33.5 -99.5t91.5 -34.5q67 0 116 50 t70 147l77 364l5 21l-79 20l3 13h198v-13l-87 -20l-5 -21z" />
<glyph unicode="&#xdb;" horiz-adv-x="670" d="M653 727l-10 -6q-65 48 -115 79q-104 -58 -145 -79l-7 8q81 89 123 145l9 5h79q18 -37 66 -152zM616 231q-51 -241 -261 -241q-97 0 -152.5 50t-55.5 139q0 24 7 61l76 355l5 22l-71 20l4 13h270v-13l-56 -11q-23 -6 -27 -31l-77 -362q-8 -37 -8 -64q0 -65 33.5 -99.5 t91.5 -34.5q67 0 116 50t70 147l77 364l5 21l-79 20l3 13h198v-13l-87 -20l-5 -21z" />
<glyph unicode="&#xdc;" horiz-adv-x="670" d="M487 814q0 -31 -24 -53t-56 -22q-25 0 -39 13t-14 35q0 30 24.5 52t55.5 22q24 0 38.5 -12.5t14.5 -34.5zM704 814q0 -31 -24 -53t-56 -22q-25 0 -39 13t-14 35q0 30 24.5 52t55.5 22q24 0 38.5 -12.5t14.5 -34.5zM616 231q-51 -241 -261 -241q-97 0 -152.5 50t-55.5 139 q0 24 7 61l76 355l5 22l-71 20l4 13h270v-13l-56 -11q-23 -6 -27 -31l-77 -362q-8 -37 -8 -64q0 -65 33.5 -99.5t91.5 -34.5q67 0 116 50t70 147l77 364l5 21l-79 20l3 13h198v-13l-87 -20l-5 -21z" />
<glyph unicode="&#xdd;" horiz-adv-x="594" d="M593 838q0 -35 -70 -71.5t-154 -47.5l-6 10q103 91 154 154q76 0 76 -45zM434 0h-270v13l56 12q13 3 19 10t8 21l24 114q12 75 10 168.5t-23 172.5t-50 79q-32 0 -93 -96l-10 4q22 63 66 112.5t95 49.5q47 0 79.5 -55t45.5 -142.5t7 -192.5q67 173 136 281.5t117 108.5 q19 0 31.5 -12.5t19 -37t9.5 -47t5 -54.5l-10 -5q-9 32 -14 47t-15 28t-23 13q-32 0 -89.5 -79t-107.5 -186t-67 -185l-18 -86l-5 -22l71 -21z" />
<glyph unicode="&#xde;" horiz-adv-x="591" d="M247 55h-7l-2 -23l99 -20l-2 -12h-296l-1 12l53 11q23 6 24 32h7l115 540l5 22l-70 20l3 13h270v-13l-56 -11q-21 -6 -27 -31l-14 -67h57q109 0 172.5 -42t63.5 -125q0 -106 -89 -170.5t-228 -64.5h-62zM388 497h-47l-72 -340h46q89 0 144 65t55 155q0 60 -33.5 90 t-92.5 30z" />
<glyph unicode="&#xdf;" horiz-adv-x="532" d="M202 34q-23 -111 -84 -170t-140 -59q-47 0 -77 19.5t-30 48.5q0 36 49 45q7 -15 10.5 -21.5t12 -18.5t17.5 -17.5t20 -5.5q36 0 58 37.5t41 128.5l89 421q49 253 257 253q63 0 100.5 -32.5t37.5 -89.5q0 -64 -42.5 -111t-116.5 -64q141 -67 141 -205q0 -88 -53 -145 t-130 -57q-45 0 -72.5 19t-27.5 49q0 33 32 43q7 -27 22 -42.5t33 -15.5q34 0 56 42.5t22 107.5q0 130 -90 197l4 20q52 9 86 57.5t34 110.5q0 82 -54 82q-35 0 -64 -46.5t-46 -132.5z" />
<glyph unicode="&#xe0;" horiz-adv-x="526" d="M491 574l-9 -10q-77 23 -127 57.5t-50 66.5q0 23 18.5 35t48.5 12q16 0 22 -1q32 -70 97 -160zM70 117q0 93 39 182t115 150t169 61q91 0 157 -32l-24 -81l-56 -254q-11 -49 -11 -68q0 -14 9 -14q20 0 88 96l8 -5q-26 -65 -69 -113.5t-91 -48.5q-64 0 -64 78q0 27 10 75 l30 131q-49 -132 -108 -208t-111 -76q-44 0 -67.5 35.5t-23.5 91.5zM412 418l12 49q-23 14 -50 14q-44 0 -89 -62.5t-71.5 -146.5t-26.5 -151q0 -61 28 -61q33 0 94 111t103 247z" />
<glyph unicode="&#xe1;" horiz-adv-x="526" d="M515 688q0 -35 -69.5 -71.5t-153.5 -48.5l-7 11q92 79 155 154q35 0 55 -12t20 -33zM70 117q0 93 39 182t115 150t169 61q91 0 157 -32l-24 -81l-56 -254q-11 -49 -11 -68q0 -14 9 -14q20 0 88 96l8 -5q-26 -65 -69 -113.5t-91 -48.5q-64 0 -64 78q0 27 10 75l30 131 q-49 -132 -108 -208t-111 -76q-44 0 -67.5 35.5t-23.5 91.5zM412 418l12 49q-23 14 -50 14q-44 0 -89 -62.5t-71.5 -146.5t-26.5 -151q0 -61 28 -61q33 0 94 111t103 247z" />
<glyph unicode="&#xe2;" horiz-adv-x="526" d="M527 577l-10 -6q-65 48 -115 79q-104 -58 -145 -79l-7 8q81 89 123 145l9 5h79q18 -37 66 -152zM70 117q0 93 39 182t115 150t169 61q91 0 157 -32l-24 -81l-56 -254q-11 -49 -11 -68q0 -14 9 -14q20 0 88 96l8 -5q-26 -65 -69 -113.5t-91 -48.5q-64 0 -64 78q0 27 10 75 l30 131q-49 -132 -108 -208t-111 -76q-44 0 -67.5 35.5t-23.5 91.5zM412 418l12 49q-23 14 -50 14q-44 0 -89 -62.5t-71.5 -146.5t-26.5 -151q0 -61 28 -61q33 0 94 111t103 247z" />
<glyph unicode="&#xe3;" horiz-adv-x="526" d="M497 659q26 20 65 56l8 -4q-13 -54 -42 -88t-69 -34q-24 0 -55 10t-64 24t-43 17q-26 -20 -65 -56l-8 4q12 56 41.5 89t69.5 33q31 0 93 -24.5t69 -26.5zM70 117q0 93 39 182t115 150t169 61q91 0 157 -32l-24 -81l-56 -254q-11 -49 -11 -68q0 -14 9 -14q20 0 88 96l8 -5 q-26 -65 -69 -113.5t-91 -48.5q-64 0 -64 78q0 27 10 75l30 131q-49 -132 -108 -208t-111 -76q-44 0 -67.5 35.5t-23.5 91.5zM412 418l12 49q-23 14 -50 14q-44 0 -89 -62.5t-71.5 -146.5t-26.5 -151q0 -61 28 -61q33 0 94 111t103 247z" />
<glyph unicode="&#xe4;" horiz-adv-x="526" d="M357 664q0 -31 -23.5 -53t-55.5 -22q-25 0 -39.5 13t-14.5 35q0 29 24.5 51.5t55.5 22.5q25 0 39 -12.5t14 -34.5zM574 664q0 -31 -23.5 -53t-55.5 -22q-25 0 -39.5 13t-14.5 35q0 29 24.5 51.5t55.5 22.5q25 0 39 -12.5t14 -34.5zM70 117q0 93 39 182t115 150t169 61 q91 0 157 -32l-24 -81l-56 -254q-11 -49 -11 -68q0 -14 9 -14q20 0 88 96l8 -5q-26 -65 -69 -113.5t-91 -48.5q-64 0 -64 78q0 27 10 75l30 131q-49 -132 -108 -208t-111 -76q-44 0 -67.5 35.5t-23.5 91.5zM412 418l12 49q-23 14 -50 14q-44 0 -89 -62.5t-71.5 -146.5 t-26.5 -151q0 -61 28 -61q33 0 94 111t103 247z" />
<glyph unicode="&#xe5;" horiz-adv-x="526" d="M490 665q0 -40 -32 -67.5t-76 -27.5q-35 0 -55 17.5t-20 48.5q0 39 32 67t77 28q35 0 54.5 -18t19.5 -48zM358 638q2 -34 32 -34q21 0 35 17t14 43q0 15 -8.5 24t-22.5 9q-21 0 -35.5 -17t-14.5 -42zM70 117q0 93 39 182t115 150t169 61q91 0 157 -32l-24 -81l-56 -254 q-11 -49 -11 -68q0 -14 9 -14q20 0 88 96l8 -5q-26 -65 -69 -113.5t-91 -48.5q-64 0 -64 78q0 27 10 75l30 131q-49 -132 -108 -208t-111 -76q-44 0 -67.5 35.5t-23.5 91.5zM412 418l12 49q-23 14 -50 14q-44 0 -89 -62.5t-71.5 -146.5t-26.5 -151q0 -61 28 -61q33 0 94 111 t103 247z" />
<glyph unicode="&#xe6;" horiz-adv-x="692" d="M725 155q-27 -70 -85 -117.5t-124 -47.5q-70 0 -111.5 48t-42.5 130q2 46 10 85q-49 -123 -105 -193t-106 -70q-44 0 -67.5 35.5t-23.5 91.5q0 93 39 182t115 150t169 61q78 0 141 -25q47 25 96 25q55 0 89 -28t34 -76q0 -83 -72.5 -136t-191.5 -58v-17q0 -63 22 -96.5 t63 -33.5q68 0 144 95zM187 121q0 -61 28 -61q33 0 94 111t103 247h-1l13 49q-23 14 -50 14q-44 0 -89 -62.5t-71.5 -146.5t-26.5 -151zM621 480q-42 0 -81.5 -76.5t-48.5 -166.5q72 10 118 68t46 133q0 42 -34 42z" />
<glyph unicode="&#xe7;" horiz-adv-x="430" d="M187 -89l-2 6l26 74q-58 8 -94 54t-36 123q0 132 81 237t187 105q58 0 91 -31t33 -80q0 -39 -21.5 -67.5t-55.5 -28.5q-24 0 -45 8q24 72 24 113q0 56 -36 56q-47 0 -89.5 -94t-42.5 -186q0 -65 22.5 -100t63.5 -35q69 0 143 95l7 -5q-25 -64 -79.5 -111.5t-117.5 -52.5 l-12 -34q95 -8 95 -63q0 -44 -57 -67.5t-130 -24.5l-2 15q41 9 68.5 26t27.5 38q0 27 -49 30z" />
<glyph unicode="&#xe8;" horiz-adv-x="425" d="M466 574l-9 -10q-78 23 -127.5 57t-49.5 67q0 47 67 47q16 0 21 -1q35 -73 98 -160zM443 155q-27 -70 -85 -117.5t-124 -47.5q-70 0 -111.5 48t-41.5 130q0 132 79.5 237t187.5 105q55 0 89 -28t34 -76q0 -83 -72.5 -136t-191.5 -58v-17q0 -63 22 -96.5t63 -33.5 q68 0 144 95zM339 480q-42 0 -81.5 -76.5t-48.5 -166.5q72 10 118 68t46 133q0 42 -34 42z" />
<glyph unicode="&#xe9;" horiz-adv-x="425" d="M490 688q0 -35 -70 -72t-154 -48l-6 11q99 85 154 154q35 0 55.5 -12t20.5 -33zM443 155q-27 -70 -85 -117.5t-124 -47.5q-70 0 -111.5 48t-41.5 130q0 132 79.5 237t187.5 105q55 0 89 -28t34 -76q0 -83 -72.5 -136t-191.5 -58v-17q0 -63 22 -96.5t63 -33.5q68 0 144 95 zM339 480q-42 0 -81.5 -76.5t-48.5 -166.5q72 10 118 68t46 133q0 42 -34 42z" />
<glyph unicode="&#xea;" horiz-adv-x="425" d="M502 577l-10 -6q-59 43 -116 79q-104 -58 -145 -79l-6 8q84 92 122 145l9 5h80q18 -37 66 -152zM443 155q-27 -70 -85 -117.5t-124 -47.5q-70 0 -111.5 48t-41.5 130q0 132 79.5 237t187.5 105q55 0 89 -28t34 -76q0 -83 -72.5 -136t-191.5 -58v-17q0 -63 22 -96.5 t63 -33.5q68 0 144 95zM339 480q-42 0 -81.5 -76.5t-48.5 -166.5q72 10 118 68t46 133q0 42 -34 42z" />
<glyph unicode="&#xeb;" horiz-adv-x="424" d="M332 664q0 -31 -24 -53t-56 -22q-25 0 -39 13t-14 35q0 30 24.5 52t55.5 22q24 0 38.5 -12.5t14.5 -34.5zM549 664q0 -31 -24 -53t-56 -22q-25 0 -39 13t-14 35q0 30 24.5 52t55.5 22q24 0 38.5 -12.5t14.5 -34.5zM443 155q-27 -70 -85 -117.5t-124 -47.5 q-70 0 -111.5 48t-41.5 130q0 132 79.5 237t187.5 105q55 0 89 -28t34 -76q0 -83 -72.5 -136t-191.5 -58v-17q0 -63 22 -96.5t63 -33.5q68 0 144 95zM339 480q-42 0 -81.5 -76.5t-48.5 -166.5q72 10 118 68t46 133q0 42 -34 42z" />
<glyph unicode="&#xec;" horiz-adv-x="290" d="M367 574l-9 -10q-78 23 -127.5 57t-49.5 67q0 47 67 47q16 0 21 -1q35 -73 98 -160zM114 143q8 37 27 112.5t25 102.5q12 51 12 67q0 15 -9 15q-19 0 -89 -96l-7 4q24 65 67.5 113.5t92.5 48.5q63 0 63 -77q0 -28 -10 -75l-52 -215q-11 -49 -11 -68q0 -14 9 -14 q20 0 88 96l8 -5q-26 -65 -69 -113.5t-91 -48.5q-64 0 -64 78q0 27 10 75z" />
<glyph unicode="&#xed;" horiz-adv-x="290" d="M391 688q0 -35 -70 -72t-154 -48l-6 11q99 85 154 154q35 0 55.5 -12t20.5 -33zM114 143q8 37 27 112.5t25 102.5q12 51 12 67q0 15 -9 15q-19 0 -89 -96l-7 4q24 65 67.5 113.5t92.5 48.5q63 0 63 -77q0 -28 -10 -75l-52 -215q-11 -49 -11 -68q0 -14 9 -14q20 0 88 96 l8 -5q-26 -65 -69 -113.5t-91 -48.5q-64 0 -64 78q0 27 10 75z" />
<glyph unicode="&#xee;" horiz-adv-x="290" d="M379 577l-10 -6q-62 51 -96 76q-3 -2 -52 -32t-73 -44l-6 8q69 90 102 145l9 5h80q8 -25 24 -79.5t22 -72.5zM114 143q8 37 27 112.5t25 102.5q12 51 12 67q0 15 -9 15q-19 0 -89 -96l-7 4q24 65 67.5 113.5t92.5 48.5q63 0 63 -77q0 -28 -10 -75l-52 -215 q-11 -49 -11 -68q0 -14 9 -14q20 0 88 96l8 -5q-26 -65 -69 -113.5t-91 -48.5q-64 0 -64 78q0 27 10 75z" />
<glyph unicode="&#xef;" horiz-adv-x="290" d="M241 663q0 -29 -20 -51t-47 -22q-20 0 -32 13t-12 35q0 29 20.5 51t47.5 22q20 0 31.5 -13t11.5 -35zM419 663q0 -29 -20.5 -51t-47.5 -22q-20 0 -31.5 12.5t-11.5 35.5q0 29 20.5 51t47.5 22q20 0 31.5 -13t11.5 -35zM114 143q8 37 27 112.5t25 102.5q12 51 12 67 q0 15 -9 15q-19 0 -89 -96l-7 4q24 65 67.5 113.5t92.5 48.5q63 0 63 -77q0 -28 -10 -75l-52 -215q-11 -49 -11 -68q0 -14 9 -14q20 0 88 96l8 -5q-26 -65 -69 -113.5t-91 -48.5q-64 0 -64 78q0 27 10 75z" />
<glyph unicode="&#xf0;" horiz-adv-x="500" d="M501 697l-100 -48q124 -100 125 -311q0 -145 -78.5 -247t-188.5 -102q-82 0 -128.5 51.5t-46.5 141.5q0 133 77.5 230.5t180.5 97.5q27 0 52 -10q-14 69 -52 122l-175 -84l-11 27l167 80q-31 35 -88 71l6 12q80 -23 133 -59l115 55zM209 150q0 -60 14.5 -94t41.5 -34 q36 0 68 58.5t49 136t17 143.5q0 118 -54 118q-36 0 -68.5 -55t-50 -130.5t-17.5 -142.5z" />
<glyph unicode="&#xf1;" horiz-adv-x="556" d="M502 659q36 29 65 56l9 -4q-13 -55 -42 -88.5t-69 -33.5q-24 0 -55 10t-64 24t-43 17q-36 -29 -65 -56l-9 4q13 56 42 89t69 33q32 0 93.5 -24.5t68.5 -26.5zM207 -2q-77 -7 -109 -7q-13 0 -10 12l29 140l14 64l22 104q20 94 20 112q0 17 -9 17q-23 0 -87 -96l-8 4 q22 64 64.5 113t91.5 49q28 0 45 -16.5t17 -49.5q0 -50 -43 -218q53 134 116 209t123 75q37 0 57 -21.5t20 -58.5q0 -28 -9.5 -75.5t-27.5 -119.5l-23 -92q-12 -53 -12 -68q0 -14 9 -14q19 0 89 96l7 -5q-25 -65 -68 -113.5t-92 -48.5q-63 0 -63 78q0 27 10 75 q7 35 22.5 94.5t25.5 104t10 66.5q0 27 -20 27q-35 0 -88 -84.5t-93 -207.5z" />
<glyph unicode="&#xf2;" horiz-adv-x="502" d="M483 574l-9 -10q-77 23 -127 57.5t-50 66.5q0 23 18.5 35t48.5 12q16 0 22 -1q32 -70 97 -160zM524 319q0 -136 -79 -233t-186 -97q-81 0 -128 52.5t-47 140.5q0 133 80.5 230.5t188.5 97.5q81 0 126 -52.5t45 -138.5zM209 150q0 -128 55 -128q36 0 68 58.5t49 136 t17 143.5q0 118 -53 118q-36 0 -68.5 -55t-50 -130.5t-17.5 -142.5z" />
<glyph unicode="&#xf3;" horiz-adv-x="502" d="M507 688q0 -35 -69.5 -71.5t-153.5 -48.5l-7 11q92 79 155 154q35 0 55 -12t20 -33zM524 319q0 -136 -79 -233t-186 -97q-81 0 -128 52.5t-47 140.5q0 133 80.5 230.5t188.5 97.5q81 0 126 -52.5t45 -138.5zM209 150q0 -128 55 -128q36 0 68 58.5t49 136t17 143.5 q0 118 -53 118q-36 0 -68.5 -55t-50 -130.5t-17.5 -142.5z" />
<glyph unicode="&#xf4;" horiz-adv-x="502" d="M519 577l-10 -6q-65 48 -115 79q-104 -58 -145 -79l-7 8q81 89 123 145l9 5h79q18 -37 66 -152zM524 319q0 -136 -79 -233t-186 -97q-81 0 -128 52.5t-47 140.5q0 133 80.5 230.5t188.5 97.5q81 0 126 -52.5t45 -138.5zM209 150q0 -128 55 -128q36 0 68 58.5t49 136 t17 143.5q0 118 -53 118q-36 0 -68.5 -55t-50 -130.5t-17.5 -142.5z" />
<glyph unicode="&#xf5;" horiz-adv-x="502" d="M489 659q26 20 65 56l8 -4q-13 -54 -42 -88t-69 -34q-24 0 -55 10t-64 24t-43 17q-26 -20 -65 -56l-8 4q12 56 41.5 89t69.5 33q31 0 93 -24.5t69 -26.5zM524 319q0 -136 -79 -233t-186 -97q-81 0 -128 52.5t-47 140.5q0 133 80.5 230.5t188.5 97.5q81 0 126 -52.5 t45 -138.5zM209 150q0 -128 55 -128q36 0 68 58.5t49 136t17 143.5q0 118 -53 118q-36 0 -68.5 -55t-50 -130.5t-17.5 -142.5z" />
<glyph unicode="&#xf6;" horiz-adv-x="502" d="M349 664q0 -31 -23.5 -53t-55.5 -22q-25 0 -39.5 13t-14.5 35q0 29 24.5 51.5t55.5 22.5q25 0 39 -12.5t14 -34.5zM566 664q0 -31 -23.5 -53t-55.5 -22q-25 0 -39.5 13t-14.5 35q0 29 24.5 51.5t55.5 22.5q25 0 39 -12.5t14 -34.5zM524 319q0 -136 -79 -233t-186 -97 q-81 0 -128 52.5t-47 140.5q0 133 80.5 230.5t188.5 97.5q81 0 126 -52.5t45 -138.5zM209 150q0 -128 55 -128q36 0 68 58.5t49 136t17 143.5q0 118 -53 118q-36 0 -68.5 -55t-50 -130.5t-17.5 -142.5z" />
<glyph unicode="&#xf7;" horiz-adv-x="539" d="M367 447q-24 0 -37.5 13.5t-13.5 35.5q0 30 22 51t51 21q22 0 35.5 -12.5t13.5 -33.5q0 -30 -21 -52.5t-50 -22.5zM530 284h-407l16 78q124 4 410 4l4 -6zM290 82q-24 0 -37.5 13.5t-13.5 35.5q0 30 22 51t51 21q22 0 35.5 -12.5t13.5 -33.5q0 -30 -21 -52.5t-50 -22.5z " />
<glyph unicode="&#xf8;" horiz-adv-x="502" d="M524 319q0 -136 -79 -233t-186 -96q-91 0 -138 62l-52 -49l-21 25l56 53q-20 43 -20 101q0 133 80.5 230.5t188.5 97.5q89 0 135 -64l54 52l21 -25l-59 -56q20 -43 20 -98zM345 478q-50 0 -89 -95.5t-46 -201.5l188 180q0 117 -53 117zM264 22q47 0 85 93t47 199 l-187 -178q3 -114 55 -114z" />
<glyph unicode="&#xf9;" d="M504 574l-9 -10q-77 23 -127 57.5t-50 66.5q0 23 18.5 35t48.5 12q16 0 22 -1q32 -70 97 -160zM459 502q77 7 109 7q13 0 10 -12l-29 -139l-14 -65l-22 -103q-20 -96 -20 -113q0 -16 9 -16q23 0 87 96l8 -5q-22 -64 -64.5 -113t-91.5 -49q-28 0 -45 17t-17 50 q0 49 43 217q-54 -134 -116.5 -209t-122.5 -75q-37 0 -57 21.5t-20 58.5q0 29 9.5 76t28 119.5t22.5 92.5q12 51 12 67q0 15 -9 15q-19 0 -89 -96l-7 4q24 65 67.5 113.5t92.5 48.5q63 0 63 -77q0 -28 -10 -75q-7 -35 -22.5 -94.5t-25.5 -104t-10 -67.5q0 -26 20 -26 q35 0 88 84t93 208z" />
<glyph unicode="&#xfa;" d="M528 688q0 -35 -69.5 -71.5t-153.5 -48.5l-7 11q92 79 155 154q35 0 55 -12t20 -33zM459 502q77 7 109 7q13 0 10 -12l-29 -139l-14 -65l-22 -103q-20 -96 -20 -113q0 -16 9 -16q23 0 87 96l8 -5q-22 -64 -64.5 -113t-91.5 -49q-28 0 -45 17t-17 50q0 49 43 217 q-54 -134 -116.5 -209t-122.5 -75q-37 0 -57 21.5t-20 58.5q0 29 9.5 76t28 119.5t22.5 92.5q12 51 12 67q0 15 -9 15q-19 0 -89 -96l-7 4q24 65 67.5 113.5t92.5 48.5q63 0 63 -77q0 -28 -10 -75q-7 -35 -22.5 -94.5t-25.5 -104t-10 -67.5q0 -26 20 -26q35 0 88 84t93 208z " />
<glyph unicode="&#xfb;" d="M540 577l-10 -6q-65 48 -115 79q-104 -58 -145 -79l-7 8q81 89 123 145l9 5h79q18 -37 66 -152zM459 502q77 7 109 7q13 0 10 -12l-29 -139l-14 -65l-22 -103q-20 -96 -20 -113q0 -16 9 -16q23 0 87 96l8 -5q-22 -64 -64.5 -113t-91.5 -49q-28 0 -45 17t-17 50 q0 49 43 217q-54 -134 -116.5 -209t-122.5 -75q-37 0 -57 21.5t-20 58.5q0 29 9.5 76t28 119.5t22.5 92.5q12 51 12 67q0 15 -9 15q-19 0 -89 -96l-7 4q24 65 67.5 113.5t92.5 48.5q63 0 63 -77q0 -28 -10 -75q-7 -35 -22.5 -94.5t-25.5 -104t-10 -67.5q0 -26 20 -26 q35 0 88 84t93 208z" />
<glyph unicode="&#xfc;" d="M370 664q0 -31 -23.5 -53t-55.5 -22q-25 0 -39.5 13t-14.5 35q0 29 24.5 51.5t55.5 22.5q25 0 39 -12.5t14 -34.5zM587 664q0 -31 -23.5 -53t-55.5 -22q-25 0 -39.5 13t-14.5 35q0 29 24.5 51.5t55.5 22.5q25 0 39 -12.5t14 -34.5zM459 502q77 7 109 7q13 0 10 -12 l-29 -139l-14 -65l-22 -103q-20 -96 -20 -113q0 -16 9 -16q23 0 87 96l8 -5q-22 -64 -64.5 -113t-91.5 -49q-28 0 -45 17t-17 50q0 49 43 217q-54 -134 -116.5 -209t-122.5 -75q-37 0 -57 21.5t-20 58.5q0 29 9.5 76t28 119.5t22.5 92.5q12 51 12 67q0 15 -9 15 q-19 0 -89 -96l-7 4q24 65 67.5 113.5t92.5 48.5q63 0 63 -77q0 -28 -10 -75q-7 -35 -22.5 -94.5t-25.5 -104t-10 -67.5q0 -26 20 -26q35 0 88 84t93 208z" />
<glyph unicode="&#xfd;" horiz-adv-x="481" d="M478 688q0 -35 -69.5 -71.5t-153.5 -48.5l-7 11q92 79 155 154q35 0 55 -12t20 -33zM298 348q0 -70 -18 -160t-51 -170q91 87 138 200.5t47 217.5q0 31 -6 63q24 11 54 11q73 0 73 -82q0 -114 -85 -238.5t-235 -202.5q-85 -182 -206 -182q-41 0 -67 17.5t-26 42.5 q0 18 15 32t37 18q21 -66 52 -66q41 0 77.5 86.5t55.5 199.5t19 207q0 98 -26 98q-24 0 -82 -96l-8 4q21 66 62 114t92 48q88 0 88 -162z" />
<glyph unicode="&#xfe;" horiz-adv-x="504" d="M149 -188q-77 -7 -109 -7q-13 0 -10 11l29 140l129 609l16 74l-78 22v9q90 18 203 25l6 -7l-27 -123l-27 -130q-26 -117 -39 -168q47 115 100 179t104 64q45 0 68.5 -37t23.5 -95q0 -68 -21 -136t-58.5 -124.5t-97.5 -92t-131 -35.5q-15 0 -43 2l-8 -36zM392 441 q-32 0 -84.5 -87.5t-89.5 -214.5l-23 -110q18 -9 50 -9q46 0 88 60t65 142t23 153q0 66 -29 66z" />
<glyph unicode="&#xff;" horiz-adv-x="481" d="M320 664q0 -31 -23.5 -53t-55.5 -22q-25 0 -39.5 13t-14.5 35q0 29 24.5 51.5t55.5 22.5q25 0 39 -12.5t14 -34.5zM537 664q0 -31 -23.5 -53t-55.5 -22q-25 0 -39.5 13t-14.5 35q0 29 24.5 51.5t55.5 22.5q25 0 39 -12.5t14 -34.5zM298 348q0 -70 -18 -160t-51 -170 q91 87 138 200.5t47 217.5q0 31 -6 63q24 11 54 11q73 0 73 -82q0 -114 -85 -238.5t-235 -202.5q-85 -182 -206 -182q-41 0 -67 17.5t-26 42.5q0 18 15 32t37 18q21 -66 52 -66q41 0 77.5 86.5t55.5 199.5t19 207q0 98 -26 98q-24 0 -82 -96l-8 4q21 66 62 114t92 48 q88 0 88 -162z" />
<glyph unicode="&#x100;" horiz-adv-x="691" d="M362 768l14 65h288l-14 -65h-288zM450 652h64l94 -581q4 -22 11.5 -31.5t25.5 -15.5l35 -11l-3 -13h-279l1 13l81 22l-23 161l-233 -1l-92 -162l76 -20l-3 -13h-189l1 13l43 11q22 6 32.5 15.5t25.5 34.5zM243 228l210 -2l-42 296z" />
<glyph unicode="&#x101;" horiz-adv-x="526" d="M249 618l14 65h288l-14 -65h-288zM70 117q0 93 39 182t115 150t169 61q91 0 157 -32l-24 -81l-56 -254q-11 -49 -11 -68q0 -14 9 -14q20 0 88 96l8 -5q-26 -65 -69 -113.5t-91 -48.5q-64 0 -64 78q0 27 10 75l30 131q-49 -132 -108 -208t-111 -76q-44 0 -67.5 35.5 t-23.5 91.5zM412 418l12 49q-23 14 -50 14q-44 0 -89 -62.5t-71.5 -146.5t-26.5 -151q0 -61 28 -61q33 0 94 111t103 247z" />
<glyph unicode="&#x102;" horiz-adv-x="691" d="M633 873l4 1l11 -5q-48 -142 -155 -142q-51 0 -75 37t-17 106l14 4q17 -69 95 -69q74 0 123 68zM450 652h64l94 -581q4 -22 11.5 -31.5t25.5 -15.5l35 -11l-3 -13h-279l1 13l81 22l-23 161l-233 -1l-92 -162l76 -20l-3 -13h-189l1 13l43 11q22 6 32.5 15.5t25.5 34.5z M243 228l210 -2l-42 296z" />
<glyph unicode="&#x103;" horiz-adv-x="526" d="M522 723l3 1l11 -4q-22 -70 -62 -106.5t-93 -36.5q-51 0 -75 37t-17 107l15 3q18 -69 94 -69q74 0 124 68zM70 117q0 93 39 182t115 150t169 61q91 0 157 -32l-24 -81l-56 -254q-11 -49 -11 -68q0 -14 9 -14q20 0 88 96l8 -5q-26 -65 -69 -113.5t-91 -48.5q-64 0 -64 78 q0 27 10 75l30 131q-49 -132 -108 -208t-111 -76q-44 0 -67.5 35.5t-23.5 91.5zM412 418l12 49q-23 14 -50 14q-44 0 -89 -62.5t-71.5 -146.5t-26.5 -151q0 -61 28 -61q33 0 94 111t103 247z" />
<glyph unicode="&#x104;" horiz-adv-x="691" d="M708 -70q-59 -126 -134 -126q-53 0 -55 51q0 41 33.5 81t84.5 64h-239l1 13l81 22l-23 161l-233 -1l-92 -162l76 -20l-3 -13h-189l1 13l43 11q22 6 32.5 15.5t25.5 34.5l332 578h64l94 -581q4 -22 11.5 -31.5t25.5 -15.5l35 -11l-3 -13q-28 -15 -49 -46t-21 -58 q0 -21 18 -21q25 0 76 60zM243 228l210 -2l-42 296z" />
<glyph unicode="&#x105;" horiz-adv-x="526" d="M70 117q0 93 39 182t115 150t169 61q91 0 157 -32l-24 -81l-56 -254q-11 -49 -11 -68q0 -14 9 -14q20 0 88 96l8 -5q-15 -37 -33 -66l1 1q-19 -29 -52.5 -74t-51 -72.5t-17.5 -44.5q0 -21 19 -21q25 0 75 60l7 -5q-59 -126 -134 -126q-24 0 -38 14.5t-15 38.5q0 22 18 48 t35.5 42t47.5 41q7 6 11 9q-15 -7 -33 -7q-64 0 -64 78q0 27 10 75l30 131q-49 -132 -108 -208t-111 -76q-44 0 -67.5 35.5t-23.5 91.5zM412 418l12 49q-23 14 -50 14q-44 0 -89 -62.5t-71.5 -146.5t-26.5 -151q0 -61 28 -61q33 0 94 111t103 247z" />
<glyph unicode="&#x106;" horiz-adv-x="602" d="M636 838q0 -35 -70 -71.5t-154 -47.5l-6 10q103 91 154 154q76 0 76 -45zM509 660q105 0 158 -33q-4 -41 -21 -98.5t-36 -95.5h-9l-34 186q-23 9 -53 9q-114 0 -195 -110.5t-80 -259.5q0 -110 47.5 -173t124.5 -63q27 0 53 8l113 189h9q1 -32 -5 -91q-5 -62 -22 -109 q-64 -29 -169 -29q-129 0 -207 71t-78 198q0 170 114.5 285.5t289.5 115.5z" />
<glyph unicode="&#x107;" horiz-adv-x="430" d="M490 688q0 -35 -70 -72t-154 -48l-6 11q99 85 154 154q35 0 55.5 -12t20.5 -33zM443 155q-26 -68 -84.5 -116.5t-125.5 -48.5q-66 0 -109 46.5t-43 131.5q0 132 81 237t187 105q58 0 91 -31t33 -80q0 -39 -21.5 -67.5t-55.5 -28.5q-24 0 -45 8q24 72 24 113q0 56 -36 56 q-47 0 -89.5 -94t-42.5 -186q0 -65 22.5 -100t63.5 -35q69 0 143 95z" />
<glyph unicode="&#x108;" horiz-adv-x="602" d="M645 727l-10 -6q-65 48 -115 79q-104 -58 -145 -79l-7 8q81 89 123 145l9 5h79q18 -37 66 -152zM509 660q105 0 158 -33q-4 -41 -21 -98.5t-36 -95.5h-9l-34 186q-23 9 -53 9q-114 0 -195 -110.5t-80 -259.5q0 -110 47.5 -173t124.5 -63q27 0 53 8l113 189h9 q1 -32 -5 -91q-5 -62 -22 -109q-64 -29 -169 -29q-129 0 -207 71t-78 198q0 170 114.5 285.5t289.5 115.5z" />
<glyph unicode="&#x109;" horiz-adv-x="430" d="M502 577l-10 -6q-59 43 -116 79q-104 -58 -145 -79l-6 8q84 92 122 145l9 5h80q18 -37 66 -152zM443 155q-26 -68 -84.5 -116.5t-125.5 -48.5q-66 0 -109 46.5t-43 131.5q0 132 81 237t187 105q58 0 91 -31t33 -80q0 -39 -21.5 -67.5t-55.5 -28.5q-24 0 -45 8 q24 72 24 113q0 56 -36 56q-47 0 -89.5 -94t-42.5 -186q0 -65 22.5 -100t63.5 -35q69 0 143 95z" />
<glyph unicode="&#x10a;" horiz-adv-x="602" d="M596 815q0 -33 -26.5 -56t-62.5 -23q-28 0 -44.5 14t-16.5 37q0 33 27 55.5t62 22.5q28 0 44.5 -13.5t16.5 -36.5zM509 660q105 0 158 -33q-4 -41 -21 -98.5t-36 -95.5h-9l-34 186q-23 9 -53 9q-114 0 -195 -110.5t-80 -259.5q0 -110 47.5 -173t124.5 -63q27 0 53 8 l113 189h9q1 -32 -5 -91q-5 -62 -22 -109q-64 -29 -169 -29q-129 0 -207 71t-78 198q0 170 114.5 285.5t289.5 115.5z" />
<glyph unicode="&#x10b;" horiz-adv-x="430" d="M448 665q0 -33 -26 -56t-62 -23q-29 0 -45.5 13.5t-16.5 37.5q0 32 27 55t62 23q28 0 44.5 -13.5t16.5 -36.5zM443 155q-26 -68 -84.5 -116.5t-125.5 -48.5q-66 0 -109 46.5t-43 131.5q0 132 81 237t187 105q58 0 91 -31t33 -80q0 -39 -21.5 -67.5t-55.5 -28.5 q-24 0 -45 8q24 72 24 113q0 56 -36 56q-47 0 -89.5 -94t-42.5 -186q0 -65 22.5 -100t63.5 -35q69 0 143 95z" />
<glyph unicode="&#x10c;" horiz-adv-x="602" d="M550 726l-9 -5h-80q-18 37 -66 152l10 6q51 -39 115 -79q9 5 63.5 35t82.5 44l6 -8q-84 -92 -122 -145zM509 660q105 0 158 -33q-4 -41 -21 -98.5t-36 -95.5h-9l-34 186q-23 9 -53 9q-114 0 -195 -110.5t-80 -259.5q0 -110 47.5 -173t124.5 -63q27 0 53 8l113 189h9 q1 -32 -5 -91q-5 -62 -22 -109q-64 -29 -169 -29q-129 0 -207 71t-78 198q0 170 114.5 285.5t289.5 115.5z" />
<glyph unicode="&#x10d;" horiz-adv-x="430" d="M400 577l-9 -6h-79q-21 43 -66 152l9 7q54 -41 116 -80q104 58 145 79l7 -7q-83 -92 -123 -145zM443 155q-26 -68 -84.5 -116.5t-125.5 -48.5q-66 0 -109 46.5t-43 131.5q0 132 81 237t187 105q58 0 91 -31t33 -80q0 -39 -21.5 -67.5t-55.5 -28.5q-24 0 -45 8 q24 72 24 113q0 56 -36 56q-47 0 -89.5 -94t-42.5 -186q0 -65 22.5 -100t63.5 -35q69 0 143 95z" />
<glyph unicode="&#x10e;" horiz-adv-x="680" d="M527 726l-9 -5h-79q-18 37 -66 152l9 6q47 -36 116 -79q14 7 66 36t79 43l7 -8q-81 -89 -123 -145zM303 0h-263l-1 13l59 13q21 5 24 30l115 539l5 22l-70 20l3 13h254q137 0 212 -62.5t75 -180.5q0 -170 -112.5 -288.5t-300.5 -118.5zM417 619h-50l-5 -24l-115 -539 l-5 -25h62q89 0 157 62t100 149t32 179q0 198 -176 198z" />
<glyph unicode="&#x10f;" horiz-adv-x="628" d="M782 641q0 -45 -38 -98t-95 -88l-7 8q38 51 56 112q-39 8 -39 48q0 29 22 50.5t50 21.5q23 0 37 -14.5t14 -39.5zM350 143l26 119q-50 -127 -107 -199.5t-108 -72.5q-44 0 -67.5 36t-23.5 91q0 92 39 181.5t115 150.5t169 61q13 0 37 -2l13 57l15 74l-77 22v9 q91 18 202 25l6 -7l-26 -123l-93 -422q-12 -53 -12 -68q0 -14 9 -14q19 0 89 96l7 -5q-25 -65 -68 -113.5t-92 -48.5q-63 0 -63 78q0 27 10 75zM215 60q33 0 93.5 111t102.5 248l11 48q-22 14 -48 14q-44 0 -89 -62.5t-71.5 -146.5t-26.5 -151q0 -61 28 -61z" />
<glyph unicode="&#x110;" horiz-adv-x="677" d="M303 0h-263l-1 13l59 13q21 5 24 30l55 256h-74l6 29h74l54 254l5 22l-70 20l3 13h254q137 0 212 -62.5t75 -180.5q0 -170 -112.5 -288.5t-300.5 -118.5zM442 312h-140l-55 -256l-5 -25h62q89 0 157 62t100 149t32 179q0 198 -176 198h-50l-5 -24l-54 -254h140z" />
<glyph unicode="&#x111;" horiz-adv-x="526" d="M350 143l26 119q-50 -127 -107 -199.5t-108 -72.5q-44 0 -67.5 36t-23.5 91q0 92 39 181.5t115 150.5t169 61q13 0 37 -2l12 54h-129l6 29h129l10 48l-77 22v9q91 18 202 25l6 -7l-21 -97h81l-6 -29h-81l-92 -419q-12 -53 -12 -68q0 -14 9 -14q19 0 89 96l7 -5 q-25 -65 -68 -113.5t-92 -48.5q-63 0 -63 78q0 27 10 75zM215 60q33 0 93.5 111t102.5 248l11 48q-22 14 -48 14q-44 0 -89 -62.5t-71.5 -146.5t-26.5 -151q0 -61 28 -61z" />
<glyph unicode="&#x112;" horiz-adv-x="555" d="M322 768l15 65h288l-15 -65h-288zM513 0h-473v13l59 13q19 5 24 30l114 539l5 22l-70 20l3 13h466q-1 -42 -16.5 -99t-34.5 -95h-8l-39 162q-28 1 -86 1h-90l-5 -24l-54 -252l189 8l-10 -48l-185 9l-54 -256l-5 -24l96 -1q59 0 89 1l108 166h9q1 -24 -2 -60 q-6 -69 -30 -138z" />
<glyph unicode="&#x113;" horiz-adv-x="425" d="M223 618l15 65h288l-15 -65h-288zM443 155q-27 -70 -85 -117.5t-124 -47.5q-70 0 -111.5 48t-41.5 130q0 132 79.5 237t187.5 105q55 0 89 -28t34 -76q0 -83 -72.5 -136t-191.5 -58v-17q0 -63 22 -96.5t63 -33.5q68 0 144 95zM339 480q-42 0 -81.5 -76.5t-48.5 -166.5 q72 10 118 68t46 133q0 42 -34 42z" />
<glyph unicode="&#x114;" horiz-adv-x="555" d="M594 873l3 1l11 -5q-22 -69 -62 -105.5t-93 -36.5q-51 0 -75 36.5t-17 106.5l15 4q17 -69 94 -69q75 0 124 68zM513 0h-473v13l59 13q19 5 24 30l114 539l5 22l-70 20l3 13h466q-1 -42 -16.5 -99t-34.5 -95h-8l-39 162q-28 1 -86 1h-90l-5 -24l-54 -252l189 8l-10 -48 l-185 9l-54 -256l-5 -24l96 -1q59 0 89 1l108 166h9q1 -24 -2 -60q-6 -69 -30 -138z" />
<glyph unicode="&#x115;" horiz-adv-x="425" d="M496 723l4 1l11 -4q-48 -143 -155 -143q-51 0 -75 37.5t-17 106.5l14 3q18 -69 95 -69q73 0 123 68zM443 155q-27 -70 -85 -117.5t-124 -47.5q-70 0 -111.5 48t-41.5 130q0 132 79.5 237t187.5 105q55 0 89 -28t34 -76q0 -83 -72.5 -136t-191.5 -58v-17q0 -63 22 -96.5 t63 -33.5q68 0 144 95zM339 480q-42 0 -81.5 -76.5t-48.5 -166.5q72 10 118 68t46 133q0 42 -34 42z" />
<glyph unicode="&#x116;" horiz-adv-x="555" d="M549 815q0 -33 -26.5 -56t-62.5 -23q-28 0 -44.5 14t-16.5 37q0 33 27 55.5t62 22.5q28 0 44.5 -13.5t16.5 -36.5zM513 0h-473v13l59 13q19 5 24 30l114 539l5 22l-70 20l3 13h466q-1 -42 -16.5 -99t-34.5 -95h-8l-39 162q-28 1 -86 1h-90l-5 -24l-54 -252l189 8l-10 -48 l-185 9l-54 -256l-5 -24l96 -1q59 0 89 1l108 166h9q1 -24 -2 -60q-6 -69 -30 -138z" />
<glyph unicode="&#x117;" horiz-adv-x="425" d="M448 665q0 -33 -26 -56t-62 -23q-29 0 -45.5 13.5t-16.5 37.5q0 32 27 55t62 23q28 0 44.5 -13.5t16.5 -36.5zM443 155q-27 -70 -85 -117.5t-124 -47.5q-70 0 -111.5 48t-41.5 130q0 132 79.5 237t187.5 105q55 0 89 -28t34 -76q0 -83 -72.5 -136t-191.5 -58v-17 q0 -63 22 -96.5t63 -33.5q68 0 144 95zM339 480q-42 0 -81.5 -76.5t-48.5 -166.5q72 10 118 68t46 133q0 42 -34 42z" />
<glyph unicode="&#x118;" horiz-adv-x="555" d="M544 -70q-59 -126 -134 -126q-53 0 -55 51q0 41 33.5 81t84.5 64h-433v13l59 13q19 5 24 30l114 539l5 22l-70 20l3 13h466q-1 -42 -16.5 -99t-34.5 -95h-8l-39 162q-28 1 -86 1h-90l-5 -24l-54 -252l189 8l-10 -48l-185 9l-54 -256l-5 -24l96 -1q59 0 89 1l108 166h9 q1 -24 -2 -60q-6 -69 -30 -138q-28 -15 -49 -46t-21 -58q0 -21 18 -21q25 0 76 60z" />
<glyph unicode="&#x119;" horiz-adv-x="425" d="M335 -70q-59 -126 -135 -126q-25 0 -39 14.5t-14 39.5q0 60 136 139q-28 -7 -49 -7q-70 0 -111.5 48t-41.5 130q0 132 79.5 237t187.5 105q55 0 89 -28t34 -76q0 -83 -72.5 -136t-191.5 -58v-17q0 -63 22 -96.5t63 -33.5q68 0 144 95l7 -5q-22 -56 -63 -97l2 1 q-26 -31 -66 -65.5t-60.5 -56t-20.5 -40.5q0 -22 18 -22q25 0 75 60zM339 480q-42 0 -81.5 -76.5t-48.5 -166.5q72 10 118 68t46 133q0 42 -34 42z" />
<glyph unicode="&#x11a;" horiz-adv-x="555" d="M503 726l-9 -5h-80q-18 37 -66 152l10 6q51 -39 115 -79q9 5 63.5 35t82.5 44l6 -8q-84 -92 -122 -145zM513 0h-473v13l59 13q19 5 24 30l114 539l5 22l-70 20l3 13h466q-1 -42 -16.5 -99t-34.5 -95h-8l-39 162q-28 1 -86 1h-90l-5 -24l-54 -252l189 8l-10 -48l-185 9 l-54 -256l-5 -24l96 -1q59 0 89 1l108 166h9q1 -24 -2 -60q-6 -69 -30 -138z" />
<glyph unicode="&#x11b;" horiz-adv-x="425" d="M400 577l-9 -6h-79q-21 43 -66 152l9 7q54 -41 116 -80q104 58 145 79l7 -7q-83 -92 -123 -145zM443 155q-27 -70 -85 -117.5t-124 -47.5q-70 0 -111.5 48t-41.5 130q0 132 79.5 237t187.5 105q55 0 89 -28t34 -76q0 -83 -72.5 -136t-191.5 -58v-17q0 -63 22 -96.5 t63 -33.5q68 0 144 95zM339 480q-42 0 -81.5 -76.5t-48.5 -166.5q72 10 118 68t46 133q0 42 -34 42z" />
<glyph unicode="&#x11c;" horiz-adv-x="661" d="M662 727l-10 -6q-65 48 -115 79q-104 -58 -145 -79l-7 8q81 89 123 145l9 5h79q18 -37 66 -152zM572 19q-78 -29 -180 -29q-131 0 -209 70t-78 199q0 172 116.5 286.5t289.5 114.5q108 0 174 -33q-5 -40 -24.5 -97t-40.5 -97h-9l-34 187q-29 8 -61 8q-115 0 -196 -110.5 t-81 -260.5q0 -108 48.5 -171.5t124.5 -63.5q23 0 46 5l51 226l5 21l-70 21l5 12h250l-1 -12l-46 -11q-23 -7 -28 -31z" />
<glyph unicode="&#x11d;" horiz-adv-x="437" d="M470 577l-10 -6q-59 43 -116 79q-14 -7 -66 -36t-79 -43l-6 8q84 92 122 145l9 5h80q18 -37 66 -152zM432 -61q0 -56 -70.5 -95t-173.5 -39q-90 0 -150 29t-60 74q0 31 30.5 57.5t84.5 41.5l7 -5q-30 -28 -30 -50q2 -53 34.5 -86t92.5 -33q43 0 74.5 20t31.5 50 q0 20 -25.5 39t-56 32t-56 33.5t-25.5 42.5q0 48 127 103q-3 0 -9 -0.5t-8 -0.5q-73 0 -118 37.5t-45 101.5q0 90 66.5 154.5t166.5 64.5q170 0 225 11q4 -10 4 -24q0 -50 -39 -50q-24 0 -109 20q27 -17 44 -46.5t17 -64.5q0 -48 -21.5 -88.5t-52.5 -66.5t-62 -46 t-52.5 -35.5t-21.5 -26.5q0 -12 28 -27.5t62 -29t62 -39.5t28 -58zM204 277q0 -94 51 -94q35 0 62.5 68t27.5 148q0 84 -45 84q-39 0 -67.5 -65t-28.5 -141z" />
<glyph unicode="&#x11e;" horiz-adv-x="661" d="M658 873l3 1l11 -5q-22 -69 -62 -105.5t-93 -36.5q-51 0 -75 36.5t-17 106.5l15 4q17 -69 94 -69q75 0 124 68zM572 19q-78 -29 -180 -29q-131 0 -209 70t-78 199q0 172 116.5 286.5t289.5 114.5q108 0 174 -33q-5 -40 -24.5 -97t-40.5 -97h-9l-34 187q-29 8 -61 8 q-115 0 -196 -110.5t-81 -260.5q0 -108 48.5 -171.5t124.5 -63.5q23 0 46 5l51 226l5 21l-70 21l5 12h250l-1 -12l-46 -11q-23 -7 -28 -31z" />
<glyph unicode="&#x11f;" horiz-adv-x="437" d="M470 723l3 1l11 -4q-22 -70 -62 -106.5t-93 -36.5q-51 0 -75 37t-17 107l15 3q18 -69 94 -69q74 0 124 68zM432 -61q0 -56 -70.5 -95t-173.5 -39q-90 0 -150 29t-60 74q0 31 30.5 57.5t84.5 41.5l7 -5q-30 -28 -30 -50q2 -53 34.5 -86t92.5 -33q43 0 74.5 20t31.5 50 q0 20 -25.5 39t-56 32t-56 33.5t-25.5 42.5q0 48 127 103q-3 0 -9 -0.5t-8 -0.5q-73 0 -118 37.5t-45 101.5q0 90 66.5 154.5t166.5 64.5q170 0 225 11q4 -10 4 -24q0 -50 -39 -50q-24 0 -109 20q27 -17 44 -46.5t17 -64.5q0 -48 -21.5 -88.5t-52.5 -66.5t-62 -46 t-52.5 -35.5t-21.5 -26.5q0 -12 28 -27.5t62 -29t62 -39.5t28 -58zM204 277q0 -94 51 -94q35 0 62.5 68t27.5 148q0 84 -45 84q-39 0 -67.5 -65t-28.5 -141z" />
<glyph unicode="&#x120;" horiz-adv-x="661" d="M613 815q0 -33 -26.5 -56t-62.5 -23q-28 0 -44.5 14t-16.5 37q0 33 27 55.5t62 22.5q28 0 44.5 -13.5t16.5 -36.5zM572 19q-78 -29 -180 -29q-131 0 -209 70t-78 199q0 172 116.5 286.5t289.5 114.5q108 0 174 -33q-5 -40 -24.5 -97t-40.5 -97h-9l-34 187q-29 8 -61 8 q-115 0 -196 -110.5t-81 -260.5q0 -108 48.5 -171.5t124.5 -63.5q23 0 46 5l51 226l5 21l-70 21l5 12h250l-1 -12l-46 -11q-23 -7 -28 -31z" />
<glyph unicode="&#x121;" horiz-adv-x="437" d="M422 665q0 -33 -26.5 -56t-62.5 -23q-28 0 -44.5 13.5t-16.5 37.5q0 32 27 55t62 23q28 0 44.5 -13.5t16.5 -36.5zM432 -61q0 -56 -70.5 -95t-173.5 -39q-90 0 -150 29t-60 74q0 31 30.5 57.5t84.5 41.5l7 -5q-30 -28 -30 -50q2 -53 34.5 -86t92.5 -33q43 0 74.5 20 t31.5 50q0 20 -25.5 39t-56 32t-56 33.5t-25.5 42.5q0 48 127 103q-3 0 -9 -0.5t-8 -0.5q-73 0 -118 37.5t-45 101.5q0 90 66.5 154.5t166.5 64.5q170 0 225 11q4 -10 4 -24q0 -50 -39 -50q-24 0 -109 20q27 -17 44 -46.5t17 -64.5q0 -48 -21.5 -88.5t-52.5 -66.5t-62 -46 t-52.5 -35.5t-21.5 -26.5q0 -12 28 -27.5t62 -29t62 -39.5t28 -58zM204 277q0 -94 51 -94q35 0 62.5 68t27.5 148q0 84 -45 84q-39 0 -67.5 -65t-28.5 -141z" />
<glyph unicode="&#x122;" horiz-adv-x="661" d="M572 19q-78 -29 -180 -29q-131 0 -209 70t-78 199q0 172 116.5 286.5t289.5 114.5q108 0 174 -33q-5 -40 -24.5 -97t-40.5 -97h-9l-34 187q-29 8 -61 8q-115 0 -196 -110.5t-81 -260.5q0 -108 48.5 -171.5t124.5 -63.5q23 0 46 5l51 226l5 21l-70 21l5 12h250l-1 -12 l-46 -11q-23 -7 -28 -31zM413 -134q0 -44 -38 -97.5t-94 -88.5l-8 9q39 53 57 112q-39 8 -39 47q0 30 21.5 51.5t49.5 21.5q23 0 37 -15t14 -40z" />
<glyph unicode="&#x123;" horiz-adv-x="437" d="M284 641q0 44 38 97.5t95 88.5l7 -9q-39 -53 -57 -112q19 -3 29.5 -16t10.5 -31q0 -30 -22 -51.5t-50 -21.5q-23 0 -37 15t-14 40zM432 -61q0 -56 -70.5 -95t-173.5 -39q-90 0 -150 29t-60 74q0 31 30.5 57.5t84.5 41.5l7 -5q-30 -28 -30 -50q2 -53 34.5 -86t92.5 -33 q43 0 74.5 20t31.5 50q0 20 -25.5 39t-56 32t-56 33.5t-25.5 42.5q0 48 127 103q-3 0 -9 -0.5t-8 -0.5q-73 0 -118 37.5t-45 101.5q0 90 66.5 154.5t166.5 64.5q170 0 225 11q4 -10 4 -24q0 -50 -39 -50q-24 0 -109 20q27 -17 44 -46.5t17 -64.5q0 -48 -21.5 -88.5 t-52.5 -66.5t-62 -46t-52.5 -35.5t-21.5 -26.5q0 -12 28 -27.5t62 -29t62 -39.5t28 -58zM204 277q0 -94 51 -94q35 0 62.5 68t27.5 148q0 84 -45 84q-39 0 -67.5 -65t-28.5 -141z" />
<glyph unicode="&#x124;" horiz-adv-x="732" d="M658 727l-10 -6q-65 48 -115 79q-104 -58 -145 -79l-7 8q81 89 123 145l9 5h79q18 -37 66 -152zM309 0h-270v13l56 12q13 3 19 10t8 21l115 539l5 22l-70 20l3 13h270v-13l-56 -11q-21 -6 -27 -31l-53 -251h260l54 251l5 22l-71 20l4 13h270v-13l-56 -11q-23 -6 -27 -31 l-115 -539l-5 -22l71 -21l-4 -13h-270v13l56 12q13 3 19 10t8 21l54 254h-261l-54 -254l-5 -22l71 -21z" />
<glyph unicode="&#x125;" horiz-adv-x="541" d="M405 727l-10 -6q-59 43 -116 79q-104 -58 -145 -79l-6 8q84 92 122 145l9 5h80q18 -37 66 -152zM191 -2q-77 -7 -109 -7q-13 0 -10 12l30 140l90 422l16 74l-78 22v9q90 18 203 25l6 -7l-27 -123q-39 -178 -78 -326q53 127 114.5 199t120.5 72q36 0 56.5 -21.5 t20.5 -58.5q0 -28 -9 -73t-29 -124t-23 -90q-11 -49 -11 -68q0 -14 9 -14q20 0 88 96l8 -5q-26 -65 -69 -113.5t-91 -48.5q-64 0 -64 78q0 27 10 75q7 34 23 94t26 104.5t10 66.5q0 27 -21 27q-35 0 -88 -84.5t-93 -207.5z" />
<glyph unicode="&#x126;" horiz-adv-x="732" d="M309 0h-270v13l56 12q13 3 19 10t8 21l85 400h-85l6 34h87l22 105l5 22l-70 20l3 13h270v-13l-56 -11q-21 -6 -27 -31l-22 -105h260l23 105l5 22l-71 20l4 13h270v-13l-56 -11q-23 -6 -27 -31l-23 -105h78l-6 -34h-79l-85 -400l-5 -22l71 -21l-4 -13h-270v13l56 12 q13 3 19 10t8 21l54 254h-261l-54 -254l-5 -22l71 -21zM309 344h260l24 112h-261z" />
<glyph unicode="&#x127;" horiz-adv-x="541" d="M191 -2q-77 -7 -109 -7q-13 0 -10 12l30 140l89 419h-77l6 29h78l10 48l-78 22v9q90 18 203 25l6 -7l-21 -97h132l-6 -29h-133q-44 -198 -77 -323q53 127 114.5 199t120.5 72q36 0 56.5 -21.5t20.5 -58.5q0 -28 -9 -73t-29 -124t-23 -90q-11 -49 -11 -68q0 -14 9 -14 q20 0 88 96l8 -5q-26 -65 -69 -113.5t-91 -48.5q-64 0 -64 78q0 27 10 75q7 34 23 94t26 104.5t10 66.5q0 27 -21 27q-35 0 -88 -84.5t-93 -207.5z" />
<glyph unicode="&#x128;" horiz-adv-x="347" d="M439 809q36 29 65 56l9 -4q-13 -55 -42 -88.5t-69 -33.5q-24 0 -55 10t-64 24t-43 17q-36 -29 -65 -56l-9 4q13 56 42 89t69 33q32 0 93.5 -24.5t68.5 -26.5zM310 0h-270v13l56 12q21 5 27 31l114 539l5 22l-70 20l3 13h270v-13l-56 -11q-21 -6 -27 -31l-114 -539l-5 -22 l70 -21z" />
<glyph unicode="&#x129;" horiz-adv-x="290" d="M346 659q43 36 59 51l8 -4q-8 -48 -33 -82.5t-60 -34.5q-19 0 -42 8t-50 22.5t-30 15.5q-29 -22 -59 -51l-8 5q8 49 33 82.5t60 33.5q19 0 42 -8.5t48.5 -22t31.5 -15.5zM114 143q8 37 27 112.5t25 102.5q12 51 12 67q0 15 -9 15q-19 0 -89 -96l-7 4q24 65 67.5 113.5 t92.5 48.5q63 0 63 -77q0 -28 -10 -75l-52 -215q-11 -49 -11 -68q0 -14 9 -14q20 0 88 96l8 -5q-26 -65 -69 -113.5t-91 -48.5q-64 0 -64 78q0 27 10 75z" />
<glyph unicode="&#x12a;" horiz-adv-x="347" d="M192 768l15 65h288l-15 -65h-288zM310 0h-270v13l56 12q21 5 27 31l114 539l5 22l-70 20l3 13h270v-13l-56 -11q-21 -6 -27 -31l-114 -539l-5 -22l70 -21z" />
<glyph unicode="&#x12b;" horiz-adv-x="290" d="M151 615l15 65h218l-15 -65h-218zM114 143q8 37 27 112.5t25 102.5q12 51 12 67q0 15 -9 15q-19 0 -89 -96l-7 4q24 65 67.5 113.5t92.5 48.5q63 0 63 -77q0 -28 -10 -75l-52 -215q-11 -49 -11 -68q0 -14 9 -14q20 0 88 96l8 -5q-26 -65 -69 -113.5t-91 -48.5 q-64 0 -64 78q0 27 10 75z" />
<glyph unicode="&#x12c;" horiz-adv-x="346" d="M464 873l3 1l11 -5q-22 -69 -62 -105.5t-93 -36.5q-51 0 -75 36.5t-17 106.5l15 4q17 -69 94 -69q75 0 124 68zM310 0h-270v13l56 12q21 5 27 31l114 539l5 22l-70 20l3 13h270v-13l-56 -11q-21 -6 -27 -31l-114 -539l-5 -22l70 -21z" />
<glyph unicode="&#x12d;" horiz-adv-x="290" d="M371 723l3 1l11 -4q-13 -69 -47 -106t-83 -37q-40 0 -62 24.5t-22 67.5q0 19 7 52l15 3q-1 -3 -1 -8q12 -61 75 -61q68 0 104 68zM114 143q8 37 27 112.5t25 102.5q12 51 12 67q0 15 -9 15q-19 0 -89 -96l-7 4q24 65 67.5 113.5t92.5 48.5q63 0 63 -77q0 -28 -10 -75 l-52 -215q-11 -49 -11 -68q0 -14 9 -14q20 0 88 96l8 -5q-26 -65 -69 -113.5t-91 -48.5q-64 0 -64 78q0 27 10 75z" />
<glyph unicode="&#x12e;" horiz-adv-x="346" d="M310 0h-1q-28 -15 -48.5 -46t-20.5 -58q0 -21 18 -21q24 0 75 60l7 -5q-59 -126 -133 -126q-26 0 -40.5 13.5t-14.5 37.5q0 41 33.5 81t84.5 64h-230v13l56 12q21 5 27 31l114 539l5 22l-70 20l3 13h270v-13l-56 -11q-21 -6 -27 -31l-114 -539l-5 -22l70 -21z" />
<glyph unicode="&#x12f;" horiz-adv-x="290" d="M349 665q0 -33 -26 -56t-62 -23q-29 0 -45.5 13.5t-16.5 37.5q0 32 27 55t62 23q28 0 44.5 -13.5t16.5 -36.5zM275 -70q-59 -126 -134 -126q-24 0 -38 14.5t-15 38.5q0 22 18.5 48t36.5 42t50 42q7 5 10 8q-19 -7 -35 -7q-64 0 -64 78q0 27 10 75q8 37 27 112.5t25 102.5 q12 51 12 67q0 15 -9 15q-19 0 -89 -96l-7 4q24 65 67.5 113.5t92.5 48.5q63 0 63 -77q0 -28 -10 -75l-52 -215q-11 -49 -11 -68q0 -14 9 -14q20 0 88 96l8 -5q-20 -50 -49 -89q-14 -21 -45.5 -62.5t-45.5 -65t-14 -39.5q0 -21 19 -21q25 0 75 60z" />
<glyph unicode="&#x130;" horiz-adv-x="346" d="M419 815q0 -33 -26.5 -56t-62.5 -23q-28 0 -44.5 14t-16.5 37q0 33 27 55.5t62 22.5q28 0 44.5 -13.5t16.5 -36.5zM310 0h-270v13l56 12q21 5 27 31l114 539l5 22l-70 20l3 13h270v-13l-56 -11q-21 -6 -27 -31l-114 -539l-5 -22l70 -21z" />
<glyph unicode="&#x131;" horiz-adv-x="290" d="M114 143q8 37 27 112.5t25 102.5q12 51 12 67q0 15 -9 15q-19 0 -89 -96l-7 4q24 65 67.5 113.5t92.5 48.5q63 0 63 -77q0 -28 -10 -75l-52 -215q-11 -49 -11 -68q0 -14 9 -14q20 0 88 96l8 -5q-26 -65 -69 -113.5t-91 -48.5q-64 0 -64 78q0 27 10 75z" />
<glyph unicode="&#x132;" horiz-adv-x="691" d="M310 0h-270v13l56 12q21 5 27 31l114 539l5 22l-70 20l3 13h270v-13l-56 -11q-21 -6 -27 -31l-114 -539l-5 -22l70 -21zM606 116q-39 -189 -254 -244l-6 11q59 49 90 106.5t52 158.5l95 447l5 22l-71 20l4 13h270v-13l-56 -11q-23 -6 -27 -31z" />
<glyph unicode="&#x133;" horiz-adv-x="555" d="M349 665q0 -33 -26 -56t-62 -23q-29 0 -45.5 13.5t-16.5 37.5q0 32 27 55t62 23q28 0 44.5 -13.5t16.5 -36.5zM639 665q0 -33 -26 -56t-62 -23q-29 0 -45.5 13.5t-16.5 37.5q0 32 27 55t62 23q28 0 44.5 -13.5t16.5 -36.5zM114 143q8 37 27 112.5t25 102.5q12 51 12 67 q0 15 -9 15q-19 0 -89 -96l-7 4q24 65 67.5 113.5t92.5 48.5q63 0 63 -77q0 -28 -10 -75l-52 -215q-11 -49 -11 -68q0 -14 9 -14q20 0 88 96l8 -5q-26 -65 -69 -113.5t-91 -48.5q-64 0 -64 78q0 27 10 75zM507 34q-23 -111 -84 -170t-140 -59q-47 0 -77 19.5t-30 48.5 q0 36 50 45q28 -63 60 -63q36 0 57.5 38t40.5 128l71 337q12 51 12 67q0 15 -9 15q-19 0 -89 -96l-7 4q24 65 67.5 113.5t92.5 48.5q63 0 63 -77q0 -28 -10 -75z" />
<glyph unicode="&#x134;" horiz-adv-x="344" d="M470 728l-10 -6q-59 43 -116 79q-104 -58 -145 -79l-6 8q84 92 122 145l9 5h80q18 -37 66 -152zM260 116q-40 -190 -255 -244l-6 11q59 50 90 107t52 158l95 447l5 22l-70 20l3 13h270v-13l-56 -11q-21 -6 -27 -31z" />
<glyph unicode="&#x135;" horiz-adv-x="270" d="M383 577l-10 -6q-62 51 -96 76q-3 -2 -52 -32t-73 -44l-6 8q69 90 102 145l9 5h80q8 -25 24 -79.5t22 -72.5zM222 34q-23 -111 -84 -170t-140 -59q-47 0 -77 19.5t-30 48.5q0 36 49 45q9 -19 14.5 -28.5t18.5 -22t28 -12.5q36 0 57.5 38t40.5 128l71 337q12 51 12 67 q0 15 -9 15q-19 0 -89 -96l-7 4q24 65 67.5 113.5t92.5 48.5q63 0 63 -77q0 -28 -10 -75z" />
<glyph unicode="&#x136;" horiz-adv-x="701" d="M310 0h-270v13l56 12q21 5 27 31l114 539l5 22l-71 20l4 13h270v-13l-56 -11q-23 -6 -27 -31l-55 -260h95l232 283l-74 19l3 13h238v-12l-61 -19q-33 -13 -77 -41.5t-66 -51.5l-109 -125l8 7l122 -332q9 -24 20.5 -35.5t29.5 -17.5l33 -11l-4 -12l-126 -2 q-40 0 -59.5 16.5t-32.5 54.5l-83 234h-96l-52 -247l-5 -22l70 -21zM433 -134q0 -44 -38 -97.5t-95 -88.5l-7 9q38 51 56 112q-39 8 -39 47q0 30 22 51.5t50 21.5q23 0 37 -15t14 -40z" />
<glyph unicode="&#x137;" horiz-adv-x="534" d="M192 -2q-77 -7 -109 -7q-13 0 -10 12l29 140l90 422l16 74l-78 22v9q90 18 203 25l6 -7l-27 -123q-40 -186 -85 -347q54 140 120.5 216t136.5 76q40 0 63 -25t23 -63q0 -61 -49.5 -110t-122.5 -80q30 -87 51.5 -127t41.5 -40q27 0 96 92l7 -5q-28 -65 -73 -113.5 t-94 -48.5q-18 0 -32 5.5t-27 21t-21 28.5t-20 44.5t-18 49.5t-20 63l1 4q70 35 114.5 86t44.5 103q0 41 -33 41q-41 0 -98.5 -85.5t-96.5 -212.5zM316 -134q0 -44 -38 -97.5t-94 -88.5l-8 9q39 53 57 112q-39 8 -39 47q0 30 21.5 51.5t49.5 21.5q23 0 37 -15t14 -40z" />
<glyph unicode="&#x138;" horiz-adv-x="565" d="M206 -2q-77 -7 -109 -7q-13 0 -10 12l29 140l46 215q12 51 12 67q0 15 -9 15q-19 0 -89 -96l-7 4q24 65 67.5 113.5t92.5 48.5q63 0 63 -77q0 -28 -10 -75l-23 -106h62q62 121 126 189.5t124 68.5q22 0 34.5 -15t12.5 -38q0 -31 -18 -62q-26 22 -57 22q-62 0 -136 -99 l23 -71q31 -93 53.5 -137.5t43.5 -44.5q27 0 96 92l7 -5q-28 -65 -73 -113.5t-94 -48.5q-35 0 -61 31t-38.5 65.5t-38.5 120.5q-3 11 -5 16h-67l-17 -80z" />
<glyph unicode="&#x139;" horiz-adv-x="537" d="M459 838q0 -35 -70 -71.5t-154 -47.5l-6 10q103 91 154 154q76 0 76 -45zM503 0h-463l-1 13l59 13q21 5 24 30l115 539l5 22l-70 20l3 13h270v-13l-56 -11q-21 -6 -27 -31l-115 -539l-5 -24h180l105 188h9q1 -28 -7 -89q-3 -65 -26 -131z" />
<glyph unicode="&#x13a;" horiz-adv-x="275" d="M430 873q0 -35 -70 -71.5t-154 -47.5l-6 10q103 91 154 154q76 0 76 -45zM99 143l93 422l16 74l-78 22v9q90 18 203 25l6 -7l-27 -123l-93 -422q-11 -49 -11 -68q0 -14 9 -14q20 0 88 96l8 -5q-26 -65 -69 -113.5t-91 -48.5q-64 0 -64 78q0 27 10 75z" />
<glyph unicode="&#x13b;" horiz-adv-x="537" d="M503 0h-463l-1 13l59 13q21 5 24 30l115 539l5 22l-70 20l3 13h270v-13l-56 -11q-21 -6 -27 -31l-115 -539l-5 -24h180l105 188h9q1 -28 -7 -89q-3 -65 -26 -131zM341 -134q0 -44 -38 -97.5t-94 -88.5l-8 9q39 53 57 112q-39 8 -39 47q0 30 21.5 51.5t49.5 21.5 q23 0 37 -15t14 -40z" />
<glyph unicode="&#x13c;" horiz-adv-x="275" d="M99 143l93 422l16 74l-78 22v9q90 18 203 25l6 -7l-27 -123l-93 -422q-11 -49 -11 -68q0 -14 9 -14q20 0 88 96l8 -5q-26 -65 -69 -113.5t-91 -48.5q-64 0 -64 78q0 27 10 75zM184 -134q0 -44 -38 -97.5t-94 -88.5l-8 9q39 53 57 112q-39 8 -39 47q0 30 21.5 51.5 t49.5 21.5q23 0 37 -15t14 -40z" />
<glyph unicode="&#x13d;" horiz-adv-x="537" d="M624 606q0 -45 -37.5 -98t-94.5 -88l-8 8q39 53 57 112q-39 8 -39 48q0 30 21.5 51t49.5 21q23 0 37 -14.5t14 -39.5zM503 0h-463l-1 13l59 13q21 5 24 30l115 539l5 22l-70 20l3 13h270v-13l-56 -11q-21 -6 -27 -31l-115 -539l-5 -24h180l105 188h9q1 -28 -7 -89 q-3 -65 -26 -131z" />
<glyph unicode="&#x13e;" horiz-adv-x="421" d="M517 641q0 -45 -38 -98t-95 -88l-7 8q38 51 56 112q-39 8 -39 48q0 29 22 50.5t50 21.5q23 0 37 -14.5t14 -39.5zM99 143l93 422l16 74l-78 22v9q90 18 203 25l6 -7l-27 -123l-93 -422q-11 -49 -11 -68q0 -14 9 -14q20 0 88 96l8 -5q-26 -65 -69 -113.5t-91 -48.5 q-64 0 -64 78q0 27 10 75z" />
<glyph unicode="&#x13f;" horiz-adv-x="537" d="M503 0h-463l-1 13l59 13q21 5 24 30l115 539l5 22l-70 20l3 13h270v-13l-56 -11q-21 -6 -27 -31l-115 -539l-5 -24h180l105 188h9q1 -28 -7 -89q-3 -65 -26 -131zM560 351q-24 0 -37.5 13.5t-13.5 35.5q0 30 22 51t51 21q22 0 35.5 -12.5t13.5 -33.5q0 -30 -21 -52.5 t-50 -22.5z" />
<glyph unicode="&#x140;" horiz-adv-x="418" d="M99 143l93 422l16 74l-78 22v9q90 18 203 25l6 -7l-27 -123l-93 -422q-11 -49 -11 -68q0 -14 9 -14q20 0 88 96l8 -5q-26 -65 -69 -113.5t-91 -48.5q-64 0 -64 78q0 27 10 75zM489 383q0 -33 -23.5 -56t-55.5 -23q-26 0 -41 13.5t-15 37.5q0 32 24.5 55t55.5 23 q26 0 40.5 -13.5t14.5 -36.5z" />
<glyph unicode="&#x141;" horiz-adv-x="537" d="M503 0h-463l-1 13l59 13q21 5 24 30l48 223l-90 -43l-11 27l108 52l60 280l5 22l-70 20l3 13h270v-13l-56 -11q-21 -6 -27 -31l-46 -214l88 42l12 -27l-107 -51l-62 -289l-5 -24h180l105 188h9q1 -28 -7 -89q-3 -65 -26 -131z" />
<glyph unicode="&#x142;" horiz-adv-x="275" d="M99 143l34 156l-83 -40l-11 27l102 49l51 230l16 74l-78 22v9q90 18 203 25l6 -7l-27 -123l-37 -166l99 47l12 -27l-119 -57l-48 -219q-11 -49 -11 -68q0 -14 9 -14q20 0 88 96l8 -5q-26 -65 -69 -113.5t-91 -48.5q-64 0 -64 78q0 27 10 75z" />
<glyph unicode="&#x143;" horiz-adv-x="686" d="M627 838q0 -35 -70 -71.5t-153 -47.5l-7 10q97 84 155 154q75 0 75 -45zM238 1h-202v13l64 13q14 4 19.5 10t7.5 19l120 562l-78 20l3 12h168l223 -516l99 461l5 22l-84 20l4 13h201v-13l-63 -13q-14 -4 -19.5 -9.5t-8.5 -19.5l-126 -595h-86l-224 520l-98 -464l-5 -22 l83 -20z" />
<glyph unicode="&#x144;" horiz-adv-x="556" d="M521 688q0 -35 -70 -72t-154 -48l-6 11q99 85 154 154q35 0 55.5 -12t20.5 -33zM207 -2q-77 -7 -109 -7q-13 0 -10 12l29 140l14 64l22 104q20 94 20 112q0 17 -9 17q-23 0 -87 -96l-8 4q22 64 64.5 113t91.5 49q28 0 45 -16.5t17 -49.5q0 -50 -43 -218q53 134 116 209 t123 75q37 0 57 -21.5t20 -58.5q0 -28 -9.5 -75.5t-27.5 -119.5l-23 -92q-12 -53 -12 -68q0 -14 9 -14q19 0 89 96l7 -5q-25 -65 -68 -113.5t-92 -48.5q-63 0 -63 78q0 27 10 75q7 35 22.5 94.5t25.5 104t10 66.5q0 27 -20 27q-35 0 -88 -84.5t-93 -207.5z" />
<glyph unicode="&#x145;" horiz-adv-x="686" d="M238 1h-202v13l64 13q14 4 19.5 10t7.5 19l120 562l-78 20l3 12h168l223 -516l99 461l5 22l-84 20l4 13h201v-13l-63 -13q-14 -4 -19.5 -9.5t-8.5 -19.5l-126 -595h-86l-224 520l-98 -464l-5 -22l83 -20zM388 -134q0 -44 -38 -97.5t-95 -88.5l-7 9q38 51 56 112 q-39 8 -39 47q0 30 22 51.5t50 21.5q23 0 37 -15t14 -40z" />
<glyph unicode="&#x146;" horiz-adv-x="556" d="M207 -2q-77 -7 -109 -7q-13 0 -10 12l29 140l14 64l22 104q20 94 20 112q0 17 -9 17q-23 0 -87 -96l-8 4q22 64 64.5 113t91.5 49q28 0 45 -16.5t17 -49.5q0 -50 -43 -218q53 134 116 209t123 75q37 0 57 -21.5t20 -58.5q0 -28 -9.5 -75.5t-27.5 -119.5l-23 -92 q-12 -53 -12 -68q0 -14 9 -14q19 0 89 96l7 -5q-25 -65 -68 -113.5t-92 -48.5q-63 0 -63 78q0 27 10 75q7 35 22.5 94.5t25.5 104t10 66.5q0 27 -20 27q-35 0 -88 -84.5t-93 -207.5zM330 -134q0 -44 -38 -97.5t-95 -88.5l-7 9q38 51 56 112q-39 8 -39 47q0 30 22 51.5 t50 21.5q23 0 37 -15t14 -40z" />
<glyph unicode="&#x147;" horiz-adv-x="686" d="M541 726l-9 -5h-79q-18 37 -66 152l10 6q44 -34 115 -79q14 7 66 36t79 43l7 -8q-81 -89 -123 -145zM238 1h-202v13l64 13q14 4 19.5 10t7.5 19l120 562l-78 20l3 12h168l223 -516l99 461l5 22l-84 20l4 13h201v-13l-63 -13q-14 -4 -19.5 -9.5t-8.5 -19.5l-126 -595h-86 l-224 520l-98 -464l-5 -22l83 -20z" />
<glyph unicode="&#x148;" horiz-adv-x="556" d="M431 577l-9 -6h-79q-21 43 -66 152l9 7q54 -41 116 -80q104 58 145 79l7 -7q-83 -92 -123 -145zM207 -2q-77 -7 -109 -7q-13 0 -10 12l29 140l14 64l22 104q20 94 20 112q0 17 -9 17q-23 0 -87 -96l-8 4q22 64 64.5 113t91.5 49q28 0 45 -16.5t17 -49.5q0 -50 -43 -218 q53 134 116 209t123 75q37 0 57 -21.5t20 -58.5q0 -28 -9.5 -75.5t-27.5 -119.5l-23 -92q-12 -53 -12 -68q0 -14 9 -14q19 0 89 96l7 -5q-25 -65 -68 -113.5t-92 -48.5q-63 0 -63 78q0 27 10 75q7 35 22.5 94.5t25.5 104t10 66.5q0 27 -20 27q-35 0 -88 -84.5t-93 -207.5z " />
<glyph unicode="&#x14a;" horiz-adv-x="690" d="M242 1h-202v13l64 13q14 4 19.5 10t7.5 19l120 562l-78 20l3 12h168l223 -517l99 462l5 22l-84 20l4 13h201v-13l-63 -13q-14 -4 -19.5 -9.5t-8.5 -19.5l-120 -566q-18 -85 -55.5 -131.5t-119.5 -92.5l-8 11q58 43 88.5 79.5t48.5 96.5h-43l-227 528l-98 -464l-5 -22 l83 -20z" />
<glyph unicode="&#x14b;" horiz-adv-x="536" d="M209 -2q-77 -7 -109 -7q-13 0 -10 12l30 140l14 64l22 104q20 94 20 112q0 17 -10 17q-21 0 -87 -96l-8 4q23 65 65 113.5t91 48.5q28 0 45 -16.5t17 -49.5q0 -50 -43 -218q54 134 117 209t123 75q76 0 76 -86q0 -16 -3.5 -41t-11.5 -65t-15.5 -76t-21.5 -99.5 t-23 -108.5q-23 -111 -84 -170t-140 -59q-47 0 -77 19.5t-30 48.5q0 36 50 45q28 -63 60 -63q36 0 57.5 38t40.5 128q9 42 31.5 146.5t34 162t11.5 74.5q0 31 -21 31q-35 0 -88 -85t-92 -207z" />
<glyph unicode="&#x14c;" horiz-adv-x="643" d="M340 768l14 65h288l-14 -65h-288zM680 414q0 -170 -102 -297t-248 -127q-108 0 -168.5 66t-60.5 177q0 172 104 299.5t250 127.5q107 0 166 -66t59 -180zM235 177q0 -75 25.5 -115t70.5 -40q56 0 107 75t79.5 180.5t28.5 202.5q0 70 -24 109.5t-70 39.5 q-57 0 -108.5 -73.5t-80 -178t-28.5 -200.5z" />
<glyph unicode="&#x14d;" horiz-adv-x="502" d="M241 618l14 65h288l-14 -65h-288zM524 319q0 -136 -79 -233t-186 -97q-81 0 -128 52.5t-47 140.5q0 133 80.5 230.5t188.5 97.5q81 0 126 -52.5t45 -138.5zM209 150q0 -128 55 -128q36 0 68 58.5t49 136t17 143.5q0 118 -53 118q-36 0 -68.5 -55t-50 -130.5t-17.5 -142.5 z" />
<glyph unicode="&#x14e;" horiz-adv-x="643" d="M611 873l4 1l11 -5q-48 -142 -155 -142q-51 0 -75 37t-17 106l14 4q17 -69 95 -69q74 0 123 68zM680 414q0 -170 -102 -297t-248 -127q-108 0 -168.5 66t-60.5 177q0 172 104 299.5t250 127.5q107 0 166 -66t59 -180zM235 177q0 -75 25.5 -115t70.5 -40q56 0 107 75 t79.5 180.5t28.5 202.5q0 70 -24 109.5t-70 39.5q-57 0 -108.5 -73.5t-80 -178t-28.5 -200.5z" />
<glyph unicode="&#x14f;" horiz-adv-x="502" d="M514 723l3 1l11 -4q-22 -70 -62 -106.5t-93 -36.5q-51 0 -75 37t-17 107l15 3q18 -69 94 -69q74 0 124 68zM524 319q0 -136 -79 -233t-186 -97q-81 0 -128 52.5t-47 140.5q0 133 80.5 230.5t188.5 97.5q81 0 126 -52.5t45 -138.5zM209 150q0 -128 55 -128q36 0 68 58.5 t49 136t17 143.5q0 118 -53 118q-36 0 -68.5 -55t-50 -130.5t-17.5 -142.5z" />
<glyph unicode="&#x150;" horiz-adv-x="643" d="M503 839q0 -35 -63 -72t-138 -48l-6 10q100 91 149 154q58 0 58 -44zM687 839q0 -35 -63 -72t-138 -48l-6 10q100 91 149 154q58 0 58 -44zM680 414q0 -170 -102 -297t-248 -127q-108 0 -168.5 66t-60.5 177q0 172 104 299.5t250 127.5q107 0 166 -66t59 -180zM235 177 q0 -75 25.5 -115t70.5 -40q56 0 107 75t79.5 180.5t28.5 202.5q0 70 -24 109.5t-70 39.5q-57 0 -108.5 -73.5t-80 -178t-28.5 -200.5z" />
<glyph unicode="&#x151;" horiz-adv-x="502" d="M410 688q0 -34 -63 -71.5t-137 -48.5l-7 11q89 78 150 154q26 0 41.5 -12t15.5 -33zM594 688q0 -34 -63 -71.5t-137 -48.5l-7 11q89 78 150 154q27 0 42 -12t15 -33zM524 319q0 -136 -79 -233t-186 -97q-81 0 -128 52.5t-47 140.5q0 133 80.5 230.5t188.5 97.5 q81 0 126 -52.5t45 -138.5zM209 150q0 -128 55 -128q36 0 68 58.5t49 136t17 143.5q0 118 -53 118q-36 0 -68.5 -55t-50 -130.5t-17.5 -142.5z" />
<glyph unicode="&#x152;" horiz-adv-x="885" d="M843 0h-394q-39 -10 -84 -10q-125 0 -194 67.5t-69 184.5q0 175 109 296.5t283 121.5q53 0 92 -10h385q-1 -42 -16.5 -99t-34.5 -95h-8l-39 162q-28 1 -86 1h-90l-58 -276l188 8l-10 -48l-185 9l-59 -280l96 -1q59 0 89 1l108 166h9q1 -24 -2 -60q-6 -69 -30 -138z M237 217q0 -96 33.5 -145.5t96.5 -49.5q50 -1 86 35l115 541q-21 31 -68 31q-75 0 -137.5 -69.5t-94 -163t-31.5 -179.5z" />
<glyph unicode="&#x153;" horiz-adv-x="715" d="M733 155q-25 -70 -80.5 -117.5t-118.5 -47.5q-91 0 -129 85q-73 -86 -167 -86q-74 0 -116.5 52.5t-42.5 140.5q0 134 77.5 231t181.5 97q98 0 136 -93q76 93 174 93q51 0 82 -27.5t31 -76.5q0 -83 -72.5 -136t-191.5 -58v-17q0 -63 22 -96.5t63 -33.5q68 0 144 95z M629 480q-42 0 -81.5 -76.5t-48.5 -166.5q72 10 118 68t46 133q0 42 -34 42zM204 150q0 -60 14.5 -94t41.5 -34q36 0 68 58.5t49 136t17 143.5q0 118 -54 118q-36 0 -68.5 -55t-50 -130.5t-17.5 -142.5z" />
<glyph unicode="&#x154;" horiz-adv-x="673" d="M620 838q0 -35 -70 -71.5t-154 -47.5l-6 10q103 91 154 154q76 0 76 -45zM310 0h-270v13l56 12q21 5 27 31l114 539l5 22l-70 20l3 13h259q111 0 171.5 -40.5t60.5 -117.5q0 -66 -44 -115.5t-113 -76.5l53 -146q21 -68 34.5 -93.5t37.5 -35.5l38 -12l-3 -13l-128 -3 q-37 0 -55.5 13.5t-27.5 44.5l-69 218h-95l-46 -217l-5 -22l70 -21zM418 619h-51l-5 -24l-62 -291h58q82 0 132 58t50 137q0 58 -32.5 89t-89.5 31z" />
<glyph unicode="&#x155;" horiz-adv-x="431" d="M477 688q0 -35 -69.5 -71.5t-153.5 -48.5l-7 11q92 79 155 154q35 0 55 -12t20 -33zM207 -2q-77 -7 -109 -7q-13 0 -10 12l29 140l14 64l22 104q20 94 20 112q0 17 -9 17q-23 0 -87 -96l-8 4q22 64 64.5 113t91.5 49q28 0 45 -16.5t17 -49.5q0 -44 -42 -214 q49 130 104 205t107 75q23 0 35.5 -15t12.5 -38q0 -48 -38 -93q-35 25 -69 25q-43 0 -84.5 -66.5t-75.5 -179.5z" />
<glyph unicode="&#x156;" horiz-adv-x="673" d="M310 0h-270v13l56 12q21 5 27 31l114 539l5 22l-70 20l3 13h259q111 0 171.5 -40.5t60.5 -117.5q0 -66 -44 -115.5t-113 -76.5l53 -146q21 -68 34.5 -93.5t37.5 -35.5l38 -12l-3 -13l-128 -3q-37 0 -55.5 13.5t-27.5 44.5l-69 218h-95l-46 -217l-5 -22l70 -21zM418 619 h-51l-5 -24l-62 -291h58q82 0 132 58t50 137q0 58 -32.5 89t-89.5 31zM417 -134q0 -44 -38 -97.5t-95 -88.5l-7 9q38 51 56 112q-39 8 -39 47q0 30 22 51.5t50 21.5q23 0 37 -15t14 -40z" />
<glyph unicode="&#x157;" horiz-adv-x="431" d="M207 -2q-77 -7 -109 -7q-13 0 -10 12l29 140l14 64l22 104q20 94 20 112q0 17 -9 17q-23 0 -87 -96l-8 4q22 64 64.5 113t91.5 49q28 0 45 -16.5t17 -49.5q0 -44 -42 -214q49 130 104 205t107 75q23 0 35.5 -15t12.5 -38q0 -48 -38 -93q-35 25 -69 25q-43 0 -84.5 -66.5 t-75.5 -179.5zM182 -134q0 -44 -38 -97.5t-95 -88.5l-7 9q38 51 56 112q-39 8 -39 47q0 30 22 51.5t50 21.5q23 0 37 -15t14 -40z" />
<glyph unicode="&#x158;" horiz-adv-x="673" d="M534 726l-9 -5h-80q-18 37 -66 152l10 6q51 -39 115 -79q9 5 63.5 35t82.5 44l6 -8q-84 -92 -122 -145zM310 0h-270v13l56 12q21 5 27 31l114 539l5 22l-70 20l3 13h259q111 0 171.5 -40.5t60.5 -117.5q0 -66 -44 -115.5t-113 -76.5l53 -146q21 -68 34.5 -93.5 t37.5 -35.5l38 -12l-3 -13l-128 -3q-37 0 -55.5 13.5t-27.5 44.5l-69 218h-95l-46 -217l-5 -22l70 -21zM418 619h-51l-5 -24l-62 -291h58q82 0 132 58t50 137q0 58 -32.5 89t-89.5 31z" />
<glyph unicode="&#x159;" horiz-adv-x="431" d="M388 577l-9 -6h-80q-21 43 -66 152l10 7q58 -44 115 -80q103 58 146 79l6 -7q-86 -96 -122 -145zM207 -2q-77 -7 -109 -7q-13 0 -10 12l29 140l14 64l22 104q20 94 20 112q0 17 -9 17q-23 0 -87 -96l-8 4q22 64 64.5 113t91.5 49q28 0 45 -16.5t17 -49.5q0 -44 -42 -214 q49 130 104 205t107 75q23 0 35.5 -15t12.5 -38q0 -48 -38 -93q-35 25 -69 25q-43 0 -84.5 -66.5t-75.5 -179.5z" />
<glyph unicode="&#x15a;" horiz-adv-x="506" d="M559 838q0 -35 -70 -71.5t-153 -47.5l-7 10q97 84 155 154q75 0 75 -45zM152 468q0 89 74.5 140.5t182.5 51.5q113 0 162 -38q11 -9 11 -22q0 -25 -24 -75t-45 -75l-9 1l-19 167q-26 11 -69 11q-59 0 -100.5 -32.5t-41.5 -85.5q0 -38 23.5 -70.5t57 -58.5t67.5 -53.5 t57.5 -66.5t23.5 -86q0 -87 -72.5 -136.5t-184.5 -49.5q-128 0 -174 37q-15 12 -15 30q0 27 21.5 75t42.5 77l9 -1l24 -168q35 -19 88 -19q61 0 100.5 33t39.5 85q0 33 -17 62t-42.5 49t-55.5 44.5t-55.5 46.5t-42.5 55.5t-17 71.5z" />
<glyph unicode="&#x15b;" horiz-adv-x="418" d="M461 688q0 -35 -69.5 -71.5t-153.5 -48.5l-7 11q92 79 155 154q35 0 55 -12t20 -33zM419 131q0 -63 -52 -102t-147 -39q-70 0 -118 27t-48 71q0 29 26 50.5t73 30.5l7 -4q-8 -45 -4 -75q4 -32 23.5 -50.5t49.5 -18.5q31 0 51.5 20t20.5 52q0 27 -19 54t-46.5 51t-55 48.5 t-46.5 57t-19 66.5q0 62 50.5 101t134.5 39q70 0 115 -27t45 -70q0 -29 -24 -50t-64 -29l-8 3q4 50 1 73q-4 32 -21 50.5t-44 18.5q-30 0 -48.5 -19.5t-18.5 -50.5q0 -33 29 -68t64 -62t64 -67t29 -81z" />
<glyph unicode="&#x15c;" horiz-adv-x="506" d="M569 727l-10 -6q-59 43 -116 79q-104 -58 -145 -79l-6 8q84 92 122 145l9 5h80q18 -37 66 -152zM152 468q0 89 74.5 140.5t182.5 51.5q113 0 162 -38q11 -9 11 -22q0 -25 -24 -75t-45 -75l-9 1l-19 167q-26 11 -69 11q-59 0 -100.5 -32.5t-41.5 -85.5q0 -38 23.5 -70.5 t57 -58.5t67.5 -53.5t57.5 -66.5t23.5 -86q0 -87 -72.5 -136.5t-184.5 -49.5q-128 0 -174 37q-15 12 -15 30q0 27 21.5 75t42.5 77l9 -1l24 -168q35 -19 88 -19q61 0 100.5 33t39.5 85q0 33 -17 62t-42.5 49t-55.5 44.5t-55.5 46.5t-42.5 55.5t-17 71.5z" />
<glyph unicode="&#x15d;" horiz-adv-x="418" d="M473 577l-10 -6q-65 48 -115 79q-104 -58 -145 -79l-7 8q81 89 123 145l9 5h79q18 -37 66 -152zM419 131q0 -63 -52 -102t-147 -39q-70 0 -118 27t-48 71q0 29 26 50.5t73 30.5l7 -4q-8 -45 -4 -75q4 -32 23.5 -50.5t49.5 -18.5q31 0 51.5 20t20.5 52q0 27 -19 54 t-46.5 51t-55 48.5t-46.5 57t-19 66.5q0 62 50.5 101t134.5 39q70 0 115 -27t45 -70q0 -29 -24 -50t-64 -29l-8 3q4 50 1 73q-4 32 -21 50.5t-44 18.5q-30 0 -48.5 -19.5t-18.5 -50.5q0 -33 29 -68t64 -62t64 -67t29 -81z" />
<glyph unicode="&#x15e;" horiz-adv-x="506" d="M226 -89l-2 6l25 73h-3q-128 0 -174 37q-15 12 -15 30q0 27 21.5 75t42.5 77l9 -1l24 -168q35 -19 88 -19q61 0 100.5 33t39.5 85q0 33 -17 62t-42.5 49t-55.5 44.5t-55.5 46.5t-42.5 55.5t-17 71.5q0 89 74.5 140.5t182.5 51.5q113 0 162 -38q11 -9 11 -22 q0 -25 -24 -75t-45 -75l-9 1l-19 167q-26 11 -69 11q-59 0 -100.5 -32.5t-41.5 -85.5q0 -38 23.5 -70.5t57 -58.5t67.5 -53.5t57.5 -66.5t23.5 -86q0 -79 -60 -127t-158 -57l-12 -35q95 -8 95 -63q0 -44 -57 -67.5t-130 -24.5l-2 15q41 9 68.5 26t27.5 38q0 27 -49 30z" />
<glyph unicode="&#x15f;" horiz-adv-x="418" d="M174 -89l-2 6l26 74q-63 4 -103.5 30t-40.5 67q0 29 26 50.5t73 30.5l7 -4q-8 -45 -4 -75q4 -32 23.5 -50.5t49.5 -18.5q31 0 51.5 20t20.5 52q0 27 -19 54t-46.5 51t-55 48.5t-46.5 57t-19 66.5q0 62 50.5 101t134.5 39q70 0 115 -27t45 -70q0 -29 -24 -50t-64 -29l-8 3 q4 50 1 73q-4 32 -21 50.5t-44 18.5q-30 0 -48.5 -19.5t-18.5 -50.5q0 -33 29 -68t64 -62t64 -67t29 -81q0 -61 -48 -99.5t-137 -41.5l-12 -33q94 -8 94 -63q0 -44 -56.5 -67.5t-130.5 -24.5l-1 15q41 9 68 26t27 38q0 27 -49 30z" />
<glyph unicode="&#x160;" horiz-adv-x="506" d="M473 726l-9 -5h-79q-18 37 -66 152l9 6q47 -36 116 -79q14 7 66 36t79 43l7 -8q-81 -89 -123 -145zM152 468q0 89 74.5 140.5t182.5 51.5q113 0 162 -38q11 -9 11 -22q0 -25 -24 -75t-45 -75l-9 1l-19 167q-26 11 -69 11q-59 0 -100.5 -32.5t-41.5 -85.5 q0 -38 23.5 -70.5t57 -58.5t67.5 -53.5t57.5 -66.5t23.5 -86q0 -87 -72.5 -136.5t-184.5 -49.5q-128 0 -174 37q-15 12 -15 30q0 27 21.5 75t42.5 77l9 -1l24 -168q35 -19 88 -19q61 0 100.5 33t39.5 85q0 33 -17 62t-42.5 49t-55.5 44.5t-55.5 46.5t-42.5 55.5t-17 71.5z " />
<glyph unicode="&#x161;" horiz-adv-x="418" d="M372 577l-9 -6h-80q-21 43 -66 152l10 7q58 -44 115 -80q103 58 146 79l6 -7q-86 -96 -122 -145zM419 131q0 -63 -52 -102t-147 -39q-70 0 -118 27t-48 71q0 29 26 50.5t73 30.5l7 -4q-8 -45 -4 -75q4 -32 23.5 -50.5t49.5 -18.5q31 0 51.5 20t20.5 52q0 27 -19 54 t-46.5 51t-55 48.5t-46.5 57t-19 66.5q0 62 50.5 101t134.5 39q70 0 115 -27t45 -70q0 -29 -24 -50t-64 -29l-8 3q4 50 1 73q-4 32 -21 50.5t-44 18.5q-30 0 -48.5 -19.5t-18.5 -50.5q0 -33 29 -68t64 -62t64 -67t29 -81z" />
<glyph unicode="&#x162;" horiz-adv-x="587" d="M251 -89l-2 6l29 83h-118v13l56 12q21 5 27 31l119 563h-61q-43 0 -64 -1l-107 -183h-8q0 33 2 52q6 83 34 163h547q-3 -47 -19.5 -111t-36.5 -104h-9l-29 183q-21 1 -63 1h-61l-119 -563l-5 -22l70 -21l-3 -13h-116l-15 -43q94 -8 94 -63q0 -44 -56.5 -67.5 t-130.5 -24.5l-1 15q41 9 68 26t27 38q0 27 -49 30z" />
<glyph unicode="&#x163;" horiz-adv-x="332" d="M134 -89l-2 6l26 75q-61 11 -61 84q0 29 10 74l63 298h-77l1 8l85 29l138 131l8 -2l-29 -138h116l-6 -28h-116l-63 -298q-11 -53 -11 -66q0 -23 21 -23q35 0 114 96l8 -5q-26 -61 -70 -107.5t-96 -53.5l-11 -34q94 -8 94 -63q0 -44 -56.5 -67.5t-130.5 -24.5l-1 15 q41 9 68 26t27 38q0 27 -49 30z" />
<glyph unicode="&#x164;" horiz-adv-x="587" d="M494 726l-9 -5h-80q-18 37 -66 152l10 6q51 -39 115 -79q9 5 63.5 35t82.5 44l6 -8q-84 -92 -122 -145zM430 0h-270v13l56 12q21 5 27 31l119 563h-61q-43 0 -64 -1l-107 -183h-8q0 33 2 52q6 83 34 163h547q-3 -47 -19.5 -111t-36.5 -104h-9l-29 183q-21 1 -63 1h-61 l-119 -563l-5 -22l70 -21z" />
<glyph unicode="&#x165;" horiz-adv-x="346" d="M495 674q0 -41 -34.5 -90t-86.5 -81l-7 8q36 50 52 103q-36 6 -36 43q0 27 20 46.5t46 19.5q21 0 33.5 -13.5t12.5 -35.5zM359 152q-29 -66 -76.5 -114t-104.5 -48q-38 0 -59.5 22.5t-21.5 63.5q0 29 10 74l63 298h-77l1 8l85 29l138 131l8 -2l-29 -138h116l-6 -28h-116 l-63 -298q-11 -53 -11 -66q0 -23 21 -23q35 0 114 96z" />
<glyph unicode="&#x166;" horiz-adv-x="587" d="M430 0h-270v13l56 12q21 5 27 31l48 227h-139l6 34h140l64 302h-61q-43 0 -64 -1l-107 -183h-8q0 33 2 52q6 83 34 163h547q-3 -47 -19.5 -111t-36.5 -104h-9l-29 183q-21 1 -63 1h-61l-64 -302h140l-6 -34h-141l-48 -227l-5 -22l70 -21z" />
<glyph unicode="&#x167;" horiz-adv-x="332" d="M359 152q-29 -66 -76.5 -114t-104.5 -48q-38 0 -59.5 22.5t-21.5 63.5q0 29 10 74l34 161h-76l6 28h76l23 109h-77l1 8l85 29l138 131l8 -2l-29 -138h116l-6 -28h-116l-23 -109h117l-5 -28h-118l-34 -161q-11 -53 -11 -66q0 -23 21 -23q35 0 114 96z" />
<glyph unicode="&#x168;" horiz-adv-x="670" d="M624 809q36 29 65 56l9 -4q-13 -55 -42 -88.5t-69 -33.5q-24 0 -55 10t-64 24t-43 17q-36 -29 -65 -56l-9 4q13 56 42 89t69 33q32 0 93.5 -24.5t68.5 -26.5zM616 231q-51 -241 -261 -241q-97 0 -152.5 50t-55.5 139q0 24 7 61l76 355l5 22l-71 20l4 13h270v-13l-56 -11 q-23 -6 -27 -31l-77 -362q-8 -37 -8 -64q0 -65 33.5 -99.5t91.5 -34.5q67 0 116 50t70 147l77 364l5 21l-79 20l3 13h198v-13l-87 -20l-5 -21z" />
<glyph unicode="&#x169;" d="M510 659q26 20 65 56l8 -4q-13 -54 -42 -88t-69 -34q-24 0 -55 10t-64 24t-43 17q-26 -20 -65 -56l-8 4q12 56 41.5 89t69.5 33q31 0 93 -24.5t69 -26.5zM459 502q77 7 109 7q13 0 10 -12l-29 -139l-14 -65l-22 -103q-20 -96 -20 -113q0 -16 9 -16q23 0 87 96l8 -5 q-22 -64 -64.5 -113t-91.5 -49q-28 0 -45 17t-17 50q0 49 43 217q-54 -134 -116.5 -209t-122.5 -75q-37 0 -57 21.5t-20 58.5q0 29 9.5 76t28 119.5t22.5 92.5q12 51 12 67q0 15 -9 15q-19 0 -89 -96l-7 4q24 65 67.5 113.5t92.5 48.5q63 0 63 -77q0 -28 -10 -75 q-7 -35 -22.5 -94.5t-25.5 -104t-10 -67.5q0 -26 20 -26q35 0 88 84t93 208z" />
<glyph unicode="&#x16a;" horiz-adv-x="670" d="M377 768l15 65h288l-15 -65h-288zM616 231q-51 -241 -261 -241q-97 0 -152.5 50t-55.5 139q0 24 7 61l76 355l5 22l-71 20l4 13h270v-13l-56 -11q-23 -6 -27 -31l-77 -362q-8 -37 -8 -64q0 -65 33.5 -99.5t91.5 -34.5q67 0 116 50t70 147l77 364l5 21l-79 20l3 13h198 v-13l-87 -20l-5 -21z" />
<glyph unicode="&#x16b;" d="M262 618l14 65h288l-14 -65h-288zM459 502q77 7 109 7q13 0 10 -12l-29 -139l-14 -65l-22 -103q-20 -96 -20 -113q0 -16 9 -16q23 0 87 96l8 -5q-22 -64 -64.5 -113t-91.5 -49q-28 0 -45 17t-17 50q0 49 43 217q-54 -134 -116.5 -209t-122.5 -75q-37 0 -57 21.5t-20 58.5 q0 29 9.5 76t28 119.5t22.5 92.5q12 51 12 67q0 15 -9 15q-19 0 -89 -96l-7 4q24 65 67.5 113.5t92.5 48.5q63 0 63 -77q0 -28 -10 -75q-7 -35 -22.5 -94.5t-25.5 -104t-10 -67.5q0 -26 20 -26q35 0 88 84t93 208z" />
<glyph unicode="&#x16c;" horiz-adv-x="670" d="M649 873l3 1l11 -5q-22 -69 -62 -105.5t-93 -36.5q-51 0 -75 36.5t-17 106.5l15 4q17 -69 94 -69q75 0 124 68zM616 231q-51 -241 -261 -241q-97 0 -152.5 50t-55.5 139q0 24 7 61l76 355l5 22l-71 20l4 13h270v-13l-56 -11q-23 -6 -27 -31l-77 -362q-8 -37 -8 -64 q0 -65 33.5 -99.5t91.5 -34.5q67 0 116 50t70 147l77 364l5 21l-79 20l3 13h198v-13l-87 -20l-5 -21z" />
<glyph unicode="&#x16d;" d="M535 723l3 1l11 -4q-22 -70 -62 -106.5t-93 -36.5q-51 0 -75 37t-17 107l15 3q18 -69 94 -69q74 0 124 68zM459 502q77 7 109 7q13 0 10 -12l-29 -139l-14 -65l-22 -103q-20 -96 -20 -113q0 -16 9 -16q23 0 87 96l8 -5q-22 -64 -64.5 -113t-91.5 -49q-28 0 -45 17t-17 50 q0 49 43 217q-54 -134 -116.5 -209t-122.5 -75q-37 0 -57 21.5t-20 58.5q0 29 9.5 76t28 119.5t22.5 92.5q12 51 12 67q0 15 -9 15q-19 0 -89 -96l-7 4q24 65 67.5 113.5t92.5 48.5q63 0 63 -77q0 -28 -10 -75q-7 -35 -22.5 -94.5t-25.5 -104t-10 -67.5q0 -26 20 -26 q35 0 88 84t93 208z" />
<glyph unicode="&#x16e;" horiz-adv-x="670" d="M620 813q0 -39 -31.5 -66.5t-76.5 -27.5q-35 0 -55 17.5t-20 48.5q0 39 32 66.5t77 27.5q35 0 54.5 -17.5t19.5 -48.5zM488 786q2 -34 32 -34q21 0 35 17t14 43q0 34 -31 34q-21 0 -35.5 -17.5t-14.5 -42.5zM616 231q-51 -241 -261 -241q-97 0 -152.5 50t-55.5 139 q0 24 7 61l76 355l5 22l-71 20l4 13h270v-13l-56 -11q-23 -6 -27 -31l-77 -362q-8 -37 -8 -64q0 -65 33.5 -99.5t91.5 -34.5q67 0 116 50t70 147l77 364l5 21l-79 20l3 13h198v-13l-87 -20l-5 -21z" />
<glyph unicode="&#x16f;" d="M503 665q0 -40 -32 -67.5t-76 -27.5q-35 0 -55 17.5t-20 48.5q0 39 32 67t77 28q35 0 54.5 -18t19.5 -48zM371 638q2 -34 32 -34q21 0 35 17t14 43q0 15 -8.5 24t-22.5 9q-21 0 -35.5 -17t-14.5 -42zM459 502q77 7 109 7q13 0 10 -12l-29 -139l-14 -65l-22 -103 q-20 -96 -20 -113q0 -16 9 -16q23 0 87 96l8 -5q-22 -64 -64.5 -113t-91.5 -49q-28 0 -45 17t-17 50q0 49 43 217q-54 -134 -116.5 -209t-122.5 -75q-37 0 -57 21.5t-20 58.5q0 29 9.5 76t28 119.5t22.5 92.5q12 51 12 67q0 15 -9 15q-19 0 -89 -96l-7 4q24 65 67.5 113.5 t92.5 48.5q63 0 63 -77q0 -28 -10 -75q-7 -35 -22.5 -94.5t-25.5 -104t-10 -67.5q0 -26 20 -26q35 0 88 84t93 208z" />
<glyph unicode="&#x170;" horiz-adv-x="670" d="M540 839q0 -35 -63 -72t-137 -48l-7 10q94 84 150 154q26 0 41.5 -11.5t15.5 -32.5zM724 839q0 -35 -63 -72t-137 -48l-7 10q94 84 150 154q57 0 57 -44zM616 231q-51 -241 -261 -241q-97 0 -152.5 50t-55.5 139q0 24 7 61l76 355l5 22l-71 20l4 13h270v-13l-56 -11 q-23 -6 -27 -31l-77 -362q-8 -37 -8 -64q0 -65 33.5 -99.5t91.5 -34.5q67 0 116 50t70 147l77 364l5 21l-79 20l3 13h198v-13l-87 -20l-5 -21z" />
<glyph unicode="&#x171;" d="M431 688q0 -34 -63 -71.5t-137 -48.5l-7 11q89 78 150 154q26 0 41.5 -12t15.5 -33zM615 688q0 -34 -63 -71.5t-137 -48.5l-7 11q89 78 150 154q27 0 42 -12t15 -33zM459 502q77 7 109 7q13 0 10 -12l-29 -139l-14 -65l-22 -103q-20 -96 -20 -113q0 -16 9 -16q23 0 87 96 l8 -5q-22 -64 -64.5 -113t-91.5 -49q-28 0 -45 17t-17 50q0 49 43 217q-54 -134 -116.5 -209t-122.5 -75q-37 0 -57 21.5t-20 58.5q0 29 9.5 76t28 119.5t22.5 92.5q12 51 12 67q0 15 -9 15q-19 0 -89 -96l-7 4q24 65 67.5 113.5t92.5 48.5q63 0 63 -77q0 -28 -10 -75 q-7 -35 -22.5 -94.5t-25.5 -104t-10 -67.5q0 -26 20 -26q35 0 88 84t93 208z" />
<glyph unicode="&#x172;" horiz-adv-x="670" d="M454 -70q-59 -126 -135 -126q-25 0 -39 14.5t-14 39.5q0 71 130 135q-19 -3 -41 -3q-97 0 -152.5 50t-55.5 139q0 24 7 61l76 355l5 22l-71 20l4 13h270v-13l-56 -11q-23 -6 -27 -31l-77 -362q-8 -37 -8 -64q0 -65 33.5 -99.5t91.5 -34.5q67 0 116 50t70 147l77 364l5 21 l-79 20l3 13h198v-13l-87 -20l-5 -21l-77 -366q-35 -162 -141 -214q-121 -70 -121 -119q0 -22 18 -22q26 0 75 60z" />
<glyph unicode="&#x173;" d="M546 -70q-59 -126 -134 -126q-24 0 -38 14t-14 38t20 51.5t37 42.5t52 44q-18 -4 -28 -4q-28 0 -45 17t-17 50q0 49 43 217q-54 -134 -116.5 -209t-122.5 -75q-37 0 -57 21.5t-20 58.5q0 29 9.5 76t28 119.5t22.5 92.5q12 51 12 67q0 15 -9 15q-19 0 -89 -96l-7 4 q24 65 67.5 113.5t92.5 48.5q63 0 63 -77q0 -28 -10 -75q-7 -35 -22.5 -94.5t-25.5 -104t-10 -67.5q0 -26 20 -26q35 0 88 84t93 208l30 144q77 7 109 7q13 0 10 -12l-29 -139l-14 -65l-22 -103q-20 -96 -20 -113q0 -16 9 -16q23 0 87 96l8 -5q-19 -53 -47 -91 q-15 -22 -46 -62.5t-45 -63.5t-14 -39q0 -21 19 -21q25 0 75 60z" />
<glyph unicode="&#x174;" horiz-adv-x="1009" d="M805 727l-10 -6q-65 48 -115 79q-104 -58 -145 -79l-7 8q81 89 123 145l9 5h79q18 -37 66 -152zM1015 533l-297 -535h-64l-52 441l-238 -441h-64l-82 581q-6 38 -34 47l-41 11l3 13h270v-13l-75 -21l59 -483l195 367l-9 79q-4 37 -33 47l-40 11l3 13h275l-1 -13l-80 -21 l48 -481l254 481l-78 21l4 13h200v-13q-28 -7 -54 -20q-20 -10 -34 -28t-35 -56z" />
<glyph unicode="&#x175;" horiz-adv-x="718" d="M616 577l-10 -6q-65 48 -115 79q-104 -58 -145 -79l-7 8q81 89 123 145l9 5h79q18 -37 66 -152zM452 510q79 0 79 -105q0 -137 -33 -354q72 96 114.5 202t42.5 187q0 33 -7 59q24 11 53 11q35 0 55 -19.5t20 -57.5q0 -89 -82 -206.5t-224 -231.5l-72 4q9 179 11 274 q-54 -134 -190 -278l-72 4q13 199 13 286q0 95 -5.5 125t-20.5 30q-25 0 -86 -96l-8 4q22 66 65 114t97 48q80 0 80 -133q0 -123 -33 -317q72 96 115.5 198t43.5 192q0 25 -6 49q20 11 50 11z" />
<glyph unicode="&#x176;" horiz-adv-x="594" d="M602 727l-10 -6q-65 48 -115 79q-104 -58 -145 -79l-7 8q81 89 123 145l9 5h79q18 -37 66 -152zM434 0h-270v13l56 12q13 3 19 10t8 21l24 114q12 75 10 168.5t-23 172.5t-50 79q-32 0 -93 -96l-10 4q22 63 66 112.5t95 49.5q47 0 79.5 -55t45.5 -142.5t7 -192.5 q67 173 136 281.5t117 108.5q19 0 31.5 -12.5t19 -37t9.5 -47t5 -54.5l-10 -5q-9 32 -14 47t-15 28t-23 13q-32 0 -89.5 -79t-107.5 -186t-67 -185l-18 -86l-5 -22l71 -21z" />
<glyph unicode="&#x177;" horiz-adv-x="481" d="M490 577l-10 -6q-65 48 -115 79q-104 -58 -145 -79l-7 8q81 89 123 145l9 5h79q18 -37 66 -152zM298 348q0 -70 -18 -160t-51 -170q91 87 138 200.5t47 217.5q0 31 -6 63q24 11 54 11q73 0 73 -82q0 -114 -85 -238.5t-235 -202.5q-85 -182 -206 -182q-41 0 -67 17.5 t-26 42.5q0 18 15 32t37 18q21 -66 52 -66q41 0 77.5 86.5t55.5 199.5t19 207q0 98 -26 98q-24 0 -82 -96l-8 4q21 66 62 114t92 48q88 0 88 -162z" />
<glyph unicode="&#x178;" horiz-adv-x="594" d="M436 814q0 -31 -24 -53t-56 -22q-25 0 -39 13t-14 35q0 30 24.5 52t55.5 22q24 0 38.5 -12.5t14.5 -34.5zM653 814q0 -31 -24 -53t-56 -22q-25 0 -39 13t-14 35q0 30 24.5 52t55.5 22q24 0 38.5 -12.5t14.5 -34.5zM434 0h-270v13l56 12q13 3 19 10t8 21l24 114 q12 75 10 168.5t-23 172.5t-50 79q-32 0 -93 -96l-10 4q22 63 66 112.5t95 49.5q47 0 79.5 -55t45.5 -142.5t7 -192.5q67 173 136 281.5t117 108.5q19 0 31.5 -12.5t19 -37t9.5 -47t5 -54.5l-10 -5q-9 32 -14 47t-15 28t-23 13q-32 0 -89.5 -79t-107.5 -186t-67 -185 l-18 -86l-5 -22l71 -21z" />
<glyph unicode="&#x179;" horiz-adv-x="582" d="M569 838q0 -35 -70 -71.5t-153 -47.5l-7 10q97 84 155 154q75 0 75 -45zM563 143q-5 -75 -30 -143h-466l-5 51l456 568h-236l-116 -188h-9q0 34 7 79q6 75 30 140h459l5 -48l-454 -571h240l117 189h9q0 -34 -7 -77z" />
<glyph unicode="&#x17a;" horiz-adv-x="413" d="M458 688q0 -35 -69.5 -71.5t-153.5 -48.5l-7 11q92 79 155 154q35 0 55 -12t20 -33zM141 25q-56 0 -104 -35l-14 16q182 204 290 346q-85 40 -139 40q-26 0 -43 -18.5t-39 -64.5l-9 4q21 106 46 150.5t74 44.5q54 0 160 -89q6 9 65 91q23 -1 36.5 -12t13.5 -28 q0 -27 -42 -60q-134 -144 -293 -312q34 17 66 17q27 0 77.5 -10t64.5 -10q18 0 36.5 21.5t44.5 68.5l9 -5q-9 -32 -14.5 -50t-14 -43.5t-16.5 -40t-18.5 -29t-23 -21t-27.5 -6.5q-23 0 -87 17.5t-99 17.5z" />
<glyph unicode="&#x17b;" horiz-adv-x="582" d="M529 815q0 -33 -26 -56t-62 -23q-28 0 -45 14t-17 37q0 33 27 55.5t62 22.5q28 0 44.5 -13.5t16.5 -36.5zM563 143q-5 -75 -30 -143h-466l-5 51l456 568h-236l-116 -188h-9q0 34 7 79q6 75 30 140h459l5 -48l-454 -571h240l117 189h9q0 -34 -7 -77z" />
<glyph unicode="&#x17c;" horiz-adv-x="413" d="M417 665q0 -33 -26.5 -56t-62.5 -23q-28 0 -44.5 13.5t-16.5 37.5q0 32 27 55t62 23q28 0 44.5 -13.5t16.5 -36.5zM141 25q-56 0 -104 -35l-14 16q182 204 290 346q-85 40 -139 40q-26 0 -43 -18.5t-39 -64.5l-9 4q21 106 46 150.5t74 44.5q54 0 160 -89q6 9 65 91 q23 -1 36.5 -12t13.5 -28q0 -27 -42 -60q-134 -144 -293 -312q34 17 66 17q27 0 77.5 -10t64.5 -10q18 0 36.5 21.5t44.5 68.5l9 -5q-9 -32 -14.5 -50t-14 -43.5t-16.5 -40t-18.5 -29t-23 -21t-27.5 -6.5q-23 0 -87 17.5t-99 17.5z" />
<glyph unicode="&#x17d;" horiz-adv-x="582" d="M483 726l-9 -5h-79q-18 37 -66 152l9 6q47 -36 116 -79q14 7 66 36t79 43l7 -8q-81 -89 -123 -145zM563 143q-5 -75 -30 -143h-466l-5 51l456 568h-236l-116 -188h-9q0 34 7 79q6 75 30 140h459l5 -48l-454 -571h240l117 189h9q0 -34 -7 -77z" />
<glyph unicode="&#x17e;" horiz-adv-x="413" d="M369 577l-9 -6h-80q-21 43 -66 152l10 7q58 -44 115 -80q103 58 146 79l6 -7q-86 -96 -122 -145zM141 25q-56 0 -104 -35l-14 16q182 204 290 346q-85 40 -139 40q-26 0 -43 -18.5t-39 -64.5l-9 4q21 106 46 150.5t74 44.5q54 0 160 -89q6 9 65 91q23 -1 36.5 -12 t13.5 -28q0 -27 -42 -60q-134 -144 -293 -312q34 17 66 17q27 0 77.5 -10t64.5 -10q18 0 36.5 21.5t44.5 68.5l9 -5q-9 -32 -14.5 -50t-14 -43.5t-16.5 -40t-18.5 -29t-23 -21t-27.5 -6.5q-23 0 -87 17.5t-99 17.5z" />
<glyph unicode="&#x18f;" horiz-adv-x="622" d="M94 200q0 58 15 114l15 12h384q18 88 18 154q0 148 -98 148q-64 0 -113 -58t-50 -125q0 -2 1 -5v-2q-29 -19 -75 -19q-51 0 -51 36q0 77 91 141t199 64q110 0 170 -65t60 -180q0 -106 -44.5 -203.5t-126.5 -159.5t-181 -62q-106 0 -160 55t-54 155zM218 166 q0 -64 24 -104t71 -40q60 0 109.5 78.5t78.5 193.5l-269 -6q-14 -59 -14 -122z" />
<glyph unicode="&#x192;" horiz-adv-x="521" d="M295 108q-27 -107 -92 -171t-145 -64q-39 0 -63 18t-24 44q0 46 68 63q4 -80 46 -80q68 0 99 188l36 189h-113l9 34h110l21 106q18 120 87 180t160 60q55 0 92.5 -26t37.5 -67q0 -26 -20 -44.5t-49 -23.5q-15 128 -69 128q-34 0 -58 -45t-47 -139l-32 -129h163l-9 -34 h-163z" />
<glyph unicode="&#x19d;" horiz-adv-x="690" d="M162 29q-18 -84 -55.5 -131t-120.5 -93l-7 11q67 50 99.5 95.5t50.5 130.5l122 575l-78 21l4 12h167l224 -516l98 461l5 22l-83 20l3 13h202v-13l-64 -13q-14 -4 -19.5 -10t-7.5 -19l-127 -595h-86l-223 521z" />
<glyph unicode="&#x1cd;" horiz-adv-x="691" d="M542 726l-9 -5h-79q-18 37 -66 152l10 6q44 -34 115 -79q14 7 66 36t79 43l7 -8q-81 -89 -123 -145zM450 652h64l94 -581q4 -22 11.5 -31.5t25.5 -15.5l35 -11l-3 -13h-279l1 13l81 22l-23 161l-233 -1l-92 -162l76 -20l-3 -13h-189l1 13l43 11q22 6 32.5 15.5t25.5 34.5 zM243 228l210 -2l-42 296z" />
<glyph unicode="&#x1ce;" horiz-adv-x="526" d="M426 577l-9 -6h-80q-21 43 -66 152l10 7q58 -44 115 -80q103 58 146 79l6 -7q-86 -96 -122 -145zM70 117q0 93 39 182t115 150t169 61q91 0 157 -32l-24 -81l-56 -254q-11 -49 -11 -68q0 -14 9 -14q20 0 88 96l8 -5q-26 -65 -69 -113.5t-91 -48.5q-64 0 -64 78 q0 27 10 75l30 131q-49 -132 -108 -208t-111 -76q-44 0 -67.5 35.5t-23.5 91.5zM412 418l12 49q-23 14 -50 14q-44 0 -89 -62.5t-71.5 -146.5t-26.5 -151q0 -61 28 -61q33 0 94 111t103 247z" />
<glyph unicode="&#x1cf;" horiz-adv-x="347" d="M373 726l-9 -5h-80q-18 37 -66 152l10 6q51 -39 115 -79q9 5 63.5 35t82.5 44l6 -8q-84 -92 -122 -145zM310 0h-270v13l56 12q21 5 27 31l114 539l5 22l-70 20l3 13h270v-13l-56 -11q-21 -6 -27 -31l-114 -539l-5 -22l70 -21z" />
<glyph unicode="&#x1d0;" horiz-adv-x="290" d="M295 576l-9 -5h-79q-13 40 -46 152l9 6q46 -40 96 -76q7 4 54 33t71 43l7 -8q-66 -86 -103 -145zM114 143q8 37 27 112.5t25 102.5q12 51 12 67q0 15 -9 15q-19 0 -89 -96l-7 4q24 65 67.5 113.5t92.5 48.5q63 0 63 -77q0 -28 -10 -75l-52 -215q-11 -49 -11 -68 q0 -14 9 -14q20 0 88 96l8 -5q-26 -65 -69 -113.5t-91 -48.5q-64 0 -64 78q0 27 10 75z" />
<glyph unicode="&#x1d1;" horiz-adv-x="643" d="M520 726l-9 -5h-79q-18 37 -66 152l9 6q47 -36 116 -79q14 7 66 36t79 43l7 -8q-81 -89 -123 -145zM680 414q0 -170 -102 -297t-248 -127q-108 0 -168.5 66t-60.5 177q0 172 104 299.5t250 127.5q107 0 166 -66t59 -180zM235 177q0 -75 25.5 -115t70.5 -40q56 0 107 75 t79.5 180.5t28.5 202.5q0 70 -24 109.5t-70 39.5q-57 0 -108.5 -73.5t-80 -178t-28.5 -200.5z" />
<glyph unicode="&#x1d2;" horiz-adv-x="502" d="M418 577l-9 -6h-80q-21 43 -66 152l10 7q58 -44 115 -80q103 58 146 79l6 -7q-86 -96 -122 -145zM524 319q0 -136 -79 -233t-186 -97q-81 0 -128 52.5t-47 140.5q0 133 80.5 230.5t188.5 97.5q81 0 126 -52.5t45 -138.5zM209 150q0 -128 55 -128q36 0 68 58.5t49 136 t17 143.5q0 118 -53 118q-36 0 -68.5 -55t-50 -130.5t-17.5 -142.5z" />
<glyph unicode="&#x1d3;" horiz-adv-x="670" d="M558 726l-9 -5h-80q-18 37 -66 152l10 6q51 -39 115 -79q9 5 63.5 35t82.5 44l6 -8q-84 -92 -122 -145zM616 231q-51 -241 -261 -241q-97 0 -152.5 50t-55.5 139q0 24 7 61l76 355l5 22l-71 20l4 13h270v-13l-56 -11q-23 -6 -27 -31l-77 -362q-8 -37 -8 -64 q0 -65 33.5 -99.5t91.5 -34.5q67 0 116 50t70 147l77 364l5 21l-79 20l3 13h198v-13l-87 -20l-5 -21z" />
<glyph unicode="&#x1d4;" d="M439 577l-9 -6h-80q-21 43 -66 152l10 7q58 -44 115 -80q103 58 146 79l6 -7q-86 -96 -122 -145zM459 502q77 7 109 7q13 0 10 -12l-29 -139l-14 -65l-22 -103q-20 -96 -20 -113q0 -16 9 -16q23 0 87 96l8 -5q-22 -64 -64.5 -113t-91.5 -49q-28 0 -45 17t-17 50 q0 49 43 217q-54 -134 -116.5 -209t-122.5 -75q-37 0 -57 21.5t-20 58.5q0 29 9.5 76t28 119.5t22.5 92.5q12 51 12 67q0 15 -9 15q-19 0 -89 -96l-7 4q24 65 67.5 113.5t92.5 48.5q63 0 63 -77q0 -28 -10 -75q-7 -35 -22.5 -94.5t-25.5 -104t-10 -67.5q0 -26 20 -26 q35 0 88 84t93 208z" />
<glyph unicode="&#x1d5;" horiz-adv-x="671" d="M425 986l14 65h288l-14 -65h-288zM487 814q0 -31 -24 -53t-56 -22q-25 0 -39 13t-14 35q0 30 24.5 52t55.5 22q24 0 38.5 -12.5t14.5 -34.5zM704 814q0 -31 -24 -53t-56 -22q-25 0 -39 13t-14 35q0 30 24.5 52t55.5 22q24 0 38.5 -12.5t14.5 -34.5zM616 231 q-51 -241 -261 -241q-97 0 -152.5 50t-55.5 139q0 24 7 61l76 355l5 22l-71 20l4 13h270v-13l-56 -11q-23 -6 -27 -31l-77 -362q-8 -37 -8 -64q0 -65 33.5 -99.5t91.5 -34.5q67 0 116 50t70 147l77 364l5 21l-79 20l3 13h198v-13l-87 -20l-5 -21z" />
<glyph unicode="&#x1d6;" d="M306 826l15 65h288l-15 -65h-288zM370 664q0 -31 -23.5 -53t-55.5 -22q-25 0 -39.5 13t-14.5 35q0 29 24.5 51.5t55.5 22.5q25 0 39 -12.5t14 -34.5zM587 664q0 -31 -23.5 -53t-55.5 -22q-25 0 -39.5 13t-14.5 35q0 29 24.5 51.5t55.5 22.5q25 0 39 -12.5t14 -34.5z M459 502q77 7 109 7q13 0 10 -12l-29 -139l-14 -65l-22 -103q-20 -96 -20 -113q0 -16 9 -16q23 0 87 96l8 -5q-22 -64 -64.5 -113t-91.5 -49q-28 0 -45 17t-17 50q0 49 43 217q-54 -134 -116.5 -209t-122.5 -75q-37 0 -57 21.5t-20 58.5q0 29 9.5 76t28 119.5t22.5 92.5 q12 51 12 67q0 15 -9 15q-19 0 -89 -96l-7 4q24 65 67.5 113.5t92.5 48.5q63 0 63 -77q0 -28 -10 -75q-7 -35 -22.5 -94.5t-25.5 -104t-10 -67.5q0 -26 20 -26q35 0 88 84t93 208z" />
<glyph unicode="&#x1d7;" horiz-adv-x="671" d="M704 1056q0 -35 -70 -71.5t-154 -47.5l-6 10q103 91 154 154q76 0 76 -45zM487 814q0 -31 -24 -53t-56 -22q-25 0 -39 13t-14 35q0 30 24.5 52t55.5 22q24 0 38.5 -12.5t14.5 -34.5zM704 814q0 -31 -24 -53t-56 -22q-25 0 -39 13t-14 35q0 30 24.5 52t55.5 22 q24 0 38.5 -12.5t14.5 -34.5zM616 231q-51 -241 -261 -241q-97 0 -152.5 50t-55.5 139q0 24 7 61l76 355l5 22l-71 20l4 13h270v-13l-56 -11q-23 -6 -27 -31l-77 -362q-8 -37 -8 -64q0 -65 33.5 -99.5t91.5 -34.5q67 0 116 50t70 147l77 364l5 21l-79 20l3 13h198v-13 l-87 -20l-5 -21z" />
<glyph unicode="&#x1d8;" d="M573 896q0 -35 -70 -72t-154 -48l-6 11q99 85 154 154q35 0 55.5 -12t20.5 -33zM370 664q0 -31 -23.5 -53t-55.5 -22q-25 0 -39.5 13t-14.5 35q0 29 24.5 51.5t55.5 22.5q25 0 39 -12.5t14 -34.5zM587 664q0 -31 -23.5 -53t-55.5 -22q-25 0 -39.5 13t-14.5 35 q0 29 24.5 51.5t55.5 22.5q25 0 39 -12.5t14 -34.5zM459 502q77 7 109 7q13 0 10 -12l-29 -139l-14 -65l-22 -103q-20 -96 -20 -113q0 -16 9 -16q23 0 87 96l8 -5q-22 -64 -64.5 -113t-91.5 -49q-28 0 -45 17t-17 50q0 49 43 217q-54 -134 -116.5 -209t-122.5 -75 q-37 0 -57 21.5t-20 58.5q0 29 9.5 76t28 119.5t22.5 92.5q12 51 12 67q0 15 -9 15q-19 0 -89 -96l-7 4q24 65 67.5 113.5t92.5 48.5q63 0 63 -77q0 -28 -10 -75q-7 -35 -22.5 -94.5t-25.5 -104t-10 -67.5q0 -26 20 -26q35 0 88 84t93 208z" />
<glyph unicode="&#x1d9;" horiz-adv-x="671" d="M603 944l-9 -5h-79q-18 37 -66 152l10 6q44 -34 115 -79q14 7 66 36t79 43l7 -8q-81 -89 -123 -145zM487 814q0 -31 -24 -53t-56 -22q-25 0 -39 13t-14 35q0 30 24.5 52t55.5 22q24 0 38.5 -12.5t14.5 -34.5zM704 814q0 -31 -24 -53t-56 -22q-25 0 -39 13t-14 35 q0 30 24.5 52t55.5 22q24 0 38.5 -12.5t14.5 -34.5zM616 231q-51 -241 -261 -241q-97 0 -152.5 50t-55.5 139q0 24 7 61l76 355l5 22l-71 20l4 13h270v-13l-56 -11q-23 -6 -27 -31l-77 -362q-8 -37 -8 -64q0 -65 33.5 -99.5t91.5 -34.5q67 0 116 50t70 147l77 364l5 21 l-79 20l3 13h198v-13l-87 -20l-5 -21z" />
<glyph unicode="&#x1da;" d="M483 785l-9 -6h-79q-21 43 -66 152l9 7q54 -41 116 -80q104 58 145 79l7 -7q-83 -92 -123 -145zM370 664q0 -31 -23.5 -53t-55.5 -22q-25 0 -39.5 13t-14.5 35q0 29 24.5 51.5t55.5 22.5q25 0 39 -12.5t14 -34.5zM587 664q0 -31 -23.5 -53t-55.5 -22q-25 0 -39.5 13 t-14.5 35q0 29 24.5 51.5t55.5 22.5q25 0 39 -12.5t14 -34.5zM459 502q77 7 109 7q13 0 10 -12l-29 -139l-14 -65l-22 -103q-20 -96 -20 -113q0 -16 9 -16q23 0 87 96l8 -5q-22 -64 -64.5 -113t-91.5 -49q-28 0 -45 17t-17 50q0 49 43 217q-54 -134 -116.5 -209t-122.5 -75 q-37 0 -57 21.5t-20 58.5q0 29 9.5 76t28 119.5t22.5 92.5q12 51 12 67q0 15 -9 15q-19 0 -89 -96l-7 4q24 65 67.5 113.5t92.5 48.5q63 0 63 -77q0 -28 -10 -75q-7 -35 -22.5 -94.5t-25.5 -104t-10 -67.5q0 -26 20 -26q35 0 88 84t93 208z" />
<glyph unicode="&#x1db;" horiz-adv-x="671" d="M665 942l-9 -9q-78 23 -127.5 57t-49.5 67q0 47 67 47q5 0 12 -0.5t9 -0.5q34 -73 98 -161zM487 814q0 -31 -24 -53t-56 -22q-25 0 -39 13t-14 35q0 30 24.5 52t55.5 22q24 0 38.5 -12.5t14.5 -34.5zM704 814q0 -31 -24 -53t-56 -22q-25 0 -39 13t-14 35q0 30 24.5 52 t55.5 22q24 0 38.5 -12.5t14.5 -34.5zM616 231q-51 -241 -261 -241q-97 0 -152.5 50t-55.5 139q0 24 7 61l76 355l5 22l-71 20l4 13h270v-13l-56 -11q-23 -6 -27 -31l-77 -362q-8 -37 -8 -64q0 -65 33.5 -99.5t91.5 -34.5q67 0 116 50t70 147l77 364l5 21l-79 20l3 13h198 v-13l-87 -20l-5 -21z" />
<glyph unicode="&#x1dc;" d="M549 782l-9 -10q-78 23 -127.5 57t-49.5 67q0 47 67 47q16 0 21 -1q35 -73 98 -160zM370 664q0 -31 -23.5 -53t-55.5 -22q-25 0 -39.5 13t-14.5 35q0 29 24.5 51.5t55.5 22.5q25 0 39 -12.5t14 -34.5zM587 664q0 -31 -23.5 -53t-55.5 -22q-25 0 -39.5 13t-14.5 35 q0 29 24.5 51.5t55.5 22.5q25 0 39 -12.5t14 -34.5zM459 502q77 7 109 7q13 0 10 -12l-29 -139l-14 -65l-22 -103q-20 -96 -20 -113q0 -16 9 -16q23 0 87 96l8 -5q-22 -64 -64.5 -113t-91.5 -49q-28 0 -45 17t-17 50q0 49 43 217q-54 -134 -116.5 -209t-122.5 -75 q-37 0 -57 21.5t-20 58.5q0 29 9.5 76t28 119.5t22.5 92.5q12 51 12 67q0 15 -9 15q-19 0 -89 -96l-7 4q24 65 67.5 113.5t92.5 48.5q63 0 63 -77q0 -28 -10 -75q-7 -35 -22.5 -94.5t-25.5 -104t-10 -67.5q0 -26 20 -26q35 0 88 84t93 208z" />
<glyph unicode="&#x1e6;" horiz-adv-x="661" d="M567 726l-9 -5h-80q-18 37 -66 152l10 6q51 -39 115 -79q9 5 63.5 35t82.5 44l6 -8q-84 -92 -122 -145zM572 19q-78 -29 -180 -29q-131 0 -209 70t-78 199q0 172 116.5 286.5t289.5 114.5q108 0 174 -33q-5 -40 -24.5 -97t-40.5 -97h-9l-34 187q-29 8 -61 8 q-115 0 -196 -110.5t-81 -260.5q0 -108 48.5 -171.5t124.5 -63.5q23 0 46 5l51 226l5 21l-70 21l5 12h250l-1 -12l-46 -11q-23 -7 -28 -31z" />
<glyph unicode="&#x1e7;" horiz-adv-x="437" d="M374 577l-9 -6h-80q-21 43 -66 152l10 7q58 -44 115 -80q103 58 146 79l6 -7q-86 -96 -122 -145zM432 -61q0 -56 -70.5 -95t-173.5 -39q-90 0 -150 29t-60 74q0 31 30.5 57.5t84.5 41.5l7 -5q-30 -28 -30 -50q2 -53 34.5 -86t92.5 -33q43 0 74.5 20t31.5 50 q0 20 -25.5 39t-56 32t-56 33.5t-25.5 42.5q0 48 127 103q-3 0 -9 -0.5t-8 -0.5q-73 0 -118 37.5t-45 101.5q0 90 66.5 154.5t166.5 64.5q170 0 225 11q4 -10 4 -24q0 -50 -39 -50q-24 0 -109 20q27 -17 44 -46.5t17 -64.5q0 -48 -21.5 -88.5t-52.5 -66.5t-62 -46 t-52.5 -35.5t-21.5 -26.5q0 -12 28 -27.5t62 -29t62 -39.5t28 -58zM204 277q0 -94 51 -94q35 0 62.5 68t27.5 148q0 84 -45 84q-39 0 -67.5 -65t-28.5 -141z" />
<glyph unicode="&#x1ea;" horiz-adv-x="643" d="M438 -70q-59 -126 -135 -126q-25 0 -39 14.5t-14 39.5q0 36 36 72.5t90 63.5q-20 -4 -46 -4q-108 0 -168.5 66t-60.5 177q0 172 104 299.5t250 127.5q107 0 166 -66t59 -180q0 -128 -61 -236.5t-160 -157.5q-55 -31 -88 -64t-33 -59q0 -22 18 -22q26 0 75 60zM235 177 q0 -75 25.5 -115t70.5 -40q56 0 107 75t79.5 180.5t28.5 202.5q0 70 -24 109.5t-70 39.5q-57 0 -108.5 -73.5t-80 -178t-28.5 -200.5z" />
<glyph unicode="&#x1eb;" horiz-adv-x="502" d="M354 -70q-59 -126 -135 -126q-25 0 -39 14.5t-14 39.5q0 65 124 134q-15 -3 -31 -3q-81 0 -128 52.5t-47 140.5q0 133 80.5 230.5t188.5 97.5q81 0 126 -52.5t45 -138.5q0 -103 -47 -185.5t-121 -120.5q-102 -80 -102 -116q0 -22 18 -22q26 0 75 60zM209 150 q0 -128 55 -128q36 0 68 58.5t49 136t17 143.5q0 118 -53 118q-36 0 -68.5 -55t-50 -130.5t-17.5 -142.5z" />
<glyph unicode="&#x1f4;" horiz-adv-x="661" d="M653 838q0 -35 -70 -71.5t-154 -47.5l-6 10q103 91 154 154q76 0 76 -45zM572 19q-78 -29 -180 -29q-131 0 -209 70t-78 199q0 172 116.5 286.5t289.5 114.5q108 0 174 -33q-5 -40 -24.5 -97t-40.5 -97h-9l-34 187q-29 8 -61 8q-115 0 -196 -110.5t-81 -260.5 q0 -108 48.5 -171.5t124.5 -63.5q23 0 46 5l51 226l5 21l-70 21l5 12h250l-1 -12l-46 -11q-23 -7 -28 -31z" />
<glyph unicode="&#x1f5;" horiz-adv-x="437" d="M463 688q0 -35 -69.5 -71.5t-153.5 -48.5l-7 11q92 79 155 154q35 0 55 -12t20 -33zM432 -61q0 -56 -70.5 -95t-173.5 -39q-90 0 -150 29t-60 74q0 31 30.5 57.5t84.5 41.5l7 -5q-30 -28 -30 -50q2 -53 34.5 -86t92.5 -33q43 0 74.5 20t31.5 50q0 20 -25.5 39t-56 32 t-56 33.5t-25.5 42.5q0 48 127 103q-3 0 -9 -0.5t-8 -0.5q-73 0 -118 37.5t-45 101.5q0 90 66.5 154.5t166.5 64.5q170 0 225 11q4 -10 4 -24q0 -50 -39 -50q-24 0 -109 20q27 -17 44 -46.5t17 -64.5q0 -48 -21.5 -88.5t-52.5 -66.5t-62 -46t-52.5 -35.5t-21.5 -26.5 q0 -12 28 -27.5t62 -29t62 -39.5t28 -58zM204 277q0 -94 51 -94q35 0 62.5 68t27.5 148q0 84 -45 84q-39 0 -67.5 -65t-28.5 -141z" />
<glyph unicode="&#x1fa;" horiz-adv-x="691" d="M676 1056q0 -35 -70 -71.5t-154 -47.5l-6 10q103 91 154 154q76 0 76 -45zM605 813q0 -39 -32 -66.5t-77 -27.5q-34 0 -54 17.5t-20 48.5q0 40 32 67t77 27q34 0 54 -17.5t20 -48.5zM473 786q0 -34 31 -34q21 0 35.5 17.5t14.5 42.5q-2 34 -31 34q-21 0 -35.5 -17.5 t-14.5 -42.5zM450 652h64l94 -581q4 -22 11.5 -31.5t25.5 -15.5l35 -11l-3 -13h-279l1 13l81 22l-23 161l-233 -1l-92 -162l76 -20l-3 -13h-189l1 13l43 11q22 6 32.5 15.5t25.5 34.5zM243 228l210 -2l-42 296z" />
<glyph unicode="&#x1fb;" horiz-adv-x="526" d="M558 896q0 -35 -70 -72t-154 -48l-6 11q99 85 154 154q35 0 55.5 -12t20.5 -33zM490 665q0 -40 -32 -67.5t-76 -27.5q-35 0 -55 17.5t-20 48.5q0 39 32 67t77 28q35 0 54.5 -18t19.5 -48zM358 638q2 -34 32 -34q21 0 35 17t14 43q0 15 -8.5 24t-22.5 9q-21 0 -35.5 -17 t-14.5 -42zM70 117q0 93 39 182t115 150t169 61q91 0 157 -32l-24 -81l-56 -254q-11 -49 -11 -68q0 -14 9 -14q20 0 88 96l8 -5q-26 -65 -69 -113.5t-91 -48.5q-64 0 -64 78q0 27 10 75l30 131q-49 -132 -108 -208t-111 -76q-44 0 -67.5 35.5t-23.5 91.5zM412 418l12 49 q-23 14 -50 14q-44 0 -89 -62.5t-71.5 -146.5t-26.5 -151q0 -61 28 -61q33 0 94 111t103 247z" />
<glyph unicode="&#x1fc;" horiz-adv-x="866" d="M839 838q0 -35 -70 -71.5t-153 -47.5l-7 10q97 84 155 154q75 0 75 -45zM207 8l-104 -8l-87 5l27 13q34 7 45 28q4 1 25 32.5t48.5 77.5t52.5 89t46 79.5t22 37.5l153 255l-78 20l4 13h592q-1 -42 -16.5 -99t-34.5 -95h-9l-38 162q-29 1 -86 1h-91l-60 -282l188 8 l-10 -47l-184 8l-53 -250l-5 -24l96 -1q59 0 89 1l108 166h9q1 -24 -2 -60q-6 -69 -30 -138h-473v13l59 13q19 5 24 30l53 250l-198 -1l-168 -284l44 8zM462 619l-154 -281l185 -2l61 283h-92z" />
<glyph unicode="&#x1fd;" horiz-adv-x="692" d="M613 688q0 -35 -69.5 -71.5t-153.5 -48.5l-7 11q92 79 155 154q35 0 55 -12t20 -33zM725 155q-27 -70 -85 -117.5t-124 -47.5q-70 0 -111.5 48t-42.5 130q2 46 10 85q-49 -123 -105 -193t-106 -70q-44 0 -67.5 35.5t-23.5 91.5q0 93 39 182t115 150t169 61q78 0 141 -25 q47 25 96 25q55 0 89 -28t34 -76q0 -83 -72.5 -136t-191.5 -58v-17q0 -63 22 -96.5t63 -33.5q68 0 144 95zM187 121q0 -61 28 -61q33 0 94 111t103 247h-1l13 49q-23 14 -50 14q-44 0 -89 -62.5t-71.5 -146.5t-26.5 -151zM621 480q-42 0 -81.5 -76.5t-48.5 -166.5 q72 10 118 68t46 133q0 42 -34 42z" />
<glyph unicode="&#x1fe;" horiz-adv-x="643" d="M606 838q0 -35 -70 -71.5t-153 -47.5l-7 10q97 84 155 154q75 0 75 -45zM680 414q0 -170 -102 -297t-248 -127q-108 0 -169 66l-62 -66l-26 26l66 70q-38 59 -38 147q0 172 104 299.5t250 127.5q104 0 163 -64l60 64l27 -25l-64 -69q39 -62 39 -152zM452 628 q-55 0 -106 -70.5t-80 -171.5t-31 -197l309 328q-6 54 -29.5 83t-62.5 28zM331 21q54 0 104 72t78.5 173.5t31.5 198.5l-308 -328q12 -114 94 -116z" />
<glyph unicode="&#x1ff;" horiz-adv-x="502" d="M507 688q0 -35 -69.5 -71.5t-153.5 -48.5l-7 11q92 79 155 154q35 0 55 -12t20 -33zM524 319q0 -136 -79 -233t-186 -97q-90 0 -137 64l-53 -50l-21 25l57 53q-21 43 -21 101q0 133 80.5 230.5t188.5 97.5q89 0 135 -64l54 52l21 -25l-58 -56q19 -44 19 -98zM345 478 q-49 0 -88.5 -95t-46.5 -201l188 179q0 117 -53 117zM264 22q47 0 85 93t47 199l-187 -178q3 -114 55 -114z" />
<glyph unicode="&#x218;" horiz-adv-x="506" d="M152 468q0 89 74.5 140.5t182.5 51.5q113 0 162 -38q11 -9 11 -22q0 -25 -24 -75t-45 -75l-9 1l-19 167q-26 11 -69 11q-59 0 -100.5 -32.5t-41.5 -85.5q0 -38 23.5 -70.5t57 -58.5t67.5 -53.5t57.5 -66.5t23.5 -86q0 -87 -72.5 -136.5t-184.5 -49.5q-128 0 -174 37 q-15 12 -15 30q0 27 21.5 75t42.5 77l9 -1l24 -168q35 -19 88 -19q61 0 100.5 33t39.5 85q0 33 -17 62t-42.5 49t-55.5 44.5t-55.5 46.5t-42.5 55.5t-17 71.5zM298 -134q0 -44 -38 -97.5t-94 -88.5l-8 9q39 53 57 112q-39 8 -39 47q0 30 21.5 51.5t49.5 21.5q23 0 37 -15 t14 -40z" />
<glyph unicode="&#x219;" horiz-adv-x="418" d="M419 131q0 -63 -52 -102t-147 -39q-70 0 -118 27t-48 71q0 29 26 50.5t73 30.5l7 -4q-8 -45 -4 -75q4 -32 23.5 -50.5t49.5 -18.5q31 0 51.5 20t20.5 52q0 27 -19 54t-46.5 51t-55 48.5t-46.5 57t-19 66.5q0 62 50.5 101t134.5 39q70 0 115 -27t45 -70q0 -29 -24 -50 t-64 -29l-8 3q4 50 1 73q-4 32 -21 50.5t-44 18.5q-30 0 -48.5 -19.5t-18.5 -50.5q0 -33 29 -68t64 -62t64 -67t29 -81zM257 -134q0 -44 -38 -97.5t-95 -88.5l-7 9q38 51 56 112q-39 8 -39 47q0 30 22 51.5t50 21.5q23 0 37 -15t14 -40z" />
<glyph unicode="&#x21a;" horiz-adv-x="587" d="M430 0h-270v13l56 12q21 5 27 31l119 563h-61q-43 0 -64 -1l-107 -183h-8q0 33 2 52q6 83 34 163h547q-3 -47 -19.5 -111t-36.5 -104h-9l-29 183q-21 1 -63 1h-61l-119 -563l-5 -22l70 -21zM324 -134q0 -44 -38 -97.5t-95 -88.5l-7 9q38 51 56 112q-39 8 -39 47 q0 30 22 51.5t50 21.5q23 0 37 -15t14 -40z" />
<glyph unicode="&#x21b;" horiz-adv-x="332" d="M359 152q-29 -66 -76.5 -114t-104.5 -48q-38 0 -59.5 22.5t-21.5 63.5q0 29 10 74l63 298h-77l1 8l85 29l138 131l8 -2l-29 -138h116l-6 -28h-116l-63 -298q-11 -53 -11 -66q0 -23 21 -23q35 0 114 96zM207 -134q0 -44 -38 -97.5t-95 -88.5l-7 9q38 51 56 112 q-39 8 -39 47q0 30 22 51.5t50 21.5q23 0 37 -15t14 -40z" />
<glyph unicode="&#x232;" horiz-adv-x="594" d="M326 768l15 65h288l-15 -65h-288zM434 0h-270v13l56 12q13 3 19 10t8 21l24 114q12 75 10 168.5t-23 172.5t-50 79q-32 0 -93 -96l-10 4q22 63 66 112.5t95 49.5q47 0 79.5 -55t45.5 -142.5t7 -192.5q67 173 136 281.5t117 108.5q19 0 31.5 -12.5t19 -37t9.5 -47t5 -54.5 l-10 -5q-9 32 -14 47t-15 28t-23 13q-32 0 -89.5 -79t-107.5 -186t-67 -185l-18 -86l-5 -22l71 -21z" />
<glyph unicode="&#x233;" horiz-adv-x="481" d="M212 618l14 65h288l-14 -65h-288zM298 348q0 -70 -18 -160t-51 -170q91 87 138 200.5t47 217.5q0 31 -6 63q24 11 54 11q73 0 73 -82q0 -114 -85 -238.5t-235 -202.5q-85 -182 -206 -182q-41 0 -67 17.5t-26 42.5q0 18 15 32t37 18q21 -66 52 -66q41 0 77.5 86.5 t55.5 199.5t19 207q0 98 -26 98q-24 0 -82 -96l-8 4q21 66 62 114t92 48q88 0 88 -162z" />
<glyph unicode="&#x237;" horiz-adv-x="270" d="M222 34q-23 -111 -84 -170t-140 -59q-47 0 -77 19.5t-30 48.5q0 36 49 45q9 -19 14.5 -28.5t18.5 -22t28 -12.5q36 0 57.5 38t40.5 128l71 337q12 51 12 67q0 15 -9 15q-19 0 -89 -96l-7 4q24 65 67.5 113.5t92.5 48.5q63 0 63 -77q0 -28 -10 -75z" />
<glyph unicode="&#x259;" horiz-adv-x="450" d="M466 333q0 -131 -79.5 -237t-187.5 -106q-54 0 -88.5 27.5t-34.5 75.5q0 82 74.5 133.5t193.5 53.5q7 54 7 90q0 110 -49 110q-35 0 -57.5 -49t-22.5 -97q-35 -12 -50 -12q-51 0 -51 37q0 54 56 102.5t136 48.5q73 0 113 -46t40 -131zM174 67q0 -47 36 -47q38 0 74.5 70 t54.5 166q-72 -10 -118.5 -65t-46.5 -124z" />
<glyph unicode="&#x272;" horiz-adv-x="565" d="M222 34q-23 -111 -84 -170t-140 -59q-47 0 -77 19.5t-30 48.5q0 36 49 45q9 -19 14.5 -28.5t18.5 -22t28 -12.5q36 0 57.5 38t40.5 128l40 186l22 104q20 94 20 112q0 17 -10 17q-21 0 -87 -96l-8 4q23 65 65 113.5t91 48.5q28 0 45 -16.5t17 -49.5q0 -50 -43 -218 q54 134 117 209t123 75q36 0 56.5 -21.5t20.5 -58.5q0 -28 -9 -73t-29 -124t-23 -90q-11 -49 -11 -68q0 -14 9 -14q20 0 88 96l8 -5q-26 -65 -69 -113.5t-91 -48.5q-64 0 -64 78q0 27 10 75q7 34 23 94t26 104.5t10 66.5q0 27 -21 27q-35 0 -88 -85t-92 -207z" />
<glyph unicode="&#x2c6;" horiz-adv-x="448" d="M365 577l-10 -6q-65 48 -115 79q-104 -58 -145 -79l-7 8q81 89 123 145l9 5h79q18 -37 66 -152z" />
<glyph unicode="&#x2c7;" horiz-adv-x="402" d="M238 577l-9 -6h-80q-21 43 -66 152l10 7q58 -44 115 -80q103 58 146 79l6 -7q-86 -96 -122 -145z" />
<glyph unicode="&#x2d8;" horiz-adv-x="411" d="M316 723l3 1l11 -4q-22 -70 -62 -106.5t-93 -36.5q-51 0 -75 37t-17 107l15 3q18 -69 94 -69q74 0 124 68z" />
<glyph unicode="&#x2d9;" horiz-adv-x="316" d="M233 665q0 -33 -26 -56t-62 -23q-29 0 -45.5 13.5t-16.5 37.5q0 32 27 55t62 23q28 0 44.5 -13.5t16.5 -36.5z" />
<glyph unicode="&#x2da;" horiz-adv-x="464" d="M266 665q0 -40 -32 -67.5t-76 -27.5q-35 0 -55 17.5t-20 48.5q0 39 32 67t77 28q35 0 54.5 -18t19.5 -48zM134 638q2 -34 32 -34q21 0 35 17t14 43q0 15 -8.5 24t-22.5 9q-21 0 -35.5 -17t-14.5 -42z" />
<glyph unicode="&#x2db;" horiz-adv-x="378" d="M295 -70q-59 -126 -133 -126q-26 0 -40.5 13.5t-14.5 37.5q0 45 39.5 88.5t98.5 65.5l19 -9q-28 -15 -48.5 -46t-20.5 -58q0 -21 18 -21q24 0 75 60z" />
<glyph unicode="&#x2dc;" horiz-adv-x="528" d="M366 659q36 29 65 56l9 -4q-13 -55 -42 -88.5t-69 -33.5q-24 0 -55 10t-64 24t-43 17q-36 -29 -65 -56l-9 4q13 56 42 89t69 33q32 0 93.5 -24.5t68.5 -26.5z" />
<glyph unicode="&#x2dd;" horiz-adv-x="557" d="M290 688q0 -34 -63 -71.5t-137 -48.5l-7 11q89 78 150 154q26 0 41.5 -12t15.5 -33zM474 688q0 -34 -63 -71.5t-137 -48.5l-7 11q89 78 150 154q27 0 42 -12t15 -33z" />
<glyph unicode="&#x326;" horiz-adv-x="306" d="M225 -134q0 -44 -38 -97.5t-94 -88.5l-8 9q39 53 57 112q-39 8 -39 47q0 30 21.5 51.5t49.5 21.5q23 0 37 -15t14 -40z" />
<glyph unicode="&#x1e0c;" horiz-adv-x="680" d="M303 0h-263l-1 13l59 13q21 5 24 30l115 539l5 22l-70 20l3 13h254q137 0 212 -62.5t75 -180.5q0 -170 -112.5 -288.5t-300.5 -118.5zM417 619h-50l-5 -24l-115 -539l-5 -25h62q89 0 157 62t100 149t32 179q0 198 -176 198zM392 -129q0 -33 -26 -56t-62 -23 q-29 0 -45.5 13.5t-16.5 37.5q0 32 27 55t62 23q28 0 44.5 -13.5t16.5 -36.5z" />
<glyph unicode="&#x1e0d;" horiz-adv-x="526" d="M350 143l26 119q-50 -127 -107 -199.5t-108 -72.5q-44 0 -67.5 36t-23.5 91q0 92 39 181.5t115 150.5t169 61q13 0 37 -2l13 57l15 74l-77 22v9q91 18 202 25l6 -7l-26 -123l-93 -422q-12 -53 -12 -68q0 -14 9 -14q19 0 89 96l7 -5q-25 -65 -68 -113.5t-92 -48.5 q-63 0 -63 78q0 27 10 75zM215 60q33 0 93.5 111t102.5 248l11 48q-22 14 -48 14q-44 0 -89 -62.5t-71.5 -146.5t-26.5 -151q0 -61 28 -61zM298 -129q0 -33 -26 -56t-62 -23q-29 0 -45.5 13.5t-16.5 37.5q0 32 27 55t62 23q28 0 44.5 -13.5t16.5 -36.5z" />
<glyph unicode="&#x1e24;" horiz-adv-x="732" d="M309 0h-270v13l56 12q13 3 19 10t8 21l115 539l5 22l-70 20l3 13h270v-13l-56 -11q-21 -6 -27 -31l-53 -251h260l54 251l5 22l-71 20l4 13h270v-13l-56 -11q-23 -6 -27 -31l-115 -539l-5 -22l71 -21l-4 -13h-270v13l56 12q13 3 19 10t8 21l54 254h-261l-54 -254l-5 -22 l71 -21zM407 -129q0 -33 -26.5 -56t-62.5 -23q-28 0 -44.5 13.5t-16.5 37.5q0 32 27 55t62 23q28 0 44.5 -13.5t16.5 -36.5z" />
<glyph unicode="&#x1e25;" horiz-adv-x="541" d="M191 -2q-77 -7 -109 -7q-13 0 -10 12l30 140l90 422l16 74l-78 22v9q90 18 203 25l6 -7l-27 -123q-39 -178 -78 -326q53 127 114.5 199t120.5 72q36 0 56.5 -21.5t20.5 -58.5q0 -28 -9 -73t-29 -124t-23 -90q-11 -49 -11 -68q0 -14 9 -14q20 0 88 96l8 -5 q-26 -65 -69 -113.5t-91 -48.5q-64 0 -64 78q0 27 10 75q7 34 23 94t26 104.5t10 66.5q0 27 -21 27q-35 0 -88 -84.5t-93 -207.5zM326 -129q0 -33 -26.5 -56t-62.5 -23q-28 0 -44.5 13.5t-16.5 37.5q0 32 27 55t62 23q28 0 44.5 -13.5t16.5 -36.5z" />
<glyph unicode="&#x1e44;" horiz-adv-x="686" d="M587 815q0 -33 -26 -56t-62 -23q-28 0 -45 14t-17 37q0 33 27 55.5t62 22.5q28 0 44.5 -13.5t16.5 -36.5zM238 1h-202v13l64 13q14 4 19.5 10t7.5 19l120 562l-78 20l3 12h168l223 -516l99 461l5 22l-84 20l4 13h201v-13l-63 -13q-14 -4 -19.5 -9.5t-8.5 -19.5l-126 -595 h-86l-224 520l-98 -464l-5 -22l83 -20z" />
<glyph unicode="&#x1e45;" horiz-adv-x="556" d="M479 665q0 -33 -26 -56t-62 -23q-29 0 -45.5 13.5t-16.5 37.5q0 32 27 55t62 23q28 0 44.5 -13.5t16.5 -36.5zM207 -2q-77 -7 -109 -7q-13 0 -10 12l29 140l14 64l22 104q20 94 20 112q0 17 -9 17q-23 0 -87 -96l-8 4q22 64 64.5 113t91.5 49q28 0 45 -16.5t17 -49.5 q0 -50 -43 -218q53 134 116 209t123 75q37 0 57 -21.5t20 -58.5q0 -28 -9.5 -75.5t-27.5 -119.5l-23 -92q-12 -53 -12 -68q0 -14 9 -14q19 0 89 96l7 -5q-25 -65 -68 -113.5t-92 -48.5q-63 0 -63 78q0 27 10 75q7 35 22.5 94.5t25.5 104t10 66.5q0 27 -20 27 q-35 0 -88 -84.5t-93 -207.5z" />
<glyph unicode="&#x1e5a;" horiz-adv-x="673" d="M310 0h-270v13l56 12q21 5 27 31l114 539l5 22l-70 20l3 13h259q111 0 171.5 -40.5t60.5 -117.5q0 -66 -44 -115.5t-113 -76.5l53 -146q21 -68 34.5 -93.5t37.5 -35.5l38 -12l-3 -13l-128 -3q-37 0 -55.5 13.5t-27.5 44.5l-69 218h-95l-46 -217l-5 -22l70 -21zM418 619 h-51l-5 -24l-62 -291h58q82 0 132 58t50 137q0 58 -32.5 89t-89.5 31zM433 -129q0 -33 -26.5 -56t-62.5 -23q-28 0 -44.5 13.5t-16.5 37.5q0 32 27 55t62 23q28 0 44.5 -13.5t16.5 -36.5z" />
<glyph unicode="&#x1e5b;" horiz-adv-x="431" d="M207 -2q-77 -7 -109 -7q-13 0 -10 12l29 140l14 64l22 104q20 94 20 112q0 17 -9 17q-23 0 -87 -96l-8 4q22 64 64.5 113t91.5 49q28 0 45 -16.5t17 -49.5q0 -44 -42 -214q49 130 104 205t107 75q23 0 35.5 -15t12.5 -38q0 -48 -38 -93q-35 25 -69 25q-43 0 -84.5 -66.5 t-75.5 -179.5zM198 -129q0 -33 -26.5 -56t-62.5 -23q-28 0 -44.5 13.5t-16.5 37.5q0 32 27 55t62 23q28 0 44.5 -13.5t16.5 -36.5z" />
<glyph unicode="&#x1e62;" horiz-adv-x="506" d="M152 468q0 89 74.5 140.5t182.5 51.5q113 0 162 -38q11 -9 11 -22q0 -25 -24 -75t-45 -75l-9 1l-19 167q-26 11 -69 11q-59 0 -100.5 -32.5t-41.5 -85.5q0 -38 23.5 -70.5t57 -58.5t67.5 -53.5t57.5 -66.5t23.5 -86q0 -87 -72.5 -136.5t-184.5 -49.5q-128 0 -174 37 q-15 12 -15 30q0 27 21.5 75t42.5 77l9 -1l24 -168q35 -19 88 -19q61 0 100.5 33t39.5 85q0 33 -17 62t-42.5 49t-55.5 44.5t-55.5 46.5t-42.5 55.5t-17 71.5zM314 -129q0 -33 -26 -56t-62 -23q-29 0 -45.5 13.5t-16.5 37.5q0 32 27 55t62 23q28 0 44.5 -13.5t16.5 -36.5z " />
<glyph unicode="&#x1e63;" horiz-adv-x="418" d="M419 131q0 -63 -52 -102t-147 -39q-70 0 -118 27t-48 71q0 29 26 50.5t73 30.5l7 -4q-8 -45 -4 -75q4 -32 23.5 -50.5t49.5 -18.5q31 0 51.5 20t20.5 52q0 27 -19 54t-46.5 51t-55 48.5t-46.5 57t-19 66.5q0 62 50.5 101t134.5 39q70 0 115 -27t45 -70q0 -29 -24 -50 t-64 -29l-8 3q4 50 1 73q-4 32 -21 50.5t-44 18.5q-30 0 -48.5 -19.5t-18.5 -50.5q0 -33 29 -68t64 -62t64 -67t29 -81zM273 -129q0 -33 -26.5 -56t-62.5 -23q-28 0 -44.5 13.5t-16.5 37.5q0 32 27 55t62 23q28 0 44.5 -13.5t16.5 -36.5z" />
<glyph unicode="&#x1e6c;" horiz-adv-x="587" d="M430 0h-270v13l56 12q21 5 27 31l119 563h-61q-43 0 -64 -1l-107 -183h-8q0 33 2 52q6 83 34 163h547q-3 -47 -19.5 -111t-36.5 -104h-9l-29 183q-21 1 -63 1h-61l-119 -563l-5 -22l70 -21zM340 -129q0 -33 -26.5 -56t-62.5 -23q-28 0 -44.5 13.5t-16.5 37.5q0 32 27 55 t62 23q28 0 44.5 -13.5t16.5 -36.5z" />
<glyph unicode="&#x1e6d;" horiz-adv-x="332" d="M359 152q-29 -66 -76.5 -114t-104.5 -48q-38 0 -59.5 22.5t-21.5 63.5q0 29 10 74l63 298h-77l1 8l85 29l138 131l8 -2l-29 -138h116l-6 -28h-116l-63 -298q-11 -53 -11 -66q0 -23 21 -23q35 0 114 96zM223 -129q0 -33 -26.5 -56t-62.5 -23q-28 0 -44.5 13.5t-16.5 37.5 q0 32 27 55t62 23q28 0 44.5 -13.5t16.5 -36.5z" />
<glyph unicode="&#x1e80;" horiz-adv-x="1009" d="M774 724l-9 -9q-78 23 -127.5 57t-49.5 67q0 47 67 47q5 0 12 -0.5t9 -0.5q34 -73 98 -161zM1015 533l-297 -535h-64l-52 441l-238 -441h-64l-82 581q-6 38 -34 47l-41 11l3 13h270v-13l-75 -21l59 -483l195 367l-9 79q-4 37 -33 47l-40 11l3 13h275l-1 -13l-80 -21 l48 -481l254 481l-78 21l4 13h200v-13q-28 -7 -54 -20q-20 -10 -34 -28t-35 -56z" />
<glyph unicode="&#x1e81;" horiz-adv-x="718" d="M580 574l-9 -10q-77 23 -127 57.5t-50 66.5q0 23 18.5 35t48.5 12q16 0 22 -1q32 -70 97 -160zM452 510q79 0 79 -105q0 -137 -33 -354q72 96 114.5 202t42.5 187q0 33 -7 59q24 11 53 11q35 0 55 -19.5t20 -57.5q0 -89 -82 -206.5t-224 -231.5l-72 4q9 179 11 274 q-54 -134 -190 -278l-72 4q13 199 13 286q0 95 -5.5 125t-20.5 30q-25 0 -86 -96l-8 4q22 66 65 114t97 48q80 0 80 -133q0 -123 -33 -317q72 96 115.5 198t43.5 192q0 25 -6 49q20 11 50 11z" />
<glyph unicode="&#x1e82;" horiz-adv-x="1009" d="M796 838q0 -35 -70 -71.5t-154 -47.5l-6 10q103 91 154 154q76 0 76 -45zM1015 533l-297 -535h-64l-52 441l-238 -441h-64l-82 581q-6 38 -34 47l-41 11l3 13h270v-13l-75 -21l59 -483l195 367l-9 79q-4 37 -33 47l-40 11l3 13h275l-1 -13l-80 -21l48 -481l254 481 l-78 21l4 13h200v-13q-28 -7 -54 -20q-20 -10 -34 -28t-35 -56z" />
<glyph unicode="&#x1e83;" horiz-adv-x="718" d="M604 688q0 -35 -69.5 -71.5t-153.5 -48.5l-7 11q92 79 155 154q35 0 55 -12t20 -33zM452 510q79 0 79 -105q0 -137 -33 -354q72 96 114.5 202t42.5 187q0 33 -7 59q24 11 53 11q35 0 55 -19.5t20 -57.5q0 -89 -82 -206.5t-224 -231.5l-72 4q9 179 11 274 q-54 -134 -190 -278l-72 4q13 199 13 286q0 95 -5.5 125t-20.5 30q-25 0 -86 -96l-8 4q22 66 65 114t97 48q80 0 80 -133q0 -123 -33 -317q72 96 115.5 198t43.5 192q0 25 -6 49q20 11 50 11z" />
<glyph unicode="&#x1e84;" horiz-adv-x="1009" d="M639 814q0 -31 -24 -53t-56 -22q-25 0 -39 13t-14 35q0 30 24.5 52t55.5 22q24 0 38.5 -12.5t14.5 -34.5zM856 814q0 -31 -24 -53t-56 -22q-25 0 -39 13t-14 35q0 30 24.5 52t55.5 22q24 0 38.5 -12.5t14.5 -34.5zM1015 533l-297 -535h-64l-52 441l-238 -441h-64l-82 581 q-6 38 -34 47l-41 11l3 13h270v-13l-75 -21l59 -483l195 367l-9 79q-4 37 -33 47l-40 11l3 13h275l-1 -13l-80 -21l48 -481l254 481l-78 21l4 13h200v-13q-28 -7 -54 -20q-20 -10 -34 -28t-35 -56z" />
<glyph unicode="&#x1e85;" horiz-adv-x="718" d="M446 664q0 -31 -23.5 -53t-55.5 -22q-25 0 -39.5 13t-14.5 35q0 29 24.5 51.5t55.5 22.5q25 0 39 -12.5t14 -34.5zM663 664q0 -31 -23.5 -53t-55.5 -22q-25 0 -39.5 13t-14.5 35q0 29 24.5 51.5t55.5 22.5q25 0 39 -12.5t14 -34.5zM452 510q79 0 79 -105q0 -137 -33 -354 q72 96 114.5 202t42.5 187q0 33 -7 59q24 11 53 11q35 0 55 -19.5t20 -57.5q0 -89 -82 -206.5t-224 -231.5l-72 4q9 179 11 274q-54 -134 -190 -278l-72 4q13 199 13 286q0 95 -5.5 125t-20.5 30q-25 0 -86 -96l-8 4q22 66 65 114t97 48q80 0 80 -133q0 -123 -33 -317 q72 96 115.5 198t43.5 192q0 25 -6 49q20 11 50 11z" />
<glyph unicode="&#x1e92;" horiz-adv-x="582" d="M563 143q-5 -75 -30 -143h-466l-5 51l456 568h-236l-116 -188h-9q0 34 7 79q6 75 30 140h459l5 -48l-454 -571h240l117 189h9q0 -34 -7 -77zM345 -129q0 -33 -26.5 -56t-62.5 -23q-28 0 -44.5 13.5t-16.5 37.5q0 32 27 55t62 23q28 0 44.5 -13.5t16.5 -36.5z" />
<glyph unicode="&#x1e93;" horiz-adv-x="413" d="M141 25q-56 0 -104 -35l-14 16q182 204 290 346q-85 40 -139 40q-26 0 -43 -18.5t-39 -64.5l-9 4q21 106 46 150.5t74 44.5q54 0 160 -89q6 9 65 91q23 -1 36.5 -12t13.5 -28q0 -27 -42 -60q-134 -144 -293 -312q34 17 66 17q27 0 77.5 -10t64.5 -10q18 0 36.5 21.5 t44.5 68.5l9 -5q-9 -32 -14.5 -50t-14 -43.5t-16.5 -40t-18.5 -29t-23 -21t-27.5 -6.5q-23 0 -87 17.5t-99 17.5zM244 -129q0 -33 -26.5 -56t-62.5 -23q-28 0 -44.5 13.5t-16.5 37.5q0 32 27 55t62 23q28 0 44.5 -13.5t16.5 -36.5z" />
<glyph unicode="&#x1e9e;" horiz-adv-x="673" d="M689 168q0 -80 -64 -129t-169 -49q-57 0 -98.5 15.5t-41.5 48.5q0 26 15.5 71.5t32.5 70.5h12q-2 -75 3 -103q5 -38 22.5 -55t56.5 -17q47 0 74.5 33t27.5 80q0 60 -37.5 106.5t-110.5 98.5l1 20l187 170q-27 100 -106 100q-65 0 -110 -53t-66 -149l-89 -415l-13 -12 h-185v13l56 12q21 5 27 31l72 339q25 121 108 193t207 72q63 0 110.5 -24t68.5 -65v-9l-174 -155q43 -31 69.5 -53t56 -53t43.5 -64t14 -69z" />
<glyph unicode="&#x1ea0;" horiz-adv-x="691" d="M450 652h64l94 -581q4 -22 11.5 -31.5t25.5 -15.5l35 -11l-3 -13h-279l1 13l81 22l-23 161l-233 -1l-92 -162l76 -20l-3 -13h-189l1 13l43 11q22 6 32.5 15.5t25.5 34.5zM243 228l210 -2l-42 296zM352 -129q0 -33 -26.5 -56t-62.5 -23q-28 0 -44.5 13.5t-16.5 37.5 q0 32 27 55t62 23q28 0 44.5 -13.5t16.5 -36.5z" />
<glyph unicode="&#x1ea1;" horiz-adv-x="526" d="M70 117q0 93 39 182t115 150t169 61q91 0 157 -32l-24 -81l-56 -254q-11 -49 -11 -68q0 -14 9 -14q20 0 88 96l8 -5q-26 -65 -69 -113.5t-91 -48.5q-64 0 -64 78q0 27 10 75l30 131q-49 -132 -108 -208t-111 -76q-44 0 -67.5 35.5t-23.5 91.5zM412 418l12 49 q-23 14 -50 14q-44 0 -89 -62.5t-71.5 -146.5t-26.5 -151q0 -61 28 -61q33 0 94 111t103 247zM302 -129q0 -33 -26 -56t-62 -23q-29 0 -45.5 13.5t-16.5 37.5q0 32 27 55t62 23q28 0 44.5 -13.5t16.5 -36.5z" />
<glyph unicode="&#x1eb8;" horiz-adv-x="555" d="M513 0h-473v13l59 13q19 5 24 30l114 539l5 22l-70 20l3 13h466q-1 -42 -16.5 -99t-34.5 -95h-8l-39 162q-28 1 -86 1h-90l-5 -24l-54 -252l189 8l-10 -48l-185 9l-54 -256l-5 -24l96 -1q59 0 89 1l108 166h9q1 -24 -2 -60q-6 -69 -30 -138zM350 -129q0 -33 -26 -56 t-62 -23q-29 0 -45.5 13.5t-16.5 37.5q0 32 27 55t62 23q28 0 44.5 -13.5t16.5 -36.5z" />
<glyph unicode="&#x1eb9;" horiz-adv-x="425" d="M443 155q-27 -70 -85 -117.5t-124 -47.5q-70 0 -111.5 48t-41.5 130q0 132 79.5 237t187.5 105q55 0 89 -28t34 -76q0 -83 -72.5 -136t-191.5 -58v-17q0 -63 22 -96.5t63 -33.5q68 0 144 95zM339 480q-42 0 -81.5 -76.5t-48.5 -166.5q72 10 118 68t46 133q0 42 -34 42z M285 -129q0 -33 -26.5 -56t-62.5 -23q-28 0 -44.5 13.5t-16.5 37.5q0 32 27 55t62 23q28 0 44.5 -13.5t16.5 -36.5z" />
<glyph unicode="&#x1ebc;" horiz-adv-x="555" d="M569 809q36 29 65 56l9 -4q-13 -55 -42 -88.5t-69 -33.5q-24 0 -55 10t-64 24t-43 17q-36 -29 -65 -56l-9 4q13 56 42 89t69 33q32 0 93.5 -24.5t68.5 -26.5zM513 0h-473v13l59 13q19 5 24 30l114 539l5 22l-70 20l3 13h466q-1 -42 -16.5 -99t-34.5 -95h-8l-39 162 q-28 1 -86 1h-90l-5 -24l-54 -252l189 8l-10 -48l-185 9l-54 -256l-5 -24l96 -1q59 0 89 1l108 166h9q1 -24 -2 -60q-6 -69 -30 -138z" />
<glyph unicode="&#x1ebd;" horiz-adv-x="425" d="M471 659q36 29 65 56l9 -4q-13 -55 -42 -88.5t-69 -33.5q-24 0 -55 10t-64 24t-43 17q-36 -29 -65 -56l-9 4q13 56 42 89t69 33q32 0 93.5 -24.5t68.5 -26.5zM443 155q-27 -70 -85 -117.5t-124 -47.5q-70 0 -111.5 48t-41.5 130q0 132 79.5 237t187.5 105q55 0 89 -28 t34 -76q0 -83 -72.5 -136t-191.5 -58v-17q0 -63 22 -96.5t63 -33.5q68 0 144 95zM339 480q-42 0 -81.5 -76.5t-48.5 -166.5q72 10 118 68t46 133q0 42 -34 42z" />
<glyph unicode="&#x1eca;" horiz-adv-x="346" d="M310 0h-270v13l56 12q21 5 27 31l114 539l5 22l-70 20l3 13h270v-13l-56 -11q-21 -6 -27 -31l-114 -539l-5 -22l70 -21zM217 -129q0 -33 -26.5 -56t-62.5 -23q-28 0 -44.5 13.5t-16.5 37.5q0 32 27 55t62 23q28 0 44.5 -13.5t16.5 -36.5z" />
<glyph unicode="&#x1ecb;" horiz-adv-x="290" d="M349 665q0 -33 -26 -56t-62 -23q-29 0 -45.5 13.5t-16.5 37.5q0 32 27 55t62 23q28 0 44.5 -13.5t16.5 -36.5zM114 143q8 37 27 112.5t25 102.5q12 51 12 67q0 15 -9 15q-19 0 -89 -96l-7 4q24 65 67.5 113.5t92.5 48.5q63 0 63 -77q0 -28 -10 -75l-52 -215 q-11 -49 -11 -68q0 -14 9 -14q20 0 88 96l8 -5q-26 -65 -69 -113.5t-91 -48.5q-64 0 -64 78q0 27 10 75zM227 -129q0 -33 -26 -56t-62 -23q-29 0 -45.5 13.5t-16.5 37.5q0 32 27 55t62 23q28 0 44.5 -13.5t16.5 -36.5z" />
<glyph unicode="&#x1ecc;" horiz-adv-x="643" d="M680 414q0 -170 -102 -297t-248 -127q-108 0 -168.5 66t-60.5 177q0 172 104 299.5t250 127.5q107 0 166 -66t59 -180zM235 177q0 -75 25.5 -115t70.5 -40q56 0 107 75t79.5 180.5t28.5 202.5q0 70 -24 109.5t-70 39.5q-57 0 -108.5 -73.5t-80 -178t-28.5 -200.5z M365 -129q0 -33 -26 -56t-62 -23q-29 0 -45.5 13.5t-16.5 37.5q0 32 27 55t62 23q28 0 44.5 -13.5t16.5 -36.5z" />
<glyph unicode="&#x1ecd;" horiz-adv-x="502" d="M524 319q0 -136 -79 -233t-186 -97q-81 0 -128 52.5t-47 140.5q0 133 80.5 230.5t188.5 97.5q81 0 126 -52.5t45 -138.5zM209 150q0 -128 55 -128q36 0 68 58.5t49 136t17 143.5q0 118 -53 118q-36 0 -68.5 -55t-50 -130.5t-17.5 -142.5zM300 -129q0 -33 -26 -56t-62 -23 q-29 0 -45.5 13.5t-16.5 37.5q0 32 27 55t62 23q28 0 44.5 -13.5t16.5 -36.5z" />
<glyph unicode="&#x1ee4;" horiz-adv-x="670" d="M616 231q-51 -241 -261 -241q-97 0 -152.5 50t-55.5 139q0 24 7 61l76 355l5 22l-71 20l4 13h270v-13l-56 -11q-23 -6 -27 -31l-77 -362q-8 -37 -8 -64q0 -65 33.5 -99.5t91.5 -34.5q67 0 116 50t70 147l77 364l5 21l-79 20l3 13h198v-13l-87 -20l-5 -21zM396 -129 q0 -33 -26.5 -56t-62.5 -23q-28 0 -44.5 13.5t-16.5 37.5q0 32 27 55t62 23q28 0 44.5 -13.5t16.5 -36.5z" />
<glyph unicode="&#x1ee5;" d="M459 502q77 7 109 7q13 0 10 -12l-29 -139l-14 -65l-22 -103q-20 -96 -20 -113q0 -16 9 -16q23 0 87 96l8 -5q-22 -64 -64.5 -113t-91.5 -49q-28 0 -45 17t-17 50q0 49 43 217q-54 -134 -116.5 -209t-122.5 -75q-37 0 -57 21.5t-20 58.5q0 29 9.5 76t28 119.5t22.5 92.5 q12 51 12 67q0 15 -9 15q-19 0 -89 -96l-7 4q24 65 67.5 113.5t92.5 48.5q63 0 63 -77q0 -28 -10 -75q-7 -35 -22.5 -94.5t-25.5 -104t-10 -67.5q0 -26 20 -26q35 0 88 84t93 208zM344 -129q0 -33 -26 -56t-62 -23q-29 0 -45.5 13.5t-16.5 37.5q0 32 27 55t62 23 q28 0 44.5 -13.5t16.5 -36.5z" />
<glyph unicode="&#x1ef2;" horiz-adv-x="594" d="M571 724l-9 -9q-78 23 -127.5 57t-49.5 67q0 47 67 47q5 0 12 -0.5t9 -0.5q34 -73 98 -161zM434 0h-270v13l56 12q13 3 19 10t8 21l24 114q12 75 10 168.5t-23 172.5t-50 79q-32 0 -93 -96l-10 4q22 63 66 112.5t95 49.5q47 0 79.5 -55t45.5 -142.5t7 -192.5 q67 173 136 281.5t117 108.5q19 0 31.5 -12.5t19 -37t9.5 -47t5 -54.5l-10 -5q-9 32 -14 47t-15 28t-23 13q-32 0 -89.5 -79t-107.5 -186t-67 -185l-18 -86l-5 -22l71 -21z" />
<glyph unicode="&#x1ef3;" horiz-adv-x="481" d="M454 574l-9 -10q-77 23 -127 57.5t-50 66.5q0 23 18.5 35t48.5 12q16 0 22 -1q32 -70 97 -160zM298 348q0 -70 -18 -160t-51 -170q91 87 138 200.5t47 217.5q0 31 -6 63q24 11 54 11q73 0 73 -82q0 -114 -85 -238.5t-235 -202.5q-85 -182 -206 -182q-41 0 -67 17.5 t-26 42.5q0 18 15 32t37 18q21 -66 52 -66q41 0 77.5 86.5t55.5 199.5t19 207q0 98 -26 98q-24 0 -82 -96l-8 4q21 66 62 114t92 48q88 0 88 -162z" />
<glyph unicode="&#x1ef8;" horiz-adv-x="594" d="M573 809q36 29 65 56l9 -4q-13 -55 -42 -88.5t-69 -33.5q-24 0 -55 10t-64 24t-43 17q-36 -29 -65 -56l-9 4q13 56 42 89t69 33q32 0 93.5 -24.5t68.5 -26.5zM434 0h-270v13l56 12q13 3 19 10t8 21l24 114q12 75 10 168.5t-23 172.5t-50 79q-32 0 -93 -96l-10 4 q22 63 66 112.5t95 49.5q47 0 79.5 -55t45.5 -142.5t7 -192.5q67 173 136 281.5t117 108.5q19 0 31.5 -12.5t19 -37t9.5 -47t5 -54.5l-10 -5q-9 32 -14 47t-15 28t-23 13q-32 0 -89.5 -79t-107.5 -186t-67 -185l-18 -86l-5 -22l71 -21z" />
<glyph unicode="&#x1ef9;" horiz-adv-x="481" d="M460 659q26 20 65 56l8 -4q-13 -54 -42 -88t-69 -34q-24 0 -55 10t-64 24t-43 17q-26 -20 -65 -56l-8 4q12 56 41.5 89t69.5 33q31 0 93 -24.5t69 -26.5zM298 348q0 -70 -18 -160t-51 -170q91 87 138 200.5t47 217.5q0 31 -6 63q24 11 54 11q73 0 73 -82 q0 -114 -85 -238.5t-235 -202.5q-85 -182 -206 -182q-41 0 -67 17.5t-26 42.5q0 18 15 32t37 18q21 -66 52 -66q41 0 77.5 86.5t55.5 199.5t19 207q0 98 -26 98q-24 0 -82 -96l-8 4q21 66 62 114t92 48q88 0 88 -162z" />
<glyph unicode="&#x2013;" horiz-adv-x="526" d="M90 250l7 35h454l-7 -35h-454z" />
<glyph unicode="&#x2014;" horiz-adv-x="804" d="M90 250l7 35h732l-7 -35h-732z" />
<glyph unicode="&#x2018;" horiz-adv-x="236" d="M156 480q0 50 47.5 112t118.5 103l7 -8q-64 -71 -88 -142q38 -8 38 -47q0 -30 -22 -51.5t-50 -21.5q-23 0 -37 15t-14 40z" />
<glyph unicode="&#x2019;" horiz-adv-x="236" d="M318 641q0 -51 -47.5 -112.5t-118.5 -103.5l-7 9q63 68 88 141q-37 8 -37 48q0 30 21.5 51t49.5 21q23 0 37 -14.5t14 -39.5z" />
<glyph unicode="&#x201a;" horiz-adv-x="236" d="M194 57q0 -51 -47.5 -113t-118.5 -103l-8 8q63 70 89 142q-38 8 -38 48q0 29 22 50.5t50 21.5q23 0 37 -14.5t14 -39.5z" />
<glyph unicode="&#x201c;" horiz-adv-x="406" d="M156 480q0 50 47.5 112t118.5 103l7 -8q-64 -71 -88 -142q38 -8 38 -47q0 -30 -22 -51.5t-50 -21.5q-23 0 -37 15t-14 40zM326 480q0 50 47.5 112t118.5 103l7 -8q-64 -71 -88 -142q38 -8 38 -47q0 -30 -22 -51.5t-50 -21.5q-23 0 -37 15t-14 40z" />
<glyph unicode="&#x201d;" horiz-adv-x="406" d="M488 641q0 -51 -47.5 -112.5t-118.5 -103.5l-7 9q63 68 88 141q-37 8 -37 48q0 30 21.5 51t49.5 21q23 0 37 -14.5t14 -39.5zM318 641q0 -51 -47.5 -112.5t-118.5 -103.5l-7 9q63 68 88 141q-37 8 -37 48q0 30 21.5 51t49.5 21q23 0 37 -14.5t14 -39.5z" />
<glyph unicode="&#x201e;" horiz-adv-x="406" d="M364 57q0 -51 -47.5 -113t-118.5 -103l-8 8q63 70 89 142q-38 8 -38 48q0 29 22 50.5t50 21.5q23 0 37 -14.5t14 -39.5zM194 57q0 -51 -47.5 -113t-118.5 -103l-8 8q63 70 89 142q-38 8 -38 48q0 29 22 50.5t50 21.5q23 0 37 -14.5t14 -39.5z" />
<glyph unicode="&#x2020;" horiz-adv-x="502" d="M257 -10h-16l-43 125l129 304l-186 -50l-3 2q4 44 18 118l9 6l168 -51l-17 201l3 3q48 6 137 8l5 -7l-104 -205l188 51l2 -2q-3 -50 -17 -118l-9 -6l-168 50l-1 -304z" />
<glyph unicode="&#x2021;" horiz-adv-x="502" d="M106 253l9 5l169 -55q-19 105 -14 124q4 17 64 117l-188 -52l-2 2q3 47 18 123l9 6l171 -56l-30 178l2 3q47 6 147 8l5 -7l-107 -182l192 56l3 -2q-5 -51 -19 -123l-9 -6l-169 52q19 -99 15 -117q-2 -10 -67 -124l190 55l2 -2q-3 -45 -18 -123l-10 -5l-170 52l31 -175 l-3 -3q-46 -6 -147 -8l-5 7l105 179l-190 -52l-2 2q3 45 18 123z" />
<glyph unicode="&#x2022;" horiz-adv-x="423" d="M255 164q-47 0 -76 29.5t-29 72.5q0 57 44 101.5t101 44.5q46 0 73.5 -27t27.5 -71q0 -60 -40 -105t-101 -45z" />
<glyph unicode="&#x2026;" horiz-adv-x="588" d="M485 -10q-24 0 -37.5 13.5t-13.5 35.5q0 30 22 51t51 21q22 0 35.5 -12.5t13.5 -33.5q0 -30 -21 -52.5t-50 -22.5zM295 -10q-24 0 -37.5 13.5t-13.5 35.5q0 30 22 51t51 21q22 0 35.5 -12.5t13.5 -33.5q0 -30 -21 -52.5t-50 -22.5zM105 -10q-24 0 -37.5 13.5t-13.5 35.5 q0 30 22 51t51 21q22 0 35.5 -12.5t13.5 -33.5q0 -30 -21 -52.5t-50 -22.5z" />
<glyph unicode="&#x2030;" horiz-adv-x="1335" d="M789 660h69l-541 -670h-70zM483 516q0 -94 -56.5 -163t-140.5 -69q-63 -1 -98.5 37.5t-35.5 101.5q0 95 56.5 164t139.5 69q63 0 99 -38t36 -102zM243 380q0 -74 45 -74q42 0 72 81t30 173q0 74 -45 74q-43 0 -72.5 -81t-29.5 -173zM937 228q0 -94 -56.5 -163t-140.5 -70 q-63 0 -98.5 38.5t-35.5 101.5q0 95 56.5 164t139.5 69q63 0 99 -38t36 -102zM1321 228q0 -94 -56.5 -163t-140.5 -70q-63 0 -98.5 38.5t-35.5 101.5q0 95 56.5 164t139.5 69q63 0 99 -38t36 -102zM697 92q0 -74 45 -74q42 0 72 81t30 173q0 74 -45 74q-43 0 -72.5 -81 t-29.5 -173zM1081 92q0 -74 45 -74q42 0 72 81t30 173q0 74 -45 74q-43 0 -72.5 -81t-29.5 -173z" />
<glyph unicode="&#x2039;" horiz-adv-x="320" d="M269 61l-13 -8q-76 119 -139 189l-2 5l7 33q126 90 220 172l10 -8q-48 -72 -144 -191q38 -94 61 -192z" />
<glyph unicode="&#x203a;" horiz-adv-x="320" d="M306 228q-112 -79 -220 -171l-10 7q42 64 144 191q-36 84 -61 192l13 8q80 -125 139 -188l2 -5z" />
<glyph unicode="&#x2044;" horiz-adv-x="253" d="M432 660h69l-541 -670h-70z" />
<glyph unicode="&#x2070;" horiz-adv-x="404" d="M485 599q0 -94 -56.5 -163t-140.5 -69q-63 -1 -98.5 37.5t-35.5 101.5q0 95 56.5 164t139.5 69q63 0 99 -38t36 -102zM245 463q0 -74 45 -74q42 0 72 81t30 173q0 74 -45 74q-43 0 -72.5 -81t-29.5 -173z" />
<glyph unicode="&#x2071;" horiz-adv-x="236" d="M275 748q-48 0 -48 37q0 24 21 41t48 17q48 0 48 -37q0 -24 -20.5 -41t-48.5 -17zM135 575l-6 3q21 48 54 82.5t71 34.5q49 0 49 -57q0 -30 -27.5 -133t-27.5 -119q0 -10 6 -10q17 0 68 67l5 -2q-19 -47 -52 -82.5t-71 -35.5q-50 0 -50 58q0 29 28 128t28 124q0 10 -7 10 q-14 0 -68 -68z" />
<glyph unicode="&#x2074;" horiz-adv-x="382" d="M136 489l253 250l53 -8l-50 -231l57 1l-11 -43h-55l-18 -87h-90l18 88l-157 2v28zM334 658l-158 -163l125 3z" />
<glyph unicode="&#x2075;" horiz-adv-x="327" d="M391 499q0 -59 -69.5 -96t-196.5 -38l-1 13q81 10 125 37.5t44 69.5q0 50 -67 50q-24 0 -49 -7l-9 8l45 199q14 0 78 -2t95 -2q26 0 42 31l6 -1q-12 -52 -23.5 -71t-41.5 -19q-51 0 -141 8l-23 -101q25 7 58 7q60 0 94 -23t34 -63z" />
<glyph unicode="&#x2076;" horiz-adv-x="369" d="M149 488q0 105 85.5 174t217.5 77l1 -13q-82 -21 -140.5 -71.5t-79.5 -122.5q35 65 111 65q42 0 68 -25t26 -66q0 -58 -48.5 -99.5t-115.5 -41.5q-58 0 -91.5 34.5t-33.5 88.5zM356 505q0 27 -12 44.5t-33 17.5q-31 0 -57 -38t-25 -83q1 -26 13.5 -43t36.5 -17 q32 0 54.5 35.5t22.5 83.5z" />
<glyph unicode="&#x2077;" horiz-adv-x="320" d="M273 380q-10 -15 -33 -15q-28 0 -45 27q130 188 174 263q-93 22 -143 22q-20 0 -31 -9t-21 -32l-6 1q8 37 13.5 55.5t19 32.5t33.5 14q66 0 149 -59q6 11 17 32t15 27q22 -2 22 -18q0 -17 -66 -155t-98 -186z" />
<glyph unicode="&#x2078;" horiz-adv-x="366" d="M424 471q0 -46 -44.5 -76t-113.5 -30q-58 0 -93.5 22t-35.5 59q-1 34 33 58.5t88 34.5q-67 50 -67 100q0 45 40 72.5t101 27.5q52 0 83.5 -22t31.5 -56q0 -31 -26.5 -55t-72.5 -36q24 -16 37.5 -27.5t26 -31t12.5 -40.5zM272 659q0 -36 58 -77q44 41 44 84 q0 24 -11.5 38.5t-32.5 14.5q-26 0 -42 -16.5t-16 -43.5zM219 441q0 -26 14.5 -41t39.5 -15q29 0 47.5 17t18.5 44q0 15 -11.5 31.5t-21.5 25t-34 26.5q-53 -40 -53 -88z" />
<glyph unicode="&#x2079;" horiz-adv-x="369" d="M455 616q0 -105 -85.5 -174t-217.5 -77l-1 14q81 20 140 71t79 122q-34 -64 -110 -64q-42 0 -68 25t-26 65q0 59 48.5 100t115.5 41q59 0 92 -34t33 -89zM248 600q0 -28 12 -45t33 -17q31 0 57 38t25 82q-1 26 -13.5 43t-36.5 17q-32 0 -54.5 -35.5t-22.5 -82.5z" />
<glyph unicode="&#x207f;" horiz-adv-x="440" d="M234 329q-45 -5 -86 -5q-11 0 -9 9l23 101l11 48l17 71q15 69 15 78q0 12 -7 12q-18 0 -66 -68l-7 3q17 47 50 82t71 35q22 0 35 -12.5t13 -36.5q0 -33 -32 -151q41 94 89 147t94 53q29 0 44.5 -15.5t15.5 -42.5q0 -16 -5.5 -43.5t-11 -50t-15.5 -59t-14 -50.5 q-9 -40 -9 -48q0 -10 7 -10q15 0 68 67l6 -2q-20 -48 -53.5 -83t-71.5 -35q-49 0 -49 58q0 18 7 53q5 23 17.5 66t20 73.5t7.5 46.5q0 19 -16 19q-26 0 -66.5 -59.5t-69.5 -145.5z" />
<glyph unicode="&#x2080;" horiz-adv-x="405" d="M385 127q0 -94 -56.5 -163t-140.5 -70q-63 0 -98.5 38.5t-35.5 101.5q0 95 56.5 164t139.5 69q63 0 99 -38t36 -102zM145 -10q0 -73 45 -73q42 0 72 81t30 173q0 74 -45 74q-43 0 -72.5 -81t-29.5 -174z" />
<glyph unicode="&#x2081;" horiz-adv-x="271" d="M209 -101h-185v7l37 7q15 2 18 18l66 296l-56 -2l1 7l151 35l5 -4l-76 -332l-3 -13l44 -12z" />
<glyph unicode="&#x2082;" horiz-adv-x="346" d="M101 -91q-40 0 -70 -16l-11 37q110 75 156.5 124.5t46.5 97.5q0 27 -16 42.5t-44 15.5q-57 0 -93 -61l-6 3q19 53 58.5 83.5t95.5 30.5q48 0 78 -25.5t30 -66.5q0 -51 -47 -96.5t-137 -94.5q-28 -16 -43 -24q19 5 46 5q20 0 59.5 -5.5t52.5 -5.5q19 0 38 42l6 -2 q-10 -44 -18 -65q-14 -35 -38 -35q-19 0 -68 8t-76 8z" />
<glyph unicode="&#x2083;" horiz-adv-x="321" d="M282 11q0 -53 -71 -84t-198 -34l-1 12q171 26 171 107q0 26 -19 40t-51 14q-5 0 -25 -2l-3 18q58 9 90.5 32.5t32.5 55.5q0 19 -13.5 31t-36.5 12q-54 0 -87 -54l-5 3q15 47 54.5 76t89.5 29q45 0 70.5 -20.5t25.5 -54.5q0 -39 -35 -66.5t-94 -39.5q47 -2 76 -22.5 t29 -52.5z" />
<glyph unicode="&#x2084;" horiz-adv-x="382" d="M36 17l253 250l53 -8l-50 -231l57 1l-11 -44l-55 1l-18 -87h-90l18 88l-157 1v29zM234 186l-158 -163l125 3z" />
<glyph unicode="&#x2085;" horiz-adv-x="327" d="M291 27q0 -59 -69.5 -96t-196.5 -38l-1 12q169 22 169 108q0 50 -67 50q-24 0 -49 -7l-9 8l45 199q14 0 78 -2t95 -2q26 0 42 31l6 -1q-12 -52 -23.5 -71t-41.5 -20q-40 0 -141 9l-23 -101q25 7 58 7q60 0 94 -23t34 -63z" />
<glyph unicode="&#x2086;" horiz-adv-x="369" d="M49 16q0 105 85 174t218 77v-13q-81 -21 -140 -72t-79 -122q35 65 111 65q41 0 67 -25.5t26 -65.5q0 -59 -48 -100t-116 -41q-58 0 -91 34t-33 89zM256 33q0 27 -12.5 44.5t-33.5 17.5q-30 0 -56 -38t-25 -83q0 -26 13 -43t37 -17q32 0 54.5 35.5t22.5 83.5z" />
<glyph unicode="&#x2087;" horiz-adv-x="319" d="M172 -92q-9 -15 -33 -15q-30 0 -44 27q130 188 174 263q-95 22 -143 22q-21 0 -31.5 -8.5t-21.5 -32.5l-6 1q7 30 10.5 43.5t11.5 30t18.5 22.5t26.5 6q63 0 149 -59q11 19 31 59q22 -2 22 -18q0 -17 -65.5 -155t-98.5 -186z" />
<glyph unicode="&#x2088;" horiz-adv-x="366" d="M324 -1q0 -47 -44.5 -76.5t-114.5 -29.5q-58 0 -93.5 22t-35.5 58q0 35 33.5 59.5t87.5 34.5q-67 51 -67 100q0 45 40.5 72.5t101.5 27.5q51 0 82.5 -22t31.5 -56q0 -31 -26.5 -55t-71.5 -36q24 -16 37.5 -27.5t26 -31t12.5 -40.5zM172 187q-1 -35 58 -77q43 41 43 84 q0 53 -44 53q-25 0 -41 -16.5t-16 -43.5zM118 -32q0 -26 15 -40.5t40 -14.5q29 0 47.5 17t18.5 43q0 16 -11 32t-22 25t-35 27q-53 -41 -53 -89z" />
<glyph unicode="&#x2089;" horiz-adv-x="369" d="M355 144q0 -105 -85.5 -174t-217.5 -77l-1 13q81 21 140 72t79 122q-34 -64 -110 -64q-42 0 -68 25t-26 65q0 59 48.5 100t115.5 41q59 0 92 -34t33 -89zM148 128q0 -28 12 -45t33 -17q31 0 57 38t25 82q-1 26 -13.5 43t-36.5 17q-32 0 -54.5 -35.5t-22.5 -82.5z" />
<glyph unicode="&#x2090;" horiz-adv-x="422" d="M30 -57q0 67 30 130.5t88.5 106.5t130.5 43q74 0 123 -23l-19 -58l-42 -180q-9 -40 -9 -49q0 -10 7 -10q15 0 67 68l6 -3q-20 -48 -53 -82.5t-71 -34.5q-50 0 -50 57q0 20 8 54l22 89q-38 -94 -82.5 -147t-84.5 -53q-35 0 -53 25.5t-18 66.5zM293 158l9 34q-18 10 -37 10 q-50 0 -96.5 -90.5t-46.5 -166.5q0 -43 21 -43q25 0 71.5 79.5t78.5 176.5z" />
<glyph unicode="&#x2091;" horiz-adv-x="337" d="M317 -31q-20 -51 -65 -84.5t-96 -33.5q-55 0 -87 34.5t-32 93.5q0 95 61.5 169.5t144.5 74.5q43 0 69.5 -20t26.5 -56q0 -59 -55.5 -96.5t-147.5 -40.5v-11q0 -45 17.5 -69t48.5 -24q52 0 110 67zM236 201q-32 0 -62 -54.5t-36 -119.5q54 7 89 49t35 95q0 30 -26 30z" />
<glyph unicode="&#x2092;" horiz-adv-x="405" d="M381 85q0 -97 -61 -166t-144 -69q-63 0 -99.5 37.5t-36.5 101.5q0 95 62 164.5t146 69.5q63 0 98 -38t35 -100zM139 -36q0 -90 41 -90q40 0 71 83.5t31 159.5q0 83 -40 83q-41 0 -72 -79.5t-31 -156.5z" />
<glyph unicode="&#x2093;" horiz-adv-x="371" d="M101 -144q-15 -7 -41 -7q-22 0 -36 10.5t-14 30.5q0 67 138 142l-23 70q-13 41 -19 53t-15 12q-17 0 -62 -64l-6 3q21 51 52 83.5t65 32.5q31 0 44 -20t37 -90l18 -56q53 82 53 136q0 18 -2 26q15 7 40 7q22 0 37 -11t15 -29q0 -67 -138 -144l24 -70q12 -40 18.5 -53 t15.5 -13q17 0 62 64l6 -4q-20 -50 -51 -82t-65 -32q-32 0 -45 20t-37 89l-19 58q-54 -79 -54 -136q0 -19 2 -26z" />
<glyph unicode="&#x2095;" horiz-adv-x="425" d="M142 -38h-1l-23 -105q-45 -5 -86 -5q-11 0 -8 8l23 102l69 300l11 51l-59 17v7q56 11 158 19l5 -6l-21 -89q-32 -136 -60 -228q42 90 89 140t91 50q29 0 44.5 -15.5t15.5 -42.5q0 -16 -5.5 -43.5t-11 -50t-15.5 -59t-14 -50.5q-9 -40 -9 -49q0 -10 7 -10q14 0 68 68l6 -3 q-19 -47 -53 -82t-72 -35q-49 0 -49 57q0 17 7 54q5 23 17.5 66t20 73.5t7.5 46.5q0 19 -16 19q-26 0 -66.5 -59.5t-69.5 -145.5z" />
<glyph unicode="&#x2096;" horiz-adv-x="413" d="M118 -143q-40 -5 -86 -5q-10 0 -7 8l22 102l69 300l12 52l-60 16v7q57 11 159 19l4 -6l-21 -88q-28 -123 -65 -244l1 -1q41 100 91.5 153t104.5 53q31 0 49 -18.5t18 -45.5q0 -43 -37.5 -77.5t-92.5 -56.5q23 -62 38.5 -90.5t31.5 -28.5q20 0 74 65l5 -3q-21 -47 -56 -82 t-74 -35q-14 0 -25 3.5t-21 15.5t-16 20t-15.5 31.5t-13.5 35t-15 44.5l1 4q53 25 87 61t34 73q0 28 -26 28q-31 0 -74.5 -60t-72.5 -149v2z" />
<glyph unicode="&#x2097;" horiz-adv-x="220" d="M45 -38l71 300l11 51l-59 17v7q56 11 158 19l4 -6l-20 -88l-71 -300q-9 -40 -9 -49q0 -10 8 -10q13 0 67 68l5 -3q-18 -47 -51.5 -82t-71.5 -35q-50 0 -50 57q0 20 8 54z" />
<glyph unicode="&#x2098;" horiz-adv-x="634" d="M133 -143q-40 -5 -86 -5q-10 0 -7 8l22 102l11 48l17 71q15 69 15 78q0 12 -8 12q-16 0 -66 -68l-6 3q17 47 50 82t71 35q22 0 35.5 -12.5t13.5 -36.5q0 -35 -33 -150q41 94 89 146.5t93 52.5q25 0 39 -14t14 -38q0 -30 -29 -142q40 91 86 142.5t89 51.5q27 0 41.5 -15.5 t14.5 -42.5q0 -16 -5.5 -43.5t-11 -50t-15.5 -59t-14 -50.5q-9 -40 -9 -49q0 -10 7 -10q14 0 68 68l6 -3q-19 -47 -52.5 -82t-71.5 -35q-50 0 -50 57q0 17 7 54q5 23 17.5 66t20 74.5t7.5 47.5q0 17 -12 17q-25 0 -63.5 -60t-66.5 -145l-24 -105q-40 -5 -86 -5q-10 0 -8 8 l23 102h1q6 29 17.5 76.5t16.5 72t5 37.5q0 19 -14 19q-26 0 -66 -59.5t-69 -145.5z" />
<glyph unicode="&#x2099;" horiz-adv-x="440" d="M134 -143q-45 -5 -86 -5q-6 0 -8 2t-1 6l23 102l11 48l17 71q15 69 15 78q0 12 -7 12q-18 0 -66 -68l-7 3q17 47 50 82t71 35q22 0 35 -12.5t13 -36.5q0 -33 -32 -151q41 94 89 147t94 53q29 0 44.5 -15.5t15.5 -42.5q0 -16 -5.5 -43.5t-11 -50t-15.5 -59t-14 -50.5 q-9 -40 -9 -49q0 -10 7 -10q14 0 68 68l6 -3q-19 -47 -53 -82t-72 -35q-49 0 -49 57q0 17 7 54q5 23 17.5 66t20 73.5t7.5 46.5q0 19 -16 19q-26 0 -66.5 -59.5t-69.5 -145.5z" />
<glyph unicode="&#x209a;" horiz-adv-x="418" d="M103 -277q-4 0 -43.5 -2.5t-42.5 -2.5q-9 0 -8 9l23 101l42 182l16 71q15 69 15 78q0 12 -7 12q-18 0 -66 -68l-7 3q18 47 50.5 82t70.5 35q49 0 48 -49q1 -27 -33 -156q38 97 82.5 151t87.5 54q35 0 53 -27t18 -69q0 -66 -26.5 -128t-82.5 -105t-129 -43q-10 0 -32 2 l-5 -25zM289 172q-25 0 -64.5 -61t-67.5 -149l-19 -83q19 -7 38 -7q52 0 93 86.5t41 166.5q0 47 -21 47z" />
<glyph unicode="&#x209b;" horiz-adv-x="333" d="M299 -48q0 -46 -40 -73.5t-114 -27.5q-55 0 -92 19t-37 51q0 20 20.5 35.5t56.5 21.5l6 -3q-6 -29 -3 -53q7 -49 56 -49q23 0 38.5 13.5t15.5 36.5t-22.5 48t-49 44t-49 48t-22.5 59q0 45 39 73t104 28q55 0 90 -19.5t35 -50.5q0 -20 -19 -35.5t-51 -20.5l-6 3q4 31 1 52 q-8 48 -50 48q-23 0 -36.5 -13t-13.5 -35q0 -23 22.5 -48.5t49 -44.5t49 -48t22.5 -59z" />
<glyph unicode="&#x209c;" horiz-adv-x="265" d="M253 -32q-22 -48 -58.5 -82.5t-80.5 -34.5q-30 0 -47 16.5t-17 46.5q0 22 8 52l48 212h-59l1 7l65 21l108 93l7 -1l-23 -99h88l-5 -21h-88l-48 -212q-2 -9 -4 -19.5t-3 -16.5t-1 -11q0 -16 16 -16q25 0 87 68z" />
<glyph unicode="&#x20ac;" horiz-adv-x="621" d="M525 259h-203v-24q0 -162 125 -162q76 0 158 84l8 -6q-37 -71 -99.5 -116t-142.5 -45q-89 0 -139 57.5t-50 159.5q0 27 3 52h-80l9 34h75q6 30 15 61h-75l9 34h77q45 119 134 195.5t191 76.5q64 0 100.5 -30.5t36.5 -78.5q0 -39 -22 -66.5t-53 -27.5q-12 0 -30 4 q12 48 12 80q0 82 -57 82q-52 0 -103 -68t-80 -167h214l-9 -34h-213q-8 -33 -11 -61h209z" />
<glyph unicode="&#x2122;" horiz-adv-x="739" d="M197 668h233l-18 -89h-13l-3 65h-56l-43 -203l33 -8l-3 -12h-133l2 12l37 8l43 203h-53l-33 -65h-13zM403 421l2 12l36 8l60 208l-33 7l4 12h116l21 -161l90 161h115l-2 -12l-34 -7l-29 -208l29 -8l-3 -12h-131l1 12l36 8l25 186h-3l-115 -204h-33l-31 205h-2l-54 -187 l34 -8l-3 -12h-96z" />
<glyph unicode="&#x2212;" horiz-adv-x="539" d="M530 284h-407l16 78q124 4 410 4l4 -6z" />
<glyph unicode="&#x221e;" horiz-adv-x="827" d="M830 332q0 -88 -60 -153t-145 -65q-106 0 -163 113q-93 -113 -203 -113q-62 0 -99 40.5t-37 107.5q0 87 61 151t151 64q61 0 96 -31t61 -85q92 116 203 116q64 0 99.5 -39.5t35.5 -105.5zM667 405q-71 -1 -150 -99q27 -60 51.5 -89t63.5 -29q46 0 78.5 38t32.5 91 q0 41 -20.5 64.5t-55.5 23.5zM210 275q0 -40 22 -64t58 -24q70 -1 148 96q-26 60 -50 90t-62 30q-48 0 -82 -38t-34 -90z" />
<glyph unicode="&#x2248;" horiz-adv-x="557" d="M229 409q-16 0 -65 -58l-40 21q22 35 37 56t40.5 43t47.5 22q25 0 120 -26t115 -26q16 0 66 57l39 -21q-16 -26 -27 -41.5t-29 -37t-35 -32t-33 -10.5q-29 0 -125 26.5t-111 26.5zM186 209q-14 0 -65 -58l-39 21q74 121 124 121q26 0 120.5 -26t115.5 -26q15 0 65 57 l39 -21q-21 -34 -36.5 -55.5t-40.5 -43.5t-47 -22q-28 0 -124 26.5t-112 26.5z" />
<glyph unicode="&#x2260;" horiz-adv-x="540" d="M156 70l-38 26l64 84h-81l17 78q26 0 124 2l96 128h-193l17 78q46 1 238 3l82 110l8 3l39 -26l-65 -86h107l5 -6l-24 -76h-150l-96 -127q84 1 221 1l5 -6l-24 -76h-262l-81 -107z" />
<glyph unicode="&#x2264;" horiz-adv-x="544" d="M593 576l-20 -92l-311 -89l273 -86l-18 -87q-68 22 -190 67.5t-184 72.5l-1 5l13 66zM488 76h-407l16 77q155 5 410 5l4 -7z" />
<glyph unicode="&#x2265;" horiz-adv-x="544" d="M115 222l19 92l311 88l-273 87l19 87q67 -22 189 -67.5t185 -72.5l1 -5l-13 -66zM493 76h-407l16 77q155 5 410 5l4 -7z" />
<glyph unicode="&#x25fc;" horiz-adv-x="515" d="M0 515h515v-515h-515v515z" />
<glyph unicode="&#x2c7c;" horiz-adv-x="223" d="M241 334q0 -24 -20.5 -41t-48.5 -17q-22 0 -35.5 10t-13.5 27q0 24 21.5 41t48.5 17q48 0 48 -37zM141 -116q-18 -81 -65.5 -123.5t-109.5 -42.5q-36 0 -59 14.5t-23 35.5q0 13 11 22t28 11q23 -46 45 -46q28 0 44.5 27.5t30.5 91.5l55 238q9 40 9 49q0 10 -7 10 q-14 0 -68 -68l-5 3q19 47 52.5 82t71.5 35q49 0 49 -57q0 -17 -7 -54z" />
<glyph unicode="&#xfb01;" horiz-adv-x="553" d="M202 34q-23 -111 -84 -170t-140 -59q-47 0 -77 19.5t-30 48.5q0 36 49 45q7 -15 10.5 -21.5t12 -18.5t17.5 -17.5t20 -5.5q36 0 58 37.5t41 128.5l90 427h-76l1 8l82 22l4 19q18 84 85 141t160 57q58 0 98 -22.5t40 -55.5q0 -45 -86 -45q-11 31 -36 52.5t-55 21.5 q-46 0 -66 -61q-4 -17 -10 -43.5t-10 -42.5l-5 -23h152q55 0 80 -20.5t25 -66.5q0 -16 -7 -48.5t-23.5 -99t-24.5 -98.5q-12 -53 -12 -68q0 -14 9 -14q19 0 89 96l7 -5q-25 -65 -68 -113.5t-92 -48.5q-63 0 -63 78q0 27 10 75q11 49 27 113.5t24.5 99t8.5 48.5q0 44 -43 44 h-105z" />
<glyph unicode="&#xfb02;" horiz-adv-x="556" d="M202 34q-23 -111 -84 -170t-140 -59q-47 0 -77 19.5t-30 48.5q0 36 49 45q7 -15 10.5 -21.5t12 -18.5t17.5 -17.5t20 -5.5q36 0 58 37.5t41 128.5l90 427h-76l1 8l82 22l4 19q17 82 83 140t149 58q69 0 101 -32q31 7 93 16l6 -7l-112 -529q-12 -53 -12 -68q0 -14 9 -14 q19 0 89 96l7 -5q-25 -65 -68 -113.5t-92 -48.5q-63 0 -63 78q0 27 10 75l95 447q-38 56 -91 56q-45 0 -64 -61q-5 -14 -11 -45.5t-9 -40.5l-5 -23h109l-6 -28h-109z" />
<glyph unicode="&#xfb06;" horiz-adv-x="749" d="M419 131q0 -63 -52 -102t-147 -39q-70 0 -118 27t-48 71q0 29 26 50.5t73 30.5l7 -4q-8 -45 -4 -75q4 -32 23.5 -50.5t49.5 -18.5q31 0 51.5 20t20.5 52q0 27 -19 54t-46.5 51t-55 48.5t-46.5 57t-19 66.5q0 62 53 101t143 39q31 0 54 -4q25 79 91 134t149 55 q61 0 97.5 -30t36.5 -80q0 -67 -58 -109h143l-6 -28h-117l-63 -298q-10 -49 -10 -66q0 -23 21 -23q33 0 114 96l7 -5q-29 -66 -76.5 -114t-103.5 -48q-38 0 -60 22.5t-22 63.5q0 20 10 74l64 298h-77l2 10q56 15 87 49t31 79q0 29 -19 47t-51 18q-49 0 -96 -42t-72 -108 q76 -22 76 -77q0 -23 -16 -38t-41 -15q-24 0 -39 16t-15 43q0 18 3 37q-18 12 -44 12q-35 0 -56.5 -19t-21.5 -51q0 -33 29 -68t64 -62t64 -67t29 -81z" />
<glyph horiz-adv-x="962" d="M443 155q-27 -68 -85.5 -116.5t-125.5 -48.5q-71 0 -111.5 47.5t-40.5 130.5q0 132 84.5 237t192.5 105q9 0 25 -2q38 83 132.5 135t213.5 52h17l5 -6l-23 -106q-50 -223 -83 -343q54 128 115 199t120 71q37 0 57 -21.5t20 -58.5q0 -28 -9.5 -75.5t-27.5 -119.5l-23 -92 q-12 -53 -12 -68q0 -14 9 -14q19 0 89 96l7 -5q-25 -65 -68 -113.5t-92 -48.5q-63 0 -63 78q0 27 10 75q7 35 22.5 94.5t25.5 104t10 66.5q0 27 -20 27q-35 0 -88.5 -84.5t-92.5 -207.5l-31 -145q-77 -7 -109 -7q-13 0 -10 12l30 140l107 505q-152 -29 -213 -145 q68 -22 68 -89q0 -31 -17.5 -51t-43.5 -20q-52 0 -52 75q0 32 9 60q-8 2 -14 2q-38 0 -73.5 -45t-56 -111t-20.5 -129t22.5 -96.5t63.5 -33.5q69 0 143 95z" />
<glyph horiz-adv-x="760" d="M443 155q-27 -68 -85.5 -116.5t-125.5 -48.5q-71 0 -111.5 47.5t-40.5 130.5q0 86 38.5 165.5t103 128t134.5 48.5q14 0 21 -1q27 81 92.5 133.5t144.5 52.5q61 0 96 -29t35 -79q0 -67 -58 -111h143l-6 -28h-116l-63 -298q-11 -47 -11 -66q0 -23 21 -23q35 0 114 96l8 -5 q-29 -66 -76.5 -114t-104.5 -48q-38 0 -59.5 22.5t-21.5 63.5q0 29 10 74l63 298h-77l2 10q56 15 87 49.5t31 79.5q0 29 -17.5 46.5t-47.5 17.5q-49 0 -95.5 -41.5t-69.5 -104.5q35 -10 54.5 -34t19.5 -57q0 -31 -17.5 -51t-43.5 -20q-52 0 -52 77q0 29 6 59q-3 1 -11 1 q-38 0 -73.5 -45t-56 -111t-20.5 -129t22.5 -96.5t63.5 -33.5q69 0 143 95z" />
<glyph horiz-adv-x="948" d="M419 131q0 -63 -52 -102t-147 -39q-70 0 -118 27t-48 71q0 29 26 50.5t73 30.5l7 -4q-8 -45 -4 -75q4 -32 23.5 -50.5t49.5 -18.5q31 0 51.5 20t20.5 52q0 27 -19 54t-46.5 51t-55 48.5t-46.5 57t-19 66.5q0 62 53 101t143 39q30 0 58 -5q37 79 130.5 134.5t220.5 55.5 h16l5 -6l-23 -106q-45 -208 -82 -343q53 127 114.5 198.5t120.5 71.5q36 0 56.5 -21.5t20.5 -58.5q0 -28 -9 -73t-29 -124t-23 -90q-11 -49 -11 -68q0 -14 9 -14q20 0 88 96l8 -5q-26 -65 -69 -113.5t-91 -48.5q-64 0 -64 78q0 27 10 75q7 34 23 94t26 104.5t10 66.5 q0 27 -21 27q-35 0 -88 -84.5t-93 -207.5l-30 -145q-77 -7 -109 -7q-13 0 -10 12l29 140l108 505q-155 -30 -219 -149q70 -22 70 -75q0 -23 -16 -38t-41 -15q-24 0 -39 16t-15 43q0 20 4 36q-20 13 -45 13q-35 0 -56.5 -19t-21.5 -51q0 -33 29 -68t64 -62t64 -67t29 -81z " />
<glyph horiz-adv-x="422" d="M131 415q0 105 70.5 192.5t178.5 87.5q73 0 122 -23l-19 -58l-42 -180q-8 -35 -8 -48q0 -10 6 -10q17 0 68 67l6 -2q-20 -48 -53 -83t-71 -35q-50 0 -50 58q0 21 8 53l22 89q-38 -93 -83 -146.5t-85 -53.5q-35 0 -52.5 25.5t-17.5 66.5zM393 630l10 34q-18 10 -38 10 q-50 0 -96 -90t-46 -166q0 -43 21 -43q25 0 71 79.5t78 175.5z" />
<glyph horiz-adv-x="395" d="M134 407l76 327l11 51l-59 17v7q56 11 158 19l4 -6l-20 -88q-30 -127 -66 -244v-1q38 97 83 151.5t88 54.5q34 0 52.5 -27t18.5 -69q0 -65 -26.5 -127t-80.5 -105.5t-122 -43.5q-81 0 -135 28zM366 644q-25 0 -65 -62t-68 -152l-17 -75q19 -10 45 -10q49 0 88 88t39 164 q0 47 -22 47z" />
<glyph horiz-adv-x="345" d="M419 442q-21 -49 -66 -84t-97 -35q-50 0 -84 33.5t-34 94.5q0 95 63 169.5t145 74.5q45 0 70.5 -22.5t25.5 -57.5q0 -28 -17 -49t-43 -21q-18 0 -36 7q19 49 19 82q0 39 -28 39q-36 0 -67.5 -66t-31.5 -131q0 -47 17.5 -72t48.5 -25q53 0 110 67z" />
<glyph horiz-adv-x="421" d="M346 434l19 78q-37 -88 -81 -138.5t-83 -50.5q-34 0 -52 26t-18 66q0 66 30 129.5t88 107t130 43.5q19 0 29 -1l9 40l12 52l-59 16v7q54 10 158 19l4 -6l-20 -88l-71 -300q-9 -40 -9 -48q0 -10 7 -10q16 0 67 67l6 -2q-19 -47 -52 -82.5t-71 -35.5q-50 0 -50 58 q0 18 7 53zM244 375q25 0 71 79.5t78 175.5l8 34q-17 10 -36 10q-50 0 -96 -90t-46 -166q0 -43 21 -43z" />
<glyph horiz-adv-x="338" d="M418 442q-20 -51 -65 -85t-96 -34q-55 0 -87 34.5t-32 93.5q0 95 61.5 169.5t144.5 74.5q43 0 69.5 -20t26.5 -56q0 -59 -55.5 -96.5t-147.5 -40.5v-10q0 -45 17.5 -69t48.5 -24q53 0 110 67zM337 673q-32 0 -62 -54.5t-36 -119.5q54 7 89 49t35 95q0 30 -26 30z" />
<glyph horiz-adv-x="245" d="M225 357q-17 -81 -64.5 -124t-108.5 -43q-37 0 -60 14.5t-23 35.5q0 27 39 34q22 -46 45 -46q28 0 44 27t31 92l69 303h-58l1 6l62 16l3 13q13 59 61 101t109 42q35 0 57 -14t22 -36q0 -26 -35 -35q-33 48 -66 48q-11 0 -19.5 -5t-13.5 -18.5t-7.5 -22.5t-6.5 -30t-6 -29 l-3 -15h95l-5 -21h-95z" />
<glyph horiz-adv-x="339" d="M405 288q0 -41 -54.5 -69.5t-134.5 -28.5q-69 0 -115.5 21t-46.5 54q0 22 23.5 41t65.5 29l5 -4q-22 -17 -22 -33q1 -39 26 -63t71 -24q32 0 56 14t24 35q0 14 -19.5 27.5t-43.5 23t-43.5 24.5t-19.5 31q0 35 98 73q-4 -1 -12 -1q-57 0 -91.5 27.5t-34.5 73.5 q0 64 51.5 110t128.5 46q137 0 176 8q5 -10 5 -23q0 -33 -29 -33q-19 0 -89 16q48 -27 48 -80q0 -42 -25.5 -76t-55.5 -51.5t-55.5 -33t-25.5 -24.5t21.5 -20t48 -20.5t48 -28t21.5 -41.5zM229 527q0 -66 38 -66q26 0 47 49t21 106q0 60 -34 60q-29 0 -50.5 -47t-21.5 -102z " />
<glyph horiz-adv-x="425" d="M218 329q-45 -5 -86 -5q-12 0 -8 9l23 101l69 300l11 51l-59 17v7q56 11 158 19l5 -6l-21 -88q-31 -133 -60 -229q42 90 89 140t91 50q29 0 44.5 -15.5t15.5 -42.5q0 -16 -5.5 -43.5t-11 -50t-15.5 -59t-14 -50.5q-9 -40 -9 -48q0 -10 7 -10q15 0 68 67l6 -2 q-20 -48 -53.5 -83t-71.5 -35q-49 0 -49 58q0 18 7 53q5 23 17.5 66t20 73.5t7.5 46.5q0 19 -16 19q-26 0 -66.5 -59.5t-69.5 -145.5h-1z" />
<glyph horiz-adv-x="224" d="M342 806q0 -24 -20.5 -41t-48.5 -17q-22 0 -35.5 10t-13.5 27q0 24 21.5 41t48.5 17q48 0 48 -37zM242 357q-18 -81 -65.5 -124t-108.5 -43q-36 0 -59.5 14.5t-23.5 35.5q0 27 40 34q19 -46 45 -46q27 0 43.5 27.5t30.5 91.5l55 237q9 40 9 49q0 10 -7 10q-14 0 -68 -68 l-5 3q19 47 52.5 82t71.5 35q49 0 49 -57q0 -17 -7 -54z" />
<glyph horiz-adv-x="412" d="M218 329q-40 -5 -86 -5q-11 0 -7 9l22 101l69 300l12 52l-60 16v7q57 11 159 19l4 -6l-21 -88q-28 -123 -65 -244l1 -1q41 100 91.5 153t104.5 53q31 0 49 -18.5t18 -45.5q0 -43 -37.5 -77.5t-92.5 -56.5q22 -62 38 -90t32 -28q20 0 74 64l5 -2q-21 -48 -56 -83t-74 -35 q-14 0 -25 3.5t-21 15.5t-16 20t-15.5 31.5t-13.5 35t-15 44.5l1 4q53 25 87 61t34 73q0 28 -26 28q-31 0 -74.5 -59.5t-72.5 -148.5v1z" />
<glyph horiz-adv-x="219" d="M145 434l71 300l11 51l-59 17v7q56 11 158 19l4 -6l-20 -88l-71 -300q-9 -40 -9 -48q0 -10 8 -10q14 0 67 67l5 -2q-19 -47 -52 -82.5t-71 -35.5q-50 0 -50 58q0 21 8 53z" />
<glyph horiz-adv-x="634" d="M233 329q-40 -5 -86 -5q-11 0 -7 9l22 101l11 48l17 71q15 69 15 78q0 12 -8 12q-16 0 -66 -68l-6 3q17 47 50 82t71 35q22 0 35.5 -12.5t12.5 -36.5q1 -35 -32 -150q41 94 89 146.5t93 52.5q25 0 39 -14t14 -38q0 -30 -29 -142q40 91 86 142.5t89 51.5q27 0 41.5 -15.5 t14.5 -42.5q0 -16 -5.5 -43.5t-11 -50t-15.5 -59t-14 -50.5q-9 -40 -9 -48q0 -10 7 -10q15 0 68 67l6 -2q-20 -48 -53 -83t-71 -35q-50 0 -50 58q0 18 7 53q5 23 17.5 66t20 74.5t7.5 47.5q0 17 -12 17q-25 0 -63.5 -60t-66.5 -145l-24 -105q-40 -5 -86 -5q-10 0 -8 9 l23 101h1q6 29 17.5 76.5t16.5 72t5 37.5q0 19 -14 19q-26 0 -66 -59.5t-69 -145.5z" />
<glyph horiz-adv-x="405" d="M482 557q0 -97 -61.5 -165.5t-144.5 -68.5q-63 0 -99.5 37t-36.5 101q0 95 62.5 164.5t146.5 69.5q63 0 98 -38t35 -100zM239 437q0 -91 42 -91q40 0 70.5 83.5t30.5 159.5q0 83 -40 83t-71.5 -79.5t-31.5 -155.5z" />
<glyph horiz-adv-x="418" d="M203 195q-4 0 -43.5 -2.5t-42.5 -2.5q-10 0 -8 9l23 101l42 182l16 71q15 69 15 78q0 12 -7 12q-18 0 -66 -68l-7 3q18 47 50.5 82t70.5 35q49 0 49 -49q0 -26 -34 -156q38 97 82.5 151t87.5 54q35 0 53 -27t18 -69q0 -66 -26.5 -128t-82.5 -105t-129 -43q-10 0 -32 2 l-5 -25zM389 644q-25 0 -64.5 -61t-67.5 -149l-19 -83q17 -6 38 -6q52 0 93 86t41 166q0 47 -21 47z" />
<glyph horiz-adv-x="414" d="M388 195q-5 0 -44 -2.5t-42 -2.5q-11 0 -9 9l23 101q39 166 54 226q-38 -95 -83 -149t-86 -54q-34 0 -52 26t-18 66q0 105 70.5 192.5t178.5 87.5q70 0 121 -23l-18 -58l-72 -314zM223 418q0 -43 21 -43q25 0 70.5 78.5t76.5 170.5l10 40q-17 10 -36 10q-50 0 -96 -90 t-46 -166z" />
<glyph horiz-adv-x="341" d="M234 329q-45 -5 -86 -5q-11 0 -9 9l23 101l12 48l16 71q15 69 15 78q0 12 -7 12q-18 0 -66 -68l-7 3q18 47 50.5 82t70.5 35q22 0 35 -12.5t13 -36.5q0 -36 -31 -148q37 92 79 144.5t83 52.5q17 0 26.5 -11t9.5 -28q0 -36 -29 -70q-28 18 -54 18q-33 0 -64.5 -46 t-56.5 -124z" />
<glyph horiz-adv-x="333" d="M400 424q0 -46 -40.5 -73.5t-114.5 -27.5q-54 0 -91 19t-37 51q0 21 20 36.5t57 21.5l6 -3q-7 -33 -3 -53q6 -49 55 -49q24 0 39 13.5t15 36.5t-22.5 47.5t-49 43.5t-49 48t-22.5 59q0 45 39 73t104 28q55 0 90 -19.5t35 -50.5q0 -20 -19 -35.5t-50 -20.5l-6 3q2 35 0 52 q-3 23 -16 35.5t-33 12.5q-23 0 -37 -13t-14 -35q0 -23 22.5 -48.5t49.5 -44.5t49.5 -48t22.5 -59z" />
<glyph horiz-adv-x="265" d="M353 441q-21 -48 -58 -83t-81 -35q-30 0 -47 16.5t-17 46.5q0 15 8 53l49 211h-59l1 7l65 21l108 93l6 -1l-23 -99h88l-4 -21h-88l-48 -211q-8 -38 -8 -47q0 -16 16 -16q26 0 86 67z" />
<glyph horiz-adv-x="443" d="M394 516q-40 -91 -87 -142t-93 -51q-28 0 -44 15.5t-16 42.5q0 21 7.5 55t21 83t17.5 65q9 33 9 49q0 10 -6 10q-14 0 -68 -68l-6 3q20 48 53 82.5t71 34.5q50 0 50 -57q0 -20 -8 -54q-5 -24 -17 -66t-19.5 -73t-7.5 -47q0 -18 15 -18q27 0 67 59t70 145l23 105 q45 5 86 5q10 0 8 -8l-50 -220q-15 -64 -15 -79q0 -11 7 -11q17 0 66 67l7 -2q-18 -48 -50.5 -83t-70.5 -35q-22 0 -35.5 12.5t-13.5 36.5q0 42 31 144h-2z" />
<glyph horiz-adv-x="361" d="M174 330q11 136 11 198q0 48 -2 73t-6.5 33.5t-11.5 8.5q-22 0 -66 -68l-6 3q16 47 49.5 82t75.5 35q63 0 63 -97q0 -89 -27 -230q55 68 86.5 142.5t31.5 131.5q0 27 -5 45q18 8 42 8q58 0 58 -57q0 -65 -63 -147.5t-172 -164.5z" />
<glyph horiz-adv-x="555" d="M411 695q62 0 62 -78q0 -93 -26 -251q55 68 87 143t32 133q0 18 -5 45q16 8 41 8q59 0 59 -57q0 -65 -63 -147.5t-173 -164.5l-56 3q6 152 7 192q-43 -97 -144 -195l-58 4q11 136 11 198q0 48 -2 73t-6.5 33.5t-11.5 8.5q-18 0 -66 -68l-6 3q17 48 50 82.5t75 34.5 q63 0 63 -97q0 -85 -26 -224q120 148 120 275q0 20 -4 38q18 8 40 8z" />
<glyph horiz-adv-x="372" d="M202 328q-18 -6 -41 -6t-37 10.5t-14 29.5q0 67 138 142l-22 70q-12 40 -18.5 52.5t-15.5 12.5q-16 0 -63 -64l-6 3q21 51 52 83.5t65 32.5t51 -31q8 -15 31 -79l18 -56q53 82 53 136q0 18 -2 26q14 7 39 7q23 0 37.5 -11t14.5 -29q0 -67 -137 -144l23 -70 q13 -40 19.5 -52.5t14.5 -12.5q20 0 63 64l6 -4q-20 -50 -51.5 -82.5t-65.5 -32.5t-51 31q-8 14 -31 79l-19 57q-53 -78 -53 -135q0 -19 2 -27z" />
<glyph horiz-adv-x="376" d="M298 578q0 -114 -53 -234q69 61 104.5 141.5t35.5 154.5q0 27 -5 47q16 8 43 8q57 0 57 -61q0 -82 -65.5 -170t-180.5 -143q-65 -130 -160 -130q-32 0 -51.5 12.5t-19.5 31.5q0 13 11.5 23.5t29.5 13.5q16 -49 39 -49q45 0 80 121.5t35 229.5q0 69 -20 69t-62 -68l-7 3 q16 48 48 82.5t72 34.5q69 0 69 -117z" />
<glyph horiz-adv-x="319" d="M179 348q-44 0 -80 -25l-11 11q136 142 221 245q-65 27 -105 27q-20 0 -33.5 -12.5t-29.5 -45.5l-7 3q16 78 35.5 110.5t57.5 32.5q45 0 122 -65q6 7 16 20.5t18.5 24.5t16.5 21q39 -2 39 -29q0 -21 -34 -46q-21 -21 -222 -216q23 11 50 11q21 0 59.5 -6.5t49.5 -6.5 q25 0 62 63l7 -3q-8 -28 -13 -43.5t-14 -36.5t-17 -32t-19.5 -19t-24.5 -8q-19 0 -68 12.5t-76 12.5z" />
<glyph horiz-adv-x="395" d="M34 -65l76 327l11 51l-59 17v7q56 11 158 19l4 -6l-20 -88q-30 -127 -66 -244v-1q38 97 83 151.5t88 54.5q34 0 52.5 -27t18.5 -69q0 -65 -26.5 -127t-80.5 -105.5t-122 -43.5q-83 0 -135 27zM266 172q-25 0 -65 -62t-68 -152l-17 -75q20 -11 45 -11q49 0 88 88.5 t39 164.5q0 47 -22 47z" />
<glyph horiz-adv-x="344" d="M318 -31q-21 -49 -66 -83.5t-97 -34.5q-51 0 -84.5 33.5t-33.5 94.5q0 95 63 169.5t145 74.5q45 0 70.5 -22.5t25.5 -57.5q0 -28 -17 -49t-43 -21q-19 0 -36 7q19 49 19 82q0 39 -28 39q-36 0 -67.5 -66t-31.5 -131q0 -47 17.5 -72.5t48.5 -25.5q53 0 110 67z" />
<glyph horiz-adv-x="421" d="M246 -38l18 78q-38 -89 -81 -139t-83 -50q-34 0 -52 26t-18 66q0 105 71 192.5t178 87.5q19 0 28 -1l10 40l11 52l-59 16v7q54 10 158 19l5 -6l-20 -88l-71 -300q-9 -33 -9 -49q0 -10 6 -10q16 0 68 68l6 -3q-19 -47 -52.5 -82t-71.5 -35q-50 0 -50 57q0 20 8 54z M143 -98q25 0 71.5 80t78.5 176l7 34q-17 10 -35 10q-50 0 -96 -90.5t-46 -166.5q0 -43 20 -43z" />
<glyph horiz-adv-x="244" d="M124 -116q-17 -81 -64.5 -123.5t-109.5 -42.5q-36 0 -59 14.5t-23 35.5q0 13 11 22t28 11q20 -46 45 -46q27 0 43.5 27.5t31.5 91.5l69 304h-58l1 6l62 16l3 13q13 59 61 101t109 42q35 0 57 -14t22 -36q0 -26 -35 -35q-33 48 -66 48q-11 0 -19.5 -5t-13.5 -18.5 t-7.5 -22.5t-6.5 -30t-6 -29l-3 -15h95l-5 -21h-95z" />
<glyph horiz-adv-x="340" d="M305 -185q0 -41 -54.5 -69t-134.5 -28q-69 0 -116 20.5t-47 53.5q0 23 24 41.5t66 28.5l5 -3q-22 -17 -22 -33q1 -39 26 -63t71 -24q32 0 56 13.5t24 34.5q0 14 -19.5 27.5t-43.5 23t-43.5 24.5t-19.5 31q0 36 98 74q-4 -1 -12 -1q-57 0 -91.5 27.5t-34.5 73.5 q0 64 51.5 110t128.5 46q137 0 176 8q5 -10 5 -23q0 -33 -29 -33q-19 0 -89 16q48 -27 48 -80q0 -42 -25.5 -76t-55.5 -51.5t-55.5 -33.5t-25.5 -25t21.5 -19.5t48 -20t48 -28.5t21.5 -42zM129 55q0 -30 9.5 -48.5t28.5 -17.5q26 0 47 49t21 106q0 60 -34 60 q-29 0 -50.5 -47t-21.5 -102z" />
<glyph horiz-adv-x="237" d="M175 276q-48 0 -48 37q0 24 21 41t48 17q48 0 48 -37q0 -24 -20.5 -41t-48.5 -17zM35 103l-6 3q21 48 54 82.5t71 34.5q49 0 49 -57q0 -30 -27.5 -133.5t-27.5 -119.5q0 -10 6 -10q16 0 68 68l5 -3q-18 -47 -51.5 -82t-71.5 -35q-50 0 -50 57q0 28 28 128t28 125 q0 10 -7 10q-14 0 -68 -68z" />
<glyph horiz-adv-x="414" d="M287 -277q-5 0 -44 -2.5t-42 -2.5q-11 0 -8 9l22 101q27 115 55 226q-39 -95 -84 -149t-85 -54q-35 0 -53 26t-18 66q0 105 71 192.5t178 87.5q71 0 122 -23l-19 -58l-71 -314zM122 -55q0 -43 21 -43q25 0 71 79t76 171l11 40q-18 10 -36 10q-50 0 -96.5 -90.5 t-46.5 -166.5z" />
<glyph horiz-adv-x="341" d="M134 -143q-45 -5 -86 -5q-5 0 -7.5 2t-1.5 6l23 102l12 48l16 71q15 69 15 78q0 12 -7 12q-18 0 -66 -68l-7 3q18 47 50.5 82t70.5 35q22 0 35 -12.5t13 -36.5q0 -36 -31 -148q37 92 79 144.5t83 52.5q17 0 26.5 -11t9.5 -28q0 -36 -29 -70q-28 18 -54 18 q-33 0 -64.5 -46t-56.5 -124z" />
<glyph horiz-adv-x="444" d="M294 44q-40 -92 -87 -142.5t-93 -50.5q-28 0 -44 15.5t-16 42.5q0 20 7.5 54t21 83.5t17.5 65.5q9 33 9 49q0 10 -6 10q-14 0 -68 -68l-6 3q20 48 53 82.5t71 34.5q50 0 50 -57q0 -20 -8 -54q-5 -24 -17 -66t-19.5 -73t-7.5 -47q0 -19 15 -19q27 0 67 59t70 146l23 105 q45 5 86 5q10 0 8 -8l-50 -221q-15 -63 -15 -78q0 -12 7 -12q16 0 66 68l7 -3q-18 -47 -50.5 -82t-70.5 -35q-49 0 -49 49q0 40 31 144h-2z" />
<glyph horiz-adv-x="361" d="M74 -143q11 136 11 199q0 48 -2 73t-6.5 33.5t-11.5 8.5q-22 0 -66 -68l-7 3q17 47 50.5 82t75.5 35q63 0 63 -97q0 -89 -27 -230q55 68 86.5 142.5t31.5 131.5q0 27 -5 45q18 8 42 8q58 0 58 -57q0 -65 -63 -147.5t-172 -164.5z" />
<glyph horiz-adv-x="555" d="M311 223q62 0 62 -78q0 -93 -26 -251q55 68 87 143t32 133q0 18 -5 45q16 8 41 8q59 0 59 -57q0 -65 -63.5 -148t-172.5 -164l-56 3q6 152 7 192q-43 -97 -144 -195l-58 3q11 136 11 199q0 48 -2 73t-6.5 33.5t-11.5 8.5q-18 0 -66 -68l-7 3q18 48 51 82.5t75 34.5 q63 0 63 -97q0 -85 -26 -224q120 148 120 275q0 20 -4 38q18 8 40 8z" />
<glyph horiz-adv-x="376" d="M197 107q0 -115 -53 -235q69 61 104.5 141.5t35.5 154.5q0 23 -4 47q16 8 42 8q58 0 57 -61q0 -82 -65 -170t-181 -143q-65 -131 -160 -131q-32 0 -51.5 13t-19.5 31q0 14 11.5 24t29.5 13q17 -48 39 -48q46 0 80.5 121t34.5 230q0 69 -20 69q-18 0 -62 -68l-6 3 q16 48 48 82.5t72 34.5q68 0 68 -116z" />
<glyph horiz-adv-x="318" d="M78 -125q-46 0 -80 -24l-11 11q136 142 221 245q-65 27 -105 27q-20 0 -33.5 -12.5t-29.5 -45.5l-7 3q16 78 35.5 110.5t57.5 32.5q45 0 122 -65q6 7 16 20.5t18.5 24.5t16.5 21q39 -2 39 -29q0 -21 -34 -46q-21 -21 -222 -216q23 11 50 11q21 0 59.5 -7t49.5 -7 q25 0 62 64l7 -4q-11 -35 -17.5 -53.5t-17 -41.5t-24 -33t-29.5 -10q-18 0 -67 12t-77 12z" />
<glyph horiz-adv-x="584" d="M622 424q0 -111 -42 -211t-116.5 -161.5t-161.5 -61.5q-96 0 -149 62.5t-53 167.5q0 175 96 307.5t229 132.5q95 0 146 -63t51 -173zM226 160q0 -66 19.5 -102.5t57.5 -36.5q49 0 95.5 83.5t72 192.5t25.5 197q0 135 -72 135q-51 0 -98 -79.5t-73.5 -187.5t-26.5 -202z " />
<glyph horiz-adv-x="369" d="M335 0h-290v13l68 12q22 5 28 31l117 540l-96 -5l1 10l223 59l7 -7l-130 -597l-5 -22l80 -21z" />
<glyph horiz-adv-x="488" d="M163 15q-61 0 -111 -25l-15 60q190 139 272.5 234.5t82.5 182.5q0 47 -26 73.5t-72 26.5q-98 0 -161 -112l-8 5q30 92 93 146t148 54q74 0 119.5 -44t45.5 -116q0 -47 -24.5 -93.5t-73 -93t-95.5 -82.5t-118 -84q-50 -34 -76 -50q35 9 76 9q36 0 105 -8.5t88 -8.5 q18 0 31.5 18t29.5 57l8 -3q-14 -73 -27 -112q-20 -59 -57 -59q-27 0 -109 12.5t-126 12.5z" />
<glyph horiz-adv-x="448" d="M453 206q0 -94 -113.5 -152.5t-309.5 -63.5l-2 17q138 23 214.5 75t76.5 128q0 47 -32 71.5t-85 24.5q-21 0 -42 -3l-4 29q101 16 157 60t56 103q0 36 -22 56.5t-61 20.5q-45 0 -84 -26t-66 -73l-8 5q27 82 91 132t140 50q66 0 104.5 -34.5t38.5 -90.5 q0 -74 -64.5 -126.5t-168.5 -71.5q81 -3 132.5 -38.5t51.5 -92.5z" />
<glyph horiz-adv-x="537" d="M65 210l417 450l71 -12l-90 -420l93 2l-16 -72l-91 1l-34 -159h-120l34 160l-262 4zM411 545l-288 -325l220 5z" />
<glyph horiz-adv-x="465" d="M470 233q0 -104 -112.5 -172.5t-302.5 -70.5l-1 17q128 18 205.5 72t77.5 130q0 45 -32 69.5t-90 24.5q-41 0 -74 -10l-13 13l78 348q194 -7 264 -7q24 0 37.5 11.5t28.5 42.5l9 -3q-10 -46 -15.5 -67t-16.5 -44t-26 -31.5t-38 -8.5q-72 0 -228 15l-43 -194q44 10 100 10 q90 0 141 -38.5t51 -106.5z" />
<glyph horiz-adv-x="545" d="M100 200q0 186 142.5 316t356.5 144l1 -19q-132 -36 -230.5 -132.5t-134.5 -228.5q28 58 77.5 91t108.5 33q65 0 104 -41.5t39 -115.5q0 -106 -76.5 -181.5t-182.5 -75.5q-96 0 -150.5 56.5t-54.5 153.5zM438 238q1 57 -17.5 89t-53.5 32q-51 0 -95.5 -69.5t-45.5 -160.5 q0 -51 20 -80t59 -29q54 0 92.5 65.5t40.5 152.5z" />
<glyph horiz-adv-x="438" d="M254 22q-18 -32 -57 -32q-25 0 -46 15.5t-32 38.5q10 14 60 83t63 88t52 74t58 83.5t46.5 71t50.5 80.5q-159 34 -240 34q-33 0 -50 -16t-33 -57l-9 2q15 87 39.5 130t74.5 43q106 0 233 -111l-2 -4q33 54 64 115q21 -3 21 -24q0 -26 -116.5 -270t-176.5 -344z" />
<glyph horiz-adv-x="527" d="M521 178q0 -84 -70 -136t-174 -52q-89 0 -147 38.5t-58 102.5q-1 65 53 111t148 69q-49 43 -76.5 83t-27.5 92q0 77 64 125.5t155 48.5q83 0 133.5 -38t50.5 -96q0 -114 -170 -171q29 -24 44.5 -38.5t36 -38t29.5 -48.5t9 -52zM281 527q0 -44 25.5 -78.5t74.5 -76.5 q91 73 91 160q0 44 -23 71t-64 27q-44 0 -74 -29.5t-30 -73.5zM187 125q0 -49 29.5 -77t72.5 -28q51 0 84 32.5t32 84.5q0 22 -7.5 42t-28.5 43t-32.5 33.5t-43.5 38.5q-106 -77 -106 -169z" />
<glyph horiz-adv-x="547" d="M585 451q0 -186 -142 -316.5t-356 -144.5l-1 19q131 36 230 132.5t134 228.5q-28 -58 -77.5 -90.5t-108.5 -32.5q-65 0 -103.5 41.5t-38.5 115.5q0 106 76.5 181t181.5 75q97 0 151 -56t54 -153zM248 412q-1 -57 17.5 -89t53.5 -32q51 0 95.5 70t44.5 160q1 51 -19.5 80 t-58.5 29q-55 0 -93 -65t-40 -153z" />
<glyph horiz-adv-x="540" d="M559 311q-1 -131 -82 -226.5t-195 -95.5q-89 0 -141 55t-52 146q0 132 81.5 226t196.5 94q91 0 142 -55t50 -144zM209 154q0 -64 21 -99t56 -35q40 0 76.5 57.5t56 133.5t20.5 140q0 129 -73 129q-43 0 -80.5 -57t-57 -131.5t-19.5 -137.5z" />
<glyph horiz-adv-x="369" d="M336 0h-291v13l69 12q23 5 28 31l83 390l-96 -5l1 10l223 59l7 -7l-97 -447l-5 -22l81 -21z" />
<glyph horiz-adv-x="456" d="M157 15q-52 0 -99 -25l-15 60q152 93 219.5 161t67.5 128q0 36 -23 57t-59 21q-79 0 -137 -94l-8 5q27 84 87.5 133t138.5 49q62 0 101.5 -35t39.5 -92q0 -69 -62.5 -128t-187.5 -125q-47 -30 -73 -46q32 11 72 11q30 0 87 -7.5t71 -7.5q12 0 21 4t17.5 15.5t13 20.5 t13.5 29l9 -3q-13 -64 -26 -102q-19 -54 -55 -54q-22 0 -95.5 12.5t-117.5 12.5z" />
<glyph horiz-adv-x="448" d="M425 56q0 -94 -113.5 -152.5t-309.5 -63.5l-2 17q138 22 214.5 74t76.5 129q0 47 -32 71.5t-85 24.5q-21 0 -42 -3l-4 29q101 16 157 60t56 103q0 36 -22 56.5t-61 20.5q-45 0 -84 -26t-66 -73l-8 5q27 82 91 132t140 50q66 0 104.5 -34.5t38.5 -90.5q0 -74 -64.5 -126.5 t-168.5 -71.5q81 -3 132.5 -38.5t51.5 -92.5z" />
<glyph horiz-adv-x="521" d="M25 60l417 450l71 -12l-90 -420l93 2l-16 -72l-91 1l-34 -159h-120l34 160l-262 4zM371 395l-288 -325l220 5z" />
<glyph horiz-adv-x="456" d="M442 83q0 -104 -112.5 -172.5t-302.5 -70.5l-1 17q129 18 206 71.5t77 130.5q0 45 -32 69.5t-90 24.5q-41 0 -74 -10l-13 13l78 348q194 -7 264 -7q24 0 37.5 11.5t28.5 42.5l9 -3q-10 -46 -15.5 -67t-16.5 -44t-26 -31.5t-38 -8.5q-72 0 -228 15l-43 -194q44 10 100 10 q90 0 141 -38.5t51 -106.5z" />
<glyph horiz-adv-x="551" d="M111 200q0 186 142 316t356 144l1 -19q-132 -36 -230.5 -132.5t-133.5 -228.5q28 58 77 91t109 33q65 0 103.5 -41.5t38.5 -115.5q0 -106 -76.5 -181.5t-181.5 -75.5q-97 0 -151 56.5t-54 153.5zM448 238q1 57 -17.5 89t-53.5 32q-51 0 -95.5 -70t-44.5 -160 q-1 -51 19.5 -80t58.5 -29q55 0 93 65t40 153z" />
<glyph horiz-adv-x="445" d="M232 -128q-20 -32 -57 -32q-51 0 -79 54q12 17 59.5 83t63 87.5t53 74.5t57.5 83t47.5 72t50.5 80q-161 34 -240 34q-33 0 -50.5 -16t-33.5 -57l-9 2q15 87 40 130t75 43q103 0 233 -111l-2 -4q30 51 64 115q21 -3 21 -24q0 -26 -116.5 -269.5t-176.5 -344.5z" />
<glyph horiz-adv-x="522" d="M515 178q0 -84 -70 -136t-173 -52q-89 0 -147.5 38.5t-58.5 102.5q0 65 53.5 111t147.5 69q-49 43 -76 83t-27 92q0 77 64 125.5t155 48.5q83 0 133 -38t50 -96q0 -114 -170 -171q38 -31 59 -51.5t40.5 -55t19.5 -70.5zM275 527q0 -31 15.5 -60.5t34 -48t50.5 -46.5 q92 74 92 160q0 44 -23 71t-64 27q-45 0 -75 -29.5t-30 -73.5zM181 125q0 -49 29.5 -77t72.5 -28q51 0 84 32.5t33 84.5q0 23 -8 43t-28.5 42.5t-32.5 34t-43 37.5q-107 -78 -107 -169z" />
<glyph horiz-adv-x="577" d="M563 301q0 -186 -142 -316.5t-356 -144.5l-1 19q131 36 230 132.5t134 228.5q-28 -58 -77.5 -90.5t-108.5 -32.5q-65 0 -103.5 41.5t-38.5 115.5q0 106 76.5 181t181.5 75q97 0 151 -56t54 -153zM226 262q-1 -57 17.5 -89t53.5 -32q51 0 95.5 70t44.5 160q1 51 -19.5 80 t-58.5 29q-55 0 -93 -65t-40 -153z" />
<glyph horiz-adv-x="404" d="M467 516q0 -94 -56.5 -163t-140.5 -69q-63 -1 -98.5 37.5t-35.5 101.5q0 95 56.5 164t139.5 69q63 0 99 -38t36 -102zM227 380q0 -74 45 -74q42 0 72 81t30 173q0 74 -45 74q-43 0 -72.5 -81t-29.5 -173z" />
<glyph horiz-adv-x="271" d="M292 288h-185v8l36 6q15 4 19 19l65 295l-55 -2v7l152 35l4 -4l-75 -331l-4 -14l45 -11z" />
<glyph horiz-adv-x="346" d="M184 299q-40 0 -70 -16l-11 37q110 75 156.5 124t46.5 97q0 27 -16 42.5t-44 15.5q-57 0 -93 -61l-6 3q19 53 58.5 83.5t95.5 30.5q48 0 78 -25.5t30 -66.5q0 -51 -47 -96.5t-137 -94.5q-28 -16 -43 -24q22 6 46 6q20 0 59.5 -6t52.5 -6q18 0 38 42l6 -1q-10 -43 -18 -66 q-14 -34 -38 -34q-19 0 -68 8t-76 8z" />
<glyph horiz-adv-x="321" d="M365 400q0 -52 -71.5 -83.5t-197.5 -34.5l-2 13q82 11 126.5 38.5t44.5 67.5q0 26 -19 40t-50 14q-6 0 -26 -2l-3 18q59 9 91 32t32 56q0 19 -13.5 31t-36.5 12q-54 0 -87 -54l-5 3q16 47 55.5 76t89.5 29q44 0 70 -20.5t26 -54.5q0 -39 -35.5 -66.5t-93.5 -39.5 q47 -2 76 -22.5t29 -52.5z" />
<glyph horiz-adv-x="382" d="M118 406l253 250l53 -8l-50 -231l57 1l-11 -43h-55l-18 -87h-90l18 88l-157 2v28zM316 575l-158 -163l125 3z" />
</font>
</defs>
</svg>
