<?xml version="1.0" standalone="no"?>
<!DOCTYPE svg PUBLIC "-//W3C//DTD SVG 1.1//EN" "http://www.w3.org/Graphics/SVG/1.1/DTD/svg11.dtd" >
<svg xmlns="http://www.w3.org/2000/svg" xmlns:xlink="http://www.w3.org/1999/xlink" version="1.1">
<metadata></metadata>
<defs>
<font id="indivisa_display_sansregular" horiz-adv-x="610" >
<font-face units-per-em="1000" ascent="815" descent="-185" />
<missing-glyph horiz-adv-x="205" />
<glyph unicode="&#x2f;symbol&#x33;&#x2f;" horiz-adv-x="957" d="M505 638l68 -270h270l-203 -135l136 -270l-271 135l-270 -270l135 405l-270 203l338 -68zM814 87q18 0 30.5 -12.5t12.5 -31.5q0 -18 -12.5 -30.5t-30.5 -12.5t-30.5 12.5t-12.5 30.5q0 19 12.5 31.5t30.5 12.5zM854 43q0 17 -11.5 29t-28.5 12t-28.5 -12t-11.5 -29 t12 -28.5t28 -11.5t28 11.5t12 28.5zM796 68h18q8 0 11 -2q6 -3 6 -10q0 -5 -4 -9q-3 -3 -6 -3q7 -3 8 -10q2 -14 3 -16h-7q-1 2 -2 7.5t-1 6.5q0 9 -10 9h-9v-23h-7v50zM803 47h10q5 0 7 1q3 3 3 6q0 9 -10 9h-10v-16z" />
<glyph unicode="&#x2f;symbol&#x32;&#x2f;" horiz-adv-x="932" d="M494 570l52 -90l-137 -240h-103l137 240l-52 90h103zM357 570l52 -90l-138 -240h-103l138 240l-52 90h103zM752 120h-103l-137 240l51 90l137 -240h103zM683 0h-103l-137 240l51 90l138 -240h103zM100 120l51 90h275l51 -90h-274l-52 -90zM168 0l52 90h274l52 -90h-275 l-51 -90zM789 88q18 0 30.5 -13t12.5 -31t-12.5 -31t-30.5 -13t-30.5 13t-12.5 31t12.5 31t30.5 13zM829 44q0 16 -11.5 28t-28.5 12t-28.5 -12t-11.5 -28t11.5 -28t28.5 -12t28.5 12t11.5 28zM771 69h18q7 0 11 -2q5 -4 5 -11q0 -5 -3 -8q-1 -2 -6 -4q7 -1 8 -9q0 -8 3 -16 h-8q-1 2 -1.5 6.5t-0.5 6.5q-1 10 -11 10h-8v-23h-7v50zM778 47h10q5 0 7 1q3 3 3 7q0 8 -10 8h-10v-16z" />
<glyph unicode="&#x2f;symbol&#x31;&#x2f;" horiz-adv-x="5534" d="M1865 412q-25 0 -40.5 14.5t-15.5 37.5q0 35 32.5 64t70.5 29q24 0 39 -13.5t15 -37.5q0 -36 -31 -65t-70 -29zM1284 412q-26 0 -41.5 14.5t-15.5 37.5q0 35 33 64t71 29q24 0 38.5 -13.5t14.5 -37.5q0 -36 -31 -65t-69 -29zM959 0q0 42 11 108q-16 -50 -51.5 -82.5 t-78.5 -32.5q-41 0 -63 29.5t-22 82.5q0 62 27 121t84 101t132 42q17 0 25 -1l16 73l6 102l136 7q0 -67 -46 -273t-46 -277h-130zM100 0l78 364q17 86 21 136l128 7l11 -15l-104 -492h-134zM3503 492l-57 -492h-131l20 175q5 50 33 215h-3q-31 -102 -81 -215l-76 -175h-149 l-2 175q-2 121 9 215h-2q-32 -130 -59 -215l-53 -175h-109l154 500l184 6l1 -137q2 -134 -15 -259h2q39 126 94 259l56 131l169 7zM5316 300q-37 -177 -37 -183q0 -34 36 -34q25 0 59 18l-9 -79q-52 -29 -114 -29q-105 0 -105 100q0 20 40 210l-47 1l9 44l54 14l53 95l81 6 l13 -15l-20 -86h99l6 -14l-17 -51zM336 0q0 79 41 260l6 102l137 7q0 -31 -7 -89h2q52 89 134 89q34 0 53 -19.5t19 -51.5q0 -27 -26 -147q-18 -85 -18 -151h-131q0 55 19 150q15 78 15 87q0 24 -17 24q-34 0 -64 -82.5t-32 -178.5h-131zM1170 0q0 72 27 193l14 67l6 102 l137 7q0 -46 -27 -177t-27 -192h-130zM1399 362l140 7q13 -129 -5 -289h2q76 151 91 284q22 5 50 5q32 0 48.5 -8.5t16.5 -33.5q0 -46 -51 -147.5t-116 -179.5h-149q-5 228 -27 362zM1752 0q0 69 26 193l15 67l6 102l137 7q0 -46 -27 -177t-27 -192h-130zM4716 0 q0 79 41 260l6 102l137 7q0 -12 -7 -89h2q52 89 134 89q34 0 53 -19.5t19 -51.5q0 -27 -26 -147q-19 -90 -19 -151h-130q0 55 19 150q15 78 15 87q0 24 -17 24q-35 0 -65 -82t-32 -179h-130zM2245 256q-52 30 -97 30q-18 0 -30 -7t-12 -19q0 -14 20 -26.5t44 -22t44 -33 t20 -56.5q0 -57 -53 -93t-128 -36q-78 0 -118 28l27 93q57 -38 111 -38q19 0 29.5 7.5t10.5 18.5q0 13 -20 26t-44 23t-44 33t-20 55q0 56 54.5 93t128.5 37q58 0 104 -18zM2525 369q88 0 146 -32l-29 -128q-31 -145 -31 -209h-130q0 37 12 112q-15 -52 -51 -85.5t-81 -33.5 q-41 0 -62.5 29.5t-21.5 83.5q0 62 26.5 120.5t85 100.5t136.5 42zM4653 51q-67 -58 -159 -58q-65 0 -103.5 35t-38.5 102q0 94 68.5 166.5t167.5 72.5q54 0 86.5 -23.5t32.5 -64.5q0 -57 -60 -96.5t-161 -43.5v-1q0 -64 63 -64q42 0 90 28zM3936 0q0 74 42 260l5 102l137 7 q0 -31 -7 -89h2q53 89 134 89q34 0 53 -19.5t19 -51.5q0 -27 -26 -147q-18 -85 -18 -151h-131q0 55 19 150q15 71 15 87q0 24 -17 24q-34 0 -64 -82.5t-32 -178.5h-131zM3768 369q87 0 145 -32l-28 -128q-31 -145 -31 -209h-130q0 45 12 112q-15 -52 -51 -85.5t-81 -33.5 q-41 0 -63 29.5t-22 83.5q0 46 16 91.5t46 84t79 63t108 24.5zM4490 177q47 10 73 34t26 59q0 31 -22 31q-28 0 -48.5 -38.5t-28.5 -85.5zM3677 101q23 0 47 43t38 101q1 8 4.5 24.5t4.5 19.5q-16 8 -27 8q-34 0 -62.5 -54.5t-28.5 -101.5q0 -40 24 -40zM913 101 q22 0 44.5 39.5t37.5 94.5q1 9 8 40l3 14q-14 8 -27 8q-33 0 -61.5 -54.5t-28.5 -101.5q0 -40 24 -40zM2435 101q23 0 47 43.5t37 100.5q3 14 9 44q-14 8 -27 8q-34 0 -62 -54.5t-28 -101.5q0 -40 24 -40z" />
<glyph unicode="&#x2f;symbol&#x35;&#x2f;" horiz-adv-x="705" d="M232 -6l-132 136l124 234l129 -136zM474 -6l-121 234l128 136l124 -234z" />
<glyph unicode="&#x2f;symbol&#x34;&#x2f;" horiz-adv-x="2607" d="M1684 406q0 65 -11 128l126 14l15 -15v-533h-130v406zM1889 406q0 62 -10 128l126 14l14 -15v-533h-130v406zM427 101v-101h-320v362q0 80 -7 135l126 7l14 -14v-396zM925 21l7 109q62 -36 144 -36q50 0 50 36q0 20 -31.5 41.5t-69 40.5t-69 57t-31.5 88q0 69 55 108 t138 39q80 0 127 -18l-14 -111q-56 29 -111 29q-27 0 -42.5 -11t-15.5 -29q0 -20 20.5 -38t50 -34t59.5 -35t50.5 -51t20.5 -72q0 -66 -53.5 -103.5t-139.5 -37.5q-41 0 -83.5 8t-61.5 20zM795 0l-106 -7q-11 16 -21 49h-4q-34 -49 -104 -49q-43 0 -70 23t-27 66 q0 113 191 118v20q0 54 -58 54q-55 0 -108 -29l-8 97q72 26 150 26q154 0 154 -135q0 -25 -2 -69t-2 -70q0 -51 15 -94zM1626 0l-107 -7q-12 20 -21 49h-3q-34 -49 -105 -49q-43 0 -69.5 23t-26.5 66q0 113 191 118v20q0 54 -58 54q-54 0 -109 -29l-7 97q72 26 150 26 q153 0 153 -135q0 -25 -1.5 -69.5t-1.5 -69.5q0 -51 15 -94zM2405 213q0 -24 -1 -36l-11 -11h-191q14 -83 98 -83q44 0 84 21l7 -81q-46 -30 -127 -30q-90 0 -144 47.5t-54 134.5q0 85 52 139t132 54q72 0 113.5 -43t41.5 -112zM2199 207l78 4q2 14 2 26q0 59 -34 59 q-44 0 -46 -89zM654 74v88q-29 -3 -47 -18t-18 -39q0 -18 10 -29t27 -11q16 0 28 9zM1485 74v88q-29 -3 -47 -18t-18 -39q0 -18 10 -29t27 -11q16 0 28 9zM2464 85q18 0 30.5 -13t12.5 -31t-12.5 -31t-30.5 -13t-31 13t-13 31t13 31t31 13zM2504 41q0 17 -12 28.5t-28 11.5 t-28 -11.5t-12 -28.5t12 -28.5t28 -11.5t28 11.5t12 28.5zM2446 66h18q7 0 11 -3q5 -3 5 -10q0 -5 -3 -9q-3 -3 -6 -3q7 -1 8 -10q0 -7 3 -15h-8q-1 2 -1.5 6.5t-0.5 6.5q-1 9 -11 9h-8v-22h-7v50zM2453 44h10q5 0 7 1q3 3 3 7q0 8 -10 8h-10v-16z" />
<glyph unicode=" "  horiz-adv-x="205" />
<glyph unicode="&#x09;" horiz-adv-x="205" />
<glyph unicode="&#xa0;" horiz-adv-x="205" />
<glyph unicode="!" horiz-adv-x="287" d="M187 164h-83q-12 376 -24 504l126 10q4 -48 4 -134q0 -175 -23 -380zM210 44q0 -30 -20.5 -48.5t-50.5 -18.5q-27 0 -44 15t-17 41q0 29 20 48.5t51 19.5q27 0 44 -15t17 -42z" />
<glyph unicode="&#x22;" horiz-adv-x="377" d="M147 695l-27 -275h-40l-27 275h94zM325 695l-28 -275h-39l-28 275h95z" />
<glyph unicode="#" horiz-adv-x="695" d="M594 179h-139l-46 -189l-57 8l-6 7l43 174h-146l-46 -189l-57 8l-6 7l43 174h-126l-6 5l8 52h138l44 179h-135l-6 5l7 52h148l47 188l56 -8l6 -6l-43 -174h146l47 188l56 -8l6 -6l-43 -174h117l6 -5l-8 -52h-129l-44 -179h126l6 -5zM257 236h146l44 179h-146z" />
<glyph unicode="$" horiz-adv-x="486" d="M215 -123v113q-99 4 -167 36l16 106q80 -52 157 -52q45 0 70 22.5t25 56.5q0 32 -26.5 60t-64 51t-75.5 49t-64.5 67t-26.5 93q0 72 46.5 119.5t124.5 58.5v113l50 3v-113q88 -2 150 -32l-21 -100q-66 43 -133 43q-45 0 -70 -23.5t-25 -58.5q0 -29 19 -54t47.5 -43.5 t62 -41.5t62 -46t47.5 -59t19 -79q1 -72 -45.5 -118.5t-127.5 -55.5v-112z" />
<glyph unicode="%" horiz-adv-x="942" d="M307 -10h-73l400 670h73zM382 474q0 -92 -48.5 -140t-120.5 -48t-116 46.5t-44 133.5q0 90 48 140t122 50q73 0 116 -48.5t43 -133.5zM140 473q0 -65 19.5 -103t57.5 -38t58 36t20 96q0 146 -77 146q-78 0 -78 -137zM889 182q0 -92 -48.5 -140t-120.5 -48t-116 46.5 t-44 133.5q0 90 48 140t122 50q73 0 116 -48.5t43 -133.5zM647 181q0 -65 19.5 -103t57.5 -38t58 36t20 96q0 146 -77 146q-78 0 -78 -137z" />
<glyph unicode="&#x26;" horiz-adv-x="777" d="M358 593q-33 0 -57 -22t-24 -62q0 -29 15.5 -62t31.5 -54t44 -54l124 -147q30 -33 31 -34q30 62 30 134q0 40 -7 75l114 14q3 -161 -88 -268q47 -35 89 -35q38 0 59 16l9 -78q-37 -26 -95 -26q-74 0 -140 56q-89 -56 -195 -56q-101 0 -162.5 46t-61.5 118q0 60 46 107.5 t114 71.5q-84 100 -84 174q0 65 53 109t142 44q60 0 109 -23.5t76 -60.5l-52 -79q-49 96 -121 96zM206 190q0 -63 42.5 -103t107.5 -40q58 0 102 33l-42 48l-140 158q-3 4 -9.5 11.5t-10.5 11.5q-50 -48 -50 -119z" />
<glyph unicode="'" horiz-adv-x="200" d="M147 695l-27 -275h-40l-27 275h94z" />
<glyph unicode="(" horiz-adv-x="360" d="M300 -128q-115 67 -178.5 177.5t-63.5 234.5t63 234t179 177l35 -48q-148 -144 -148 -363q0 -220 148 -364z" />
<glyph unicode=")" horiz-adv-x="360" d="M302 284q0 -124 -63.5 -234.5t-178.5 -177.5l-35 48q148 144 148 364q0 219 -148 363l35 48q116 -67 179 -177t63 -234z" />
<glyph unicode="*" horiz-adv-x="417" d="M182 430l15 112l-90 -69l-27 47l106 43l-106 43l27 46l90 -69l-15 112h54l-16 -113l90 70l27 -46l-105 -44l105 -42l-27 -47l-90 70l16 -113h-54z" />
<glyph unicode="+" horiz-adv-x="590" d="M497 284h-157v-163h-87l-1 163h-162v78q76 2 162 2l-1 166h89v-165q61 1 158 1z" />
<glyph unicode="," horiz-adv-x="255" d="M185 44q0 -52 -36 -110.5t-86 -92.5l-18 20q54 64 67 130q-48 10 -48 55q0 29 17.5 47t43.5 18q27 0 43.5 -18.5t16.5 -48.5z" />
<glyph unicode="-" horiz-adv-x="355" d="M30 259v43h295v-43h-295z" />
<glyph unicode="." horiz-adv-x="260" d="M129 -10q-26 0 -42.5 16t-16.5 41q0 27 19 45.5t46 18.5q24 0 39.5 -15t15.5 -39q0 -28 -17 -47.5t-44 -19.5z" />
<glyph unicode="/" horiz-adv-x="356" d="M230 699l71 -17l-175 -699l-71 18z" />
<glyph unicode="0" horiz-adv-x="623" d="M570 331q0 -166 -76 -253.5t-190 -87.5q-113 0 -182 85.5t-69 241.5q0 164 75 253.5t192 89.5q115 0 182.5 -87t67.5 -242zM176 328q0 -124 34 -197.5t101 -73.5q65 0 100.5 69.5t35.5 190.5q0 129 -34 202.5t-101 73.5q-64 0 -100 -68t-36 -197z" />
<glyph unicode="1" horiz-adv-x="395" d="M280 0h-120v574l-109 -49l-16 59l237 76l8 -6v-654z" />
<glyph unicode="2" horiz-adv-x="552" d="M465 0h-412l-10 67q61 53 106 97t92.5 99.5t73 108.5t25.5 100q0 50 -32.5 79.5t-87.5 29.5q-82 0 -159 -62l-13 86q94 55 209 55q98 0 157.5 -48t58.5 -130q0 -175 -348 -388h136q107 0 213 14z" />
<glyph unicode="3" horiz-adv-x="515" d="M465 175q0 -83 -70 -134t-191 -51q-87 0 -159 24l11 70q62 -26 125 -26q71 0 110.5 34.5t39.5 88.5q0 56 -44 83.5t-109 27.5q-36 0 -63 -6v45q91 25 143.5 68.5t52.5 93.5q0 40 -29.5 64t-80.5 24q-65 0 -139 -42l-6 74q82 47 190 47q90 0 144.5 -39t53.5 -103 q0 -60 -51.5 -106.5t-150.5 -73.5q104 -5 163.5 -47t59.5 -116z" />
<glyph unicode="4" horiz-adv-x="602" d="M440 0h-120v131h-281l-8 50l323 479l86 -10v-426q53 3 94 10l-9 -103h-85v-131zM320 540l-220 -321h201h19v321z" />
<glyph unicode="5" horiz-adv-x="549" d="M486 197q0 -95 -74 -151t-195 -56q-87 0 -159 24l10 67q65 -24 136 -24q67 0 108 36.5t41 100.5q0 62 -39 94.5t-99 32.5q-58 0 -113 -21l-12 9v341h205q94 0 171 10l-9 -103h-301v-199q62 20 122 20q95 0 151.5 -49t56.5 -132z" />
<glyph unicode="6" horiz-adv-x="567" d="M293 -10q-109 0 -174.5 75.5t-65.5 216.5q0 172 94.5 275t243.5 103q57 0 85 -12l-12 -68q-31 13 -76 13q-84 0 -143.5 -71.5t-67.5 -216.5q27 40 71.5 61.5t92.5 21.5q77 0 129 -51t52 -136q0 -94 -65.5 -152.5t-163.5 -58.5zM290 57q51 0 82.5 38.5t31.5 100.5 q0 61 -29 98.5t-80 37.5q-76 0 -118 -65q2 -106 28.5 -158t84.5 -52z" />
<glyph unicode="7" horiz-adv-x="524" d="M246 0h-133q9 149 91.5 305.5t199.5 251.5h-145q-111 0 -213 -15l10 108h416l9 -7l3 -56q-101 -120 -166 -275t-72 -312z" />
<glyph unicode="8" horiz-adv-x="584" d="M53 147q0 57 47 101t120 63q-65 31 -105 77.5t-40 104.5q0 74 63.5 120.5t158.5 46.5q92 0 152.5 -43.5t60.5 -112.5q0 -54 -40 -96t-109 -62q79 -29 125 -76t46 -105q0 -73 -67.5 -124t-178.5 -51q-103 0 -168 44.5t-65 112.5zM191 504q0 -41 31.5 -75.5t79.5 -57.5 q42 23 67 56.5t25 70.5q0 42 -28.5 68.5t-71.5 26.5q-42 0 -72.5 -25t-30.5 -64zM171 156q0 -42 33.5 -70.5t84.5 -28.5q53 0 88.5 30t35.5 74q1 41 -34 69t-103 55q-46 -23 -75.5 -56.5t-29.5 -72.5z" />
<glyph unicode="9" horiz-adv-x="572" d="M520 368q0 -172 -95 -275t-244 -103q-58 0 -84 12l12 68q35 -13 75 -13q85 0 144.5 66.5t66.5 201.5q-27 -39 -71 -61t-91 -22q-77 0 -130 54.5t-53 143.5q0 98 64 159t165 61q109 0 175 -75.5t66 -216.5zM169 445q0 -64 29 -105t80 -41q76 0 117 64q-2 117 -28.5 173.5 t-83.5 56.5q-52 0 -83 -40.5t-31 -107.5z" />
<glyph unicode=":" horiz-adv-x="260" d="M129 360q-26 0 -42.5 16t-16.5 41q0 27 19 45.5t46 18.5q24 0 39.5 -15t15.5 -39q0 -28 -17 -47.5t-44 -19.5zM129 -10q-26 0 -42.5 16t-16.5 41q0 27 19 45.5t46 18.5q24 0 39.5 -15t15.5 -39q0 -28 -17 -47.5t-44 -19.5z" />
<glyph unicode=";" horiz-adv-x="261" d="M127 360q-26 0 -42.5 16t-16.5 41q0 27 19 45.5t46 18.5q24 0 39.5 -15t15.5 -39q0 -28 -17 -47.5t-44 -19.5zM190 44q0 -52 -36 -110.5t-86 -92.5l-18 20q54 64 67 130q-48 10 -48 55q0 29 17.5 47t43.5 18q27 0 43.5 -18.5t16.5 -48.5z" />
<glyph unicode="&#x3c;" horiz-adv-x="576" d="M486 109l-406 182l1 70q206 100 404 180v-95l-296 -119l297 -123v-95z" />
<glyph unicode="=" horiz-adv-x="594" d="M497 388h-407v78q124 4 408 4zM497 180h-407v78q124 4 408 4z" />
<glyph unicode="&#x3e;" horiz-adv-x="576" d="M90 109v95l297 123l-296 119v95q193 -77 405 -180v-70z" />
<glyph unicode="?" horiz-adv-x="515" d="M273 168h-82q-13 28 -13 67q0 32 16 63t39 56t45.5 49t38.5 51t16 53q0 38 -28 60t-67 22q-36 0 -77 -18t-72 -48l-47 67q95 88 216 88q86 0 142.5 -47.5t56.5 -123.5q0 -43 -19 -79t-46.5 -61.5t-54.5 -48.5t-46 -50.5t-19 -57.5q0 -5 0.5 -20.5t0.5 -21.5zM304 43 q0 -30 -20 -48.5t-51 -18.5q-27 0 -44 15t-17 41q0 29 20 48.5t52 19.5q27 0 43.5 -15t16.5 -42z" />
<glyph unicode="@" horiz-adv-x="1115" d="M755 -124q-115 -71 -266 -71q-177 0 -286.5 104.5t-109.5 270.5q0 103 45.5 199t120.5 165t175.5 110t206.5 41q168 0 275 -97.5t107 -251.5q0 -86 -32.5 -167t-93.5 -135t-135 -54q-79 0 -114.5 57.5t-19.5 135.5h-3q-29 -74 -84.5 -133.5t-124.5 -59.5 q-56 0 -89.5 42.5t-33.5 113.5q0 84 43.5 167.5t125 140t178.5 56.5q90 0 158 -29l-51 -226q-51 -217 49 -217q47 0 91 44t70.5 115t26.5 146q0 142 -96 230.5t-248 88.5q-94 0 -186 -36.5t-163.5 -98.5t-115.5 -151.5t-44 -188.5q0 -155 100.5 -252t264.5 -97q117 0 245 64 zM466 77q38 0 78.5 50t67 113t40.5 122l15 71q-28 10 -51 10q-51 0 -98.5 -44t-74.5 -109t-27 -128q0 -85 50 -85z" />
<glyph unicode="A" horiz-adv-x="619" d="M144 0h-114l167 526l36 125l157 9l199 -660h-120l-44 154h-237zM307 566l-100 -347h200l-99 347h-1z" />
<glyph unicode="B" horiz-adv-x="595" d="M312 0h-222v528l-9 122h220q99 0 154.5 -46t55.5 -121q0 -52 -26.5 -90.5t-75.5 -58.5q63 -16 97 -56t34 -98q0 -80 -62 -130t-166 -50zM268 582h-57v-219h60q61 0 92.5 30t31.5 80t-32 79.5t-95 29.5zM283 295h-72v-227h75q65 0 99 32t34 85q0 52 -34.5 81t-101.5 29z " />
<glyph unicode="C" horiz-adv-x="547" d="M495 112l16 -86q-77 -36 -166 -36q-138 0 -215.5 89.5t-76.5 240.5q1 154 80 247t213 93q93 0 165 -35l-19 -94q-58 40 -134 40q-87 0 -130.5 -65.5t-42.5 -178.5q1 -112 47 -177.5t138 -65.5q77 0 125 28z" />
<glyph unicode="D" horiz-adv-x="648" d="M90 528l-9 122h212q143 0 223 -88t79 -235q-1 -152 -86.5 -239.5t-227.5 -87.5h-191v528zM276 575h-65v-499h69q92 0 138 68t45 181q-1 114 -47.5 182t-139.5 68z" />
<glyph unicode="E" horiz-adv-x="508" d="M461 0h-371v523l-9 127h375l-8 -80l-237 7v-219l185 4l-8 -76l-177 4v-217l252 8z" />
<glyph unicode="F" horiz-adv-x="478" d="M211 0h-121v523l-9 127h375l-8 -80l-237 7v-236l185 4l-8 -75l-177 3v-273z" />
<glyph unicode="G" horiz-adv-x="616" d="M544 26q-86 -36 -186 -36q-143 0 -224.5 89.5t-80.5 240.5q1 154 86 247t226 93q96 0 172 -37l-19 -94q-64 42 -144 42q-93 0 -141.5 -66.5t-47.5 -179.5q1 -117 53 -185.5t151 -68.5q26 0 49 4v89l-9 123l115 10v-271z" />
<glyph unicode="H" horiz-adv-x="677" d="M211 0h-121v528l-9 122l130 10v-318h255v186l-9 122l130 11v-661h-121v275h-255v-275z" />
<glyph unicode="I" horiz-adv-x="301" d="M211 0h-121v528l-9 122l130 10v-660z" />
<glyph unicode="J" horiz-adv-x="300" d="M-6 -140q96 35 96 154v514l-9 122l129 10v-582q0 -123 -43.5 -189t-162.5 -84z" />
<glyph unicode="K" horiz-adv-x="589" d="M90 528l-9 122l131 10v-310h71l157 310l114 -10l-174 -333l179 -317l-126 -10l-151 293h-70v-283h-122v528z" />
<glyph unicode="L" horiz-adv-x="483" d="M458 0h-368v528l-9 122l130 10v-587l250 13z" />
<glyph unicode="M" horiz-adv-x="899" d="M221 546h-1l-60 -546h-100l86 650l162 10l140 -570h2l138 560l163 10l88 -660h-125l-59 546h-1l-147 -546h-140z" />
<glyph unicode="N" horiz-adv-x="668" d="M90 528l-9 122l105 10l300 -502h2l-10 492l100 10v-660h-110l-287 483h-2l10 -483h-99v528z" />
<glyph unicode="O" horiz-adv-x="658" d="M606 327q-1 -156 -79 -246.5t-203 -90.5q-126 0 -199 89.5t-72 240.5q1 154 78 247t205 93q126 0 198.5 -91t71.5 -242zM185 327q1 -114 39.5 -185.5t108.5 -71.5q69 0 105.5 70t35.5 185t-38.5 185.5t-106.5 70.5t-107 -70t-37 -184z" />
<glyph unicode="P" horiz-adv-x="561" d="M211 0h-121v528l-9 122h196q117 0 182 -59.5t65 -159.5q0 -105 -70.5 -165t-186.5 -60h-56v-206zM263 580h-52v-304h55q67 0 100 42t33 112q0 69 -33 109.5t-103 40.5z" />
<glyph unicode="Q" horiz-adv-x="658" d="M526 -160q-110 0 -168.5 36t-67.5 116q-111 12 -174.5 100t-62.5 228q1 154 78 247t205 93q126 0 198.5 -91t71.5 -242q-1 -142 -67 -230.5t-175 -103.5q7 -65 146 -65q77 0 146 16v-93q-64 -11 -130 -11zM185 327q1 -114 39.5 -185.5t108.5 -71.5q69 0 105.5 70 t35.5 185t-38.5 185.5t-106.5 70.5t-107 -70t-37 -184z" />
<glyph unicode="R" horiz-adv-x="578" d="M211 0h-121v528l-9 122h196q117 0 182 -55.5t65 -148.5q0 -67 -34 -115t-94 -72l149 -259l-128 -10l-123 247q-9 -1 -27 -1h-56v-236zM263 580h-52v-274h55q67 0 100 37.5t33 101.5q0 63 -33 99t-103 36z" />
<glyph unicode="S" horiz-adv-x="507" d="M460 166q0 -80 -60.5 -128t-160.5 -48q-109 0 -191 36l18 106q82 -52 165 -52q48 0 74 22.5t26 56.5q0 32 -28 60t-67.5 51t-79.5 49t-68 67t-28 93q0 82 62.5 131.5t161.5 49.5q97 0 167 -32l-22 -100q-70 43 -140 43q-47 0 -73.5 -23.5t-26.5 -58.5q0 -34 28 -62.5 t67.5 -52t79.5 -50t68 -67t28 -91.5z" />
<glyph unicode="T" horiz-adv-x="519" d="M321 0h-121v569l-177 -7l7 88h460l7 -88l-176 7v-569z" />
<glyph unicode="U" horiz-adv-x="647" d="M324 70q54 0 85.5 38t31.5 100v320l-9 122l130 10v-448q0 -102 -69.5 -162t-175.5 -60t-169 60t-63 162v316l-9 122l130 10v-453q0 -62 31.5 -99.5t86.5 -37.5z" />
<glyph unicode="V" horiz-adv-x="608" d="M466 660l112 -10l-192 -650h-172l-184 650l118 10l158 -571h1z" />
<glyph unicode="W" horiz-adv-x="942" d="M183 0l-148 650l118 10l124 -571h1l126 561h148l122 -561h2l125 571l106 -10l-162 -650h-167l-109 534h-2l-117 -534h-167z" />
<glyph unicode="X" horiz-adv-x="600" d="M30 0l197 321l-188 327l130 12l135 -265l153 265l104 -12l-188 -313l197 -335h-132l-145 257l-153 -257h-110z" />
<glyph unicode="Y" horiz-adv-x="567" d="M344 0h-121v207l-203 443l118 10l147 -351h2l148 351l112 -10l-203 -443v-207z" />
<glyph unicode="Z" horiz-adv-x="516" d="M473 0h-422l-16 63l300 502q-209 -3 -291 -8l8 93h405l16 -62l-302 -503q198 4 310 18z" />
<glyph unicode="[" horiz-adv-x="371" d="M84 690h238v-69h-123v-678h123v-70h-238v817z" />
<glyph unicode="\" horiz-adv-x="371" d="M233 -11l-174 693l58 13l173 -692z" />
<glyph unicode="]" horiz-adv-x="371" d="M287 690v-817h-238v70h124v678h-124v69h238z" />
<glyph unicode="^" horiz-adv-x="575" d="M182 195h-117l173 338h97l175 -338h-116l-109 226z" />
<glyph unicode="_" horiz-adv-x="405" d="M0 -164v78h405v-78h-405z" />
<glyph unicode="`" horiz-adv-x="258" d="M219 584l-37 -20q-88 66 -142 162l94 34q37 -100 85 -176z" />
<glyph unicode="a" horiz-adv-x="520" d="M346 -10q-16 32 -24 75q-23 -31 -65.5 -53t-92.5 -22q-58 0 -91 33t-33 84q0 83 80 126t201 42v54q1 45 -23.5 68.5t-73.5 23.5q-71 0 -147 -48l-10 94q90 43 191 43q183 0 183 -171q0 -12 -1.5 -96.5t-1.5 -105.5q0 -79 22 -137zM161 133q0 -35 18.5 -55.5t50.5 -20.5 q22 0 47.5 12t42.5 29v144q-69 -2 -114 -29.5t-45 -79.5z" />
<glyph unicode="b" horiz-adv-x="554" d="M65 685l129 10v-253q52 68 137 68q79 0 128.5 -65.5t49.5 -181.5q0 -131 -63.5 -202t-169.5 -71q-43 0 -99 14l-103 -14v573zM275 441q-48 0 -81 -38v-337q34 -9 62 -9q130 0 130 198q0 85 -28 135.5t-83 50.5z" />
<glyph unicode="c" horiz-adv-x="464" d="M421 481l-11 -99q-50 43 -111 43q-56 0 -93 -44.5t-37 -131.5q0 -82 35 -127t102 -45q54 0 112 28l-2 -85q-52 -30 -133 -30q-106 0 -172 66.5t-66 187.5q0 129 71.5 197.5t178.5 68.5q71 0 126 -29z" />
<glyph unicode="d" horiz-adv-x="561" d="M388 -10q-12 23 -23 66q-52 -66 -141 -66q-81 0 -130 66t-49 180q0 132 64 203t157 71q53 0 94 -23v76l-9 122l129 10v-542q0 -85 23 -153zM169 244q0 -87 28.5 -137t82.5 -50q48 0 80 36v1v330q-32 19 -68 19q-123 0 -123 -199z" />
<glyph unicode="e" horiz-adv-x="514" d="M445 20q-60 -30 -151 -30q-114 0 -181.5 66t-67.5 188q0 123 65.5 194.5t165.5 71.5q87 0 140 -52t53 -135q0 -28 -5 -65l-10 -17h-284q10 -164 155 -164q64 0 122 28zM272 445q-47 0 -75 -45.5t-28 -120.5l182 7q2 30 2 43q0 54 -21 85t-60 31z" />
<glyph unicode="f" horiz-adv-x="331" d="M202 0h-120v421l-60 2v34l65 12v2q-22 42 -22 91q0 63 45 98t122 35q68 0 106 -19l-14 -84q-40 16 -79 16q-67 0 -67 -73q0 -32 9 -66h140l-5 -54l-120 3v-418z" />
<glyph unicode="g" horiz-adv-x="507" d="M99 89q0 25 17.5 45.5t49.5 31.5q-57 16 -89 56.5t-32 102.5q0 83 54.5 134t144.5 51q153 0 245 8v-77l-127 7v-1q39 -13 60.5 -48t21.5 -80q0 -75 -57 -118t-147 -44q-6 0 -17.5 0.5t-17.5 1.5q-12 -11 -12 -26q0 -36 64 -39l69 -3q168 -10 168 -125q0 -74 -69 -116.5 t-200 -42.5q-97 0 -152 26.5t-56 77.5q0 44 37 72.5t89 38.5q-43 26 -44 67zM163 327q0 -52 21.5 -85t62.5 -33q78 0 78 118t-78 118q-40 0 -62 -32t-22 -86zM134 -66q0 -39 29.5 -62t82.5 -23q60 0 98.5 25t38.5 63q0 60 -96 66l-84 3q-4 1 -11 1q-58 -25 -58 -73z" />
<glyph unicode="h" horiz-adv-x="561" d="M194 0h-120v563l-9 122l129 10v-271q58 86 160 86q66 0 101 -42.5t35 -113.5v-354h-120v325q0 100 -77 100q-53 0 -99 -46v-379z" />
<glyph unicode="i" horiz-adv-x="265" d="M207 665q0 -32 -22 -52t-55 -20q-30 0 -48 16.5t-18 43.5q0 31 22 52t56 21q29 0 47 -16t18 -45zM194 0h-120v377l-9 123l129 10v-510z" />
<glyph unicode="j" horiz-adv-x="265" d="M205 665q0 -32 -22 -52t-55 -20q-30 0 -48 16.5t-18 43.5q0 31 21.5 52t55.5 21q30 0 48 -16t18 -45zM9 -149q65 72 65 203v323l-9 123l129 10v-438q0 -101 -36 -167t-122 -98z" />
<glyph unicode="k" horiz-adv-x="518" d="M194 0h-120v563l-9 122l129 10v-410h52l135 225l119 -10l-152 -229l168 -271l-130 -10l-137 246h-55v-236z" />
<glyph unicode="l" horiz-adv-x="265" d="M194 0h-120v563l-9 122l129 10v-695z" />
<glyph unicode="m" horiz-adv-x="835" d="M194 0h-120v378l-9 122l129 10v-85q27 40 68 62.5t86 22.5q47 0 79 -25.5t44 -70.5q27 45 71 70.5t91 25.5q62 0 96.5 -42.5t34.5 -113.5v-354h-120v325q0 100 -71 100q-51 -2 -95 -47q1 -8 1 -24v-354h-120v325q0 49 -18.5 74.5t-52.5 24.5q-50 0 -94 -45v-379z" />
<glyph unicode="n" horiz-adv-x="561" d="M194 0h-120v378l-9 122l129 10v-85q58 85 162 85q64 0 99 -42.5t35 -113.5v-354h-120v325q0 100 -77 100q-53 0 -99 -46v-379z" />
<glyph unicode="o" horiz-adv-x="554" d="M509 259q0 -130 -70 -199.5t-173 -69.5q-99 0 -160 65t-61 185q0 131 70 200.5t173 69.5q99 0 160 -65.5t61 -185.5zM169 244q0 -87 27 -137t78 -50q50 0 80.5 49t30.5 150q0 187 -103 187q-52 0 -82.5 -49t-30.5 -150z" />
<glyph unicode="p" horiz-adv-x="554" d="M74 378l-9 122l129 10v-65q51 65 137 65q79 0 128.5 -65t49.5 -180q0 -132 -64 -203.5t-158 -71.5q-52 0 -93 23v-60q0 -71 10 -138l-130 -10v573zM275 443q-50 0 -81 -36v-331q32 -19 68 -19q124 0 124 200q0 86 -28.5 136t-82.5 50z" />
<glyph unicode="q" horiz-adv-x="553" d="M490 -183l-130 -10v252q-53 -69 -139 -69q-79 0 -127.5 65t-48.5 176q0 133 69.5 206t184.5 73q31 0 79 -8l102 8v-555q0 -71 10 -138zM169 234q0 -79 28 -126.5t82 -47.5q47 -2 81 37v338q-30 8 -53 8q-138 0 -138 -209z" />
<glyph unicode="r" horiz-adv-x="379" d="M194 0h-120v378l-9 122l129 10v-135q17 59 52.5 97t80.5 38q24 0 40 -7l-10 -119q-22 6 -55 9q-69 2 -108 -59v-334z" />
<glyph unicode="s" horiz-adv-x="452" d="M409 132q0 -64 -53 -103t-147 -39q-92 0 -166 31l8 98q72 -45 157 -45q41 0 62 16t21 43q0 11 -5 21.5t-11 17t-20 15t-22.5 13t-29 14t-29.5 13.5q-56 26 -87 57t-31 81q0 65 56 105t146 40q75 0 139 -27l-8 -97q-71 41 -135 41q-36 0 -57.5 -17t-21.5 -44 q0 -20 17 -37.5t32.5 -25.5t49.5 -24q30 -14 49.5 -25t41.5 -29t33 -41t11 -52z" />
<glyph unicode="t" horiz-adv-x="396" d="M359 429l-156 4v-254q0 -46 15.5 -73.5t59.5 -27.5q48 0 88 25l2 -83q-51 -30 -130 -30q-155 0 -155 165v280l-55 2v34l65 12l21 137l89 6v-143h161z" />
<glyph unicode="u" horiz-adv-x="557" d="M71 142v358l120 10v-351q0 -49 19.5 -74.5t53.5 -25.5q47 0 92 42v399l120 10v-381q0 -77 22 -129l-114 -10q-22 39 -27 86q-28 -39 -69.5 -62.5t-88.5 -23.5q-62 0 -95 42t-33 110z" />
<glyph unicode="v" horiz-adv-x="493" d="M468 501q-58 -256 -142 -501h-169l-136 501l125 9l107 -438h2l101 438z" />
<glyph unicode="w" horiz-adv-x="775" d="M144 0l-123 501l120 9l89 -438h2l91 433h130l94 -433h2l87 438l114 -9q-54 -259 -131 -501h-148l-86 383h-2q-35 -177 -100 -383h-139z" />
<glyph unicode="x" horiz-adv-x="492" d="M335 0l-104 198l-93 -198h-108q51 103 142 255l-137 245l117 10l109 -214l94 214l106 -8q-49 -101 -140 -258l136 -244h-122z" />
<glyph unicode="y" horiz-adv-x="498" d="M59 -195q-54 0 -101 11v92q62 -16 122 -16q62 0 112.5 31.5t68.5 88.5h-102l-133 489l124 9l108 -438h2l101 438l112 -9q-57 -265 -142 -502q-39 -109 -102 -151.5t-170 -42.5z" />
<glyph unicode="z" horiz-adv-x="454" d="M411 0h-364l-13 68l253 346h-44q-112 0 -206 -10l12 96h351l7 -68l-252 -345h53q107 0 213 14z" />
<glyph unicode="{" horiz-adv-x="377" d="M154 161q0 76 -94 87v65q50 6 72 27t22 61q0 29 -17 80t-17 85q0 67 52.5 98t166.5 31l2 -62q-102 0 -102 -79q0 -26 15.5 -76.5t15.5 -77.5q0 -48 -33 -79t-87 -41q53 -10 86.5 -41t33.5 -77q0 -25 -15.5 -77t-15.5 -78q0 -80 102 -80l-2 -62q-115 0 -167 31t-52 98 q0 34 17 87.5t17 79.5z" />
<glyph unicode="|" horiz-adv-x="292" d="M182 -202l-72 -3v897l72 3v-897z" />
<glyph unicode="}" horiz-adv-x="377" d="M317 248l-94 -87q0 -26 17 -79.5t17 -87.5q0 -67 -52 -98t-167 -31l-2 62q102 0 102 80q0 26 -15.5 78t-15.5 76q0 47 33.5 78t86.5 41q-54 10 -87 41t-33 79q0 27 15.5 77.5t15.5 76.5q0 79 -102 79l2 62q114 0 166.5 -31t52.5 -98q0 -34 -17 -85t-17 -80q0 -40 22 -61 t72 -27v-65z" />
<glyph unicode="~" horiz-adv-x="631" d="M193 248q-12 0 -60 -57l-43 21q17 34 29.5 55.5t34.5 43.5t43 22q26 0 124.5 -26.5t116.5 -26.5q12 0 61 58l42 -21q-58 -121 -106 -121q-26 0 -126 26t-116 26z" />
<glyph unicode="&#xa1;" horiz-adv-x="287" d="M78 458q0 30 20 48t51 18q27 0 44 -15t17 -41q0 -29 -20 -48t-52 -19q-27 0 -43.5 15t-16.5 42zM101 338h82q11 -363 24 -505l-126 -10q-3 54 -3 134q0 176 23 381z" />
<glyph unicode="&#xa2;" horiz-adv-x="464" d="M286 -120l-40 -3v115q-92 12 -146.5 77t-54.5 175q0 119 62 187t159 78v111l40 3v-113q63 -3 115 -29l-11 -99q-50 43 -111 43q-56 0 -93 -44.5t-37 -131.5q0 -82 35 -127t102 -45q54 0 112 28l-2 -85q-52 -30 -130 -30v-110z" />
<glyph unicode="&#xa3;" horiz-adv-x="552" d="M463 286l-156 3l-1 -17q-20 -165 -109 -239q46 -25 74 -39t77 -28t95 -14q48 0 87 13l-34 -93q-19 -8 -58 -8q-50 0 -107 22.5t-89 43.5t-88 61q-9 7 -14 10q-30 -11 -64 -11q-68 0 -68 45q0 23 16 35.5t42 12.5q28 0 78 -23q34 52 40 153l3 78l-101 3l5 35l98 12 q8 164 61 250.5t175 86.5q67 0 119 -24l-29 -85q-49 41 -96 41q-21 0 -36 -7t-26 -24t-18.5 -36.5t-12.5 -53.5t-8.5 -66t-6.5 -82h162z" />
<glyph unicode="&#xa4;" horiz-adv-x="502" d="M425 67l-71 72q-46 -40 -112 -40q-62 0 -102 31l-64 -64l-30 31l63 63q-36 45 -36 109q0 65 41 115l-67 68l29 29q10 -11 33 -33.5t35 -35.5q46 34 103 33q61 1 107 -36l71 72l30 -31l-72 -72q33 -46 33 -102q0 -58 -34 -106q53 -51 74 -71zM133 271q0 -49 30 -83.5 t82 -34.5q54 0 82.5 35.5t28.5 84.5q0 47 -29.5 81t-80.5 34q-53 0 -83 -34t-30 -83z" />
<glyph unicode="&#xa5;" horiz-adv-x="567" d="M81 105v42h142v60h-142v42h123l-184 401l118 10l147 -351h2l148 351l112 -10l-184 -401h121v-42h-140v-60h140v-42h-140v-105h-121v105h-142z" />
<glyph unicode="&#xa6;" horiz-adv-x="342" d="M207 348l-72 -4v348l72 3v-347zM207 -202l-72 -3v352l72 4v-353z" />
<glyph unicode="&#xa7;" horiz-adv-x="552" d="M505 46q0 -100 -69.5 -158t-185.5 -58q-104 0 -176 35l18 117q62 -53 127 -53q36 0 58.5 22.5t22.5 58.5t-26 73t-63 72t-74 74t-63 93t-26 115q0 102 70 162.5t189 60.5q94 0 155 -32l-22 -110q-52 43 -107 43q-37 0 -58.5 -22.5t-21.5 -59.5q0 -38 26 -76.5t63 -74.5 t74 -75.5t63 -93t26 -113.5zM299 -104v-4q137 30 137 152q0 52 -26.5 100t-64 85t-75.5 73t-64.5 79.5t-26.5 90.5q0 78 74 119v3q-63 -14 -97.5 -54t-34.5 -101q0 -53 25.5 -101.5t61.5 -85t72.5 -72t62 -78t25.5 -87.5q0 -71 -69 -119z" />
<glyph unicode="&#xa8;" horiz-adv-x="600" d="M184 664q0 -31 -19.5 -48.5t-50.5 -17.5q-28 0 -44 14.5t-16 40.5q0 30 19.5 49t51.5 19q27 0 43 -15t16 -42zM402 664q0 -31 -19.5 -48.5t-50.5 -17.5q-60 0 -60 55q0 30 19 49t51 19q27 0 43.5 -15t16.5 -42z" />
<glyph unicode="&#xa9;" horiz-adv-x="706" d="M352 -36q-121 0 -204 82.5t-83 202.5q0 119 85 203t204 84q121 0 204 -83.5t83 -201.5q0 -119 -84.5 -203t-204.5 -84zM352 0q105 0 178 73.5t73 176.5q0 104 -73.5 177t-176.5 73t-176.5 -73t-73.5 -178t72 -177t177 -72zM450 156l9 -54q-41 -17 -94 -17 q-79 0 -123 45.5t-43 121.5q0 79 45.5 127t121.5 48q51 0 94 -19l-12 -57q-34 19 -74 19q-46 0 -69.5 -30.5t-22.5 -82.5q0 -114 100 -114q49 0 68 13z" />
<glyph unicode="&#xaa;" horiz-adv-x="439" d="M287 365q-13 23 -18 55q-17 -23 -49.5 -39t-71.5 -16q-44 0 -69 24t-25 61q0 59 60.5 90t152.5 30l1 34q0 62 -74 62q-53 0 -112 -33l-7 76q69 30 148 30q144 0 144 -127q0 -10 -1.5 -67t-1.5 -72q0 -58 17 -101zM153 472q0 -25 14 -40t37 -15q17 0 35.5 8.5t27.5 18.5 v101q-50 -2 -82 -20t-32 -53z" />
<glyph unicode="&#xab;" horiz-adv-x="525" d="M257 271v31q106 93 195 201l25 -15q-38 -85 -121 -202q83 -117 121 -202l-25 -14q-93 112 -195 201zM49 271v31q106 93 195 201l25 -15q-38 -85 -121 -202q83 -117 121 -202l-25 -14q-93 112 -195 201z" />
<glyph unicode="&#xac;" horiz-adv-x="593" d="M514 383v-236h-87v152h-326v79q152 5 413 5z" />
<glyph unicode="&#xae;" horiz-adv-x="706" d="M352 -36q-121 0 -204 82.5t-83 202.5q0 119 85 203t204 84q121 0 204 -83.5t83 -201.5q0 -119 -84.5 -203t-204.5 -84zM352 0q105 0 178 73.5t73 176.5q0 104 -73.5 177t-176.5 73t-176.5 -73t-73.5 -178t72 -177t177 -72zM314 89h-76v268l-6 64h116q66 0 103.5 -29 t37.5 -78q0 -69 -70 -97l81 -128l-81 -5l-64 120h-13h-28v-115zM340 378h-26v-131h27q70 0 70 66q0 65 -71 65z" />
<glyph unicode="&#xaf;" horiz-adv-x="345" d="M50 624v73h245v-73h-245z" />
<glyph unicode="&#xb0;" horiz-adv-x="364" d="M180 310q-56 0 -91.5 35t-35.5 91q0 58 36.5 95.5t94.5 37.5q57 0 92 -35t35 -90q0 -58 -36.5 -96t-94.5 -38zM183 520q-35 0 -56 -24t-21 -59q0 -34 21.5 -56t54.5 -22q34 0 55 23.5t21 60.5q0 34 -20.5 55.5t-54.5 21.5z" />
<glyph unicode="&#xb1;" horiz-adv-x="600" d="M500 340h-155v-138h-87l-1 138h-164v78q78 2 164 2l-1 141h89v-140q60 1 156 1zM500 43h-407v78q124 4 408 4z" />
<glyph unicode="&#xb2;" horiz-adv-x="392" d="M310 372h-260l-7 48q179 131 179 206q0 26 -19 41t-50 15q-47 0 -99 -34l-9 59q62 30 133 30q62 0 100.5 -27t38.5 -72q0 -54 -58.5 -105.5t-155.5 -94.5h81q69 0 132 9z" />
<glyph unicode="&#xb3;" horiz-adv-x="361" d="M311 468q0 -46 -44.5 -74.5t-120.5 -28.5q-56 0 -101 13l8 48q38 -15 76 -15q40 0 63.5 17.5t23.5 44.5q0 28 -25.5 42t-64.5 14q-23 0 -39 -4v30q54 13 86 35.5t32 46.5q0 20 -18 32.5t-47 12.5q-43 0 -85 -22l-3 51q50 26 120 26q57 0 92 -22.5t35 -58.5 q0 -33 -32 -58.5t-93 -38.5q64 -4 100.5 -27.5t36.5 -63.5z" />
<glyph unicode="&#xb4;" horiz-adv-x="258" d="M219 726q-55 -95 -142 -162l-37 20q51 83 85 176z" />
<glyph unicode="&#xb6;" horiz-adv-x="625" d="M259 -109q35 0 62 10t42.5 28.5t25 36t13 43.5t4.5 39t1 33v511h-60v-409h-32q-107 0 -177.5 63.5t-70.5 171.5q0 109 73.5 170.5t186.5 61.5h175v-554q0 -130 -58.5 -198.5t-172.5 -68.5q-76 0 -162 25l6 66q84 -29 144 -29z" />
<glyph unicode="&#xb7;" horiz-adv-x="260" d="M129 193q-26 0 -42.5 16t-16.5 41q0 26 19 45t46 19q24 0 39.5 -15t15.5 -40q0 -27 -17 -46.5t-44 -19.5z" />
<glyph unicode="&#xb8;" horiz-adv-x="279" d="M138 -117q0 28 -57 38l28 79h40l-16 -45q46 -6 72 -24t26 -45q0 -39 -46 -61t-124 -23l-4 36q81 9 81 45z" />
<glyph unicode="&#xb9;" horiz-adv-x="313" d="M198 372h-85v307l-67 -25l-11 39l157 44l6 -4v-361z" />
<glyph unicode="&#xba;" horiz-adv-x="477" d="M418 558q0 -94 -54.5 -143.5t-133.5 -49.5q-76 0 -123.5 47t-47.5 134q0 94 54 143.5t134 49.5q76 0 123.5 -47t47.5 -134zM161 548q0 -60 19.5 -94.5t56.5 -34.5q36 0 57.5 33.5t21.5 103.5q0 129 -74 129q-81 0 -81 -137z" />
<glyph unicode="&#xbb;" horiz-adv-x="525" d="M269 271q-100 -87 -196 -201l-24 14q37 84 120 202q-83 118 -120 202l24 15q91 -110 196 -201v-31zM477 271q-100 -87 -196 -201l-24 14q37 84 120 202q-83 118 -120 202l24 15q91 -110 196 -201v-31z" />
<glyph unicode="&#xbc;" horiz-adv-x="857" d="M208 -10h-73l400 670h73zM198 292h-85v307l-67 -25l-11 39l157 44l6 -4v-361zM684 0h-85v65h-173l-5 35l202 265l61 -5v-226q24 1 58 5l-6 -74h-52v-65zM599 291l-120 -160h116h4v160z" />
<glyph unicode="&#xbd;" horiz-adv-x="866" d="M207 -10h-73l400 670h73zM198 292h-85v307l-67 -25l-11 39l157 44l6 -4v-361zM784 0h-260l-7 48q179 130 179 206q0 26 -18.5 41t-49.5 15q-47 0 -99 -34l-9 59q60 30 133 30q62 0 100 -27t38 -72q0 -54 -58.5 -105.5t-154.5 -94.5h81q68 0 131 9z" />
<glyph unicode="&#xbe;" horiz-adv-x="882" d="M281 -10h-73l400 670h73zM311 388q0 -46 -44.5 -74.5t-120.5 -28.5q-56 0 -101 13l8 48q38 -15 76 -15q40 0 63.5 17.5t23.5 44.5q0 28 -25.5 42t-64.5 14q-23 0 -39 -4v30q54 13 86 35.5t32 46.5q0 20 -18 32.5t-47 12.5q-43 0 -85 -22l-3 51q50 26 120 26 q57 0 92 -22.5t35 -58.5q0 -33 -32 -58.5t-93 -38.5q64 -4 100.5 -27.5t36.5 -63.5zM757 0h-85v65h-173l-5 35l202 265l61 -5v-226q24 1 58 5l-6 -74h-52v-65zM672 291l-120 -160h116h4v160z" />
<glyph unicode="&#xbf;" horiz-adv-x="515" d="M211 458q0 29 20.5 47.5t50.5 18.5q27 0 44 -15t17 -41q0 -29 -20 -48t-51 -19q-28 0 -44.5 15t-16.5 42zM242 333h83q12 -25 12 -67q0 -32 -16 -63t-38.5 -56t-45.5 -49t-39 -51.5t-16 -53.5q0 -38 28 -60t67 -22q36 0 77 18t72 48l48 -67q-97 -88 -217 -88 q-86 0 -142 47.5t-56 123.5q0 43 19 79t46 61.5t54.5 48.5t46.5 50.5t19 57.5q0 19 -2 43z" />
<glyph unicode="&#xc0;" horiz-adv-x="619" d="M427 754l-28 -33q-119 24 -208 86l66 67q70 -59 170 -120zM144 0h-114l167 526l36 125l157 9l199 -660h-120l-44 154h-237zM307 566l-100 -347h200l-99 347h-1z" />
<glyph unicode="&#xc1;" horiz-adv-x="619" d="M427 808q-87 -62 -207 -86l-29 33q101 60 170 120zM144 0h-114l167 526l36 125l157 9l199 -660h-120l-44 154h-237zM307 566l-100 -347h200l-99 347h-1z" />
<glyph unicode="&#xc2;" horiz-adv-x="619" d="M191 718l-32 27q57 56 101 123l97 8q44 -73 103 -131l-32 -27q-65 35 -120 85q-53 -50 -117 -85zM144 0h-114l167 526l36 125l157 9l199 -660h-120l-44 154h-237zM307 566l-100 -347h200l-99 347h-1z" />
<glyph unicode="&#xc3;" horiz-adv-x="619" d="M252 857q27 0 65 -21t57 -21q31 0 58 47l30 -7q-5 -48 -29 -83t-65 -35q-26 0 -66 21.5t-57 21.5q-33 0 -58 -47l-30 7q5 48 28.5 82.5t66.5 34.5zM144 0h-114l167 526l36 125l157 9l199 -660h-120l-44 154h-237zM307 566l-100 -347h200l-99 347h-1z" />
<glyph unicode="&#xc4;" horiz-adv-x="619" d="M261 801q0 -32 -20.5 -51t-53.5 -19q-29 0 -45.5 15.5t-16.5 42.5q0 31 20.5 51.5t53.5 20.5q29 0 45.5 -16t16.5 -44zM494 801q0 -32 -20.5 -51t-52.5 -19q-29 0 -45.5 15.5t-16.5 43.5q0 31 20 51t53 20q29 0 45.5 -16t16.5 -44zM144 0h-114l167 526l36 125l157 9 l199 -660h-120l-44 154h-237zM307 566l-100 -347h200l-99 347h-1z" />
<glyph unicode="&#xc5;" horiz-adv-x="619" d="M411 804q0 -40 -31 -68t-77 -28q-43 0 -69 23.5t-26 57.5q0 39 32.5 67.5t79.5 28.5q41 0 66 -22.5t25 -58.5zM264 794q0 -18 12 -30.5t31 -12.5t33.5 14.5t14.5 33.5t-11.5 31t-30.5 12q-20 0 -34.5 -14.5t-14.5 -33.5zM144 0h-114l167 526l36 125l157 9l199 -660h-120 l-44 154h-237zM307 566l-100 -347h200l-99 347h-1z" />
<glyph unicode="&#xc6;" horiz-adv-x="873" d="M144 0h-114l256 526l45 124h445l-8 -80l-259 6l29 -218l221 4l-8 -76l-204 3l28 -215l253 7l-2 -81h-360l-14 154h-235zM414 566l-166 -347h198l-31 347h-1z" />
<glyph unicode="&#xc7;" horiz-adv-x="547" d="M333 -117q0 28 -57 38l25 72q-119 14 -184 101.5t-64 225.5q1 154 80 247t213 93q93 0 165 -35l-19 -94q-58 40 -134 40q-87 0 -130.5 -65.5t-42.5 -178.5q1 -112 47 -177.5t138 -65.5q77 0 125 28l16 -86q-77 -36 -166 -36h-5l-12 -35q46 -6 72 -24t26 -45 q0 -39 -46 -61t-124 -23l-4 36q81 9 81 45z" />
<glyph unicode="&#xc8;" horiz-adv-x="508" d="M386 754l-28 -33q-119 24 -208 86l66 67q70 -59 170 -120zM461 0h-371v523l-9 127h375l-8 -80l-237 7v-219l185 4l-8 -76l-177 4v-217l252 8z" />
<glyph unicode="&#xc9;" horiz-adv-x="508" d="M386 808q-87 -62 -207 -86l-29 33q101 60 170 120zM461 0h-371v523l-9 127h375l-8 -80l-237 7v-219l185 4l-8 -76l-177 4v-217l252 8z" />
<glyph unicode="&#xca;" horiz-adv-x="508" d="M150 718l-32 27q57 56 101 123l97 8q44 -73 103 -131l-32 -27q-65 35 -120 85q-53 -50 -117 -85zM461 0h-371v523l-9 127h375l-8 -80l-237 7v-219l185 4l-8 -76l-177 4v-217l252 8z" />
<glyph unicode="&#xcb;" horiz-adv-x="508" d="M220 801q0 -32 -20.5 -51t-53.5 -19q-29 0 -45.5 15.5t-16.5 42.5q0 31 20.5 51.5t53.5 20.5q29 0 45.5 -16t16.5 -44zM453 801q0 -32 -20.5 -51t-52.5 -19q-29 0 -45.5 15.5t-16.5 43.5q0 31 20 51t53 20q29 0 45.5 -16t16.5 -44zM461 0h-371v523l-9 127h375l-8 -80 l-237 7v-219l185 4l-8 -76l-177 4v-217l252 8z" />
<glyph unicode="&#xcc;" horiz-adv-x="301" d="M268 754l-28 -33q-119 24 -208 86l66 67q70 -59 170 -120zM211 0h-121v528l-9 122l130 10v-660z" />
<glyph unicode="&#xcd;" horiz-adv-x="301" d="M268 808q-87 -62 -207 -86l-29 33q101 60 170 120zM211 0h-121v528l-9 122l130 10v-660z" />
<glyph unicode="&#xce;" horiz-adv-x="301" d="M32 718l-32 27q57 56 101 123l97 8q44 -73 103 -131l-32 -27q-65 35 -120 85q-53 -50 -117 -85zM211 0h-121v528l-9 122l130 10v-660z" />
<glyph unicode="&#xcf;" horiz-adv-x="352" d="M153 788q0 -33 -20 -52.5t-51 -19.5q-28 0 -44 16t-16 45q0 32 19.5 53t51.5 21q28 0 44 -16.5t16 -46.5zM330 788q0 -33 -20 -52.5t-52 -19.5q-28 0 -44 16t-16 45q0 32 20 53t52 21q27 0 43.5 -16.5t16.5 -46.5zM236 0h-121v528l-9 122l130 10v-660z" />
<glyph unicode="&#xd0;" horiz-adv-x="648" d="M90 528l-9 122h212q143 0 223 -88t79 -235q-1 -152 -86.5 -239.5t-227.5 -87.5h-191v300h-75v51h75v177zM369 300h-158v-224h69q92 0 138 68t45 181q-1 114 -47.5 182t-139.5 68h-65v-224h158v-51z" />
<glyph unicode="&#xd1;" horiz-adv-x="668" d="M276 857q28 0 66 -21t56 -21q33 0 58 47l30 -7q-4 -48 -28.5 -83t-65.5 -35q-26 0 -65.5 21.5t-57.5 21.5q-33 0 -58 -47l-30 7q5 48 29 82.5t66 34.5zM90 528l-9 122l105 10l300 -502h2l-10 492l100 10v-660h-110l-287 483h-2l10 -483h-99v528z" />
<glyph unicode="&#xd2;" horiz-adv-x="658" d="M447 754l-28 -33q-119 24 -208 86l66 67q70 -59 170 -120zM606 327q-1 -156 -79 -246.5t-203 -90.5q-126 0 -199 89.5t-72 240.5q1 154 78 247t205 93q126 0 198.5 -91t71.5 -242zM185 327q1 -114 39.5 -185.5t108.5 -71.5q69 0 105.5 70t35.5 185t-38.5 185.5 t-106.5 70.5t-107 -70t-37 -184z" />
<glyph unicode="&#xd3;" horiz-adv-x="658" d="M447 808q-87 -62 -207 -86l-29 33q101 60 170 120zM606 327q-1 -156 -79 -246.5t-203 -90.5q-126 0 -199 89.5t-72 240.5q1 154 78 247t205 93q126 0 198.5 -91t71.5 -242zM185 327q1 -114 39.5 -185.5t108.5 -71.5q69 0 105.5 70t35.5 185t-38.5 185.5t-106.5 70.5 t-107 -70t-37 -184z" />
<glyph unicode="&#xd4;" horiz-adv-x="658" d="M211 718l-32 27q57 56 101 123l97 8q44 -73 103 -131l-32 -27q-65 35 -120 85q-53 -50 -117 -85zM606 327q-1 -156 -79 -246.5t-203 -90.5q-126 0 -199 89.5t-72 240.5q1 154 78 247t205 93q126 0 198.5 -91t71.5 -242zM185 327q1 -114 39.5 -185.5t108.5 -71.5 q69 0 105.5 70t35.5 185t-38.5 185.5t-106.5 70.5t-107 -70t-37 -184z" />
<glyph unicode="&#xd5;" horiz-adv-x="658" d="M606 327q-1 -156 -79 -246.5t-203 -90.5q-126 0 -199 89.5t-72 240.5q1 154 78 247t205 93q126 0 198.5 -91t71.5 -242zM185 327q1 -114 39.5 -185.5t108.5 -71.5q69 0 105.5 70t35.5 185t-38.5 185.5t-106.5 70.5t-107 -70t-37 -184z" />
<glyph unicode="&#xd6;" horiz-adv-x="658" d="M281 801q0 -32 -20.5 -51t-53.5 -19q-29 0 -45.5 15.5t-16.5 42.5q0 31 20.5 51.5t53.5 20.5q29 0 45.5 -16t16.5 -44zM514 801q0 -32 -20.5 -51t-52.5 -19q-29 0 -45.5 15.5t-16.5 43.5q0 31 20 51t53 20q29 0 45.5 -16t16.5 -44zM606 327q-1 -156 -79 -246.5 t-203 -90.5q-126 0 -199 89.5t-72 240.5q1 154 78 247t205 93q126 0 198.5 -91t71.5 -242zM185 327q1 -114 39.5 -185.5t108.5 -71.5q69 0 105.5 70t35.5 185t-38.5 185.5t-106.5 70.5t-107 -70t-37 -184z" />
<glyph unicode="&#xd7;" horiz-adv-x="572" d="M424 127l-138 140l-136 -136l-59 58l137 137l-140 142l56 56q51 -48 142 -139l135 136l60 -60l-136 -135l139 -139v-9z" />
<glyph unicode="&#xd8;" horiz-adv-x="658" d="M606 327q-1 -156 -79 -246.5t-203 -90.5q-111 0 -183 72l-77 -90l-43 38l84 97q-53 87 -52 213q1 154 78 247t205 93q112 0 184 -75l78 89l44 -36l-87 -100q51 -87 51 -211zM185 326q0 -62 12 -113l245 283q-38 85 -113 85q-69 0 -107 -70t-37 -185zM474 325 q-2 64 -11 107l-244 -281q40 -81 114 -81q69 0 105.5 70t35.5 185z" />
<glyph unicode="&#xd9;" horiz-adv-x="647" d="M441 754l-28 -33q-119 24 -208 86l66 67q70 -59 170 -120zM324 70q54 0 85.5 38t31.5 100v320l-9 122l130 10v-448q0 -102 -69.5 -162t-175.5 -60t-169 60t-63 162v316l-9 122l130 10v-453q0 -62 31.5 -99.5t86.5 -37.5z" />
<glyph unicode="&#xda;" horiz-adv-x="647" d="M441 808q-87 -62 -207 -86l-29 33q101 60 170 120zM324 70q54 0 85.5 38t31.5 100v320l-9 122l130 10v-448q0 -102 -69.5 -162t-175.5 -60t-169 60t-63 162v316l-9 122l130 10v-453q0 -62 31.5 -99.5t86.5 -37.5z" />
<glyph unicode="&#xdb;" horiz-adv-x="647" d="M205 718l-32 27q57 56 101 123l97 8q44 -73 103 -131l-32 -27q-65 35 -120 85q-53 -50 -117 -85zM324 70q54 0 85.5 38t31.5 100v320l-9 122l130 10v-448q0 -102 -69.5 -162t-175.5 -60t-169 60t-63 162v316l-9 122l130 10v-453q0 -62 31.5 -99.5t86.5 -37.5z" />
<glyph unicode="&#xdc;" horiz-adv-x="647" d="M275 801q0 -32 -20.5 -51t-53.5 -19q-29 0 -45.5 15.5t-16.5 42.5q0 31 20.5 51.5t53.5 20.5q29 0 45.5 -16t16.5 -44zM508 801q0 -32 -20.5 -51t-52.5 -19q-29 0 -45.5 15.5t-16.5 43.5q0 31 20 51t53 20q29 0 45.5 -16t16.5 -44zM324 70q54 0 85.5 38t31.5 100v320 l-9 122l130 10v-448q0 -102 -69.5 -162t-175.5 -60t-169 60t-63 162v316l-9 122l130 10v-453q0 -62 31.5 -99.5t86.5 -37.5z" />
<glyph unicode="&#xdd;" horiz-adv-x="567" d="M402 808q-89 -62 -208 -86l-28 33q100 61 170 120zM344 0h-121v207l-203 443l118 10l147 -351h2l148 351l112 -10l-203 -443v-207z" />
<glyph unicode="&#xde;" horiz-adv-x="561" d="M211 0h-121v528l-9 122h130v-94h66q117 0 182 -59.5t65 -159.5q0 -105 -70.5 -165t-186.5 -60h-56v-112zM263 486h-52v-304h55q67 0 100 42t33 112q0 69 -33 109.5t-103 40.5z" />
<glyph unicode="&#xdf;" horiz-adv-x="607" d="M85 428l-63 1v34l63 12v7q0 108 61.5 160.5t156.5 52.5q86 0 146.5 -41.5t60.5 -109.5q0 -56 -42 -99t-115 -59q95 -25 152 -83t57 -136q0 -79 -53.5 -128t-145.5 -49q-62 0 -104 15v68q43 -16 77 -16q45 0 74 32.5t29 83.5q0 62 -45 111.5t-119 79.5v41q51 17 84 51.5 t33 79.5q0 40 -25 66t-65 26q-41 0 -69 -34t-28 -102v-492h-120v428z" />
<glyph unicode="&#xe0;" horiz-adv-x="520" d="M343 584l-37 -20q-87 67 -142 162l94 34q34 -93 85 -176zM346 -10q-16 32 -24 75q-23 -31 -65.5 -53t-92.5 -22q-58 0 -91 33t-33 84q0 83 80 126t201 42v54q1 45 -23.5 68.5t-73.5 23.5q-71 0 -147 -48l-10 94q90 43 191 43q183 0 183 -171q0 -12 -1.5 -96.5 t-1.5 -105.5q0 -79 22 -137zM161 133q0 -35 18.5 -55.5t50.5 -20.5q22 0 47.5 12t42.5 29v144q-69 -2 -114 -29.5t-45 -79.5z" />
<glyph unicode="&#xe1;" horiz-adv-x="520" d="M343 726q-54 -96 -142 -162l-37 20q48 76 85 176zM346 -10q-16 32 -24 75q-23 -31 -65.5 -53t-92.5 -22q-58 0 -91 33t-33 84q0 83 80 126t201 42v54q1 45 -23.5 68.5t-73.5 23.5q-71 0 -147 -48l-10 94q90 43 191 43q183 0 183 -171q0 -12 -1.5 -96.5t-1.5 -105.5 q0 -79 22 -137zM161 133q0 -35 18.5 -55.5t50.5 -20.5q22 0 47.5 12t42.5 29v144q-69 -2 -114 -29.5t-45 -79.5z" />
<glyph unicode="&#xe2;" horiz-adv-x="520" d="M152 569l-38 22q55 80 90 157l95 8q38 -87 92 -165l-38 -22q-52 40 -102 110q-47 -68 -99 -110zM346 -10q-16 32 -24 75q-23 -31 -65.5 -53t-92.5 -22q-58 0 -91 33t-33 84q0 83 80 126t201 42v54q1 45 -23.5 68.5t-73.5 23.5q-71 0 -147 -48l-10 94q90 43 191 43 q183 0 183 -171q0 -12 -1.5 -96.5t-1.5 -105.5q0 -79 22 -137zM161 133q0 -35 18.5 -55.5t50.5 -20.5q22 0 47.5 12t42.5 29v144q-69 -2 -114 -29.5t-45 -79.5z" />
<glyph unicode="&#xe3;" horiz-adv-x="520" d="M188 728q30 0 70.5 -25t59.5 -25q31 0 54 52l30 -7q-2 -49 -26 -85.5t-64 -36.5q-28 0 -71 25t-61 25q-32 0 -53 -51l-31 6q3 49 26.5 85.5t65.5 36.5zM346 -10q-16 32 -24 75q-23 -31 -65.5 -53t-92.5 -22q-58 0 -91 33t-33 84q0 83 80 126t201 42v54q1 45 -23.5 68.5 t-73.5 23.5q-71 0 -147 -48l-10 94q90 43 191 43q183 0 183 -171q0 -12 -1.5 -96.5t-1.5 -105.5q0 -79 22 -137zM161 133q0 -35 18.5 -55.5t50.5 -20.5q22 0 47.5 12t42.5 29v144q-69 -2 -114 -29.5t-45 -79.5z" />
<glyph unicode="&#xe4;" horiz-adv-x="520" d="M209 664q0 -31 -19.5 -48.5t-50.5 -17.5q-60 0 -60 55q0 30 19.5 49t50.5 19q27 0 43.5 -15t16.5 -42zM427 664q0 -31 -19.5 -48.5t-51.5 -17.5q-27 0 -43 14t-16 41q0 30 19 49t51 19q27 0 43.5 -15t16.5 -42zM346 -10q-16 32 -24 75q-23 -31 -65.5 -53t-92.5 -22 q-58 0 -91 33t-33 84q0 83 80 126t201 42v54q1 45 -23.5 68.5t-73.5 23.5q-71 0 -147 -48l-10 94q90 43 191 43q183 0 183 -171q0 -12 -1.5 -96.5t-1.5 -105.5q0 -79 22 -137zM161 133q0 -35 18.5 -55.5t50.5 -20.5q22 0 47.5 12t42.5 29v144q-69 -2 -114 -29.5t-45 -79.5z " />
<glyph unicode="&#xe5;" horiz-adv-x="520" d="M352 669q0 -45 -31 -73.5t-75 -28.5q-41 0 -67 24t-26 64q0 45 30.5 75t76.5 30q40 0 66 -25t26 -66zM206 660q0 -22 12 -35t32 -13t34.5 15t14.5 38q0 22 -12 36t-32 14q-21 0 -35 -15.5t-14 -39.5zM346 -10q-16 32 -24 75q-23 -31 -65.5 -53t-92.5 -22q-58 0 -91 33 t-33 84q0 83 80 126t201 42v54q1 45 -23.5 68.5t-73.5 23.5q-71 0 -147 -48l-10 94q90 43 191 43q183 0 183 -171q0 -12 -1.5 -96.5t-1.5 -105.5q0 -79 22 -137zM161 133q0 -35 18.5 -55.5t50.5 -20.5q22 0 47.5 12t42.5 29v144q-69 -2 -114 -29.5t-45 -79.5z" />
<glyph unicode="&#xe6;" horiz-adv-x="786" d="M717 20q-60 -30 -151 -30q-145 0 -208 101q-28 -41 -79 -71t-111 -30t-94 33t-34 84q0 82 79 124.5t201 43.5l1 54q3 92 -97 92q-71 0 -147 -48l-10 94q90 43 188 43q100 0 141 -59q62 59 152 59q87 0 140 -52t53 -135q0 -28 -5 -65l-10 -17h-285q12 -164 156 -164 q64 0 122 28zM544 445q-46 0 -74 -44.5t-29 -121.5l182 7q2 30 2 43q0 54 -21 85t-60 31zM161 134q0 -35 20 -56t54 -21q29 0 59.5 16t50.5 42q-25 55 -25 125v1v1q-69 -2 -114 -30t-45 -78z" />
<glyph unicode="&#xe7;" horiz-adv-x="464" d="M278 -117q0 28 -57 38l25 71q-92 12 -146.5 77t-54.5 175q0 129 71.5 197.5t178.5 68.5q71 0 126 -29l-11 -99q-50 43 -111 43q-56 0 -93 -44.5t-37 -131.5q0 -82 35 -127t102 -45q54 0 112 28l-2 -85q-52 -30 -131 -30l-12 -35q46 -6 72 -24t26 -45q0 -39 -46 -61 t-124 -23l-4 36q81 9 81 45z" />
<glyph unicode="&#xe8;" horiz-adv-x="514" d="M361 584l-37 -20q-88 66 -142 162l94 34q37 -100 85 -176zM445 20q-60 -30 -151 -30q-114 0 -181.5 66t-67.5 188q0 123 65.5 194.5t165.5 71.5q87 0 140 -52t53 -135q0 -28 -5 -65l-10 -17h-284q10 -164 155 -164q64 0 122 28zM272 445q-47 0 -75 -45.5t-28 -120.5 l182 7q2 30 2 43q0 54 -21 85t-60 31z" />
<glyph unicode="&#xe9;" horiz-adv-x="514" d="M361 726q-55 -95 -142 -162l-37 20q51 83 85 176zM445 20q-60 -30 -151 -30q-114 0 -181.5 66t-67.5 188q0 123 65.5 194.5t165.5 71.5q87 0 140 -52t53 -135q0 -28 -5 -65l-10 -17h-284q10 -164 155 -164q64 0 122 28zM272 445q-47 0 -75 -45.5t-28 -120.5l182 7 q2 30 2 43q0 54 -21 85t-60 31z" />
<glyph unicode="&#xea;" horiz-adv-x="514" d="M170 569l-38 22q52 76 89 157l95 8q38 -87 92 -165l-38 -22q-51 41 -101 110q-50 -71 -99 -110zM445 20q-60 -30 -151 -30q-114 0 -181.5 66t-67.5 188q0 123 65.5 194.5t165.5 71.5q87 0 140 -52t53 -135q0 -28 -5 -65l-10 -17h-284q10 -164 155 -164q64 0 122 28z M272 445q-47 0 -75 -45.5t-28 -120.5l182 7q2 30 2 43q0 54 -21 85t-60 31z" />
<glyph unicode="&#xeb;" horiz-adv-x="514" d="M226 664q0 -31 -19.5 -48.5t-50.5 -17.5q-28 0 -44 14.5t-16 40.5q0 30 19.5 49t51.5 19q27 0 43 -15t16 -42zM444 664q0 -31 -19.5 -48.5t-50.5 -17.5q-60 0 -60 55q0 30 19 49t51 19q27 0 43.5 -15t16.5 -42zM445 20q-60 -30 -151 -30q-114 0 -181.5 66t-67.5 188 q0 123 65.5 194.5t165.5 71.5q87 0 140 -52t53 -135q0 -28 -5 -65l-10 -17h-284q10 -164 155 -164q64 0 122 28zM272 445q-47 0 -75 -45.5t-28 -120.5l182 7q2 30 2 43q0 54 -21 85t-60 31z" />
<glyph unicode="&#xec;" horiz-adv-x="265" d="M226 584l-37 -20q-87 67 -142 162l94 34q34 -93 85 -176zM194 0h-120v377l-9 123l129 10v-510z" />
<glyph unicode="&#xed;" horiz-adv-x="265" d="M226 726q-54 -96 -142 -162l-37 20q48 76 85 176zM194 0h-120v377l-9 123l129 10v-510z" />
<glyph unicode="&#xee;" horiz-adv-x="265" d="M64 568l-32 16q25 63 55 163l95 8q27 -100 57 -171l-32 -16q-36 43 -73 109q-32 -61 -70 -109zM194 0h-120v377l-9 123l129 10v-510z" />
<glyph unicode="&#xef;" horiz-adv-x="265" d="M116 669q0 -32 -18.5 -50.5t-49.5 -18.5q-27 0 -43 15t-16 42q0 31 19 51t50 20q26 0 42 -16t16 -43zM281 669q0 -32 -18.5 -50.5t-49.5 -18.5q-27 0 -42.5 15t-15.5 42q0 31 19 51t50 20q26 0 41.5 -16t15.5 -43zM194 0h-120v377l-9 123l129 10v-510z" />
<glyph unicode="&#xf0;" horiz-adv-x="547" d="M146 728q90 -27 164 -82l141 67l25 -49l-122 -57q141 -138 141 -339q0 -135 -65.5 -206.5t-170.5 -71.5q-96 0 -155 60.5t-59 170.5q0 121 66.5 186t157.5 65q43 0 71 -19q-28 59 -77 111l-138 -65l-23 48l118 56q-49 40 -108 64zM169 226q0 -80 25 -124.5t74 -44.5 q48 0 76 43.5t27 136.5q-1 168 -96 168q-49 0 -77.5 -44t-28.5 -135z" />
<glyph unicode="&#xf1;" horiz-adv-x="561" d="M223 728q30 0 70.5 -25t59.5 -25q31 0 54 52l30 -7q-2 -49 -26 -85.5t-64 -36.5q-28 0 -71 25t-61 25q-32 0 -53 -51l-31 6q3 49 26.5 85.5t65.5 36.5zM194 0h-120v378l-9 122l129 10v-85q58 85 162 85q64 0 99 -42.5t35 -113.5v-354h-120v325q0 100 -77 100 q-53 0 -99 -46v-379z" />
<glyph unicode="&#xf2;" horiz-adv-x="554" d="M368 584l-37 -20q-88 66 -142 162l94 34q37 -100 85 -176zM509 259q0 -130 -70 -199.5t-173 -69.5q-99 0 -160 65t-61 185q0 131 70 200.5t173 69.5q99 0 160 -65.5t61 -185.5zM169 244q0 -87 27 -137t78 -50q50 0 80.5 49t30.5 150q0 187 -103 187q-52 0 -82.5 -49 t-30.5 -150z" />
<glyph unicode="&#xf3;" horiz-adv-x="554" d="M368 726q-55 -95 -142 -162l-37 20q51 83 85 176zM509 259q0 -130 -70 -199.5t-173 -69.5q-99 0 -160 65t-61 185q0 131 70 200.5t173 69.5q99 0 160 -65.5t61 -185.5zM169 244q0 -87 27 -137t78 -50q50 0 80.5 49t30.5 150q0 187 -103 187q-52 0 -82.5 -49t-30.5 -150z " />
<glyph unicode="&#xf4;" horiz-adv-x="554" d="M177 569l-38 22q52 76 89 157l95 8q38 -87 92 -165l-38 -22q-51 41 -101 110q-50 -71 -99 -110zM509 259q0 -130 -70 -199.5t-173 -69.5q-99 0 -160 65t-61 185q0 131 70 200.5t173 69.5q99 0 160 -65.5t61 -185.5zM169 244q0 -87 27 -137t78 -50q50 0 80.5 49t30.5 150 q0 187 -103 187q-52 0 -82.5 -49t-30.5 -150z" />
<glyph unicode="&#xf5;" horiz-adv-x="554" d="M212 728q30 0 70.5 -25t60.5 -25q30 0 53 52l31 -7q-3 -49 -27 -85.5t-64 -36.5q-27 0 -70 25t-61 25q-32 0 -54 -51l-30 6q3 49 26.5 85.5t64.5 36.5zM509 259q0 -130 -70 -199.5t-173 -69.5q-99 0 -160 65t-61 185q0 131 70 200.5t173 69.5q99 0 160 -65.5t61 -185.5z M169 244q0 -87 27 -137t78 -50q50 0 80.5 49t30.5 150q0 187 -103 187q-52 0 -82.5 -49t-30.5 -150z" />
<glyph unicode="&#xf6;" horiz-adv-x="554" d="M233 664q0 -31 -19.5 -48.5t-50.5 -17.5q-28 0 -44 14.5t-16 40.5q0 30 19.5 49t51.5 19q27 0 43 -15t16 -42zM451 664q0 -31 -19.5 -48.5t-50.5 -17.5q-60 0 -60 55q0 30 19 49t51 19q27 0 43.5 -15t16.5 -42zM509 259q0 -130 -70 -199.5t-173 -69.5q-99 0 -160 65 t-61 185q0 131 70 200.5t173 69.5q99 0 160 -65.5t61 -185.5zM169 244q0 -87 27 -137t78 -50q50 0 80.5 49t30.5 150q0 187 -103 187q-52 0 -82.5 -49t-30.5 -150z" />
<glyph unicode="&#xf7;" horiz-adv-x="594" d="M357 513q0 -29 -18 -49.5t-47 -20.5q-24 0 -39 17t-15 41q0 28 19.5 48.5t46.5 20.5q23 0 38 -16t15 -41zM497 284h-407v78q124 4 408 4zM357 151q0 -29 -18 -49t-47 -20q-24 0 -39 16.5t-15 40.5q0 28 19.5 48.5t46.5 20.5q23 0 38 -16t15 -41z" />
<glyph unicode="&#xf8;" horiz-adv-x="554" d="M509 259q0 -130 -70 -199.5t-173 -69.5q-89 0 -147 52l-50 -53l-38 36l54 58q-40 62 -40 157q0 131 70 200.5t173 69.5q88 0 146 -52l50 53l40 -35l-55 -59q40 -64 40 -158zM169 244q0 -39 4 -66l192 205q-25 60 -83 60q-52 0 -82.5 -49t-30.5 -150zM385 256q0 40 -4 67 l-191 -205q27 -61 84 -61q50 0 80.5 49t30.5 150z" />
<glyph unicode="&#xf9;" horiz-adv-x="557" d="M374 584l-37 -20q-88 66 -142 162l94 34q37 -100 85 -176zM71 142v358l120 10v-351q0 -49 19.5 -74.5t53.5 -25.5q47 0 92 42v399l120 10v-381q0 -77 22 -129l-114 -10q-22 39 -27 86q-28 -39 -69.5 -62.5t-88.5 -23.5q-62 0 -95 42t-33 110z" />
<glyph unicode="&#xfa;" horiz-adv-x="557" d="M374 726q-55 -95 -142 -162l-37 20q51 83 85 176zM71 142v358l120 10v-351q0 -49 19.5 -74.5t53.5 -25.5q47 0 92 42v399l120 10v-381q0 -77 22 -129l-114 -10q-22 39 -27 86q-28 -39 -69.5 -62.5t-88.5 -23.5q-62 0 -95 42t-33 110z" />
<glyph unicode="&#xfb;" horiz-adv-x="557" d="M183 569l-38 22q52 76 89 157l95 8q38 -87 92 -165l-38 -22q-51 41 -101 110q-50 -71 -99 -110zM71 142v358l120 10v-351q0 -49 19.5 -74.5t53.5 -25.5q47 0 92 42v399l120 10v-381q0 -77 22 -129l-114 -10q-22 39 -27 86q-28 -39 -69.5 -62.5t-88.5 -23.5q-62 0 -95 42 t-33 110z" />
<glyph unicode="&#xfc;" horiz-adv-x="557" d="M239 664q0 -31 -19.5 -48.5t-50.5 -17.5q-28 0 -44 14.5t-16 40.5q0 30 19.5 49t51.5 19q27 0 43 -15t16 -42zM457 664q0 -31 -19.5 -48.5t-50.5 -17.5q-60 0 -60 55q0 30 19 49t51 19q27 0 43.5 -15t16.5 -42zM71 142v358l120 10v-351q0 -49 19.5 -74.5t53.5 -25.5 q47 0 92 42v399l120 10v-381q0 -77 22 -129l-114 -10q-22 39 -27 86q-28 -39 -69.5 -62.5t-88.5 -23.5q-62 0 -95 42t-33 110z" />
<glyph unicode="&#xfd;" horiz-adv-x="498" d="M343 726q-54 -96 -142 -162l-37 20q48 76 85 176zM59 -195q-54 0 -101 11v92q62 -16 122 -16q62 0 112.5 31.5t68.5 88.5h-102l-133 489l124 9l108 -438h2l101 438l112 -9q-57 -265 -142 -502q-39 -109 -102 -151.5t-170 -42.5z" />
<glyph unicode="&#xfe;" horiz-adv-x="554" d="M74 563l-9 122l129 10v-250q51 65 137 65q79 0 128.5 -65t49.5 -180q0 -132 -64 -203.5t-158 -71.5q-52 0 -93 23v-60q0 -71 10 -138l-130 -10v758zM275 443q-50 0 -81 -36v-331q32 -19 68 -19q124 0 124 200q0 86 -28.5 136t-82.5 50z" />
<glyph unicode="&#xff;" horiz-adv-x="498" d="M209 664q0 -31 -19.5 -48.5t-50.5 -17.5q-60 0 -60 55q0 30 19.5 49t50.5 19q27 0 43.5 -15t16.5 -42zM427 664q0 -31 -19.5 -48.5t-51.5 -17.5q-27 0 -43 14t-16 41q0 30 19 49t51 19q27 0 43.5 -15t16.5 -42zM59 -195q-54 0 -101 11v92q62 -16 122 -16q62 0 112.5 31.5 t68.5 88.5h-102l-133 489l124 9l108 -438h2l101 438l112 -9q-57 -265 -142 -502q-39 -109 -102 -151.5t-170 -42.5z" />
<glyph unicode="&#x100;" horiz-adv-x="619" d="M172 760v72h275v-72h-275zM144 0h-114l167 526l36 125l157 9l199 -660h-120l-44 154h-237zM307 566l-100 -347h200l-99 347h-1z" />
<glyph unicode="&#x101;" horiz-adv-x="520" d="M130 624v73h245v-73h-245zM346 -10q-16 32 -24 75q-23 -31 -65.5 -53t-92.5 -22q-58 0 -91 33t-33 84q0 83 80 126t201 42v54q1 45 -23.5 68.5t-73.5 23.5q-71 0 -147 -48l-10 94q90 43 191 43q183 0 183 -171q0 -12 -1.5 -96.5t-1.5 -105.5q0 -79 22 -137zM161 133 q0 -35 18.5 -55.5t50.5 -20.5q22 0 47.5 12t42.5 29v144q-69 -2 -114 -29.5t-45 -79.5z" />
<glyph unicode="&#x102;" horiz-adv-x="619" d="M307 724q-54 0 -91.5 38.5t-41.5 97.5l42 7q24 -67 94 -67q67 0 92 67l43 7q-4 -65 -42 -107.5t-96 -42.5zM144 0h-114l167 526l36 125l157 9l199 -660h-120l-44 154h-237zM307 566l-100 -347h200l-99 347h-1z" />
<glyph unicode="&#x103;" horiz-adv-x="520" d="M249 571q-53 0 -88 45.5t-38 123.5l44 7q16 -104 86 -104q33 0 55.5 27.5t30.5 77.5l43 6q-4 -82 -40 -132.5t-93 -50.5zM346 -10q-16 32 -24 75q-23 -31 -65.5 -53t-92.5 -22q-58 0 -91 33t-33 84q0 83 80 126t201 42v54q1 45 -23.5 68.5t-73.5 23.5q-71 0 -147 -48 l-10 94q90 43 191 43q183 0 183 -171q0 -12 -1.5 -96.5t-1.5 -105.5q0 -79 22 -137zM161 133q0 -35 18.5 -55.5t50.5 -20.5q22 0 47.5 12t42.5 29v144q-69 -2 -114 -29.5t-45 -79.5z" />
<glyph unicode="&#x104;" horiz-adv-x="619" d="M144 0h-114l167 526l36 125l157 9l199 -660h-1q-43 -18 -71.5 -47.5t-28.5 -56.5q0 -38 45 -38q18 0 49 12l12 -34q-38 -35 -103 -35q-40 0 -64.5 17.5t-24.5 50.5q0 39 31 73.5t83 57.5h-47l-44 154h-237zM307 566l-100 -347h200l-99 347h-1z" />
<glyph unicode="&#x105;" horiz-adv-x="520" d="M346 -10q-16 32 -24 75q-23 -31 -65.5 -53t-92.5 -22q-58 0 -91 33t-33 84q0 83 80 126t201 42v54q1 45 -23.5 68.5t-73.5 23.5q-71 0 -147 -48l-10 94q90 43 191 43q183 0 183 -171q0 -12 -1.5 -96.5t-1.5 -105.5q0 -79 22 -137q-43 -18 -71.5 -47.5t-28.5 -56.5 q0 -38 45 -38q18 0 49 12l12 -34q-38 -35 -103 -35q-40 0 -64.5 17.5t-24.5 50.5q0 35 26 67.5t71 55.5zM161 133q0 -35 18.5 -55.5t50.5 -20.5q22 0 47.5 12t42.5 29v144q-69 -2 -114 -29.5t-45 -79.5z" />
<glyph unicode="&#x106;" horiz-adv-x="547" d="M447 808q-87 -62 -207 -86l-29 33q101 60 170 120zM495 112l16 -86q-77 -36 -166 -36q-138 0 -215.5 89.5t-76.5 240.5q1 154 80 247t213 93q93 0 165 -35l-19 -94q-58 40 -134 40q-87 0 -130.5 -65.5t-42.5 -178.5q1 -112 47 -177.5t138 -65.5q77 0 125 28z" />
<glyph unicode="&#x107;" horiz-adv-x="464" d="M348 726q-55 -95 -142 -162l-37 20q51 83 85 176zM421 481l-11 -99q-50 43 -111 43q-56 0 -93 -44.5t-37 -131.5q0 -82 35 -127t102 -45q54 0 112 28l-2 -85q-52 -30 -133 -30q-106 0 -172 66.5t-66 187.5q0 129 71.5 197.5t178.5 68.5q71 0 126 -29z" />
<glyph unicode="&#x108;" horiz-adv-x="547" d="M211 718l-32 27q57 56 101 123l97 8q44 -73 103 -131l-32 -27q-65 35 -120 85q-53 -50 -117 -85zM495 112l16 -86q-77 -36 -166 -36q-138 0 -215.5 89.5t-76.5 240.5q1 154 80 247t213 93q93 0 165 -35l-19 -94q-58 40 -134 40q-87 0 -130.5 -65.5t-42.5 -178.5 q1 -112 47 -177.5t138 -65.5q77 0 125 28z" />
<glyph unicode="&#x109;" horiz-adv-x="464" d="M157 569l-38 22q52 76 89 157l95 8q38 -87 92 -165l-38 -22q-51 41 -101 110q-50 -71 -99 -110zM421 481l-11 -99q-50 43 -111 43q-56 0 -93 -44.5t-37 -131.5q0 -82 35 -127t102 -45q54 0 112 28l-2 -85q-52 -30 -133 -30q-106 0 -172 66.5t-66 187.5q0 129 71.5 197.5 t178.5 68.5q71 0 126 -29z" />
<glyph unicode="&#x10a;" horiz-adv-x="547" d="M401 802q0 -32 -22 -52t-55 -20q-30 0 -48 16.5t-18 43.5q0 31 22 52t56 21q29 0 47 -16t18 -45zM495 112l16 -86q-77 -36 -166 -36q-138 0 -215.5 89.5t-76.5 240.5q1 154 80 247t213 93q93 0 165 -35l-19 -94q-58 40 -134 40q-87 0 -130.5 -65.5t-42.5 -178.5 q1 -112 47 -177.5t138 -65.5q77 0 125 28z" />
<glyph unicode="&#x10b;" horiz-adv-x="464" d="M329 665q0 -32 -22 -52t-55 -20q-30 0 -48 16.5t-18 43.5q0 31 21.5 52t55.5 21q30 0 48 -16t18 -45zM421 481l-11 -99q-50 43 -111 43q-56 0 -93 -44.5t-37 -131.5q0 -82 35 -127t102 -45q54 0 112 28l-2 -85q-52 -30 -133 -30q-106 0 -172 66.5t-66 187.5 q0 129 71.5 197.5t178.5 68.5q71 0 126 -29z" />
<glyph unicode="&#x10c;" horiz-adv-x="547" d="M448 876l32 -26q-61 -61 -101 -124l-97 -8q-41 70 -103 132l32 26q68 -37 119 -85q56 51 118 85zM495 112l16 -86q-77 -36 -166 -36q-138 0 -215.5 89.5t-76.5 240.5q1 154 80 247t213 93q93 0 165 -35l-19 -94q-58 40 -134 40q-87 0 -130.5 -65.5t-42.5 -178.5 q1 -112 47 -177.5t138 -65.5q77 0 125 28z" />
<glyph unicode="&#x10d;" horiz-adv-x="464" d="M357 757l38 -23q-53 -78 -89 -156l-95 -8q-39 88 -92 164l37 23q53 -42 102 -111q46 67 99 111zM421 481l-11 -99q-50 43 -111 43q-56 0 -93 -44.5t-37 -131.5q0 -82 35 -127t102 -45q54 0 112 28l-2 -85q-52 -30 -133 -30q-106 0 -172 66.5t-66 187.5q0 129 71.5 197.5 t178.5 68.5q71 0 126 -29z" />
<glyph unicode="&#x10e;" horiz-adv-x="648" d="M441 876l32 -26q-58 -58 -100 -124l-97 -8q-43 71 -103 132l32 26q65 -35 119 -85q53 50 117 85zM90 528l-9 122h212q143 0 223 -88t79 -235q-1 -152 -86.5 -239.5t-227.5 -87.5h-191v528zM276 575h-65v-499h69q92 0 138 68t45 181q-1 114 -47.5 182t-139.5 68z" />
<glyph unicode="&#x10f;" horiz-adv-x="561" d="M659 751q-29 -114 -94 -208l-41 9q25 97 35 205zM388 -10q-12 23 -23 66q-52 -66 -141 -66q-81 0 -130 66t-49 180q0 132 64 203t157 71q53 0 94 -23v76l-9 122l129 10v-542q0 -85 23 -153zM169 244q0 -87 28.5 -137t82.5 -50q48 0 80 36v1v330q-32 19 -68 19 q-123 0 -123 -199z" />
<glyph unicode="&#x110;" horiz-adv-x="648" d="M90 528l-9 122h212q143 0 223 -88t79 -235q-1 -152 -86.5 -239.5t-227.5 -87.5h-191v300h-75v51h75v177zM369 300h-158v-224h69q92 0 138 68t45 181q-1 114 -47.5 182t-139.5 68h-65v-224h158v-51z" />
<glyph unicode="&#x111;" horiz-adv-x="561" d="M388 -10q-12 23 -23 66q-52 -66 -141 -66q-81 0 -130 66t-49 180q0 132 64 203t157 71q53 0 94 -23v73h-172v51h168l-5 74l129 10v-84h81v-51h-81v-407q0 -85 23 -153zM169 244q0 -87 28.5 -137t82.5 -50q48 0 80 36v1v330q-32 19 -68 19q-123 0 -123 -199z" />
<glyph unicode="&#x112;" horiz-adv-x="508" d="M131 760v72h275v-72h-275zM461 0h-371v523l-9 127h375l-8 -80l-237 7v-219l185 4l-8 -76l-177 4v-217l252 8z" />
<glyph unicode="&#x113;" horiz-adv-x="514" d="M148 624v73h245v-73h-245zM445 20q-60 -30 -151 -30q-114 0 -181.5 66t-67.5 188q0 123 65.5 194.5t165.5 71.5q87 0 140 -52t53 -135q0 -28 -5 -65l-10 -17h-284q10 -164 155 -164q64 0 122 28zM272 445q-47 0 -75 -45.5t-28 -120.5l182 7q2 30 2 43q0 54 -21 85t-60 31 z" />
<glyph unicode="&#x114;" horiz-adv-x="508" d="M266 724q-54 0 -91.5 38.5t-41.5 97.5l42 7q24 -67 94 -67q67 0 92 67l43 7q-4 -65 -42 -107.5t-96 -42.5zM461 0h-371v523l-9 127h375l-8 -80l-237 7v-219l185 4l-8 -76l-177 4v-217l252 8z" />
<glyph unicode="&#x115;" horiz-adv-x="514" d="M266 571q-53 0 -87.5 45.5t-37.5 123.5l44 7q16 -104 85 -104q34 0 56 27.5t30 77.5l43 6q-3 -82 -39 -132.5t-94 -50.5zM445 20q-60 -30 -151 -30q-114 0 -181.5 66t-67.5 188q0 123 65.5 194.5t165.5 71.5q87 0 140 -52t53 -135q0 -28 -5 -65l-10 -17h-284 q10 -164 155 -164q64 0 122 28zM272 445q-47 0 -75 -45.5t-28 -120.5l182 7q2 30 2 43q0 54 -21 85t-60 31z" />
<glyph unicode="&#x116;" horiz-adv-x="508" d="M340 802q0 -32 -22 -52t-55 -20q-30 0 -48 16.5t-18 43.5q0 31 22 52t56 21q29 0 47 -16t18 -45zM461 0h-371v523l-9 127h375l-8 -80l-237 7v-219l185 4l-8 -76l-177 4v-217l252 8z" />
<glyph unicode="&#x117;" horiz-adv-x="514" d="M342 665q0 -32 -22 -52t-55 -20q-30 0 -48 16.5t-18 43.5q0 31 21.5 52t55.5 21q30 0 48 -16t18 -45zM445 20q-60 -30 -151 -30q-114 0 -181.5 66t-67.5 188q0 123 65.5 194.5t165.5 71.5q87 0 140 -52t53 -135q0 -28 -5 -65l-10 -17h-284q10 -164 155 -164q64 0 122 28z M272 445q-47 0 -75 -45.5t-28 -120.5l182 7q2 30 2 43q0 54 -21 85t-60 31z" />
<glyph unicode="&#x118;" horiz-adv-x="508" d="M460 0q-43 -18 -71.5 -47.5t-28.5 -56.5q0 -38 45 -38q18 0 49 12l12 -34q-38 -35 -103 -35q-40 0 -64.5 17.5t-24.5 50.5q0 39 31 73.5t83 57.5h-298v523l-9 127h375l-8 -80l-237 7v-219l185 4l-8 -76l-177 4v-217l252 8l-2 -81h-1z" />
<glyph unicode="&#x119;" horiz-adv-x="514" d="M445 20q-49 -26 -80 -60t-31 -64q0 -38 44 -38q20 0 49 12l13 -34q-38 -35 -103 -35q-41 0 -65 17.5t-24 50.5q0 68 86 123q-26 -2 -40 -2q-114 0 -181.5 66t-67.5 188q0 123 65.5 194.5t165.5 71.5q87 0 140 -52t53 -135q0 -28 -5 -65l-10 -17h-284q10 -164 155 -164 q64 0 122 28zM272 445q-47 0 -75 -45.5t-28 -120.5l182 7q2 30 2 43q0 54 -21 85t-60 31z" />
<glyph unicode="&#x11a;" horiz-adv-x="508" d="M387 876l32 -26q-61 -61 -101 -124l-97 -8q-41 70 -103 132l32 26q68 -37 119 -85q56 51 118 85zM461 0h-371v523l-9 127h375l-8 -80l-237 7v-219l185 4l-8 -76l-177 4v-217l252 8z" />
<glyph unicode="&#x11b;" horiz-adv-x="514" d="M370 757l38 -23q-53 -78 -89 -156l-95 -8q-39 88 -92 164l37 23q53 -42 102 -111q46 67 99 111zM445 20q-60 -30 -151 -30q-114 0 -181.5 66t-67.5 188q0 123 65.5 194.5t165.5 71.5q87 0 140 -52t53 -135q0 -28 -5 -65l-10 -17h-284q10 -164 155 -164q64 0 122 28z M272 445q-47 0 -75 -45.5t-28 -120.5l182 7q2 30 2 43q0 54 -21 85t-60 31z" />
<glyph unicode="&#x11c;" horiz-adv-x="616" d="M222 718l-32 27q54 53 100 123l97 8q46 -74 103 -131l-32 -27q-68 37 -119 85q-55 -50 -117 -85zM544 26q-86 -36 -186 -36q-143 0 -224.5 89.5t-80.5 240.5q1 154 86 247t226 93q96 0 172 -37l-19 -94q-64 42 -144 42q-93 0 -141.5 -66.5t-47.5 -179.5q1 -117 53 -185.5 t151 -68.5q26 0 49 4v89l-9 123l115 10v-271z" />
<glyph unicode="&#x11d;" horiz-adv-x="507" d="M151 569l-38 22q52 76 89 157l95 8q38 -87 92 -165l-38 -22q-51 41 -101 110q-50 -71 -99 -110zM99 89q0 25 17.5 45.5t49.5 31.5q-57 16 -89 56.5t-32 102.5q0 83 54.5 134t144.5 51q153 0 245 8v-77l-127 7v-1q39 -13 60.5 -48t21.5 -80q0 -75 -57 -118t-147 -44 q-6 0 -17.5 0.5t-17.5 1.5q-12 -11 -12 -26q0 -36 64 -39l69 -3q168 -10 168 -125q0 -74 -69 -116.5t-200 -42.5q-97 0 -152 26.5t-56 77.5q0 44 37 72.5t89 38.5q-43 26 -44 67zM163 327q0 -52 21.5 -85t62.5 -33q78 0 78 118t-78 118q-40 0 -62 -32t-22 -86zM134 -66 q0 -39 29.5 -62t82.5 -23q60 0 98.5 25t38.5 63q0 60 -96 66l-84 3q-4 1 -11 1q-58 -25 -58 -73z" />
<glyph unicode="&#x11e;" horiz-adv-x="616" d="M337 724q-53 0 -91 39t-42 97l43 7q24 -67 93 -67q68 0 93 67l43 7q-5 -65 -43 -107.5t-96 -42.5zM544 26q-86 -36 -186 -36q-143 0 -224.5 89.5t-80.5 240.5q1 154 86 247t226 93q96 0 172 -37l-19 -94q-64 42 -144 42q-93 0 -141.5 -66.5t-47.5 -179.5 q1 -117 53 -185.5t151 -68.5q26 0 49 4v89l-9 123l115 10v-271z" />
<glyph unicode="&#x11f;" horiz-adv-x="507" d="M247 571q-53 0 -87.5 45.5t-37.5 123.5l44 7q16 -104 85 -104q34 0 56 27.5t30 77.5l43 6q-3 -82 -39 -132.5t-94 -50.5zM99 89q0 25 17.5 45.5t49.5 31.5q-57 16 -89 56.5t-32 102.5q0 83 54.5 134t144.5 51q153 0 245 8v-77l-127 7v-1q39 -13 60.5 -48t21.5 -80 q0 -75 -57 -118t-147 -44q-6 0 -17.5 0.5t-17.5 1.5q-12 -11 -12 -26q0 -36 64 -39l69 -3q168 -10 168 -125q0 -74 -69 -116.5t-200 -42.5q-97 0 -152 26.5t-56 77.5q0 44 37 72.5t89 38.5q-43 26 -44 67zM163 327q0 -52 21.5 -85t62.5 -33q78 0 78 118t-78 118 q-40 0 -62 -32t-22 -86zM134 -66q0 -39 29.5 -62t82.5 -23q60 0 98.5 25t38.5 63q0 60 -96 66l-84 3q-4 1 -11 1q-58 -25 -58 -73z" />
<glyph unicode="&#x120;" horiz-adv-x="616" d="M412 802q0 -32 -22 -52t-55 -20q-30 0 -48 16.5t-18 43.5q0 31 21.5 52t55.5 21q30 0 48 -16t18 -45zM544 26q-86 -36 -186 -36q-143 0 -224.5 89.5t-80.5 240.5q1 154 86 247t226 93q96 0 172 -37l-19 -94q-64 42 -144 42q-93 0 -141.5 -66.5t-47.5 -179.5 q1 -117 53 -185.5t151 -68.5q26 0 49 4v89l-9 123l115 10v-271z" />
<glyph unicode="&#x121;" horiz-adv-x="507" d="M323 665q0 -32 -22 -52t-55 -20q-30 0 -48 16.5t-18 43.5q0 31 21.5 52t55.5 21q30 0 48 -16t18 -45zM99 89q0 25 17.5 45.5t49.5 31.5q-57 16 -89 56.5t-32 102.5q0 83 54.5 134t144.5 51q153 0 245 8v-77l-127 7v-1q39 -13 60.5 -48t21.5 -80q0 -75 -57 -118t-147 -44 q-6 0 -17.5 0.5t-17.5 1.5q-12 -11 -12 -26q0 -36 64 -39l69 -3q168 -10 168 -125q0 -74 -69 -116.5t-200 -42.5q-97 0 -152 26.5t-56 77.5q0 44 37 72.5t89 38.5q-43 26 -44 67zM163 327q0 -52 21.5 -85t62.5 -33q78 0 78 118t-78 118q-40 0 -62 -32t-22 -86zM134 -66 q0 -39 29.5 -62t82.5 -23q60 0 98.5 25t38.5 63q0 60 -96 66l-84 3q-4 1 -11 1q-58 -25 -58 -73z" />
<glyph unicode="&#x122;" horiz-adv-x="616" d="M544 26q-86 -36 -186 -36q-143 0 -224.5 89.5t-80.5 240.5q1 154 86 247t226 93q96 0 172 -37l-19 -94q-64 42 -144 42q-93 0 -141.5 -66.5t-47.5 -179.5q1 -117 53 -185.5t151 -68.5q26 0 49 4v89l-9 123l115 10v-271zM387 -141q0 -37 -23 -78.5t-55 -69.5l-28 13 q24 40 33 84q-48 9 -48 56q0 28 17.5 46t44.5 18t43 -19t16 -50z" />
<glyph unicode="&#x123;" horiz-adv-x="507" d="M190 647q0 36 22.5 77.5t54.5 70.5l29 -14q-25 -37 -34 -84q48 -9 48 -56q0 -28 -17 -45.5t-44 -17.5t-43 19t-16 50zM99 89q0 25 17.5 45.5t49.5 31.5q-57 16 -89 56.5t-32 102.5q0 83 54.5 134t144.5 51q153 0 245 8v-77l-127 7v-1q39 -13 60.5 -48t21.5 -80 q0 -75 -57 -118t-147 -44q-6 0 -17.5 0.5t-17.5 1.5q-12 -11 -12 -26q0 -36 64 -39l69 -3q168 -10 168 -125q0 -74 -69 -116.5t-200 -42.5q-97 0 -152 26.5t-56 77.5q0 44 37 72.5t89 38.5q-43 26 -44 67zM163 327q0 -52 21.5 -85t62.5 -33q78 0 78 118t-78 118 q-40 0 -62 -32t-22 -86zM134 -66q0 -39 29.5 -62t82.5 -23q60 0 98.5 25t38.5 63q0 60 -96 66l-84 3q-4 1 -11 1q-58 -25 -58 -73z" />
<glyph unicode="&#x124;" horiz-adv-x="677" d="M220 718l-32 27q57 56 101 123l97 8q44 -73 103 -131l-32 -27q-65 35 -120 85q-53 -50 -117 -85zM211 0h-121v528l-9 122l130 10v-318h255v186l-9 122l130 11v-661h-121v275h-255v-275z" />
<glyph unicode="&#x125;" horiz-adv-x="561" d="M14 719l-33 26q58 57 101 124l97 8q43 -71 103 -132l-32 -26q-67 37 -119 84q-57 -50 -117 -84zM194 0h-120v563l-9 122l129 10v-271q58 86 160 86q66 0 101 -42.5t35 -113.5v-354h-120v325q0 100 -77 100q-53 0 -99 -46v-379z" />
<glyph unicode="&#x126;" horiz-adv-x="677" d="M211 0h-121v468h-74v51h74v9l-9 122l130 10v-141h255v9l-9 122l130 11v-142h74v-51h-74v-468h-121v275h-255v-275zM211 342h255v126h-255v-126z" />
<glyph unicode="&#x127;" horiz-adv-x="561" d="M194 0h-120v563h-72v51h68l-5 71l129 10v-81h181v-51h-181v-139q58 86 160 86q66 0 101 -42.5t35 -113.5v-354h-120v325q0 100 -77 100q-53 0 -99 -46v-379z" />
<glyph unicode="&#x128;" horiz-adv-x="301" d="M93 857q27 0 65 -21t57 -21q31 0 58 47l30 -7q-5 -48 -29 -83t-65 -35q-26 0 -66 21.5t-57 21.5q-33 0 -58 -47l-31 7q6 49 29.5 83t66.5 34zM211 0h-121v528l-9 122l130 10v-660z" />
<glyph unicode="&#x129;" horiz-adv-x="265" d="M93 730q23 0 48.5 -24t36.5 -24q27 0 40 50l34 -7q-2 -54 -21 -90t-52 -36q-24 0 -49.5 23.5t-37.5 23.5q-26 0 -39 -49l-34 6q2 54 21.5 90.5t52.5 36.5zM194 0h-120v377l-9 123l129 10v-510z" />
<glyph unicode="&#x12a;" horiz-adv-x="301" d="M13 760v72h275v-72h-275zM211 0h-121v528l-9 122l130 10v-660z" />
<glyph unicode="&#x12b;" horiz-adv-x="265" d="M44 624v73h193v-73h-193zM194 0h-120v377l-9 123l129 10v-510z" />
<glyph unicode="&#x12c;" horiz-adv-x="301" d="M148 724q-54 0 -91.5 38.5t-41.5 97.5l42 7q24 -67 94 -67q67 0 92 67l43 7q-4 -65 -42 -107.5t-96 -42.5zM211 0h-121v528l-9 122l130 10v-660z" />
<glyph unicode="&#x12d;" horiz-adv-x="265" d="M132 569q-47 0 -76 46t-30 125l45 7q12 -101 65 -101q54 0 65 102l44 6q-2 -83 -32 -134t-81 -51zM194 0h-120v377l-9 123l129 10v-510z" />
<glyph unicode="&#x12e;" horiz-adv-x="363" d="M245 0q-34 -20 -56 -47.5t-22 -53.5q0 -41 45 -41q18 0 49 12l12 -34q-39 -35 -103 -35q-40 0 -64.5 19t-24.5 54q0 36 26.5 69t72.5 57h-56v528l-9 122l130 10v-660z" />
<glyph unicode="&#x12f;" horiz-adv-x="314" d="M238 665q0 -32 -22 -52t-55 -20q-30 0 -48 16.5t-18 43.5q0 31 22 52t56 21q29 0 47 -16t18 -45zM225 0q-33 -22 -54 -51t-21 -53q0 -38 44 -38q20 0 49 12l13 -34q-38 -35 -103 -35q-41 0 -65 17.5t-25 50.5q0 36 27 71t73 60h-58v377l-9 123l129 10v-510z" />
<glyph unicode="&#x130;" horiz-adv-x="301" d="M222 802q0 -32 -22 -52t-55 -20q-30 0 -48 16.5t-18 43.5q0 31 22 52t56 21q29 0 47 -16t18 -45zM211 0h-121v528l-9 122l130 10v-660z" />
<glyph unicode="&#x131;" horiz-adv-x="265" d="M194 0h-120v377l-9 123l129 10v-510z" />
<glyph unicode="&#x132;" horiz-adv-x="601" d="M211 0h-121v528l-9 122l130 10v-660zM296 -140q95 35 95 154v514l-9 122l129 10v-582q0 -123 -43.5 -189t-162.5 -84z" />
<glyph unicode="&#x133;" horiz-adv-x="530" d="M207 665q0 -32 -22 -52t-55 -20q-30 0 -48 16.5t-18 43.5q0 31 22 52t56 21q29 0 47 -16t18 -45zM470 665q0 -32 -22 -52t-55 -20q-30 0 -48 16.5t-18 43.5q0 31 21.5 52t55.5 21q30 0 48 -16t18 -45zM194 0h-120v377l-9 123l129 10v-510zM274 -149q65 72 65 203v323 l-9 123l129 10v-438q0 -101 -36 -167t-122 -98z" />
<glyph unicode="&#x134;" horiz-adv-x="300" d="M32 718l-33 27q55 52 101 123l97 8q46 -74 103 -131l-32 -27q-68 37 -119 85q-55 -50 -117 -85zM-6 -140q96 35 96 154v514l-9 122l129 10v-582q0 -123 -43.5 -189t-162.5 -84z" />
<glyph unicode="&#x135;" horiz-adv-x="265" d="M62 568l-33 16q28 66 55 163l95 8q30 -105 58 -171l-33 -16q-36 44 -72 109q-38 -67 -70 -109zM9 -149q65 72 65 203v323l-9 123l129 10v-438q0 -101 -36 -167t-122 -98z" />
<glyph unicode="&#x136;" horiz-adv-x="589" d="M90 528l-9 122l131 10v-310h71l157 310l114 -10l-174 -333l179 -317l-126 -10l-151 293h-70v-283h-122v528zM365 -141q0 -36 -23 -78t-54 -70l-29 13q26 43 33 84q-47 9 -47 56q0 28 17.5 46t43.5 18q27 0 43 -19t16 -50z" />
<glyph unicode="&#x137;" horiz-adv-x="518" d="M194 0h-120v563l-9 122l129 10v-410h52l135 225l119 -10l-152 -229l168 -271l-130 -10l-137 246h-55v-236zM332 -141q0 -37 -23 -78.5t-55 -69.5l-29 13q25 38 34 84q-48 9 -48 56q0 28 17.5 46t44.5 18t43 -19t16 -50z" />
<glyph unicode="&#x138;" horiz-adv-x="523" d="M184 0h-120v378l-9 122l129 10v-225h52l135 225l119 -10l-152 -229l168 -271l-130 -10l-137 246h-55v-236z" />
<glyph unicode="&#x139;" horiz-adv-x="483" d="M280 808q-87 -62 -207 -86l-29 33q101 60 170 120zM458 0h-368v528l-9 122l130 10v-587l250 13z" />
<glyph unicode="&#x13a;" horiz-adv-x="265" d="M252 802q-89 -62 -208 -86l-28 33q100 61 170 120zM194 0h-120v563l-9 122l129 10v-695z" />
<glyph unicode="&#x13b;" horiz-adv-x="483" d="M458 0h-368v528l-9 122l130 10v-587l250 13zM328 -141q0 -37 -23 -78.5t-55 -69.5l-29 13q25 38 34 84q-48 9 -48 56q0 28 17.5 46t44.5 18t43 -19t16 -50z" />
<glyph unicode="&#x13c;" horiz-adv-x="265" d="M194 0h-120v563l-9 122l129 10v-695zM194 -141q0 -36 -23 -78t-54 -70l-29 13q26 43 33 84q-47 9 -47 56q0 28 17.5 46t43.5 18q27 0 43 -19t16 -50z" />
<glyph unicode="&#x13d;" horiz-adv-x="483" d="M433 695q-29 -115 -94 -209l-41 10q25 98 35 205zM458 0h-368v528l-9 122l130 10v-587l250 13z" />
<glyph unicode="&#x13e;" horiz-adv-x="265" d="M374 721q-28 -112 -93 -208l-41 9q22 86 35 205zM194 0h-120v563l-9 122l129 10v-695z" />
<glyph unicode="&#x13f;" horiz-adv-x="561" d="M424 247q-26 0 -42.5 16t-16.5 41q0 26 19 45t46 19q24 0 39.5 -15t15.5 -40q0 -27 -17 -46.5t-44 -19.5zM458 0h-368v528l-9 122l130 10v-587l250 13z" />
<glyph unicode="&#x140;" horiz-adv-x="478" d="M194 0h-120v563l-9 122l129 10v-695zM369 215q-25 0 -41.5 16t-16.5 41q0 27 18.5 45.5t45.5 18.5q25 0 40.5 -15t15.5 -39q0 -28 -17.5 -47.5t-44.5 -19.5z" />
<glyph unicode="&#x141;" horiz-adv-x="483" d="M458 0h-368v267l-74 -41l-26 48l100 55v199l-9 122l130 10v-264l129 72l27 -48l-156 -86v-261l250 13z" />
<glyph unicode="&#x142;" horiz-adv-x="265" d="M194 0h-120v294l-76 -42l-26 47l102 57v207l-9 122l129 10v-271l77 43l27 -47l-104 -59v-361z" />
<glyph unicode="&#x143;" horiz-adv-x="668" d="M452 808q-89 -62 -208 -86l-28 33q100 61 170 120zM90 528l-9 122l105 10l300 -502h2l-10 492l100 10v-660h-110l-287 483h-2l10 -483h-99v528z" />
<glyph unicode="&#x144;" horiz-adv-x="561" d="M378 726q-54 -96 -142 -162l-37 20q48 76 85 176zM194 0h-120v378l-9 122l129 10v-85q58 85 162 85q64 0 99 -42.5t35 -113.5v-354h-120v325q0 100 -77 100q-53 0 -99 -46v-379z" />
<glyph unicode="&#x145;" horiz-adv-x="668" d="M90 528l-9 122l105 10l300 -502h2l-10 492l100 10v-660h-110l-287 483h-2l10 -483h-99v528zM394 -141q0 -36 -23 -78t-54 -70l-29 13q26 43 33 84q-47 9 -47 56q0 28 17.5 46t43.5 18q27 0 43 -19t16 -50z" />
<glyph unicode="&#x146;" horiz-adv-x="561" d="M194 0h-120v378l-9 122l129 10v-85q58 85 162 85q64 0 99 -42.5t35 -113.5v-354h-120v325q0 100 -77 100q-53 0 -99 -46v-379zM342 -141q0 -36 -23 -78t-54 -70l-29 13q26 43 33 84q-47 9 -47 56q0 28 17.5 46t43.5 18q27 0 43 -19t16 -50z" />
<glyph unicode="&#x147;" horiz-adv-x="668" d="M452 876l32 -26q-58 -58 -100 -124l-97 -8q-43 71 -103 132l32 26q65 -35 119 -85q53 50 117 85zM90 528l-9 122l105 10l300 -502h2l-10 492l100 10v-660h-110l-287 483h-2l10 -483h-99v528z" />
<glyph unicode="&#x148;" horiz-adv-x="561" d="M388 757l38 -23q-56 -82 -90 -156l-95 -8q-39 88 -92 164l38 23q52 -42 101 -111q50 71 100 111zM194 0h-120v378l-9 122l129 10v-85q58 85 162 85q64 0 99 -42.5t35 -113.5v-354h-120v325q0 100 -77 100q-53 0 -99 -46v-379z" />
<glyph unicode="&#x149;" horiz-adv-x="692" d="M170 628q0 -52 -36 -110.5t-86 -92.5l-18 20q54 62 67 130q-48 8 -48 55q0 29 17.5 47t43.5 18q27 0 43.5 -18.5t16.5 -48.5zM326 0h-120v378l-9 122l129 10v-85q57 85 161 85q64 0 99 -42.5t35 -113.5v-354h-120v325q0 100 -76 100q-53 0 -99 -46v-379z" />
<glyph unicode="&#x14a;" horiz-adv-x="668" d="M362 -140q96 35 96 154v3l-277 466h-2l10 -483h-99v528l-9 122l105 10l300 -502h2l-10 492l100 10v-582q0 -123 -43.5 -189t-162.5 -84z" />
<glyph unicode="&#x14b;" horiz-adv-x="561" d="M194 0h-120v378l-9 122l129 10v-85q58 85 162 85q64 0 99 -42.5t35 -113.5v-282q0 -101 -36 -167t-122 -98l-28 44q66 74 66 203v271q0 100 -77 100q-53 0 -99 -46v-379z" />
<glyph unicode="&#x14c;" horiz-adv-x="658" d="M192 760v72h275v-72h-275zM606 327q-1 -156 -79 -246.5t-203 -90.5q-126 0 -199 89.5t-72 240.5q1 154 78 247t205 93q126 0 198.5 -91t71.5 -242zM185 327q1 -114 39.5 -185.5t108.5 -71.5q69 0 105.5 70t35.5 185t-38.5 185.5t-106.5 70.5t-107 -70t-37 -184z" />
<glyph unicode="&#x14d;" horiz-adv-x="554" d="M155 624v73h245v-73h-245zM509 259q0 -130 -70 -199.5t-173 -69.5q-99 0 -160 65t-61 185q0 131 70 200.5t173 69.5q99 0 160 -65.5t61 -185.5zM169 244q0 -87 27 -137t78 -50q50 0 80.5 49t30.5 150q0 187 -103 187q-52 0 -82.5 -49t-30.5 -150z" />
<glyph unicode="&#x14e;" horiz-adv-x="658" d="M327 724q-54 0 -91.5 38.5t-41.5 97.5l42 7q24 -67 94 -67q67 0 92 67l43 7q-4 -65 -42 -107.5t-96 -42.5zM606 327q-1 -156 -79 -246.5t-203 -90.5q-126 0 -199 89.5t-72 240.5q1 154 78 247t205 93q126 0 198.5 -91t71.5 -242zM185 327q1 -114 39.5 -185.5t108.5 -71.5 q69 0 105.5 70t35.5 185t-38.5 185.5t-106.5 70.5t-107 -70t-37 -184z" />
<glyph unicode="&#x14f;" horiz-adv-x="554" d="M273 571q-53 0 -87.5 45.5t-37.5 123.5l44 7q16 -104 85 -104q34 0 56 27.5t30 77.5l43 6q-3 -82 -39 -132.5t-94 -50.5zM509 259q0 -130 -70 -199.5t-173 -69.5q-99 0 -160 65t-61 185q0 131 70 200.5t173 69.5q99 0 160 -65.5t61 -185.5zM169 244q0 -87 27 -137t78 -50 q50 0 80.5 49t30.5 150q0 187 -103 187q-52 0 -82.5 -49t-30.5 -150z" />
<glyph unicode="&#x150;" horiz-adv-x="658" d="M335 818q-85 -66 -205 -96l-19 26q98 67 163 128zM548 818q-85 -66 -205 -96l-19 26q98 67 163 128zM606 327q-1 -156 -79 -246.5t-203 -90.5q-126 0 -199 89.5t-72 240.5q1 154 78 247t205 93q126 0 198.5 -91t71.5 -242zM185 327q1 -114 39.5 -185.5t108.5 -71.5 q69 0 105.5 70t35.5 185t-38.5 185.5t-106.5 70.5t-107 -70t-37 -184z" />
<glyph unicode="&#x151;" horiz-adv-x="554" d="M296 740q-42 -101 -116 -173l-35 12q46 91 70 176zM447 740q-39 -97 -115 -173l-35 12q48 99 70 176zM509 259q0 -130 -70 -199.5t-173 -69.5q-99 0 -160 65t-61 185q0 131 70 200.5t173 69.5q99 0 160 -65.5t61 -185.5zM169 244q0 -87 27 -137t78 -50q50 0 80.5 49 t30.5 150q0 187 -103 187q-52 0 -82.5 -49t-30.5 -150z" />
<glyph unicode="&#x152;" horiz-adv-x="854" d="M734 286l-130 3q-10 -135 -82 -214l287 6l-2 -81h-407q-34 -10 -76 -10q-126 0 -199 89.5t-72 240.5q1 154 78 247t205 93q42 0 75 -10h391l-8 -80l-265 5q68 -80 76 -217l137 4zM185 327q1 -114 39.5 -185.5t108.5 -71.5q69 0 105.5 70t35.5 185t-38.5 185.5 t-106.5 70.5t-107 -70t-37 -184z" />
<glyph unicode="&#x153;" horiz-adv-x="853" d="M785 20q-60 -30 -151 -30q-126 0 -191 79q-66 -79 -177 -79q-99 0 -160 65t-61 185q0 131 70 200.5t172 69.5q107 0 164 -74q63 74 165 74q86 0 139 -52t53 -135q0 -37 -5 -65l-10 -17h-284q11 -164 156 -164q62 0 122 28zM612 445q-46 0 -74.5 -44.5t-29.5 -121.5l182 7 q3 22 3 43q0 54 -21 85t-60 31zM169 243q0 -87 27 -136.5t78 -49.5q50 0 80.5 49t30.5 150q0 187 -103 187q-52 0 -82.5 -49t-30.5 -151z" />
<glyph unicode="&#x154;" horiz-adv-x="578" d="M409 808q-87 -62 -207 -86l-29 33q101 60 170 120zM211 0h-121v528l-9 122h196q117 0 182 -55.5t65 -148.5q0 -67 -34 -115t-94 -72l149 -259l-128 -10l-123 247q-9 -1 -27 -1h-56v-236zM263 580h-52v-274h55q67 0 100 37.5t33 101.5q0 63 -33 99t-103 36z" />
<glyph unicode="&#x155;" horiz-adv-x="379" d="M289 726q-54 -96 -142 -162l-37 20q48 76 85 176zM194 0h-120v378l-9 122l129 10v-135q17 59 52.5 97t80.5 38q24 0 40 -7l-10 -119q-22 6 -55 9q-69 2 -108 -59v-334z" />
<glyph unicode="&#x156;" horiz-adv-x="578" d="M211 0h-121v528l-9 122h196q117 0 182 -55.5t65 -148.5q0 -67 -34 -115t-94 -72l149 -259l-128 -10l-123 247q-9 -1 -27 -1h-56v-236zM263 580h-52v-274h55q67 0 100 37.5t33 101.5q0 63 -33 99t-103 36zM352 -141q0 -37 -23 -78.5t-55 -69.5l-28 13q24 40 33 84 q-48 9 -48 56q0 28 17.5 46t44.5 18t43 -19t16 -50z" />
<glyph unicode="&#x157;" horiz-adv-x="379" d="M194 0h-120v378l-9 122l129 10v-135q17 59 52.5 97t80.5 38q24 0 40 -7l-10 -119q-22 6 -55 9q-69 2 -108 -59v-334zM200 -141q0 -37 -23 -78.5t-55 -69.5l-29 13q25 38 34 84q-48 9 -48 56q0 28 17.5 46t44.5 18t43 -19t16 -50z" />
<glyph unicode="&#x158;" horiz-adv-x="578" d="M410 876l32 -26q-61 -61 -101 -124l-97 -8q-41 70 -103 132l32 26q68 -37 119 -85q56 51 118 85zM211 0h-121v528l-9 122h196q117 0 182 -55.5t65 -148.5q0 -67 -34 -115t-94 -72l149 -259l-128 -10l-123 247q-9 -1 -27 -1h-56v-236zM263 580h-52v-274h55q67 0 100 37.5 t33 101.5q0 63 -33 99t-103 36z" />
<glyph unicode="&#x159;" horiz-adv-x="379" d="M299 757l38 -23q-56 -82 -90 -156l-95 -8q-39 88 -92 164l38 23q52 -42 101 -111q50 71 100 111zM194 0h-120v378l-9 122l129 10v-135q17 59 52.5 97t80.5 38q24 0 40 -7l-10 -119q-22 6 -55 9q-69 2 -108 -59v-334z" />
<glyph unicode="&#x15a;" horiz-adv-x="507" d="M383 808q-89 -62 -208 -86l-28 33q100 61 170 120zM460 166q0 -80 -60.5 -128t-160.5 -48q-109 0 -191 36l18 106q82 -52 165 -52q48 0 74 22.5t26 56.5q0 32 -28 60t-67.5 51t-79.5 49t-68 67t-28 93q0 82 62.5 131.5t161.5 49.5q97 0 167 -32l-22 -100q-70 43 -140 43 q-47 0 -73.5 -23.5t-26.5 -58.5q0 -34 28 -62.5t67.5 -52t79.5 -50t68 -67t28 -91.5z" />
<glyph unicode="&#x15b;" horiz-adv-x="452" d="M335 726q-54 -96 -142 -162l-37 20q48 76 85 176zM409 132q0 -64 -53 -103t-147 -39q-92 0 -166 31l8 98q72 -45 157 -45q41 0 62 16t21 43q0 11 -5 21.5t-11 17t-20 15t-22.5 13t-29 14t-29.5 13.5q-56 26 -87 57t-31 81q0 65 56 105t146 40q75 0 139 -27l-8 -97 q-71 41 -135 41q-36 0 -57.5 -17t-21.5 -44q0 -20 17 -37.5t32.5 -25.5t49.5 -24q30 -14 49.5 -25t41.5 -29t33 -41t11 -52z" />
<glyph unicode="&#x15c;" horiz-adv-x="507" d="M147 718l-32 27q54 53 100 123l97 8q46 -74 103 -131l-32 -27q-68 37 -119 85q-55 -50 -117 -85zM460 166q0 -80 -60.5 -128t-160.5 -48q-109 0 -191 36l18 106q82 -52 165 -52q48 0 74 22.5t26 56.5q0 32 -28 60t-67.5 51t-79.5 49t-68 67t-28 93q0 82 62.5 131.5 t161.5 49.5q97 0 167 -32l-22 -100q-70 43 -140 43q-47 0 -73.5 -23.5t-26.5 -58.5q0 -34 28 -62.5t67.5 -52t79.5 -50t68 -67t28 -91.5z" />
<glyph unicode="&#x15d;" horiz-adv-x="452" d="M144 569l-38 22q55 80 90 157l95 8q38 -87 92 -165l-38 -22q-52 40 -102 110q-47 -68 -99 -110zM409 132q0 -64 -53 -103t-147 -39q-92 0 -166 31l8 98q72 -45 157 -45q41 0 62 16t21 43q0 11 -5 21.5t-11 17t-20 15t-22.5 13t-29 14t-29.5 13.5q-56 26 -87 57t-31 81 q0 65 56 105t146 40q75 0 139 -27l-8 -97q-71 41 -135 41q-36 0 -57.5 -17t-21.5 -44q0 -20 17 -37.5t32.5 -25.5t49.5 -24q30 -14 49.5 -25t41.5 -29t33 -41t11 -52z" />
<glyph unicode="&#x15e;" horiz-adv-x="507" d="M268 -117q0 28 -58 38l24 69q-110 2 -186 36l18 106q82 -52 165 -52q48 0 74 22.5t26 56.5q0 32 -28 60t-67.5 51t-79.5 49t-68 67t-28 93q0 82 62.5 131.5t161.5 49.5q97 0 167 -32l-22 -100q-70 43 -140 43q-47 0 -73.5 -23.5t-26.5 -58.5q0 -34 28 -62.5t67.5 -52 t79.5 -50t68 -67t28 -91.5q0 -72 -49.5 -118.5t-134.5 -55.5l-14 -37q98 -13 98 -69q0 -39 -45.5 -61t-124.5 -23l-4 36q82 9 82 45z" />
<glyph unicode="&#x15f;" horiz-adv-x="452" d="M230 -117q0 28 -58 38l25 69q-90 3 -154 31l8 98q72 -45 157 -45q41 0 62 16t21 43q0 11 -5 21.5t-11 17t-20 15t-22.5 13t-29 14t-29.5 13.5q-56 26 -87 57t-31 81q0 65 56 105t146 40q75 0 139 -27l-8 -97q-71 41 -135 41q-36 0 -57.5 -17t-21.5 -44q0 -20 17 -37.5 t32.5 -25.5t49.5 -24q30 -14 49.5 -25t41.5 -29t33 -41t11 -52q0 -59 -45.5 -97t-126.5 -44l-13 -36q98 -13 98 -69q0 -39 -45.5 -61t-124.5 -23l-4 36q82 9 82 45z" />
<glyph unicode="&#x160;" horiz-adv-x="507" d="M383 876l32 -26q-58 -58 -100 -124l-97 -8q-43 71 -103 132l32 26q65 -35 119 -85q53 50 117 85zM460 166q0 -80 -60.5 -128t-160.5 -48q-109 0 -191 36l18 106q82 -52 165 -52q48 0 74 22.5t26 56.5q0 32 -28 60t-67.5 51t-79.5 49t-68 67t-28 93q0 82 62.5 131.5 t161.5 49.5q97 0 167 -32l-22 -100q-70 43 -140 43q-47 0 -73.5 -23.5t-26.5 -58.5q0 -34 28 -62.5t67.5 -52t79.5 -50t68 -67t28 -91.5z" />
<glyph unicode="&#x161;" horiz-adv-x="452" d="M345 757l38 -23q-56 -82 -90 -156l-95 -8q-39 88 -92 164l38 23q52 -42 101 -111q50 71 100 111zM409 132q0 -64 -53 -103t-147 -39q-92 0 -166 31l8 98q72 -45 157 -45q41 0 62 16t21 43q0 11 -5 21.5t-11 17t-20 15t-22.5 13t-29 14t-29.5 13.5q-56 26 -87 57t-31 81 q0 65 56 105t146 40q75 0 139 -27l-8 -97q-71 41 -135 41q-36 0 -57.5 -17t-21.5 -44q0 -20 17 -37.5t32.5 -25.5t49.5 -24q30 -14 49.5 -25t41.5 -29t33 -41t11 -52z" />
<glyph unicode="&#x162;" horiz-adv-x="519" d="M259 -117q0 28 -57 38l28 79h-30v569l-177 -7l7 88h460l7 -88l-176 7v-569h-51l-16 -45q46 -6 72 -24t26 -45q0 -39 -46 -61t-124 -23l-4 36q81 9 81 45z" />
<glyph unicode="&#x163;" horiz-adv-x="396" d="M215 -117q0 28 -58 38l27 75q-101 25 -101 159v280l-55 2v34l65 12l21 137l89 6v-143h161l-5 -54l-156 4v-254q0 -46 15.5 -73.5t59.5 -27.5q48 0 88 25l2 -83q-51 -30 -130 -30h-16l-13 -35q98 -13 98 -69q0 -39 -45.5 -61t-124.5 -23l-4 36q82 9 82 45z" />
<glyph unicode="&#x164;" horiz-adv-x="519" d="M378 876l32 -26q-61 -61 -101 -124l-97 -8q-41 70 -103 132l32 26q68 -37 119 -85q56 51 118 85zM321 0h-121v569l-177 -7l7 88h460l7 -88l-176 7v-569z" />
<glyph unicode="&#x165;" horiz-adv-x="396" d="M391 751q-29 -114 -94 -208l-41 9q25 97 35 205zM359 429l-156 4v-254q0 -46 15.5 -73.5t59.5 -27.5q48 0 88 25l2 -83q-51 -30 -130 -30q-155 0 -155 165v280l-55 2v34l65 12l21 137l89 6v-143h161z" />
<glyph unicode="&#x166;" horiz-adv-x="519" d="M321 0h-121v300h-127v51h127v218l-177 -7l7 88h460l7 -88l-176 7v-218h125v-51h-125v-300z" />
<glyph unicode="&#x167;" horiz-adv-x="396" d="M360 254h-157v-75q0 -46 15.5 -73.5t59.5 -27.5q48 0 88 25l2 -83q-51 -30 -130 -30q-155 0 -155 165v99h-56v51h56v130l-55 2v34l65 12l21 137l89 6v-143h161l-5 -54l-156 4v-128h157v-51z" />
<glyph unicode="&#x168;" horiz-adv-x="647" d="M266 857q27 0 65 -21t57 -21q31 0 58 47l30 -7q-5 -48 -29 -83t-65 -35q-26 0 -66 21.5t-57 21.5q-33 0 -58 -47l-30 7q5 48 28.5 82.5t66.5 34.5zM324 70q54 0 85.5 38t31.5 100v320l-9 122l130 10v-448q0 -102 -69.5 -162t-175.5 -60t-169 60t-63 162v316l-9 122 l130 10v-453q0 -62 31.5 -99.5t86.5 -37.5z" />
<glyph unicode="&#x169;" horiz-adv-x="557" d="M218 728q30 0 70.5 -25t60.5 -25q30 0 53 52l31 -7q-3 -49 -27 -85.5t-64 -36.5q-27 0 -70 25t-61 25q-32 0 -54 -51l-30 6q3 49 26.5 85.5t64.5 36.5zM71 142v358l120 10v-351q0 -49 19.5 -74.5t53.5 -25.5q47 0 92 42v399l120 10v-381q0 -77 22 -129l-114 -10 q-22 39 -27 86q-28 -39 -69.5 -62.5t-88.5 -23.5q-62 0 -95 42t-33 110z" />
<glyph unicode="&#x16a;" horiz-adv-x="647" d="M186 760v72h275v-72h-275zM324 70q54 0 85.5 38t31.5 100v320l-9 122l130 10v-448q0 -102 -69.5 -162t-175.5 -60t-169 60t-63 162v316l-9 122l130 10v-453q0 -62 31.5 -99.5t86.5 -37.5z" />
<glyph unicode="&#x16b;" horiz-adv-x="557" d="M161 624v73h245v-73h-245zM71 142v358l120 10v-351q0 -49 19.5 -74.5t53.5 -25.5q47 0 92 42v399l120 10v-381q0 -77 22 -129l-114 -10q-22 39 -27 86q-28 -39 -69.5 -62.5t-88.5 -23.5q-62 0 -95 42t-33 110z" />
<glyph unicode="&#x16c;" horiz-adv-x="647" d="M321 724q-54 0 -91.5 38.5t-41.5 97.5l42 7q24 -67 94 -67q67 0 92 67l43 7q-4 -65 -42 -107.5t-96 -42.5zM324 70q54 0 85.5 38t31.5 100v320l-9 122l130 10v-448q0 -102 -69.5 -162t-175.5 -60t-169 60t-63 162v316l-9 122l130 10v-453q0 -62 31.5 -99.5t86.5 -37.5z " />
<glyph unicode="&#x16d;" horiz-adv-x="557" d="M279 571q-53 0 -87.5 45.5t-37.5 123.5l44 7q16 -104 85 -104q34 0 56 27.5t30 77.5l43 6q-3 -82 -39 -132.5t-94 -50.5zM71 142v358l120 10v-351q0 -49 19.5 -74.5t53.5 -25.5q47 0 92 42v399l120 10v-381q0 -77 22 -129l-114 -10q-22 39 -27 86q-28 -39 -69.5 -62.5 t-88.5 -23.5q-62 0 -95 42t-33 110z" />
<glyph unicode="&#x16e;" horiz-adv-x="647" d="M425 804q0 -40 -31 -68t-77 -28q-43 0 -69 23.5t-26 57.5q0 39 32.5 67.5t79.5 28.5q41 0 66 -22.5t25 -58.5zM278 794q0 -18 12 -30.5t31 -12.5t33.5 14.5t14.5 33.5t-11.5 31t-30.5 12q-20 0 -34.5 -14.5t-14.5 -33.5zM324 70q54 0 85.5 38t31.5 100v320l-9 122l130 10 v-448q0 -102 -69.5 -162t-175.5 -60t-169 60t-63 162v316l-9 122l130 10v-453q0 -62 31.5 -99.5t86.5 -37.5z" />
<glyph unicode="&#x16f;" horiz-adv-x="557" d="M382 669q0 -45 -31 -73.5t-75 -28.5q-41 0 -66.5 24t-25.5 64q0 45 30.5 75t76.5 30q40 0 65.5 -25t25.5 -66zM236 660q0 -22 12 -35t32 -13q21 0 35.5 15t14.5 38q0 22 -12 36t-32 14q-22 0 -36 -15.5t-14 -39.5zM71 142v358l120 10v-351q0 -49 19.5 -74.5t53.5 -25.5 q47 0 92 42v399l120 10v-381q0 -77 22 -129l-114 -10q-22 39 -27 86q-28 -39 -69.5 -62.5t-88.5 -23.5q-62 0 -95 42t-33 110z" />
<glyph unicode="&#x170;" horiz-adv-x="647" d="M329 818q-85 -66 -205 -96l-19 26q98 67 163 128zM542 818q-85 -66 -205 -96l-19 26q98 67 163 128zM324 70q54 0 85.5 38t31.5 100v320l-9 122l130 10v-448q0 -102 -69.5 -162t-175.5 -60t-169 60t-63 162v316l-9 122l130 10v-453q0 -62 31.5 -99.5t86.5 -37.5z" />
<glyph unicode="&#x171;" horiz-adv-x="557" d="M302 740q-42 -101 -116 -173l-35 12q46 91 70 176zM453 740q-39 -97 -115 -173l-35 12q48 99 70 176zM71 142v358l120 10v-351q0 -49 19.5 -74.5t53.5 -25.5q47 0 92 42v399l120 10v-381q0 -77 22 -129l-114 -10q-22 39 -27 86q-28 -39 -69.5 -62.5t-88.5 -23.5 q-62 0 -95 42t-33 110z" />
<glyph unicode="&#x172;" horiz-adv-x="647" d="M324 70q54 0 85.5 38t31.5 100v320l-9 122l130 10v-448q0 -120 -95 -181q-100 -76 -100 -129q0 -20 11.5 -32t32.5 -12q20 0 49 12l13 -34q-39 -35 -102 -35q-42 0 -66 19t-24 55q0 61 74 117q-24 -2 -38 -2q-106 0 -169 60t-63 162v316l-9 122l130 10v-453 q0 -62 31.5 -99.5t86.5 -37.5z" />
<glyph unicode="&#x173;" horiz-adv-x="557" d="M71 142v358l120 10v-351q0 -49 19.5 -74.5t53.5 -25.5q47 0 92 42v399l120 10v-381q0 -77 22 -129q-43 -18 -71.5 -47.5t-28.5 -56.5q0 -38 45 -38q18 0 49 12l12 -34q-38 -35 -103 -35q-40 0 -64.5 17.5t-24.5 50.5q0 35 26 67.5t71 55.5l-25 -2q-22 39 -27 86 q-28 -39 -69.5 -62.5t-88.5 -23.5q-62 0 -95 42t-33 110z" />
<glyph unicode="&#x174;" horiz-adv-x="942" d="M353 718l-32 27q54 53 100 123l97 8q46 -74 103 -131l-32 -27q-68 37 -119 85q-55 -50 -117 -85zM183 0l-148 650l118 10l124 -571h1l126 561h148l122 -561h2l125 571l106 -10l-162 -650h-167l-109 534h-2l-117 -534h-167z" />
<glyph unicode="&#x175;" horiz-adv-x="775" d="M285 569l-38 22q55 80 90 157l95 8q38 -87 92 -165l-38 -22q-52 40 -102 110q-47 -68 -99 -110zM144 0l-123 501l120 9l89 -438h2l91 433h130l94 -433h2l87 438l114 -9q-54 -259 -131 -501h-148l-86 383h-2q-35 -177 -100 -383h-139z" />
<glyph unicode="&#x176;" horiz-adv-x="567" d="M166 718l-32 27q54 53 100 123l97 8q46 -74 103 -131l-32 -27q-68 37 -119 85q-55 -50 -117 -85zM344 0h-121v207l-203 443l118 10l147 -351h2l148 351l112 -10l-203 -443v-207z" />
<glyph unicode="&#x177;" horiz-adv-x="498" d="M152 569l-38 22q55 80 90 157l95 8q38 -87 92 -165l-38 -22q-52 40 -102 110q-47 -68 -99 -110zM59 -195q-54 0 -101 11v92q62 -16 122 -16q62 0 112.5 31.5t68.5 88.5h-102l-133 489l124 9l108 -438h2l101 438l112 -9q-57 -265 -142 -502q-39 -109 -102 -151.5 t-170 -42.5z" />
<glyph unicode="&#x178;" horiz-adv-x="567" d="M235 801q0 -33 -20 -51.5t-53 -18.5q-29 0 -46 15t-17 43q0 31 20.5 51.5t53.5 20.5q29 0 45.5 -16t16.5 -44zM469 801q0 -32 -20.5 -51t-53.5 -19q-29 0 -45.5 15.5t-16.5 43.5q0 31 20.5 51t53.5 20q28 0 45 -16t17 -44zM344 0h-121v207l-203 443l118 10l147 -351h2 l148 351l112 -10l-203 -443v-207z" />
<glyph unicode="&#x179;" horiz-adv-x="516" d="M376 808q-89 -62 -208 -86l-28 33q100 61 170 120zM473 0h-422l-16 63l300 502q-209 -3 -291 -8l8 93h405l16 -62l-302 -503q198 4 310 18z" />
<glyph unicode="&#x17a;" horiz-adv-x="454" d="M318 726q-55 -95 -142 -162l-37 20q51 83 85 176zM411 0h-364l-13 68l253 346h-44q-112 0 -206 -10l12 96h351l7 -68l-252 -345h53q107 0 213 14z" />
<glyph unicode="&#x17b;" horiz-adv-x="516" d="M330 802q0 -32 -22 -52t-55 -20q-30 0 -48 16.5t-18 43.5q0 31 21.5 52t55.5 21q30 0 48 -16t18 -45zM473 0h-422l-16 63l300 502q-209 -3 -291 -8l8 93h405l16 -62l-302 -503q198 4 310 18z" />
<glyph unicode="&#x17c;" horiz-adv-x="454" d="M299 665q0 -32 -22 -52t-55 -20q-30 0 -48 16.5t-18 43.5q0 31 21.5 52t55.5 21q30 0 48 -16t18 -45zM411 0h-364l-13 68l253 346h-44q-112 0 -206 -10l12 96h351l7 -68l-252 -345h53q107 0 213 14z" />
<glyph unicode="&#x17d;" horiz-adv-x="516" d="M376 876l32 -26q-58 -58 -100 -124l-97 -8q-43 71 -103 132l32 26q65 -35 119 -85q53 50 117 85zM473 0h-422l-16 63l300 502q-209 -3 -291 -8l8 93h405l16 -62l-302 -503q198 4 310 18z" />
<glyph unicode="&#x17e;" horiz-adv-x="454" d="M327 757l38 -23q-53 -78 -89 -156l-95 -8q-39 88 -92 164l38 23q52 -42 101 -111q46 67 99 111zM411 0h-364l-13 68l253 346h-44q-112 0 -206 -10l12 96h351l7 -68l-252 -345h53q107 0 213 14z" />
<glyph unicode="&#x18f;" horiz-adv-x="573" d="M43 228q0 56 5 101l10 15h337q-12 229 -179 229q-75 0 -137 -32l2 85q66 34 165 34q127 0 200.5 -87t73.5 -246t-72 -248t-185 -89q-98 0 -159 65.5t-61 172.5zM158 219q0 -76 29.5 -120t81.5 -44q60 0 94 64.5t34 181.5q-1 2 -1 5l-234 -8q-4 -39 -4 -79z" />
<glyph unicode="&#x192;" horiz-adv-x="552" d="M461 277l-165 3l-23 -215q-3 -29 -7.5 -51t-18 -56.5t-34 -57t-59 -39.5t-88.5 -17q-58 0 -111 20l28 69q49 -22 83 -22q86 0 96 137l14 235l-90 2l6 34l87 12q9 115 14 143q32 186 222 186q76 0 123 -27l-31 -85q-43 45 -98 45q-77 0 -95 -123q-12 -100 -14 -139h171z " />
<glyph unicode="&#x19d;" horiz-adv-x="668" d="M4 -195l-10 55q96 35 96 154v514l-9 122l105 10l300 -502h2l-10 492l100 10v-660h-110l-287 483h-2q5 -245 7 -432q1 -106 -40.5 -167.5t-141.5 -78.5z" />
<glyph unicode="&#x1cd;" horiz-adv-x="619" d="M428 876l32 -26q-61 -61 -101 -124l-97 -8q-41 70 -103 132l32 26q68 -37 119 -85q56 51 118 85zM144 0h-114l167 526l36 125l157 9l199 -660h-120l-44 154h-237zM307 566l-100 -347h200l-99 347h-1z" />
<glyph unicode="&#x1ce;" horiz-adv-x="520" d="M353 757l38 -23q-56 -82 -90 -156l-95 -8q-39 88 -92 164l38 23q52 -42 101 -111q50 71 100 111zM346 -10q-16 32 -24 75q-23 -31 -65.5 -53t-92.5 -22q-58 0 -91 33t-33 84q0 83 80 126t201 42v54q1 45 -23.5 68.5t-73.5 23.5q-71 0 -147 -48l-10 94q90 43 191 43 q183 0 183 -171q0 -12 -1.5 -96.5t-1.5 -105.5q0 -79 22 -137zM161 133q0 -35 18.5 -55.5t50.5 -20.5q22 0 47.5 12t42.5 29v144q-69 -2 -114 -29.5t-45 -79.5z" />
<glyph unicode="&#x1cf;" horiz-adv-x="301" d="M269 876l32 -26q-61 -61 -101 -124l-97 -8q-41 70 -103 132l32 26q68 -37 119 -85q56 51 118 85zM211 0h-121v528l-9 122l130 10v-660z" />
<glyph unicode="&#x1d0;" horiz-adv-x="265" d="M207 756l32 -15q-27 -70 -55 -164l-95 -8q-26 96 -57 172l32 15q36 -44 72 -109q39 69 71 109zM194 0h-120v377l-9 123l129 10v-510z" />
<glyph unicode="&#x1d1;" horiz-adv-x="658" d="M448 876l32 -26q-61 -61 -101 -124l-97 -8q-41 70 -103 132l32 26q68 -37 119 -85q56 51 118 85zM606 327q-1 -156 -79 -246.5t-203 -90.5q-126 0 -199 89.5t-72 240.5q1 154 78 247t205 93q126 0 198.5 -91t71.5 -242zM185 327q1 -114 39.5 -185.5t108.5 -71.5 q69 0 105.5 70t35.5 185t-38.5 185.5t-106.5 70.5t-107 -70t-37 -184z" />
<glyph unicode="&#x1d2;" horiz-adv-x="554" d="M377 757l38 -23q-53 -78 -89 -156l-95 -8q-39 88 -92 164l37 23q53 -42 102 -111q46 67 99 111zM509 259q0 -130 -70 -199.5t-173 -69.5q-99 0 -160 65t-61 185q0 131 70 200.5t173 69.5q99 0 160 -65.5t61 -185.5zM169 244q0 -87 27 -137t78 -50q50 0 80.5 49t30.5 150 q0 187 -103 187q-52 0 -82.5 -49t-30.5 -150z" />
<glyph unicode="&#x1d3;" horiz-adv-x="647" d="M442 876l32 -26q-61 -61 -101 -124l-97 -8q-41 70 -103 132l32 26q68 -37 119 -85q56 51 118 85zM324 70q54 0 85.5 38t31.5 100v320l-9 122l130 10v-448q0 -102 -69.5 -162t-175.5 -60t-169 60t-63 162v316l-9 122l130 10v-453q0 -62 31.5 -99.5t86.5 -37.5z" />
<glyph unicode="&#x1d4;" horiz-adv-x="557" d="M383 757l38 -23q-53 -78 -89 -156l-95 -8q-39 88 -92 164l37 23q53 -42 102 -111q46 67 99 111zM71 142v358l120 10v-351q0 -49 19.5 -74.5t53.5 -25.5q47 0 92 42v399l120 10v-381q0 -77 22 -129l-114 -10q-22 39 -27 86q-28 -39 -69.5 -62.5t-88.5 -23.5q-62 0 -95 42 t-33 110z" />
<glyph unicode="&#x1d5;" horiz-adv-x="647" d="M186 971v71h275v-71h-275zM275 801q0 -32 -20.5 -51t-53.5 -19q-29 0 -45.5 15.5t-16.5 42.5q0 31 20.5 51.5t53.5 20.5q29 0 45.5 -16t16.5 -44zM508 801q0 -32 -20.5 -51t-52.5 -19q-29 0 -45.5 15.5t-16.5 43.5q0 31 20 51t53 20q29 0 45.5 -16t16.5 -44zM324 70 q54 0 85.5 38t31.5 100v320l-9 122l130 10v-448q0 -102 -69.5 -162t-175.5 -60t-169 60t-63 162v316l-9 122l130 10v-453q0 -62 31.5 -99.5t86.5 -37.5z" />
<glyph unicode="&#x1d6;" horiz-adv-x="557" d="M161 847v73h245v-73h-245zM239 664q0 -31 -19.5 -48.5t-50.5 -17.5q-28 0 -44 14.5t-16 40.5q0 30 19.5 49t51.5 19q27 0 43 -15t16 -42zM457 664q0 -31 -19.5 -48.5t-50.5 -17.5q-60 0 -60 55q0 30 19 49t51 19q27 0 43.5 -15t16.5 -42zM71 142v358l120 10v-351 q0 -49 19.5 -74.5t53.5 -25.5q47 0 92 42v399l120 10v-381q0 -77 22 -129l-114 -10q-22 39 -27 86q-28 -39 -69.5 -62.5t-88.5 -23.5q-62 0 -95 42t-33 110z" />
<glyph unicode="&#x1d7;" horiz-adv-x="647" d="M441 1018q-83 -59 -207 -86l-29 34q105 63 170 119zM275 801q0 -32 -20.5 -51t-53.5 -19q-29 0 -45.5 15.5t-16.5 42.5q0 31 20.5 51.5t53.5 20.5q29 0 45.5 -16t16.5 -44zM508 801q0 -32 -20.5 -51t-52.5 -19q-29 0 -45.5 15.5t-16.5 43.5q0 31 20 51t53 20 q29 0 45.5 -16t16.5 -44zM324 70q54 0 85.5 38t31.5 100v320l-9 122l130 10v-448q0 -102 -69.5 -162t-175.5 -60t-169 60t-63 162v316l-9 122l130 10v-453q0 -62 31.5 -99.5t86.5 -37.5z" />
<glyph unicode="&#x1d8;" horiz-adv-x="557" d="M374 948q-55 -93 -142 -162l-37 21q52 85 85 176zM239 664q0 -31 -19.5 -48.5t-50.5 -17.5q-28 0 -44 14.5t-16 40.5q0 30 19.5 49t51.5 19q27 0 43 -15t16 -42zM457 664q0 -31 -19.5 -48.5t-50.5 -17.5q-60 0 -60 55q0 30 19 49t51 19q27 0 43.5 -15t16.5 -42zM71 142 v358l120 10v-351q0 -49 19.5 -74.5t53.5 -25.5q47 0 92 42v399l120 10v-381q0 -77 22 -129l-114 -10q-22 39 -27 86q-28 -39 -69.5 -62.5t-88.5 -23.5q-62 0 -95 42t-33 110z" />
<glyph unicode="&#x1d9;" horiz-adv-x="647" d="M442 1087l32 -27q-57 -56 -101 -123l-97 -8q-44 73 -103 131l32 27q69 -39 119 -85q56 50 118 85zM275 801q0 -32 -20.5 -51t-53.5 -19q-29 0 -45.5 15.5t-16.5 42.5q0 31 20.5 51.5t53.5 20.5q29 0 45.5 -16t16.5 -44zM508 801q0 -32 -20.5 -51t-52.5 -19 q-29 0 -45.5 15.5t-16.5 43.5q0 31 20 51t53 20q29 0 45.5 -16t16.5 -44zM324 70q54 0 85.5 38t31.5 100v320l-9 122l130 10v-448q0 -102 -69.5 -162t-175.5 -60t-169 60t-63 162v316l-9 122l130 10v-453q0 -62 31.5 -99.5t86.5 -37.5z" />
<glyph unicode="&#x1da;" horiz-adv-x="557" d="M383 979l38 -22q-52 -76 -89 -157l-95 -8q-38 87 -92 165l37 22q53 -42 102 -111q46 67 99 111zM239 664q0 -31 -19.5 -48.5t-50.5 -17.5q-28 0 -44 14.5t-16 40.5q0 30 19.5 49t51.5 19q27 0 43 -15t16 -42zM457 664q0 -31 -19.5 -48.5t-50.5 -17.5q-60 0 -60 55 q0 30 19 49t51 19q27 0 43.5 -15t16.5 -42zM71 142v358l120 10v-351q0 -49 19.5 -74.5t53.5 -25.5q47 0 92 42v399l120 10v-381q0 -77 22 -129l-114 -10q-22 39 -27 86q-28 -39 -69.5 -62.5t-88.5 -23.5q-62 0 -95 42t-33 110z" />
<glyph unicode="&#x1db;" horiz-adv-x="647" d="M441 965l-28 -34q-122 26 -208 86l66 67q66 -55 170 -119zM275 801q0 -32 -20.5 -51t-53.5 -19q-29 0 -45.5 15.5t-16.5 42.5q0 31 20.5 51.5t53.5 20.5q29 0 45.5 -16t16.5 -44zM508 801q0 -32 -20.5 -51t-52.5 -19q-29 0 -45.5 15.5t-16.5 43.5q0 31 20 51t53 20 q29 0 45.5 -16t16.5 -44zM324 70q54 0 85.5 38t31.5 100v320l-9 122l130 10v-448q0 -102 -69.5 -162t-175.5 -60t-169 60t-63 162v316l-9 122l130 10v-453q0 -62 31.5 -99.5t86.5 -37.5z" />
<glyph unicode="&#x1dc;" horiz-adv-x="557" d="M374 807l-37 -21q-88 69 -142 162l94 35q35 -97 85 -176zM239 664q0 -31 -19.5 -48.5t-50.5 -17.5q-28 0 -44 14.5t-16 40.5q0 30 19.5 49t51.5 19q27 0 43 -15t16 -42zM457 664q0 -31 -19.5 -48.5t-50.5 -17.5q-60 0 -60 55q0 30 19 49t51 19q27 0 43.5 -15t16.5 -42z M71 142v358l120 10v-351q0 -49 19.5 -74.5t53.5 -25.5q47 0 92 42v399l120 10v-381q0 -77 22 -129l-114 -10q-22 39 -27 86q-28 -39 -69.5 -62.5t-88.5 -23.5q-62 0 -95 42t-33 110z" />
<glyph unicode="&#x1e6;" horiz-adv-x="616" d="M458 876l32 -26q-58 -58 -100 -124l-97 -8q-43 71 -103 132l32 26q65 -35 119 -85q53 50 117 85zM544 26q-86 -36 -186 -36q-143 0 -224.5 89.5t-80.5 240.5q1 154 86 247t226 93q96 0 172 -37l-19 -94q-64 42 -144 42q-93 0 -141.5 -66.5t-47.5 -179.5q1 -117 53 -185.5 t151 -68.5q26 0 49 4v89l-9 123l115 10v-271z" />
<glyph unicode="&#x1e7;" horiz-adv-x="507" d="M351 757l38 -23q-53 -78 -89 -156l-95 -8q-39 88 -92 164l38 23q52 -42 101 -111q46 67 99 111zM99 89q0 25 17.5 45.5t49.5 31.5q-57 16 -89 56.5t-32 102.5q0 83 54.5 134t144.5 51q153 0 245 8v-77l-127 7v-1q39 -13 60.5 -48t21.5 -80q0 -75 -57 -118t-147 -44 q-6 0 -17.5 0.5t-17.5 1.5q-12 -11 -12 -26q0 -36 64 -39l69 -3q168 -10 168 -125q0 -74 -69 -116.5t-200 -42.5q-97 0 -152 26.5t-56 77.5q0 44 37 72.5t89 38.5q-43 26 -44 67zM163 327q0 -52 21.5 -85t62.5 -33q78 0 78 118t-78 118q-40 0 -62 -32t-22 -86zM134 -66 q0 -39 29.5 -62t82.5 -23q60 0 98.5 25t38.5 63q0 60 -96 66l-84 3q-4 1 -11 1q-58 -25 -58 -73z" />
<glyph unicode="&#x1ea;" horiz-adv-x="658" d="M462 26q-102 -64 -102 -124q0 -20 11.5 -32t32.5 -12q20 0 49 12l13 -34q-38 -35 -102 -35q-41 0 -65.5 19t-24.5 54q0 63 78 117q-10 -1 -28 -1q-126 0 -199 89.5t-72 240.5q1 154 78 247t205 93q126 0 198.5 -91t70.5 -242q0 -107 -38.5 -184.5t-105.5 -116.5h1z M185 327q1 -114 39.5 -185.5t108.5 -71.5q69 0 105.5 70t35.5 185t-38.5 185.5t-106.5 70.5t-107 -70t-37 -184z" />
<glyph unicode="&#x1eb;" horiz-adv-x="554" d="M412 36q-94 -81 -94 -133q0 -45 45 -45q19 0 48 12l13 -34q-38 -35 -103 -35q-41 0 -65 17.5t-24 50.5q0 65 80 125q-20 -4 -46 -4q-99 0 -160 65t-61 185q0 131 70 200.5t173 69.5q99 0 160 -65.5t61 -185.5q-1 -153 -98 -223h1zM169 244q0 -87 27 -137t78 -50 q50 0 80.5 49t30.5 150q0 187 -103 187q-52 0 -82.5 -49t-30.5 -150z" />
<glyph unicode="&#x1f4;" horiz-adv-x="616" d="M458 808q-89 -62 -208 -86l-28 33q100 61 170 120zM544 26q-86 -36 -186 -36q-143 0 -224.5 89.5t-80.5 240.5q1 154 86 247t226 93q96 0 172 -37l-19 -94q-64 42 -144 42q-93 0 -141.5 -66.5t-47.5 -179.5q1 -117 53 -185.5t151 -68.5q26 0 49 4v89l-9 123l115 10v-271z " />
<glyph unicode="&#x1f5;" horiz-adv-x="507" d="M342 726q-55 -95 -142 -162l-37 20q51 83 85 176zM99 89q0 25 17.5 45.5t49.5 31.5q-57 16 -89 56.5t-32 102.5q0 83 54.5 134t144.5 51q153 0 245 8v-77l-127 7v-1q39 -13 60.5 -48t21.5 -80q0 -75 -57 -118t-147 -44q-6 0 -17.5 0.5t-17.5 1.5q-12 -11 -12 -26 q0 -36 64 -39l69 -3q168 -10 168 -125q0 -74 -69 -116.5t-200 -42.5q-97 0 -152 26.5t-56 77.5q0 44 37 72.5t89 38.5q-43 26 -44 67zM163 327q0 -52 21.5 -85t62.5 -33q78 0 78 118t-78 118q-40 0 -62 -32t-22 -86zM134 -66q0 -39 29.5 -62t82.5 -23q60 0 98.5 25t38.5 63 q0 60 -96 66l-84 3q-4 1 -11 1q-58 -25 -58 -73z" />
<glyph unicode="&#x1fa;" horiz-adv-x="619" d="M427 1042q-83 -59 -207 -86l-29 34q105 63 170 119zM411 804q0 -40 -31 -68t-77 -28q-43 0 -69 23.5t-26 57.5q0 39 32.5 67.5t79.5 28.5q41 0 66 -22.5t25 -58.5zM264 794q0 -18 12 -30.5t31 -12.5t33.5 14.5t14.5 33.5t-11.5 31t-30.5 12q-20 0 -34.5 -14.5 t-14.5 -33.5zM144 0h-114l167 526l36 125l157 9l199 -660h-120l-44 154h-237zM307 566l-100 -347h200l-99 347h-1z" />
<glyph unicode="&#x1fb;" horiz-adv-x="520" d="M343 983q-54 -93 -142 -162l-37 21q50 79 85 176zM352 669q0 -45 -31 -73.5t-75 -28.5q-41 0 -67 24t-26 64q0 45 30.5 75t76.5 30q40 0 66 -25t26 -66zM206 660q0 -22 12 -35t32 -13t34.5 15t14.5 38q0 22 -12 36t-32 14q-21 0 -35 -15.5t-14 -39.5zM346 -10 q-16 32 -24 75q-23 -31 -65.5 -53t-92.5 -22q-58 0 -91 33t-33 84q0 83 80 126t201 42v54q1 45 -23.5 68.5t-73.5 23.5q-71 0 -147 -48l-10 94q90 43 191 43q183 0 183 -171q0 -12 -1.5 -96.5t-1.5 -105.5q0 -79 22 -137zM161 133q0 -35 18.5 -55.5t50.5 -20.5q22 0 47.5 12 t42.5 29v144q-69 -2 -114 -29.5t-45 -79.5z" />
<glyph unicode="&#x1fc;" horiz-adv-x="873" d="M593 808q-89 -62 -208 -86l-28 33q100 61 170 120zM144 0h-114l256 526l45 124h445l-8 -80l-259 6l29 -218l221 4l-8 -76l-204 3l28 -215l253 7l-2 -81h-360l-14 154h-235zM414 566l-166 -347h198l-31 347h-1z" />
<glyph unicode="&#x1fd;" horiz-adv-x="786" d="M484 726q-54 -96 -142 -162l-37 20q48 76 85 176zM717 20q-60 -30 -151 -30q-145 0 -208 101q-28 -41 -79 -71t-111 -30t-94 33t-34 84q0 82 79 124.5t201 43.5l1 54q3 92 -97 92q-71 0 -147 -48l-10 94q90 43 188 43q100 0 141 -59q62 59 152 59q87 0 140 -52t53 -135 q0 -28 -5 -65l-10 -17h-285q12 -164 156 -164q64 0 122 28zM544 445q-46 0 -74 -44.5t-29 -121.5l182 7q2 30 2 43q0 54 -21 85t-60 31zM161 134q0 -35 20 -56t54 -21q29 0 59.5 16t50.5 42q-25 55 -25 125v1v1q-69 -2 -114 -30t-45 -78z" />
<glyph unicode="&#x1fe;" horiz-adv-x="658" d="M447 808q-87 -62 -207 -86l-29 33q101 60 170 120zM606 327q-1 -156 -79 -246.5t-203 -90.5q-111 0 -183 72l-77 -90l-43 38l84 97q-53 87 -52 213q1 154 78 247t205 93q112 0 184 -75l78 89l44 -36l-87 -100q51 -87 51 -211zM185 326q0 -62 12 -113l245 283 q-38 85 -113 85q-69 0 -107 -70t-37 -185zM474 325q-2 64 -11 107l-244 -281q40 -81 114 -81q69 0 105.5 70t35.5 185z" />
<glyph unicode="&#x1ff;" horiz-adv-x="554" d="M368 726q-55 -95 -142 -162l-37 20q51 83 85 176zM509 259q0 -130 -70 -199.5t-173 -69.5q-89 0 -147 52l-50 -53l-38 36l54 58q-40 62 -40 157q0 131 70 200.5t173 69.5q88 0 146 -52l50 53l40 -35l-55 -59q40 -64 40 -158zM169 244q0 -39 4 -66l192 205q-25 60 -83 60 q-52 0 -82.5 -49t-30.5 -150zM385 256q0 40 -4 67l-191 -205q27 -61 84 -61q50 0 80.5 49t30.5 150z" />
<glyph unicode="&#x218;" horiz-adv-x="507" d="M460 166q0 -80 -60.5 -128t-160.5 -48q-109 0 -191 36l18 106q82 -52 165 -52q48 0 74 22.5t26 56.5q0 32 -28 60t-67.5 51t-79.5 49t-68 67t-28 93q0 82 62.5 131.5t161.5 49.5q97 0 167 -32l-22 -100q-70 43 -140 43q-47 0 -73.5 -23.5t-26.5 -58.5q0 -34 28 -62.5 t67.5 -52t79.5 -50t68 -67t28 -91.5zM327 -141q0 -36 -23 -78t-54 -70l-29 13q26 43 33 84q-47 9 -47 56q0 28 17.5 46t43.5 18q27 0 43 -19t16 -50z" />
<glyph unicode="&#x219;" horiz-adv-x="452" d="M409 132q0 -64 -53 -103t-147 -39q-92 0 -166 31l8 98q72 -45 157 -45q41 0 62 16t21 43q0 11 -5 21.5t-11 17t-20 15t-22.5 13t-29 14t-29.5 13.5q-56 26 -87 57t-31 81q0 65 56 105t146 40q75 0 139 -27l-8 -97q-71 41 -135 41q-36 0 -57.5 -17t-21.5 -44 q0 -20 17 -37.5t32.5 -25.5t49.5 -24q30 -14 49.5 -25t41.5 -29t33 -41t11 -52zM289 -141q0 -36 -23 -78t-54 -70l-29 13q26 43 33 84q-47 9 -47 56q0 28 17.5 46t43.5 18q27 0 43 -19t16 -50z" />
<glyph unicode="&#x21a;" horiz-adv-x="519" d="M321 0h-121v569l-177 -7l7 88h460l7 -88l-176 7v-569zM319 -141q0 -37 -23 -78.5t-55 -69.5l-28 13q24 40 33 84q-48 9 -48 56q0 28 17.5 46t44.5 18t43 -19t16 -50z" />
<glyph unicode="&#x21b;" horiz-adv-x="396" d="M359 429l-156 4v-254q0 -46 15.5 -73.5t59.5 -27.5q48 0 88 25l2 -83q-51 -30 -130 -30q-155 0 -155 165v280l-55 2v34l65 12l21 137l89 6v-143h161zM274 -141q0 -36 -23 -78t-54 -70l-29 13q26 43 33 84q-47 9 -47 56q0 28 17.5 46t43.5 18q27 0 43 -19t16 -50z" />
<glyph unicode="&#x232;" horiz-adv-x="567" d="M147 760v72h275v-72h-275zM344 0h-121v207l-203 443l118 10l147 -351h2l148 351l112 -10l-203 -443v-207z" />
<glyph unicode="&#x233;" horiz-adv-x="498" d="M130 624v73h245v-73h-245zM59 -195q-54 0 -101 11v92q62 -16 122 -16q62 0 112.5 31.5t68.5 88.5h-102l-133 489l124 9l108 -438h2l101 438l112 -9q-57 -265 -142 -502q-39 -109 -102 -151.5t-170 -42.5z" />
<glyph unicode="&#x237;" horiz-adv-x="265" d="M9 -149q65 72 65 203v323l-9 123l129 10v-438q0 -101 -36 -167t-122 -98z" />
<glyph unicode="&#x259;" horiz-adv-x="514" d="M45 177q0 28 5 66l10 16h284q-12 164 -155 164q-66 0 -122 -27l2 84q60 30 151 30q114 0 181.5 -65.5t67.5 -187.5q0 -123 -65.5 -195t-165.5 -72q-87 0 -140 52t-53 135zM161 172q0 -55 21 -86t60 -31q46 0 74.5 46t28.5 120l-182 -7q-2 -15 -2 -42z" />
<glyph unicode="&#x272;" horiz-adv-x="561" d="M9 -149q65 72 65 203v323l-9 123l129 10v-85q58 85 162 85q64 0 99 -42.5t35 -113.5v-354h-120v325q0 100 -77 100q-53 0 -99 -46v-307q0 -101 -36 -167t-122 -98z" />
<glyph unicode="&#x2c6;" horiz-adv-x="356" d="M78 569l-38 22q52 76 89 157l95 8q38 -87 92 -165l-38 -22q-51 41 -101 110q-50 -71 -99 -110z" />
<glyph unicode="&#x2c7;" horiz-adv-x="356" d="M278 757l38 -23q-53 -78 -89 -156l-95 -8q-39 88 -92 164l38 23q52 -42 101 -111q46 67 99 111z" />
<glyph unicode="&#x2d8;" horiz-adv-x="361" d="M177 571q-53 0 -88 45.5t-38 123.5l44 7q16 -104 86 -104q33 0 55.5 27.5t30.5 77.5l43 6q-4 -82 -40 -132.5t-93 -50.5z" />
<glyph unicode="&#x2d9;" horiz-adv-x="249" d="M196 665q0 -32 -22 -52t-55 -20q-30 0 -48 16.5t-18 43.5q0 31 22 52t56 21q29 0 47 -16t18 -45z" />
<glyph unicode="&#x2da;" horiz-adv-x="299" d="M249 668q0 -45 -31 -73.5t-75 -28.5q-41 0 -67 24t-26 64q0 45 30.5 75t76.5 30q40 0 66 -25t26 -66zM103 659q0 -22 12 -35t32 -13t34.5 15t14.5 38q0 22 -12 36t-32 14q-21 0 -35 -15.5t-14 -39.5z" />
<glyph unicode="&#x2db;" horiz-adv-x="330" d="M279 0q-44 -18 -72 -47t-28 -57q0 -38 44 -38q20 0 49 12l13 -34q-39 -35 -103 -35q-41 0 -65 17.5t-24 50.5q0 46 44 86.5t114 60.5z" />
<glyph unicode="&#x2dc;" horiz-adv-x="404" d="M141 728q30 0 70.5 -25t59.5 -25q31 0 54 52l30 -7q-2 -49 -26 -85.5t-64 -36.5q-28 0 -71 25t-61 25q-32 0 -53 -51l-31 6q3 49 26.5 85.5t65.5 36.5z" />
<glyph unicode="&#x2dd;" horiz-adv-x="600" d="M203 740q-39 -97 -115 -173l-35 12q48 99 70 176zM355 740q-42 -101 -116 -173l-35 12q46 91 70 176z" />
<glyph unicode="&#x1e0c;" horiz-adv-x="648" d="M90 528l-9 122h212q143 0 223 -88t79 -235q-1 -152 -86.5 -239.5t-227.5 -87.5h-191v528zM276 575h-65v-499h69q92 0 138 68t45 181q-1 114 -47.5 182t-139.5 68zM395 -134q0 -32 -22 -51.5t-55 -19.5q-30 0 -48 16t-18 44q0 31 21.5 51.5t55.5 20.5q30 0 48 -16t18 -45z " />
<glyph unicode="&#x1e0d;" horiz-adv-x="561" d="M388 -10q-12 23 -23 66q-52 -66 -141 -66q-81 0 -130 66t-49 180q0 132 64 203t157 71q53 0 94 -23v76l-9 122l129 10v-542q0 -85 23 -153zM169 244q0 -87 28.5 -137t82.5 -50q48 0 80 36v1v330q-32 19 -68 19q-123 0 -123 -199zM348 -134q0 -32 -22 -51.5t-55 -19.5 q-30 0 -48 16t-18 44q0 31 22 51.5t56 20.5q29 0 47 -16t18 -45z" />
<glyph unicode="&#x1e24;" horiz-adv-x="677" d="M211 0h-121v528l-9 122l130 10v-318h255v186l-9 122l130 11v-661h-121v275h-255v-275zM410 -134q0 -32 -22 -51.5t-55 -19.5q-30 0 -48 16t-18 44q0 31 22 51.5t56 20.5q29 0 47 -16t18 -45z" />
<glyph unicode="&#x1e25;" horiz-adv-x="561" d="M194 0h-120v563l-9 122l129 10v-271q58 86 160 86q66 0 101 -42.5t35 -113.5v-354h-120v325q0 100 -77 100q-53 0 -99 -46v-379zM354 -134q0 -32 -22 -51.5t-55 -19.5q-30 0 -48 16t-18 44q0 31 21.5 51.5t55.5 20.5q30 0 48 -16t18 -45z" />
<glyph unicode="&#x1e44;" horiz-adv-x="668" d="M406 802q0 -32 -22 -52t-55 -20q-30 0 -48 16.5t-18 43.5q0 31 21.5 52t55.5 21q30 0 48 -16t18 -45zM90 528l-9 122l105 10l300 -502h2l-10 492l100 10v-660h-110l-287 483h-2l10 -483h-99v528z" />
<glyph unicode="&#x1e45;" horiz-adv-x="561" d="M359 665q0 -32 -22 -52t-55 -20q-30 0 -48 16.5t-18 43.5q0 31 22 52t56 21q29 0 47 -16t18 -45zM194 0h-120v378l-9 122l129 10v-85q58 85 162 85q64 0 99 -42.5t35 -113.5v-354h-120v325q0 100 -77 100q-53 0 -99 -46v-379z" />
<glyph unicode="&#x1e5a;" horiz-adv-x="578" d="M211 0h-121v528l-9 122h196q117 0 182 -55.5t65 -148.5q0 -67 -34 -115t-94 -72l149 -259l-128 -10l-123 247q-9 -1 -27 -1h-56v-236zM263 580h-52v-274h55q67 0 100 37.5t33 101.5q0 63 -33 99t-103 36zM363 -134q0 -32 -22 -51.5t-55 -19.5q-30 0 -48 16t-18 44 q0 31 22 51.5t56 20.5q29 0 47 -16t18 -45z" />
<glyph unicode="&#x1e5b;" horiz-adv-x="379" d="M194 0h-120v378l-9 122l129 10v-135q17 59 52.5 97t80.5 38q24 0 40 -7l-10 -119q-22 6 -55 9q-69 2 -108 -59v-334zM211 -134q0 -32 -22 -51.5t-55 -19.5q-30 0 -48 16t-18 44q0 31 22 51.5t56 20.5q29 0 47 -16t18 -45z" />
<glyph unicode="&#x1e62;" horiz-adv-x="507" d="M460 166q0 -80 -60.5 -128t-160.5 -48q-109 0 -191 36l18 106q82 -52 165 -52q48 0 74 22.5t26 56.5q0 32 -28 60t-67.5 51t-79.5 49t-68 67t-28 93q0 82 62.5 131.5t161.5 49.5q97 0 167 -32l-22 -100q-70 43 -140 43q-47 0 -73.5 -23.5t-26.5 -58.5q0 -34 28 -62.5 t67.5 -52t79.5 -50t68 -67t28 -91.5zM339 -134q0 -32 -22 -51.5t-55 -19.5q-30 0 -48 16t-18 44q0 31 21.5 51.5t55.5 20.5q30 0 48 -16t18 -45z" />
<glyph unicode="&#x1e63;" horiz-adv-x="452" d="M409 132q0 -64 -53 -103t-147 -39q-92 0 -166 31l8 98q72 -45 157 -45q41 0 62 16t21 43q0 11 -5 21.5t-11 17t-20 15t-22.5 13t-29 14t-29.5 13.5q-56 26 -87 57t-31 81q0 65 56 105t146 40q75 0 139 -27l-8 -97q-71 41 -135 41q-36 0 -57.5 -17t-21.5 -44 q0 -20 17 -37.5t32.5 -25.5t49.5 -24q30 -14 49.5 -25t41.5 -29t33 -41t11 -52zM301 -134q0 -32 -22 -51.5t-55 -19.5q-30 0 -48 16t-18 44q0 31 21.5 51.5t55.5 20.5q30 0 48 -16t18 -45z" />
<glyph unicode="&#x1e6c;" horiz-adv-x="519" d="M321 0h-121v569l-177 -7l7 88h460l7 -88l-176 7v-569zM330 -134q0 -32 -22 -51.5t-55 -19.5q-30 0 -48 16t-18 44q0 31 22 51.5t56 20.5q29 0 47 -16t18 -45z" />
<glyph unicode="&#x1e6d;" horiz-adv-x="396" d="M359 429l-156 4v-254q0 -46 15.5 -73.5t59.5 -27.5q48 0 88 25l2 -83q-51 -30 -130 -30q-155 0 -155 165v280l-55 2v34l65 12l21 137l89 6v-143h161zM286 -134q0 -32 -22 -51.5t-55 -19.5q-30 0 -48 16t-18 44q0 31 21.5 51.5t55.5 20.5q30 0 48 -16t18 -45z" />
<glyph unicode="&#x1e80;" horiz-adv-x="942" d="M589 754l-29 -33q-120 24 -207 86l66 67q69 -60 170 -120zM183 0l-148 650l118 10l124 -571h1l126 561h148l122 -561h2l125 571l106 -10l-162 -650h-167l-109 534h-2l-117 -534h-167z" />
<glyph unicode="&#x1e81;" horiz-adv-x="775" d="M476 584l-37 -20q-87 67 -142 162l94 34q34 -93 85 -176zM144 0l-123 501l120 9l89 -438h2l91 433h130l94 -433h2l87 438l114 -9q-54 -259 -131 -501h-148l-86 383h-2q-35 -177 -100 -383h-139z" />
<glyph unicode="&#x1e82;" horiz-adv-x="942" d="M589 808q-89 -62 -208 -86l-28 33q100 61 170 120zM183 0l-148 650l118 10l124 -571h1l126 561h148l122 -561h2l125 571l106 -10l-162 -650h-167l-109 534h-2l-117 -534h-167z" />
<glyph unicode="&#x1e83;" horiz-adv-x="775" d="M476 726q-54 -96 -142 -162l-37 20q48 76 85 176zM144 0l-123 501l120 9l89 -438h2l91 433h130l94 -433h2l87 438l114 -9q-54 -259 -131 -501h-148l-86 383h-2q-35 -177 -100 -383h-139z" />
<glyph unicode="&#x1e84;" horiz-adv-x="942" d="M422 801q0 -33 -20 -51.5t-53 -18.5q-29 0 -46 15t-17 43q0 31 20.5 51.5t53.5 20.5q29 0 45.5 -16t16.5 -44zM656 801q0 -32 -20.5 -51t-53.5 -19q-29 0 -45.5 15.5t-16.5 43.5q0 31 20.5 51t53.5 20q28 0 45 -16t17 -44zM183 0l-148 650l118 10l124 -571h1l126 561h148 l122 -561h2l125 571l106 -10l-162 -650h-167l-109 534h-2l-117 -534h-167z" />
<glyph unicode="&#x1e85;" horiz-adv-x="775" d="M342 664q0 -31 -19.5 -48.5t-50.5 -17.5q-60 0 -60 55q0 30 19.5 49t50.5 19q27 0 43.5 -15t16.5 -42zM560 664q0 -31 -19.5 -48.5t-51.5 -17.5q-27 0 -43 14t-16 41q0 30 19 49t51 19q27 0 43.5 -15t16.5 -42zM144 0l-123 501l120 9l89 -438h2l91 433h130l94 -433h2 l87 438l114 -9q-54 -259 -131 -501h-148l-86 383h-2q-35 -177 -100 -383h-139z" />
<glyph unicode="&#x1e92;" horiz-adv-x="516" d="M473 0h-422l-16 63l300 502q-209 -3 -291 -8l8 93h405l16 -62l-302 -503q198 4 310 18zM330 -134q0 -32 -22 -51.5t-55 -19.5q-30 0 -48 16t-18 44q0 31 21.5 51.5t55.5 20.5q30 0 48 -16t18 -45z" />
<glyph unicode="&#x1e93;" horiz-adv-x="454" d="M411 0h-364l-13 68l253 346h-44q-112 0 -206 -10l12 96h351l7 -68l-252 -345h53q107 0 213 14zM299 -134q0 -32 -22 -51.5t-55 -19.5q-30 0 -48 16t-18 44q0 31 21.5 51.5t55.5 20.5q30 0 48 -16t18 -45z" />
<glyph unicode="&#x1e9e;" horiz-adv-x="660" d="M563 560v-24l-141 -155q190 -90 190 -218q0 -78 -57 -125.5t-147 -47.5q-76 0 -132 25v82q49 -27 101 -27q46 0 74.5 29.5t28.5 73.5q0 96 -165 161v33l144 160q-45 54 -111 54q-59 0 -96.5 -44t-37.5 -116v-323q0 -76 -26 -108l-112 10q17 50 17 132v290 q0 111 70.5 174.5t179.5 63.5q141 0 220 -100z" />
<glyph unicode="&#x1ea0;" horiz-adv-x="619" d="M144 0h-114l167 526l36 125l157 9l199 -660h-120l-44 154h-237zM307 566l-100 -347h200l-99 347h-1zM381 -134q0 -32 -22 -51.5t-55 -19.5q-30 0 -48 16t-18 44q0 31 22 51.5t56 20.5q29 0 47 -16t18 -45z" />
<glyph unicode="&#x1ea1;" horiz-adv-x="520" d="M346 -10q-16 32 -24 75q-23 -31 -65.5 -53t-92.5 -22q-58 0 -91 33t-33 84q0 83 80 126t201 42v54q1 45 -23.5 68.5t-73.5 23.5q-71 0 -147 -48l-10 94q90 43 191 43q183 0 183 -171q0 -12 -1.5 -96.5t-1.5 -105.5q0 -79 22 -137zM161 133q0 -35 18.5 -55.5t50.5 -20.5 q22 0 47.5 12t42.5 29v144q-69 -2 -114 -29.5t-45 -79.5zM324 -134q0 -32 -22 -51.5t-55 -19.5q-30 0 -48 16t-18 44q0 31 22 51.5t56 20.5q29 0 47 -16t18 -45z" />
<glyph unicode="&#x1eb8;" horiz-adv-x="508" d="M461 0h-371v523l-9 127h375l-8 -80l-237 7v-219l185 4l-8 -76l-177 4v-217l252 8zM325 -134q0 -32 -22 -51.5t-55 -19.5q-30 0 -48 16t-18 44q0 31 21.5 51.5t55.5 20.5q30 0 48 -16t18 -45z" />
<glyph unicode="&#x1eb9;" horiz-adv-x="514" d="M445 20q-60 -30 -151 -30q-114 0 -181.5 66t-67.5 188q0 123 65.5 194.5t165.5 71.5q87 0 140 -52t53 -135q0 -28 -5 -65l-10 -17h-284q10 -164 155 -164q64 0 122 28zM272 445q-47 0 -75 -45.5t-28 -120.5l182 7q2 30 2 43q0 54 -21 85t-60 31zM342 -134 q0 -32 -22 -51.5t-55 -19.5q-30 0 -48 16t-18 44q0 31 22 51.5t56 20.5q29 0 47 -16t18 -45z" />
<glyph unicode="&#x1ebc;" horiz-adv-x="508" d="M211 857q27 0 65 -21t57 -21q31 0 58 47l30 -7q-5 -48 -29 -83t-65 -35q-26 0 -66 21.5t-57 21.5q-33 0 -58 -47l-30 7q5 48 28.5 82.5t66.5 34.5zM461 0h-371v523l-9 127h375l-8 -80l-237 7v-219l185 4l-8 -76l-177 4v-217l252 8z" />
<glyph unicode="&#x1ebd;" horiz-adv-x="514" d="M205 728q30 0 70.5 -25t60.5 -25q30 0 53 52l31 -7q-3 -49 -27 -85.5t-64 -36.5q-27 0 -70 25t-61 25q-32 0 -54 -51l-30 6q3 49 26.5 85.5t64.5 36.5zM445 20q-60 -30 -151 -30q-114 0 -181.5 66t-67.5 188q0 123 65.5 194.5t165.5 71.5q87 0 140 -52t53 -135 q0 -28 -5 -65l-10 -17h-284q10 -164 155 -164q64 0 122 28zM272 445q-47 0 -75 -45.5t-28 -120.5l182 7q2 30 2 43q0 54 -21 85t-60 31z" />
<glyph unicode="&#x1eca;" horiz-adv-x="301" d="M211 0h-121v528l-9 122l130 10v-660zM222 -134q0 -32 -22 -51.5t-55 -19.5q-30 0 -48 16t-18 44q0 31 22 51.5t56 20.5q29 0 47 -16t18 -45z" />
<glyph unicode="&#x1ecb;" horiz-adv-x="265" d="M207 665q0 -32 -22 -52t-55 -20q-30 0 -48 16.5t-18 43.5q0 31 22 52t56 21q29 0 47 -16t18 -45zM194 0h-120v377l-9 123l129 10v-510zM207 -134q0 -32 -22 -51.5t-55 -19.5q-30 0 -48 16t-18 44q0 31 22 51.5t56 20.5q29 0 47 -16t18 -45z" />
<glyph unicode="&#x1ecc;" horiz-adv-x="658" d="M606 327q-1 -156 -79 -246.5t-203 -90.5q-126 0 -199 89.5t-72 240.5q1 154 78 247t205 93q126 0 198.5 -91t71.5 -242zM185 327q1 -114 39.5 -185.5t108.5 -71.5q69 0 105.5 70t35.5 185t-38.5 185.5t-106.5 70.5t-107 -70t-37 -184zM401 -134q0 -32 -22 -51.5 t-55 -19.5q-30 0 -48 16t-18 44q0 31 22 51.5t56 20.5q29 0 47 -16t18 -45z" />
<glyph unicode="&#x1ecd;" horiz-adv-x="554" d="M509 259q0 -130 -70 -199.5t-173 -69.5q-99 0 -160 65t-61 185q0 131 70 200.5t173 69.5q99 0 160 -65.5t61 -185.5zM169 244q0 -87 27 -137t78 -50q50 0 80.5 49t30.5 150q0 187 -103 187q-52 0 -82.5 -49t-30.5 -150zM349 -134q0 -32 -22 -51.5t-55 -19.5q-30 0 -48 16 t-18 44q0 31 21.5 51.5t55.5 20.5q30 0 48 -16t18 -45z" />
<glyph unicode="&#x1ee4;" horiz-adv-x="647" d="M324 70q54 0 85.5 38t31.5 100v320l-9 122l130 10v-448q0 -102 -69.5 -162t-175.5 -60t-169 60t-63 162v316l-9 122l130 10v-453q0 -62 31.5 -99.5t86.5 -37.5zM395 -134q0 -32 -22 -51.5t-55 -19.5q-30 0 -48 16t-18 44q0 31 22 51.5t56 20.5q29 0 47 -16t18 -45z" />
<glyph unicode="&#x1ee5;" horiz-adv-x="557" d="M71 142v358l120 10v-351q0 -49 19.5 -74.5t53.5 -25.5q47 0 92 42v399l120 10v-381q0 -77 22 -129l-114 -10q-22 39 -27 86q-28 -39 -69.5 -62.5t-88.5 -23.5q-62 0 -95 42t-33 110zM355 -134q0 -32 -22 -51.5t-55 -19.5q-30 0 -48 16t-18 44q0 31 21.5 51.5t55.5 20.5 q30 0 48 -16t18 -45z" />
<glyph unicode="&#x1ef2;" horiz-adv-x="567" d="M402 754l-29 -33q-120 24 -207 86l66 67q69 -60 170 -120zM344 0h-121v207l-203 443l118 10l147 -351h2l148 351l112 -10l-203 -443v-207z" />
<glyph unicode="&#x1ef3;" horiz-adv-x="498" d="M343 584l-37 -20q-87 67 -142 162l94 34q34 -93 85 -176zM59 -195q-54 0 -101 11v92q62 -16 122 -16q62 0 112.5 31.5t68.5 88.5h-102l-133 489l124 9l108 -438h2l101 438l112 -9q-57 -265 -142 -502q-39 -109 -102 -151.5t-170 -42.5z" />
<glyph unicode="&#x1ef8;" horiz-adv-x="567" d="M226 857q28 0 66 -21t56 -21q33 0 58 47l30 -7q-4 -48 -28.5 -83t-65.5 -35q-26 0 -65.5 21.5t-57.5 21.5q-33 0 -58 -47l-30 7q5 48 29 82.5t66 34.5zM344 0h-121v207l-203 443l118 10l147 -351h2l148 351l112 -10l-203 -443v-207z" />
<glyph unicode="&#x1ef9;" horiz-adv-x="498" d="M188 728q30 0 70.5 -25t59.5 -25q31 0 54 52l30 -7q-2 -49 -26 -85.5t-64 -36.5q-28 0 -71 25t-61 25q-32 0 -53 -51l-31 6q3 49 26.5 85.5t65.5 36.5zM59 -195q-54 0 -101 11v92q62 -16 122 -16q62 0 112.5 31.5t68.5 88.5h-102l-133 489l124 9l108 -438h2l101 438 l112 -9q-57 -265 -142 -502q-39 -109 -102 -151.5t-170 -42.5z" />
<glyph unicode="&#x2013;" horiz-adv-x="505" d="M30 259v43h445v-43h-445z" />
<glyph unicode="&#x2014;" horiz-adv-x="778" d="M30 259v43h718v-43h-718z" />
<glyph unicode="&#x2018;" horiz-adv-x="240" d="M70 492q0 52 36 110.5t86 92.5l17 -20q-55 -68 -66 -130q48 -10 48 -55q0 -29 -17.5 -47t-43.5 -18q-27 0 -43.5 18.5t-16.5 48.5z" />
<glyph unicode="&#x2019;" horiz-adv-x="240" d="M170 628q0 -52 -36 -110.5t-86 -92.5l-18 20q54 62 67 130q-48 8 -48 55q0 29 17.5 47t43.5 18q27 0 43.5 -18.5t16.5 -48.5z" />
<glyph unicode="&#x201a;" horiz-adv-x="215" d="M145 44q0 -52 -36 -110.5t-86 -92.5l-18 20q54 64 67 130q-48 10 -48 55q0 29 17.5 47t43.5 18q27 0 43.5 -18.5t16.5 -48.5z" />
<glyph unicode="&#x201c;" horiz-adv-x="403" d="M70 492q0 52 36 110.5t86 92.5l17 -20q-55 -68 -66 -130q48 -10 48 -55q0 -29 -17.5 -47t-43.5 -18q-27 0 -43.5 18.5t-16.5 48.5zM234 492q0 52 36 110.5t85 92.5l18 -20q-54 -64 -67 -130q48 -10 48 -55q0 -30 -17 -47.5t-44 -17.5t-43 18.5t-16 48.5z" />
<glyph unicode="&#x201d;" horiz-adv-x="403" d="M333 628q0 -52 -36 -110.5t-85 -92.5l-18 20q55 68 66 130q-47 10 -47 55q0 30 17 47.5t44 17.5t43 -18.5t16 -48.5zM170 628q0 -52 -36 -110.5t-86 -92.5l-18 20q54 64 67 130q-48 10 -48 55q0 29 17.5 47t43.5 18q27 0 43.5 -18.5t16.5 -48.5z" />
<glyph unicode="&#x201e;" horiz-adv-x="372" d="M145 44q0 -52 -36 -110.5t-86 -92.5l-18 20q54 64 67 130q-48 10 -48 55q0 29 17.5 47t43.5 18q27 0 43.5 -18.5t16.5 -48.5zM302 44q0 -52 -36 -110.5t-86 -92.5l-18 20q54 64 67 130q-48 10 -48 55q0 29 17.5 47t43.5 18q27 0 43.5 -18.5t16.5 -48.5z" />
<glyph unicode="&#x2020;" horiz-adv-x="484" d="M300 -5l-115 -5l11 408l-152 -7l2 91l149 -6l-10 179l115 5l-11 -184l152 6l-2 -91l-151 7z" />
<glyph unicode="&#x2021;" horiz-adv-x="484" d="M300 -5l-115 -5l14 171l-155 -9l2 91l153 -9l-7 94l7 83l-155 -8l2 91l153 -9l-14 170l115 5l-15 -175l156 9l-2 -91l-154 8l7 -82l-7 -95l156 9l-2 -91l-154 9z" />
<glyph unicode="&#x2022;" horiz-adv-x="451" d="M353 273q0 -59 -39.5 -97.5t-98.5 -38.5q-52 0 -84.5 30t-32.5 82q0 58 40.5 97t99.5 39q51 0 83 -29.5t32 -82.5z" />
<glyph unicode="&#x2026;" horiz-adv-x="719" d="M588 -10q-26 0 -42.5 16t-16.5 41q0 27 19 45.5t46 18.5q24 0 39.5 -15t15.5 -39q0 -28 -17 -47.5t-44 -19.5zM358 -10q-25 0 -41.5 16t-16.5 41q0 27 18.5 45.5t45.5 18.5q25 0 40.5 -15t15.5 -39q0 -28 -17.5 -47.5t-44.5 -19.5zM129 -10q-26 0 -42.5 16t-16.5 41 q0 27 19 45.5t46 18.5q24 0 39.5 -15t15.5 -39q0 -28 -17 -47.5t-44 -19.5z" />
<glyph unicode="&#x2030;" horiz-adv-x="1340" d="M307 -10h-73l400 670h73zM382 474q0 -92 -48.5 -140t-120.5 -48t-116 46.5t-44 133.5q0 90 48 140t122 50q73 0 116 -48.5t43 -133.5zM140 473q0 -65 19.5 -103t57.5 -38t58 36t20 96q0 146 -77 146q-78 0 -78 -137zM889 182q0 -92 -48.5 -140t-120.5 -48t-116 46.5 t-44 133.5q0 90 48 140t122 50q73 0 116 -48.5t43 -133.5zM1288 182q0 -92 -48.5 -140t-121.5 -48q-72 0 -116 46.5t-44 133.5q0 90 48 140t122 50q73 0 116.5 -48.5t43.5 -133.5zM647 181q0 -65 19.5 -103t57.5 -38t58 36t20 96q0 146 -77 146q-78 0 -78 -137zM1045 181 q0 -141 78 -141q37 0 57 36t20 96q0 146 -77 146q-78 0 -78 -137z" />
<glyph unicode="&#x2039;" horiz-adv-x="317" d="M49 271v31q106 93 195 201l25 -15q-38 -85 -121 -202q83 -117 121 -202l-25 -14q-93 112 -195 201z" />
<glyph unicode="&#x203a;" horiz-adv-x="317" d="M269 271q-100 -87 -196 -201l-24 14q37 84 120 202q-83 118 -120 202l24 15q91 -110 196 -201v-31z" />
<glyph unicode="&#x2044;" horiz-adv-x="593" d="M133 -10h-73l400 670h73z" />
<glyph unicode="&#x2070;" horiz-adv-x="435" d="M382 554q0 -92 -48.5 -140t-120.5 -48t-116 46.5t-44 133.5q0 90 48 140t122 50q73 0 116 -48.5t43 -133.5zM140 553q0 -65 19.5 -103t57.5 -38t58 36t20 96q0 146 -77 146q-78 0 -78 -137z" />
<glyph unicode="&#x2074;" horiz-adv-x="419" d="M294 372h-85v65h-173l-5 35l202 265l61 -5v-226q24 1 58 5l-6 -74h-52v-65zM209 663l-120 -160h117h3v160z" />
<glyph unicode="&#x2075;" horiz-adv-x="393" d="M331 481q0 -54 -47 -85t-125 -31q-57 0 -101 13l7 45q39 -12 84 -12q39 0 63 18t24 50q0 31 -22.5 47t-57.5 16q-30 0 -70 -11l-8 4v195h131q64 0 109 5l-6 -72h-190v-95q38 12 78 12q60 0 95.5 -26.5t35.5 -72.5z" />
<glyph unicode="&#x2076;" horiz-adv-x="398" d="M206 365q-69 0 -111 41.5t-42 120.5q0 95 60.5 152.5t156.5 57.5q36 0 52 -6l-8 -47q-19 7 -46 7q-49 0 -84.5 -35t-42.5 -107q15 18 42.5 29t55.5 11q48 0 81 -28t33 -76q0 -54 -42 -87t-105 -33zM204 411q29 0 47 19.5t18 51.5q0 31 -17 50.5t-47 19.5q-43 0 -65 -33 q2 -108 64 -108z" />
<glyph unicode="&#x2077;" horiz-adv-x="364" d="M180 372h-94q5 78 55.5 159.5t125.5 131.5h-89q-66 0 -132 -7l6 74h264l6 -5l2 -40q-135 -145 -144 -313z" />
<glyph unicode="&#x2078;" horiz-adv-x="413" d="M201 365q-66 0 -107 25.5t-41 63.5q0 30 28 54t74 33q-88 39 -88 99q0 43 40.5 70t102.5 27q59 0 98 -25t39 -64q0 -29 -24 -50.5t-66 -31.5q48 -17 75.5 -43.5t27.5 -57.5q0 -41 -43 -70.5t-116 -29.5zM207 691q-24 0 -41 -12t-17 -31q0 -41 66 -67q49 25 49 62 q0 22 -16 35t-41 13zM204 411q30 0 51.5 14.5t21.5 36.5q0 36 -83 61q-57 -24 -57 -62q0 -21 19 -35.5t48 -14.5z" />
<glyph unicode="&#x2079;" horiz-adv-x="403" d="M50 615q0 56 42 89t105 33q70 0 112 -41.5t42 -119.5q0 -96 -60.5 -153.5t-156.5 -57.5q-35 0 -53 6l8 47q21 -7 47 -7q49 0 85 33t41 98q-14 -18 -41.5 -29t-55.5 -11q-48 0 -81.5 31.5t-33.5 81.5zM134 618q0 -33 17 -56t48 -23q42 0 64 32q0 121 -65 121 q-29 0 -46.5 -20t-17.5 -54z" />
<glyph unicode="&#x207f;" horiz-adv-x="464" d="M169 372h-99v271l-7 89l106 7v-62q43 62 123 62q49 0 75.5 -29.5t26.5 -80.5v-257h-99v233q0 64 -55 64q-41 0 -71 -27v-270z" />
<glyph unicode="&#x2080;" horiz-adv-x="435" d="M382 17q0 -92 -48.5 -140t-120.5 -48t-116 46.5t-44 133.5q0 90 48 140t122 50q73 0 116 -48.5t43 -133.5zM140 16q0 -66 19.5 -104t57.5 -38t58 36t20 97q0 146 -77 146q-78 0 -78 -137z" />
<glyph unicode="&#x2081;" horiz-adv-x="313" d="M198 -168h-85v307l-67 -25l-11 39l157 44l6 -4v-361z" />
<glyph unicode="&#x2082;" horiz-adv-x="392" d="M310 -168h-260l-7 47q179 134 179 207q0 26 -19 41t-50 15q-47 0 -99 -34l-9 59q62 30 133 30q62 0 100.5 -27t38.5 -72q0 -54 -58.5 -105.5t-155.5 -94.5h81q65 0 132 8z" />
<glyph unicode="&#x2083;" horiz-adv-x="361" d="M311 -69q0 -46 -44.5 -74.5t-120.5 -28.5q-59 0 -101 12l8 48q36 -14 76 -14t63.5 17t23.5 45t-25.5 41.5t-64.5 13.5q-15 0 -39 -3v30q54 13 86 35.5t32 46.5q0 20 -18 32.5t-47 12.5q-43 0 -85 -22l-3 51q50 26 120 26q57 0 92 -22.5t35 -58.5q0 -33 -32 -58.5 t-93 -38.5q64 -4 100.5 -27.5t36.5 -63.5z" />
<glyph unicode="&#x2084;" horiz-adv-x="419" d="M294 -168h-85v64h-173l-5 36l202 265l61 -5v-226q24 1 58 5l-6 -75h-52v-64zM209 123l-120 -160h117h3v160z" />
<glyph unicode="&#x2085;" horiz-adv-x="393" d="M331 -57q0 -54 -47 -84.5t-125 -30.5q-61 0 -101 12l7 46q43 -13 84 -13q39 0 63 18.5t24 50.5q0 30 -22.5 46.5t-57.5 16.5q-34 0 -70 -12l-8 5v195h131q64 0 109 5l-6 -72h-190v-95q38 12 78 12q60 0 95.5 -27t35.5 -73z" />
<glyph unicode="&#x2086;" horiz-adv-x="398" d="M206 -172q-69 0 -111 41.5t-42 119.5q0 96 60.5 153.5t156.5 57.5q36 0 52 -6l-8 -47q-19 7 -46 7q-49 0 -84.5 -35t-42.5 -107q15 18 42.5 29t55.5 11q48 0 81 -28t33 -77q0 -54 -42 -86.5t-105 -32.5zM204 -127q29 0 47 19.5t18 51.5q0 31 -17 51t-47 20q-43 0 -65 -33 q2 -109 64 -109z" />
<glyph unicode="&#x2087;" horiz-adv-x="364" d="M180 -168h-94q5 78 55.5 159.5t125.5 131.5h-89q-66 0 -132 -7l6 74h264l6 -5l2 -40q-135 -145 -144 -313z" />
<glyph unicode="&#x2088;" horiz-adv-x="413" d="M201 -172q-66 0 -107 25t-41 63q0 31 28.5 55t73.5 33q-88 38 -88 99q0 43 40.5 70t102.5 27q59 0 98 -25t39 -64q0 -29 -24 -50.5t-66 -31.5q48 -17 75.5 -43.5t27.5 -57.5q0 -41 -43 -70.5t-116 -29.5zM207 154q-24 0 -41 -12t-17 -31q0 -41 66 -67q49 25 49 62 q0 22 -16 35t-41 13zM204 -127q30 0 51.5 15t21.5 37q0 36 -83 61q-57 -26 -57 -63q0 -21 19 -35.5t48 -14.5z" />
<glyph unicode="&#x2089;" horiz-adv-x="403" d="M50 78q0 56 42 89t105 33q70 0 112 -41.5t42 -119.5q0 -96 -60.5 -153.5t-156.5 -57.5q-35 0 -53 6l8 47q21 -7 47 -7q49 0 85 33t41 98q-14 -18 -42 -29.5t-55 -11.5q-48 0 -81.5 32t-33.5 82zM134 81q0 -33 17 -56t48 -23q42 0 64 32q0 121 -65 121q-29 0 -46.5 -20 t-17.5 -54z" />
<glyph unicode="&#x20ac;" horiz-adv-x="564" d="M33 254l4 42h55v24q0 24 1 36h-48l4 42h49q18 120 90.5 191t182.5 71q89 0 157 -35l-18 -94q-56 40 -128 40q-69 0 -109 -46t-51 -127h217l-3 -42h-218v-14q-1 -15 0 -15q0 -21 1 -31h208l-3 -42h-201q28 -170 171 -170q73 0 119 28l14 -86q-72 -36 -158 -36 q-116 0 -187 70.5t-86 193.5h-63z" />
<glyph unicode="&#x2122;" horiz-adv-x="597" d="M304 598h-1l-19 -173h-49l31 225l81 3l38 -183l37 180l82 3l31 -228h-62l-19 174l-42 -174h-68zM152 425h-61v185l-61 -3l3 43h177l3 -43l-61 3v-185z" />
<glyph unicode="&#x2212;" horiz-adv-x="590" d="M497 284h-407v78q124 4 408 4z" />
<glyph unicode="&#x221e;" horiz-adv-x="837" d="M765 297q0 -79 -47.5 -131t-122.5 -52q-57 0 -98.5 30.5t-77.5 82.5q-70 -113 -183 -113q-72 0 -118 51t-46 130t47.5 130.5t123.5 51.5q58 0 99 -31t78 -85q72 116 183 116q74 0 118 -50.5t44 -129.5zM586 405q-69 0 -129 -99q38 -60 68 -89t67 -29q38 0 63 29t25 79 t-26 79.5t-68 29.5zM157 297q0 -50 27 -80t71 -31q68 0 127 97q-37 59 -68 89.5t-68 30.5q-38 0 -63.5 -28.5t-25.5 -77.5z" />
<glyph unicode="&#x2248;" horiz-adv-x="631" d="M193 421q-13 0 -60 -58l-43 21q17 34 29.5 55.5t34.5 43.5t43 22q26 0 124.5 -26t116.5 -26q13 0 61 57l42 -21q-58 -121 -106 -121q-26 0 -126 26.5t-116 26.5zM193 197q-13 0 -60 -58l-43 21q17 34 29.5 55.5t34.5 43.5t43 22q26 0 124.5 -26t116.5 -26q13 0 61 57 l42 -21q-58 -121 -106 -121q-26 0 -126 26.5t-116 26.5z" />
<glyph unicode="&#x2260;" horiz-adv-x="594" d="M194 70l-44 26l46 84h-106v78q72 2 149 2l69 128h-218v78q174 3 262 3l59 110l8 3l44 -26l-47 -86h82l-1 -82h-125l-69 -127q74 1 195 1l-1 -82h-237l-58 -107z" />
<glyph unicode="&#x2264;" horiz-adv-x="600" d="M498 576v-87l-295 -88l294 -86v-90q-226 68 -405 138v75zM499 76h-407v77q153 5 408 5z" />
<glyph unicode="&#x2265;" horiz-adv-x="604" d="M106 225v87l296 87l-295 87v90q216 -64 406 -138v-75zM506 76h-407v77q153 5 408 5z" />
<glyph unicode="&#x25fc;" horiz-adv-x="510" d="M0 510h510v-510h-510v510z" />
<glyph unicode="&#xfb00;" horiz-adv-x="603" d="M202 0h-120v421l-60 2v34l65 12v2q-22 42 -22 84q0 57 48 89.5t130 32.5q75 0 133 -23q44 41 129 41q66 0 106 -19l-14 -84q-42 16 -80 16q-66 0 -66 -73q0 -37 9 -66h139l-5 -54l-120 3v-418h-120v421l-152 3v-424zM178 526q0 -26 9 -57h172v2q-22 46 -22 93q0 13 1 20 q-40 14 -78 14q-82 0 -82 -72z" />
<glyph unicode="&#xfb01;" horiz-adv-x="545" d="M202 0h-120v421l-60 2v34l65 12v2q-22 42 -22 91q0 63 53 98t146 35q97 0 156 -26l-14 -83q-68 22 -132 22q-96 0 -96 -74q0 -31 9 -65h159l107 29l21 -2v-496h-120v377l-3 38l-149 4v-419z" />
<glyph unicode="&#xfb02;" horiz-adv-x="545" d="M202 0h-120v421l-60 2v34l65 12v2q-22 46 -22 89q0 60 49.5 94t134.5 34q50 0 101 -11l124 18v-695h-120v419l-152 3v-422zM178 533q0 -32 9 -64h167v93l-3 31q-48 15 -91 15q-82 0 -82 -75z" />
<glyph unicode="&#xfb03;" horiz-adv-x="805" d="M202 0h-120v421l-60 2v34l65 12v2q-22 42 -22 84q0 57 48.5 89.5t130.5 32.5q75 0 136 -24q54 42 156 42q96 0 157 -26l-14 -83q-68 22 -133 22q-95 0 -95 -74q0 -36 9 -65h159l107 29l21 -2v-496h-120v377l-4 38l-149 4v-419h-120v421l-152 3v-424zM178 526q0 -26 9 -57 h172v2q-22 46 -22 91q0 8 2 22q-40 14 -79 14q-82 0 -82 -72z" />
<glyph unicode="&#xfb04;" horiz-adv-x="818" d="M202 0h-120v421l-60 2v34l65 12v2q-22 42 -22 84q0 57 48 89.5t130 32.5q80 0 141 -26q49 37 138 37q49 0 100 -11l125 18v-695h-120v419l-153 3v-422h-120v421l-152 3v-424zM451 533q0 -37 9 -64h167v93l-3 31q-48 15 -92 15q-81 0 -81 -75zM178 526q0 -26 9 -57h172v2 q-22 46 -22 89q0 9 2 23q-39 15 -79 15q-82 0 -82 -72z" />
<glyph unicode="&#xfb06;" horiz-adv-x="835" d="M409 132q0 -64 -53 -103t-147 -39q-92 0 -166 31l8 98q72 -45 157 -45q41 0 62 16t21 43q0 11 -5 21.5t-11 17t-20 15t-22.5 13t-29 14t-29.5 13.5q-56 26 -87 56.5t-31 80.5q0 66 55.5 106t143.5 40q41 0 80 -11q-19 28 -19 64q0 63 52 103t129 40q72 0 116.5 -36.5 t44.5 -95.5q0 -26 -8 -52.5t-19 -38.5h172l-5 -54l-156 4v-254q0 -46 15.5 -73.5t59.5 -27.5q48 0 88 25l2 -83q-51 -30 -130 -30q-155 0 -155 165v280l-55 2l3 35l62 11q15 24 15 66q0 41 -22.5 64.5t-62.5 23.5t-66 -23.5t-26 -63.5q0 -46 35 -81l-16 -83q-71 41 -135 41 q-36 0 -57.5 -17t-21.5 -44q0 -20 17 -37.5t32.5 -25.5t49.5 -24q30 -14 49.5 -25t41.5 -29t33 -41t11 -52z" />
<glyph horiz-adv-x="300" d="M268 808q-89 -62 -208 -86l-28 33q100 61 170 120zM-6 -140q96 35 96 154v514l-9 122l129 10v-582q0 -123 -43.5 -189t-162.5 -84z" />
<glyph horiz-adv-x="439" d="M287 5q-13 23 -18 55q-17 -23 -49.5 -39t-71.5 -16q-44 0 -69 24t-25 61q0 59 60.5 90t152.5 30l1 34q0 62 -74 62q-53 0 -112 -33l-7 76q69 30 148 30q144 0 144 -127q0 -10 -1.5 -67t-1.5 -72q0 -58 17 -101zM153 112q0 -25 14 -40t37 -15q17 0 35.5 8.5t27.5 18.5v101 q-50 -2 -82 -20t-32 -53z" />
<glyph horiz-adv-x="467" d="M63 505l106 7v-183q39 50 104 50q60 0 97.5 -47t37.5 -131q0 -94 -48.5 -145t-129.5 -51q-36 0 -76 11l-84 -11v411zM227 323q-35 0 -58 -23v-236q22 -5 44 -5q93 0 93 136q0 59 -20 93.5t-59 34.5z" />
<glyph horiz-adv-x="399" d="M349 359l-8 -80q-38 31 -84 31q-42 0 -69 -30t-27 -88q0 -54 26 -84.5t76 -30.5q43 0 84 18l-2 -69q-40 -21 -101 -21q-82 0 -133.5 47.5t-51.5 135.5q0 93 55 142t138 49q53 0 97 -20z" />
<glyph horiz-adv-x="477" d="M320 5q-12 19 -18 48q-38 -48 -107 -48q-61 0 -98.5 48t-37.5 129q0 95 49 146t120 51q40 0 70 -16v53l-7 89l106 7v-388q0 -63 17 -112zM161 188q0 -59 20.5 -94t59.5 -35q34 0 57 22v233q-24 11 -47 11q-90 0 -90 -137z" />
<glyph horiz-adv-x="440" d="M370 26q-48 -21 -117 -21q-89 0 -141.5 47t-52.5 136t51 140t129 51q67 0 108 -37.5t41 -97.5q0 -28 -4 -48l-8 -12h-214q6 -55 34 -81t82 -26q53 0 94 18zM235 327q-34 0 -54 -31.5t-20 -82.5l130 5q2 22 2 31q0 36 -15 57t-43 21z" />
<glyph horiz-adv-x="300" d="M176 12h-99v298l-46 2v27l50 10v2q-17 27 -17 63q0 47 35.5 72.5t95.5 25.5q53 0 84 -14l-11 -68q-31 11 -61 11q-50 0 -50 -49q0 -17 6 -43h107l-4 -43l-90 2v-296z" />
<glyph horiz-adv-x="443" d="M102 73q0 41 55 59q-97 22 -97 114q0 60 42 96.5t112 36.5q120 0 191 6v-61l-96 5v-1q30 -9 46.5 -33.5t16.5 -55.5q0 -53 -45 -83t-115 -30q-17 0 -24 1q-9 -7 -9 -17q0 -26 46 -26l54 -3q130 -7 130 -92q0 -54 -53.5 -84.5t-154.5 -30.5q-161 0 -161 73q0 31 28 50 t68 26q-34 19 -34 50zM157 247q0 -35 15.5 -57.5t44.5 -22.5q57 0 57 79q0 80 -57 80q-28 0 -44 -21.5t-16 -57.5zM136 -34q0 -28 21.5 -44t60.5 -16q43 0 71.5 16.5t28.5 42.5q0 42 -71 45l-64 2h-9q-38 -16 -38 -46z" />
<glyph horiz-adv-x="464" d="M169 12h-99v404l-7 89l106 7v-195q43 62 122 62q49 0 76 -29.5t27 -80.5v-257h-99v233q0 64 -55 64q-41 0 -71 -27v-270z" />
<glyph horiz-adv-x="239" d="M181 481q0 -26 -19 -41.5t-47 -15.5q-24 0 -39.5 13t-15.5 35q0 25 18.5 42t47.5 17q24 0 39.5 -13.5t15.5 -36.5zM170 12h-99v270l-7 90l106 7v-367z" />
<glyph horiz-adv-x="239" d="M179 481q0 -26 -18.5 -41.5t-47.5 -15.5q-24 0 -39.5 13t-15.5 35q0 25 18.5 42t47.5 17q25 0 40 -13.5t15 -36.5zM22 -91q48 52 48 151v222l-7 90l106 7v-302q0 -75 -26.5 -127.5t-98.5 -76.5z" />
<glyph horiz-adv-x="450" d="M169 12h-99v404l-7 89l106 7v-294h37l99 161l99 -7l-114 -164l125 -196l-107 -7l-100 174h-39v-167z" />
<glyph horiz-adv-x="278" d="M189 12h-99v404l-7 89l106 7v-500z" />
<glyph horiz-adv-x="673" d="M169 12h-99v271l-7 89l106 7v-62q41 62 118 62q73 0 94 -69q20 32 53 50.5t70 18.5q47 0 73.5 -30t26.5 -80v-257h-99v233q0 64 -52 64q-34 0 -67 -28v-12v-257h-99v233q0 64 -51 64q-38 0 -67 -27v-270z" />
<glyph horiz-adv-x="464" d="M169 12h-99v271l-7 89l106 7v-62q43 62 123 62q49 0 75.5 -29.5t26.5 -80.5v-257h-99v233q0 64 -55 64q-41 0 -71 -27v-270z" />
<glyph horiz-adv-x="477" d="M418 198q0 -94 -54.5 -143.5t-133.5 -49.5q-76 0 -123.5 47t-47.5 134q0 94 54 143.5t134 49.5q76 0 123.5 -47t47.5 -134zM161 188q0 -60 19.5 -94.5t56.5 -34.5q36 0 57.5 33.5t21.5 103.5q0 129 -74 129q-81 0 -81 -137z" />
<glyph horiz-adv-x="467" d="M70 283l-7 89l106 7v-48q40 48 104 48q60 0 97.5 -47t37.5 -130q0 -95 -49 -146t-120 -51q-40 0 -70 16v-44q0 -50 8 -98l-107 -7v411zM226 325q-34 0 -57 -22v-233q24 -11 48 -11q89 0 89 138q0 59 -20 93.5t-60 34.5z" />
<glyph horiz-adv-x="473" d="M405 -119l-107 -7v182q-39 -51 -105 -51q-60 0 -97 46.5t-37 126.5q0 96 53.5 148.5t141.5 52.5q20 0 58 -6l85 6v-400q0 -42 8 -98zM161 179q0 -53 20 -85.5t60 -32.5q34 0 57 23v236q-17 5 -36 5q-101 0 -101 -146z" />
<glyph horiz-adv-x="326" d="M169 12h-99v271l-7 89l106 7v-99q14 43 40.5 71t60.5 28q18 0 30 -5l-8 -98q-24 5 -44 6q-51 2 -79 -33v-237z" />
<glyph horiz-adv-x="386" d="M336 109q0 -47 -41.5 -75.5t-114.5 -28.5q-75 0 -129 22l6 78q57 -31 122 -31q59 0 59 36q0 9 -4 17t-15 14.5t-18 10t-25.5 11t-25.5 10.5q-42 19 -65.5 41.5t-23.5 58.5q0 48 43.5 77t113.5 29q59 0 108 -19l-6 -78q-58 29 -104 29q-26 0 -42 -10.5t-16 -27.5 q0 -27 66 -54q2 -2 4 -2.5t4 -1.5q49 -20 76.5 -43.5t27.5 -62.5z" />
<glyph horiz-adv-x="352" d="M309 318l-115 3v-173q0 -71 56 -71q36 0 66 17l2 -68q-40 -21 -103 -21q-122 0 -122 124v194l-42 1v27l51 10l23 96l69 5v-101h119z" />
<glyph horiz-adv-x="465" d="M70 112v260l99 7v-254q0 -63 52 -65q34 2 65 26v286l99 7v-270q0 -55 17 -97l-94 -7q-16 26 -21 62q-47 -62 -120 -62q-47 0 -72 29.5t-25 77.5z" />
<glyph horiz-adv-x="418" d="M383 373q-48 -202 -106 -361h-140l-101 361l102 6l79 -310h1l72 310z" />
<glyph horiz-adv-x="635" d="M127 12l-91 361l98 6l65 -310h1l66 306h107l68 -306h2l63 310l94 -6q-43 -200 -98 -361h-123l-62 263h-1q-23 -111 -73 -263h-116z" />
<glyph horiz-adv-x="423" d="M275 12l-76 139l-67 -139h-89q40 78 107 184l-103 176l97 7l80 -151l68 151l87 -6q-43 -84 -106 -186l103 -175h-101z" />
<glyph horiz-adv-x="422" d="M70 -128q-48 0 -81 8v75q50 -12 97 -12q48 0 86 21t52 59h-86l-98 350l103 6l77 -310h2l72 310l93 -6q-17 -80 -48 -186.5t-57 -174.5q-31 -79 -79.5 -109.5t-132.5 -30.5z" />
<glyph horiz-adv-x="395" d="M341 12h-282l-11 56l189 233h-29q-90 0 -157 -7l9 78h272l5 -56l-188 -233h37q83 0 162 11z" />
<glyph horiz-adv-x="439" d="M287 365q-13 23 -18 55q-17 -23 -49.5 -39t-71.5 -16q-44 0 -69 24t-25 61q0 59 60.5 90t152.5 30l1 34q0 62 -74 62q-53 0 -112 -33l-7 76q69 30 148 30q144 0 144 -127q0 -10 -1.5 -67t-1.5 -72q0 -58 17 -101zM153 472q0 -25 14 -40t37 -15q17 0 35.5 8.5t27.5 18.5 v101q-50 -2 -82 -20t-32 -53z" />
<glyph horiz-adv-x="467" d="M63 865l106 7v-183q39 50 104 50q60 0 97.5 -47t37.5 -131q0 -94 -48.5 -145t-129.5 -51q-36 0 -76 11l-84 -11v411zM227 683q-35 0 -58 -23v-236q22 -5 44 -5q93 0 93 136q0 59 -20 93.5t-59 34.5z" />
<glyph horiz-adv-x="399" d="M349 719l-8 -80q-38 31 -84 31q-42 0 -69 -30t-27 -88q0 -54 26 -84.5t76 -30.5q43 0 84 18l-2 -69q-40 -21 -101 -21q-82 0 -133.5 47.5t-51.5 135.5q0 93 55 142t138 49q53 0 97 -20z" />
<glyph horiz-adv-x="477" d="M320 365q-12 19 -18 48q-38 -48 -107 -48q-61 0 -98.5 48t-37.5 129q0 95 49 146t120 51q40 0 70 -16v53l-7 89l106 7v-388q0 -63 17 -112zM161 548q0 -59 20.5 -94t59.5 -35q34 0 57 22v233q-24 11 -47 11q-90 0 -90 -137z" />
<glyph horiz-adv-x="440" d="M370 386q-48 -21 -117 -21q-89 0 -141.5 47t-52.5 136t51 140t129 51q67 0 108 -37.5t41 -97.5q0 -28 -4 -48l-8 -12h-214q6 -55 34 -81t82 -26q53 0 94 18zM235 687q-34 0 -54 -31.5t-20 -82.5l130 5q2 22 2 31q0 36 -15 57t-43 21z" />
<glyph horiz-adv-x="300" d="M176 372h-99v298l-46 2v27l50 10v2q-17 27 -17 63q0 47 35.5 72.5t95.5 25.5q53 0 84 -14l-11 -68q-31 11 -61 11q-50 0 -50 -49q0 -17 6 -43h107l-4 -43l-90 2v-296z" />
<glyph horiz-adv-x="443" d="M102 433q0 41 55 59q-97 22 -97 114q0 60 42 96.5t112 36.5q120 0 191 6v-61l-96 5v-1q30 -9 46.5 -33.5t16.5 -55.5q0 -53 -45 -83t-115 -30q-17 0 -24 1q-9 -7 -9 -17q0 -26 46 -26l54 -3q130 -7 130 -91q0 -55 -53.5 -85.5t-154.5 -30.5q-161 0 -161 74q0 30 28 49 t68 26q-34 19 -34 50zM157 607q0 -35 15.5 -57.5t44.5 -22.5q57 0 57 79q0 80 -57 80q-28 0 -44 -21.5t-16 -57.5zM136 326q0 -27 21.5 -43t60.5 -16q44 0 72 16.5t28 42.5q0 41 -71 44l-64 2h-9q-38 -16 -38 -46z" />
<glyph horiz-adv-x="464" d="M169 372h-99v404l-7 89l106 7v-195q43 62 122 62q49 0 76 -29.5t27 -80.5v-257h-99v233q0 64 -55 64q-41 0 -71 -27v-270z" />
<glyph horiz-adv-x="239" d="M181 841q0 -26 -19 -41.5t-47 -15.5q-24 0 -39.5 13t-15.5 35q0 25 18.5 42t47.5 17q24 0 39.5 -13.5t15.5 -36.5zM170 372h-99v270l-7 90l106 7v-367z" />
<glyph horiz-adv-x="239" d="M179 841q0 -26 -18.5 -41.5t-47.5 -15.5q-24 0 -39.5 13t-15.5 35q0 25 18.5 42t47.5 17q25 0 40 -13.5t15 -36.5zM22 269q48 52 48 151v222l-7 90l106 7v-302q0 -74 -26.5 -126.5t-98.5 -76.5z" />
<glyph horiz-adv-x="450" d="M169 372h-99v404l-7 89l106 7v-294h37l99 161l99 -7l-114 -164l125 -196l-107 -7l-100 174h-39v-167z" />
<glyph horiz-adv-x="278" d="M189 372h-99v404l-7 89l106 7v-500z" />
<glyph horiz-adv-x="673" d="M169 372h-99v271l-7 89l106 7v-62q41 62 118 62q73 0 94 -69q20 32 53 50.5t70 18.5q47 0 73.5 -30t26.5 -80v-257h-99v233q0 64 -52 64q-34 0 -67 -28v-12v-257h-99v233q0 64 -51 64q-38 0 -67 -27v-270z" />
<glyph horiz-adv-x="477" d="M418 558q0 -94 -54.5 -143.5t-133.5 -49.5q-76 0 -123.5 47t-47.5 134q0 94 54 143.5t134 49.5q76 0 123.5 -47t47.5 -134zM161 548q0 -60 19.5 -94.5t56.5 -34.5q36 0 57.5 33.5t21.5 103.5q0 129 -74 129q-81 0 -81 -137z" />
<glyph horiz-adv-x="467" d="M70 643l-7 89l106 7v-48q40 48 104 48q60 0 97.5 -47t37.5 -130q0 -95 -49 -146t-120 -51q-40 0 -70 16v-44q0 -50 8 -98l-107 -7v411zM226 685q-34 0 -57 -22v-233q24 -11 48 -11q89 0 89 138q0 59 -20 93.5t-60 34.5z" />
<glyph horiz-adv-x="473" d="M405 241l-107 -7v182q-39 -51 -105 -51q-60 0 -97 46.5t-37 126.5q0 96 53.5 148.5t141.5 52.5q20 0 58 -6l85 6v-400q0 -40 8 -98zM161 539q0 -53 20 -85.5t60 -32.5q34 0 57 23v236q-17 5 -36 5q-101 0 -101 -146z" />
<glyph horiz-adv-x="326" d="M169 372h-99v271l-7 89l106 7v-99q14 43 40.5 71t60.5 28q18 0 30 -5l-8 -98q-24 5 -44 6q-51 2 -79 -33v-237z" />
<glyph horiz-adv-x="386" d="M336 469q0 -47 -41.5 -75.5t-114.5 -28.5q-75 0 -129 22l6 78q57 -31 122 -31q59 0 59 36q0 9 -4 17t-15 14.5t-18 10t-25.5 11t-25.5 10.5q-42 19 -65.5 41.5t-23.5 58.5q0 48 43.5 77t113.5 29q59 0 108 -19l-6 -78q-58 29 -104 29q-26 0 -42 -10.5t-16 -27.5 q0 -27 66 -54q5 -3 8 -4q49 -20 76.5 -43.5t27.5 -62.5z" />
<glyph horiz-adv-x="352" d="M309 678l-115 3v-173q0 -71 56 -71q36 0 66 17l2 -68q-40 -21 -103 -21q-122 0 -122 124v194l-42 1v27l51 10l23 96l69 5v-101h119z" />
<glyph horiz-adv-x="465" d="M70 472v260l99 7v-254q0 -64 52 -64q33 0 65 25v286l99 7v-270q0 -55 17 -97l-94 -7q-16 26 -21 62q-47 -62 -120 -62q-47 0 -72 29.5t-25 77.5z" />
<glyph horiz-adv-x="418" d="M383 733q-48 -202 -106 -361h-140l-101 361l102 6l79 -310h1l72 310z" />
<glyph horiz-adv-x="635" d="M127 372l-91 361l98 6l65 -310h1l66 306h107l68 -306h2l63 310l94 -6q-43 -200 -98 -361h-123l-62 263h-1q-23 -111 -73 -263h-116z" />
<glyph horiz-adv-x="423" d="M275 372l-76 139l-67 -139h-89q40 78 107 184l-103 176l97 7l80 -151l68 151l87 -5q-42 -83 -106 -187l103 -175h-101z" />
<glyph horiz-adv-x="422" d="M70 232q-41 0 -81 8v75q46 -11 97 -11q48 0 86 20.5t52 58.5h-86l-98 350l103 6l77 -310h2l72 310l93 -6q-17 -80 -48 -186.5t-57 -174.5q-32 -79 -80 -109.5t-132 -30.5z" />
<glyph horiz-adv-x="395" d="M341 372h-282l-11 56l189 233h-29q-90 0 -157 -7l9 78h272l5 -56l-188 -233h37q83 0 162 11z" />
<glyph horiz-adv-x="265" d="M224 726q-55 -95 -142 -162l-37 20q51 83 85 176zM9 -149q65 72 65 203v323l-9 123l129 10v-438q0 -101 -36 -167t-122 -98z" />
<glyph horiz-adv-x="1014" d="M648 0h-120v563l-4 50q-18 3 -37 3q-88 0 -88 -71q0 -43 33 -84l-22 -79q-50 43 -111 43q-56 0 -93 -44.5t-37 -131.5q0 -82 35 -127t102 -45q54 0 112 28l-2 -85q-52 -30 -132 -30q-106 0 -172.5 66.5t-66.5 186.5q0 129 71.5 198t173.5 69q36 0 67 -9q-18 33 -18 62 q0 64 52 103.5t144 39.5q63 0 113 -11v-271q56 86 160 86q66 0 100.5 -42.5t34.5 -113.5v-354h-120v325q0 100 -76 100q-53 0 -99 -46v-379z" />
<glyph horiz-adv-x="863" d="M430 460l-20 -78q-62 43 -110 43q-57 0 -94 -44.5t-37 -131.5q0 -81 34.5 -126.5t102.5 -45.5q54 0 112 28l-2 -85q-52 -30 -132 -30q-106 0 -172.5 66.5t-66.5 187.5q0 128 71 197t172 69q35 0 70 -10q-17 25 -17 62q0 63 50.5 103.5t126.5 40.5q74 0 121 -38t47 -98 q0 -52 -27 -87h172l-5 -54l-157 4v-254q0 -46 15.5 -73.5t59.5 -27.5q48 0 88 25l2 -83q-49 -30 -129 -30q-156 0 -156 165v280l-48 2l6 35l53 11q15 26 15 61q0 44 -24.5 68.5t-65.5 24.5q-40 0 -66 -24t-26 -66q0 -47 37 -87z" />
<glyph horiz-adv-x="1008" d="M409 132q0 -64 -53 -103t-147 -39q-92 0 -166 31l8 98q72 -45 157 -45q41 0 62 16t21 43q0 11 -5 21.5t-11 17t-20 15t-22.5 13t-29 14t-29.5 13.5q-56 27 -87 57.5t-31 79.5q0 66 55 106t143 40q38 0 80 -10q-19 32 -19 65q0 62 56.5 101.5t155.5 39.5q65 0 114 -11 v-271q58 86 160 86q66 0 101 -42.5t35 -113.5v-354h-120v325q0 100 -77 100q-53 0 -99 -46v-379h-120v563l-3 47q-22 6 -49 6q-44 0 -69.5 -19t-25.5 -54q0 -37 30 -72l-15 -85q-71 41 -135 41q-36 0 -57.5 -17t-21.5 -44q0 -20 17 -37.5t32.5 -25.5t49.5 -24 q30 -14 49.5 -25t41.5 -29t33 -41t11 -52z" />
<glyph horiz-adv-x="435" d="M382 182q0 -92 -48.5 -140t-120.5 -48t-116 46.5t-44 133.5q0 90 48 140t122 50q73 0 116 -48.5t43 -133.5zM140 181q0 -65 19.5 -103t57.5 -38t58 36t20 96q0 146 -77 146q-78 0 -78 -137z" />
<glyph horiz-adv-x="313" d="M198 0h-85v307l-67 -25l-11 39l157 44l6 -4v-361z" />
<glyph horiz-adv-x="392" d="M310 0h-260l-7 48q179 131 179 206q0 26 -19 41t-50 15q-47 0 -99 -34l-9 59q62 30 133 30q62 0 100.5 -27t38.5 -72q0 -54 -58.5 -105.5t-155.5 -94.5h81q69 0 132 9z" />
<glyph horiz-adv-x="361" d="M311 96q0 -46 -44.5 -74.5t-120.5 -28.5q-61 0 -101 13l8 48q38 -15 76 -15q40 0 63.5 17.5t23.5 44.5q0 28 -25.5 42t-64.5 14q-23 0 -39 -4v30q54 13 86 35.5t32 46.5q0 20 -18 32.5t-47 12.5q-43 0 -85 -22l-3 51q50 26 120 26q57 0 92 -22.5t35 -58.5 q0 -33 -32 -58.5t-93 -38.5q64 -4 100.5 -27.5t36.5 -63.5z" />
<glyph horiz-adv-x="419" d="M294 0h-85v65h-173l-5 35l202 265l61 -5v-226q24 1 58 5l-6 -74h-52v-65zM209 291l-120 -160h117h3v160z" />
<glyph horiz-adv-x="393" d="M331 109q0 -54 -47 -85t-125 -31q-62 0 -101 13l7 45q39 -12 84 -12q39 0 63 18t24 50q0 31 -22.5 47t-57.5 16q-30 0 -70 -11l-8 4v195h131q64 0 109 5l-6 -72h-190v-95q38 12 78 12q60 0 95.5 -26.5t35.5 -72.5z" />
<glyph horiz-adv-x="398" d="M206 -7q-69 0 -111 41.5t-42 120.5q0 95 60.5 152.5t156.5 57.5q36 0 52 -6l-8 -47q-19 7 -46 7q-49 0 -84.5 -35t-42.5 -107q15 18 42.5 29t55.5 11q48 0 81 -28t33 -76q0 -54 -42 -87t-105 -33zM204 39q29 0 47 19.5t18 51.5q0 31 -17 50.5t-47 19.5q-43 0 -65 -33 q2 -108 64 -108z" />
<glyph horiz-adv-x="364" d="M180 0h-94q5 78 55.5 159.5t125.5 131.5h-89q-66 0 -132 -7l6 74h264l6 -5l2 -40q-135 -145 -144 -313z" />
<glyph horiz-adv-x="413" d="M201 -7q-66 0 -107 25.5t-41 63.5q0 30 28 54t74 33q-88 38 -88 99q0 43 40.5 70t102.5 27q59 0 98 -25t39 -64q0 -29 -24 -50.5t-66 -31.5q48 -17 75.5 -43.5t27.5 -57.5q0 -41 -43 -70.5t-116 -29.5zM207 319q-24 0 -41 -12t-17 -31q0 -41 66 -67q49 25 49 62 q0 22 -16 35t-41 13zM204 39q30 0 51.5 14.5t21.5 36.5q0 36 -83 61q-57 -24 -57 -62q0 -21 19 -35.5t48 -14.5z" />
<glyph horiz-adv-x="403" d="M50 243q0 56 42 89t105 33q70 0 112 -41.5t42 -119.5q0 -96 -60.5 -153.5t-156.5 -57.5q-35 0 -53 6l8 47q21 -7 47 -7q49 0 85 33t41 98q-14 -18 -41.5 -29t-55.5 -11q-48 0 -81.5 31.5t-33.5 81.5zM134 246q0 -33 17 -56t48 -23q42 0 64 32q0 121 -65 121 q-29 0 -46.5 -20t-17.5 -54z" />
<glyph horiz-adv-x="623" d="M570 331q0 -166 -76 -253.5t-190 -87.5q-113 0 -182 85.5t-69 241.5q0 164 75 253.5t192 89.5q115 0 182.5 -87t67.5 -242zM176 328q0 -124 34 -197.5t101 -73.5q65 0 100.5 69.5t35.5 190.5q0 129 -34 202.5t-101 73.5q-64 0 -100 -68t-36 -197z" />
<glyph horiz-adv-x="395" d="M280 0h-120v574l-109 -49l-16 59l237 76l8 -6v-654z" />
<glyph horiz-adv-x="552" d="M465 0h-412l-10 67q61 53 106 97t92.5 99.5t73 108.5t25.5 100q0 50 -32.5 79.5t-87.5 29.5q-82 0 -159 -62l-13 86q94 55 209 55q98 0 157.5 -48t58.5 -130q0 -175 -348 -388h136q107 0 213 14z" />
<glyph horiz-adv-x="515" d="M465 175q0 -83 -70 -134t-191 -51q-87 0 -159 24l11 70q62 -26 125 -26q71 0 110.5 34.5t39.5 88.5q0 56 -44 83.5t-109 27.5q-36 0 -63 -6v45q91 25 143.5 68.5t52.5 93.5q0 40 -29.5 64t-80.5 24q-65 0 -139 -42l-6 74q82 47 190 47q90 0 144.5 -39t53.5 -103 q0 -60 -51.5 -106.5t-150.5 -73.5q104 -5 163.5 -47t59.5 -116z" />
<glyph horiz-adv-x="602" d="M440 0h-120v131h-281l-8 50l323 479l86 -10v-426q53 3 94 10l-9 -103h-85v-131zM320 540l-220 -321h201h19v321z" />
<glyph horiz-adv-x="549" d="M486 197q0 -95 -74 -151t-195 -56q-87 0 -159 24l10 67q65 -24 136 -24q67 0 108 36.5t41 100.5q0 62 -39 94.5t-99 32.5q-58 0 -113 -21l-12 9v341h205q94 0 171 10l-9 -103h-301v-199q62 20 122 20q95 0 151.5 -49t56.5 -132z" />
<glyph horiz-adv-x="567" d="M293 -10q-109 0 -174.5 75.5t-65.5 216.5q0 172 94.5 275t243.5 103q57 0 85 -12l-12 -68q-31 13 -76 13q-84 0 -143.5 -71.5t-67.5 -216.5q27 40 71.5 61.5t92.5 21.5q77 0 129 -51t52 -136q0 -94 -65.5 -152.5t-163.5 -58.5zM290 57q51 0 82.5 38.5t31.5 100.5 q0 61 -29 98.5t-80 37.5q-76 0 -118 -65q2 -106 28.5 -158t84.5 -52z" />
<glyph horiz-adv-x="524" d="M246 0h-133q9 149 91.5 305.5t199.5 251.5h-145q-111 0 -213 -15l10 108h416l9 -7l3 -56q-101 -120 -166 -275t-72 -312z" />
<glyph horiz-adv-x="584" d="M53 147q0 57 47 101t120 63q-65 31 -105 77.5t-40 104.5q0 74 63.5 120.5t158.5 46.5q92 0 152.5 -43.5t60.5 -112.5q0 -54 -40 -96t-109 -62q79 -29 125 -76t46 -105q0 -73 -67.5 -124t-178.5 -51q-103 0 -168 44.5t-65 112.5zM191 504q0 -41 31.5 -75.5t79.5 -57.5 q42 23 67 56.5t25 70.5q0 42 -28.5 68.5t-71.5 26.5q-42 0 -72.5 -25t-30.5 -64zM171 156q0 -42 33.5 -70.5t84.5 -28.5q53 0 88.5 30t35.5 74q1 41 -34 69t-103 55q-46 -23 -75.5 -56.5t-29.5 -72.5z" />
<glyph horiz-adv-x="572" d="M520 368q0 -172 -95 -275t-244 -103q-58 0 -84 12l12 68q35 -13 75 -13q85 0 144.5 66.5t66.5 201.5q-27 -39 -71 -61t-91 -22q-77 0 -130 54.5t-53 143.5q0 98 64 159t165 61q109 0 175 -75.5t66 -216.5zM169 445q0 -64 29 -105t80 -41q76 0 117 64q-2 117 -28.5 173.5 t-83.5 56.5q-52 0 -83 -40.5t-31 -107.5z" />
<glyph horiz-adv-x="435" d="M382 474q0 -92 -48.5 -140t-120.5 -48t-116 46.5t-44 133.5q0 90 48 140t122 50q73 0 116 -48.5t43 -133.5zM140 473q0 -65 19.5 -103t57.5 -38t58 36t20 96q0 146 -77 146q-78 0 -78 -137z" />
<glyph horiz-adv-x="313" d="M198 292h-85v307l-67 -25l-11 39l157 44l6 -4v-361z" />
<glyph horiz-adv-x="392" d="M310 292h-260l-7 48q179 131 179 206q0 26 -19 41t-50 15q-47 0 -99 -34l-9 59q62 30 133 30q62 0 100.5 -27t38.5 -72q0 -54 -58.5 -105.5t-155.5 -94.5h81q69 0 132 9z" />
<glyph horiz-adv-x="361" d="M311 388q0 -46 -44.5 -74.5t-120.5 -28.5q-56 0 -101 13l8 48q38 -15 76 -15q40 0 63.5 17.5t23.5 44.5q0 28 -25.5 42t-64.5 14q-23 0 -39 -4v30q54 13 86 35.5t32 46.5q0 20 -18 32.5t-47 12.5q-43 0 -85 -22l-3 51q50 26 120 26q57 0 92 -22.5t35 -58.5 q0 -33 -32 -58.5t-93 -38.5q64 -4 100.5 -27.5t36.5 -63.5z" />
<glyph horiz-adv-x="419" d="M294 292h-85v65h-173l-5 35l202 265l61 -5v-226q24 1 58 5l-6 -74h-52v-65zM209 583l-120 -160h117h3v160z" />
<glyph horiz-adv-x="393" d="M331 401q0 -54 -47 -85t-125 -31q-57 0 -101 13l7 45q39 -12 84 -12q39 0 63 18t24 50q0 31 -22.5 47t-57.5 16q-30 0 -70 -11l-8 4v195h131q64 0 109 5l-6 -72h-190v-95q38 12 78 12q60 0 95.5 -26.5t35.5 -72.5z" />
<glyph horiz-adv-x="398" d="M206 285q-69 0 -111 41.5t-42 120.5q0 95 60.5 152.5t156.5 57.5q36 0 52 -6l-8 -47q-19 7 -46 7q-49 0 -84.5 -35t-42.5 -107q15 18 42.5 29t55.5 11q48 0 81 -28t33 -76q0 -54 -42 -87t-105 -33zM204 331q29 0 47 19.5t18 51.5q0 31 -17 50.5t-47 19.5q-43 0 -65 -33 q2 -108 64 -108z" />
<glyph horiz-adv-x="364" d="M180 292h-94q5 78 55.5 159.5t125.5 131.5h-89q-66 0 -132 -7l6 74h264l6 -5l2 -40q-135 -145 -144 -313z" />
<glyph horiz-adv-x="413" d="M201 285q-66 0 -107 25.5t-41 63.5q0 30 28 54t74 33q-88 38 -88 99q0 43 40.5 70t102.5 27q59 0 98 -25t39 -64q0 -29 -24 -50.5t-66 -31.5q48 -17 75.5 -43.5t27.5 -57.5q0 -41 -43 -70.5t-116 -29.5zM207 611q-24 0 -41 -12t-17 -31q0 -41 66 -67q49 25 49 62 q0 22 -16 35t-41 13zM204 331q30 0 51.5 14.5t21.5 36.5q0 36 -83 61q-57 -24 -57 -62q0 -21 19 -35.5t48 -14.5z" />
<glyph horiz-adv-x="403" d="M50 535q0 56 42 89t105 33q70 0 112 -41.5t42 -119.5q0 -96 -60.5 -153.5t-156.5 -57.5q-35 0 -53 6l8 47q21 -7 47 -7q49 0 85 33t41 98q-14 -18 -41.5 -29t-55.5 -11q-48 0 -81.5 31.5t-33.5 81.5zM134 538q0 -33 17 -56t48 -23q42 0 64 32q0 121 -65 121 q-29 0 -46.5 -20t-17.5 -54z" />
<glyph horiz-adv-x="568" d="M515 256q0 -129 -68 -197.5t-171 -68.5q-100 0 -161.5 65.5t-61.5 186.5q0 128 67.5 198t171.5 70q102 0 162.5 -67.5t60.5 -186.5zM176 253q0 -89 27 -142.5t81 -53.5q51 0 79.5 49.5t28.5 137.5q0 92 -27 145.5t-80 53.5q-51 0 -80 -48.5t-29 -141.5z" />
<glyph horiz-adv-x="395" d="M280 0h-120v424l-109 -49l-16 59l237 76l8 -6v-504z" />
<glyph horiz-adv-x="525" d="M443 0h-390l-10 61q59 43 94.5 70.5t80 68.5t66 77.5t21.5 69.5q0 37 -25.5 60.5t-68.5 23.5q-77 0 -154 -72l-13 86q39 27 96 46t118 19q80 0 130.5 -36.5t50.5 -99.5q0 -81 -81.5 -152t-222.5 -138h105q107 0 213 14z" />
<glyph horiz-adv-x="515" d="M465 25q0 -83 -70 -134t-191 -51q-85 0 -159 23l11 71q64 -27 125 -27q71 0 110.5 35t39.5 89q0 56 -44 83.5t-109 27.5q-36 0 -63 -6v45q91 25 143.5 68.5t52.5 93.5q0 40 -29.5 64t-80.5 24q-65 0 -139 -42l-6 74q82 47 190 47q90 0 144.5 -39t53.5 -103 q0 -60 -51.5 -106.5t-150.5 -73.5q104 -5 163.5 -47t59.5 -116z" />
<glyph horiz-adv-x="606" d="M444 -185h-120v180h-285l-8 51l328 464l85 -10v-412q33 2 95 10l-10 -103h-85v-180zM324 400l-220 -317l202 1h18v316z" />
<glyph horiz-adv-x="549" d="M486 47q0 -95 -73.5 -151t-195.5 -56q-85 0 -159 23l10 67q67 -23 136 -23q67 0 108 36.5t41 100.5q0 62 -39 94.5t-99 32.5q-58 0 -113 -21l-12 9v341h205q94 0 171 10l-9 -103h-301v-199q62 20 122 20q95 0 151.5 -49t56.5 -132z" />
<glyph horiz-adv-x="567" d="M293 -10q-109 0 -174.5 75.5t-65.5 216.5q0 172 94.5 275t243.5 103q57 0 85 -12l-12 -68q-31 13 -76 13q-84 0 -143.5 -71.5t-67.5 -216.5q27 40 71.5 61.5t92.5 21.5q77 0 129 -51t52 -136q0 -94 -65.5 -152.5t-163.5 -58.5zM290 57q51 0 82.5 38.5t31.5 100.5 q0 61 -29 98.5t-80 37.5q-76 0 -118 -65q2 -106 28.5 -158t84.5 -52z" />
<glyph horiz-adv-x="524" d="M246 -150h-133q9 149 91.5 305.5t199.5 251.5h-145q-111 0 -213 -15l10 108h416l9 -7l3 -56q-101 -120 -166 -275t-72 -312z" />
<glyph horiz-adv-x="584" d="M53 147q0 57 47 101t120 63q-65 31 -105 77.5t-40 104.5q0 74 63.5 120.5t158.5 46.5q92 0 152.5 -43.5t60.5 -112.5q0 -54 -40 -96t-109 -62q79 -29 125 -76t46 -105q0 -73 -67.5 -124t-178.5 -51q-103 0 -168 44.5t-65 112.5zM191 504q0 -41 31.5 -75.5t79.5 -57.5 q42 23 67 56.5t25 70.5q0 42 -28.5 68.5t-71.5 26.5q-42 0 -72.5 -25t-30.5 -64zM171 156q0 -42 33.5 -70.5t84.5 -28.5q53 0 88.5 30t35.5 74q1 41 -34 69t-103 55q-46 -23 -75.5 -56.5t-29.5 -72.5z" />
<glyph horiz-adv-x="567" d="M515 218q0 -172 -95 -275t-244 -103q-58 0 -84 12l12 68q31 -13 75 -13q85 0 144.5 66.5t66.5 201.5q-27 -39 -71 -61t-91 -22q-77 0 -130 54.5t-53 143.5q0 98 64 159t165 61q109 0 175 -75.5t66 -216.5zM164 295q0 -64 29 -105t80 -41q76 0 117 64q-2 117 -28.5 173.5 t-83.5 56.5q-52 0 -83 -40.5t-31 -107.5z" />
<glyph horiz-adv-x="289" d="M188 164h-81q-11 336 -25 486l126 10q3 -47 3 -120q0 -185 -23 -376zM211 36q0 -30 -20 -48.5t-51 -18.5q-27 0 -44 15t-17 41q0 29 20 48.5t52 19.5q27 0 43.5 -15t16.5 -42z" />
<glyph horiz-adv-x="289" d="M78 607q0 30 20 48t51 18q27 0 44 -15t17 -41q0 -29 -20 -48t-52 -19q-27 0 -43.5 15t-16.5 42zM101 487h82q11 -363 24 -505l-126 -10q-3 55 -3 134q0 176 23 381z" />
<glyph horiz-adv-x="515" d="M272 160h-85q-10 26 -10 67q0 32 16 63.5t38.5 56t45.5 48t39 49.5t16 51q0 36 -28 56t-67 20q-37 0 -77.5 -17.5t-71.5 -47.5l-48 67q96 87 217 87q86 0 142 -45.5t56 -120.5q0 -41 -19 -76t-46.5 -59.5t-54.5 -47.5t-46 -50.5t-19 -56.5q0 -18 2 -44zM299 36 q0 -30 -20.5 -48.5t-50.5 -18.5q-27 0 -44 15t-17 41q0 29 20 48.5t51 19.5q27 0 44 -15t17 -42z" />
<glyph horiz-adv-x="515" d="M215 615q0 29 20.5 47.5t50.5 18.5q27 0 44 -15t17 -41q0 -29 -20 -48t-51 -19q-28 0 -44.5 15t-16.5 42zM242 490h85q10 -24 10 -67q0 -32 -16 -63t-38.5 -55.5t-45.5 -48t-39 -49.5t-16 -51q0 -36 28 -56.5t67 -20.5q36 0 77 18t72 48l48 -67q-97 -88 -217 -88 q-86 0 -142 46t-56 120q0 41 19 76.5t46 60t54.5 47.5t46.5 50t19 56q0 20 -2 44z" />
<glyph horiz-adv-x="310" d="M153 193q-26 0 -42.5 16t-16.5 41q0 26 19 45t46 19q24 0 39.5 -15t15.5 -40q0 -27 -17 -46.5t-44 -19.5z" />
<glyph horiz-adv-x="436" d="M346 273q0 -59 -39.5 -97.5t-99.5 -38.5q-51 0 -84 30t-33 82q0 58 40.5 97t100.5 39q50 0 82.5 -30t32.5 -82z" />
<glyph horiz-adv-x="417" d="M182 395l15 112l-90 -69l-27 47l106 43l-106 43l27 46l90 -69l-15 112h54l-16 -113l90 70l27 -46l-105 -44l105 -42l-27 -47l-90 70l16 -113h-54z" />
<glyph horiz-adv-x="396" d="M145 -10l-55 14l-2 5l163 651l55 -13l3 -5z" />
<glyph horiz-adv-x="396" d="M251 -10l-163 652l2 5l55 13l164 -651l-3 -5z" />
<glyph horiz-adv-x="695" d="M594 179h-139l-46 -189l-57 8l-6 7l43 174h-146l-46 -189l-57 8l-6 7l43 174h-126l-6 5l8 52h138l44 179h-135l-6 5l7 52h148l47 188l56 -8l6 -6l-43 -174h146l47 188l56 -8l6 -6l-43 -174h117l6 -5l-8 -52h-129l-44 -179h126l6 -5zM257 236h146l44 179h-146z" />
<glyph horiz-adv-x="642" d="M544 124h-123l-33 -134l-56 8l-6 7l29 119h-131l-33 -134l-56 8l-6 7l29 119h-107l-6 6l8 52h119l34 138h-109l-6 6l7 52h122l33 132l57 -8l6 -6l-30 -118h131l33 132l57 -8l6 -6l-30 -118h108l6 -6l-8 -52h-120l-34 -138h110l6 -6zM238 182h131l34 138h-131z" />
<glyph horiz-adv-x="358" d="M300 -49q-116 61 -179 160.5t-63 211.5q0 113 63 212.5t179 159.5l33 -44q-146 -128 -146 -328t146 -328z" />
<glyph horiz-adv-x="358" d="M300 323q0 -112 -63 -211.5t-179 -160.5l-33 44q146 128 146 328t-146 328l33 44q116 -60 179 -159.5t63 -212.5z" />
<glyph horiz-adv-x="377" d="M154 215q0 65 -94 73v65q50 5 72 23t22 52q0 24 -17 70.5t-17 77.5q0 62 52.5 90.5t166.5 28.5l2 -62q-102 0 -102 -69q0 -23 15.5 -69t15.5 -70q0 -42 -32 -69t-86 -36q52 -10 85 -36.5t33 -67.5q0 -22 -15.5 -69t-15.5 -70q0 -69 102 -70l-2 -62q-115 0 -167 29t-52 90 q0 32 17 80t17 71z" />
<glyph horiz-adv-x="377" d="M317 288l-94 -73q0 -23 17 -71t17 -80q0 -61 -52 -90t-167 -29l-2 62q102 1 102 70q0 23 -15.5 70t-15.5 69q0 41 32.5 68t85.5 36q-54 9 -86 36t-32 69q0 24 15.5 70t15.5 69q0 69 -102 69l2 62q114 0 166.5 -28.5t52.5 -90.5q0 -31 -17 -77.5t-17 -70.5q0 -34 22 -52 t72 -23v-65z" />
<glyph horiz-adv-x="371" d="M84 695h238v-69h-123v-602h123v-70h-238v741z" />
<glyph horiz-adv-x="371" d="M287 695v-741h-238v70h124v602h-124v69h238z" />
<glyph horiz-adv-x="355" d="M30 312v43h295v-43h-295z" />
<glyph horiz-adv-x="505" d="M30 312v43h445v-43h-445z" />
<glyph horiz-adv-x="778" d="M30 312v43h718v-43h-718z" />
<glyph horiz-adv-x="215" d="M145 44q0 -52 -36 -110.5t-86 -92.5l-18 20q54 64 67 130q-48 10 -48 55q0 29 17.5 47t43.5 18q27 0 43.5 -18.5t16.5 -48.5z" />
<glyph horiz-adv-x="412" d="M185 44q0 -52 -36 -110.5t-86 -92.5l-18 20q54 64 67 130q-48 10 -48 55q0 29 17.5 47t43.5 18q27 0 43.5 -18.5t16.5 -48.5zM342 44q0 -52 -36 -110.5t-86 -92.5l-18 20q54 64 67 130q-48 10 -48 55q0 29 17.5 47t43.5 18q27 0 43.5 -18.5t16.5 -48.5z" />
<glyph horiz-adv-x="378" d="M70 457q0 52 36 110.5t86 92.5l17 -20q-55 -68 -66 -130q48 -10 48 -55q0 -29 -17.5 -47t-43.5 -18q-27 0 -43.5 18.5t-16.5 48.5zM234 457q0 52 36 110.5t85 92.5l18 -20q-54 -64 -67 -130q48 -10 48 -55q0 -30 -17 -47.5t-44 -17.5t-43 18.5t-16 48.5z" />
<glyph horiz-adv-x="378" d="M308 593q0 -52 -36 -110.5t-85 -92.5l-18 20q55 68 66 130q-47 10 -47 55q0 30 17 47.5t44 17.5t43 -18.5t16 -48.5zM145 593q0 -52 -36 -110.5t-86 -92.5l-18 20q54 64 67 130q-48 10 -48 55q0 29 17.5 47t43.5 18q27 0 43.5 -18.5t16.5 -48.5z" />
<glyph horiz-adv-x="215" d="M70 457q0 52 36 110.5t86 92.5l17 -20q-55 -68 -66 -130q48 -10 48 -55q0 -29 -17.5 -47t-43.5 -18q-27 0 -43.5 18.5t-16.5 48.5z" />
<glyph horiz-adv-x="215" d="M145 593q0 -52 -36 -110.5t-86 -92.5l-18 20q54 64 67 130q-48 10 -48 55q0 29 17.5 47t43.5 18q27 0 43.5 -18.5t16.5 -48.5z" />
<glyph horiz-adv-x="525" d="M257 345v31q106 93 195 201l25 -15q-38 -85 -121 -202q83 -117 121 -202l-25 -14q-93 112 -195 201zM49 345v31q106 93 195 201l25 -15q-38 -85 -121 -202q83 -117 121 -202l-25 -14q-93 112 -195 201z" />
<glyph horiz-adv-x="525" d="M269 345q-100 -87 -196 -201l-24 14q37 84 120 202q-83 118 -120 202l24 15q91 -110 196 -201v-31zM477 345q-100 -87 -196 -201l-24 14q37 84 120 202q-83 118 -120 202l24 15q91 -110 196 -201v-31z" />
<glyph horiz-adv-x="317" d="M49 342v31q106 93 195 201l25 -15q-38 -85 -121 -202q83 -117 121 -202l-25 -14q-93 112 -195 201z" />
<glyph horiz-adv-x="317" d="M269 342q-100 -87 -196 -201l-24 14q37 84 120 202q-83 118 -120 202l24 15q91 -110 196 -201v-31z" />
<glyph horiz-adv-x="377" d="M147 660l-27 -275h-40l-27 275h94zM325 660l-28 -275h-39l-28 275h95z" />
<glyph horiz-adv-x="210" d="M152 660l-27 -275h-40l-27 275h94z" />
<glyph horiz-adv-x="464" d="M286 -120l-40 -3v115q-92 12 -146.5 77t-54.5 175q0 119 62 187t159 78v111l40 3v-113q63 -3 115 -29l-11 -99q-50 43 -111 43q-56 0 -93 -44.5t-37 -131.5q0 -82 35 -127t102 -45q54 0 112 28l-2 -85q-52 -30 -130 -30v-110z" />
<glyph horiz-adv-x="502" d="M425 67l-71 72q-46 -40 -112 -40q-62 0 -102 31l-64 -64l-30 31l63 63q-36 45 -36 109q0 65 41 115l-67 68l29 29q10 -11 33 -33.5t35 -35.5q46 34 103 33q61 1 107 -36l71 72l30 -31l-72 -72q33 -46 33 -102q0 -58 -34 -106q53 -51 74 -71zM133 271q0 -49 30 -83.5 t82 -34.5q54 0 82.5 35.5t28.5 84.5q0 47 -29.5 81t-80.5 34q-53 0 -83 -34t-30 -83z" />
<glyph horiz-adv-x="486" d="M215 -123v113q-99 4 -167 36l16 106q80 -52 157 -52q45 0 70 22.5t25 56.5q0 32 -26.5 60t-64 51t-75.5 49t-64.5 67t-26.5 93q0 72 46.5 119.5t124.5 58.5v113l50 3v-113q88 -2 150 -32l-21 -100q-66 43 -133 43q-45 0 -70 -23.5t-25 -58.5q0 -29 19 -54t47.5 -43.5 t62 -41.5t62 -46t47.5 -59t19 -79q1 -72 -45.5 -118.5t-127.5 -55.5v-112z" />
<glyph horiz-adv-x="564" d="M33 254l4 42h55v24q0 24 1 36h-48l4 42h49q18 120 90.5 191t182.5 71q89 0 157 -35l-18 -94q-56 40 -128 40q-69 0 -109 -46t-51 -127h217l-3 -42h-218v-14q-1 -15 0 -15q0 -21 1 -31h208l-3 -42h-201q28 -170 171 -170q73 0 119 28l14 -86q-72 -36 -158 -36 q-116 0 -187 70.5t-86 193.5h-63z" />
<glyph horiz-adv-x="561" d="M476 277l-165 3l-23 -215q-3 -29 -7.5 -51t-18 -56.5t-34 -57t-59 -39.5t-88.5 -17q-58 0 -111 20l28 69q49 -22 83 -22q86 0 96 137l14 235l-90 2l6 34l87 12q9 115 14 143q32 186 222 186q76 0 123 -27l-31 -85q-43 45 -98 45q-77 0 -95 -123q-12 -100 -14 -139h171z " />
<glyph horiz-adv-x="570" d="M473 286l-156 3l-1 -17q-20 -165 -109 -239q46 -25 74 -39t77 -28t95 -14q48 0 87 13l-34 -93q-19 -8 -58 -8q-50 0 -107 22.5t-89 43.5t-88 61q-9 7 -14 10q-30 -11 -64 -11q-68 0 -68 45q0 23 16 35.5t42 12.5q28 0 78 -23q34 52 40 153l3 78l-101 3l5 35l98 12 q8 164 61 250.5t175 86.5q67 0 119 -24l-29 -85q-49 41 -96 41q-21 0 -36 -7t-26 -24t-18.5 -36.5t-12.5 -53.5t-8.5 -66t-6.5 -82h162z" />
<glyph horiz-adv-x="567" d="M81 105v42h142v60h-142v42h123l-184 401l118 10l147 -351h2l148 351l112 -10l-184 -401h121v-42h-140v-60h140v-42h-140v-105h-121v105h-142z" />
<glyph horiz-adv-x="464" d="M286 -120l-40 -3v115q-92 12 -146.5 77t-54.5 175q0 119 62 187t159 78v111l40 3v-113q63 -3 115 -29l-11 -99q-50 43 -111 43q-56 0 -93 -44.5t-37 -131.5q0 -82 35 -127t102 -45q54 0 112 28l-2 -85q-52 -30 -130 -30v-110z" />
<glyph horiz-adv-x="502" d="M425 42l-71 72q-46 -40 -112 -40q-62 0 -102 31l-64 -64l-30 31l63 63q-36 45 -36 109q0 65 41 115l-67 68l29 29q10 -11 33 -33.5t35 -35.5q46 34 103 33q61 1 107 -36l71 72l30 -31l-72 -72q33 -46 33 -102q0 -58 -34 -106q53 -51 74 -71zM133 246q0 -49 30 -83.5 t82 -34.5q54 0 82.5 35.5t28.5 84.5q0 47 -29.5 81t-80.5 34q-53 0 -83 -34t-30 -83z" />
<glyph horiz-adv-x="452" d="M189 -123v114q-84 3 -146 30l8 98q72 -45 157 -45q41 0 62 16t21 43q0 11 -5 21.5t-11 17t-20 15t-22.5 13t-29 14t-29.5 13.5q-56 26 -87 57t-31 81q0 56 41.5 93.5t111.5 48.5v113l40 3v-113h9q75 0 139 -27l-8 -97q-71 41 -135 41q-36 0 -57.5 -17t-21.5 -44 q0 -20 17 -37.5t32.5 -25.5t49.5 -24q30 -14 49.5 -25t41.5 -29t33 -41t11 -52q0 -60 -47.5 -99t-132.5 -43v-110z" />
<glyph horiz-adv-x="509" d="M383 187h-163q24 -110 131 -110q54 0 112 28l-2 -85q-53 -30 -133 -30q-92 0 -155.5 51t-78.5 146h-69l4 36h62q-1 7 -1 21q0 11 2 35h-57l4 36h58q19 95 85.5 145t157.5 50q71 0 126 -29l-11 -99q-50 43 -111 43q-44 0 -77.5 -27.5t-46.5 -82.5h176l-4 -36h-177 q-1 -10 -1 -30v-26h173z" />
<glyph horiz-adv-x="558" d="M483 205l-162 3l-17 -126q-28 -205 -205 -205q-57 0 -111 20l29 69q49 -22 83 -22q43 0 67 32.5t27 84.5l9 150l-100 2l6 34l97 12q4 47 10 82q30 169 221 169q78 0 125 -27l-31 -85q-43 45 -100 45q-42 0 -63.5 -27.5t-30.5 -83.5q-7 -37 -10 -73h166z" />
<glyph horiz-adv-x="514" d="M442 207l-162 3q-24 -126 -93 -180q45 -24 73 -37.5t76 -27t93 -13.5q48 0 87 13l-34 -93q-19 -8 -58 -8q-50 0 -106 22t-88 42.5t-87 60.5q-9 7 -14 10q-29 -9 -63 -9q-73 0 -73 45q0 23 16.5 35.5t42.5 11.5q30 0 79 -22q27 45 37 135l1 17l-105 3l5 35l104 12 q4 48 17 89.5t38.5 78.5t70 58.5t103.5 21.5q67 0 121 -24l-30 -85q-46 42 -97 42q-28 0 -48.5 -14.5t-32 -43t-17.5 -56t-11 -67.5h165z" />
<glyph horiz-adv-x="522" d="M64 81v42h140v60h-140v42h127l-171 275l111 10l135 -238h1l130 238l105 -10l-165 -275h127v-42h-139v-60h139v-42h-139v-81h-121v81h-140z" />
<glyph d="M505 284h-157v-163h-88l-1 163h-161v78q76 2 161 2v166h89v-165q60 1 158 1z" />
<glyph d="M505 284h-407v78q123 4 408 4z" />
<glyph d="M443 127l-138 140l-136 -136l-59 58l137 137l-140 142l56 56q51 -48 142 -139l135 136l60 -60l-136 -135l139 -139v-9z" />
<glyph d="M365 513q0 -29 -18 -49.5t-47 -20.5q-24 0 -39.5 16.5t-15.5 41.5q0 28 19.5 48.5t47.5 20.5q23 0 38 -16t15 -41zM505 284h-407v78q123 4 408 4zM365 151q0 -29 -18 -49t-47 -20q-24 0 -39.5 16.5t-15.5 40.5q0 28 19.5 48.5t47.5 20.5q23 0 38 -16t15 -41z" />
<glyph d="M505 388h-407v78q123 4 408 4zM505 180h-407v78q123 4 408 4z" />
<glyph d="M201 70l-43 26l45 84h-105v78q70 2 149 2l69 128h-218v78q174 3 262 3l59 110l8 3l43 -26l-46 -86h82l-1 -82h-126l-68 -127q74 1 195 1l-1 -82h-238l-58 -107z" />
<glyph d="M96 109v95l297 123l-296 119v95q193 -77 405 -180v-70z" />
<glyph d="M508 109l-406 182l1 70q206 100 404 180v-95l-296 -119l297 -123v-95z" />
<glyph d="M105 225v87l296 87l-295 87v90q216 -64 406 -138v-75zM505 76h-407v77q153 5 408 5z" />
<glyph d="M505 576v-87l-296 -88l295 -86v-90q-216 64 -406 138v75zM505 76h-407v77q155 5 408 5z" />
<glyph d="M505 340h-155v-138h-87l-1 138h-164v78q78 2 164 2l-1 141h89v-140q60 1 156 1zM505 43h-407v78q124 4 408 4z" />
<glyph d="M183 421q-15 0 -60 -58l-43 21q60 121 106 121q26 0 125 -26t117 -26q14 0 60 57l43 -21q-17 -34 -29.5 -55.5t-34.5 -43.5t-43 -22q-26 0 -125.5 26.5t-115.5 26.5zM183 197q-15 0 -60 -58l-43 21q60 121 106 121q26 0 125 -26t117 -26q14 0 60 57l43 -21 q-17 -34 -29.5 -55.5t-34.5 -43.5t-43 -22q-26 0 -125.5 26.5t-115.5 26.5z" />
<glyph d="M512 383v-236h-87v152h-327v79q153 5 414 5z" />
<glyph horiz-adv-x="841" d="M759 297q0 -79 -47.5 -131t-122.5 -52q-57 0 -98.5 30.5t-77.5 82.5q-70 -113 -183 -113q-72 0 -118 51t-46 130t47.5 130.5t123.5 51.5q58 0 99 -31t78 -85q72 116 183 116q74 0 118 -50.5t44 -129.5zM580 405q-69 0 -129 -99q38 -60 68 -89t67 -29q38 0 63 29t25 79 t-26 79.5t-68 29.5zM151 297q0 -50 27 -80t71 -31q68 0 127 97q-37 59 -68 89.5t-68 30.5q-38 0 -63.5 -28.5t-25.5 -77.5z" />
<glyph horiz-adv-x="942" d="M307 -10h-73l400 670h73zM382 474q0 -92 -48.5 -140t-120.5 -48t-116 46.5t-44 133.5q0 90 48 140t122 50q73 0 116 -48.5t43 -133.5zM140 473q0 -65 19.5 -103t57.5 -38t58 36t20 96q0 146 -77 146q-78 0 -78 -137zM889 182q0 -92 -48.5 -140t-120.5 -48t-116 46.5 t-44 133.5q0 90 48 140t122 50q73 0 116 -48.5t43 -133.5zM647 181q0 -65 19.5 -103t57.5 -38t58 36t20 96q0 146 -77 146q-78 0 -78 -137z" />
<glyph horiz-adv-x="1340" d="M307 -10h-73l400 670h73zM382 474q0 -92 -48.5 -140t-120.5 -48t-116 46.5t-44 133.5q0 90 48 140t122 50q73 0 116 -48.5t43 -133.5zM140 473q0 -65 19.5 -103t57.5 -38t58 36t20 96q0 146 -77 146q-78 0 -78 -137zM889 182q0 -92 -48.5 -140t-120.5 -48t-116 46.5 t-44 133.5q0 90 48 140t122 50q73 0 116 -48.5t43 -133.5zM1288 182q0 -92 -48.5 -140t-121.5 -48q-72 0 -116 46.5t-44 133.5q0 90 48 140t122 50q73 0 116.5 -48.5t43.5 -133.5zM647 181q0 -65 19.5 -103t57.5 -38t58 36t20 96q0 146 -77 146q-78 0 -78 -137zM1045 181 q0 -141 78 -141q37 0 57 36t20 96q0 146 -77 146q-78 0 -78 -137z" />
<glyph d="M505 209h-157v-163h-87l-1 163h-162v78q76 2 162 2l-1 166h89v-165q61 1 158 1z" />
<glyph d="M505 209h-407v78q123 4 408 4z" />
<glyph d="M443 52l-138 140l-136 -136l-59 58l137 137l-140 142l56 56q51 -48 142 -139l135 136l60 -60l-136 -135l139 -139v-9z" />
<glyph d="M360 438q0 -29 -18 -49.5t-47 -20.5q-24 0 -39.5 17t-15.5 41q0 28 19.5 48.5t47.5 20.5q23 0 38 -16t15 -41zM500 209h-407v78q123 4 408 4zM360 76q0 -29 -18 -49t-47 -20q-24 0 -39.5 16.5t-15.5 40.5q0 28 19.5 48.5t47.5 20.5q23 0 38 -16t15 -41z" />
<glyph d="M505 313h-407v78q123 4 408 4zM505 105h-407v78q123 4 408 4z" />
<glyph d="M201 -6l-43 27l45 84h-105v77q52 3 149 3l69 128h-218v78q174 3 262 3l59 110l8 3l43 -26l-46 -86h82l-1 -82h-126l-68 -127q74 1 195 1l-1 -82h-238l-58 -108z" />
<glyph d="M102 33v95l297 123l-296 119v95q193 -77 405 -180v-70z" />
<glyph d="M508 33l-406 182l1 70q206 100 404 180v-95l-296 -119l297 -123v-95z" />
<glyph d="M104 159v80l299 83l-298 84v80q263 -79 405 -128v-70zM505 20h-407v73q124 4 409 4z" />
<glyph d="M506 486v-80l-298 -84l299 -83v-80l-406 129v70q142 49 405 128zM508 20h-407v73q123 4 409 4z" />
<glyph horiz-adv-x="607" d="M503 270h-158v-136h-87l-1 136h-161l-1 72q47 1 162 3l-1 138h89v-137q33 0 87.5 0.5t71.5 0.5zM502 -5h-407v73q155 5 409 5z" />
<glyph d="M182 346q-13 0 -60 -58l-43 21q17 34 29.5 55.5t34.5 43.5t43 22q26 0 124.5 -26t116.5 -26q13 0 61 57l42 -21q-58 -121 -106 -121q-26 0 -126 26.5t-116 26.5zM182 122q-13 0 -60 -58l-43 21q17 34 29.5 55.5t34.5 43.5t43 22q26 0 124.5 -26t116.5 -26q13 0 61 57 l42 -21q-58 -121 -106 -121q-26 0 -126 26.5t-116 26.5z" />
<glyph d="M512 382v-236h-87v152h-327v79q153 5 414 5z" />
<glyph horiz-adv-x="841" d="M767 281q0 -79 -47.5 -131t-122.5 -52q-57 0 -98.5 30.5t-77.5 82.5q-70 -113 -183 -113q-72 0 -118 51t-46 130t47.5 130.5t123.5 51.5q58 0 99 -31t78 -85q72 116 183 116q74 0 118 -50.5t44 -129.5zM588 389q-69 0 -129 -99q38 -60 68 -89t67 -29q38 0 63 29t25 79 t-26 79.5t-68 29.5zM159 281q0 -50 27 -80t71 -31q68 0 127 97q-37 59 -68 89.5t-68 30.5q-38 0 -63.5 -28.5t-25.5 -77.5z" />
<glyph horiz-adv-x="873" d="M359 377q0 -64 -44.5 -101.5t-111.5 -37.5q-66 0 -108 35.5t-42 97.5q0 63 44 101t113 38q68 0 108.5 -36t40.5 -97zM569 510h69l-335 -520h-69zM139 375q0 -43 19 -69t50 -26t48 26.5t17 67.5q0 44 -18 69.5t-49 25.5q-30 0 -48.5 -25.5t-18.5 -68.5zM820 129 q0 -64 -44.5 -101.5t-111.5 -37.5q-66 0 -108 35.5t-42 97.5q0 63 44 101t113 38q68 0 108.5 -36t40.5 -97zM600 127q0 -43 19 -69t50 -26t48 26.5t17 67.5q0 44 -18 69.5t-49 25.5q-30 0 -48.5 -25.5t-18.5 -68.5z" />
<glyph horiz-adv-x="1233" d="M359 377q0 -64 -44.5 -101.5t-111.5 -37.5q-66 0 -108 35.5t-42 97.5q0 63 44 101t113 38q68 0 108.5 -36t40.5 -97zM569 510h69l-335 -520h-69zM139 375q0 -43 19 -69t50 -26t48 26.5t17 67.5q0 44 -18 69.5t-49 25.5q-30 0 -48.5 -25.5t-18.5 -68.5zM1180 129 q0 -64 -44.5 -101.5t-111.5 -37.5q-66 0 -108 35.5t-42 97.5q0 63 44 101t113 38q68 0 108.5 -36t40.5 -97zM820 129q0 -64 -44.5 -101.5t-111.5 -37.5q-66 0 -108 35.5t-42 97.5q0 63 44 101t113 38q68 0 108.5 -36t40.5 -97zM960 127q0 -43 19 -69t50 -26t48 26.5t17 67.5 q0 44 -18 69.5t-49 25.5q-30 0 -48.5 -25.5t-18.5 -68.5zM600 127q0 -43 19 -69t50 -26t48 26.5t17 67.5q0 44 -18 69.5t-49 25.5q-30 0 -48.5 -25.5t-18.5 -68.5z" />
<glyph horiz-adv-x="777" d="M358 593q-33 0 -57 -22t-24 -62q0 -29 15.5 -62t31.5 -54t44 -54l124 -147q30 -33 31 -34q30 62 30 134q0 40 -7 75l114 14q3 -161 -88 -268q47 -35 89 -35q38 0 59 16l9 -78q-37 -26 -95 -26q-74 0 -140 56q-89 -56 -195 -56q-101 0 -162.5 46t-61.5 118q0 60 46 107.5 t114 71.5q-84 100 -84 174q0 65 53 109t142 44q60 0 109 -23.5t76 -60.5l-52 -79q-49 96 -121 96zM206 190q0 -63 42.5 -103t107.5 -40q58 0 102 33l-42 48l-140 158q-3 4 -9.5 11.5t-10.5 11.5q-50 -48 -50 -119z" />
<glyph horiz-adv-x="378" d="M190 310q-56 0 -91.5 35t-35.5 91q0 58 36.5 95.5t94.5 37.5q57 0 92 -35t35 -90q0 -58 -36.5 -96t-94.5 -38zM193 520q-35 0 -56 -24t-21 -59q0 -34 21.5 -56t54.5 -22q34 0 55 23.5t21 60.5q0 34 -20.5 55.5t-54.5 21.5z" />
<glyph horiz-adv-x="378" d="M190 160q-56 0 -91.5 35t-35.5 91q0 58 36.5 95.5t94.5 37.5q57 0 92 -35t35 -90q0 -58 -36.5 -96t-94.5 -38zM193 370q-35 0 -56 -24t-21 -59q0 -34 21.5 -56t54.5 -22q34 0 55 23.5t21 60.5q0 34 -20.5 55.5t-54.5 21.5z" />
<glyph horiz-adv-x="601" d="M268 808q-87 -62 -207 -86l-29 33q101 60 170 120zM569 808q-89 -62 -208 -86l-28 33q100 61 170 120zM211 0h-121v528l-9 122l130 10v-660zM296 -140q95 35 95 154v514l-9 122l129 10v-582q0 -123 -43.5 -189t-162.5 -84z" />
<glyph horiz-adv-x="530" d="M226 726q-54 -96 -142 -162l-37 20q48 76 85 176zM489 726q-55 -95 -142 -162l-37 20q51 83 85 176zM194 0h-120v377l-9 123l129 10v-510zM274 -149q65 72 65 203v323l-9 123l129 10v-438q0 -101 -36 -167t-122 -98z" />
</font>
</defs>
</svg>
